<svg width="269" height="77" viewBox="0 0 269 77" fill="none" xmlns="http://www.w3.org/2000/svg">
<path fill-rule="evenodd" clip-rule="evenodd" d="M67.1175 26.4937C67.7995 28.4579 67.1037 30.5735 65.1035 31.8832C63.9265 32.6537 62.6256 33.2327 61.4226 33.9671C60.0826 34.7849 58.7501 35.627 57.4948 36.5663C56.8642 37.038 56.3272 37.6933 55.8948 38.3608C54.1862 40.9974 55.1398 43.7259 58.1605 44.5291C61.5461 45.4294 64.9578 45.5296 68.1803 43.8379C71.2619 42.2202 71.6505 40.4592 69.6362 37.6116C69.3345 37.185 68.9828 36.7938 68.5135 36.2119C70.2331 36.7026 71.1508 37.819 71.8059 39.1476C74.2055 44.0152 71.7892 48.9765 66.4966 50.0984C63.9765 50.6327 61.4522 50.6652 58.9352 50.0579C55.5756 49.2471 53.6087 47.1099 53.153 43.7099C52.834 41.3318 52.9895 38.9463 53.8505 36.6686C54.7161 34.3791 56.2913 32.6981 58.4654 31.5956C60.4076 30.6106 62.4126 29.7419 64.3104 28.6794C65.3274 28.1101 66.1765 27.2404 67.1175 26.4937Z" fill="#8FA3AD"/>
<path fill-rule="evenodd" clip-rule="evenodd" d="M85.2384 47.3244H80.0553V29.6418C81.3824 29.6418 82.6986 29.5979 84.0081 29.6731C84.3323 29.6917 84.6852 30.0507 84.9387 30.3308C87.186 32.8148 89.4149 35.3153 91.6459 37.8139C91.8836 38.08 92.0999 38.3649 92.6059 38.5388V29.7208H97.8242V47.3578C96.4359 47.3578 95.0778 47.4029 93.7268 47.3246C93.4096 47.3062 93.0759 46.9074 92.8183 46.6217C90.5749 44.1334 88.3453 41.6324 86.1174 39.1299C85.9061 38.8927 85.7356 38.6191 85.5465 38.3625C85.4436 38.4062 85.341 38.4501 85.2384 38.494V47.3244Z" fill="#1C1E26"/>
<path fill-rule="evenodd" clip-rule="evenodd" d="M100.264 47.3031V29.6964H116.437V33.7021H105.671C105.53 33.9044 105.451 33.9655 105.443 34.0353C105.154 36.4003 105.155 36.4003 107.494 36.4003C108.976 36.4003 110.459 36.4003 112.008 36.4003V40.3327C110.204 40.3327 108.408 40.3123 106.612 40.3487C106.218 40.3565 105.507 40.5311 105.49 40.6885C105.405 41.4685 105.464 42.2744 105.584 43.0542C105.601 43.165 106.229 43.2327 106.574 43.2341C109.522 43.245 112.47 43.2358 115.418 43.2329C115.94 43.2324 116.461 43.2329 117.075 43.2329V47.3031H100.264Z" fill="#1C1E26"/>
<path fill-rule="evenodd" clip-rule="evenodd" d="M129.051 47.2251C128.895 47.259 128.855 47.2748 128.815 47.275C127.363 47.2767 125.57 47.7955 124.557 47.1288C123.581 46.487 123.365 44.6355 122.898 43.2871C121.433 39.0566 120.006 34.813 118.568 30.5735C118.479 30.3132 118.421 30.0428 118.295 29.5769C120.075 29.5769 121.749 29.5432 123.418 29.6162C123.649 29.6262 123.956 30.133 124.059 30.4626C124.835 32.9244 125.566 35.4001 126.317 37.8698C126.452 38.3146 126.613 38.7519 127.026 39.1929C127.536 37.6499 128.05 36.1078 128.557 34.5636C129.009 33.1841 129.479 31.8094 129.893 30.4183C130.085 29.7702 130.43 29.5558 131.108 29.5437C134.035 29.4911 134.031 29.4697 134.929 32.2787C135.568 34.2762 136.215 36.2713 136.867 38.2647C136.975 38.595 137.127 38.9108 137.394 39.5651C138.149 37.0979 138.82 34.9645 139.455 32.8208C140.416 29.5755 140.405 29.5721 143.807 29.5624C144.408 29.5607 145.009 29.5621 145.77 29.5621C145.648 30.0559 145.586 30.4299 145.465 30.784C143.692 35.9728 141.898 41.1545 140.149 46.3512C139.905 47.0747 139.589 47.3834 138.792 47.3226C137.589 47.2309 136.072 47.6982 135.253 47.1239C134.444 46.5569 134.317 44.9969 133.924 43.8609C133.323 42.1227 132.75 40.3747 131.891 38.6185C130.949 41.4717 130.008 44.3251 129.051 47.2251Z" fill="#1C1E26"/>
<path fill-rule="evenodd" clip-rule="evenodd" d="M160.562 40.5868H155.327V36.8567H165.639C165.639 39.493 165.647 42.1048 165.622 44.7167C165.62 44.9058 165.419 45.1593 165.241 45.2709C161.247 47.7743 155.335 49.075 150.611 46.4139C147.203 44.494 145.388 41.0838 145.838 37.4691C146.294 33.8024 149.197 30.6245 153.093 29.5261C156.956 28.4371 162.308 29.5809 165.523 32.2325C164.479 33.232 163.443 34.2232 162.584 35.0454C160.827 34.4476 159.275 33.7416 157.647 33.4028C154.305 32.7074 151.471 34.8247 151.144 38.073C150.828 41.213 153.256 43.7427 156.649 43.7645C157.371 43.7691 158.102 43.6735 158.812 43.5372C160.79 43.1572 160.981 42.8307 160.562 40.5868Z" fill="#1C1E26"/>
<path fill-rule="evenodd" clip-rule="evenodd" d="M168.08 47.3042H173.082V29.6956H168.08V47.3042Z" fill="#1C1E26"/>
<path fill-rule="evenodd" clip-rule="evenodd" d="M185.21 33.8037H176.14V29.6913H192.744C193.035 31.3083 192.803 32.5983 191.565 33.8558C188.906 36.5557 186.441 39.4469 183.901 42.2637C183.692 42.4956 183.513 42.7551 183.182 43.1785H192.785V47.3086H175.633C175.44 45.8656 175.364 44.6066 176.579 43.3672C179.289 40.6036 181.815 37.6599 184.412 34.7862C184.644 34.5301 184.849 34.2499 185.21 33.8037Z" fill="#1C1E26"/>
<path fill-rule="evenodd" clip-rule="evenodd" d="M207.546 41.1702C206.695 39.2678 205.896 37.483 205.098 35.6984C204.99 35.7154 204.881 35.7326 204.772 35.7499C203.992 37.517 203.212 39.2843 202.38 41.1702H207.546ZM216 47.405C214.199 47.405 212.551 47.4734 210.917 47.3539C210.537 47.3262 210.029 46.7155 209.884 46.2736C209.483 45.0442 208.772 44.6317 207.48 44.7199C205.672 44.8436 203.848 44.8092 202.037 44.7263C201.076 44.6824 200.462 44.9489 200.257 45.8965C199.974 47.2103 199.177 47.5588 197.901 47.4259C196.71 47.3017 195.497 47.3992 194.077 47.3992C194.882 45.7839 195.612 44.3217 196.34 42.8583C198.387 38.7444 200.444 34.6362 202.464 30.5092C202.773 29.8786 203.169 29.7239 203.845 29.6262C206.312 29.2701 207.706 30.1005 208.751 32.53C210.756 37.1883 213.203 41.6563 215.463 46.2052C215.636 46.554 215.782 46.9166 216 47.405Z" fill="#1C1E26"/>
</svg>
