<svg width="269" height="77" viewBox="0 0 269 77" fill="none" xmlns="http://www.w3.org/2000/svg">
<path fill-rule="evenodd" clip-rule="evenodd" d="M48.0212 38.4997L71.6303 14.8225V38.4997H48.0212Z" fill="#E11900"/>
<path fill-rule="evenodd" clip-rule="evenodd" d="M48.0214 38.5H71.6305V62.1986H71.6091L48 38.5214L48.0214 38.5Z" fill="#870F00"/>
<path fill-rule="evenodd" clip-rule="evenodd" d="M95.2612 38.4785V38.4999H71.6307V14.8227L71.6521 14.8013L95.2612 38.4785Z" fill="#AB1300"/>
<path fill-rule="evenodd" clip-rule="evenodd" d="M95.2612 38.5643L71.6948 62.1986H71.6307V38.5H95.2612V38.5643Z" fill="#870F00"/>
<path fill-rule="evenodd" clip-rule="evenodd" d="M63.3099 30.4042L71.6459 37.2966L79.951 30.4042L72.9618 38.5762L79.951 46.7556L71.6304 39.9034L63.3099 47.2282L70.1995 38.5762L63.3099 30.4042ZM65.0164 28.9443L71.7123 33.7715L78.2023 28.9443L71.6414 34.91L65.0164 28.9443ZM66.5141 27.2754L71.7114 31.0223L76.749 27.2754L71.6564 31.906L66.5141 27.2754ZM68.0118 25.7734L71.7106 28.4399L75.2957 25.7734L71.6714 29.0688L68.0118 25.7734ZM69.5095 24.4382L71.7097 26.0244L73.8423 24.4382L71.6864 26.3985L69.5095 24.4382ZM65.0164 48.3887L71.6414 42.423L78.2023 48.3887L71.7123 43.5615L65.0164 48.3887ZM66.5141 50.0576L71.6564 45.427L76.749 50.0576L71.7114 46.3107L66.5141 50.0576ZM68.0118 51.5596L71.6714 48.2642L75.2957 51.5596L71.7106 48.8931L68.0118 51.5596ZM69.5095 52.8947L71.6864 50.9344L73.8423 52.8947L71.7097 51.3086L69.5095 52.8947ZM80.9939 45.2806L75.0282 38.6556L80.9939 32.0946L76.1667 38.5847L80.9939 45.2806ZM82.6628 43.7829L78.0323 38.6406L82.6628 33.548L78.916 38.5856L82.6628 43.7829ZM84.1649 42.2852L80.8694 38.6256L84.1649 35.0013L81.4983 38.5864L84.1649 42.2852ZM85.5 40.7875L83.5397 38.6106L85.5 36.4547L83.9138 38.5873L85.5 40.7875ZM62.1007 45.2806L66.9278 38.5847L62.1007 32.0946L68.0663 38.6556L62.1007 45.2806ZM60.4317 43.7829L64.1786 38.5856L60.4317 33.548L65.0623 38.6406L60.4317 43.7829ZM58.9297 42.2852L61.5962 38.5864L58.9297 35.0013L62.2251 38.6256L58.9297 42.2852ZM57.5946 40.7875L59.1808 38.5873L57.5946 36.4547L59.5549 38.6106L57.5946 40.7875Z" fill="white"/>
<path fill-rule="evenodd" clip-rule="evenodd" d="M146.36 24.2323C146.443 24.2066 146.468 24.1959 146.494 24.1912C148.049 23.9187 149.197 24.3614 150.107 25.7793C151.03 27.2196 152.227 28.4842 153.379 29.9194C154.156 28.9571 154.895 28.0406 155.635 27.1245C156.019 26.6493 156.484 26.2193 156.773 25.6919C157.579 24.2211 158.806 23.894 160.384 24.267V39.3106H157.668V28.9947L157.492 28.9384C156.395 30.319 155.295 31.6975 154.201 33.0807C153.509 33.9552 153.25 33.9557 152.565 33.088C151.467 31.6958 150.362 30.3089 149.096 28.7128V39.3149H146.36V24.2323ZM177.648 24.2152H180.4V39.3016H177.681V33.1161H170.314V39.2914H167.564V24.2154H170.221V30.4138H177.648V24.2152ZM133.884 39.2741C133.755 39.3277 133.73 39.3465 133.704 39.3477C131.151 39.4699 131.021 39.5181 130.14 37.1269C129.531 35.4735 128.659 34.8179 126.929 35.0893C126.009 35.2338 125.047 35.1444 124.106 35.1003C123.601 35.0768 123.366 35.2672 123.187 35.7205C122.771 36.7786 122.324 37.8258 121.842 38.855C121.74 39.0725 121.444 39.3197 121.221 39.337C120.454 39.3964 119.679 39.3599 118.79 39.3599C119.21 38.3615 119.592 37.449 119.979 36.5391C121.643 32.6333 123.319 28.7327 124.961 24.8179C125.186 24.2824 125.444 24.0139 126.052 24.0686C126.643 24.1218 127.184 23.9805 127.526 24.7712C129.529 29.4085 131.601 34.0158 133.647 38.6346C133.735 38.8323 133.799 39.0411 133.884 39.2741ZM127.987 32.491C127.386 31.1348 126.838 29.8991 126.223 28.5101C125.648 29.9101 125.133 31.167 124.59 32.491H127.987ZM112.821 33.1669V39.2947H110.106V24.2757C112.125 24.2757 114.127 24.109 116.089 24.3175C118.599 24.5842 119.923 26.3901 119.837 28.9652C119.766 31.1036 118.141 32.7587 115.819 33.0012C114.86 33.1013 113.892 33.1107 112.821 33.1669ZM112.858 30.5833C113.901 30.5021 114.9 30.5178 115.856 30.3219C116.69 30.1507 117.064 29.3916 117.006 28.4389C116.957 27.6254 116.547 27.0139 115.759 26.8773C114.823 26.7149 113.857 26.7262 112.858 26.6593V30.5833ZM220.38 28.3586C219.667 27.8554 219.096 27.3762 218.456 27.0191C217.611 26.547 216.683 26.3754 215.732 26.6995C214.704 27.0491 214.394 28.0742 215.125 28.8756C215.527 29.3159 216.076 29.6243 216.573 29.9726C217.613 30.7022 218.756 31.3161 219.686 32.1652C221.048 33.4079 221.355 35.4226 220.589 37.0837C219.807 38.7795 218.404 39.5158 216.584 39.5368C215.158 39.5532 213.844 39.1803 212.674 38.3602C212.473 38.2194 212.23 37.9634 212.221 37.7512C212.175 36.6775 212.2 35.6007 212.2 34.3588C212.713 34.9134 213.089 35.3774 213.523 35.7779C214.555 36.73 215.741 37.2639 217.167 36.8532C218.35 36.5126 218.735 35.3986 217.946 34.452C217.495 33.9104 216.876 33.4982 216.296 33.0786C215.399 32.4299 214.42 31.8867 213.567 31.1869C212.24 30.0977 211.834 28.6393 212.28 26.9879C212.715 25.376 213.856 24.5067 215.442 24.1524C217.002 23.8039 218.481 24.018 219.837 24.8525C220.1 25.0147 220.328 25.4294 220.355 25.7467C220.428 26.5735 220.38 27.4108 220.38 28.3586ZM204.315 36.8097H210.806V39.3026H201.619V24.2393H204.315V36.8097ZM190.398 39.3321V24.2241H193.054V36.7792H199.567V39.3321H190.398ZM137.804 36.8285H144.341V39.3296H135.184V24.2255H137.804V36.8285ZM183.883 39.2926V24.2084H186.551V39.2926H183.883Z" fill="#252832"/>
<path fill-rule="evenodd" clip-rule="evenodd" d="M180.812 48.0956C180.421 48.5844 180.026 49.0717 179.637 49.5627C178.972 50.4027 178.95 50.4043 178.259 49.5427C177.879 49.0705 177.505 48.5946 176.952 48.154V52.6772C175.848 53.0394 175.71 52.9513 175.706 51.9533C175.699 50.2566 175.701 48.56 175.707 46.8636C175.708 46.5663 175.748 46.2693 175.768 46.0077C176.494 45.7397 176.928 45.9862 177.316 46.5276C177.811 47.2189 178.378 47.8582 178.965 48.5824C179.563 47.8447 180.09 47.204 180.606 46.5548C181.146 45.8756 181.141 45.8719 182.141 45.9552C182.141 48.2087 182.141 50.4694 182.142 52.7305C181.146 53.0222 181.036 52.9479 181.03 51.9369C181.024 50.6744 181.029 49.4118 181.029 48.1493C180.957 48.1314 180.884 48.1134 180.812 48.0956ZM155.296 49.438C155.281 47.3405 156.852 45.81 159.014 45.817C161.173 45.8238 162.724 47.2943 162.736 49.3454C162.749 51.4371 161.216 52.9438 159.022 52.9965C156.977 53.0457 155.311 51.4542 155.296 49.438ZM161.494 49.3779C161.488 47.9455 160.468 46.9383 159.019 46.935C157.58 46.9318 156.518 47.9612 156.511 49.3641C156.504 50.8025 157.613 51.8948 159.049 51.8631C160.496 51.8313 161.499 50.8115 161.494 49.3779ZM197.103 47.9494C197.103 49.1755 197.103 50.1617 197.103 51.1478C197.103 51.4259 197.077 51.7066 197.107 51.9813C197.199 52.8193 196.802 53.0194 196 52.7946V45.9795C196.622 45.7624 197.017 45.9774 197.401 46.4378C198.433 47.6733 199.516 48.8661 200.569 50.0842C200.746 50.2888 200.875 50.5348 201.027 50.7618C201.129 50.7117 201.231 50.6617 201.334 50.6118C201.334 50.1824 201.333 49.753 201.334 49.3237C201.337 48.3507 201.313 47.3761 201.37 46.4064C201.381 46.2272 201.708 45.9714 201.921 45.9345C202.056 45.9109 202.393 46.2247 202.396 46.3916C202.431 48.3646 202.428 50.3386 202.411 52.3122C202.409 52.4928 202.208 52.8351 202.147 52.8246C201.794 52.7628 201.348 52.719 201.131 52.4848C200.001 51.2632 198.931 49.9853 197.838 48.7294C197.663 48.5288 197.473 48.3414 197.103 47.9494ZM110.144 49.3235C110.144 48.4076 110.157 47.4915 110.139 46.576C110.129 46.0968 110.273 45.8555 110.803 45.8927C111.875 45.9683 112.976 45.8745 114.016 46.0881C115.752 46.4448 116.684 47.9328 116.514 49.7661C116.363 51.3995 115.065 52.7152 113.426 52.8311C112.544 52.8933 111.655 52.8511 110.771 52.8818C110.298 52.8982 110.13 52.6872 110.136 52.2378C110.148 51.2665 110.14 50.295 110.14 49.3235H110.144ZM111.356 51.7261C112.755 51.754 114.132 52.0332 114.996 50.6162C115.522 49.7536 115.467 48.6279 114.824 47.8856C113.88 46.7939 112.628 46.9685 111.356 47.0443V51.7261ZM142.605 48.8264C142.581 49.2438 142.566 49.5115 142.546 49.8735C141.816 49.8735 141.129 49.8887 140.443 49.8697C139.59 49.8461 139.847 50.4783 139.812 50.9256C139.775 51.3961 139.79 51.814 140.48 51.7654C141.193 51.715 141.913 51.7542 142.7 51.7542V52.8614C141.478 52.8614 140.243 52.8742 139.008 52.8414C138.885 52.8382 138.667 52.558 138.665 52.4044C138.642 50.2744 138.65 48.144 138.65 45.9566H142.595V46.9836H140.008C139.918 47.115 139.865 47.1572 139.859 47.2052C139.65 48.8201 139.657 48.8276 141.281 48.8264C141.689 48.8263 142.098 48.8264 142.605 48.8264ZM186.867 45.9427H190.817V46.9734H188.162C188.11 47.1704 188.054 47.2962 188.047 47.4249C187.967 48.8249 187.969 48.8253 189.391 48.8261C189.853 48.8264 190.314 48.8263 190.81 48.8263V49.8727C190.158 49.8727 189.526 49.9137 188.902 49.862C188.193 49.8031 187.95 50.0963 188.03 50.7709C188.063 51.0421 188.036 51.3203 188.036 51.7158H190.973V52.8567C189.723 52.8567 188.463 52.8672 187.204 52.839C187.089 52.8365 186.882 52.5883 186.881 52.4527C186.861 50.2968 186.867 48.1407 186.867 45.9427ZM122.345 46.9934V48.8032H125.06V49.8726C124.432 49.8726 123.826 49.9157 123.229 49.8616C122.499 49.7957 122.197 50.0577 122.297 50.7967C122.333 51.0651 122.302 51.3425 122.302 51.7292H125.25V52.8625C124.015 52.8625 122.78 52.8755 121.546 52.8432C121.42 52.8398 121.195 52.5664 121.193 52.4164C121.17 50.2847 121.178 48.1528 121.178 45.9602H125.095V46.9934H122.345ZM167.104 45.9242C168.031 45.9242 168.915 45.8608 169.785 45.9407C170.823 46.0358 171.53 46.898 171.545 47.9222C171.559 48.8753 170.936 49.6417 169.932 49.8476C169.421 49.9524 168.896 49.9893 168.272 50.0709V52.7065C167.16 53.0099 167.057 52.941 167.053 51.9393C167.047 50.1933 167.048 48.4471 167.052 46.7011C167.052 46.4592 167.083 46.2176 167.104 45.9242ZM168.155 47.049C168.259 47.6834 168.192 48.3801 168.507 48.7593C168.68 48.9683 169.536 48.7345 169.997 48.5153C170.183 48.4265 170.3 47.7583 170.166 47.504C169.756 46.7269 168.998 47.0308 168.155 47.049ZM220.722 47.562C220.08 47.306 219.611 47.0098 219.117 46.9599C218.781 46.9258 218.41 47.2371 218.055 47.3941C218.214 47.7157 218.303 48.1134 218.548 48.3412C218.907 48.6743 219.392 48.8664 219.8 49.1522C220.928 49.9429 221.224 51.3219 220.483 52.2562C219.786 53.1354 218.017 53.3023 217.174 52.4398C216.868 52.1265 216.914 51.4671 216.759 50.7905C217.369 51.2029 217.744 51.5322 218.179 51.7313C218.712 51.9756 219.324 51.9935 219.646 51.4074C219.954 50.8474 219.502 50.4758 219.091 50.1755C218.622 49.8327 218.104 49.5537 217.653 49.1902C216.728 48.445 216.6 47.2901 217.315 46.4886C217.991 45.7304 219.823 45.538 220.432 46.2502C220.673 46.5318 220.623 47.063 220.722 47.562ZM131.666 52.9085C130.687 50.6244 129.707 48.3401 128.724 46.0476C129.804 45.7578 129.83 45.7708 130.233 46.7088C130.732 47.8708 131.233 49.0319 131.834 50.4278C132.43 49.0409 132.98 47.9049 133.404 46.7236C133.678 45.9586 134.107 45.7455 134.95 45.9916C133.971 48.3163 132.997 50.6297 132.024 52.943C131.905 52.9315 131.785 52.92 131.666 52.9085ZM212.95 45.954V46.9867H210.68V52.7919H209.421V47.0194H207.144V45.954H212.95ZM148.485 51.7431H151.517V52.811H147.379V45.9469H148.485V51.7431Z" fill="#8FA3AD"/>
</svg>
