<svg width="269" height="77" viewBox="0 0 269 77" fill="none" xmlns="http://www.w3.org/2000/svg">
<path fill-rule="evenodd" clip-rule="evenodd" d="M109.626 30.649C109.46 29.7901 109.292 28.9881 109.162 28.1779C109.142 28.0609 109.276 27.8325 109.388 27.7908C111.607 26.9772 113.823 26.1137 116.262 26.6213C116.648 26.7025 117.038 26.7871 117.41 26.9204C119.468 27.654 120.287 29.2616 119.813 31.6342C119.263 34.3857 118.701 37.135 118.145 39.8853C118.111 40.058 118.088 40.2342 118.05 40.4695H120.47C120.247 41.5683 120.045 42.6033 119.816 43.6337C119.791 43.7403 119.602 43.884 119.488 43.8852C117.59 43.9014 115.693 43.8968 113.732 43.8968C113.795 43.5201 113.847 43.2129 113.911 42.8293C113.685 42.9313 113.513 43.0043 113.345 43.0831C112.021 43.7055 110.659 44.1518 109.172 44.1193C106.089 44.0521 104.293 41.6239 104.913 38.5606C105.5 35.6641 108.424 33.207 111.744 33.0099C113.11 32.9288 114.428 33.1166 115.815 33.6312C115.971 32.7445 116.167 31.895 116.255 31.0326C116.313 30.467 115.921 30.1135 115.415 29.9234C114.453 29.5618 113.47 29.5641 112.49 29.8214C111.553 30.0683 110.627 30.3581 109.626 30.649ZM112.262 36.2402C110.325 36.2367 109.127 36.9935 108.611 38.4794C108.159 39.7787 108.832 40.7894 110.187 40.8427C111.315 40.8868 112.3 40.437 113.297 39.9734C114.385 39.4658 115.029 38.6939 114.996 37.4467C114.991 37.274 114.89 37.0248 114.756 36.9472C113.957 36.4789 113.095 36.1996 112.262 36.2402ZM84.9502 43.8876C86.3096 37.2197 87.6655 30.568 89.0351 23.8514H86.3645C86.6002 22.6263 86.821 21.4811 87.0545 20.2641H87.7078C90.5627 20.2641 93.4175 20.256 96.2724 20.2723C96.9235 20.2757 97.5791 20.3348 98.2256 20.4229C101.399 20.8576 103.111 23.5964 102.443 26.7223C102.044 28.5907 101.159 30.1136 99.5838 31.2912C100.713 32.106 101.472 33.1549 101.542 34.5435C101.706 37.8212 100.53 40.4673 97.7565 42.2742C96.2587 43.2501 94.5847 43.774 92.818 43.8389C90.3029 43.9305 87.7833 43.912 85.266 43.9386C85.1894 43.9398 85.1127 43.9143 84.9502 43.8876ZM91.5181 29.9734C92.9656 29.883 94.3615 29.9166 95.7106 29.6778C97.1329 29.4263 98.1958 28.5524 98.6215 27.0665C99.0895 25.4276 98.4316 24.1956 96.7678 23.9754C95.4703 23.8027 94.1315 23.9406 92.7596 23.9406C92.3637 25.8658 91.9564 27.8431 91.5181 29.9734ZM90.8293 33.2766C90.3373 35.7361 89.8681 38.0785 89.4104 40.3641C90.8659 40.3641 92.2596 40.4719 93.6304 40.3398C95.833 40.1265 97.1523 38.9455 97.6363 37.0006C98.1295 35.0233 97.3995 33.775 95.4085 33.5084C93.9256 33.3103 92.4118 33.3485 90.8293 33.2766ZM169.758 22.7704C168.977 21.9185 168.213 21.0864 167.454 20.2577C170.296 16.3842 174.638 16.886 176.887 19.1821C177.955 20.2739 179.46 20.1985 180.556 19.1125C180.925 18.7486 181.268 18.358 181.776 17.8167C182.173 18.2931 182.508 18.7347 182.885 19.1357C183.266 19.5414 183.688 19.9076 184.079 20.2797C181.54 24.1497 177.105 24.5623 174.058 21.3808C173.365 20.6564 171.932 20.6714 171.218 21.3808C170.755 21.8421 170.272 22.2836 169.758 22.7704ZM147.801 50.585C147.938 50.3161 148.028 50.1237 148.13 49.9394C149.422 47.6132 150.724 45.2928 151.994 42.955C152.139 42.6896 152.194 42.306 152.138 42.0058C151.436 38.3027 150.696 34.6054 149.99 30.9022C149.908 30.4664 149.771 30.2856 149.311 30.3123C148.601 30.3529 147.888 30.3227 147.107 30.3227C147.329 29.2263 147.526 28.1878 147.764 27.1597C147.791 27.038 148.038 26.8897 148.185 26.8873C149.652 26.8665 151.12 26.8885 152.587 26.8665C152.999 26.8595 153.007 27.1122 153.061 27.395C153.695 30.704 154.335 34.0119 154.976 37.3187C154.985 37.3708 155.015 37.4172 155.078 37.5679C156.48 35.1432 157.843 32.7868 159.264 30.3297H157.386C157.629 29.137 157.856 28.0278 158.086 26.9024H166.189C166.021 27.7207 165.857 28.5111 165.697 29.3028C165.49 30.3227 165.482 30.4085 164.489 30.3007C163.334 30.1744 162.683 30.5708 162.141 31.6371C161.134 33.6132 159.942 35.4932 158.835 37.4183C156.427 41.614 154.017 45.8086 151.629 50.0159C151.376 50.4598 151.1 50.6221 150.6 50.5977C149.697 50.5537 148.791 50.585 147.801 50.585ZM178.367 40.4654H180.787C180.563 41.5654 180.361 42.5992 180.131 43.6285C180.107 43.7362 179.921 43.8834 179.81 43.8846C177.911 43.9008 176.011 43.8962 174.044 43.8962C174.108 43.5276 174.161 43.2228 174.231 42.8137C173.98 42.9319 173.796 43.0211 173.611 43.1069C172.321 43.7061 170.996 44.1419 169.551 44.1199C166.403 44.0735 164.583 41.6198 165.241 38.5055C165.845 35.6496 168.751 33.2099 172.056 33.0094C173.441 32.9248 174.776 33.1322 176.119 33.6179C176.277 32.8112 176.45 32.0497 176.569 31.2801C176.67 30.6194 176.391 30.1836 175.736 29.9286C174.778 29.5554 173.792 29.5636 172.812 29.8197C171.876 30.0654 170.952 30.3552 169.947 30.6472C169.77 29.7444 169.593 28.8484 169.408 27.8992C171.91 26.958 174.367 26.025 177.094 26.7228C179.573 27.3579 180.645 29.0165 180.141 31.5675C179.595 34.3202 179.03 37.0695 178.474 39.8199C178.435 40.0123 178.41 40.2081 178.367 40.4654ZM172.534 36.072C172.516 36.1276 172.498 36.1844 172.48 36.2401C170.669 36.2354 169.5 36.9563 168.952 38.4144C168.446 39.7601 169.134 40.8055 170.552 40.8438C171.699 40.875 172.694 40.3952 173.707 39.9235C174.775 39.4251 175.322 38.6335 175.31 37.4594C175.308 37.2739 175.171 36.9818 175.027 36.9251C174.207 36.6098 173.367 36.3502 172.534 36.072ZM147.182 20.2785C146.946 21.4851 146.724 22.6209 146.49 23.8113C145.725 23.8113 144.995 23.8205 144.263 23.8066C143.971 23.802 143.807 23.8576 143.737 24.203C142.656 29.5693 141.557 34.9334 140.465 40.2974C140.457 40.3333 140.477 40.375 140.493 40.4701H143.086C142.863 41.57 142.662 42.6073 142.432 43.6377C142.408 43.7444 142.215 43.8846 142.101 43.8858C140.141 43.9008 138.182 43.8962 136.144 43.8962C136.216 43.4581 136.278 43.0768 136.331 42.7569C135.316 43.137 134.31 43.5832 133.263 43.8881C132.026 44.2485 130.748 44.2138 129.494 43.9205C126.645 43.2529 124.818 40.9024 124.675 37.7533C124.471 33.2458 127.545 28.5193 131.742 27.0299C134.39 26.0899 136.962 26.1618 139.333 28.1217C139.868 25.4745 140.391 22.8933 140.92 20.2785H147.182ZM128.274 36.5965C128.26 38.8392 129.593 40.5302 131.536 40.7203C132.937 40.8582 134.216 40.5128 135.325 39.6297C137.205 38.1333 138.042 36.0842 138.018 33.7371C137.99 30.9809 135.719 29.327 133.076 29.9876C130.415 30.6506 128.295 33.5702 128.274 36.5965ZM167.003 63.5361C167.25 63.5928 167.447 63.6369 167.677 63.689C167.311 64.0263 166.361 64.0402 165.891 63.7041C166.138 63.6438 166.331 63.5963 166.597 63.5314C166.597 62.3538 166.597 61.1566 166.597 59.9593C166.597 59.7391 166.571 59.5142 166.605 59.2986C166.63 59.1306 166.726 58.9729 166.791 58.8107C166.862 58.966 166.99 59.119 166.994 59.2754C167.012 60.2374 167.003 61.1994 167.003 62.1614C167.003 62.6193 167.003 63.0759 167.003 63.5361ZM171.547 63.8594H170.448C170.442 63.7992 170.437 63.7389 170.431 63.6786C170.64 63.6404 170.85 63.601 171.099 63.5546V59.2013H169.734C169.694 59.5861 169.652 59.9929 169.609 60.3997C169.548 60.3974 169.485 60.3951 169.423 60.3927V58.835H173.368C173.35 59.1688 173.334 59.4817 173.317 59.7947C173.247 59.7947 173.177 59.7935 173.107 59.7935C173.06 59.5976 173.015 59.4006 172.962 59.1816H171.547V63.8594ZM179.007 59.2407C178.773 59.1561 178.586 59.0877 178.397 59.0193C178.408 58.9671 178.419 58.915 178.43 58.8628H180.105C178.397 60.1262 177.621 61.7511 177.971 63.8606H176.815C176.809 63.8026 176.802 63.7458 176.795 63.6879C177.002 63.6438 177.21 63.601 177.448 63.5511C177.787 61.5124 176.879 60.0601 175.311 58.8628C175.812 58.7504 176.233 58.6948 176.54 59.2778C176.881 59.9291 177.311 60.5341 177.753 61.2412C178.193 60.5388 178.597 59.8944 179.007 59.2407ZM163.774 59.4284C163.823 59.3925 163.923 59.3206 164.109 59.185V60.5365C162.746 58.806 161.333 58.2462 160.078 60.4206C159.459 61.4927 160.032 62.9183 161.04 63.4248C162.183 63.9997 163.19 63.5685 164.205 62.1336C164.205 62.2994 164.259 62.4906 164.197 62.6297C163.739 63.652 162.81 64.1133 161.537 63.9765C160.547 63.871 159.731 63.0921 159.517 62.0478C159.081 59.9233 160.731 58.2277 162.666 58.835C163.049 58.9544 163.389 59.2175 163.774 59.4284ZM139.484 58.8362V63.5291C139.717 63.5836 139.913 63.6288 140.131 63.6786C139.828 64.0194 138.89 64.0518 138.372 63.7157C139.331 63.6728 139.062 63.0006 139.069 62.4848C139.081 61.4034 139.064 60.3232 139.082 59.243C139.085 59.083 139.214 58.9243 139.285 58.7655C139.351 58.7898 139.418 58.813 139.484 58.8362ZM132.757 58.8211H136.734V59.7738C136.682 59.7843 136.629 59.7947 136.577 59.8051C136.515 59.6034 136.453 59.4029 136.383 59.1758H135.025V63.8478H133.9C133.898 63.7922 133.896 63.7354 133.892 63.6798C134.104 63.6357 134.314 63.5928 134.557 63.543V59.1897H133.154C133.124 59.5895 133.094 59.9882 133.064 60.387C132.985 60.3881 132.906 60.3881 132.827 60.3893C132.804 59.8909 132.782 59.3937 132.757 58.8211ZM141.691 58.879C142.687 58.7133 142.687 58.7133 142.996 59.5281C143.463 60.7613 143.929 61.9934 144.447 63.3576C144.973 61.9146 145.456 60.5921 145.949 59.2383C145.729 59.1665 145.536 59.1027 145.342 59.039C145.351 58.9845 145.36 58.9289 145.369 58.8744H147.026C146.974 58.981 146.935 59.1051 146.912 59.1016C146.278 59.0228 146.205 59.5223 146.054 59.943C145.619 61.1461 145.189 62.3515 144.741 63.55C144.68 63.7111 144.52 63.8351 144.407 63.9753C144.292 63.8316 144.135 63.7041 144.072 63.5395C143.592 62.2889 143.126 61.0337 142.664 59.7761C142.53 59.4145 142.43 59.039 141.916 59.1259C141.871 59.1329 141.806 59.0077 141.691 58.879ZM150.246 61.4197V63.6323H153.267C152.921 63.9765 151.171 64.0646 149.818 63.8838V59.2546C149.543 59.163 149.334 59.0946 149.125 59.0251C149.137 58.9695 149.148 58.915 149.16 58.8605H153.152V60.0033C153.083 60.0161 153.013 60.0288 152.945 60.0404C152.899 59.775 152.854 59.5084 152.801 59.1931H150.256V61.1623H152.325C152.325 61.2481 152.326 61.3339 152.326 61.4197H150.246ZM112.478 59.4505V60.4971C112.012 60.0555 111.67 59.5316 111.194 59.3334C110.708 59.1306 110.072 59.1445 109.538 59.2523C108.927 59.3763 108.557 59.9048 108.351 60.5017C107.947 61.6723 108.43 62.9809 109.423 63.4491C110.561 63.9846 111.552 63.5476 112.371 62.1487C112.43 62.1464 112.487 62.1441 112.544 62.1417C112.544 62.3063 112.597 62.4952 112.536 62.632C112.092 63.6334 111.198 64.0866 109.931 63.98C108.989 63.9 108.18 63.244 107.928 62.2681C107.657 61.2249 107.741 60.2201 108.549 59.418C109.245 58.7272 110.097 58.558 111.022 58.8338C111.265 58.9069 111.479 59.0691 111.714 59.1711C111.926 59.2638 112.15 59.3322 112.478 59.4505ZM130.092 59.0483C129.905 59.1016 129.717 59.1537 129.471 59.2233C129.955 60.6164 130.421 62.0131 130.942 63.3877C131.009 63.5604 131.375 63.616 131.6 63.725C131.286 64.0344 130.328 64.046 129.908 63.6972C130.122 63.6404 130.297 63.594 130.526 63.5337C130.381 63.1003 130.322 62.6065 130.072 62.2518C129.641 61.6433 128.947 62.0861 128.376 61.998C128.22 61.9737 127.935 62.1614 127.867 62.3214C127.654 62.8117 127.518 63.3367 127.321 63.9417C127.038 63.9278 126.709 63.9127 126.379 63.8965C126.355 63.82 126.331 63.7447 126.307 63.6682C127.131 63.7319 127.169 63.1165 127.339 62.6158C127.706 61.5379 128.1 60.4669 128.427 59.3763C128.57 58.9011 128.797 58.7272 129.269 58.7921C129.528 58.828 129.796 58.7991 130.06 58.7991C130.07 58.8825 130.082 58.966 130.092 59.0483ZM129.876 61.6093C129.584 60.7423 129.311 59.931 128.988 58.9701C128.66 59.9461 128.389 60.7527 128.1 61.6093H129.876ZM121.015 59.2152C120.712 59.1491 120.521 59.1074 120.331 59.0657C120.336 59.0054 120.341 58.9451 120.347 58.8837H124.34V60.0091C124.276 60.0207 124.211 60.0323 124.147 60.0439C124.098 59.7703 124.048 59.4968 123.992 59.185H121.446V61.1913H123.525C123.521 61.2701 123.517 61.3489 123.513 61.4289H121.456V63.6172H124.448C124.149 63.9718 122.466 64.0681 121.015 63.8896V59.2152ZM114.928 59.2094C114.618 59.1503 114.391 59.1074 114.164 59.0645C114.166 59.0031 114.168 58.9416 114.169 58.8802C114.304 58.8535 114.439 58.8049 114.574 58.8025C115.227 58.7944 115.88 58.7944 116.533 58.8002C117.379 58.8083 117.892 59.1526 118.031 59.7935C118.173 60.4495 117.857 60.9433 117.071 61.2991C117.035 61.3153 117.006 61.3432 116.922 61.3999C117.217 62.056 117.484 62.7398 117.834 63.3761C117.935 63.5604 118.277 63.6091 118.503 63.7169C118.288 64.0704 117.691 64.0704 117.492 63.667C117.245 63.1663 117.031 62.6482 116.803 62.1371C116.417 61.2748 116.417 61.2748 115.345 61.4324C115.345 62.1336 115.353 62.8476 115.337 63.5616C115.334 63.689 115.23 63.8142 115.171 63.9406C115.09 63.8142 114.94 63.6879 114.939 63.5592C114.922 62.1185 114.928 60.6767 114.928 59.2094ZM115.38 61.0398C115.921 61.0155 116.434 61.0364 116.93 60.9564C117.392 60.881 117.628 60.5415 117.62 60.0512C117.612 59.5841 117.36 59.2596 116.936 59.2028C116.424 59.1332 115.897 59.1865 115.38 59.1865V61.0398ZM86.4661 59.1862V63.8652H85.3722C85.3654 63.8003 85.3573 63.7366 85.3505 63.6728C85.5587 63.6369 85.767 63.6021 86.0187 63.5592V59.1816H84.6605C84.6205 59.5837 84.5781 59.994 84.5369 60.4043C84.474 60.402 84.4122 60.3985 84.3493 60.3951V58.8385H88.2923C88.2774 59.1619 88.2626 59.4783 88.2477 59.7935C88.1767 59.7958 88.1058 59.7982 88.0348 59.8016C87.9879 59.6081 87.941 59.4157 87.885 59.1862H86.4661ZM101.133 59.1827H98.5892V61.1913H100.66C100.657 61.2713 100.652 61.3513 100.648 61.4312H98.5972V63.616H101.585C101.304 63.9765 99.2689 64.0808 98.1338 63.8583V59.2349C97.8672 59.1561 97.6681 59.0981 97.469 59.0402C97.4805 58.9834 97.4908 58.9266 97.5011 58.8698H101.498V60.001C101.431 60.0161 101.365 60.0311 101.299 60.045C101.245 59.7692 101.192 59.4933 101.133 59.1827ZM91.3932 61.4799V63.8478H90.3531C90.3508 63.7934 90.3485 63.7389 90.3451 63.6844C90.5201 63.6438 90.694 63.6044 90.9126 63.5534V59.2175C90.7123 59.1549 90.519 59.0946 90.3267 59.0355C90.3359 58.9695 90.345 58.9045 90.3553 58.8396C90.6689 58.8246 90.9824 58.8095 91.3817 58.791V61.0534H94.1016V59.2128C93.899 59.1618 93.6908 59.1074 93.4814 59.0541C93.4871 58.9984 93.4917 58.944 93.4974 58.8883H95.1428C95.16 58.9231 95.1771 58.9579 95.1932 58.9926C95.0112 59.068 94.8293 59.1433 94.5741 59.2499V63.8467H93.5157C93.5111 63.7934 93.5054 63.74 93.5008 63.6867C93.6954 63.6415 93.8887 63.5975 94.1164 63.5453V61.4799H91.3932ZM77.023 13C77.0104 13.2596 76.9852 13.5192 76.9852 13.7777C76.9841 26.1551 76.9841 38.5324 76.9841 50.9097C76.9841 51.1671 76.9841 51.4232 76.9841 51.8138H75V13H77.023ZM194 13V51.7269H192.119C192.105 51.5472 192.081 51.3745 192.081 51.2007C192.08 38.588 192.08 25.9742 192.081 13.3605C192.081 13.2411 192.09 13.1205 192.096 13H194Z" fill="#1E212A"/>
</svg>
