<svg width="269" height="77" viewBox="0 0 269 77" fill="none" xmlns="http://www.w3.org/2000/svg">
<path fill-rule="evenodd" clip-rule="evenodd" d="M82.1665 33.3596C82.1505 33.6611 82.1207 33.9624 82.1205 34.2639C82.1176 38.5298 82.0995 42.7958 82.1371 47.0615C82.1437 47.8084 81.8919 48.0547 81.0994 47.9835C80.4963 47.9292 79.8815 47.9506 79.2742 47.9782C78.7364 48.0027 78.57 47.7926 78.5709 47.3218C78.5829 41.4397 78.5869 35.5574 78.573 29.6753C78.5717 29.1303 78.8159 29.0001 79.3553 29.0128C80.4565 29.0386 81.5606 29.0549 82.6598 29.0048C83.2774 28.9767 83.5981 29.2111 83.9005 29.6629C86.6525 33.7756 89.4238 37.8775 92.1933 41.9805C92.4288 42.3291 92.6915 42.6622 93.1417 42.9566C93.1603 42.6854 93.1948 42.4141 93.1951 42.1429C93.1984 38.0624 93.2101 33.982 93.184 29.9017C93.1798 29.2609 93.3622 28.966 94.1062 29.0252C94.653 29.0688 95.2096 29.0635 95.7574 29.0261C96.4912 28.9764 96.7745 29.1996 96.7684 29.9195C96.735 33.8936 96.7529 37.8681 96.7547 41.8425C96.7555 43.6443 96.743 45.4462 96.7724 47.2475C96.7815 47.7981 96.581 48.0033 95.9706 47.9816C94.9864 47.9464 93.9973 47.9364 93.0143 47.9851C92.3692 48.017 92.0296 47.7736 91.7108 47.2886C88.8003 42.861 85.8651 38.4469 82.9335 34.0311C82.7652 33.7776 82.5656 33.5417 82.3805 33.2976C82.3092 33.3182 82.2378 33.3389 82.1665 33.3596ZM140.253 39.7059C142.026 42.44 143.749 45.0957 145.54 47.8582C144.073 47.8582 142.733 47.886 141.398 47.8292C141.189 47.8203 140.955 47.4487 140.809 47.2065C139.561 45.1431 138.276 43.0955 137.12 40.9893C136.633 40.1012 136.052 39.7639 134.974 39.8407C133.647 39.9355 133.639 39.8662 133.638 41.0633C133.636 43.1038 133.618 45.1445 133.649 47.1847C133.658 47.7782 133.433 47.9998 132.793 47.9647C132.186 47.9315 131.573 47.927 130.967 47.9658C130.278 48.01 130.077 47.7616 130.081 47.1383C130.107 43.2164 130.093 39.2942 130.092 35.3721C130.091 33.5437 130.126 31.7142 130.072 29.8871C130.051 29.1648 130.325 28.9945 131.07 29.0051C133.65 29.0422 136.232 29.0129 138.812 29.0201C141.852 29.0285 144.213 30.7351 144.846 33.3682C145.426 35.7797 144.021 38.1171 141.291 39.2816C141.005 39.4036 140.715 39.5174 140.253 39.7059ZM133.64 34.4546C133.638 34.4546 133.636 34.4546 133.634 34.4546C133.634 35.17 133.597 35.888 133.655 36.5994C133.673 36.82 133.948 37.2062 134.106 37.2061C135.724 37.2046 137.366 37.2813 138.952 37.0522C140.518 36.826 141.395 35.5014 141.239 34.1078C141.099 32.848 139.954 31.8403 138.481 31.785C137.092 31.7328 135.698 31.7786 134.307 31.7667C133.825 31.7625 133.627 31.9546 133.636 32.3878C133.651 33.0765 133.64 33.7657 133.64 34.4546ZM106.609 38.4978C106.609 35.609 106.626 32.7201 106.596 29.8317C106.589 29.2122 106.779 29.0027 107.48 29.0075C111.453 29.0342 115.427 29.0326 119.4 29.0057C120.084 29.0011 120.305 29.194 120.313 29.8172C120.337 31.9377 120.359 31.9373 118.057 31.9371C115.766 31.9368 113.474 31.9575 111.184 31.9247C110.449 31.9142 110.124 32.1001 110.158 32.8182C110.207 33.8498 110.204 34.8864 110.152 35.9178C110.115 36.6322 110.428 36.822 111.169 36.8125C113.721 36.7797 116.273 36.8207 118.825 36.7874C119.542 36.7781 119.777 36.9783 119.775 37.641C119.768 39.5605 119.796 39.5589 117.656 39.5573C115.452 39.5559 113.248 39.5727 111.044 39.5494C110.415 39.5425 110.152 39.73 110.164 40.3224C110.189 41.6204 110.191 42.9199 110.155 44.2178C110.137 44.8441 110.403 45.0506 111.074 45.0457C113.974 45.0242 116.874 45.0603 119.774 45.0218C120.573 45.0112 120.819 45.2364 120.809 45.9648C120.782 47.9701 120.814 47.9701 118.617 47.9704C114.934 47.971 111.25 47.9531 107.567 47.988C106.794 47.9953 106.58 47.7777 106.59 47.0843C106.628 44.2225 106.606 41.36 106.606 38.4978C106.607 38.4978 106.608 38.4978 106.609 38.4978ZM183.193 47.9588C184.2 45.7912 185.075 43.8957 185.96 42.0042C187.851 37.9646 189.761 33.9328 191.624 29.8826C191.91 29.2615 192.232 28.9846 193.012 29.0021C195.179 29.0506 195.181 29.0153 196.037 30.8417C198.559 36.2176 201.08 41.5939 203.599 46.971C203.711 47.2092 203.799 47.4569 204 47.9524C202.713 47.9524 201.574 47.9895 200.444 47.9198C200.228 47.9065 199.979 47.4961 199.855 47.2267C197.928 43.0287 196.02 38.8236 194.104 34.6215C193.986 34.3623 193.838 34.1144 193.613 33.6908C193.339 34.2318 193.135 34.6006 192.962 34.9812C191.106 39.0626 189.245 43.142 187.415 47.2332C187.17 47.781 186.863 48.0137 186.198 47.9728C185.283 47.9167 184.361 47.9588 183.193 47.9588ZM156.889 39.9312C156.889 37.5482 156.867 35.165 156.903 32.7824C156.913 32.1132 156.651 31.9079 155.947 31.9235C154.412 31.9575 152.875 31.9141 151.34 31.9421C150.732 31.9532 150.518 31.7443 150.528 31.2027C150.578 28.6006 150.164 29.0569 152.831 29.0402C157.148 29.0131 161.465 29.051 165.782 29.0176C166.609 29.0112 166.887 29.2133 166.866 29.9943C166.814 31.9326 166.854 31.9338 164.692 31.9334C163.678 31.9332 162.664 31.9292 161.65 31.93C160.44 31.9308 160.436 31.9321 160.435 33.0115C160.434 37.6186 160.435 42.2259 160.435 46.833C160.435 47.9678 160.435 47.9679 159.23 47.9705C158.709 47.9714 158.185 47.9422 157.667 47.9802C157.04 48.0258 156.875 47.7781 156.88 47.2391C156.903 44.8033 156.89 42.3673 156.889 39.9312ZM65.0187 38.4989C65.02 35.641 65.0401 32.7828 65.005 29.9254C64.9968 29.2584 65.1522 28.9312 65.9572 29.0121C66.7789 29.0946 67.8701 28.8394 68.3557 29.2336C68.7746 29.5736 68.5374 30.6187 68.539 31.3522C68.5505 36.5122 68.5491 41.6723 68.551 46.8324C68.5515 47.9721 68.5501 47.9721 67.263 47.9725C66.8575 47.9726 66.4461 47.9317 66.048 47.981C65.1748 48.0892 64.9893 47.7315 65.0005 46.9931C65.0427 44.162 65.0175 41.3304 65.0187 38.4989ZM176.992 38.4878C176.992 41.3713 176.973 44.2551 177.006 47.1383C177.014 47.8037 176.778 48.0398 176.06 47.9802C175.486 47.9325 174.901 47.9399 174.325 47.9783C173.696 48.0202 173.538 47.7636 173.54 47.2328C173.555 41.4128 173.56 35.5927 173.543 29.7728C173.542 29.1757 173.759 28.9658 174.399 29.0101C174.974 29.05 175.56 29.0577 176.134 29.009C176.85 28.9484 177.017 29.2394 177.012 29.8373C176.988 32.7207 177.002 35.6043 177.002 38.4878H176.992Z" fill="#0321B9"/>
</svg>
