<svg width="109" height="77" viewBox="0 0 109 77" fill="none" xmlns="http://www.w3.org/2000/svg">
<path fill-rule="evenodd" clip-rule="evenodd" d="M15.8027 31.605C16.1943 32.7331 15.7947 33.948 14.6461 34.7002C13.9701 35.1427 13.223 35.4752 12.5321 35.8969C11.7626 36.3666 10.9973 36.8502 10.2764 37.3896C9.91426 37.6605 9.60588 38.0369 9.35753 38.4202C8.37627 39.9344 8.92394 41.5013 10.6587 41.9626C12.603 42.4797 14.5623 42.5372 16.413 41.5657C18.1828 40.6367 18.4059 39.6253 17.2492 37.99C17.0759 37.745 16.8739 37.5203 16.6044 37.1861C17.5919 37.4679 18.119 38.109 18.4952 38.872C19.8733 41.6675 18.4856 44.5167 15.4461 45.1611C13.9988 45.4679 12.5491 45.4866 11.1036 45.1378C9.17423 44.6722 8.04463 43.4448 7.78291 41.4921C7.59975 40.1264 7.68903 38.7564 8.1835 37.4484C8.68061 36.1336 9.58526 35.1682 10.8338 34.535C11.9492 33.9693 13.1007 33.4704 14.1906 32.8602C14.7746 32.5333 15.2623 32.0338 15.8027 31.605Z" fill="#DFE7EB"/>
<path fill-rule="evenodd" clip-rule="evenodd" d="M23.4068 43.57H20.4302V33.415C21.1923 33.415 21.9482 33.3898 22.7002 33.433C22.8865 33.4437 23.0891 33.6499 23.2347 33.8107C24.5253 35.2373 25.8053 36.6733 27.0866 38.1082C27.2231 38.261 27.3474 38.4247 27.6379 38.5246V33.4604H30.6348V43.5893C29.8375 43.5893 29.0575 43.6152 28.2817 43.5702C28.0995 43.5596 27.9078 43.3306 27.7599 43.1665C26.4715 41.7375 25.1911 40.3012 23.9116 38.864C23.7903 38.7278 23.6924 38.5707 23.5837 38.4233C23.5247 38.4484 23.4658 38.4736 23.4068 38.4988V43.57Z" fill="#B1C2C9"/>
<path fill-rule="evenodd" clip-rule="evenodd" d="M32.0361 43.5567V33.4453H41.3242V35.7457H35.1415C35.06 35.8619 35.015 35.897 35.0102 35.9371C34.8443 37.2953 34.8448 37.2953 36.1879 37.2953C37.0395 37.2953 37.8911 37.2953 38.7803 37.2953V39.5537C37.7447 39.5537 36.7129 39.542 35.6818 39.5629C35.4554 39.5673 35.0471 39.6676 35.0372 39.758C34.9886 40.2059 35.0223 40.6688 35.0911 41.1166C35.1008 41.1802 35.4616 41.2191 35.6601 41.2199C37.3531 41.2262 39.0461 41.2209 40.7391 41.2192C41.0386 41.219 41.338 41.2192 41.6907 41.2192V43.5567H32.0361Z" fill="#B1C2C9"/>
<path fill-rule="evenodd" clip-rule="evenodd" d="M49.2689 43.5123C49.1791 43.5318 49.1564 43.5408 49.1337 43.5409C48.2996 43.5419 47.2698 43.8399 46.6878 43.457C46.1275 43.0884 46.0034 42.0251 45.7351 41.2507C44.8937 38.8211 44.0743 36.3841 43.2483 33.9493C43.1976 33.7999 43.1645 33.6446 43.092 33.377C44.1141 33.377 45.0755 33.3577 46.034 33.3996C46.1666 33.4053 46.3427 33.6964 46.4023 33.8857C46.8477 35.2994 47.2675 36.7213 47.6986 38.1396C47.7763 38.3951 47.8686 38.6462 48.1059 38.8994C48.3991 38.0133 48.694 37.1277 48.9851 36.2409C49.245 35.4486 49.5148 34.6591 49.7522 33.8602C49.863 33.488 50.061 33.3649 50.4501 33.3579C52.1314 33.3277 52.129 33.3155 52.6448 34.9287C53.0115 36.0758 53.383 37.2216 53.7574 38.3664C53.8194 38.5561 53.9067 38.7374 54.0601 39.1132C54.4941 37.6963 54.8793 36.4711 55.244 35.24C55.7958 33.3762 55.7897 33.3742 57.7433 33.3687C58.0885 33.3677 58.4338 33.3685 58.8706 33.3685C58.8008 33.6521 58.7647 33.8669 58.6952 34.0702C57.6773 37.0501 56.647 40.0259 55.6423 43.0104C55.5025 43.4259 55.321 43.6032 54.863 43.5682C54.172 43.5156 53.3012 43.784 52.8307 43.4542C52.3662 43.1285 52.2932 42.2326 52.0676 41.5802C51.7223 40.582 51.3933 39.5781 50.8997 38.5696C50.359 40.2081 49.8184 41.8468 49.2689 43.5123Z" fill="#B1C2C9"/>
<path fill-rule="evenodd" clip-rule="evenodd" d="M68.7668 39.6981H65.7601V37.5559H71.6821C71.6821 39.07 71.6867 40.5699 71.6723 42.0699C71.6714 42.1785 71.5562 42.3241 71.4538 42.3882C69.1601 43.8259 65.7646 44.5728 63.052 43.0446C61.0949 41.942 60.0523 39.9835 60.3106 37.9076C60.5726 35.8019 62.2397 33.9769 64.4773 33.346C66.696 32.7206 69.7691 33.3775 71.6159 34.9003C71.016 35.4743 70.4211 36.0436 69.9278 36.5157C68.9191 36.1724 68.0277 35.7669 67.0925 35.5724C65.1733 35.173 63.5457 36.389 63.358 38.2544C63.1766 40.0578 64.5707 41.5105 66.5196 41.5231C66.9339 41.5257 67.3541 41.4708 67.7618 41.3925C68.8976 41.1743 69.0074 40.9868 68.7668 39.6981Z" fill="#B1C2C9"/>
<path fill-rule="evenodd" clip-rule="evenodd" d="M73.084 43.5569H75.9569V33.4443H73.084V43.5569Z" fill="#B1C2C9"/>
<path fill-rule="evenodd" clip-rule="evenodd" d="M82.9219 35.8041H77.7127V33.4424H87.2483C87.4159 34.371 87.2826 35.1119 86.5714 35.8341C85.0444 37.3846 83.6289 39.045 82.1699 40.6627C82.0498 40.7958 81.9473 40.9448 81.7573 41.188H87.2723V43.5599H77.4219C77.3109 42.7312 77.2674 42.0081 77.9652 41.2964C79.5213 39.7092 80.972 38.0187 82.4636 36.3683C82.5966 36.2213 82.7145 36.0604 82.9219 35.8041Z" fill="#B1C2C9"/>
<path fill-rule="evenodd" clip-rule="evenodd" d="M96.45 40.0353C95.9613 38.9427 95.5028 37.9177 95.0444 36.8929C94.982 36.9026 94.9196 36.9125 94.857 36.9224C94.4092 37.9372 93.9613 38.9522 93.4834 40.0353H96.45ZM101.305 43.6159C100.271 43.6159 99.3246 43.6552 98.3861 43.5865C98.1681 43.5706 97.8759 43.2199 97.793 42.9661C97.5627 42.2601 97.1544 42.0232 96.412 42.0739C95.3742 42.1449 94.3265 42.1251 93.2862 42.0775C92.7346 42.0523 92.3817 42.2054 92.2644 42.7495C92.1018 43.5041 91.6441 43.7042 90.9111 43.6279C90.2273 43.5566 89.5304 43.6126 88.7148 43.6126C89.1773 42.6849 89.5968 41.8452 90.0148 41.0047C91.1899 38.6422 92.3716 36.2828 93.5316 33.9127C93.7088 33.5506 93.9362 33.4617 94.325 33.4056C95.7414 33.2011 96.5421 33.678 97.1424 35.0733C98.2938 37.7485 99.6989 40.3144 100.997 42.9269C101.096 43.1272 101.18 43.3354 101.305 43.6159Z" fill="#B1C2C9"/>
</svg>
