<svg width="180" height="77" viewBox="0 0 180 77" fill="none" xmlns="http://www.w3.org/2000/svg">
<path fill-rule="evenodd" clip-rule="evenodd" d="M34.6441 28.6589C35.2031 30.269 34.6328 32.0031 32.9933 33.0766C32.0286 33.7081 30.9622 34.1827 29.9762 34.7846C28.8779 35.4549 27.7857 36.1452 26.7567 36.9151C26.2399 37.3018 25.7997 37.8389 25.4453 38.386C24.0448 40.5471 24.8264 42.7835 27.3024 43.4419C30.0774 44.1799 32.8738 44.262 35.5152 42.8754C38.0411 41.5494 38.3596 40.106 36.7086 37.7719C36.4613 37.4222 36.173 37.1016 35.7884 36.6247C37.1978 37.0268 37.9501 37.9419 38.487 39.0309C40.4539 43.0207 38.4733 47.0872 34.1352 48.0069C32.0695 48.4448 30.0005 48.4715 27.9374 47.9737C25.1837 47.3091 23.5714 45.5573 23.1979 42.7704C22.9365 40.8212 23.0639 38.8659 23.7696 36.999C24.4791 35.1224 25.7703 33.7445 27.5523 32.8408C29.1442 32.0335 30.7877 31.3214 32.3433 30.4505C33.1768 29.9839 33.8728 29.271 34.6441 28.6589Z" fill="#DFE7EB"/>
<path fill-rule="evenodd" clip-rule="evenodd" d="M45.4971 45.7332H41.2487V31.2394C42.3365 31.2394 43.4153 31.2035 44.4886 31.2651C44.7544 31.2804 45.0437 31.5746 45.2514 31.8042C47.0934 33.8403 48.9204 35.8899 50.7491 37.9378C50.9439 38.1559 51.1212 38.3895 51.5359 38.532V31.3043H55.8132V45.7606C54.6753 45.7606 53.562 45.7976 52.4547 45.7334C52.1947 45.7183 51.9212 45.3915 51.7101 45.1573C49.8712 43.1177 48.0437 41.0677 46.2175 39.0165C46.0444 38.8221 45.9046 38.5978 45.7496 38.3875C45.6653 38.4233 45.5812 38.4593 45.4971 38.4953V45.7332Z" fill="#B1C2C9"/>
<path fill-rule="evenodd" clip-rule="evenodd" d="M57.8132 45.7157V31.2842H71.0697V34.5675H62.2454C62.1291 34.7333 62.0649 34.7834 62.0579 34.8406C61.8211 36.7791 61.8219 36.7791 63.7389 36.7791C64.9544 36.7791 66.1698 36.7791 67.4389 36.7791V40.0023C65.9608 40.0023 64.4882 39.9856 63.0165 40.0155C62.6935 40.0218 62.1106 40.165 62.0965 40.294C62.0271 40.9333 62.0752 41.5939 62.1734 42.233C62.1873 42.3239 62.7022 42.3793 62.9855 42.3805C65.4018 42.3895 67.8182 42.3819 70.2346 42.3795C70.662 42.3791 71.0894 42.3795 71.5927 42.3795V45.7157H57.8132Z" fill="#B1C2C9"/>
<path fill-rule="evenodd" clip-rule="evenodd" d="M82.4086 45.6517C82.2804 45.6795 82.248 45.6925 82.2156 45.6926C81.0252 45.694 79.5553 46.1193 78.7248 45.5728C77.925 45.0468 77.7479 43.5292 77.365 42.4239C76.1641 38.9563 74.9946 35.478 73.8157 32.003C73.7433 31.7897 73.696 31.5681 73.5927 31.1862C75.0514 31.1862 76.4235 31.1585 77.7916 31.2184C77.9809 31.2265 78.2321 31.642 78.3172 31.9122C78.953 33.9299 79.5521 35.9592 80.1674 37.9836C80.2783 38.3482 80.4099 38.7066 80.7487 39.068C81.1671 37.8033 81.588 36.5393 82.0035 35.2736C82.3744 34.1428 82.7595 33.0161 83.0984 31.8758C83.2565 31.3446 83.5392 31.1689 84.0944 31.1589C86.4941 31.1158 86.4907 31.0983 87.2268 33.4007C87.7502 35.038 88.2804 36.6733 88.8148 38.3072C88.9033 38.578 89.0279 38.8368 89.2468 39.3731C89.8662 37.3508 90.4161 35.6022 90.9365 33.8451C91.7242 31.185 91.7154 31.1822 94.5037 31.1742C94.9963 31.1728 95.4891 31.174 96.1126 31.174C96.013 31.5788 95.9615 31.8853 95.8623 32.1756C94.4095 36.4286 92.939 40.6759 91.5051 44.9354C91.3055 45.5284 91.0465 45.7815 90.3928 45.7316C89.4066 45.6565 88.1637 46.0395 87.4922 45.5688C86.8292 45.104 86.7251 43.8254 86.403 42.8942C85.9102 41.4694 85.4406 40.0367 84.7361 38.5973C83.9644 40.9359 83.1929 43.2747 82.4086 45.6517Z" fill="#B1C2C9"/>
<path fill-rule="evenodd" clip-rule="evenodd" d="M110.237 40.2106H105.946V37.1531H114.398C114.398 39.314 114.405 41.4548 114.384 43.5957C114.383 43.7507 114.218 43.9585 114.072 44.0499C110.798 46.1019 105.952 47.168 102.081 44.9868C99.2874 43.4132 97.7994 40.6179 98.168 37.6551C98.5419 34.6497 100.921 32.0449 104.115 31.1445C107.282 30.2519 111.668 31.1894 114.304 33.3629C113.447 34.1821 112.598 34.9946 111.894 35.6685C110.455 35.1785 109.182 34.5998 107.848 34.3221C105.108 33.7521 102.785 35.4876 102.517 38.1501C102.259 40.7239 104.248 42.7973 107.03 42.8152C107.621 42.819 108.221 42.7406 108.803 42.6289C110.424 42.3174 110.581 42.0498 110.237 40.2106Z" fill="#B1C2C9"/>
<path fill-rule="evenodd" clip-rule="evenodd" d="M116.399 45.7166H120.499V31.2834H116.399V45.7166Z" fill="#B1C2C9"/>
<path fill-rule="evenodd" clip-rule="evenodd" d="M130.44 34.6506H123.005V31.2798H136.615C136.854 32.6052 136.664 33.6625 135.649 34.6933C133.47 36.9063 131.449 39.2761 129.367 41.5849C129.196 41.775 129.049 41.9877 128.778 42.3348H136.649V45.7201H122.59C122.432 44.5372 122.37 43.5053 123.366 42.4894C125.587 40.2242 127.657 37.8114 129.786 35.4559C129.976 35.2459 130.144 35.0163 130.44 34.6506Z" fill="#B1C2C9"/>
<path fill-rule="evenodd" clip-rule="evenodd" d="M149.748 40.6889C149.05 39.1296 148.396 37.6667 147.742 36.2039C147.653 36.2178 147.564 36.232 147.474 36.2461C146.835 37.6945 146.196 39.1431 145.514 40.6889H149.748ZM156.678 45.7994C155.202 45.7994 153.851 45.8554 152.511 45.7574C152.2 45.7348 151.783 45.2342 151.665 44.872C151.336 43.8643 150.753 43.5261 149.694 43.5985C148.212 43.6999 146.717 43.6717 145.232 43.6037C144.445 43.5677 143.941 43.7862 143.774 44.5629C143.542 45.6397 142.889 45.9254 141.842 45.8165C140.867 45.7147 139.872 45.7946 138.708 45.7946C139.368 44.4706 139.967 43.2721 140.563 42.0726C142.24 38.7006 143.927 35.3332 145.583 31.9505C145.835 31.4336 146.16 31.3068 146.715 31.2267C148.736 30.9349 149.879 31.6155 150.736 33.6069C152.379 37.4251 154.385 41.0873 156.237 44.8159C156.379 45.1018 156.499 45.399 156.678 45.7994Z" fill="#B1C2C9"/>
</svg>
