<svg width="109" height="77" viewBox="0 0 109 77" fill="none" xmlns="http://www.w3.org/2000/svg">
<path fill-rule="evenodd" clip-rule="evenodd" d="M37.36 33.159C37.2457 32.5747 37.1298 32.0291 37.0399 31.478C37.0265 31.3983 37.1188 31.243 37.196 31.2146C38.7249 30.6611 40.2521 30.0737 41.9323 30.4191C42.1988 30.4743 42.4677 30.5318 42.7239 30.6225C44.1416 31.1216 44.7061 32.2152 44.3797 33.8292C44.0005 35.701 43.6133 37.5712 43.2301 39.4422C43.2065 39.5597 43.1907 39.6796 43.1647 39.8396H44.8323C44.6785 40.5871 44.5398 41.2912 44.3813 41.9921C44.3647 42.0647 44.2338 42.1624 44.1558 42.1632C42.8477 42.1742 41.5405 42.1711 40.189 42.1711C40.2324 41.9148 40.2687 41.7059 40.3128 41.4449C40.1567 41.5143 40.0384 41.564 39.9225 41.6176C39.0103 42.041 38.072 42.3446 37.047 42.3225C34.9229 42.2767 33.685 40.6249 34.1124 38.541C34.5168 36.5706 36.5314 34.8991 38.8195 34.7651C39.7609 34.7099 40.6692 34.8376 41.6248 35.1877C41.732 34.5845 41.8669 34.0066 41.9276 33.42C41.9678 33.0352 41.6974 32.7947 41.3489 32.6654C40.6858 32.4194 40.0085 32.421 39.3336 32.596C38.6878 32.764 38.0499 32.9611 37.36 33.159ZM39.1766 36.9625C37.8418 36.9601 37.0163 37.475 36.6607 38.4858C36.3492 39.3697 36.8128 40.0572 37.7464 40.0935C38.5238 40.1235 39.2027 39.8175 39.8894 39.5021C40.6392 39.1568 41.0831 38.6317 41.0603 37.7833C41.0571 37.6658 40.987 37.4963 40.8947 37.4435C40.3444 37.1249 39.7506 36.9349 39.1766 36.9625ZM20.3565 42.1649C21.2932 37.6288 22.2275 33.1039 23.1713 28.5347H21.331C21.4934 27.7013 21.6456 26.9223 21.8064 26.0944H22.2567C24.2239 26.0944 26.1911 26.0889 28.1583 26.1C28.6069 26.1023 29.0587 26.1425 29.5042 26.2025C31.6906 26.4981 32.8709 28.3613 32.4105 30.4877C32.1353 31.7587 31.5258 32.7948 30.4401 33.5959C31.2183 34.1502 31.7411 34.8637 31.7892 35.8083C31.9027 38.0381 31.0922 39.8381 29.1809 41.0673C28.1488 41.7312 26.9953 42.0876 25.7779 42.1317C24.0449 42.194 22.3087 42.1814 20.5741 42.1996C20.5213 42.2003 20.4684 42.183 20.3565 42.1649ZM24.8822 32.6994C25.8796 32.6379 26.8416 32.6607 27.7712 32.4983C28.7512 32.3272 29.4837 31.7327 29.777 30.7219C30.0995 29.607 29.6461 28.7689 28.4997 28.6191C27.6056 28.5016 26.6831 28.5954 25.7377 28.5954C25.4649 29.9051 25.1842 31.2502 24.8822 32.6994ZM24.4076 34.9465C24.0685 36.6196 23.7453 38.2131 23.4299 39.7679C24.4328 39.7679 25.3932 39.8413 26.3377 39.7514C27.8555 39.6063 28.7646 38.8029 29.0981 37.4798C29.438 36.1347 28.9349 35.2855 27.563 35.1042C26.5412 34.9694 25.498 34.9954 24.4076 34.9465ZM78.7955 27.7994C78.257 27.2199 77.7311 26.6538 77.2075 26.09C79.1661 23.455 82.1583 23.7964 83.7076 25.3583C84.444 26.1011 85.4809 26.0498 86.2362 25.311C86.4901 25.0634 86.7266 24.7977 87.0767 24.4295C87.3503 24.7536 87.5813 25.054 87.8407 25.3268C88.1033 25.6028 88.3942 25.8519 88.6639 26.105C86.9143 28.7377 83.8582 29.0184 81.7585 26.854C81.2807 26.3613 80.2936 26.3715 79.8016 26.854C79.4822 27.1678 79.1495 27.4683 78.7955 27.7994ZM63.6657 46.7209C63.7595 46.538 63.8218 46.4071 63.892 46.2817C64.7822 44.6993 65.6794 43.1208 66.5546 41.5305C66.6548 41.3499 66.6926 41.0889 66.654 40.8847C66.1699 38.3656 65.6605 35.8504 65.174 33.3313C65.1173 33.0348 65.0227 32.9118 64.7057 32.9299C64.2168 32.9575 63.7256 32.937 63.1871 32.937C63.3401 32.1911 63.4757 31.4847 63.6397 30.7853C63.6586 30.7025 63.8289 30.6016 63.9298 30.6C64.9407 30.5858 65.9522 30.6008 66.9631 30.5858C67.2469 30.5811 67.2524 30.753 67.2903 30.9454C67.7271 33.1964 68.1678 35.4467 68.6094 37.6962C68.6157 37.7317 68.6362 37.7632 68.6795 37.8657C69.6462 36.2162 70.5852 34.6133 71.5645 32.9418H70.2699C70.4378 32.1304 70.5939 31.3759 70.7524 30.6103H76.3363C76.2204 31.1669 76.1076 31.7047 75.9972 32.2432C75.8545 32.937 75.849 32.9954 75.1646 32.922C74.3691 32.8361 73.9204 33.1058 73.5467 33.8311C72.8529 35.1755 72.0313 36.4543 71.2688 37.764C69.6091 40.6182 67.9486 43.4717 66.3031 46.3338C66.1289 46.6358 65.9388 46.7461 65.5943 46.7296C64.9722 46.6996 64.3477 46.7209 63.6657 46.7209ZM84.7279 39.8369H86.3955C86.2409 40.5851 86.1014 41.2884 85.9429 41.9886C85.9263 42.0619 85.7986 42.162 85.7221 42.1628C84.4133 42.1739 83.1044 42.1707 81.7491 42.1707C81.7932 41.92 81.8295 41.7126 81.8776 41.4343C81.7049 41.5147 81.578 41.5754 81.4502 41.6338C80.5617 42.0414 79.6486 42.3379 78.6528 42.3229C76.4837 42.2913 75.2293 40.6222 75.6827 38.5036C76.099 36.5608 78.1016 34.9011 80.3787 34.7647C81.3335 34.7071 82.2529 34.8483 83.1786 35.1786C83.2874 34.6298 83.4064 34.1118 83.4884 33.5883C83.5586 33.1389 83.3662 32.8424 82.9144 32.6689C82.2545 32.4151 81.5748 32.4206 80.8999 32.5948C80.2549 32.762 79.6179 32.9591 78.9256 33.1578C78.8034 32.5436 78.682 31.9341 78.5542 31.2883C80.2786 30.6481 81.9714 30.0134 83.8503 30.4881C85.5589 30.9201 86.2977 32.0484 85.95 33.7838C85.5739 35.6564 85.1844 37.5267 84.8012 39.3977C84.7744 39.5286 84.7571 39.6618 84.7279 39.8369ZM80.7086 36.8481C80.696 36.886 80.6834 36.9246 80.6708 36.9624C79.4234 36.9593 78.6176 37.4497 78.2399 38.4416C77.8914 39.357 78.3653 40.0682 79.3422 40.0942C80.133 40.1155 80.8182 39.7891 81.5168 39.4682C82.2524 39.1291 82.6293 38.5906 82.6214 37.7919C82.6199 37.6657 82.5252 37.4671 82.4259 37.4284C81.8614 37.214 81.2826 37.0373 80.7086 36.8481ZM63.2392 26.1042C63.0759 26.925 62.923 27.6977 62.7621 28.5074C62.2346 28.5074 61.7316 28.5138 61.2278 28.5043C61.0259 28.5011 60.9132 28.539 60.8651 28.7739C60.12 32.4245 59.3631 36.0735 58.6101 39.7225C58.6046 39.747 58.6188 39.7754 58.6298 39.84H60.4165C60.2627 40.5883 60.1239 41.2939 59.9655 41.9949C59.9489 42.0674 59.8164 42.1628 59.7376 42.1636C58.387 42.1739 57.0371 42.1707 55.6329 42.1707C55.6825 41.8727 55.7251 41.6133 55.7614 41.3956C55.062 41.6543 54.369 41.9578 53.6475 42.1652C52.7952 42.4104 51.9145 42.3867 51.0503 42.1873C49.0871 41.7331 47.8287 40.1341 47.7301 37.9918C47.589 34.9255 49.7076 31.7102 52.5997 30.697C54.4241 30.0576 56.1966 30.1064 57.8303 31.4397C58.1993 29.6389 58.5596 27.883 58.9239 26.1042H63.2392ZM50.2101 37.2049C50.1999 38.7306 51.1185 39.8809 52.4573 40.0102C53.4231 40.1041 54.3046 39.8691 55.0686 39.2683C56.3641 38.2504 56.9404 36.8564 56.9239 35.2598C56.905 33.3848 55.3399 32.2597 53.5185 32.7091C51.6854 33.1601 50.2243 35.1462 50.2101 37.2049ZM76.8969 55.5312C77.0672 55.5698 77.2028 55.5998 77.3613 55.6353C77.109 55.8647 76.4546 55.8742 76.1305 55.6455C76.3008 55.6045 76.4341 55.5722 76.617 55.528C76.617 54.727 76.617 53.9125 76.617 53.098C76.617 52.9482 76.5996 52.7952 76.6225 52.6486C76.6398 52.5342 76.7061 52.427 76.751 52.3166C76.7999 52.4223 76.8882 52.5264 76.8906 52.6328C76.9032 53.2872 76.8969 53.9416 76.8969 54.5961C76.8969 54.9075 76.8969 55.2182 76.8969 55.5312ZM80.0279 55.7512H79.2709C79.267 55.7102 79.2631 55.6692 79.2591 55.6282C79.4034 55.6021 79.5477 55.5753 79.7196 55.5438V52.5823H78.7789C78.7513 52.8441 78.7222 53.1209 78.693 53.3976C78.6504 53.396 78.6071 53.3945 78.5645 53.3929V52.3332H81.2831C81.2705 52.5603 81.2594 52.7731 81.2476 52.986C81.1995 52.986 81.1514 52.9852 81.1033 52.9852C81.071 52.852 81.0395 52.7179 81.0032 52.5689H80.0279V55.7512ZM85.1686 52.6091C85.0078 52.5516 84.8785 52.5051 84.7484 52.4585C84.7563 52.4231 84.7634 52.3876 84.7713 52.3521H85.9256C84.7484 53.2115 84.2138 54.317 84.4551 55.752H83.6579C83.654 55.7125 83.6493 55.6739 83.6445 55.6345C83.7873 55.6045 83.9308 55.5753 84.0947 55.5414C84.3281 54.1545 83.7021 53.1666 82.6219 52.3521C82.9672 52.2756 83.2574 52.2378 83.4687 52.6344C83.7037 53.0775 84.0001 53.4891 84.3045 53.97C84.608 53.4922 84.8864 53.0538 85.1686 52.6091ZM74.6718 52.7369C74.7057 52.7124 74.7743 52.6635 74.9029 52.5713V53.4906C73.9638 52.3135 72.9901 51.9326 72.1251 53.4118C71.6986 54.1411 72.0936 55.1109 72.7882 55.4555C73.5759 55.8466 74.2697 55.5533 74.9691 54.5771C74.9691 54.6899 75.0061 54.82 74.9636 54.9146C74.6482 55.61 74.008 55.9238 73.1304 55.8308C72.4484 55.759 71.8862 55.2292 71.7388 54.5188C71.4384 53.0735 72.5753 51.92 73.9086 52.3332C74.1727 52.4144 74.4069 52.5934 74.6718 52.7369ZM57.9344 52.334V55.5264C58.0952 55.5635 58.2301 55.5943 58.3799 55.6282C58.1717 55.86 57.5252 55.882 57.168 55.6534C57.8287 55.6242 57.6434 55.1669 57.6482 54.816C57.6568 54.0804 57.645 53.3456 57.6576 52.6107C57.6592 52.5019 57.7483 52.3939 57.7972 52.2859C57.8429 52.3024 57.8886 52.3182 57.9344 52.334ZM53.299 52.3237H56.0397V52.9718C56.0034 52.9789 55.9672 52.986 55.9309 52.9931C55.8883 52.8559 55.8457 52.7195 55.7976 52.565H54.8617V55.7433H54.0867C54.0851 55.7054 54.0835 55.6668 54.0812 55.6289C54.227 55.599 54.3721 55.5698 54.5393 55.5359V52.5744H53.5726C53.5521 52.8465 53.5308 53.1177 53.5103 53.3889C53.4559 53.3897 53.4015 53.3897 53.3471 53.3905C53.3313 53.0515 53.3164 52.7132 53.299 52.3237ZM59.4553 52.3631C60.1413 52.2504 60.1413 52.2504 60.3542 52.8047C60.6759 53.6436 60.9976 54.4817 61.3539 55.4098C61.7166 54.4281 62.0494 53.5285 62.3892 52.6076C62.2378 52.5587 62.1046 52.5153 61.9713 52.472C61.9768 52.4349 61.9831 52.397 61.9894 52.36H63.1311C63.0957 52.4325 63.0688 52.5169 63.0531 52.5145C62.6163 52.4609 62.5658 52.8007 62.4617 53.087C62.1621 53.9054 61.8657 54.7254 61.5566 55.5406C61.5148 55.6502 61.4044 55.7346 61.3263 55.83C61.2475 55.7322 61.1395 55.6455 61.0961 55.5335C60.765 54.6828 60.4441 53.8289 60.1255 52.9734C60.0333 52.7274 59.9647 52.4719 59.6099 52.5311C59.5791 52.5358 59.5342 52.4507 59.4553 52.3631ZM65.3499 54.0914V55.5966H67.4322C67.1933 55.8308 65.9877 55.8907 65.055 55.7677V52.6186C64.8657 52.5563 64.7215 52.5098 64.578 52.4625C64.5858 52.4246 64.5937 52.3876 64.6016 52.3505H67.3526V53.1279C67.3052 53.1366 67.2571 53.1453 67.2098 53.1532C67.1783 52.9726 67.1476 52.7913 67.1105 52.5768H65.357V53.9164H66.7825C66.7825 53.9748 66.7833 54.0331 66.7833 54.0914H65.3499ZM39.3251 52.7519V53.4638C39.0042 53.1634 38.7685 52.807 38.4405 52.6722C38.1054 52.5342 37.667 52.5437 37.2996 52.617C36.8785 52.7014 36.6231 53.0609 36.4811 53.467C36.2028 54.2633 36.5355 55.1535 37.2199 55.472C38.0044 55.8363 38.6872 55.5391 39.2518 54.5874C39.292 54.5858 39.3314 54.5842 39.3708 54.5827C39.3708 54.6946 39.4071 54.8231 39.3653 54.9162C39.0594 55.5974 38.4428 55.9057 37.57 55.8332C36.9211 55.7788 36.3637 55.3325 36.1902 54.6686C36.0033 53.959 36.0609 53.2754 36.6175 52.7298C37.0977 52.2599 37.6843 52.1447 38.3222 52.3324C38.4893 52.3821 38.6368 52.4924 38.7984 52.5618C38.9451 52.6249 39.0988 52.6714 39.3251 52.7519ZM51.4627 52.4783C51.3334 52.5145 51.2041 52.55 51.0346 52.5973C51.3681 53.545 51.689 54.4951 52.0485 55.4303C52.0942 55.5477 52.3466 55.5856 52.5019 55.6597C52.2851 55.8702 51.6251 55.8781 51.3357 55.6408C51.4832 55.6021 51.6038 55.5706 51.7615 55.5296C51.6614 55.2347 51.6212 54.8988 51.4485 54.6576C51.152 54.2436 50.6734 54.5448 50.28 54.4849C50.1728 54.4683 49.9764 54.5961 49.9291 54.7049C49.7825 55.0384 49.6887 55.3956 49.553 55.8071C49.3583 55.7977 49.1312 55.7874 48.9041 55.7764C48.8876 55.7244 48.871 55.6731 48.8545 55.6211C49.4221 55.6644 49.4482 55.2458 49.5657 54.9051C49.8187 54.1719 50.09 53.4433 50.3155 52.7014C50.414 52.3781 50.5702 52.2599 50.8958 52.304C51.074 52.3284 51.2585 52.3087 51.4406 52.3087C51.4477 52.3655 51.4556 52.4223 51.4627 52.4783ZM51.3138 54.2204C51.1128 53.6307 50.9243 53.0787 50.702 52.4251C50.4757 53.089 50.2888 53.6378 50.0901 54.2204H51.3138ZM45.2078 52.5918C44.9989 52.5469 44.8672 52.5185 44.7363 52.4901C44.7403 52.4491 44.7434 52.4081 44.7474 52.3663H47.4991V53.1319C47.4549 53.1398 47.41 53.1477 47.3658 53.1555C47.3319 52.9695 47.298 52.7834 47.2594 52.5713H45.5051V53.9361H46.9377C46.9346 53.9897 46.9322 54.0434 46.929 54.0978H45.5114V55.5864H47.5732C47.3674 55.8276 46.2076 55.8931 45.2078 55.7717V52.5918ZM41.0132 52.5879C40.7995 52.5476 40.6434 52.5185 40.4873 52.4893C40.4881 52.4475 40.4897 52.4057 40.4905 52.3639C40.5835 52.3458 40.6765 52.3127 40.7696 52.3111C41.2198 52.3056 41.6692 52.3056 42.1194 52.3095C42.7021 52.315 43.0561 52.5492 43.1515 52.9852C43.2493 53.4315 43.0317 53.7674 42.49 54.0094C42.4656 54.0205 42.4451 54.0394 42.3875 54.078C42.5909 54.5243 42.7746 54.9895 43.0159 55.4224C43.0853 55.5477 43.321 55.5809 43.4771 55.6542C43.3289 55.8947 42.9173 55.8947 42.7802 55.6203C42.6098 55.2797 42.4624 54.9272 42.3055 54.5795C42.0398 53.9929 42.0398 53.9929 41.301 54.1001C41.301 54.5771 41.3065 55.0628 41.2955 55.5485C41.2931 55.6353 41.2214 55.7204 41.1812 55.8064C41.1252 55.7204 41.0219 55.6345 41.0211 55.547C41.0093 54.5669 41.0132 53.586 41.0132 52.5879ZM41.3247 53.8331C41.6977 53.8165 42.0509 53.8307 42.3931 53.7763C42.7116 53.7251 42.8741 53.494 42.8685 53.1605C42.863 52.8428 42.6896 52.622 42.397 52.5834C42.0446 52.5361 41.6811 52.5723 41.3247 52.5723V53.8331ZM21.401 52.5721V55.7551H20.6472C20.6425 55.7109 20.637 55.6676 20.6323 55.6242C20.7758 55.5998 20.9193 55.5761 21.0927 55.547V52.5689H20.1568C20.1292 52.8425 20.1001 53.1216 20.0717 53.4008C20.0283 53.3992 19.9857 53.3968 19.9424 53.3945V52.3355H22.6594C22.6491 52.5555 22.6389 52.7708 22.6287 52.9852C22.5798 52.9868 22.5309 52.9884 22.482 52.9908C22.4497 52.8591 22.4173 52.7282 22.3787 52.5721H21.401ZM31.5075 52.5697H29.7548V53.9361H31.1819C31.1795 53.9905 31.1764 54.0449 31.1732 54.0993H29.7603V55.5856H31.819C31.6258 55.8308 30.2231 55.9018 29.441 55.7504V52.6052C29.2572 52.5516 29.1201 52.5122 28.9829 52.4727C28.9907 52.4341 28.9978 52.3955 29.0049 52.3568H31.759V53.1264C31.7133 53.1366 31.6676 53.1469 31.6218 53.1563C31.5848 52.9687 31.5485 52.781 31.5075 52.5697ZM24.7961 54.1325V55.7433H24.0794C24.0778 55.7062 24.0763 55.6692 24.0739 55.6321C24.1945 55.6045 24.3144 55.5777 24.465 55.543V52.5934C24.327 52.5508 24.1937 52.5098 24.0613 52.4696C24.0676 52.4246 24.0739 52.3805 24.081 52.3363C24.297 52.3261 24.5131 52.3158 24.7882 52.3032V53.8423H26.6624V52.5902C26.5229 52.5555 26.3794 52.5185 26.2351 52.4822C26.239 52.4444 26.2422 52.4073 26.2461 52.3694H27.3799C27.3917 52.3931 27.4036 52.4168 27.4146 52.4404C27.2892 52.4917 27.1639 52.5429 26.9881 52.6154V55.7425H26.2587C26.2556 55.7062 26.2516 55.6699 26.2485 55.6337C26.3825 55.6029 26.5158 55.573 26.6727 55.5375V54.1325H24.7961ZM14.894 21.1528C14.8853 21.3294 14.868 21.5061 14.868 21.6819C14.8672 30.1019 14.8672 38.5219 14.8672 46.9418C14.8672 47.1169 14.8672 47.2911 14.8672 47.5568H13.5V21.1528H14.894ZM95.5 21.1528V47.4977H94.2038C94.1943 47.3755 94.1777 47.258 94.1777 47.1397C94.177 38.5597 94.177 29.9789 94.1777 21.398C94.1777 21.3168 94.1841 21.2348 94.188 21.1528H95.5Z" fill="#B1C2C9"/>
</svg>
