<svg width="181" height="77" viewBox="0 0 181 77" fill="none" xmlns="http://www.w3.org/2000/svg">
<path fill-rule="evenodd" clip-rule="evenodd" d="M68.8865 31.7263C68.7415 30.9853 68.5945 30.2933 68.4805 29.5943C68.4635 29.4933 68.5805 29.2963 68.6785 29.2603C70.6175 28.5583 72.5545 27.8133 74.6855 28.2513C75.0235 28.3213 75.3645 28.3943 75.6895 28.5093C77.4875 29.1423 78.2035 30.5293 77.7895 32.5763C77.3085 34.9503 76.8175 37.3223 76.3315 39.6953C76.3015 39.8443 76.2815 39.9963 76.2485 40.1993H78.3635C78.1685 41.1473 77.9925 42.0403 77.7915 42.9293C77.7705 43.0213 77.6045 43.1453 77.5055 43.1463C75.8465 43.1603 74.1885 43.1563 72.4745 43.1563C72.5295 42.8313 72.5755 42.5663 72.6315 42.2353C72.4335 42.3233 72.2835 42.3863 72.1365 42.4543C70.9795 42.9913 69.7895 43.3763 68.4895 43.3483C65.7955 43.2903 64.2255 41.1953 64.7675 38.5523C65.2805 36.0533 67.8355 33.9333 70.7375 33.7633C71.9315 33.6933 73.0835 33.8553 74.2955 34.2993C74.4315 33.5343 74.6025 32.8013 74.6795 32.0573C74.7305 31.5693 74.3875 31.2643 73.9455 31.1003C73.1045 30.7883 72.2455 30.7903 71.3895 31.0123C70.5705 31.2253 69.7615 31.4753 68.8865 31.7263ZM71.1905 36.5503C69.4975 36.5473 68.4505 37.2003 67.9995 38.4823C67.6045 39.6033 68.1925 40.4753 69.3765 40.5213C70.3625 40.5593 71.2235 40.1713 72.0945 39.7713C73.0455 39.3333 73.6085 38.6673 73.5795 37.5913C73.5755 37.4423 73.4865 37.2273 73.3695 37.1603C72.6715 36.7563 71.9185 36.5153 71.1905 36.5503ZM47.321 43.1484C48.509 37.3954 49.694 31.6564 50.891 25.8614H48.557C48.763 24.8044 48.956 23.8164 49.16 22.7664H49.731C52.226 22.7664 54.721 22.7594 57.216 22.7734C57.785 22.7764 58.358 22.8274 58.923 22.9034C61.696 23.2784 63.193 25.6414 62.609 28.3384C62.26 29.9504 61.487 31.2644 60.11 32.2804C61.097 32.9834 61.76 33.8884 61.821 35.0864C61.965 37.9144 60.937 40.1974 58.513 41.7564C57.204 42.5984 55.741 43.0504 54.197 43.1064C51.999 43.1854 49.797 43.1694 47.597 43.1924C47.53 43.1934 47.463 43.1714 47.321 43.1484ZM53.061 31.1434C54.326 31.0654 55.546 31.0944 56.725 30.8884C57.968 30.6714 58.897 29.9174 59.269 28.6354C59.678 27.2214 59.103 26.1584 57.649 25.9684C56.515 25.8194 55.345 25.9384 54.146 25.9384C53.8 27.5994 53.444 29.3054 53.061 31.1434ZM52.459 33.9934C52.029 36.1154 51.619 38.1364 51.219 40.1084C52.491 40.1084 53.709 40.2014 54.907 40.0874C56.832 39.9034 57.985 38.8844 58.408 37.2064C58.839 35.5004 58.201 34.4234 56.461 34.1934C55.165 34.0224 53.842 34.0554 52.459 33.9934ZM121.439 24.9288C120.756 24.1938 120.089 23.4758 119.425 22.7608C121.909 19.4188 125.704 19.8518 127.669 21.8328C128.603 22.7748 129.918 22.7098 130.876 21.7728C131.198 21.4588 131.498 21.1218 131.942 20.6548C132.289 21.0658 132.582 21.4468 132.911 21.7928C133.244 22.1428 133.613 22.4588 133.955 22.7798C131.736 26.1188 127.86 26.4748 125.197 23.7298C124.591 23.1048 123.339 23.1178 122.715 23.7298C122.31 24.1278 121.888 24.5088 121.439 24.9288ZM102.25 48.9268C102.369 48.6948 102.448 48.5288 102.537 48.3698C103.666 46.3628 104.804 44.3608 105.914 42.3438C106.041 42.1148 106.089 41.7838 106.04 41.5248C105.426 38.3298 104.78 35.1398 104.163 31.9448C104.091 31.5688 103.971 31.4128 103.569 31.4358C102.949 31.4708 102.326 31.4448 101.643 31.4448C101.837 30.4988 102.009 29.6028 102.217 28.7158C102.241 28.6108 102.457 28.4828 102.585 28.4808C103.867 28.4628 105.15 28.4818 106.432 28.4628C106.792 28.4568 106.799 28.6748 106.847 28.9188C107.401 31.7738 107.96 34.6278 108.52 37.4808C108.528 37.5258 108.554 37.5658 108.609 37.6958C109.835 35.6038 111.026 33.5708 112.268 31.4508H110.626C110.839 30.4218 111.037 29.4648 111.238 28.4938H118.32C118.173 29.1998 118.03 29.8818 117.89 30.5648C117.709 31.4448 117.702 31.5188 116.834 31.4258C115.825 31.3168 115.256 31.6588 114.782 32.5788C113.902 34.2838 112.86 35.9058 111.893 37.5668C109.788 41.1868 107.682 44.8058 105.595 48.4358C105.374 48.8188 105.133 48.9588 104.696 48.9378C103.907 48.8998 103.115 48.9268 102.25 48.9268ZM128.963 40.1958H131.078C130.882 41.1448 130.705 42.0368 130.504 42.9248C130.483 43.0178 130.321 43.1448 130.224 43.1458C128.564 43.1598 126.904 43.1558 125.185 43.1558C125.241 42.8378 125.287 42.5748 125.348 42.2218C125.129 42.3238 124.968 42.4008 124.806 42.4748C123.679 42.9918 122.521 43.3678 121.258 43.3488C118.507 43.3088 116.916 41.1918 117.491 38.5048C118.019 36.0408 120.559 33.9358 123.447 33.7628C124.658 33.6898 125.824 33.8688 126.998 34.2878C127.136 33.5918 127.287 32.9348 127.391 32.2708C127.48 31.7008 127.236 31.3248 126.663 31.1048C125.826 30.7828 124.964 30.7898 124.108 31.0108C123.29 31.2228 122.482 31.4728 121.604 31.7248C121.449 30.9458 121.295 30.1728 121.133 29.3538C123.32 28.5418 125.467 27.7368 127.85 28.3388C130.017 28.8868 130.954 30.3178 130.513 32.5188C130.036 34.8938 129.542 37.2658 129.056 39.6388C129.022 39.8048 129 39.9738 128.963 40.1958ZM123.865 36.4052C123.849 36.4532 123.833 36.5022 123.817 36.5502C122.235 36.5462 121.213 37.1682 120.734 38.4262C120.292 39.5872 120.893 40.4892 122.132 40.5222C123.135 40.5492 124.004 40.1352 124.89 39.7282C125.823 39.2982 126.301 38.6152 126.291 37.6022C126.289 37.4422 126.169 37.1902 126.043 37.1412C125.327 36.8692 124.593 36.6452 123.865 36.4052ZM101.709 22.7788C101.502 23.8198 101.308 24.7998 101.104 25.8268C100.435 25.8268 99.7968 25.8348 99.1578 25.8228C98.9018 25.8188 98.7588 25.8668 98.6978 26.1648C97.7528 30.7948 96.7928 35.4228 95.8378 40.0508C95.8308 40.0818 95.8488 40.1178 95.8628 40.1998H98.1288C97.9338 41.1488 97.7578 42.0438 97.5568 42.9328C97.5358 43.0248 97.3678 43.1458 97.2678 43.1468C95.5548 43.1598 93.8428 43.1558 92.0618 43.1558C92.1248 42.7778 92.1788 42.4488 92.2248 42.1728C91.3378 42.5008 90.4588 42.8858 89.5438 43.1488C88.4628 43.4598 87.3458 43.4298 86.2498 43.1768C83.7598 42.6008 82.1638 40.5728 82.0388 37.8558C81.8598 33.9668 84.5468 29.8888 88.2148 28.6038C90.5288 27.7928 92.7768 27.8548 94.8488 29.5458C95.3168 27.2618 95.7738 25.0348 96.2358 22.7788H101.709ZM85.1842 36.8577C85.1712 38.7927 86.3362 40.2517 88.0342 40.4157C89.2592 40.5347 90.3772 40.2367 91.3462 39.4747C92.9892 38.1837 93.7202 36.4157 93.6992 34.3907C93.6752 32.0127 91.6902 30.5857 89.3802 31.1557C87.0552 31.7277 85.2022 34.2467 85.1842 36.8577ZM119.031 60.1008C119.247 60.1498 119.419 60.1878 119.62 60.2328C119.3 60.5238 118.47 60.5358 118.059 60.2458C118.275 60.1938 118.444 60.1528 118.676 60.0968C118.676 59.0808 118.676 58.0478 118.676 57.0148C118.676 56.8248 118.654 56.6308 118.683 56.4448C118.705 56.2998 118.789 56.1638 118.846 56.0238C118.908 56.1578 119.02 56.2898 119.023 56.4248C119.039 57.2548 119.031 58.0848 119.031 58.9148C119.031 59.3098 119.031 59.7038 119.031 60.1008ZM123.002 60.3798H122.042C122.037 60.3278 122.032 60.2758 122.027 60.2238C122.21 60.1908 122.393 60.1568 122.611 60.1168V56.3608H121.418C121.383 56.6928 121.346 57.0438 121.309 57.3948C121.255 57.3928 121.2 57.3908 121.146 57.3888V56.0448H124.594C124.578 56.3328 124.564 56.6028 124.549 56.8728C124.488 56.8728 124.427 56.8718 124.366 56.8718C124.325 56.7028 124.285 56.5328 124.239 56.3438H123.002V60.3798ZM129.522 56.3948C129.318 56.3218 129.154 56.2628 128.989 56.2038C128.999 56.1588 129.008 56.1138 129.018 56.0688H130.482C128.989 57.1588 128.311 58.5608 128.617 60.3808H127.606C127.601 60.3308 127.595 60.2818 127.589 60.2318C127.77 60.1938 127.952 60.1568 128.16 60.1138C128.456 58.3548 127.662 57.1018 126.292 56.0688C126.73 55.9718 127.098 55.9238 127.366 56.4268C127.664 56.9888 128.04 57.5108 128.426 58.1208C128.811 57.5148 129.164 56.9588 129.522 56.3948ZM116.209 56.5568C116.252 56.5258 116.339 56.4638 116.502 56.3468V57.5128C115.311 56.0198 114.076 55.5368 112.979 57.4128C112.438 58.3378 112.939 59.5678 113.82 60.0048C114.819 60.5008 115.699 60.1288 116.586 58.8908C116.586 59.0338 116.633 59.1988 116.579 59.3188C116.179 60.2008 115.367 60.5988 114.254 60.4808C113.389 60.3898 112.676 59.7178 112.489 58.8168C112.108 56.9838 113.55 55.5208 115.241 56.0448C115.576 56.1478 115.873 56.3748 116.209 56.5568ZM94.9808 56.0458V60.0948C95.1848 60.1418 95.3558 60.1808 95.5458 60.2238C95.2818 60.5178 94.4618 60.5458 94.0088 60.2558C94.8468 60.2188 94.6118 59.6388 94.6178 59.1938C94.6288 58.2608 94.6138 57.3288 94.6298 56.3968C94.6318 56.2588 94.7448 56.1218 94.8068 55.9848C94.8648 56.0058 94.9228 56.0258 94.9808 56.0458ZM89.1018 56.0328H92.5778V56.8548C92.5318 56.8638 92.4858 56.8728 92.4398 56.8818C92.3858 56.7078 92.3318 56.5348 92.2708 56.3388H91.0838V60.3698H90.1008C90.0988 60.3218 90.0968 60.2728 90.0938 60.2248C90.2788 60.1868 90.4628 60.1498 90.6748 60.1068V56.3508H89.4488C89.4228 56.6958 89.3958 57.0398 89.3698 57.3838C89.3008 57.3848 89.2318 57.3848 89.1628 57.3858C89.1428 56.9558 89.1238 56.5268 89.1018 56.0328ZM96.9098 56.0828C97.7798 55.9398 97.7798 55.9398 98.0498 56.6428C98.4578 57.7068 98.8658 58.7698 99.3178 59.9468C99.7778 58.7018 100.2 57.5608 100.631 56.3928C100.439 56.3308 100.27 56.2758 100.101 56.2208C100.108 56.1738 100.116 56.1258 100.124 56.0788H101.572C101.527 56.1708 101.493 56.2778 101.473 56.2748C100.919 56.2068 100.855 56.6378 100.723 57.0008C100.343 58.0388 99.9668 59.0788 99.5748 60.1128C99.5218 60.2518 99.3818 60.3588 99.2828 60.4798C99.1828 60.3558 99.0458 60.2458 98.9908 60.1038C98.5708 59.0248 98.1638 57.9418 97.7598 56.8568C97.6428 56.5448 97.5558 56.2208 97.1058 56.2958C97.0668 56.3018 97.0098 56.1938 96.9098 56.0828ZM104.386 58.2748V60.1838H107.027C106.724 60.4808 105.195 60.5568 104.012 60.4008V56.4068C103.772 56.3278 103.589 56.2688 103.407 56.2088C103.417 56.1608 103.427 56.1138 103.437 56.0668H106.926V57.0528C106.866 57.0638 106.805 57.0748 106.745 57.0848C106.705 56.8558 106.666 56.6258 106.619 56.3538H104.395V58.0528H106.203C106.203 58.1268 106.204 58.2008 106.204 58.2748H104.386ZM71.3788 56.5758V57.4788C70.9718 57.0978 70.6728 56.6458 70.2568 56.4748C69.8318 56.2998 69.2758 56.3118 68.8098 56.4048C68.2758 56.5118 67.9518 56.9678 67.7718 57.4828C67.4188 58.4928 67.8408 59.6218 68.7088 60.0258C69.7038 60.4878 70.5698 60.1108 71.2858 58.9038C71.3368 58.9018 71.3868 58.8998 71.4368 58.8978C71.4368 59.0398 71.4828 59.2028 71.4298 59.3208C71.0418 60.1848 70.2598 60.5758 69.1528 60.4838C68.3298 60.4148 67.6228 59.8488 67.4028 59.0068C67.1658 58.1068 67.2388 57.2398 67.9448 56.5478C68.5538 55.9518 69.2978 55.8058 70.1068 56.0438C70.3188 56.1068 70.5058 56.2468 70.7108 56.3348C70.8968 56.4148 71.0918 56.4738 71.3788 56.5758ZM86.7728 56.2288C86.6088 56.2748 86.4448 56.3198 86.2298 56.3798C86.6528 57.5818 87.0598 58.7868 87.5158 59.9728C87.5738 60.1218 87.8938 60.1698 88.0908 60.2638C87.8158 60.5308 86.9788 60.5408 86.6118 60.2398C86.7988 60.1908 86.9518 60.1508 87.1518 60.0988C87.0248 59.7248 86.9738 59.2988 86.7548 58.9928C86.3788 58.4678 85.7718 58.8498 85.2728 58.7738C85.1368 58.7528 84.8878 58.9148 84.8278 59.0528C84.6418 59.4758 84.5228 59.9288 84.3508 60.4508C84.1038 60.4388 83.8158 60.4258 83.5278 60.4118C83.5068 60.3458 83.4858 60.2808 83.4648 60.2148C84.1848 60.2698 84.2178 59.7388 84.3668 59.3068C84.6878 58.3768 85.0318 57.4528 85.3178 56.5118C85.4428 56.1018 85.6408 55.9518 86.0538 56.0078C86.2798 56.0388 86.5138 56.0138 86.7448 56.0138C86.7538 56.0858 86.7638 56.1578 86.7728 56.2288ZM86.584 58.4384C86.329 57.6904 86.09 56.9904 85.808 56.1614C85.521 57.0034 85.284 57.6994 85.032 58.4384H86.584ZM78.8398 56.3728C78.5748 56.3158 78.4078 56.2798 78.2418 56.2438C78.2468 56.1918 78.2508 56.1398 78.2558 56.0868H81.7458V57.0578C81.6898 57.0678 81.6328 57.0778 81.5768 57.0878C81.5338 56.8518 81.4908 56.6158 81.4418 56.3468H79.2168V58.0778H81.0338C81.0298 58.1458 81.0268 58.2138 81.0228 58.2828H79.2248V60.1708H81.8398C81.5788 60.4768 80.1078 60.5598 78.8398 60.4058V56.3728ZM73.5198 56.3678C73.2488 56.3168 73.0508 56.2798 72.8528 56.2428C72.8538 56.1898 72.8558 56.1368 72.8568 56.0838C72.9748 56.0608 73.0928 56.0188 73.2108 56.0168C73.7818 56.0098 74.3518 56.0098 74.9228 56.0148C75.6618 56.0218 76.1108 56.3188 76.2318 56.8718C76.3558 57.4378 76.0798 57.8638 75.3928 58.1708C75.3618 58.1848 75.3358 58.2088 75.2628 58.2578C75.5208 58.8238 75.7538 59.4138 76.0598 59.9628C76.1478 60.1218 76.4468 60.1638 76.6448 60.2568C76.4568 60.5618 75.9348 60.5618 75.7608 60.2138C75.5448 59.7818 75.3578 59.3348 75.1588 58.8938C74.8218 58.1498 74.8218 58.1498 73.8848 58.2858C73.8848 58.8908 73.8918 59.5068 73.8778 60.1228C73.8748 60.2328 73.7838 60.3408 73.7328 60.4498C73.6618 60.3408 73.5308 60.2318 73.5298 60.1208C73.5148 58.8778 73.5198 57.6338 73.5198 56.3678ZM73.9149 57.9471C74.3879 57.9261 74.8359 57.9441 75.2699 57.8751C75.6739 57.8101 75.8799 57.5171 75.8729 57.0941C75.8659 56.6911 75.6459 56.4111 75.2749 56.3621C74.8279 56.3021 74.3669 56.3481 73.9149 56.3481V57.9471ZM48.6458 56.3478V60.3848H47.6898C47.6838 60.3288 47.6768 60.2738 47.6708 60.2188C47.8528 60.1878 48.0348 60.1578 48.2548 60.1208V56.3438H47.0678C47.0328 56.6908 46.9958 57.0448 46.9598 57.3988C46.9048 57.3968 46.8508 57.3938 46.7958 57.3908V56.0478H50.2418C50.2288 56.3268 50.2158 56.5998 50.2028 56.8718C50.1408 56.8738 50.0788 56.8758 50.0168 56.8788C49.9758 56.7118 49.9348 56.5458 49.8858 56.3478H48.6458ZM61.4638 56.3448H59.2408V58.0778H61.0508C61.0478 58.1468 61.0438 58.2158 61.0398 58.2848H59.2478V60.1698H61.8588C61.6138 60.4808 59.8348 60.5708 58.8428 60.3788V56.3898C58.6098 56.3218 58.4358 56.2718 58.2618 56.2218C58.2718 56.1728 58.2808 56.1238 58.2898 56.0748H61.7828V57.0508C61.7248 57.0638 61.6668 57.0768 61.6088 57.0888C61.5618 56.8508 61.5158 56.6128 61.4638 56.3448ZM52.9518 58.3268V60.3698H52.0428C52.0408 60.3228 52.0388 60.2758 52.0358 60.2288C52.1888 60.1938 52.3408 60.1598 52.5318 60.1158V56.3748C52.3568 56.3208 52.1878 56.2688 52.0198 56.2178C52.0278 56.1608 52.0358 56.1048 52.0448 56.0488C52.3188 56.0358 52.5928 56.0228 52.9418 56.0068V57.9588H55.3188V56.3708C55.1418 56.3268 54.9598 56.2798 54.7768 56.2338C54.7818 56.1858 54.7858 56.1388 54.7908 56.0908H56.2288C56.2438 56.1208 56.2588 56.1508 56.2728 56.1808C56.1138 56.2458 55.9548 56.3108 55.7318 56.4028V60.3688H54.8068C54.8028 60.3228 54.7978 60.2768 54.7938 60.2308C54.9638 60.1918 55.1328 60.1538 55.3318 60.1088V58.3268H52.9518ZM40.393 16.499C40.382 16.723 40.36 16.947 40.36 17.17C40.359 27.849 40.359 38.528 40.359 49.207C40.359 49.429 40.359 49.65 40.359 49.987H38.625V16.499H40.393ZM142.625 16.499V49.912H140.981C140.969 49.757 140.948 49.608 140.948 49.458C140.947 38.576 140.947 27.693 140.948 16.81C140.948 16.707 140.956 16.603 140.961 16.499H142.625Z" fill="#B1C2C9"/>
</svg>
