<svg width="109" height="77" viewBox="0 0 109 77" fill="none" xmlns="http://www.w3.org/2000/svg">
<path fill-rule="evenodd" clip-rule="evenodd" d="M3.76514 38.5004L20.445 21.7725V38.5004H3.76514Z" fill="#6C7C83"/>
<path fill-rule="evenodd" clip-rule="evenodd" d="M3.7651 38.5H20.4449V55.2431H20.4298L3.75 38.5151L3.7651 38.5Z" fill="#393F45"/>
<path fill-rule="evenodd" clip-rule="evenodd" d="M37.14 38.4848V38.4999H20.4451V21.772L20.4602 21.7568L37.14 38.4848Z" fill="#556068"/>
<path fill-rule="evenodd" clip-rule="evenodd" d="M37.14 38.5454L20.4904 55.2431H20.4451V38.5H37.14V38.5454Z" fill="#393F45"/>
<path fill-rule="evenodd" clip-rule="evenodd" d="M14.5664 32.7804L20.4558 37.6499L26.3233 32.7804L21.3855 38.5539L26.3233 44.3327L20.4449 39.4916L14.5664 44.6666L19.434 38.5539L14.5664 32.7804ZM15.7721 31.749L20.5027 35.1594L25.088 31.749L20.4526 35.9637L15.7721 31.749ZM16.8302 30.5699L20.5021 33.217L24.0612 30.5699L20.4632 33.8414L16.8302 30.5699ZM17.8883 29.5087L20.5015 31.3926L23.0344 29.5087L20.4738 31.8369L17.8883 29.5087ZM18.9464 28.5654L20.5009 29.6861L22.0076 28.5654L20.4845 29.9504L18.9464 28.5654ZM15.7721 45.4864L20.4526 41.2716L25.088 45.4864L20.5027 42.076L15.7721 45.4864ZM16.8302 46.6655L20.4632 43.394L24.0612 46.6655L20.5021 44.0183L16.8302 46.6655ZM17.8883 47.7267L20.4738 45.3985L23.0344 47.7267L20.5015 45.8428L17.8883 47.7267ZM18.9464 48.67L20.4845 47.285L22.0076 48.67L20.5009 47.5493L18.9464 48.67ZM27.0602 43.2906L22.8454 38.61L27.0602 33.9747L23.6498 38.5599L27.0602 43.2906ZM28.2393 42.2325L24.9678 38.5994L28.2393 35.0015L25.5921 38.5605L28.2393 42.2325ZM29.3005 41.1743L26.9723 38.5888L29.3005 36.0283L27.4166 38.5611L29.3005 41.1743ZM30.2438 40.1162L28.8588 38.5782L30.2438 37.055L29.1231 38.5617L30.2438 40.1162ZM13.7121 43.2906L17.1225 38.5599L13.7121 33.9747L17.9269 38.61L13.7121 43.2906ZM12.533 42.2325L15.1802 38.5605L12.533 35.0015L15.8045 38.5994L12.533 42.2325ZM11.4718 41.1743L13.3557 38.5611L11.4718 36.0283L13.8001 38.5888L11.4718 41.1743ZM10.5286 40.1162L11.6492 38.5617L10.5286 37.055L11.9135 38.5782L10.5286 40.1162Z" fill="white"/>
<path fill-rule="evenodd" clip-rule="evenodd" d="M61.426 30.1229C61.475 30.1078 61.4897 30.1015 61.5049 30.0988C62.4177 29.9388 63.092 30.1987 63.6258 31.0312C64.1681 31.8769 64.8706 32.6193 65.5472 33.462C66.0032 32.897 66.4373 32.3589 66.8718 31.821C67.0972 31.542 67.3705 31.2895 67.5401 30.9799C68.0131 30.1163 68.7333 29.9243 69.6601 30.1433V38.9759H68.0652V32.9191L67.9622 32.8861C67.3179 33.6966 66.6722 34.506 66.0298 35.3181C65.6236 35.8316 65.4714 35.8319 65.0695 35.3224C64.4248 34.505 63.776 33.6907 63.0323 32.7536V38.9785H61.426V30.1229ZM79.7966 30.1129H81.4121V38.9706H79.8156V35.3389H75.4904V38.9647H73.8757V30.113H75.4358V33.7523H79.7966V30.1129ZM54.101 38.9545C54.0254 38.9859 54.0106 38.997 53.9953 38.9977C52.4966 39.0694 52.42 39.0978 51.9029 37.6938C51.5453 36.723 51.033 36.3381 50.0177 36.4974C49.4776 36.5823 48.9123 36.5298 48.36 36.5039C48.0636 36.4901 47.9253 36.6019 47.8207 36.868C47.5763 37.4893 47.3137 38.1042 47.0305 38.7084C46.9707 38.8361 46.797 38.9812 46.666 38.9914C46.2154 39.0263 45.7605 39.0049 45.2386 39.0049C45.4856 38.4187 45.7094 37.8829 45.937 37.3487C46.9137 35.0554 47.8977 32.7653 48.8619 30.4668C48.9938 30.1523 49.1457 29.9947 49.5024 30.0268C49.8497 30.0581 50.1672 29.9751 50.3678 30.4393C51.5439 33.162 52.7606 35.8672 53.9621 38.579C54.0136 38.6951 54.0508 38.8177 54.101 38.9545ZM50.6387 34.9719C50.2858 34.1756 49.9641 33.4501 49.6026 32.6346C49.2655 33.4566 48.9629 34.1945 48.6441 34.9719H50.6387ZM41.7341 35.3687V38.9666H40.1399V30.1484C41.3257 30.1484 42.5008 30.0505 43.6527 30.1729C45.1264 30.3295 45.9039 31.3898 45.8537 32.9018C45.8119 34.1573 44.8575 35.1291 43.4943 35.2714C42.9315 35.3302 42.3631 35.3357 41.7341 35.3687ZM41.756 33.8518C42.3684 33.8042 42.9548 33.8134 43.5158 33.6983C44.0056 33.5978 44.2251 33.1521 44.1914 32.5927C44.1627 32.1151 43.9215 31.7561 43.4594 31.6759C42.9097 31.5805 42.3424 31.5872 41.756 31.5479V33.8518ZM104.886 32.5456C104.467 32.2502 104.132 31.9688 103.756 31.7591C103.26 31.4819 102.715 31.3812 102.157 31.5715C101.554 31.7768 101.371 32.3786 101.801 32.8492C102.036 33.1077 102.359 33.2887 102.65 33.4932C103.261 33.9216 103.932 34.282 104.478 34.7806C105.278 35.5102 105.458 36.6931 105.009 37.6684C104.55 38.6641 103.725 39.0964 102.657 39.1087C101.82 39.1183 101.048 38.8994 100.361 38.4179C100.243 38.3352 100.101 38.1849 100.095 38.0604C100.068 37.4299 100.083 36.7977 100.083 36.0686C100.384 36.3942 100.605 36.6666 100.86 36.9018C101.466 37.4608 102.162 37.7742 103 37.5331C103.694 37.3331 103.92 36.679 103.457 36.1232C103.192 35.8053 102.828 35.5632 102.488 35.3169C101.961 34.936 101.387 34.6171 100.886 34.2062C100.106 33.5667 99.868 32.7104 100.13 31.7408C100.386 30.7944 101.055 30.284 101.987 30.076C102.903 29.8714 103.771 29.9971 104.567 30.4871C104.722 30.5823 104.855 30.8258 104.871 31.0121C104.914 31.4975 104.886 31.9891 104.886 32.5456ZM95.4534 37.5076H99.2649V38.9712H93.8708V30.127H95.4534V37.5076ZM87.2826 38.9886V30.1181H88.8419V37.4896H92.6656V38.9886H87.2826ZM56.4024 37.5186H60.2406V38.9871H54.8642V30.1189H56.4024V37.5186ZM83.4574 38.9653V30.1089H85.0236V38.9653H83.4574Z" fill="#B1C2C9"/>
<path fill-rule="evenodd" clip-rule="evenodd" d="M81.6541 44.1337C81.4241 44.4207 81.1928 44.7068 80.9643 44.9951C80.5734 45.4883 80.561 45.4892 80.1547 44.9833C79.9321 44.7061 79.7123 44.4267 79.3875 44.168V46.8237C78.7394 47.0364 78.6582 46.9846 78.6558 46.3987C78.6519 45.4025 78.6532 44.4064 78.6569 43.4103C78.6575 43.2358 78.6808 43.0614 78.6922 42.9078C79.1187 42.7505 79.3738 42.8952 79.6013 43.2131C79.8919 43.6189 80.225 43.9943 80.5695 44.4195C80.9205 43.9864 81.2298 43.6102 81.5329 43.229C81.85 42.8302 81.8474 42.8281 82.434 42.877C82.434 44.2001 82.434 45.5275 82.4346 46.855C81.8502 47.0263 81.7853 46.9827 81.7822 46.3891C81.7783 45.6478 81.7813 44.9065 81.7813 44.1652C81.7389 44.1547 81.6965 44.1442 81.6541 44.1337ZM66.6727 44.9219C66.6636 43.6904 67.5862 42.7917 68.8556 42.7958C70.1231 42.7999 71.0339 43.6632 71.0411 44.8675C71.0485 46.0956 70.1486 46.9802 68.8604 47.0112C67.6598 47.0401 66.6815 46.1057 66.6727 44.9219ZM70.3115 44.8866C70.3084 44.0456 69.7093 43.4542 68.8586 43.4523C68.0139 43.4504 67.3898 44.0548 67.3859 44.8785C67.3819 45.723 68.0332 46.3644 68.876 46.3457C69.7256 46.327 70.3145 45.7283 70.3115 44.8866ZM91.2188 44.0478C91.2188 44.7677 91.2188 45.3468 91.2188 45.9258C91.2188 46.089 91.2039 46.2538 91.2215 46.4151C91.2754 46.9071 91.0421 47.0246 90.5714 46.8926V42.8913C90.9363 42.7638 91.1683 42.89 91.3941 43.1604C92.0001 43.8858 92.6355 44.5861 93.2537 45.3013C93.3577 45.4214 93.4338 45.5659 93.5228 45.6991C93.5829 45.6697 93.643 45.6403 93.7031 45.611C93.7031 45.3589 93.7025 45.1068 93.7032 44.8548C93.7049 44.2835 93.6906 43.7112 93.7245 43.1419C93.7307 43.0367 93.923 42.8865 94.048 42.8648C94.1273 42.851 94.3247 43.0352 94.3264 43.1332C94.3475 44.2916 94.3458 45.4506 94.3354 46.6094C94.3345 46.7155 94.2161 46.9164 94.1806 46.9103C93.9735 46.874 93.7113 46.8482 93.5841 46.7108C92.9205 45.9935 92.2925 45.2432 91.6505 44.5058C91.5478 44.388 91.4363 44.278 91.2188 44.0478ZM40.1623 44.8546C40.1623 44.3169 40.1699 43.779 40.1593 43.2415C40.1537 42.9601 40.238 42.8185 40.5493 42.8403C41.1784 42.8847 41.8248 42.8296 42.4357 42.955C43.4551 43.1644 44.002 44.0381 43.9023 45.1145C43.8136 46.0735 43.0515 46.8461 42.0891 46.9141C41.5714 46.9506 41.0496 46.9258 40.5302 46.9438C40.2529 46.9535 40.1542 46.8296 40.1576 46.5657C40.1648 45.9954 40.1598 45.425 40.1598 44.8546H40.1623ZM40.8739 46.2653C41.6955 46.2816 42.504 46.4456 43.0111 45.6137C43.3198 45.1072 43.2876 44.4462 42.9103 44.0104C42.3556 43.3694 41.6204 43.4719 40.8739 43.5164V46.2653ZM59.2212 44.5628C59.2074 44.8079 59.1985 44.965 59.1866 45.1776C58.7578 45.1776 58.3548 45.1865 57.9522 45.1753C57.4509 45.1615 57.6017 45.5327 57.5814 45.7953C57.56 46.0715 57.5687 46.3169 57.9735 46.2884C58.3922 46.2588 58.8147 46.2818 59.2769 46.2818V46.9319C58.5598 46.9319 57.8342 46.9394 57.1093 46.9201C57.0369 46.9182 56.9089 46.7537 56.9079 46.6636C56.8946 45.4129 56.8989 44.1621 56.8989 42.8778H59.2151V43.4808H57.6967C57.6435 43.5579 57.6126 43.5827 57.609 43.6109C57.4862 44.5591 57.4904 44.5635 58.4436 44.5628C58.6836 44.5627 58.9235 44.5628 59.2212 44.5628ZM85.2089 42.8697H87.528V43.4748H85.9692C85.9388 43.5905 85.906 43.6643 85.9017 43.7399C85.8552 44.5619 85.8563 44.5621 86.6912 44.5626C86.9622 44.5628 87.2331 44.5627 87.5243 44.5627V45.1771C87.1412 45.1771 86.7704 45.2012 86.4041 45.1708C85.9875 45.1362 85.8451 45.3084 85.8921 45.7045C85.9111 45.8637 85.8952 46.027 85.8952 46.2593H87.6201V46.9291C86.8862 46.9291 86.1462 46.9353 85.4068 46.9187C85.3392 46.9173 85.218 46.7715 85.2173 46.6919C85.2053 45.4261 85.2089 44.1602 85.2089 42.8697ZM47.3262 43.4866V44.5492H48.9202V45.1771C48.5512 45.1771 48.1954 45.2023 47.8447 45.1706C47.4166 45.1319 47.2387 45.2857 47.2975 45.7196C47.3188 45.8772 47.3009 46.04 47.3009 46.2671H49.0318V46.9325C48.3062 46.9325 47.5813 46.9402 46.857 46.9212C46.7828 46.9192 46.6508 46.7587 46.6498 46.6706C46.6361 45.419 46.6405 44.1673 46.6405 42.8799H48.9405V43.4866H47.3262ZM73.6056 42.8588C74.1499 42.8588 74.6686 42.8215 75.1797 42.8685C75.7891 42.9243 76.2042 43.4305 76.213 44.0319C76.2212 44.5915 75.8554 45.0415 75.2661 45.1624C74.9661 45.2239 74.6579 45.2456 74.291 45.2935V46.8409C73.6382 47.0191 73.5777 46.9786 73.5758 46.3905C73.5722 45.3653 73.5728 44.3401 73.5747 43.3149C73.575 43.1729 73.5934 43.031 73.6056 42.8588ZM74.2223 43.5192C74.2835 43.8917 74.2446 44.3008 74.4293 44.5234C74.5311 44.6461 75.0336 44.5088 75.304 44.3801C75.4135 44.328 75.4821 43.9357 75.4033 43.7863C75.1626 43.3301 74.7176 43.5085 74.2223 43.5192ZM105.087 43.8204C104.71 43.6701 104.434 43.4962 104.144 43.4669C103.947 43.4469 103.729 43.6296 103.521 43.7218C103.614 43.9107 103.666 44.1442 103.81 44.2779C104.021 44.4735 104.306 44.5863 104.545 44.754C105.208 45.2183 105.381 46.028 104.946 46.5765C104.537 47.0927 103.498 47.1907 103.004 46.6843C102.824 46.5004 102.851 46.1132 102.76 45.716C103.118 45.9581 103.338 46.1514 103.593 46.2683C103.906 46.4118 104.266 46.4223 104.455 46.0782C104.636 45.7494 104.37 45.5312 104.129 45.3549C103.853 45.1536 103.549 44.9898 103.284 44.7764C102.741 44.3389 102.667 43.6608 103.086 43.1901C103.483 42.745 104.558 42.632 104.916 43.0502C105.058 43.2155 105.029 43.5274 105.087 43.8204ZM52.7987 46.9595C52.2237 45.6184 51.6486 44.2773 51.0715 42.9312C51.7056 42.7611 51.7206 42.7688 51.9572 43.3194C52.2502 44.0017 52.5445 44.6834 52.8975 45.503C53.2473 44.6887 53.5698 44.0217 53.8188 43.3282C53.98 42.879 54.232 42.7539 54.7265 42.8984C54.152 44.2633 53.5804 45.6216 53.0087 46.9798C52.9386 46.973 52.8687 46.9663 52.7987 46.9595ZM100.524 42.8763V43.4826H99.1904V46.891H98.4516V43.5018H97.1143V42.8763H100.524ZM62.6738 46.2753H64.454V46.9023H62.0242V42.8721H62.6738V46.2753Z" fill="#8FA3AD"/>
</svg>
