<svg width="181" height="77" viewBox="0 0 181 77" fill="none" xmlns="http://www.w3.org/2000/svg">
<path fill-rule="evenodd" clip-rule="evenodd" d="M14.6422 38.5L35.3176 17.7649V38.5H14.6422Z" fill="#6C7C83"/>
<path fill-rule="evenodd" clip-rule="evenodd" d="M14.6423 38.5H35.3177V59.2538H35.299L14.6235 38.5188L14.6423 38.5Z" fill="#393F45"/>
<path fill-rule="evenodd" clip-rule="evenodd" d="M56.0118 38.4812V38.4999H35.3176V17.7649L35.3363 17.7461L56.0118 38.4812Z" fill="#556068"/>
<path fill-rule="evenodd" clip-rule="evenodd" d="M56.0118 38.5563L35.3738 59.2538H35.3176V38.5H56.0118V38.5563Z" fill="#393F45"/>
<path fill-rule="evenodd" clip-rule="evenodd" d="M28.031 31.4104L35.3312 37.4464L42.6043 31.4104L36.4836 38.567L42.6043 45.73L35.3176 39.7293L28.031 46.1439L34.0646 38.567L28.031 31.4104ZM29.5254 30.1319L35.3893 34.3593L41.0729 30.1319L35.3272 35.3563L29.5254 30.1319ZM30.837 28.6704L35.3886 31.9517L39.8002 28.6704L35.3404 32.7256L30.837 28.6704ZM32.1486 27.355L35.3878 29.6902L38.5274 27.355L35.3535 30.241L32.1486 27.355ZM33.4602 26.1858L35.3871 27.5749L37.2547 26.1858L35.3667 27.9025L33.4602 26.1858ZM29.5254 47.1602L35.3272 41.9357L41.0729 47.1602L35.3893 42.9328L29.5254 47.1602ZM30.837 48.6217L35.3404 44.5665L39.8002 48.6217L35.3886 45.3404L30.837 48.6217ZM32.1486 49.9371L35.3535 47.0511L38.5274 49.9371L35.3878 47.6019L32.1486 49.9371ZM33.4602 51.1063L35.3667 49.3896L37.2547 51.1063L35.3871 49.7172L33.4602 51.1063ZM43.5176 44.4383L38.2932 38.6365L43.5176 32.8908L39.2903 38.5744L43.5176 44.4383ZM44.9792 43.1267L40.924 38.6234L44.9792 34.1636L41.6979 38.5752L44.9792 43.1267ZM46.2946 41.8151L43.4086 38.6102L46.2946 35.4363L43.9594 38.5759L46.2946 41.8151ZM47.4638 40.5035L45.7471 38.5971L47.4638 36.7091L46.0747 38.5767L47.4638 40.5035ZM26.972 44.4383L31.1994 38.5744L26.972 32.8908L32.1964 38.6365L26.972 44.4383ZM25.5105 43.1267L28.7918 38.5752L25.5105 34.1636L29.5657 38.6234L25.5105 43.1267ZM24.1951 41.8151L26.5303 38.5759L24.1951 35.4363L27.081 38.6102L24.1951 41.8151ZM23.0259 40.5035L24.415 38.5767L23.0259 36.7091L24.7426 38.5971L23.0259 40.5035Z" fill="white"/>
<path fill-rule="evenodd" clip-rule="evenodd" d="M100.761 26.0054C100.834 25.9829 100.856 25.9735 100.879 25.9694C102.24 25.7308 103.246 26.1185 104.042 27.3602C104.851 28.6216 105.899 29.729 106.908 30.9859C107.588 30.1432 108.236 29.3405 108.884 28.5382C109.22 28.1221 109.628 27.7455 109.881 27.2837C110.586 25.9956 111.66 25.7091 113.043 26.0358V39.2101H110.664V30.176L110.51 30.1268C109.549 31.3358 108.586 32.543 107.628 33.7543C107.022 34.5202 106.795 34.5206 106.196 33.7608C105.234 32.5415 104.266 31.327 103.157 29.9292V39.2139H100.761V26.0054ZM128.162 25.9905H130.571V39.2022H128.19V33.7853H121.739V39.1933H119.33V25.9907H121.657V31.4188H128.162V25.9905ZM89.8355 39.1782C89.7227 39.2251 89.7007 39.2416 89.6778 39.2426C87.4424 39.3496 87.3282 39.3918 86.5569 37.2977C86.0236 35.8498 85.2595 35.2757 83.745 35.5134C82.9394 35.6399 82.0963 35.5616 81.2725 35.523C80.8303 35.5024 80.6241 35.6692 80.4681 36.0661C80.1036 36.9927 79.7118 37.9098 79.2895 38.8112C79.2003 39.0016 78.9412 39.2181 78.7458 39.2333C78.0738 39.2853 77.3953 39.2533 76.6168 39.2533C76.9852 38.379 77.319 37.5798 77.6585 36.783C79.1154 33.3625 80.583 29.9466 82.0211 26.5183C82.2179 26.0493 82.4445 25.8141 82.9764 25.8621C83.4945 25.9087 83.968 25.7849 84.2672 26.4774C86.0215 30.5384 87.8362 34.5733 89.6283 38.6181C89.7051 38.7913 89.7606 38.9741 89.8355 39.1782ZM84.6713 33.2379C84.1449 32.0502 83.6652 30.9681 83.1259 29.7517C82.6232 30.9778 82.1718 32.0784 81.6963 33.2379H84.6713ZM71.3896 33.8298V39.1962H69.0118V26.0435C70.7805 26.0435 72.5332 25.8975 74.2514 26.08C76.4495 26.3136 77.6091 27.8951 77.5342 30.1503C77.472 32.0229 76.0484 33.4723 74.0152 33.6847C73.1756 33.7724 72.3279 33.7806 71.3896 33.8298ZM71.4223 31.5672C72.3357 31.4962 73.2104 31.5099 74.0472 31.3383C74.7778 31.1884 75.1051 30.5237 75.0548 29.6893C75.012 28.9769 74.6523 28.4414 73.963 28.3217C73.1431 28.1795 72.297 28.1895 71.4223 28.1309V31.5672ZM165.583 29.619C164.959 29.1783 164.459 28.7587 163.899 28.4459C163.158 28.0325 162.346 27.8822 161.513 28.1661C160.613 28.4723 160.341 29.3699 160.982 30.0718C161.333 30.4573 161.814 30.7274 162.249 31.0324C163.16 31.6714 164.161 32.209 164.976 32.9526C166.168 34.0409 166.438 35.8052 165.767 37.2599C165.082 38.745 163.853 39.3898 162.259 39.4082C161.01 39.4225 159.859 39.096 158.835 38.3778C158.659 38.2545 158.446 38.0303 158.438 37.8445C158.398 36.9042 158.42 35.9612 158.42 34.8736C158.869 35.3593 159.198 35.7656 159.579 36.1164C160.483 36.9502 161.521 37.4178 162.77 37.0581C163.806 36.7598 164.143 35.7842 163.452 34.9552C163.057 34.4809 162.515 34.1199 162.007 33.7525C161.221 33.1844 160.364 32.7087 159.617 32.0958C158.455 31.142 158.099 29.8648 158.49 28.4186C158.871 27.0071 159.87 26.2457 161.259 25.9355C162.626 25.6303 163.921 25.8178 165.108 26.5486C165.339 26.6906 165.538 27.0538 165.562 27.3317C165.625 28.0557 165.583 28.789 165.583 29.619ZM151.514 37.02H157.2V39.2031H149.154V26.0116H151.514V37.02ZM139.327 39.229V25.9983H141.653V36.9933H147.356V39.229H139.327ZM93.2681 37.0365H98.993V39.2267H90.9738V25.9995H93.2681V37.0365ZM133.622 39.1943V25.9845H135.958V39.1943H133.622Z" fill="#B1C2C9"/>
<path fill-rule="evenodd" clip-rule="evenodd" d="M130.932 46.9032C130.589 47.3313 130.244 47.7581 129.903 48.1881C129.32 48.9237 129.302 48.9251 128.696 48.1705C128.364 47.7571 128.036 47.3402 127.551 46.9544V50.9156C126.585 51.2328 126.464 51.1556 126.46 50.2816C126.454 48.7958 126.456 47.31 126.462 45.8243C126.463 45.564 126.497 45.3039 126.514 45.0749C127.15 44.8401 127.531 45.056 127.87 45.5301C128.304 46.1355 128.801 46.6954 129.314 47.3296C129.838 46.6836 130.299 46.1225 130.751 45.554C131.224 44.9591 131.22 44.9559 132.095 45.0288C132.095 47.0023 132.095 48.9821 132.096 50.9622C131.225 51.2177 131.128 51.1527 131.123 50.2673C131.117 49.1616 131.122 48.056 131.122 46.9503C131.059 46.9347 130.995 46.9189 130.932 46.9032ZM108.587 48.0789C108.573 46.242 109.949 44.9017 111.843 44.9078C113.733 44.9138 115.092 46.2016 115.102 47.9978C115.113 49.8295 113.771 51.149 111.85 51.1952C110.059 51.2383 108.6 49.8446 108.587 48.0789ZM114.014 48.0263C114.01 46.7719 113.116 45.8898 111.847 45.8869C110.587 45.8841 109.656 46.7856 109.65 48.0142C109.645 49.2739 110.616 50.2304 111.873 50.2027C113.14 50.1748 114.019 49.2818 114.014 48.0263ZM145.198 46.7752C145.198 47.849 145.198 48.7126 145.198 49.5763C145.198 49.8197 145.176 50.0656 145.202 50.3061C145.283 51.04 144.935 51.2152 144.233 51.0184V45.0502C144.777 44.86 145.123 45.0483 145.46 45.4515C146.364 46.5335 147.311 47.578 148.233 48.6448C148.389 48.824 148.502 49.0394 148.635 49.2382C148.724 49.1944 148.814 49.1505 148.904 49.1068C148.904 48.7308 148.903 48.3547 148.904 47.9788C148.906 47.1267 148.885 46.2732 148.936 45.424C148.945 45.2671 149.232 45.043 149.418 45.0107C149.536 44.9901 149.831 45.2649 149.834 45.411C149.865 47.1388 149.862 48.8676 149.847 50.596C149.845 50.7541 149.669 51.0539 149.616 51.0447C149.307 50.9906 148.916 50.9521 148.726 50.7471C147.736 49.6772 146.8 48.5581 145.842 47.4583C145.689 47.2827 145.523 47.1185 145.198 46.7752ZM69.0452 47.9786C69.0452 47.1765 69.0564 46.3743 69.0407 45.5725C69.0324 45.1529 69.158 44.9415 69.6223 44.9741C70.5607 45.0403 71.5249 44.9582 72.436 45.1453C73.9566 45.4576 74.7723 46.7607 74.6236 48.3662C74.4913 49.7966 73.3546 50.9489 71.9191 51.0503C71.1468 51.1048 70.3686 51.0679 69.5939 51.0948C69.1803 51.1091 69.0331 50.9243 69.0381 50.5308C69.0489 49.6801 69.0414 48.8294 69.0414 47.9786H69.0452ZM70.1066 50.0827C71.3321 50.1071 72.5379 50.3516 73.2942 49.1107C73.7547 48.3553 73.7067 47.3694 73.144 46.7194C72.3167 45.7634 71.22 45.9162 70.1066 45.9826V50.0827ZM97.4724 47.5433C97.4518 47.9088 97.4385 48.1433 97.4208 48.4603C96.7813 48.4603 96.1801 48.4736 95.5796 48.4569C94.832 48.4363 95.0568 48.9899 95.0265 49.3816C94.9946 49.7936 95.0076 50.1596 95.6113 50.1171C96.236 50.0729 96.8661 50.1073 97.5554 50.1073V51.0769C96.4859 51.0769 95.4037 51.0881 94.3225 51.0593C94.2145 51.0566 94.0234 50.8112 94.022 50.6767C94.0022 48.8113 94.0086 46.9457 94.0086 45.0301H97.4633V45.9295H95.1985C95.1192 46.0445 95.0731 46.0815 95.0678 46.1236C94.8846 47.5378 94.8908 47.5443 96.3126 47.5433C96.6705 47.5432 97.0283 47.5433 97.4724 47.5433ZM136.234 45.0179H139.693V45.9206H137.368C137.323 46.093 137.274 46.2032 137.268 46.3159C137.198 47.542 137.2 47.5423 138.445 47.543C138.849 47.5433 139.253 47.5432 139.688 47.5432V48.4596C139.116 48.4596 138.563 48.4955 138.017 48.4502C137.396 48.3986 137.183 48.6554 137.253 49.2462C137.282 49.4837 137.258 49.7273 137.258 50.0737H139.831V51.0728C138.736 51.0728 137.632 51.082 136.529 51.0573C136.429 51.0551 136.248 50.8378 136.247 50.7189C136.229 48.8309 136.234 46.9428 136.234 45.0179ZM79.7304 45.9381V47.523H82.1079V48.4595C81.5577 48.4595 81.0269 48.4972 80.5039 48.4499C79.8652 48.3921 79.6 48.6216 79.6876 49.2688C79.7194 49.5038 79.6927 49.7467 79.6927 50.0853H82.2744V51.0779C81.1922 51.0779 80.111 51.0893 79.0306 51.0609C78.9199 51.058 78.723 50.8186 78.7215 50.6872C78.7011 48.8204 78.7077 46.9534 78.7077 45.0332H82.1383V45.9381H79.7304ZM118.927 45.0017C119.739 45.0017 120.513 44.9461 121.275 45.0162C122.184 45.0995 122.803 45.8545 122.816 46.7514C122.829 47.5861 122.283 48.2573 121.404 48.4376C120.957 48.5294 120.497 48.5617 119.95 48.6332V50.9412C118.976 51.2069 118.886 51.1466 118.883 50.2694C118.878 48.7403 118.878 47.2111 118.881 45.682C118.882 45.4703 118.909 45.2586 118.927 45.0017ZM119.847 45.9868C119.938 46.5423 119.88 47.1525 120.156 47.4845C120.308 47.6675 121.057 47.4628 121.461 47.2709C121.624 47.1931 121.726 46.6079 121.609 46.3852C121.25 45.7047 120.586 45.9708 119.847 45.9868ZM165.883 46.436C165.321 46.2118 164.91 45.9524 164.477 45.9087C164.183 45.8789 163.858 46.1514 163.547 46.289C163.687 46.5706 163.764 46.9189 163.979 47.1184C164.293 47.4101 164.718 47.5783 165.075 47.8286C166.063 48.521 166.322 49.7287 165.673 50.5469C165.063 51.3168 163.514 51.463 162.776 50.7076C162.508 50.4333 162.548 49.8559 162.412 49.2634C162.946 49.6245 163.275 49.9129 163.656 50.0872C164.123 50.3012 164.659 50.3168 164.941 49.8035C165.21 49.3132 164.815 48.9877 164.454 48.7248C164.043 48.4246 163.59 48.1802 163.195 47.8619C162.385 47.2093 162.273 46.1979 162.899 45.4959C163.491 44.832 165.095 44.6635 165.629 45.2872C165.84 45.5338 165.796 45.999 165.883 46.436ZM87.893 51.1181C87.0353 49.1179 86.1775 47.1175 85.3167 45.1097C86.2625 44.856 86.2849 44.8674 86.6378 45.6888C87.0748 46.7065 87.5138 47.7233 88.0403 48.9457C88.562 47.7312 89.0431 46.7363 89.4144 45.7018C89.6549 45.0318 90.0307 44.8452 90.7683 45.0608C89.9115 47.0966 89.0588 49.1225 88.2061 51.1484C88.1017 51.1383 87.9973 51.1282 87.893 51.1181ZM159.077 45.0278V45.9322H157.088V51.016H155.986V45.9608H153.992V45.0278H159.077ZM102.622 50.0975H105.277V51.0328H101.653V45.0216H102.622V50.0975Z" fill="#8FA3AD"/>
</svg>
