<svg width="109" height="77" viewBox="0 0 109 77" fill="none" xmlns="http://www.w3.org/2000/svg">
<path fill-rule="evenodd" clip-rule="evenodd" d="M22.121 35.0574C22.1111 35.2593 22.0927 35.4611 22.0926 35.663C22.0907 38.5199 22.0795 41.3769 22.1028 44.2337C22.1069 44.7339 21.9511 44.8988 21.4608 44.8511C21.0876 44.8148 20.7073 44.8291 20.3315 44.8476C19.9988 44.864 19.8958 44.7233 19.8964 44.408C19.9038 40.4687 19.9063 36.5292 19.8977 32.5899C19.8969 32.225 20.048 32.1377 20.3817 32.1463C21.063 32.1635 21.7461 32.1745 22.4262 32.1409C22.8083 32.1221 23.0067 32.2791 23.1938 32.5816C24.8965 35.3359 26.6111 38.083 28.3246 40.8309C28.4703 41.0643 28.6329 41.2874 28.9114 41.4845C28.9229 41.303 28.9442 41.1213 28.9445 40.9396C28.9465 38.2069 28.9537 35.4742 28.9376 32.7416C28.935 32.3124 29.0478 32.115 29.5082 32.1546C29.8464 32.1837 30.1909 32.1802 30.5298 32.1552C30.9838 32.1219 31.1591 32.2714 31.1553 32.7535C31.1346 35.415 31.1457 38.0767 31.1468 40.7384C31.1473 41.9451 31.1396 43.1519 31.1578 44.3583C31.1634 44.7269 31.0393 44.8644 30.6617 44.8498C30.0527 44.8263 29.4408 44.8196 28.8326 44.8522C28.4335 44.8736 28.2233 44.7105 28.0261 44.3857C26.2254 41.4205 24.4093 38.4644 22.5956 35.5071C22.4914 35.3373 22.368 35.1793 22.2534 35.0158C22.2093 35.0297 22.1651 35.0435 22.121 35.0574ZM58.0597 39.3075C59.1566 41.1386 60.2221 42.9171 61.3305 44.7672C60.4226 44.7672 59.5939 44.7858 58.768 44.7478C58.6388 44.7418 58.494 44.493 58.4033 44.3308C57.6312 42.9489 56.8364 41.5776 56.1212 40.1671C55.8197 39.5723 55.4604 39.3464 54.7934 39.3978C53.972 39.4613 53.967 39.4149 53.9664 40.2166C53.9653 41.5831 53.9542 42.9498 53.9733 44.3162C53.9789 44.7136 53.8395 44.8621 53.444 44.8385C53.0686 44.8163 52.6893 44.8133 52.3143 44.8393C51.8875 44.8689 51.7634 44.7025 51.766 44.2851C51.7822 41.6585 51.7732 39.0318 51.7726 36.4052C51.7721 35.1807 51.7939 33.9554 51.7604 32.7318C51.7473 32.2481 51.9167 32.134 52.3778 32.1411C53.9742 32.166 55.5714 32.1464 57.1681 32.1511C59.0489 32.1568 60.5093 33.2997 60.9012 35.0631C61.26 36.6781 60.391 38.2435 58.7014 39.0234C58.5245 39.1051 58.3452 39.1813 58.0597 39.3075ZM53.9681 35.7907C53.9667 35.7907 53.9653 35.7907 53.9639 35.7907C53.9639 36.2698 53.9413 36.7506 53.9772 37.2271C53.9884 37.3748 54.1588 37.6335 54.256 37.6334C55.257 37.6324 56.2732 37.6838 57.2548 37.5303C58.2231 37.3789 58.7659 36.4917 58.6696 35.5584C58.5826 34.7147 57.8746 34.0399 56.9633 34.0028C56.1037 33.9679 55.2415 33.9985 54.3804 33.9906C54.0824 33.9878 53.9601 34.1164 53.9657 34.4065C53.9747 34.8678 53.9681 35.3293 53.9681 35.7907ZM37.2436 38.4984C37.2436 36.5638 37.2539 34.6291 37.2354 32.6947C37.2314 32.2798 37.3488 32.1395 37.7829 32.1427C40.241 32.1606 42.6992 32.1595 45.1574 32.1415C45.581 32.1385 45.7177 32.2676 45.7222 32.685C45.7372 34.1051 45.7508 34.1048 44.3265 34.1047C42.909 34.1045 41.4913 34.1183 40.0742 34.0964C39.6193 34.0894 39.4185 34.2139 39.4396 34.6948C39.4699 35.3856 39.4682 36.0799 39.4355 36.7706C39.4129 37.249 39.6062 37.3762 40.0651 37.3698C41.6437 37.3479 43.2231 37.3753 44.8018 37.353C45.2452 37.3468 45.3911 37.4809 45.3896 37.9246C45.3853 39.2102 45.4028 39.2091 44.0788 39.208C42.7152 39.2071 41.3514 39.2184 39.9879 39.2027C39.5985 39.1981 39.4357 39.3237 39.4429 39.7204C39.4586 40.5897 39.4599 41.46 39.4375 42.3292C39.4267 42.7486 39.5911 42.887 40.0062 42.8837C41.8004 42.8693 43.5949 42.8935 45.3888 42.8677C45.8835 42.8606 46.0356 43.0114 46.0293 43.4992C46.0123 44.8421 46.0324 44.8421 44.6729 44.8424C42.3941 44.8428 40.1153 44.8307 37.8367 44.8542C37.3579 44.8591 37.2261 44.7133 37.2319 44.249C37.2557 42.3323 37.2419 40.4153 37.2419 38.4984C37.2424 38.4984 37.2431 38.4984 37.2436 38.4984ZM84.6264 44.8346C85.2495 43.3829 85.7911 42.1135 86.3387 40.8467C87.5084 38.1414 88.6903 35.4413 89.8429 32.7288C90.0196 32.3128 90.2188 32.1274 90.7018 32.1391C92.0425 32.1716 92.0435 32.148 92.5734 33.3711C94.1335 36.9714 95.6936 40.572 97.2519 44.173C97.3211 44.3326 97.3754 44.4985 97.5 44.8303C96.7038 44.8303 95.9993 44.8552 95.2996 44.8085C95.1664 44.7996 95.0122 44.5247 94.9356 44.3443C93.7434 41.5329 92.563 38.7167 91.3775 35.9025C91.3044 35.7289 91.2128 35.5629 91.0738 35.2792C90.9042 35.6415 90.7778 35.8884 90.6708 36.1434C89.5225 38.8767 88.3707 41.6087 87.2386 44.3487C87.087 44.7155 86.8973 44.8713 86.4857 44.844C85.9196 44.8064 85.3491 44.8346 84.6264 44.8346ZM68.3524 39.4585C68.3522 37.8625 68.3387 36.2664 68.3608 34.6708C68.3671 34.2227 68.2051 34.0852 67.7691 34.0956C66.8196 34.1184 65.8689 34.0893 64.9192 34.1081C64.5427 34.1155 64.4103 33.9756 64.4167 33.6128C64.4478 31.8702 64.1915 32.1758 65.8416 32.1646C68.5125 32.1465 71.1837 32.1718 73.8545 32.1495C74.3657 32.1452 74.538 32.2806 74.525 32.8036C74.4926 34.1017 74.5174 34.1025 73.1799 34.1022C72.5526 34.1021 71.9252 34.0994 71.2977 34.1C70.5492 34.1005 70.5465 34.1014 70.5463 34.8243C70.5453 37.9097 70.5459 40.9952 70.5459 44.0806C70.5459 44.8406 70.546 44.8407 69.8009 44.8424C69.4782 44.843 69.1539 44.8235 68.8333 44.8489C68.4459 44.8795 68.3433 44.7135 68.3464 44.3526C68.3607 42.7213 68.3526 41.0899 68.3524 39.4585ZM11.5116 38.4992C11.5123 36.5852 11.5248 34.6711 11.5031 32.7574C11.498 32.3108 11.5942 32.0916 12.0922 32.1458C12.6006 32.2011 13.2757 32.0301 13.5762 32.2942C13.8354 32.5218 13.6886 33.2217 13.6896 33.713C13.6967 37.1687 13.6958 40.6244 13.697 44.0803C13.6973 44.8435 13.6965 44.8435 12.9001 44.8437C12.6493 44.8438 12.3947 44.8165 12.1484 44.8495C11.6082 44.9219 11.4934 44.6824 11.5003 44.1878C11.5264 42.2919 11.5108 40.3955 11.5116 38.4992ZM80.7901 38.4918C80.7901 40.4229 80.7784 42.3542 80.7989 44.2851C80.8037 44.7307 80.6578 44.8888 80.2137 44.8489C79.8584 44.817 79.4963 44.822 79.1401 44.8476C78.7505 44.8757 78.6531 44.7039 78.654 44.3484C78.6638 40.4507 78.6668 36.5529 78.6563 32.6552C78.6552 32.2553 78.7896 32.1148 79.1856 32.1445C79.5418 32.1712 79.9041 32.1763 80.2592 32.1437C80.7024 32.1032 80.8056 32.298 80.8025 32.6985C80.7878 34.6295 80.7959 36.5607 80.7959 38.4918H80.7901Z" fill="#B1C2C9"/>
</svg>
