<svg width="180" height="77" viewBox="0 0 180 77" fill="none" xmlns="http://www.w3.org/2000/svg">
<path fill-rule="evenodd" clip-rule="evenodd" d="M49.463 34.1768C49.4505 34.4304 49.4274 34.6838 49.4273 34.9374C49.425 38.5251 49.4109 42.1129 49.4401 45.7005C49.4453 46.3287 49.2496 46.5359 48.6339 46.4759C48.1653 46.4303 47.6876 46.4483 47.2158 46.4715C46.7979 46.4921 46.6686 46.3155 46.6693 45.9194C46.6786 40.9724 46.6817 36.0252 46.6709 31.0782C46.67 30.6198 46.8596 30.5103 47.2788 30.521C48.1343 30.5427 48.9922 30.5565 49.8463 30.5143C50.3261 30.4907 50.5753 30.6878 50.8103 31.0677C52.9485 34.5267 55.1017 37.9765 57.2536 41.4273C57.4366 41.7204 57.6407 42.0006 57.9905 42.2482C58.0049 42.0201 58.0317 41.792 58.032 41.5638C58.0346 38.132 58.0436 34.7003 58.0233 31.2686C58.0201 30.7296 58.1618 30.4817 58.7399 30.5314C59.1647 30.5681 59.5972 30.5637 60.0229 30.5322C60.593 30.4904 60.8131 30.6782 60.8084 31.2836C60.7824 34.6259 60.7963 37.9686 60.7977 41.3112C60.7984 42.8266 60.7886 44.342 60.8115 45.857C60.8185 46.32 60.6628 46.4927 60.1885 46.4743C59.4238 46.4448 58.6553 46.4364 57.8915 46.4773C57.3903 46.5042 57.1264 46.2994 56.8787 45.8915C54.6173 42.1678 52.3367 38.4554 50.0589 34.7416C49.9282 34.5284 49.7731 34.3299 49.6293 34.1246C49.5738 34.142 49.5184 34.1594 49.463 34.1768ZM94.5953 39.5142C95.9729 41.8138 97.311 44.0472 98.7029 46.3705C97.5627 46.3705 96.522 46.3939 95.4848 46.3462C95.3225 46.3387 95.1407 46.0262 95.0268 45.8225C94.0572 44.0871 93.0591 42.365 92.1609 40.5936C91.7822 39.8467 91.3311 39.563 90.4935 39.6276C89.4619 39.7073 89.4557 39.649 89.4549 40.6558C89.4535 42.372 89.4396 44.0883 89.4635 45.8042C89.4705 46.3033 89.2956 46.4897 88.7989 46.4601C88.3274 46.4322 87.8511 46.4285 87.3802 46.4611C86.8442 46.4983 86.6883 46.2894 86.6916 45.7651C86.712 42.4667 86.7006 39.168 86.6998 35.8694C86.6993 34.3317 86.7266 32.793 86.6846 31.2563C86.6681 30.6489 86.8809 30.5056 87.4599 30.5146C89.4647 30.5457 91.4705 30.5211 93.4757 30.5271C95.8375 30.5342 97.6715 31.9695 98.1637 34.184C98.6143 36.2122 97.5229 38.178 95.4012 39.1574C95.1791 39.26 94.9538 39.3557 94.5953 39.5142ZM89.457 35.0977C89.4553 35.0977 89.4535 35.0977 89.4518 35.0977C89.4518 35.6994 89.4234 36.3033 89.4685 36.9016C89.4826 37.0871 89.6965 37.412 89.8186 37.4118C91.0757 37.4106 92.3519 37.4751 93.5845 37.2824C94.8005 37.0922 95.4822 35.9781 95.3612 34.806C95.252 33.7465 94.3629 32.899 93.2185 32.8525C92.1389 32.8086 91.0562 32.8471 89.9749 32.8371C89.6006 32.8336 89.447 32.9952 89.4541 33.3595C89.4653 33.9387 89.457 34.5184 89.457 35.0977ZM68.4542 38.4982C68.4542 36.0686 68.4672 33.639 68.4439 31.2097C68.4389 30.6887 68.5863 30.5125 69.1314 30.5166C72.2183 30.539 75.3054 30.5377 78.3924 30.5151C78.9244 30.5112 79.0961 30.6734 79.1017 31.1976C79.1206 32.981 79.1376 32.9806 77.349 32.9805C75.5688 32.9802 73.7885 32.9976 72.0089 32.97C71.4376 32.9612 71.1854 33.1175 71.2119 33.7215C71.25 34.5891 71.2479 35.4609 71.2068 36.3284C71.1784 36.9291 71.4212 37.0888 71.9974 37.0808C73.9799 37.0532 75.9633 37.0877 77.9458 37.0597C78.5027 37.0519 78.6859 37.2203 78.684 37.7776C78.6786 39.392 78.7006 39.3906 77.0379 39.3893C75.3254 39.3881 73.6128 39.4023 71.9005 39.3826C71.4115 39.3768 71.207 39.5345 71.2161 40.0327C71.2358 41.1244 71.2375 42.2174 71.2093 43.3089C71.1957 43.8356 71.4021 44.0093 71.9235 44.0052C74.1766 43.9871 76.4302 44.0175 78.6831 43.9851C79.3043 43.9762 79.4952 44.1655 79.4874 44.7782C79.466 46.4647 79.4913 46.4647 77.784 46.4649C74.9223 46.4655 72.0604 46.4504 69.199 46.4798C68.5978 46.4859 68.4321 46.3028 68.4394 45.7197C68.4693 43.3128 68.452 40.9054 68.452 38.4982C68.4527 38.4982 68.4535 38.4982 68.4542 38.4982ZM127.958 46.4552C128.741 44.6322 129.421 43.038 130.109 41.4472C131.577 38.0498 133.062 34.6589 134.509 31.2526C134.731 30.7302 134.981 30.4973 135.588 30.512C137.271 30.5528 137.273 30.5231 137.938 32.0591C139.897 36.5805 141.856 41.1021 143.813 45.6244C143.9 45.8247 143.969 46.0331 144.125 46.4499C143.125 46.4499 142.24 46.481 141.362 46.4224C141.194 46.4112 141.001 46.066 140.905 45.8395C139.407 42.3089 137.925 38.7722 136.436 35.2381C136.344 35.0201 136.229 34.8116 136.055 34.4554C135.842 34.9103 135.683 35.2205 135.549 35.5407C134.107 38.9732 132.66 42.4041 131.239 45.8449C131.048 46.3057 130.81 46.5013 130.293 46.467C129.582 46.4198 128.866 46.4552 127.958 46.4552ZM107.521 39.7038C107.521 37.6995 107.504 35.6952 107.532 33.6913C107.539 33.1286 107.336 32.9559 106.789 32.969C105.596 32.9976 104.402 32.9611 103.21 32.9847C102.737 32.994 102.57 32.8183 102.579 32.3628C102.618 30.1744 102.296 30.5581 104.368 30.544C107.722 30.5213 111.077 30.5531 114.431 30.5251C115.073 30.5197 115.289 30.6897 115.273 31.3465C115.232 32.9766 115.263 32.9777 113.584 32.9773C112.796 32.9772 112.008 32.9738 111.22 32.9745C110.28 32.9752 110.276 32.9762 110.276 33.8841C110.275 37.7588 110.276 41.6336 110.276 45.5084C110.276 46.4627 110.276 46.4629 109.34 46.465C108.935 46.4658 108.528 46.4412 108.125 46.4732C107.638 46.5115 107.51 46.3032 107.513 45.8499C107.531 43.8013 107.521 41.7525 107.521 39.7038ZM36.1396 38.4991C36.1405 36.0955 36.1562 33.6917 36.1289 31.2885C36.1225 30.7276 36.2433 30.4524 36.8687 30.5204C37.5071 30.5898 38.355 30.3752 38.7323 30.7067C39.0578 30.9927 38.8735 31.8716 38.8747 32.4886C38.8836 36.8283 38.8826 41.168 38.884 45.5079C38.8844 46.4664 38.8834 46.4664 37.8833 46.4667C37.5682 46.4668 37.2486 46.4324 36.9393 46.4739C36.2608 46.5648 36.1167 46.2641 36.1254 45.643C36.1582 43.262 36.1386 40.8805 36.1396 38.4991ZM123.14 38.4898C123.14 40.9149 123.126 43.3403 123.152 45.7651C123.158 46.3247 122.974 46.5233 122.417 46.4732C121.97 46.433 121.516 46.4393 121.068 46.4716C120.579 46.5069 120.457 46.291 120.458 45.8446C120.47 40.9498 120.474 36.0549 120.461 31.1602C120.459 30.658 120.628 30.4814 121.126 30.5188C121.573 30.5523 122.028 30.5588 122.474 30.5178C123.03 30.4669 123.16 30.7116 123.156 31.2145C123.138 33.6395 123.148 36.0647 123.148 38.4898H123.14Z" fill="#B1C2C9"/>
</svg>
