<svg width="1077" height="858" viewBox="0 0 1077 858" fill="none" xmlns="http://www.w3.org/2000/svg">
<g opacity="0.8">
<path opacity="0.15" d="M538.5 1019C835.353 1019 1076 778.353 1076 481.5C1076 184.647 835.353 -56 538.5 -56C241.647 -56 1 184.647 1 481.5C1 778.353 241.647 1019 538.5 1019Z" fill="#6F0FE8" fill-opacity="0.1" stroke="#6F0FE8" stroke-width="2"/>
<path opacity="0.15" d="M540.141 938.439C793.404 938.439 998.715 733.128 998.715 479.865C998.715 226.602 793.404 21.2917 540.141 21.2917C286.878 21.2917 81.5677 226.602 81.5677 479.865C81.5677 733.128 286.878 938.439 540.141 938.439Z" fill="#6F0FE8" fill-opacity="0.1" stroke="#6F0FE8" stroke-width="2"/>
<path opacity="0.2" d="M540.136 857.86C748.9 857.86 918.136 688.624 918.136 479.86C918.136 271.096 748.9 101.86 540.136 101.86C331.373 101.86 162.136 271.096 162.136 479.86C162.136 688.624 331.373 857.86 540.136 857.86Z" fill="#6F0FE8" fill-opacity="0.1" stroke="#6F0FE8" stroke-width="2"/>
<path opacity="0.25" d="M540.138 777.296C704.406 777.296 837.572 644.13 837.572 479.862C837.572 315.594 704.406 182.428 540.138 182.428C375.87 182.428 242.704 315.594 242.704 479.862C242.704 644.13 375.87 777.296 540.138 777.296Z" fill="#6F0FE8" fill-opacity="0.1" stroke="#6F0FE8" stroke-width="2"/>
<path opacity="0.3" d="M538.496 699.996C659.17 699.996 756.996 602.171 756.996 481.496C756.996 360.822 659.17 262.996 538.496 262.996C417.822 262.996 319.996 360.822 319.996 481.496C319.996 602.171 417.822 699.996 538.496 699.996Z" fill="#6F0FE8" fill-opacity="0.1" stroke="#6F0FE8" stroke-width="2"/>
</g>
</svg>
