<svg width="40" height="40" viewBox="0 0 40 40" fill="none" xmlns="http://www.w3.org/2000/svg">
<g style="mix-blend-mode:multiply">
<path d="M24.855 9.45947H10.855C8.64582 9.45947 6.85496 11.2503 6.85496 13.4595V27.4595C6.85496 29.6686 8.64582 31.4595 10.855 31.4595H24.855C27.0641 31.4595 28.855 29.6686 28.855 27.4595V13.4595C28.855 11.2503 27.0641 9.45947 24.855 9.45947Z" fill="#0F35F5"/>
</g>
<g style="mix-blend-mode:soft-light">
<path d="M24.855 9.45947H10.855C8.64582 9.45947 6.85496 11.2503 6.85496 13.4595V27.4595C6.85496 29.6686 8.64582 31.4595 10.855 31.4595H24.855C27.0641 31.4595 28.855 29.6686 28.855 27.4595V13.4595C28.855 11.2503 27.0641 9.45947 24.855 9.45947Z" fill="#294CFF"/>
</g>
<g style="mix-blend-mode:screen">
<path fill-rule="evenodd" clip-rule="evenodd" d="M16.609 25.5503C15.0345 23.9913 13.4621 22.4345 11.9105 20.8982C12.752 20.0423 13.5727 19.2076 14.4044 18.3616C15.1404 19.0986 15.8753 19.8345 16.6244 20.5848C18.4252 18.8036 20.2111 17.037 21.9746 15.2925C22.7871 16.1054 23.593 16.9115 24.4443 17.7632C21.8628 20.3289 19.2523 22.9233 16.609 25.5503Z" fill="#37CC3A"/>
</g>
<g style="mix-blend-mode:multiply">
<path fill-rule="evenodd" clip-rule="evenodd" d="M13.7858 8.54102H29.145C31.3542 8.54102 33.145 10.3319 33.145 12.541V26.5411C33.145 28.7503 31.0621 30.5411 28.853 30.5411C28.402 30.5411 27.951 30.5411 27.5 30.5411C27.7626 30.2873 28.7979 29.3524 28.8467 27.6777C28.8467 21.3497 28.8467 16.0315 28.8467 13.5017C28.8467 10.9718 26.6654 9.47408 25.1112 9.47184C23.9047 9.47009 20.0139 9.52032 12.855 9.47184C12.855 8.95776 13.2717 8.54102 13.7858 8.54102Z" fill="#37CC3A"/>
</g>
</svg>
