<svg xmlns="http://www.w3.org/2000/svg" width="46" height="40" viewBox="0 0 46 40" fill="none">
<g clip-path="url(#clip0_20960_9196)">
<g style="mix-blend-mode:darken">
<path fill-rule="evenodd" clip-rule="evenodd" d="M7.30066 26.6527C12.3003 28.9333 17.2991 31.216 22.3059 33.4807C22.4854 33.5619 22.7735 33.5285 22.9633 33.4428C27.8673 31.2229 32.7653 28.9892 37.6636 26.7568C37.8177 26.6866 37.9658 26.6035 38.1738 26.4971C38.0573 26.4262 37.997 26.3801 37.9296 26.3494C35.5679 25.2732 26.7729 21.6444 24.6191 20.4938C23.6772 19.9907 22.9501 19.7474 21.2775 20.3763C20.6631 20.6073 9.7633 25.2094 7.53178 26.2237C7.37693 26.2939 7.22766 26.3766 7 26.4921C7.15986 26.5779 7.22824 26.6197 7.30066 26.6527Z" fill="#09B30F"/>
</g>
<g style="mix-blend-mode:darken">
<path fill-rule="evenodd" clip-rule="evenodd" d="M7.15167 13.4029C7.27918 13.4718 7.35622 13.5192 7.43808 13.5566C12.4383 15.8366 17.4373 18.1191 22.4452 20.3819C22.6369 20.4685 22.945 20.429 23.1486 20.337C28.1115 18.0908 33.0674 15.8295 38.0241 13.5701C38.1175 13.5275 38.2063 13.4747 38.3411 13.4033C38.2107 13.3314 38.1315 13.2805 38.047 13.242C33.0589 10.9743 28.0718 8.70413 23.0764 6.45285C22.8794 6.36417 22.5687 6.38191 22.3665 6.4731C17.4304 8.70008 12.5016 10.9436 7.57232 13.1855C7.44443 13.2435 7.32251 13.3142 7.15167 13.4029Z" fill="#09B30F"/>
</g>
<g style="mix-blend-mode:hard-light">
<path fill-rule="evenodd" clip-rule="evenodd" d="M7.30066 20.5277C12.3003 22.8083 17.2991 25.091 22.3059 27.3557C22.4854 27.4369 22.7735 27.4035 22.9633 27.3178C27.8673 25.0979 32.7653 22.8642 37.6636 20.6318C37.8177 20.5616 37.9658 20.4785 38.1738 20.3721C38.0573 20.3012 37.997 20.2551 37.9296 20.2244C35.5679 19.1482 26.7729 15.5194 24.6191 14.3688C23.6772 13.8657 22.9501 13.6224 21.2775 14.2513C20.6631 14.4823 9.7633 19.0844 7.53178 20.0987C7.37693 20.1689 7.22766 20.2516 7 20.3671C7.15986 20.4529 7.22824 20.4947 7.30066 20.5277Z" fill="#0321B9"/>
</g>
</g>
<defs>
<clipPath id="clip0_20960_9196">
<rect width="32" height="28" fill="white" transform="translate(7 6)"/>
</clipPath>
</defs>
</svg>