<svg width="767" height="395" viewBox="0 0 767 395" fill="none" xmlns="http://www.w3.org/2000/svg">
<g opacity="0.4">
<path d="M767 51.8145H0V53.945H767V51.8145Z" fill="url(#paint0_linear_22011_18085)"/>
<path d="M767 26.2466H0V28.3771H767V26.2466Z" fill="url(#paint1_linear_22011_18085)"/>
<path d="M767 9.24658H0V11.3771H767V9.24658Z" fill="url(#paint2_linear_22011_18085)"/>
<path d="M767 102.95H0V105.081H767V102.95Z" fill="url(#paint3_linear_22011_18085)"/>
<path d="M767 162.603H0V164.733H767V162.603Z" fill="url(#paint4_linear_22011_18085)"/>
<path d="M767 239.306H0V241.437H767V239.306Z" fill="url(#paint5_linear_22011_18085)"/>
<path d="M767 333.047H0V335.178H767V333.047Z" fill="url(#paint6_linear_22011_18085)"/>
<path d="M767 367.047H0V369.178H767V367.047Z" fill="url(#paint7_linear_22011_18085)"/>
<path d="M767 34.772H0V36.9025H767V34.772Z" fill="url(#paint8_linear_22011_18085)"/>
<path d="M767 85.9033H0V88.0339H767V85.9033Z" fill="url(#paint9_linear_22011_18085)"/>
<path d="M767 145.56H0V147.691H767V145.56Z" fill="url(#paint10_linear_22011_18085)"/>
<path d="M767 222.259H0V224.39H767V222.259Z" fill="url(#paint11_linear_22011_18085)"/>
<path d="M767 316.005H0V318.135H767V316.005Z" fill="url(#paint12_linear_22011_18085)"/>
<path d="M767 68.8613H0V70.9919H767V68.8613Z" fill="url(#paint13_linear_22011_18085)"/>
<path d="M767 119.993H0V122.123H767V119.993Z" fill="url(#paint14_linear_22011_18085)"/>
<path d="M767 196.691H0V198.822H767V196.691Z" fill="url(#paint15_linear_22011_18085)"/>
<path d="M767 298.959H0V301.09H767V298.959Z" fill="url(#paint16_linear_22011_18085)"/>
<path d="M767 179.649H0V181.78H767V179.649Z" fill="url(#paint17_linear_22011_18085)"/>
<path d="M767 281.917H0V284.047H767V281.917Z" fill="url(#paint18_linear_22011_18085)"/>
<path d="M767 256.348H0V258.479H767V256.348Z" fill="url(#paint19_linear_22011_18085)"/>
<path d="M767 350.094H0V352.225H767V350.094Z" fill="url(#paint20_linear_22011_18085)"/>
<path d="M767 384.094H0V386.225H767V384.094Z" fill="url(#paint21_linear_22011_18085)"/>
<path d="M767 60.3354H0V62.466H767V60.3354Z" fill="url(#paint22_linear_22011_18085)"/>
<path d="M767 111.471H0V113.602H767V111.471Z" fill="url(#paint23_linear_22011_18085)"/>
<path d="M767 171.128H0V173.258H767V171.128Z" fill="url(#paint24_linear_22011_18085)"/>
<path d="M767 273.395H0V275.526H767V273.395Z" fill="url(#paint25_linear_22011_18085)"/>
<path d="M767 247.827H0V249.958H767V247.827Z" fill="url(#paint26_linear_22011_18085)"/>
<path d="M767 341.57H0V343.701H767V341.57Z" fill="url(#paint27_linear_22011_18085)"/>
<path d="M767 375.57H0V377.701H767V375.57Z" fill="url(#paint28_linear_22011_18085)"/>
<path d="M767 43.2935H0V45.424H767V43.2935Z" fill="url(#paint29_linear_22011_18085)"/>
<path d="M767 17.7256H0V19.8561H767V17.7256Z" fill="url(#paint30_linear_22011_18085)"/>
<path d="M767 0.725586H0V2.85614H767V0.725586Z" fill="url(#paint31_linear_22011_18085)"/>
<path d="M767 94.4243H0V96.5549H767V94.4243Z" fill="url(#paint32_linear_22011_18085)"/>
<path d="M767 154.082H0V156.212H767V154.082Z" fill="url(#paint33_linear_22011_18085)"/>
<path d="M767 230.781H0V232.911H767V230.781Z" fill="url(#paint34_linear_22011_18085)"/>
<path d="M767 324.526H0V326.657H767V324.526Z" fill="url(#paint35_linear_22011_18085)"/>
<path d="M767 77.3823H0V79.5129H767V77.3823Z" fill="url(#paint36_linear_22011_18085)"/>
<path d="M767 137.039H0V139.17H767V137.039Z" fill="url(#paint37_linear_22011_18085)"/>
<path d="M767 213.738H0V215.869H767V213.738Z" fill="url(#paint38_linear_22011_18085)"/>
<path d="M767 307.48H0V309.611H767V307.48Z" fill="url(#paint39_linear_22011_18085)"/>
<path d="M767 128.514H0V130.644H767V128.514Z" fill="url(#paint40_linear_22011_18085)"/>
<path d="M767 205.217H0V207.347H767V205.217Z" fill="url(#paint41_linear_22011_18085)"/>
<path d="M767 188.17H0V190.3H767V188.17Z" fill="url(#paint42_linear_22011_18085)"/>
<path d="M767 290.438H0V292.568H767V290.438Z" fill="url(#paint43_linear_22011_18085)"/>
<path d="M767 264.87H0V267H767V264.87Z" fill="url(#paint44_linear_22011_18085)"/>
<path d="M767 358.615H0V360.746H767V358.615Z" fill="url(#paint45_linear_22011_18085)"/>
<path d="M767 392.615H0V394.746H767V392.615Z" fill="url(#paint46_linear_22011_18085)"/>
</g>
<defs>
<linearGradient id="paint0_linear_22011_18085" x1="13.214" y1="53.945" x2="767" y2="53.945" gradientUnits="userSpaceOnUse">
<stop stop-color="#294DFF" stop-opacity="0.2"/>
<stop offset="0.518583" stop-color="#294DFF"/>
<stop offset="1" stop-color="#294DFF" stop-opacity="0.2"/>
</linearGradient>
<linearGradient id="paint1_linear_22011_18085" x1="13.214" y1="28.3771" x2="767" y2="28.3771" gradientUnits="userSpaceOnUse">
<stop stop-color="#294DFF" stop-opacity="0.2"/>
<stop offset="0.518583" stop-color="#294DFF"/>
<stop offset="1" stop-color="#294DFF" stop-opacity="0.2"/>
</linearGradient>
<linearGradient id="paint2_linear_22011_18085" x1="13.214" y1="11.3771" x2="767" y2="11.3771" gradientUnits="userSpaceOnUse">
<stop stop-color="#294DFF" stop-opacity="0.2"/>
<stop offset="0.518583" stop-color="#294DFF"/>
<stop offset="1" stop-color="#294DFF" stop-opacity="0.2"/>
</linearGradient>
<linearGradient id="paint3_linear_22011_18085" x1="13.214" y1="105.081" x2="767" y2="105.081" gradientUnits="userSpaceOnUse">
<stop stop-color="#294DFF" stop-opacity="0.2"/>
<stop offset="0.518583" stop-color="#294DFF"/>
<stop offset="1" stop-color="#294DFF" stop-opacity="0.2"/>
</linearGradient>
<linearGradient id="paint4_linear_22011_18085" x1="13.214" y1="164.733" x2="767" y2="164.733" gradientUnits="userSpaceOnUse">
<stop stop-color="#294DFF" stop-opacity="0.2"/>
<stop offset="0.518583" stop-color="#294DFF"/>
<stop offset="1" stop-color="#294DFF" stop-opacity="0.2"/>
</linearGradient>
<linearGradient id="paint5_linear_22011_18085" x1="13.214" y1="241.437" x2="767" y2="241.437" gradientUnits="userSpaceOnUse">
<stop stop-color="#294DFF" stop-opacity="0.2"/>
<stop offset="0.518583" stop-color="#294DFF"/>
<stop offset="1" stop-color="#294DFF" stop-opacity="0.2"/>
</linearGradient>
<linearGradient id="paint6_linear_22011_18085" x1="13.214" y1="335.178" x2="767" y2="335.178" gradientUnits="userSpaceOnUse">
<stop stop-color="#294DFF" stop-opacity="0.2"/>
<stop offset="0.518583" stop-color="#294DFF"/>
<stop offset="1" stop-color="#294DFF" stop-opacity="0.2"/>
</linearGradient>
<linearGradient id="paint7_linear_22011_18085" x1="13.214" y1="369.178" x2="767" y2="369.178" gradientUnits="userSpaceOnUse">
<stop stop-color="#294DFF" stop-opacity="0.2"/>
<stop offset="0.518583" stop-color="#294DFF"/>
<stop offset="1" stop-color="#294DFF" stop-opacity="0.2"/>
</linearGradient>
<linearGradient id="paint8_linear_22011_18085" x1="13.214" y1="36.9025" x2="767" y2="36.9025" gradientUnits="userSpaceOnUse">
<stop stop-color="#294DFF" stop-opacity="0.2"/>
<stop offset="0.518583" stop-color="#294DFF"/>
<stop offset="1" stop-color="#294DFF" stop-opacity="0.2"/>
</linearGradient>
<linearGradient id="paint9_linear_22011_18085" x1="13.214" y1="88.0339" x2="767" y2="88.0339" gradientUnits="userSpaceOnUse">
<stop stop-color="#294DFF" stop-opacity="0.2"/>
<stop offset="0.518583" stop-color="#294DFF"/>
<stop offset="1" stop-color="#294DFF" stop-opacity="0.2"/>
</linearGradient>
<linearGradient id="paint10_linear_22011_18085" x1="13.214" y1="147.691" x2="767" y2="147.691" gradientUnits="userSpaceOnUse">
<stop stop-color="#294DFF" stop-opacity="0.2"/>
<stop offset="0.518583" stop-color="#294DFF"/>
<stop offset="1" stop-color="#294DFF" stop-opacity="0.2"/>
</linearGradient>
<linearGradient id="paint11_linear_22011_18085" x1="13.214" y1="224.39" x2="767" y2="224.39" gradientUnits="userSpaceOnUse">
<stop stop-color="#294DFF" stop-opacity="0.2"/>
<stop offset="0.518583" stop-color="#294DFF"/>
<stop offset="1" stop-color="#294DFF" stop-opacity="0.2"/>
</linearGradient>
<linearGradient id="paint12_linear_22011_18085" x1="13.214" y1="318.135" x2="767" y2="318.135" gradientUnits="userSpaceOnUse">
<stop stop-color="#294DFF" stop-opacity="0.2"/>
<stop offset="0.518583" stop-color="#294DFF"/>
<stop offset="1" stop-color="#294DFF" stop-opacity="0.2"/>
</linearGradient>
<linearGradient id="paint13_linear_22011_18085" x1="13.214" y1="70.9919" x2="767" y2="70.9919" gradientUnits="userSpaceOnUse">
<stop stop-color="#294DFF" stop-opacity="0.2"/>
<stop offset="0.518583" stop-color="#294DFF"/>
<stop offset="1" stop-color="#294DFF" stop-opacity="0.2"/>
</linearGradient>
<linearGradient id="paint14_linear_22011_18085" x1="13.214" y1="122.123" x2="767" y2="122.123" gradientUnits="userSpaceOnUse">
<stop stop-color="#294DFF" stop-opacity="0.2"/>
<stop offset="0.518583" stop-color="#294DFF"/>
<stop offset="1" stop-color="#294DFF" stop-opacity="0.2"/>
</linearGradient>
<linearGradient id="paint15_linear_22011_18085" x1="13.214" y1="198.822" x2="767" y2="198.822" gradientUnits="userSpaceOnUse">
<stop stop-color="#294DFF" stop-opacity="0.2"/>
<stop offset="0.518583" stop-color="#294DFF"/>
<stop offset="1" stop-color="#294DFF" stop-opacity="0.2"/>
</linearGradient>
<linearGradient id="paint16_linear_22011_18085" x1="13.214" y1="301.09" x2="767" y2="301.09" gradientUnits="userSpaceOnUse">
<stop stop-color="#294DFF" stop-opacity="0.2"/>
<stop offset="0.518583" stop-color="#294DFF"/>
<stop offset="1" stop-color="#294DFF" stop-opacity="0.2"/>
</linearGradient>
<linearGradient id="paint17_linear_22011_18085" x1="13.214" y1="181.78" x2="767" y2="181.78" gradientUnits="userSpaceOnUse">
<stop stop-color="#294DFF" stop-opacity="0.2"/>
<stop offset="0.518583" stop-color="#294DFF"/>
<stop offset="1" stop-color="#294DFF" stop-opacity="0.2"/>
</linearGradient>
<linearGradient id="paint18_linear_22011_18085" x1="13.214" y1="284.047" x2="767" y2="284.047" gradientUnits="userSpaceOnUse">
<stop stop-color="#294DFF" stop-opacity="0.2"/>
<stop offset="0.518583" stop-color="#294DFF"/>
<stop offset="1" stop-color="#294DFF" stop-opacity="0.2"/>
</linearGradient>
<linearGradient id="paint19_linear_22011_18085" x1="13.214" y1="258.479" x2="767" y2="258.479" gradientUnits="userSpaceOnUse">
<stop stop-color="#294DFF" stop-opacity="0.2"/>
<stop offset="0.518583" stop-color="#294DFF"/>
<stop offset="1" stop-color="#294DFF" stop-opacity="0.2"/>
</linearGradient>
<linearGradient id="paint20_linear_22011_18085" x1="13.214" y1="352.225" x2="767" y2="352.225" gradientUnits="userSpaceOnUse">
<stop stop-color="#294DFF" stop-opacity="0.2"/>
<stop offset="0.518583" stop-color="#294DFF"/>
<stop offset="1" stop-color="#294DFF" stop-opacity="0.2"/>
</linearGradient>
<linearGradient id="paint21_linear_22011_18085" x1="13.214" y1="386.225" x2="767" y2="386.225" gradientUnits="userSpaceOnUse">
<stop stop-color="#294DFF" stop-opacity="0.2"/>
<stop offset="0.518583" stop-color="#294DFF"/>
<stop offset="1" stop-color="#294DFF" stop-opacity="0.2"/>
</linearGradient>
<linearGradient id="paint22_linear_22011_18085" x1="13.214" y1="62.466" x2="767" y2="62.466" gradientUnits="userSpaceOnUse">
<stop stop-color="#294DFF" stop-opacity="0.2"/>
<stop offset="0.518583" stop-color="#294DFF"/>
<stop offset="1" stop-color="#294DFF" stop-opacity="0.2"/>
</linearGradient>
<linearGradient id="paint23_linear_22011_18085" x1="13.214" y1="113.602" x2="767" y2="113.602" gradientUnits="userSpaceOnUse">
<stop stop-color="#294DFF" stop-opacity="0.2"/>
<stop offset="0.518583" stop-color="#294DFF"/>
<stop offset="1" stop-color="#294DFF" stop-opacity="0.2"/>
</linearGradient>
<linearGradient id="paint24_linear_22011_18085" x1="13.214" y1="173.258" x2="767" y2="173.258" gradientUnits="userSpaceOnUse">
<stop stop-color="#294DFF" stop-opacity="0.2"/>
<stop offset="0.518583" stop-color="#294DFF"/>
<stop offset="1" stop-color="#294DFF" stop-opacity="0.2"/>
</linearGradient>
<linearGradient id="paint25_linear_22011_18085" x1="13.214" y1="275.526" x2="767" y2="275.526" gradientUnits="userSpaceOnUse">
<stop stop-color="#294DFF" stop-opacity="0.2"/>
<stop offset="0.518583" stop-color="#294DFF"/>
<stop offset="1" stop-color="#294DFF" stop-opacity="0.2"/>
</linearGradient>
<linearGradient id="paint26_linear_22011_18085" x1="13.214" y1="249.958" x2="767" y2="249.958" gradientUnits="userSpaceOnUse">
<stop stop-color="#294DFF" stop-opacity="0.2"/>
<stop offset="0.518583" stop-color="#294DFF"/>
<stop offset="1" stop-color="#294DFF" stop-opacity="0.2"/>
</linearGradient>
<linearGradient id="paint27_linear_22011_18085" x1="13.214" y1="343.701" x2="767" y2="343.701" gradientUnits="userSpaceOnUse">
<stop stop-color="#294DFF" stop-opacity="0.2"/>
<stop offset="0.518583" stop-color="#294DFF"/>
<stop offset="1" stop-color="#294DFF" stop-opacity="0.2"/>
</linearGradient>
<linearGradient id="paint28_linear_22011_18085" x1="13.214" y1="377.701" x2="767" y2="377.701" gradientUnits="userSpaceOnUse">
<stop stop-color="#294DFF" stop-opacity="0.2"/>
<stop offset="0.518583" stop-color="#294DFF"/>
<stop offset="1" stop-color="#294DFF" stop-opacity="0.2"/>
</linearGradient>
<linearGradient id="paint29_linear_22011_18085" x1="13.214" y1="45.424" x2="767" y2="45.424" gradientUnits="userSpaceOnUse">
<stop stop-color="#294DFF" stop-opacity="0.2"/>
<stop offset="0.518583" stop-color="#294DFF"/>
<stop offset="1" stop-color="#294DFF" stop-opacity="0.2"/>
</linearGradient>
<linearGradient id="paint30_linear_22011_18085" x1="13.214" y1="19.8561" x2="767" y2="19.8561" gradientUnits="userSpaceOnUse">
<stop stop-color="#294DFF" stop-opacity="0.2"/>
<stop offset="0.518583" stop-color="#294DFF"/>
<stop offset="1" stop-color="#294DFF" stop-opacity="0.2"/>
</linearGradient>
<linearGradient id="paint31_linear_22011_18085" x1="13.214" y1="2.85614" x2="767" y2="2.85614" gradientUnits="userSpaceOnUse">
<stop stop-color="#294DFF" stop-opacity="0.2"/>
<stop offset="0.518583" stop-color="#294DFF"/>
<stop offset="1" stop-color="#294DFF" stop-opacity="0.2"/>
</linearGradient>
<linearGradient id="paint32_linear_22011_18085" x1="13.214" y1="96.5549" x2="767" y2="96.5549" gradientUnits="userSpaceOnUse">
<stop stop-color="#294DFF" stop-opacity="0.2"/>
<stop offset="0.518583" stop-color="#294DFF"/>
<stop offset="1" stop-color="#294DFF" stop-opacity="0.2"/>
</linearGradient>
<linearGradient id="paint33_linear_22011_18085" x1="13.214" y1="156.212" x2="767" y2="156.212" gradientUnits="userSpaceOnUse">
<stop stop-color="#294DFF" stop-opacity="0.2"/>
<stop offset="0.518583" stop-color="#294DFF"/>
<stop offset="1" stop-color="#294DFF" stop-opacity="0.2"/>
</linearGradient>
<linearGradient id="paint34_linear_22011_18085" x1="13.214" y1="232.911" x2="767" y2="232.911" gradientUnits="userSpaceOnUse">
<stop stop-color="#294DFF" stop-opacity="0.2"/>
<stop offset="0.518583" stop-color="#294DFF"/>
<stop offset="1" stop-color="#294DFF" stop-opacity="0.2"/>
</linearGradient>
<linearGradient id="paint35_linear_22011_18085" x1="13.214" y1="326.657" x2="767" y2="326.657" gradientUnits="userSpaceOnUse">
<stop stop-color="#294DFF" stop-opacity="0.2"/>
<stop offset="0.518583" stop-color="#294DFF"/>
<stop offset="1" stop-color="#294DFF" stop-opacity="0.2"/>
</linearGradient>
<linearGradient id="paint36_linear_22011_18085" x1="13.214" y1="79.5129" x2="767" y2="79.5129" gradientUnits="userSpaceOnUse">
<stop stop-color="#294DFF" stop-opacity="0.2"/>
<stop offset="0.518583" stop-color="#294DFF"/>
<stop offset="1" stop-color="#294DFF" stop-opacity="0.2"/>
</linearGradient>
<linearGradient id="paint37_linear_22011_18085" x1="13.214" y1="139.17" x2="767" y2="139.17" gradientUnits="userSpaceOnUse">
<stop stop-color="#294DFF" stop-opacity="0.2"/>
<stop offset="0.518583" stop-color="#294DFF"/>
<stop offset="1" stop-color="#294DFF" stop-opacity="0.2"/>
</linearGradient>
<linearGradient id="paint38_linear_22011_18085" x1="13.214" y1="215.869" x2="767" y2="215.869" gradientUnits="userSpaceOnUse">
<stop stop-color="#294DFF" stop-opacity="0.2"/>
<stop offset="0.518583" stop-color="#294DFF"/>
<stop offset="1" stop-color="#294DFF" stop-opacity="0.2"/>
</linearGradient>
<linearGradient id="paint39_linear_22011_18085" x1="13.214" y1="309.611" x2="767" y2="309.611" gradientUnits="userSpaceOnUse">
<stop stop-color="#294DFF" stop-opacity="0.2"/>
<stop offset="0.518583" stop-color="#294DFF"/>
<stop offset="1" stop-color="#294DFF" stop-opacity="0.2"/>
</linearGradient>
<linearGradient id="paint40_linear_22011_18085" x1="13.214" y1="130.644" x2="767" y2="130.644" gradientUnits="userSpaceOnUse">
<stop stop-color="#294DFF" stop-opacity="0.2"/>
<stop offset="0.518583" stop-color="#294DFF"/>
<stop offset="1" stop-color="#294DFF" stop-opacity="0.2"/>
</linearGradient>
<linearGradient id="paint41_linear_22011_18085" x1="13.214" y1="207.347" x2="767" y2="207.347" gradientUnits="userSpaceOnUse">
<stop stop-color="#294DFF" stop-opacity="0.2"/>
<stop offset="0.518583" stop-color="#294DFF"/>
<stop offset="1" stop-color="#294DFF" stop-opacity="0.2"/>
</linearGradient>
<linearGradient id="paint42_linear_22011_18085" x1="13.214" y1="190.3" x2="767" y2="190.3" gradientUnits="userSpaceOnUse">
<stop stop-color="#294DFF" stop-opacity="0.2"/>
<stop offset="0.518583" stop-color="#294DFF"/>
<stop offset="1" stop-color="#294DFF" stop-opacity="0.2"/>
</linearGradient>
<linearGradient id="paint43_linear_22011_18085" x1="13.214" y1="292.568" x2="767" y2="292.568" gradientUnits="userSpaceOnUse">
<stop stop-color="#294DFF" stop-opacity="0.2"/>
<stop offset="0.518583" stop-color="#294DFF"/>
<stop offset="1" stop-color="#294DFF" stop-opacity="0.2"/>
</linearGradient>
<linearGradient id="paint44_linear_22011_18085" x1="13.214" y1="267" x2="767" y2="267" gradientUnits="userSpaceOnUse">
<stop stop-color="#294DFF" stop-opacity="0.2"/>
<stop offset="0.518583" stop-color="#294DFF"/>
<stop offset="1" stop-color="#294DFF" stop-opacity="0.2"/>
</linearGradient>
<linearGradient id="paint45_linear_22011_18085" x1="13.214" y1="360.746" x2="767" y2="360.746" gradientUnits="userSpaceOnUse">
<stop stop-color="#294DFF" stop-opacity="0.2"/>
<stop offset="0.518583" stop-color="#294DFF"/>
<stop offset="1" stop-color="#294DFF" stop-opacity="0.2"/>
</linearGradient>
<linearGradient id="paint46_linear_22011_18085" x1="13.214" y1="394.746" x2="767" y2="394.746" gradientUnits="userSpaceOnUse">
<stop stop-color="#294DFF" stop-opacity="0.2"/>
<stop offset="0.518583" stop-color="#294DFF"/>
<stop offset="1" stop-color="#294DFF" stop-opacity="0.2"/>
</linearGradient>
</defs>
</svg>
