<svg width="1440" height="644" viewBox="0 0 1440 644" fill="none" xmlns="http://www.w3.org/2000/svg">
<g opacity="0.4">
<path d="M1440 64H0V68H1440V64Z" fill="url(#paint0_linear_21929_31291)"/>
<path d="M1440 16H0V20H1440V16Z" fill="url(#paint1_linear_21929_31291)"/>
<path d="M1440 160H0V164H1440V160Z" fill="url(#paint2_linear_21929_31291)"/>
<path d="M1440 272H0V276H1440V272Z" fill="url(#paint3_linear_21929_31291)"/>
<path d="M1440 416H0V420H1440V416Z" fill="url(#paint4_linear_21929_31291)"/>
<path d="M1440 592H0V596H1440V592Z" fill="url(#paint5_linear_21929_31291)"/>
<path d="M1440 32H0V36H1440V32Z" fill="url(#paint6_linear_21929_31291)"/>
<path d="M1440 128H0V132H1440V128Z" fill="url(#paint7_linear_21929_31291)"/>
<path d="M1440 240H0V244H1440V240Z" fill="url(#paint8_linear_21929_31291)"/>
<path d="M1440 384H0V388H1440V384Z" fill="url(#paint9_linear_21929_31291)"/>
<path d="M1440 560H0V564H1440V560Z" fill="url(#paint10_linear_21929_31291)"/>
<path d="M1440 96H0V100H1440V96Z" fill="url(#paint11_linear_21929_31291)"/>
<path d="M1440 192H0V196H1440V192Z" fill="url(#paint12_linear_21929_31291)"/>
<path d="M1440 336H0V340H1440V336Z" fill="url(#paint13_linear_21929_31291)"/>
<path d="M1440 528H0V532H1440V528Z" fill="url(#paint14_linear_21929_31291)"/>
<path d="M1440 304H0V308H1440V304Z" fill="url(#paint15_linear_21929_31291)"/>
<path d="M1440 496H0V500H1440V496Z" fill="url(#paint16_linear_21929_31291)"/>
<path d="M1440 448H0V452H1440V448Z" fill="url(#paint17_linear_21929_31291)"/>
<path d="M1440 624H0V628H1440V624Z" fill="url(#paint18_linear_21929_31291)"/>
<path d="M1440 80H0V84H1440V80Z" fill="url(#paint19_linear_21929_31291)"/>
<path d="M1440 176H0V180H1440V176Z" fill="url(#paint20_linear_21929_31291)"/>
<path d="M1440 288H0V292H1440V288Z" fill="url(#paint21_linear_21929_31291)"/>
<path d="M1440 480H0V484H1440V480Z" fill="url(#paint22_linear_21929_31291)"/>
<path d="M1440 432H0V436H1440V432Z" fill="url(#paint23_linear_21929_31291)"/>
<path d="M1440 608H0V612H1440V608Z" fill="url(#paint24_linear_21929_31291)"/>
<path d="M1440 48H0V52H1440V48Z" fill="url(#paint25_linear_21929_31291)"/>
<path d="M1440 0H0V4H1440V0Z" fill="url(#paint26_linear_21929_31291)"/>
<path d="M1440 144H0V148H1440V144Z" fill="url(#paint27_linear_21929_31291)"/>
<path d="M1440 256H0V260H1440V256Z" fill="url(#paint28_linear_21929_31291)"/>
<path d="M1440 400H0V404H1440V400Z" fill="url(#paint29_linear_21929_31291)"/>
<path d="M1440 576H0V580H1440V576Z" fill="url(#paint30_linear_21929_31291)"/>
<path d="M1440 112H0V116H1440V112Z" fill="url(#paint31_linear_21929_31291)"/>
<path d="M1440 224H0V228H1440V224Z" fill="url(#paint32_linear_21929_31291)"/>
<path d="M1440 368H0V372H1440V368Z" fill="url(#paint33_linear_21929_31291)"/>
<path d="M1440 544H0V548H1440V544Z" fill="url(#paint34_linear_21929_31291)"/>
<path d="M1440 208H0V212H1440V208Z" fill="url(#paint35_linear_21929_31291)"/>
<path d="M1440 352H0V356H1440V352Z" fill="url(#paint36_linear_21929_31291)"/>
<path d="M1440 320H0V324H1440V320Z" fill="url(#paint37_linear_21929_31291)"/>
<path d="M1440 512H0V516H1440V512Z" fill="url(#paint38_linear_21929_31291)"/>
<path d="M1440 464H0V468H1440V464Z" fill="url(#paint39_linear_21929_31291)"/>
<path d="M1440 640H0V644H1440V640Z" fill="url(#paint40_linear_21929_31291)"/>
</g>
<defs>
<linearGradient id="paint0_linear_21929_31291" x1="24.8085" y1="68" x2="1440" y2="68" gradientUnits="userSpaceOnUse">
<stop stop-color="#294DFF" stop-opacity="0.2"/>
<stop offset="0.518583" stop-color="#294DFF"/>
<stop offset="1" stop-color="#294DFF" stop-opacity="0.2"/>
</linearGradient>
<linearGradient id="paint1_linear_21929_31291" x1="24.8085" y1="20" x2="1440" y2="20" gradientUnits="userSpaceOnUse">
<stop stop-color="#294DFF" stop-opacity="0.2"/>
<stop offset="0.518583" stop-color="#294DFF"/>
<stop offset="1" stop-color="#294DFF" stop-opacity="0.2"/>
</linearGradient>
<linearGradient id="paint2_linear_21929_31291" x1="24.8085" y1="164" x2="1440" y2="164" gradientUnits="userSpaceOnUse">
<stop stop-color="#294DFF" stop-opacity="0.2"/>
<stop offset="0.518583" stop-color="#294DFF"/>
<stop offset="1" stop-color="#294DFF" stop-opacity="0.2"/>
</linearGradient>
<linearGradient id="paint3_linear_21929_31291" x1="24.8085" y1="276" x2="1440" y2="276" gradientUnits="userSpaceOnUse">
<stop stop-color="#294DFF" stop-opacity="0.2"/>
<stop offset="0.518583" stop-color="#294DFF"/>
<stop offset="1" stop-color="#294DFF" stop-opacity="0.2"/>
</linearGradient>
<linearGradient id="paint4_linear_21929_31291" x1="24.8085" y1="420" x2="1440" y2="420" gradientUnits="userSpaceOnUse">
<stop stop-color="#294DFF" stop-opacity="0.2"/>
<stop offset="0.518583" stop-color="#294DFF"/>
<stop offset="1" stop-color="#294DFF" stop-opacity="0.2"/>
</linearGradient>
<linearGradient id="paint5_linear_21929_31291" x1="24.8085" y1="596" x2="1440" y2="596" gradientUnits="userSpaceOnUse">
<stop stop-color="#294DFF" stop-opacity="0.2"/>
<stop offset="0.518583" stop-color="#294DFF"/>
<stop offset="1" stop-color="#294DFF" stop-opacity="0.2"/>
</linearGradient>
<linearGradient id="paint6_linear_21929_31291" x1="24.8085" y1="36" x2="1440" y2="36" gradientUnits="userSpaceOnUse">
<stop stop-color="#294DFF" stop-opacity="0.2"/>
<stop offset="0.518583" stop-color="#294DFF"/>
<stop offset="1" stop-color="#294DFF" stop-opacity="0.2"/>
</linearGradient>
<linearGradient id="paint7_linear_21929_31291" x1="24.8085" y1="132" x2="1440" y2="132" gradientUnits="userSpaceOnUse">
<stop stop-color="#294DFF" stop-opacity="0.2"/>
<stop offset="0.518583" stop-color="#294DFF"/>
<stop offset="1" stop-color="#294DFF" stop-opacity="0.2"/>
</linearGradient>
<linearGradient id="paint8_linear_21929_31291" x1="24.8085" y1="244" x2="1440" y2="244" gradientUnits="userSpaceOnUse">
<stop stop-color="#294DFF" stop-opacity="0.2"/>
<stop offset="0.518583" stop-color="#294DFF"/>
<stop offset="1" stop-color="#294DFF" stop-opacity="0.2"/>
</linearGradient>
<linearGradient id="paint9_linear_21929_31291" x1="24.8085" y1="388" x2="1440" y2="388" gradientUnits="userSpaceOnUse">
<stop stop-color="#294DFF" stop-opacity="0.2"/>
<stop offset="0.518583" stop-color="#294DFF"/>
<stop offset="1" stop-color="#294DFF" stop-opacity="0.2"/>
</linearGradient>
<linearGradient id="paint10_linear_21929_31291" x1="24.8085" y1="564" x2="1440" y2="564" gradientUnits="userSpaceOnUse">
<stop stop-color="#294DFF" stop-opacity="0.2"/>
<stop offset="0.518583" stop-color="#294DFF"/>
<stop offset="1" stop-color="#294DFF" stop-opacity="0.2"/>
</linearGradient>
<linearGradient id="paint11_linear_21929_31291" x1="24.8085" y1="100" x2="1440" y2="100" gradientUnits="userSpaceOnUse">
<stop stop-color="#294DFF" stop-opacity="0.2"/>
<stop offset="0.518583" stop-color="#294DFF"/>
<stop offset="1" stop-color="#294DFF" stop-opacity="0.2"/>
</linearGradient>
<linearGradient id="paint12_linear_21929_31291" x1="24.8085" y1="196" x2="1440" y2="196" gradientUnits="userSpaceOnUse">
<stop stop-color="#294DFF" stop-opacity="0.2"/>
<stop offset="0.518583" stop-color="#294DFF"/>
<stop offset="1" stop-color="#294DFF" stop-opacity="0.2"/>
</linearGradient>
<linearGradient id="paint13_linear_21929_31291" x1="24.8085" y1="340" x2="1440" y2="340" gradientUnits="userSpaceOnUse">
<stop stop-color="#294DFF" stop-opacity="0.2"/>
<stop offset="0.518583" stop-color="#294DFF"/>
<stop offset="1" stop-color="#294DFF" stop-opacity="0.2"/>
</linearGradient>
<linearGradient id="paint14_linear_21929_31291" x1="24.8085" y1="532" x2="1440" y2="532" gradientUnits="userSpaceOnUse">
<stop stop-color="#294DFF" stop-opacity="0.2"/>
<stop offset="0.518583" stop-color="#294DFF"/>
<stop offset="1" stop-color="#294DFF" stop-opacity="0.2"/>
</linearGradient>
<linearGradient id="paint15_linear_21929_31291" x1="24.8085" y1="308" x2="1440" y2="308" gradientUnits="userSpaceOnUse">
<stop stop-color="#294DFF" stop-opacity="0.2"/>
<stop offset="0.518583" stop-color="#294DFF"/>
<stop offset="1" stop-color="#294DFF" stop-opacity="0.2"/>
</linearGradient>
<linearGradient id="paint16_linear_21929_31291" x1="24.8085" y1="500" x2="1440" y2="500" gradientUnits="userSpaceOnUse">
<stop stop-color="#294DFF" stop-opacity="0.2"/>
<stop offset="0.518583" stop-color="#294DFF"/>
<stop offset="1" stop-color="#294DFF" stop-opacity="0.2"/>
</linearGradient>
<linearGradient id="paint17_linear_21929_31291" x1="24.8085" y1="452" x2="1440" y2="452" gradientUnits="userSpaceOnUse">
<stop stop-color="#294DFF" stop-opacity="0.2"/>
<stop offset="0.518583" stop-color="#294DFF"/>
<stop offset="1" stop-color="#294DFF" stop-opacity="0.2"/>
</linearGradient>
<linearGradient id="paint18_linear_21929_31291" x1="24.8085" y1="628" x2="1440" y2="628" gradientUnits="userSpaceOnUse">
<stop stop-color="#294DFF" stop-opacity="0.2"/>
<stop offset="0.518583" stop-color="#294DFF"/>
<stop offset="1" stop-color="#294DFF" stop-opacity="0.2"/>
</linearGradient>
<linearGradient id="paint19_linear_21929_31291" x1="24.8085" y1="84" x2="1440" y2="84" gradientUnits="userSpaceOnUse">
<stop stop-color="#294DFF" stop-opacity="0.2"/>
<stop offset="0.518583" stop-color="#294DFF"/>
<stop offset="1" stop-color="#294DFF" stop-opacity="0.2"/>
</linearGradient>
<linearGradient id="paint20_linear_21929_31291" x1="24.8085" y1="180" x2="1440" y2="180" gradientUnits="userSpaceOnUse">
<stop stop-color="#294DFF" stop-opacity="0.2"/>
<stop offset="0.518583" stop-color="#294DFF"/>
<stop offset="1" stop-color="#294DFF" stop-opacity="0.2"/>
</linearGradient>
<linearGradient id="paint21_linear_21929_31291" x1="24.8085" y1="292" x2="1440" y2="292" gradientUnits="userSpaceOnUse">
<stop stop-color="#294DFF" stop-opacity="0.2"/>
<stop offset="0.518583" stop-color="#294DFF"/>
<stop offset="1" stop-color="#294DFF" stop-opacity="0.2"/>
</linearGradient>
<linearGradient id="paint22_linear_21929_31291" x1="24.8085" y1="484" x2="1440" y2="484" gradientUnits="userSpaceOnUse">
<stop stop-color="#294DFF" stop-opacity="0.2"/>
<stop offset="0.518583" stop-color="#294DFF"/>
<stop offset="1" stop-color="#294DFF" stop-opacity="0.2"/>
</linearGradient>
<linearGradient id="paint23_linear_21929_31291" x1="24.8085" y1="436" x2="1440" y2="436" gradientUnits="userSpaceOnUse">
<stop stop-color="#294DFF" stop-opacity="0.2"/>
<stop offset="0.518583" stop-color="#294DFF"/>
<stop offset="1" stop-color="#294DFF" stop-opacity="0.2"/>
</linearGradient>
<linearGradient id="paint24_linear_21929_31291" x1="24.8085" y1="612" x2="1440" y2="612" gradientUnits="userSpaceOnUse">
<stop stop-color="#294DFF" stop-opacity="0.2"/>
<stop offset="0.518583" stop-color="#294DFF"/>
<stop offset="1" stop-color="#294DFF" stop-opacity="0.2"/>
</linearGradient>
<linearGradient id="paint25_linear_21929_31291" x1="24.8085" y1="52" x2="1440" y2="52" gradientUnits="userSpaceOnUse">
<stop stop-color="#294DFF" stop-opacity="0.2"/>
<stop offset="0.518583" stop-color="#294DFF"/>
<stop offset="1" stop-color="#294DFF" stop-opacity="0.2"/>
</linearGradient>
<linearGradient id="paint26_linear_21929_31291" x1="24.8085" y1="4" x2="1440" y2="4" gradientUnits="userSpaceOnUse">
<stop stop-color="#294DFF" stop-opacity="0.2"/>
<stop offset="0.518583" stop-color="#294DFF"/>
<stop offset="1" stop-color="#294DFF" stop-opacity="0.2"/>
</linearGradient>
<linearGradient id="paint27_linear_21929_31291" x1="24.8085" y1="148" x2="1440" y2="148" gradientUnits="userSpaceOnUse">
<stop stop-color="#294DFF" stop-opacity="0.2"/>
<stop offset="0.518583" stop-color="#294DFF"/>
<stop offset="1" stop-color="#294DFF" stop-opacity="0.2"/>
</linearGradient>
<linearGradient id="paint28_linear_21929_31291" x1="24.8085" y1="260" x2="1440" y2="260" gradientUnits="userSpaceOnUse">
<stop stop-color="#294DFF" stop-opacity="0.2"/>
<stop offset="0.518583" stop-color="#294DFF"/>
<stop offset="1" stop-color="#294DFF" stop-opacity="0.2"/>
</linearGradient>
<linearGradient id="paint29_linear_21929_31291" x1="24.8085" y1="404" x2="1440" y2="404" gradientUnits="userSpaceOnUse">
<stop stop-color="#294DFF" stop-opacity="0.2"/>
<stop offset="0.518583" stop-color="#294DFF"/>
<stop offset="1" stop-color="#294DFF" stop-opacity="0.2"/>
</linearGradient>
<linearGradient id="paint30_linear_21929_31291" x1="24.8085" y1="580" x2="1440" y2="580" gradientUnits="userSpaceOnUse">
<stop stop-color="#294DFF" stop-opacity="0.2"/>
<stop offset="0.518583" stop-color="#294DFF"/>
<stop offset="1" stop-color="#294DFF" stop-opacity="0.2"/>
</linearGradient>
<linearGradient id="paint31_linear_21929_31291" x1="24.8085" y1="116" x2="1440" y2="116" gradientUnits="userSpaceOnUse">
<stop stop-color="#294DFF" stop-opacity="0.2"/>
<stop offset="0.518583" stop-color="#294DFF"/>
<stop offset="1" stop-color="#294DFF" stop-opacity="0.2"/>
</linearGradient>
<linearGradient id="paint32_linear_21929_31291" x1="24.8085" y1="228" x2="1440" y2="228" gradientUnits="userSpaceOnUse">
<stop stop-color="#294DFF" stop-opacity="0.2"/>
<stop offset="0.518583" stop-color="#294DFF"/>
<stop offset="1" stop-color="#294DFF" stop-opacity="0.2"/>
</linearGradient>
<linearGradient id="paint33_linear_21929_31291" x1="24.8085" y1="372" x2="1440" y2="372" gradientUnits="userSpaceOnUse">
<stop stop-color="#294DFF" stop-opacity="0.2"/>
<stop offset="0.518583" stop-color="#294DFF"/>
<stop offset="1" stop-color="#294DFF" stop-opacity="0.2"/>
</linearGradient>
<linearGradient id="paint34_linear_21929_31291" x1="24.8085" y1="548" x2="1440" y2="548" gradientUnits="userSpaceOnUse">
<stop stop-color="#294DFF" stop-opacity="0.2"/>
<stop offset="0.518583" stop-color="#294DFF"/>
<stop offset="1" stop-color="#294DFF" stop-opacity="0.2"/>
</linearGradient>
<linearGradient id="paint35_linear_21929_31291" x1="24.8085" y1="212" x2="1440" y2="212" gradientUnits="userSpaceOnUse">
<stop stop-color="#294DFF" stop-opacity="0.2"/>
<stop offset="0.518583" stop-color="#294DFF"/>
<stop offset="1" stop-color="#294DFF" stop-opacity="0.2"/>
</linearGradient>
<linearGradient id="paint36_linear_21929_31291" x1="24.8085" y1="356" x2="1440" y2="356" gradientUnits="userSpaceOnUse">
<stop stop-color="#294DFF" stop-opacity="0.2"/>
<stop offset="0.518583" stop-color="#294DFF"/>
<stop offset="1" stop-color="#294DFF" stop-opacity="0.2"/>
</linearGradient>
<linearGradient id="paint37_linear_21929_31291" x1="24.8085" y1="324" x2="1440" y2="324" gradientUnits="userSpaceOnUse">
<stop stop-color="#294DFF" stop-opacity="0.2"/>
<stop offset="0.518583" stop-color="#294DFF"/>
<stop offset="1" stop-color="#294DFF" stop-opacity="0.2"/>
</linearGradient>
<linearGradient id="paint38_linear_21929_31291" x1="24.8085" y1="516" x2="1440" y2="516" gradientUnits="userSpaceOnUse">
<stop stop-color="#294DFF" stop-opacity="0.2"/>
<stop offset="0.518583" stop-color="#294DFF"/>
<stop offset="1" stop-color="#294DFF" stop-opacity="0.2"/>
</linearGradient>
<linearGradient id="paint39_linear_21929_31291" x1="24.8085" y1="468" x2="1440" y2="468" gradientUnits="userSpaceOnUse">
<stop stop-color="#294DFF" stop-opacity="0.2"/>
<stop offset="0.518583" stop-color="#294DFF"/>
<stop offset="1" stop-color="#294DFF" stop-opacity="0.2"/>
</linearGradient>
<linearGradient id="paint40_linear_21929_31291" x1="24.8085" y1="644" x2="1440" y2="644" gradientUnits="userSpaceOnUse">
<stop stop-color="#294DFF" stop-opacity="0.2"/>
<stop offset="0.518583" stop-color="#294DFF"/>
<stop offset="1" stop-color="#294DFF" stop-opacity="0.2"/>
</linearGradient>
</defs>
</svg>
