<svg width="327" height="752" viewBox="0 0 327 752" fill="none" xmlns="http://www.w3.org/2000/svg">
<g opacity="0.4">
<path d="M302.291 752L302.292 0L300.269 -9.7163e-08L300.269 752L302.291 752Z" fill="url(#paint0_linear_21992_14675)"/>
<path d="M326.567 752L326.567 0L324.544 -9.7163e-08L324.544 752L326.567 752Z" fill="url(#paint1_linear_21992_14675)"/>
<path d="M253.74 752L253.74 0L251.718 -9.7163e-08L251.717 752L253.74 752Z" fill="url(#paint2_linear_21992_14675)"/>
<path d="M197.097 752L197.097 0L195.074 -9.7163e-08L195.074 752L197.097 752Z" fill="url(#paint3_linear_21992_14675)"/>
<path d="M124.27 752L124.27 0L122.247 -9.7163e-08L122.247 752L124.27 752Z" fill="url(#paint4_linear_21992_14675)"/>
<path d="M35.26 752L35.26 0L33.237 -9.7163e-08L33.237 752L35.26 752Z" fill="url(#paint5_linear_21992_14675)"/>
<path d="M318.475 752L318.475 0L316.452 -9.7163e-08L316.452 752L318.475 752Z" fill="url(#paint6_linear_21992_14675)"/>
<path d="M269.924 752L269.924 0L267.901 -9.7163e-08L267.901 752L269.924 752Z" fill="url(#paint7_linear_21992_14675)"/>
<path d="M213.281 752L213.281 0L211.258 -9.7163e-08L211.258 752L213.281 752Z" fill="url(#paint8_linear_21992_14675)"/>
<path d="M140.454 752L140.454 0L138.431 -9.7163e-08L138.431 752L140.454 752Z" fill="url(#paint9_linear_21992_14675)"/>
<path d="M51.4431 752L51.4431 0L49.4201 -9.7163e-08L49.4201 752L51.4431 752Z" fill="url(#paint10_linear_21992_14675)"/>
<path d="M286.108 752L286.108 0L284.085 -9.7163e-08L284.085 752L286.108 752Z" fill="url(#paint11_linear_21992_14675)"/>
<path d="M237.557 752L237.557 0L235.534 -9.7163e-08L235.534 752L237.557 752Z" fill="url(#paint12_linear_21992_14675)"/>
<path d="M164.73 752L164.73 0L162.707 -9.7163e-08L162.707 752L164.73 752Z" fill="url(#paint13_linear_21992_14675)"/>
<path d="M67.6272 752L67.6272 0L65.6042 -9.7163e-08L65.6042 752L67.6272 752Z" fill="url(#paint14_linear_21992_14675)"/>
<path d="M180.914 752L180.914 0L178.891 -9.7163e-08L178.891 752L180.914 752Z" fill="url(#paint15_linear_21992_14675)"/>
<path d="M83.8112 752L83.8113 0L81.7883 -9.7163e-08L81.7883 752L83.8112 752Z" fill="url(#paint16_linear_21992_14675)"/>
<path d="M108.087 752L108.087 0L106.064 -9.7163e-08L106.064 752L108.087 752Z" fill="url(#paint17_linear_21992_14675)"/>
<path d="M19.0759 752L19.0759 0L17.053 -9.7163e-08L17.0529 752L19.0759 752Z" fill="url(#paint18_linear_21992_14675)"/>
<path d="M294.2 752L294.2 0L292.177 -9.7163e-08L292.177 752L294.2 752Z" fill="url(#paint19_linear_21992_14675)"/>
<path d="M245.648 752L245.648 0L243.625 -9.7163e-08L243.625 752L245.648 752Z" fill="url(#paint20_linear_21992_14675)"/>
<path d="M189.005 752L189.005 0L186.982 -9.7163e-08L186.982 752L189.005 752Z" fill="url(#paint21_linear_21992_14675)"/>
<path d="M91.9028 752L91.9028 0L89.8799 -9.7163e-08L89.8798 752L91.9028 752Z" fill="url(#paint22_linear_21992_14675)"/>
<path d="M116.178 752L116.178 0L114.155 -9.7163e-08L114.155 752L116.178 752Z" fill="url(#paint23_linear_21992_14675)"/>
<path d="M27.1675 752L27.1675 0L25.1445 -9.7163e-08L25.1445 752L27.1675 752Z" fill="url(#paint24_linear_21992_14675)"/>
<path d="M310.383 752L310.383 0L308.36 -9.7163e-08L308.36 752L310.383 752Z" fill="url(#paint25_linear_21992_14675)"/>
<path d="M261.832 752L261.832 0L259.809 -9.7163e-08L259.809 752L261.832 752Z" fill="url(#paint26_linear_21992_14675)"/>
<path d="M205.189 752L205.189 0L203.166 -9.7163e-08L203.166 752L205.189 752Z" fill="url(#paint27_linear_21992_14675)"/>
<path d="M132.363 752L132.363 0L130.34 -9.7163e-08L130.34 752L132.363 752Z" fill="url(#paint28_linear_21992_14675)"/>
<path d="M43.3515 752L43.3516 0L41.3286 -9.7163e-08L41.3286 752L43.3515 752Z" fill="url(#paint29_linear_21992_14675)"/>
<path d="M278.016 752L278.016 0L275.993 -9.7163e-08L275.993 752L278.016 752Z" fill="url(#paint30_linear_21992_14675)"/>
<path d="M221.373 752L221.373 0L219.35 -9.7163e-08L219.35 752L221.373 752Z" fill="url(#paint31_linear_21992_14675)"/>
<path d="M148.546 752L148.546 0L146.523 -9.7163e-08L146.523 752L148.546 752Z" fill="url(#paint32_linear_21992_14675)"/>
<path d="M59.5356 752L59.5356 0L57.5127 -9.7163e-08L57.5126 752L59.5356 752Z" fill="url(#paint33_linear_21992_14675)"/>
<path d="M229.465 752L229.465 0L227.442 -9.7163e-08L227.442 752L229.465 752Z" fill="url(#paint34_linear_21992_14675)"/>
<path d="M156.638 752L156.638 0L154.615 -9.7163e-08L154.615 752L156.638 752Z" fill="url(#paint35_linear_21992_14675)"/>
<path d="M172.821 752L172.821 0L170.798 -9.7163e-08L170.798 752L172.821 752Z" fill="url(#paint36_linear_21992_14675)"/>
<path d="M75.7187 752L75.7188 0L73.6958 -9.7163e-08L73.6958 752L75.7187 752Z" fill="url(#paint37_linear_21992_14675)"/>
<path d="M99.9944 752L99.9944 0L97.9714 -9.7163e-08L97.9714 752L99.9944 752Z" fill="url(#paint38_linear_21992_14675)"/>
<path d="M10.9843 752L10.9844 0L8.96141 -9.7163e-08L8.96138 752L10.9843 752Z" fill="url(#paint39_linear_21992_14675)"/>
<path d="M2.93259 752L2.93262 0L0.909649 -9.7163e-08L0.909619 752L2.93259 752Z" fill="url(#paint40_linear_21992_14675)"/>
</g>
<defs>
<linearGradient id="paint0_linear_21992_14675" x1="300.269" y1="12.9556" x2="300.268" y2="752" gradientUnits="userSpaceOnUse">
<stop stop-color="#294DFF" stop-opacity="0"/>
<stop offset="0.518583" stop-color="#294DFF"/>
<stop offset="1" stop-color="#294DFF" stop-opacity="0"/>
</linearGradient>
<linearGradient id="paint1_linear_21992_14675" x1="324.544" y1="12.9556" x2="324.544" y2="752" gradientUnits="userSpaceOnUse">
<stop stop-color="#294DFF" stop-opacity="0"/>
<stop offset="0.518583" stop-color="#294DFF"/>
<stop offset="1" stop-color="#294DFF" stop-opacity="0"/>
</linearGradient>
<linearGradient id="paint2_linear_21992_14675" x1="251.718" y1="12.9556" x2="251.717" y2="752" gradientUnits="userSpaceOnUse">
<stop stop-color="#294DFF" stop-opacity="0"/>
<stop offset="0.518583" stop-color="#294DFF"/>
<stop offset="1" stop-color="#294DFF" stop-opacity="0"/>
</linearGradient>
<linearGradient id="paint3_linear_21992_14675" x1="195.074" y1="12.9556" x2="195.074" y2="752" gradientUnits="userSpaceOnUse">
<stop stop-color="#294DFF" stop-opacity="0"/>
<stop offset="0.518583" stop-color="#294DFF"/>
<stop offset="1" stop-color="#294DFF" stop-opacity="0"/>
</linearGradient>
<linearGradient id="paint4_linear_21992_14675" x1="122.247" y1="12.9556" x2="122.247" y2="752" gradientUnits="userSpaceOnUse">
<stop stop-color="#294DFF" stop-opacity="0"/>
<stop offset="0.518583" stop-color="#294DFF"/>
<stop offset="1" stop-color="#294DFF" stop-opacity="0"/>
</linearGradient>
<linearGradient id="paint5_linear_21992_14675" x1="33.237" y1="12.9556" x2="33.237" y2="752" gradientUnits="userSpaceOnUse">
<stop stop-color="#294DFF" stop-opacity="0"/>
<stop offset="0.518583" stop-color="#294DFF"/>
<stop offset="1" stop-color="#294DFF" stop-opacity="0"/>
</linearGradient>
<linearGradient id="paint6_linear_21992_14675" x1="316.452" y1="12.9556" x2="316.452" y2="752" gradientUnits="userSpaceOnUse">
<stop stop-color="#294DFF" stop-opacity="0"/>
<stop offset="0.518583" stop-color="#294DFF"/>
<stop offset="1" stop-color="#294DFF" stop-opacity="0"/>
</linearGradient>
<linearGradient id="paint7_linear_21992_14675" x1="267.901" y1="12.9556" x2="267.901" y2="752" gradientUnits="userSpaceOnUse">
<stop stop-color="#294DFF" stop-opacity="0"/>
<stop offset="0.518583" stop-color="#294DFF"/>
<stop offset="1" stop-color="#294DFF" stop-opacity="0"/>
</linearGradient>
<linearGradient id="paint8_linear_21992_14675" x1="211.258" y1="12.9556" x2="211.258" y2="752" gradientUnits="userSpaceOnUse">
<stop stop-color="#294DFF" stop-opacity="0"/>
<stop offset="0.518583" stop-color="#294DFF"/>
<stop offset="1" stop-color="#294DFF" stop-opacity="0"/>
</linearGradient>
<linearGradient id="paint9_linear_21992_14675" x1="138.431" y1="12.9556" x2="138.431" y2="752" gradientUnits="userSpaceOnUse">
<stop stop-color="#294DFF" stop-opacity="0"/>
<stop offset="0.518583" stop-color="#294DFF"/>
<stop offset="1" stop-color="#294DFF" stop-opacity="0"/>
</linearGradient>
<linearGradient id="paint10_linear_21992_14675" x1="49.4201" y1="12.9556" x2="49.4201" y2="752" gradientUnits="userSpaceOnUse">
<stop stop-color="#294DFF" stop-opacity="0"/>
<stop offset="0.518583" stop-color="#294DFF"/>
<stop offset="1" stop-color="#294DFF" stop-opacity="0"/>
</linearGradient>
<linearGradient id="paint11_linear_21992_14675" x1="284.085" y1="12.9556" x2="284.085" y2="752" gradientUnits="userSpaceOnUse">
<stop stop-color="#294DFF" stop-opacity="0"/>
<stop offset="0.518583" stop-color="#294DFF"/>
<stop offset="1" stop-color="#294DFF" stop-opacity="0"/>
</linearGradient>
<linearGradient id="paint12_linear_21992_14675" x1="235.534" y1="12.9556" x2="235.534" y2="752" gradientUnits="userSpaceOnUse">
<stop stop-color="#294DFF" stop-opacity="0"/>
<stop offset="0.518583" stop-color="#294DFF"/>
<stop offset="1" stop-color="#294DFF" stop-opacity="0"/>
</linearGradient>
<linearGradient id="paint13_linear_21992_14675" x1="162.707" y1="12.9556" x2="162.707" y2="752" gradientUnits="userSpaceOnUse">
<stop stop-color="#294DFF" stop-opacity="0"/>
<stop offset="0.518583" stop-color="#294DFF"/>
<stop offset="1" stop-color="#294DFF" stop-opacity="0"/>
</linearGradient>
<linearGradient id="paint14_linear_21992_14675" x1="65.6042" y1="12.9556" x2="65.6042" y2="752" gradientUnits="userSpaceOnUse">
<stop stop-color="#294DFF" stop-opacity="0"/>
<stop offset="0.518583" stop-color="#294DFF"/>
<stop offset="1" stop-color="#294DFF" stop-opacity="0"/>
</linearGradient>
<linearGradient id="paint15_linear_21992_14675" x1="178.891" y1="12.9556" x2="178.891" y2="752" gradientUnits="userSpaceOnUse">
<stop stop-color="#294DFF" stop-opacity="0"/>
<stop offset="0.518583" stop-color="#294DFF"/>
<stop offset="1" stop-color="#294DFF" stop-opacity="0"/>
</linearGradient>
<linearGradient id="paint16_linear_21992_14675" x1="81.7883" y1="12.9556" x2="81.7883" y2="752" gradientUnits="userSpaceOnUse">
<stop stop-color="#294DFF" stop-opacity="0"/>
<stop offset="0.518583" stop-color="#294DFF"/>
<stop offset="1" stop-color="#294DFF" stop-opacity="0"/>
</linearGradient>
<linearGradient id="paint17_linear_21992_14675" x1="106.064" y1="12.9556" x2="106.064" y2="752" gradientUnits="userSpaceOnUse">
<stop stop-color="#294DFF" stop-opacity="0"/>
<stop offset="0.518583" stop-color="#294DFF"/>
<stop offset="1" stop-color="#294DFF" stop-opacity="0"/>
</linearGradient>
<linearGradient id="paint18_linear_21992_14675" x1="17.053" y1="12.9556" x2="17.0529" y2="752" gradientUnits="userSpaceOnUse">
<stop stop-color="#294DFF" stop-opacity="0"/>
<stop offset="0.518583" stop-color="#294DFF"/>
<stop offset="1" stop-color="#294DFF" stop-opacity="0"/>
</linearGradient>
<linearGradient id="paint19_linear_21992_14675" x1="292.177" y1="12.9556" x2="292.177" y2="752" gradientUnits="userSpaceOnUse">
<stop stop-color="#294DFF" stop-opacity="0"/>
<stop offset="0.518583" stop-color="#294DFF"/>
<stop offset="1" stop-color="#294DFF" stop-opacity="0"/>
</linearGradient>
<linearGradient id="paint20_linear_21992_14675" x1="243.625" y1="12.9556" x2="243.625" y2="752" gradientUnits="userSpaceOnUse">
<stop stop-color="#294DFF" stop-opacity="0"/>
<stop offset="0.518583" stop-color="#294DFF"/>
<stop offset="1" stop-color="#294DFF" stop-opacity="0"/>
</linearGradient>
<linearGradient id="paint21_linear_21992_14675" x1="186.982" y1="12.9556" x2="186.982" y2="752" gradientUnits="userSpaceOnUse">
<stop stop-color="#294DFF" stop-opacity="0"/>
<stop offset="0.518583" stop-color="#294DFF"/>
<stop offset="1" stop-color="#294DFF" stop-opacity="0"/>
</linearGradient>
<linearGradient id="paint22_linear_21992_14675" x1="89.8799" y1="12.9556" x2="89.8798" y2="752" gradientUnits="userSpaceOnUse">
<stop stop-color="#294DFF" stop-opacity="0"/>
<stop offset="0.518583" stop-color="#294DFF"/>
<stop offset="1" stop-color="#294DFF" stop-opacity="0"/>
</linearGradient>
<linearGradient id="paint23_linear_21992_14675" x1="114.155" y1="12.9556" x2="114.155" y2="752" gradientUnits="userSpaceOnUse">
<stop stop-color="#294DFF" stop-opacity="0"/>
<stop offset="0.518583" stop-color="#294DFF"/>
<stop offset="1" stop-color="#294DFF" stop-opacity="0"/>
</linearGradient>
<linearGradient id="paint24_linear_21992_14675" x1="25.1445" y1="12.9556" x2="25.1445" y2="752" gradientUnits="userSpaceOnUse">
<stop stop-color="#294DFF" stop-opacity="0"/>
<stop offset="0.518583" stop-color="#294DFF"/>
<stop offset="1" stop-color="#294DFF" stop-opacity="0"/>
</linearGradient>
<linearGradient id="paint25_linear_21992_14675" x1="308.36" y1="12.9556" x2="308.36" y2="752" gradientUnits="userSpaceOnUse">
<stop stop-color="#294DFF" stop-opacity="0"/>
<stop offset="0.518583" stop-color="#294DFF"/>
<stop offset="1" stop-color="#294DFF" stop-opacity="0"/>
</linearGradient>
<linearGradient id="paint26_linear_21992_14675" x1="259.809" y1="12.9556" x2="259.809" y2="752" gradientUnits="userSpaceOnUse">
<stop stop-color="#294DFF" stop-opacity="0"/>
<stop offset="0.518583" stop-color="#294DFF"/>
<stop offset="1" stop-color="#294DFF" stop-opacity="0"/>
</linearGradient>
<linearGradient id="paint27_linear_21992_14675" x1="203.166" y1="12.9556" x2="203.166" y2="752" gradientUnits="userSpaceOnUse">
<stop stop-color="#294DFF" stop-opacity="0"/>
<stop offset="0.518583" stop-color="#294DFF"/>
<stop offset="1" stop-color="#294DFF" stop-opacity="0"/>
</linearGradient>
<linearGradient id="paint28_linear_21992_14675" x1="130.34" y1="12.9556" x2="130.34" y2="752" gradientUnits="userSpaceOnUse">
<stop stop-color="#294DFF" stop-opacity="0"/>
<stop offset="0.518583" stop-color="#294DFF"/>
<stop offset="1" stop-color="#294DFF" stop-opacity="0"/>
</linearGradient>
<linearGradient id="paint29_linear_21992_14675" x1="41.3286" y1="12.9556" x2="41.3286" y2="752" gradientUnits="userSpaceOnUse">
<stop stop-color="#294DFF" stop-opacity="0"/>
<stop offset="0.518583" stop-color="#294DFF"/>
<stop offset="1" stop-color="#294DFF" stop-opacity="0"/>
</linearGradient>
<linearGradient id="paint30_linear_21992_14675" x1="275.993" y1="12.9556" x2="275.993" y2="752" gradientUnits="userSpaceOnUse">
<stop stop-color="#294DFF" stop-opacity="0"/>
<stop offset="0.518583" stop-color="#294DFF"/>
<stop offset="1" stop-color="#294DFF" stop-opacity="0"/>
</linearGradient>
<linearGradient id="paint31_linear_21992_14675" x1="219.35" y1="12.9556" x2="219.35" y2="752" gradientUnits="userSpaceOnUse">
<stop stop-color="#294DFF" stop-opacity="0"/>
<stop offset="0.518583" stop-color="#294DFF"/>
<stop offset="1" stop-color="#294DFF" stop-opacity="0"/>
</linearGradient>
<linearGradient id="paint32_linear_21992_14675" x1="146.523" y1="12.9556" x2="146.523" y2="752" gradientUnits="userSpaceOnUse">
<stop stop-color="#294DFF" stop-opacity="0"/>
<stop offset="0.518583" stop-color="#294DFF"/>
<stop offset="1" stop-color="#294DFF" stop-opacity="0"/>
</linearGradient>
<linearGradient id="paint33_linear_21992_14675" x1="57.5127" y1="12.9556" x2="57.5126" y2="752" gradientUnits="userSpaceOnUse">
<stop stop-color="#294DFF" stop-opacity="0"/>
<stop offset="0.518583" stop-color="#294DFF"/>
<stop offset="1" stop-color="#294DFF" stop-opacity="0"/>
</linearGradient>
<linearGradient id="paint34_linear_21992_14675" x1="227.442" y1="12.9556" x2="227.442" y2="752" gradientUnits="userSpaceOnUse">
<stop stop-color="#294DFF" stop-opacity="0"/>
<stop offset="0.518583" stop-color="#294DFF"/>
<stop offset="1" stop-color="#294DFF" stop-opacity="0"/>
</linearGradient>
<linearGradient id="paint35_linear_21992_14675" x1="154.615" y1="12.9556" x2="154.615" y2="752" gradientUnits="userSpaceOnUse">
<stop stop-color="#294DFF" stop-opacity="0"/>
<stop offset="0.518583" stop-color="#294DFF"/>
<stop offset="1" stop-color="#294DFF" stop-opacity="0"/>
</linearGradient>
<linearGradient id="paint36_linear_21992_14675" x1="170.798" y1="12.9556" x2="170.798" y2="752" gradientUnits="userSpaceOnUse">
<stop stop-color="#294DFF" stop-opacity="0"/>
<stop offset="0.518583" stop-color="#294DFF"/>
<stop offset="1" stop-color="#294DFF" stop-opacity="0"/>
</linearGradient>
<linearGradient id="paint37_linear_21992_14675" x1="73.6958" y1="12.9556" x2="73.6957" y2="752" gradientUnits="userSpaceOnUse">
<stop stop-color="#294DFF" stop-opacity="0"/>
<stop offset="0.518583" stop-color="#294DFF"/>
<stop offset="1" stop-color="#294DFF" stop-opacity="0"/>
</linearGradient>
<linearGradient id="paint38_linear_21992_14675" x1="97.9714" y1="12.9556" x2="97.9714" y2="752" gradientUnits="userSpaceOnUse">
<stop stop-color="#294DFF" stop-opacity="0"/>
<stop offset="0.518583" stop-color="#294DFF"/>
<stop offset="1" stop-color="#294DFF" stop-opacity="0"/>
</linearGradient>
<linearGradient id="paint39_linear_21992_14675" x1="8.96141" y1="12.9556" x2="8.96137" y2="752" gradientUnits="userSpaceOnUse">
<stop stop-color="#294DFF" stop-opacity="0"/>
<stop offset="0.518583" stop-color="#294DFF"/>
<stop offset="1" stop-color="#294DFF" stop-opacity="0"/>
</linearGradient>
<linearGradient id="paint40_linear_21992_14675" x1="0.909649" y1="12.9556" x2="0.909613" y2="752" gradientUnits="userSpaceOnUse">
<stop stop-color="#294DFF" stop-opacity="0"/>
<stop offset="0.518583" stop-color="#294DFF"/>
<stop offset="1" stop-color="#294DFF" stop-opacity="0"/>
</linearGradient>
</defs>
</svg>
