<svg width="180" height="76" viewBox="0 0 180 76" fill="none" xmlns="http://www.w3.org/2000/svg">
<path fill-rule="evenodd" clip-rule="evenodd" d="M52.3757 26.3005C52.1247 25.0206 51.8703 23.8254 51.673 22.6181C51.6436 22.4436 51.8461 22.1034 52.0157 22.0412C55.3716 20.8287 58.7241 19.542 62.4124 20.2985C62.9974 20.4194 63.5876 20.5455 64.1501 20.7441C67.262 21.8374 68.5012 24.233 67.7847 27.7686C66.9522 31.8689 66.1024 35.9658 65.2612 40.0644C65.2093 40.3218 65.1747 40.5843 65.1176 40.9349H68.7782C68.4407 42.5723 68.1361 44.1147 67.7882 45.6502C67.7518 45.8091 67.4645 46.0232 67.2932 46.025C64.4218 46.0492 61.5522 46.0422 58.5857 46.0422C58.6809 45.4809 58.7605 45.0232 58.8574 44.4515C58.5147 44.6035 58.2551 44.7123 58.0007 44.8298C55.9982 45.7573 53.9386 46.4222 51.6886 46.3739C47.0259 46.2737 44.3086 42.6552 45.2466 38.0903C46.1345 33.774 50.5566 30.1124 55.5793 29.8187C57.6459 29.6978 59.6397 29.9776 61.7374 30.7445C61.9728 29.4232 62.2687 28.1572 62.402 26.8722C62.4903 26.0293 61.8966 25.5025 61.1316 25.2192C59.6761 24.6803 58.1893 24.6838 56.7078 25.0672C55.2903 25.4351 53.8901 25.8669 52.3757 26.3005ZM56.3634 34.6324C53.4332 34.6272 51.6211 35.7551 50.8405 37.9694C50.1568 39.9055 51.1745 41.4116 53.2238 41.4911C54.9303 41.5567 56.4205 40.8866 57.928 40.1957C59.5739 39.4392 60.5484 38.2889 60.4982 36.4304C60.4912 36.1731 60.3372 35.8017 60.1347 35.686C58.9266 34.9882 57.6234 34.572 56.3634 34.6324ZM15.0508 46.0286C17.1069 36.0921 19.1579 26.1797 21.2296 16.1707H17.19C17.5465 14.345 17.8806 12.6385 18.2337 10.825H19.2219C23.5402 10.825 27.8585 10.8129 32.1767 10.8371C33.1615 10.8423 34.1533 10.9304 35.1311 11.0616C39.9306 11.7093 42.5215 15.7907 41.5108 20.4489C40.9067 23.2331 39.5688 25.5027 37.1856 27.2575C38.8938 28.4717 40.0413 30.0348 40.1469 32.104C40.3962 36.9885 38.6169 40.9317 34.4215 43.6244C32.156 45.0786 29.6238 45.8593 26.9515 45.9561C23.1473 46.0925 19.3362 46.0649 15.5285 46.1046C15.4125 46.1063 15.2965 46.0683 15.0508 46.0286ZM24.9854 25.2937C27.1748 25.159 29.2863 25.209 31.3269 24.8532C33.4783 24.4784 35.0862 23.1761 35.73 20.9619C36.4379 18.5196 35.4427 16.6836 32.9262 16.3555C30.9635 16.0981 28.9385 16.3036 26.8633 16.3036C26.2644 19.1725 25.6483 22.1191 24.9854 25.2937ZM23.9435 30.2162C23.1992 33.8813 22.4896 37.3719 21.7973 40.7779C23.9988 40.7779 26.1069 40.9386 28.1804 40.7417C31.5121 40.4239 33.5077 38.6639 34.2398 35.7656C34.9858 32.819 33.8815 30.9589 30.87 30.5616C28.6269 30.2663 26.3371 30.3233 23.9435 30.2162ZM143.332 14.5599C142.149 13.2904 140.995 12.0503 139.846 10.8153C144.145 5.04305 150.713 5.79092 154.114 9.21249C155.731 10.8395 158.007 10.7272 159.665 9.10886C160.222 8.56652 160.741 7.98446 161.51 7.17786C162.11 7.88773 162.618 8.5458 163.187 9.1434C163.763 9.74792 164.402 10.2937 164.994 10.8481C161.153 16.6152 154.445 17.2301 149.836 12.489C148.787 11.4095 146.62 11.4319 145.54 12.489C144.839 13.1764 144.109 13.8345 143.332 14.5599ZM110.12 56.009C110.326 55.6083 110.463 55.3216 110.617 55.047C112.571 51.5805 114.54 48.1226 116.461 44.6389C116.681 44.2434 116.764 43.6717 116.679 43.2243C115.617 37.706 114.499 32.1962 113.431 26.6778C113.306 26.0284 113.099 25.759 112.403 25.7987C111.33 25.8592 110.251 25.8143 109.069 25.8143C109.405 24.1803 109.703 22.6328 110.063 21.1007C110.104 20.9194 110.478 20.6983 110.7 20.6949C112.919 20.6638 115.139 20.6966 117.358 20.6638C117.981 20.6534 117.993 21.0299 118.076 21.4514C119.035 26.3825 120.003 31.3119 120.972 36.2396C120.986 36.3173 121.031 36.3864 121.126 36.6109C123.248 32.9976 125.309 29.4863 127.459 25.8246H124.617C124.985 24.0473 125.328 22.3944 125.676 20.7173H137.933C137.679 21.9367 137.431 23.1146 137.189 24.2943C136.876 25.8142 136.864 25.9421 135.361 25.7814C133.615 25.5932 132.63 26.1839 131.81 27.7729C130.287 30.7177 128.483 33.5192 126.81 36.3881C123.166 42.6405 119.521 48.8912 115.909 55.1609C115.527 55.8225 115.11 56.0643 114.353 56.028C112.988 55.9624 111.617 56.009 110.12 56.009ZM156.354 40.9289H160.014C159.675 42.568 159.369 44.1087 159.021 45.6424C158.985 45.803 158.704 46.0224 158.536 46.0241C155.663 46.0483 152.79 46.0414 149.815 46.0414C149.912 45.4921 149.992 45.0379 150.097 44.4282C149.718 44.6044 149.439 44.7374 149.159 44.8652C147.209 45.7581 145.204 46.4075 143.018 46.3747C138.257 46.3056 135.503 42.6492 136.499 38.0082C137.412 33.7524 141.808 30.1167 146.807 29.8179C148.903 29.6918 150.921 30.001 152.953 30.7247C153.192 29.5225 153.453 28.3878 153.633 27.2409C153.787 26.2564 153.365 25.607 152.373 25.227C150.924 24.6708 149.433 24.6829 147.951 25.0646C146.535 25.4308 145.137 25.8626 143.617 26.2979C143.349 24.9524 143.082 23.6173 142.802 22.2027C146.587 20.8002 150.303 19.4098 154.428 20.4496C158.178 21.3961 159.8 23.8677 159.037 27.6692C158.211 31.7713 157.356 35.8682 156.515 39.9669C156.456 40.2536 156.418 40.5455 156.354 40.9289ZM147.531 34.3818C147.503 34.4647 147.476 34.5493 147.448 34.6323C144.71 34.6253 142.941 35.6997 142.112 37.8725C141.347 39.8777 142.387 41.4357 144.532 41.4927C146.268 41.5393 147.772 40.8242 149.305 40.1213C150.92 39.3786 151.747 38.1989 151.73 36.4493C151.727 36.1729 151.519 35.7377 151.301 35.653C150.061 35.1832 148.791 34.7963 147.531 34.3818ZM109.184 10.8464C108.825 12.6444 108.489 14.3371 108.136 16.1109C106.979 16.1109 105.874 16.1247 104.768 16.104C104.325 16.0971 104.078 16.18 103.972 16.6947C102.337 24.6916 100.675 32.685 99.0222 40.6785C99.01 40.732 99.0412 40.7942 99.0654 40.9358H102.987C102.65 42.5749 102.345 44.1207 101.997 45.6562C101.961 45.8151 101.67 46.0241 101.497 46.0258C98.5323 46.0483 95.5693 46.0414 92.4868 46.0414C92.5958 45.3885 92.6893 44.8203 92.7689 44.3436C91.2337 44.9101 89.7123 45.575 88.1287 46.0293C86.2577 46.5664 84.3245 46.5146 82.4275 46.0777C78.1179 45.0828 75.3556 41.58 75.1393 36.8873C74.8295 30.1702 79.48 23.1267 85.8285 20.9073C89.8335 19.5065 93.7243 19.6136 97.3104 22.5343C98.1204 18.5894 98.9114 14.743 99.711 10.8464H109.184ZM80.5832 35.1634C80.5607 38.5055 82.5771 41.0254 85.5159 41.3087C87.6361 41.5142 89.5711 40.9995 91.2482 39.6834C94.0919 37.4536 95.3571 34.3999 95.3207 30.9024C95.2792 26.7951 91.8436 24.3304 87.8455 25.3149C83.8215 26.3029 80.6144 30.6537 80.5832 35.1634ZM139.164 75.3086C139.538 75.3933 139.835 75.4589 140.183 75.5366C139.629 76.0392 138.193 76.06 137.482 75.5591C137.855 75.4693 138.148 75.3984 138.549 75.3017C138.549 73.5469 138.549 71.7627 138.549 69.9785C138.549 69.6504 138.511 69.3153 138.562 68.994C138.6 68.7436 138.745 68.5087 138.844 68.2669C138.951 68.4983 139.145 68.7263 139.15 68.9595C139.178 70.393 139.164 71.8266 139.164 73.2602C139.164 73.9424 139.164 74.6229 139.164 75.3086ZM146.037 75.7905H144.375C144.367 75.7007 144.358 75.6109 144.349 75.5211C144.666 75.4641 144.983 75.4054 145.36 75.3363V68.8489H143.295C143.235 69.4224 143.171 70.0286 143.107 70.6349C143.013 70.6314 142.918 70.6279 142.824 70.6245V68.3031H148.792C148.764 68.8006 148.74 69.2669 148.714 69.7333C148.609 69.7333 148.503 69.7315 148.398 69.7315C148.327 69.4396 148.257 69.146 148.178 68.8196H146.037V75.7905ZM157.321 68.9077C156.968 68.7816 156.684 68.6797 156.399 68.5778C156.416 68.5 156.432 68.4223 156.449 68.3446H158.983C156.399 70.2272 155.225 72.6488 155.755 75.7922H154.005C153.997 75.7059 153.986 75.6213 153.976 75.5349C154.289 75.4693 154.604 75.4053 154.964 75.3311C155.476 72.293 154.102 70.1288 151.731 68.3446C152.489 68.1771 153.126 68.0942 153.59 68.9629C154.106 69.9336 154.756 70.8352 155.424 71.8888C156.091 70.8421 156.702 69.8818 157.321 68.9077ZM134.28 69.1875C134.354 69.1339 134.505 69.0268 134.787 68.8248V70.8387C132.725 68.26 130.588 67.4257 128.689 70.6659C127.753 72.2636 128.62 74.388 130.145 75.1428C131.874 75.9995 133.397 75.357 134.932 73.2187C134.932 73.4657 135.014 73.7507 134.92 73.958C134.228 75.4814 132.822 76.1688 130.896 75.965C129.399 75.8078 128.165 74.6471 127.841 73.0909C127.182 69.925 129.678 67.3981 132.604 68.3031C133.184 68.481 133.698 68.8731 134.28 69.1875ZM97.5389 68.3049V75.2983C97.892 75.3794 98.1879 75.4468 98.5168 75.5211C98.0598 76.0289 96.6406 76.0772 95.8566 75.5763C97.307 75.5124 96.9002 74.5107 96.9106 73.7421C96.9296 72.1306 96.9037 70.5209 96.9314 68.9111C96.9348 68.6728 97.1304 68.4361 97.2377 68.1995C97.3381 68.2358 97.4385 68.2703 97.5389 68.3049ZM87.3637 68.2824H93.3798V69.7022C93.3002 69.7177 93.2206 69.7333 93.141 69.7488C93.0475 69.4483 92.9541 69.1495 92.8485 68.8109H90.7941V75.7732H89.0927C89.0893 75.6903 89.0858 75.6057 89.0806 75.5228C89.4008 75.4572 89.7193 75.3933 90.0862 75.319V68.8317H87.9643C87.9193 69.4275 87.8725 70.0217 87.8275 70.6159C87.7081 70.6176 87.5887 70.6176 87.4693 70.6193C87.4347 69.8766 87.4018 69.1357 87.3637 68.2824ZM100.878 68.3688C102.383 68.1218 102.383 68.1218 102.851 69.336C103.557 71.1737 104.263 73.0097 105.045 75.0426C105.841 72.8923 106.572 70.9216 107.318 68.9042C106.985 68.7971 106.693 68.7021 106.4 68.6071C106.413 68.526 106.426 68.443 106.44 68.3619H108.946C108.868 68.5208 108.81 68.7056 108.775 68.7004C107.816 68.5829 107.705 69.3274 107.477 69.9543C106.819 71.7472 106.169 73.5434 105.49 75.3294C105.398 75.5694 105.156 75.7542 104.985 75.9632C104.812 75.7491 104.574 75.5591 104.479 75.3138C103.752 73.4502 103.048 71.5796 102.349 69.7056C102.146 69.1667 101.996 68.6071 101.217 68.7367C101.149 68.747 101.051 68.5605 100.878 68.3688ZM113.817 72.1548V75.452H118.388C117.863 75.965 115.217 76.0962 113.169 75.8268V68.9284C112.754 68.7919 112.437 68.69 112.122 68.5864C112.14 68.5035 112.157 68.4223 112.174 68.3411H118.213V70.0442C118.109 70.0631 118.003 70.0822 117.9 70.0994C117.83 69.7039 117.763 69.3066 117.682 68.8368H113.832V71.7713H116.962C116.962 71.8992 116.963 72.027 116.963 72.1548H113.817ZM56.6893 69.2203V70.7799C55.9848 70.1219 55.4673 69.3412 54.7473 69.0458C54.0118 68.7436 53.0495 68.7643 52.2429 68.9249C51.3187 69.1097 50.7579 69.8973 50.4464 70.7868C49.8354 72.5313 50.5658 74.4813 52.0681 75.1791C53.7902 75.9771 55.2891 75.3259 56.5283 73.2412C56.6166 73.2377 56.7031 73.2343 56.7897 73.2308C56.7897 73.4761 56.8693 73.7576 56.7775 73.9614C56.106 75.4537 54.7525 76.129 52.8366 75.9701C51.4122 75.851 50.1885 74.8734 49.8077 73.4191C49.3975 71.8646 49.5239 70.3671 50.7458 69.1719C51.7999 68.1425 53.0875 67.8903 54.4877 68.3014C54.8546 68.4102 55.1783 68.652 55.5331 68.804C55.855 68.9422 56.1925 69.0441 56.6893 69.2203ZM83.3327 68.6209C83.0489 68.7004 82.765 68.7781 82.3929 68.8818C83.125 70.9578 83.8295 73.0391 84.6187 75.0875C84.7191 75.3449 85.2729 75.4278 85.6139 75.5902C85.1379 76.0513 83.6893 76.0686 83.0541 75.5487C83.3777 75.4641 83.6425 75.395 83.9887 75.3052C83.7689 74.6592 83.6806 73.9234 83.3016 73.3949C82.6508 72.4881 81.6002 73.1479 80.7366 73.0166C80.5012 72.9804 80.0702 73.2602 79.9664 73.4985C79.6445 74.2291 79.4385 75.0116 79.1408 75.9131C78.7133 75.8924 78.2149 75.87 77.7164 75.8458C77.68 75.7318 77.6437 75.6195 77.6073 75.5055C78.8535 75.6005 78.9106 74.6834 79.1685 73.9372C79.7241 72.331 80.3195 70.735 80.8145 69.1097C81.0308 68.4016 81.3735 68.1425 82.0883 68.2392C82.4795 68.2928 82.8845 68.2496 83.2843 68.2496C83.2998 68.374 83.3172 68.4983 83.3327 68.6209ZM83.006 72.4373C82.5646 71.1454 82.151 69.9364 81.6629 68.5045C81.1662 69.9588 80.756 71.1609 80.3198 72.4373H83.006ZM69.6025 68.8697C69.1439 68.7712 68.8548 68.709 68.5675 68.6469C68.5762 68.557 68.5831 68.4672 68.5918 68.3757H74.6321V70.0528C74.5352 70.0701 74.4366 70.0873 74.3397 70.1046C74.2652 69.697 74.1908 69.2894 74.106 68.8248H70.255V71.8145H73.3998C73.3929 71.932 73.3877 72.0494 73.3808 72.1686H70.2689V75.4295H74.7948C74.3431 75.9581 71.7971 76.1014 69.6025 75.8354V68.8697ZM60.3948 68.861C59.9258 68.7729 59.5831 68.709 59.2404 68.6451C59.2422 68.5536 59.2456 68.462 59.2473 68.3705C59.4516 68.3308 59.6558 68.2582 59.86 68.2548C60.8483 68.2427 61.8348 68.2427 62.8231 68.2513C64.1021 68.2634 64.8793 68.7764 65.0887 69.7315C65.3033 70.7091 64.8256 71.4449 63.6366 71.9752C63.5829 71.9993 63.5379 72.0408 63.4116 72.1254C63.8581 73.103 64.2614 74.122 64.791 75.0703C64.9433 75.3449 65.4608 75.4174 65.8035 75.5781C65.4781 76.1049 64.5747 76.1049 64.2735 75.5038C63.8997 74.7577 63.576 73.9856 63.2316 73.2239C62.6483 71.9389 62.6483 71.9389 61.0266 72.1738C61.0266 73.2187 61.0387 74.2827 61.0145 75.3466C61.0093 75.5366 60.8518 75.7232 60.7635 75.9114C60.6406 75.7232 60.4139 75.5349 60.4122 75.3432C60.3862 73.1963 60.3948 71.0477 60.3948 68.861ZM61.0787 71.5888C61.8973 71.5525 62.6727 71.5836 63.4239 71.4644C64.1231 71.3521 64.4796 70.8461 64.4675 70.1155C64.4554 69.4194 64.0746 68.9358 63.4325 68.8512C62.6589 68.7475 61.861 68.827 61.0787 68.827V71.5888ZM17.3437 68.8265V75.7991H15.6891C15.6787 75.7024 15.6666 75.6074 15.6562 75.5124C15.9712 75.4589 16.2862 75.4071 16.667 75.3432V68.8196H14.6125C14.552 69.4189 14.4879 70.0303 14.4256 70.6418C14.3304 70.6383 14.237 70.6331 14.1418 70.6279V68.3083H20.106C20.0835 68.7902 20.061 69.2617 20.0385 69.7315C19.9312 69.735 19.8239 69.7384 19.7166 69.7436C19.6456 69.4552 19.5747 69.1685 19.4898 68.8265H17.3437ZM39.5287 68.8213H35.6812V71.8145H38.8139C38.8087 71.9337 38.8018 72.0529 38.7949 72.1721H35.6933V75.4278H40.2124C39.7883 75.965 36.7093 76.1204 34.9923 75.7888V68.899C34.5891 68.7816 34.2879 68.6952 33.9868 68.6089C34.0041 68.5242 34.0197 68.4396 34.0352 68.355H40.0808V70.0407C39.9804 70.0631 39.88 70.0856 39.7797 70.1063C39.6983 69.6953 39.6187 69.2842 39.5287 68.8213ZM24.7964 72.2446V75.7732H23.2231C23.2197 75.6921 23.2162 75.6109 23.211 75.5297C23.4758 75.4693 23.7389 75.4105 24.0695 75.3345V68.8731C23.7666 68.7799 23.4741 68.69 23.1833 68.6019C23.1972 68.5035 23.211 68.4068 23.2266 68.3101C23.7008 68.2876 24.175 68.2651 24.7791 68.2375V71.609H28.8931V68.8662C28.5868 68.7902 28.2718 68.709 27.955 68.6296C27.9637 68.5467 27.9706 68.4655 27.9793 68.3826H30.4681C30.4941 68.4344 30.52 68.4862 30.5443 68.538C30.2691 68.6503 29.9939 68.7626 29.6079 68.9215V75.7715H28.007C28 75.6921 27.9914 75.6126 27.9845 75.5332C28.2787 75.4658 28.5712 75.4002 28.9156 75.3224V72.2446H24.7964ZM3.06 0C3.04096 0.386891 3.00289 0.773781 3.00289 1.15894C3.00115 19.6036 3.00116 38.0483 3.00116 56.493C3.00116 56.8764 3.00116 57.2581 3.00116 57.8402H0V0H3.06ZM180 0V57.7106H177.155C177.134 57.4429 177.098 57.1856 177.098 56.9265C177.096 38.1312 177.096 19.3342 177.098 0.537158C177.098 0.359257 177.111 0.179628 177.12 0H180Z" fill="#252832"/>
</svg>
