<svg width="279" height="127" viewBox="0 0 279 127" fill="none" xmlns="http://www.w3.org/2000/svg">
<path opacity="0.5" fill-rule="evenodd" clip-rule="evenodd" d="M301.637 115.215L299.86 113.438L140.055 273.243L141.832 275.02L301.637 115.215ZM184.347 -2.07542L182.57 -3.85256L22.7645 155.953L24.5416 157.73L184.347 -2.07542ZM242.992 56.5697L241.215 54.7926L81.4096 214.598L83.1867 216.375L242.992 56.5697ZM125.702 -60.7206L123.925 -62.4977L-35.8807 97.3079L-34.1035 99.085L125.702 -60.7206ZM272.315 85.8923L270.538 84.1152L110.732 243.921L112.509 245.698L272.315 85.8923ZM155.025 -31.398L153.247 -33.1751L-6.55809 126.63L-4.78096 128.408L155.025 -31.398ZM213.67 27.2471L211.893 25.47L52.087 185.276L53.8642 187.053L213.67 27.2471ZM96.3795 -90.0431L94.6024 -91.8202L-65.2032 67.9853L-63.4261 69.7624L96.3795 -90.0431ZM286.976 100.554L285.199 98.7764L125.393 258.582L127.171 260.359L286.976 100.554ZM169.686 -16.7367L167.909 -18.5138L8.10318 141.292L9.88032 143.069L169.686 -16.7367ZM228.331 41.9084L226.554 40.1313L66.7483 199.937L68.5255 201.714L228.331 41.9084ZM111.041 -75.3818L109.264 -77.159L-50.5419 82.6466L-48.7648 84.4237L111.041 -75.3818ZM257.654 71.231L255.876 69.4539L96.0709 229.259L97.848 231.037L257.654 71.231ZM140.363 -46.0593L138.586 -47.8364L-21.2194 111.969L-19.4422 113.746L140.363 -46.0593ZM199.008 12.5859L197.231 10.8087L37.4258 170.614L39.2029 172.391L199.008 12.5859ZM81.7182 -104.704L79.9411 -106.482L-79.8645 53.324L-78.0874 55.1012L81.7182 -104.704ZM296.75 110.328L294.973 108.551L135.168 268.356L136.945 270.133L296.75 110.328ZM179.46 -6.96252L177.683 -8.73965L17.8774 151.066L19.6545 152.843L179.46 -6.96252ZM238.105 51.6826L236.328 49.9055L76.5225 209.711L78.2996 211.488L238.105 51.6826ZM120.815 -65.6076L119.038 -67.3848L-40.7678 92.4208L-38.9906 94.1979L120.815 -65.6076ZM267.428 81.0052L265.651 79.2281L105.845 239.034L107.622 240.811L267.428 81.0052ZM150.138 -36.2851L148.36 -38.0622L-11.4452 121.743L-9.66805 123.52L150.138 -36.2851ZM208.783 22.36L207.006 20.5829L47.1999 180.388L48.9771 182.166L208.783 22.36ZM91.4924 -94.9302L89.7153 -96.7074L-70.0903 63.0982L-68.3132 64.8754L91.4924 -94.9302ZM282.089 95.6665L280.312 93.8893L120.506 253.695L122.283 255.472L282.089 95.6665ZM164.799 -21.6238L163.022 -23.4009L3.2161 136.405L4.99322 138.182L164.799 -21.6238ZM223.444 37.0213L221.667 35.2442L61.8612 195.05L63.6384 196.827L223.444 37.0213ZM106.154 -80.2689L104.377 -82.0461L-55.429 77.7595L-53.6519 79.5366L106.154 -80.2689ZM252.767 66.3439L250.989 64.5668L91.1838 224.372L92.9609 226.149L252.767 66.3439ZM135.476 -50.9464L133.699 -52.7235L-26.1065 107.082L-24.3293 108.859L135.476 -50.9464ZM194.121 7.69876L192.344 5.92164L32.5387 165.727L34.3158 167.504L194.121 7.69876ZM76.8311 -109.591L75.054 -111.369L-84.7516 48.4369L-82.9745 50.2141L76.8311 -109.591ZM291.863 105.441L290.086 103.664L130.281 263.469L132.058 265.246L291.863 105.441ZM174.573 -11.8496L172.796 -13.6267L12.9903 146.179L14.7674 147.956L174.573 -11.8496ZM233.218 46.7955L231.441 45.0184L71.6354 204.824L73.4125 206.601L233.218 46.7955ZM115.928 -70.4947L114.151 -72.2719L-45.6549 87.5337L-43.8777 89.3108L115.928 -70.4947ZM262.541 76.1181L260.764 74.341L100.958 234.147L102.735 235.924L262.541 76.1181ZM145.25 -41.1722L143.473 -42.9493L-16.3323 116.856L-14.5552 118.633L145.25 -41.1722ZM203.896 17.4729L202.118 15.6958L42.3129 175.501L44.09 177.279L203.896 17.4729ZM86.6053 -99.8173L84.8282 -101.594L-74.9774 58.2111L-73.2003 59.9883L86.6053 -99.8173ZM277.202 90.7794L275.425 89.0022L115.619 248.808L117.396 250.585L277.202 90.7794ZM159.912 -26.5109L158.135 -28.288L-1.67099 131.518L0.106122 133.295L159.912 -26.5109ZM218.557 32.1342L216.78 30.3571L56.9741 190.163L58.7513 191.94L218.557 32.1342ZM101.267 -85.156L99.4895 -86.9331L-60.3161 72.8724L-58.539 74.6495L101.267 -85.156ZM247.879 61.4568L246.102 59.6797L86.2967 219.485L88.0738 221.262L247.879 61.4568ZM130.589 -55.8335L128.812 -57.6106L-30.9936 102.195L-29.2164 103.972L130.589 -55.8335ZM189.234 2.81167L187.457 1.03455L27.6516 160.84L29.4287 162.617L189.234 2.81167ZM71.944 -114.479L70.1669 -116.256L-89.6387 43.5498L-87.8616 45.327L71.944 -114.479Z" fill="#294CFF"/>
</svg>
