<svg width="438" height="199" viewBox="0 0 438 199" fill="none" xmlns="http://www.w3.org/2000/svg">
<path opacity="0.5" fill-rule="evenodd" clip-rule="evenodd" d="M474.006 181.377L471.214 178.585L220.091 429.707L222.884 432.5L474.006 181.377ZM289.693 -2.93576L286.9 -5.72839L35.7779 245.394L38.5705 248.187L289.693 -2.93576ZM381.85 89.2208L379.057 86.4282L127.934 337.551L130.727 340.343L381.85 89.2208ZM197.536 -95.0923L194.744 -97.885L-56.3787 153.238L-53.5861 156.03L197.536 -95.0923ZM427.928 135.299L425.135 132.507L174.013 383.629L176.805 386.422L427.928 135.299ZM243.615 -49.0141L240.822 -51.8067L-10.3004 199.316L-7.5078 202.109L243.615 -49.0141ZM335.771 43.1425L332.979 40.3499L81.8562 291.472L84.6488 294.265L335.771 43.1425ZM151.458 -141.171L148.666 -143.963L-102.457 107.159L-99.6644 109.952L151.458 -141.171ZM450.967 158.338L448.174 155.546L197.052 406.668L199.845 409.461L450.967 158.338ZM266.654 -25.9749L263.861 -28.7675L12.7387 222.355L15.5314 225.148L266.654 -25.9749ZM358.811 66.1817L356.018 63.3891L104.895 314.512L107.688 317.304L358.811 66.1817ZM174.497 -118.132L171.705 -120.924L-79.4179 130.198L-76.6253 132.991L174.497 -118.132ZM404.889 112.26L402.096 109.467L150.974 360.59L153.766 363.383L404.889 112.26ZM220.576 -72.0532L217.783 -74.8458L-33.3396 176.277L-30.5469 179.069L220.576 -72.0532ZM312.732 20.1034L309.94 17.3108L58.817 268.433L61.6096 271.226L312.732 20.1034ZM128.419 -164.21L125.626 -167.002L-125.496 84.1201L-122.704 86.9127L128.419 -164.21ZM466.327 173.698L463.534 170.905L212.411 422.028L215.204 424.82L466.327 173.698ZM282.013 -10.6155L279.221 -13.4081L28.0982 237.714L30.8908 240.507L282.013 -10.6155ZM374.17 81.5411L371.377 78.7485L120.255 329.871L123.047 332.664L374.17 81.5411ZM189.857 -102.772L187.064 -105.565L-64.0584 145.558L-61.2658 148.35L189.857 -102.772ZM420.248 127.619L417.456 124.827L166.333 375.949L169.126 378.742L420.248 127.619ZM235.935 -56.6938L233.142 -59.4864L-17.9801 191.636L-15.1875 194.429L235.935 -56.6938ZM328.092 35.4628L325.299 32.6702L74.1765 283.793L76.9691 286.585L328.092 35.4628ZM143.778 -148.85L140.986 -151.643L-110.137 99.4796L-107.344 102.272L143.778 -148.85ZM443.287 150.659L440.495 147.866L189.372 398.989L192.165 401.781L443.287 150.659ZM258.974 -33.6546L256.182 -36.4472L5.05902 214.675L7.85164 217.468L258.974 -33.6546ZM351.131 58.502L348.338 55.7094L97.2156 306.832L100.008 309.625L351.131 58.502ZM166.818 -125.811L164.025 -128.604L-87.0976 122.519L-84.3049 125.311L166.818 -125.811ZM397.209 104.58L394.416 101.788L143.294 352.91L146.087 355.703L397.209 104.58ZM212.896 -79.7329L210.103 -82.5256L-41.0193 168.597L-38.2267 171.39L212.896 -79.7329ZM305.052 12.4237L302.26 9.63105L51.1373 260.754L53.9299 263.546L305.052 12.4237ZM120.739 -171.89L117.947 -174.682L-133.176 76.4404L-130.383 79.2331L120.739 -171.89ZM458.647 166.018L455.854 163.225L204.732 414.348L207.524 417.141L458.647 166.018ZM274.334 -18.2952L271.541 -21.0878L20.4185 230.035L23.2111 232.827L274.334 -18.2952ZM366.49 73.8614L363.698 71.0688L112.575 322.191L115.368 324.984L366.49 73.8614ZM182.177 -110.452L179.384 -113.244L-71.7382 137.878L-68.9455 140.671L182.177 -110.452ZM412.569 119.94L409.776 117.147L158.653 368.27L161.446 371.062L412.569 119.94ZM228.255 -64.3735L225.463 -67.1661L-25.6598 183.956L-22.8672 186.749L228.255 -64.3735ZM320.412 27.7831L317.619 24.9905L66.4967 276.113L69.2894 278.906L320.412 27.7831ZM136.099 -156.53L133.306 -159.323L-117.816 91.7998L-115.024 94.5925L136.099 -156.53ZM435.608 142.979L432.815 140.186L181.692 391.309L184.485 394.101L435.608 142.979ZM251.294 -41.3343L248.502 -44.127L-2.62069 206.996L0.171913 209.788L251.294 -41.3343ZM343.451 50.8223L340.658 48.0296L89.5359 299.152L92.3285 301.945L343.451 50.8223ZM159.138 -133.491L156.345 -136.284L-94.7773 114.839L-91.9847 117.632L159.138 -133.491ZM389.529 96.9006L386.737 94.1079L135.614 345.23L138.407 348.023L389.529 96.9006ZM205.216 -87.4126L202.424 -90.2052L-48.699 160.917L-45.9064 163.71L205.216 -87.4126ZM297.373 4.74396L294.58 1.95134L43.4576 253.074L46.2502 255.867L297.373 4.74396ZM113.06 -179.569L110.267 -182.362L-140.856 68.7607L-138.063 71.5533L113.06 -179.569Z" fill="#294CFF"/>
</svg>
