<svg width="85" height="84" viewBox="0 0 85 84" fill="none" xmlns="http://www.w3.org/2000/svg">
<path fill-rule="evenodd" clip-rule="evenodd" d="M62.7375 27.6126C63.2736 28.125 63.9082 28.7142 64.5225 29.3235C65.1797 29.9757 65.2304 30.7345 64.6806 31.3078C64.1282 31.8838 63.3645 31.8683 62.6919 31.2173C62.0697 30.6145 61.4871 29.9706 60.9288 29.3883C59.9196 29.8213 59.0058 30.2131 57.9923 30.648C57.9923 31.4126 57.9968 32.2751 57.9909 33.1376C57.9847 34.05 57.4712 34.6449 56.6901 34.6596C55.9194 34.674 55.3583 34.0771 55.3217 33.1816C55.3037 32.7365 55.3169 32.29 55.3163 31.8441C55.3158 31.4244 55.3163 31.0044 55.3163 30.6334C54.3459 30.2199 53.4305 29.8295 52.3694 29.3771C51.8584 29.9176 51.2751 30.5585 50.6661 31.1734C49.9957 31.8503 49.2686 31.8996 48.6884 31.3413C48.1075 30.7824 48.1163 30.0255 48.765 29.352C49.3816 28.7117 50.0407 28.112 50.5773 27.5945C50.2019 26.6585 49.8993 25.8511 49.5469 25.0661C49.4672 24.8886 49.2213 24.6827 49.041 24.672C48.2926 24.6275 47.54 24.6619 46.7893 24.6503C45.9386 24.6371 45.3451 24.1002 45.3279 23.3506C45.3102 22.5686 45.9141 22.0092 46.8011 22.0016C47.6667 21.9942 48.5326 21.9999 49.3523 21.9999C49.761 21.0286 50.1469 20.1111 50.6359 18.9489C50.0469 18.4176 49.3134 17.7962 48.6292 17.1247C48.2036 16.7069 48.1368 16.1655 48.4371 15.6345C48.7281 15.1199 49.1915 14.8331 49.7844 14.9621C50.0838 15.0275 50.3909 15.2159 50.6165 15.4306C51.2438 16.0275 51.8305 16.6675 52.379 17.2345C53.3325 16.8619 54.2 16.5402 55.0482 16.1737C55.1823 16.1157 55.2975 15.8588 55.3042 15.6892C55.3324 14.9627 55.3025 14.2342 55.3211 13.5072C55.3456 12.5472 55.8862 11.9768 56.7152 12.0007C57.5042 12.0235 57.985 12.5971 57.9912 13.5323C57.996 14.2128 58.0092 14.894 57.9856 15.5737C57.9723 15.9554 58.0692 16.132 58.4785 16.2579C59.2551 16.4971 59.9954 16.8531 60.9663 17.2483C61.4691 16.7148 62.0911 16.0557 62.7122 15.3962C63.1009 14.9833 63.5736 14.8258 64.118 14.9903C65.0679 15.2776 65.3718 16.3917 64.6896 17.1419C64.1693 17.714 63.6144 18.2571 63.0491 18.7855C62.7646 19.052 62.7144 19.2441 62.9257 19.6151C63.2586 20.1999 63.54 20.8314 63.7248 21.4771C63.8507 21.9165 64.0403 22.0227 64.4518 22.0075C65.1783 21.9804 65.9067 21.988 66.6337 22.0035C67.4413 22.021 67.9841 22.5545 67.9912 23.3072C67.9985 24.0596 67.4613 24.6216 66.6628 24.6469C65.9126 24.6706 65.1605 24.6689 64.4104 24.6464C64.0234 24.6345 63.8572 24.7486 63.7299 25.15C63.4778 25.9438 63.1127 26.7021 62.7375 27.6126ZM56.654 27.9855C59.2196 28.0002 61.3026 25.9517 61.3477 23.3697C61.3925 20.8066 59.2664 18.6523 56.6825 18.6435C54.1155 18.6348 52.0333 20.6971 52.0077 23.2728C51.9818 25.8917 54.0316 27.9706 56.654 27.9855ZM50.9803 47.5189C51.9659 46.1555 52.8977 44.8617 53.8349 43.5713C54.7236 42.3479 55.6408 42.3552 56.5131 43.5808C60.9076 49.7538 65.3086 55.9222 69.6891 62.1048C69.9964 62.5386 70.309 62.7084 70.8394 62.6949C72.0569 62.6634 72.4974 63.1293 72.4983 64.3341C72.5 66.3763 72.5014 68.4186 72.4977 70.4608C72.496 71.5327 72.0293 71.9986 70.9496 71.9989C51.9831 72.0003 33.0164 72.0003 14.0499 71.9989C12.9702 71.9986 12.5024 71.5327 12.5018 70.4608C12.4993 65.6721 12.4995 60.8834 12.5018 56.0946C12.5021 55.0963 12.8393 54.6963 13.8122 54.5101C13.9505 54.4837 14.0899 54.418 14.2248 54.4273C15.5845 54.5228 16.318 53.7451 17.0546 52.6991C22.7818 44.5668 28.5658 36.4746 34.3321 28.3701C35.2425 27.0904 36.3374 27.0749 37.2391 28.3355C41.662 34.5169 46.0833 40.6997 50.5057 46.8817C50.6403 47.0699 50.782 47.253 50.9803 47.5189ZM26.985 54.1797C28.734 48.2183 30.4846 42.2518 32.235 36.2851C32.1925 36.2631 32.1499 36.2411 32.1074 36.2189C27.9078 42.1082 23.7082 47.9975 19.4951 53.9053C22.0429 53.9986 24.4724 54.0876 26.985 54.1797ZM52.6501 49.8535C52.7955 50.0682 52.9208 50.2637 53.056 50.4518C55.4501 53.7825 57.8756 57.0913 60.2203 60.4563C60.8552 61.3673 61.5132 61.9253 62.6769 61.9693C63.9661 62.018 65.2481 62.2648 66.7367 62.451C62.8146 56.9628 59.0221 51.6561 55.1743 46.2721C54.2966 47.5175 53.4788 48.6777 52.6501 49.8535ZM57.3914 61.1777C57.2227 60.927 57.1497 60.813 57.0711 60.7028C54.9546 57.7465 52.8276 54.7977 50.733 51.8262C50.4494 51.4239 50.1536 51.3076 49.6922 51.3107C47.0399 51.3284 44.3876 51.3194 41.7355 51.3191C40.8671 51.3191 39.9981 51.3346 39.1303 51.3124C38.4325 51.2946 37.9185 50.8039 37.8509 50.1487C37.7788 49.449 38.1965 48.8653 38.9128 48.7166C39.208 48.6552 39.5181 48.6468 39.8215 48.6462C42.4268 48.6411 45.0321 48.6431 47.6373 48.6431C47.8768 48.6431 48.1165 48.6431 48.4821 48.6431C44.3817 42.9299 40.3852 37.3614 36.2963 31.6642C35.2712 35.196 34.2952 38.5591 33.2967 42C33.6116 42 33.842 42 34.0724 42C35.6921 42 37.3115 41.9946 38.9311 42.002C39.8807 42.0062 40.5066 42.5487 40.5023 43.3397C40.4984 44.1284 39.8739 44.6606 38.9199 44.6741C38.2864 44.6831 37.6526 44.676 37.0188 44.676C35.5428 44.676 34.0671 44.676 32.5589 44.676C31.5812 48.0104 30.6153 51.3045 29.661 54.5597C38.8266 57.0276 47.8878 59.6868 57.3914 61.1777ZM69.9082 65.3868C69.6229 65.3577 69.3913 65.3349 69.1598 65.3104C66.1542 64.9924 63.1335 64.7769 60.1462 64.3358C51.6981 63.0882 43.3823 61.1859 35.2022 58.7563C28.8399 56.8665 22.4246 56.0842 15.8242 56.9048C15.2645 56.9744 15.1409 57.1639 15.1434 57.6834C15.1626 61.367 15.1533 65.0513 15.155 68.7352C15.155 68.916 15.1738 69.0972 15.1848 69.2975H69.9082V65.3868Z" fill="black" stroke="black"/>
<path fill-rule="evenodd" clip-rule="evenodd" d="M56.6541 27.9856C59.2197 28.0002 61.3027 25.9518 61.3478 23.3698C61.3926 20.8067 59.2665 18.6523 56.6826 18.6436C54.1156 18.6348 52.0334 20.6971 52.0078 23.2729C51.9819 25.8918 54.0317 27.9706 56.6541 27.9856Z" fill="#FFEBB0"/>
<path fill-rule="evenodd" clip-rule="evenodd" d="M52.6501 49.8536C52.7955 50.0683 52.9208 50.2638 53.056 50.4519C55.4501 53.7826 57.8756 57.0914 60.2203 60.4564C60.8552 61.3674 61.5133 61.9255 62.6769 61.9694C63.9661 62.0181 65.2481 62.2649 66.7368 62.4511C62.8146 56.9629 59.0221 51.6562 55.1743 46.2722C54.2966 47.5176 53.4789 48.6779 52.6501 49.8536Z" fill="#EDE1B9"/>
<path fill-rule="evenodd" clip-rule="evenodd" d="M26.985 54.1796C28.734 48.2182 30.4846 42.2517 32.235 36.2849C32.1925 36.263 32.1499 36.241 32.1074 36.2188C27.9078 42.108 23.7082 47.9973 19.4951 53.9052C22.0429 53.9985 24.4724 54.0875 26.985 54.1796Z" fill="#F5EDD7"/>
<path fill-rule="evenodd" clip-rule="evenodd" d="M57.3913 61.1778C57.2226 60.9271 57.1496 60.813 57.071 60.7029C54.9545 57.7466 52.8275 54.7978 50.7329 51.8263C50.4493 51.424 50.1535 51.3077 49.6921 51.3108C47.0398 51.3285 44.3875 51.3195 41.7354 51.3192C40.867 51.3192 39.998 51.3347 39.1302 51.3125C38.4324 51.2947 37.9184 50.804 37.8508 50.1488C37.7787 49.4491 38.1964 48.8654 38.9127 48.7167C39.2079 48.6553 39.518 48.6468 39.8214 48.6463C42.4267 48.6412 45.032 48.6432 47.6372 48.6432C47.8767 48.6432 48.1164 48.6432 48.482 48.6432C44.3816 42.9299 40.3851 37.3615 36.2962 31.6643C35.2711 35.1961 34.2951 38.5592 33.2966 42.0001C33.6115 42.0001 33.8419 42.0001 34.0723 42.0001C35.692 42.0001 37.3114 41.9947 38.931 42.0021C39.8806 42.0063 40.5065 42.5488 40.5022 43.3398C40.4983 44.1285 39.8738 44.6606 38.9198 44.6742C38.2863 44.6832 37.6525 44.6761 37.0187 44.6761C35.5427 44.6761 34.067 44.6761 32.5588 44.6761C31.5811 48.0105 30.6152 51.3046 29.6609 54.5598C38.8265 57.0277 47.8877 59.6868 57.3913 61.1778Z" fill="#F5F0E1"/>
</svg>
