<svg width="40" height="28" viewBox="0 0 40 28" fill="none" xmlns="http://www.w3.org/2000/svg">
<path fill-rule="evenodd" clip-rule="evenodd" d="M17.014 3.41646L24.8263 11.2579C26.3814 12.8188 26.3814 15.3434 24.8263 16.9043L17.014 24.7457C15.4548 26.3108 12.9221 26.3155 11.3571 24.7563C11.3536 24.7528 11.3501 24.7493 11.3466 24.7457L3.53427 16.9043C1.97919 15.3434 1.97919 12.8188 3.53427 11.258L11.3466 3.41646C12.9058 1.85146 15.4384 1.84674 17.0035 3.40593C17.007 3.40943 17.0105 3.41294 17.014 3.41646Z" fill="#294CFF"/>
<g style="mix-blend-mode:multiply">
<path fill-rule="evenodd" clip-rule="evenodd" d="M15.7786 11.5052L23.5909 3.66373C25.1501 2.09872 27.6828 2.09401 29.2478 3.65319C29.2513 3.6567 29.2548 3.66021 29.2583 3.66373L37.0706 11.5052C38.6257 13.0661 38.6257 15.5906 37.0706 17.1515L29.2583 24.993C27.6991 26.558 25.1665 26.5627 23.6015 25.0035C23.5979 25 23.5944 24.9965 23.5909 24.993L15.7786 17.1515C14.2235 15.5906 14.2235 13.0661 15.7786 11.5052Z" fill="#37CC3A"/>
</g>
</svg>
