<svg width="1574" height="352" viewBox="0 0 1574 352" fill="none" xmlns="http://www.w3.org/2000/svg">
<g opacity="0.8">
<path d="M79.7719 155.598C63.3755 155.598 49.1891 152.388 37.2126 145.967C25.3787 139.546 16.1825 130.486 9.62395 118.785C3.20798 107.085 0 93.3874 0 77.692C0 61.9967 3.20798 48.3703 9.62395 36.8128C16.1825 25.1126 25.3787 16.0521 37.2126 9.63125C49.1891 3.21042 63.3755 0 79.7719 0C90.18 0 99.6614 1.42685 108.216 4.28055C116.771 6.99156 123.971 10.9154 129.816 16.0521L118.054 47.0861C111.495 42.3775 105.436 39.0957 99.8752 37.2408C94.4573 35.2432 88.2552 34.2444 81.2689 34.2444C68.437 34.2444 58.5279 38.0256 51.5416 45.5879C44.6979 53.0075 41.2761 63.7089 41.2761 77.692C41.2761 91.8179 44.6979 102.662 51.5416 110.224C58.5279 117.644 68.437 121.354 81.2689 121.354C88.2552 121.354 94.4573 120.426 99.8752 118.571C105.436 116.574 111.495 113.221 118.054 108.512L129.816 139.546C123.971 144.683 116.771 148.678 108.216 151.532C99.6614 154.243 90.18 155.598 79.7719 155.598Z" fill="url(#paint0_linear_22265_12414)"/>
<path d="M141.394 77.692C141.394 61.9967 144.459 48.3703 150.59 36.8128C156.721 25.1126 165.489 16.0521 176.895 9.63125C188.301 3.21042 201.775 0 217.316 0C232.999 0 246.544 3.21042 257.95 9.63125C269.357 16.0521 278.125 25.1126 284.256 36.8128C290.529 48.3703 293.666 61.9967 293.666 77.692C293.666 93.2447 290.529 106.871 284.256 118.571C278.125 130.272 269.357 139.403 257.95 145.967C246.544 152.388 232.999 155.598 217.316 155.598C201.775 155.598 188.301 152.388 176.895 145.967C165.632 139.403 156.863 130.272 150.59 118.571C144.459 106.871 141.394 93.2447 141.394 77.692ZM182.67 77.692C182.67 91.8179 185.521 102.876 191.224 110.866C196.927 118.714 205.625 122.638 217.316 122.638C229.007 122.638 237.776 118.714 243.621 110.866C249.467 102.876 252.39 91.8179 252.39 77.692C252.39 63.5662 249.467 52.5795 243.621 44.7318C237.776 36.8841 229.007 32.9603 217.316 32.9603C205.625 32.9603 196.927 36.8841 191.224 44.7318C185.521 52.4368 182.67 63.4235 182.67 77.692Z" fill="url(#paint1_linear_22265_12414)"/>
<path d="M317.343 153.244V2.3543H346.429L422.779 97.1686H416.577V2.3543H453.148V153.244H424.062L348.14 58.4296H354.342V153.244H317.343Z" fill="url(#paint2_linear_22265_12414)"/>
<path d="M537.55 155.598C525.43 155.598 513.882 154.171 502.903 151.318C492.067 148.321 482.943 144.326 475.529 139.332L486.65 108.726C491.355 111.722 496.487 114.291 502.048 116.431C507.608 118.571 513.383 120.284 519.371 121.568C525.502 122.709 531.704 123.28 537.977 123.28C547.387 123.28 553.875 122.067 557.439 119.641C561.146 117.216 563 114.077 563 110.224C563 106.8 561.788 104.16 559.364 102.305C556.94 100.308 552.378 98.5954 545.676 97.1686L519.585 91.8179C505.755 88.9642 495.418 84.0415 488.574 77.05C481.731 69.9157 478.309 60.6412 478.309 49.2264C478.309 39.2384 480.946 30.6059 486.222 23.329C491.64 15.9094 499.196 10.202 508.892 6.2068C518.587 2.06893 529.922 0 542.896 0C553.589 0 563.641 1.49819 573.051 4.49457C582.461 7.34828 590.16 11.3435 596.149 16.4801L585.028 45.1598C579.325 41.022 572.909 37.8829 565.78 35.7426C558.651 33.4597 550.738 32.3182 542.041 32.3182C533.771 32.3182 527.498 33.6023 523.221 36.1707C519.086 38.5963 517.018 42.0921 517.018 46.658C517.018 49.7971 518.23 52.5081 520.654 54.7911C523.221 56.9314 527.854 58.7149 534.555 60.1418L560.219 65.2784C574.049 67.9895 584.386 72.8408 591.23 79.8323C598.216 86.8239 601.709 95.9557 601.709 107.228C601.709 116.93 599 125.42 593.582 132.697C588.307 139.974 580.893 145.61 571.34 149.605C561.788 153.601 550.524 155.598 537.55 155.598Z" fill="url(#paint3_linear_22265_12414)"/>
<path d="M655.657 153.244V34.2444H609.89V2.3543H740.989V34.2444H695.222V153.244H655.657Z" fill="url(#paint4_linear_22265_12414)"/>
<path d="M757.606 153.244V2.3543H828.823C846.217 2.3543 859.619 6.49217 869.03 14.7679C878.582 23.0436 883.359 34.5298 883.359 49.2264C883.359 59.0716 881.22 67.4901 876.943 74.4816C872.665 81.3305 866.463 86.6812 858.336 90.5337C850.209 94.2435 840.514 96.0984 829.251 96.0984L831.175 90.7477H841.869C848.142 90.7477 853.703 92.46 858.55 95.8844C863.398 99.3088 867.39 104.089 870.527 110.224L893.41 153.244H850.209L825.615 105.088C824.046 101.949 821.694 99.8082 818.557 98.6668C815.563 97.5253 812.141 96.9545 808.292 96.9545H797.171V153.244H757.606ZM797.171 68.9169H821.979C829.678 68.9169 835.524 67.4187 839.516 64.4223C843.508 61.2833 845.504 56.646 845.504 50.5105C845.504 44.5178 843.508 40.0232 839.516 37.0268C835.524 34.0304 829.678 32.5322 821.979 32.5322H797.171V68.9169Z" fill="url(#paint5_linear_22265_12414)"/>
<path d="M984.732 155.598C968.336 155.598 954.15 152.388 942.173 145.967C930.339 139.546 921.143 130.486 914.585 118.785C908.169 107.085 904.961 93.3874 904.961 77.692C904.961 61.9967 908.169 48.3703 914.585 36.8128C921.143 25.1126 930.339 16.0521 942.173 9.63125C954.15 3.21042 968.336 0 984.732 0C995.141 0 1004.62 1.42685 1013.18 4.28055C1021.73 6.99156 1028.93 10.9154 1034.78 16.0521L1023.01 47.0861C1016.46 42.3775 1010.4 39.0957 1004.84 37.2408C999.418 35.2432 993.216 34.2444 986.23 34.2444C973.398 34.2444 963.489 38.0256 956.502 45.5879C949.659 53.0075 946.237 63.7089 946.237 77.692C946.237 91.8179 949.659 102.662 956.502 110.224C963.489 117.644 973.398 121.354 986.23 121.354C993.216 121.354 999.418 120.426 1004.84 118.571C1010.4 116.574 1016.46 113.221 1023.01 108.512L1034.78 139.546C1028.93 144.683 1021.73 148.678 1013.18 151.532C1004.62 154.243 995.141 155.598 984.732 155.598Z" fill="url(#paint6_linear_22265_12414)"/>
<path d="M1087.77 153.244V34.2444H1042.01V2.3543H1173.11V34.2444H1127.34V153.244H1087.77Z" fill="url(#paint7_linear_22265_12414)"/>
<path d="M1189.72 153.244V2.3543H1229.29V153.244H1189.72Z" fill="url(#paint8_linear_22265_12414)"/>
<path d="M1253.12 77.692C1253.12 61.9967 1256.18 48.3703 1262.32 36.8128C1268.45 25.1126 1277.21 16.0521 1288.62 9.63125C1300.03 3.21042 1313.5 0 1329.04 0C1344.72 0 1358.27 3.21042 1369.68 9.63125C1381.08 16.0521 1389.85 25.1126 1395.98 36.8128C1402.25 48.3703 1405.39 61.9967 1405.39 77.692C1405.39 93.2447 1402.25 106.871 1395.98 118.571C1389.85 130.272 1381.08 139.403 1369.68 145.967C1358.27 152.388 1344.72 155.598 1329.04 155.598C1313.5 155.598 1300.03 152.388 1288.62 145.967C1277.36 139.403 1268.59 130.272 1262.32 118.571C1256.18 106.871 1253.12 93.2447 1253.12 77.692ZM1294.4 77.692C1294.4 91.8179 1297.25 102.876 1302.95 110.866C1308.65 118.714 1317.35 122.638 1329.04 122.638C1340.73 122.638 1349.5 118.714 1355.35 110.866C1361.19 102.876 1364.12 91.8179 1364.12 77.692C1364.12 63.5662 1361.19 52.5795 1355.35 44.7318C1349.5 36.8841 1340.73 32.9603 1329.04 32.9603C1317.35 32.9603 1308.65 36.8841 1302.95 44.7318C1297.25 52.4368 1294.4 63.4235 1294.4 77.692Z" fill="url(#paint9_linear_22265_12414)"/>
<path d="M1429.07 153.244V2.3543H1458.15L1534.5 97.1686H1528.3V2.3543H1564.87V153.244H1535.79L1459.87 58.4296H1466.07V153.244H1429.07Z" fill="url(#paint10_linear_22265_12414)"/>
<path d="M6.68915 349.646V198.756H40.9076L90.3106 309.409H83.253L132.442 198.756H166.874V349.646H131.159V257.186H140.355L97.582 349.646H75.34L32.353 257.186H42.1908V349.646H6.68915Z" fill="url(#paint11_linear_22265_12414)"/>
<path d="M176.453 349.646L247.029 198.756H279.109L350.112 349.646H310.547L292.368 308.124L307.553 319.04H219.013L233.983 308.124L216.018 349.646H176.453ZM262.855 239.421L237.833 299.135L231.845 289.076H294.507L289.161 299.135L263.924 239.421H262.855Z" fill="url(#paint12_linear_22265_12414)"/>
<path d="M359.427 349.646V198.756H388.513L464.863 293.57H458.661V198.756H495.232V349.646H466.146L390.224 254.831H396.426V349.646H359.427Z" fill="url(#paint13_linear_22265_12414)"/>
<path d="M504.353 349.646L574.928 198.756H607.008L678.012 349.646H638.446L620.268 308.124L635.452 319.04H546.912L561.883 308.124L543.918 349.646H504.353ZM590.754 239.421L565.732 299.135L559.744 289.076H622.407L617.06 299.135L591.824 239.421H590.754Z" fill="url(#paint14_linear_22265_12414)"/>
<path d="M760.559 352C743.022 352 728.194 348.79 716.075 342.369C704.098 335.948 694.973 326.959 688.7 315.401C682.569 303.844 679.504 290.36 679.504 274.95C679.504 258.969 682.854 245.129 689.555 233.429C696.399 221.586 706.166 212.454 718.855 206.033C731.544 199.612 746.8 196.402 764.622 196.402C775.601 196.402 785.296 197.686 793.708 200.254C802.263 202.823 809.605 206.533 815.736 211.384L803.546 241.562C799.126 238.565 794.92 236.282 790.928 234.713C787.078 233.001 783.086 231.788 778.951 231.074C774.959 230.361 770.325 230.004 765.05 230.004C750.222 230.004 739.101 233.857 731.687 241.562C724.415 249.124 720.78 260.253 720.78 274.95C720.78 289.504 724.13 300.491 730.831 307.91C737.533 315.33 748.155 319.04 762.697 319.04C767.117 319.04 771.894 318.612 777.026 317.756C782.302 316.899 787.648 315.615 793.066 313.903L786.009 328.029V292.072H754.784V264.677H818.302V340.228C810.176 344.081 801.051 347.006 790.928 349.004C780.947 351.001 770.824 352 760.559 352Z" fill="url(#paint15_linear_22265_12414)"/>
<path d="M843.966 349.646V198.756H952.182V228.934H881.821V257.828H947.05V288.22H881.821V319.254H952.182V349.646H843.966Z" fill="url(#paint16_linear_22265_12414)"/>
<path d="M973.47 349.646V198.756H1007.69L1057.09 309.409H1050.03L1099.22 198.756H1133.66V349.646H1097.94V257.186H1107.14L1064.36 349.646H1042.12L999.134 257.186H1008.97V349.646H973.47Z" fill="url(#paint17_linear_22265_12414)"/>
<path d="M1161.84 349.646V198.756H1270.06V228.934H1199.7V257.828H1264.92V288.22H1199.7V319.254H1270.06V349.646H1161.84Z" fill="url(#paint18_linear_22265_12414)"/>
<path d="M1290.7 349.646V198.756H1319.79L1396.14 293.57H1389.94V198.756H1426.51V349.646H1397.42L1321.5 254.831H1327.7V349.646H1290.7Z" fill="url(#paint19_linear_22265_12414)"/>
<path d="M1488.67 349.646V230.646H1442.9V198.756H1574V230.646H1528.23V349.646H1488.67Z" fill="url(#paint20_linear_22265_12414)"/>
</g>
<defs>
<linearGradient id="paint0_linear_22265_12414" x1="808.933" y1="394.227" x2="811.188" y2="7.41392" gradientUnits="userSpaceOnUse">
<stop stop-color="#14161B"/>
<stop offset="0.958333" stop-color="#181A21"/>
</linearGradient>
<linearGradient id="paint1_linear_22265_12414" x1="808.933" y1="394.227" x2="811.188" y2="7.41392" gradientUnits="userSpaceOnUse">
<stop stop-color="#14161B"/>
<stop offset="0.958333" stop-color="#181A21"/>
</linearGradient>
<linearGradient id="paint2_linear_22265_12414" x1="808.933" y1="394.227" x2="811.188" y2="7.41392" gradientUnits="userSpaceOnUse">
<stop stop-color="#14161B"/>
<stop offset="0.958333" stop-color="#181A21"/>
</linearGradient>
<linearGradient id="paint3_linear_22265_12414" x1="808.933" y1="394.227" x2="811.188" y2="7.41392" gradientUnits="userSpaceOnUse">
<stop stop-color="#14161B"/>
<stop offset="0.958333" stop-color="#181A21"/>
</linearGradient>
<linearGradient id="paint4_linear_22265_12414" x1="808.933" y1="394.227" x2="811.188" y2="7.41392" gradientUnits="userSpaceOnUse">
<stop stop-color="#14161B"/>
<stop offset="0.958333" stop-color="#181A21"/>
</linearGradient>
<linearGradient id="paint5_linear_22265_12414" x1="808.933" y1="394.227" x2="811.188" y2="7.41392" gradientUnits="userSpaceOnUse">
<stop stop-color="#14161B"/>
<stop offset="0.958333" stop-color="#181A21"/>
</linearGradient>
<linearGradient id="paint6_linear_22265_12414" x1="808.933" y1="394.227" x2="811.188" y2="7.41392" gradientUnits="userSpaceOnUse">
<stop stop-color="#14161B"/>
<stop offset="0.958333" stop-color="#181A21"/>
</linearGradient>
<linearGradient id="paint7_linear_22265_12414" x1="808.933" y1="394.227" x2="811.188" y2="7.41392" gradientUnits="userSpaceOnUse">
<stop stop-color="#14161B"/>
<stop offset="0.958333" stop-color="#181A21"/>
</linearGradient>
<linearGradient id="paint8_linear_22265_12414" x1="808.933" y1="394.227" x2="811.188" y2="7.41392" gradientUnits="userSpaceOnUse">
<stop stop-color="#14161B"/>
<stop offset="0.958333" stop-color="#181A21"/>
</linearGradient>
<linearGradient id="paint9_linear_22265_12414" x1="808.933" y1="394.227" x2="811.188" y2="7.41392" gradientUnits="userSpaceOnUse">
<stop stop-color="#14161B"/>
<stop offset="0.958333" stop-color="#181A21"/>
</linearGradient>
<linearGradient id="paint10_linear_22265_12414" x1="808.933" y1="394.227" x2="811.188" y2="7.41392" gradientUnits="userSpaceOnUse">
<stop stop-color="#14161B"/>
<stop offset="0.958333" stop-color="#181A21"/>
</linearGradient>
<linearGradient id="paint11_linear_22265_12414" x1="808.933" y1="394.227" x2="811.188" y2="7.41392" gradientUnits="userSpaceOnUse">
<stop stop-color="#14161B"/>
<stop offset="0.958333" stop-color="#181A21"/>
</linearGradient>
<linearGradient id="paint12_linear_22265_12414" x1="808.933" y1="394.227" x2="811.188" y2="7.41392" gradientUnits="userSpaceOnUse">
<stop stop-color="#14161B"/>
<stop offset="0.958333" stop-color="#181A21"/>
</linearGradient>
<linearGradient id="paint13_linear_22265_12414" x1="808.933" y1="394.227" x2="811.188" y2="7.41392" gradientUnits="userSpaceOnUse">
<stop stop-color="#14161B"/>
<stop offset="0.958333" stop-color="#181A21"/>
</linearGradient>
<linearGradient id="paint14_linear_22265_12414" x1="808.933" y1="394.227" x2="811.188" y2="7.41392" gradientUnits="userSpaceOnUse">
<stop stop-color="#14161B"/>
<stop offset="0.958333" stop-color="#181A21"/>
</linearGradient>
<linearGradient id="paint15_linear_22265_12414" x1="808.933" y1="394.227" x2="811.188" y2="7.41392" gradientUnits="userSpaceOnUse">
<stop stop-color="#14161B"/>
<stop offset="0.958333" stop-color="#181A21"/>
</linearGradient>
<linearGradient id="paint16_linear_22265_12414" x1="808.933" y1="394.227" x2="811.188" y2="7.41392" gradientUnits="userSpaceOnUse">
<stop stop-color="#14161B"/>
<stop offset="0.958333" stop-color="#181A21"/>
</linearGradient>
<linearGradient id="paint17_linear_22265_12414" x1="808.933" y1="394.227" x2="811.188" y2="7.41392" gradientUnits="userSpaceOnUse">
<stop stop-color="#14161B"/>
<stop offset="0.958333" stop-color="#181A21"/>
</linearGradient>
<linearGradient id="paint18_linear_22265_12414" x1="808.933" y1="394.227" x2="811.188" y2="7.41392" gradientUnits="userSpaceOnUse">
<stop stop-color="#14161B"/>
<stop offset="0.958333" stop-color="#181A21"/>
</linearGradient>
<linearGradient id="paint19_linear_22265_12414" x1="808.933" y1="394.227" x2="811.188" y2="7.41392" gradientUnits="userSpaceOnUse">
<stop stop-color="#14161B"/>
<stop offset="0.958333" stop-color="#181A21"/>
</linearGradient>
<linearGradient id="paint20_linear_22265_12414" x1="808.933" y1="394.227" x2="811.188" y2="7.41392" gradientUnits="userSpaceOnUse">
<stop stop-color="#14161B"/>
<stop offset="0.958333" stop-color="#181A21"/>
</linearGradient>
</defs>
</svg>
