<svg width="2440" height="546" viewBox="0 0 2440 546" fill="none" xmlns="http://www.w3.org/2000/svg">
<g opacity="0.8">
<path d="M123.662 241.354C98.2441 241.354 76.2525 236.374 57.6866 226.415C39.3419 216.455 25.086 202.401 14.919 184.252C4.97299 166.104 0 144.857 0 120.511C0 96.1653 4.97299 75.0289 14.919 57.1016C25.086 38.953 39.3419 24.899 57.6866 14.9394C76.2525 4.97979 98.2441 0 123.662 0C139.796 0 154.494 2.21324 167.755 6.63971C181.017 10.8449 192.178 16.9313 201.24 24.899L183.006 73.0369C172.839 65.7332 163.446 60.6428 154.826 57.7656C146.427 54.667 136.812 53.1178 125.982 53.1178C106.09 53.1178 90.7294 58.9829 79.8993 70.713C69.2903 82.2219 63.9858 98.8212 63.9858 120.511C63.9858 142.422 69.2903 159.243 79.8993 170.973C90.7294 182.482 106.09 188.236 125.982 188.236C136.812 188.236 146.427 186.798 154.826 183.92C163.446 180.822 172.839 175.621 183.006 168.317L201.24 216.455C192.178 224.423 181.017 230.62 167.755 235.046C154.494 239.251 139.796 241.354 123.662 241.354Z" fill="url(#paint0_linear_22431_12194)"/>
<path d="M219.187 120.511C219.187 96.1653 223.939 75.0289 233.443 57.1016C242.947 38.953 256.54 24.899 274.221 14.9394C291.903 4.97979 312.79 0 336.881 0C361.193 0 382.19 4.97979 399.872 14.9394C417.554 24.899 431.147 38.953 440.651 57.1016C450.376 75.0289 455.238 96.1653 455.238 120.511C455.238 144.635 450.376 165.772 440.651 183.92C431.147 202.069 417.554 216.234 399.872 226.415C382.19 236.374 361.193 241.354 336.881 241.354C312.79 241.354 291.903 236.374 274.221 226.415C256.761 216.234 243.168 202.069 233.443 183.92C223.939 165.772 219.187 144.635 219.187 120.511ZM283.173 120.511C283.173 142.422 287.593 159.575 296.434 171.969C305.275 184.142 318.757 190.228 336.881 190.228C355.005 190.228 368.598 184.142 377.659 171.969C386.721 159.575 391.252 142.422 391.252 120.511C391.252 98.5999 386.721 81.5579 377.659 69.3851C368.598 57.2123 355.005 51.1259 336.881 51.1259C318.757 51.1259 305.275 57.2123 296.434 69.3851C287.593 81.3366 283.173 98.3786 283.173 120.511Z" fill="url(#paint1_linear_22431_12194)"/>
<path d="M491.942 237.702V3.65184H537.031L655.388 150.722H645.773V3.65184H702.465V237.702H657.377L539.683 90.6322H549.297V237.702H491.942Z" fill="url(#paint2_linear_22431_12194)"/>
<path d="M833.304 241.354C814.517 241.354 796.615 239.141 779.596 234.714C762.798 230.066 748.653 223.869 737.16 216.123L754.4 168.649C761.693 173.297 769.65 177.281 778.27 180.6C786.89 183.92 795.841 186.576 805.124 188.568C814.628 190.339 824.242 191.224 833.967 191.224C848.555 191.224 858.611 189.343 864.137 185.58C869.883 181.818 872.757 176.949 872.757 170.973C872.757 165.661 870.878 161.567 867.121 158.689C863.363 155.591 856.29 152.935 845.902 150.722L805.456 142.422C784.016 137.996 767.992 130.36 757.383 119.515C746.774 108.449 741.47 94.0627 741.47 76.3568C741.47 60.8641 745.559 47.474 753.736 36.1865C762.135 24.6776 773.849 15.8247 788.879 9.62759C803.908 3.2092 821.48 0 841.593 0C858.169 0 873.751 2.3239 888.339 6.9717C902.926 11.3982 914.861 17.5953 924.144 25.5629L906.904 70.0491C898.064 63.6307 888.118 58.7615 877.067 55.4417C866.015 51.9005 853.749 50.1299 840.266 50.1299C827.447 50.1299 817.722 52.1218 811.092 56.1056C804.682 59.8682 801.477 65.2906 801.477 72.373C801.477 77.2421 803.356 81.4473 807.113 84.9885C811.092 88.3083 818.275 91.0749 828.663 93.2881L868.447 101.256C889.886 105.461 905.91 112.986 916.519 123.831C927.349 134.676 932.764 148.84 932.764 166.325C932.764 181.375 928.565 194.544 920.166 205.831C911.988 217.119 900.495 225.861 885.686 232.058C870.878 238.255 853.417 241.354 833.304 241.354Z" fill="url(#paint3_linear_22431_12194)"/>
<path d="M1016.39 237.702V53.1178H945.445V3.65184H1148.67V53.1178H1077.73V237.702H1016.39Z" fill="url(#paint4_linear_22431_12194)"/>
<path d="M1174.43 237.702V3.65184H1284.83C1311.8 3.65184 1332.57 10.0702 1347.16 22.907C1361.97 35.7438 1369.37 53.5604 1369.37 76.3568C1369.37 91.6282 1366.06 104.686 1359.43 115.531C1352.8 126.155 1343.18 134.454 1330.58 140.43C1317.99 146.185 1302.96 149.062 1285.5 149.062L1288.48 140.762H1305.06C1314.78 140.762 1323.4 143.418 1330.92 148.73C1338.43 154.042 1344.62 161.456 1349.48 170.973L1384.96 237.702H1317.99L1279.86 163.005C1277.43 158.136 1273.78 154.816 1268.92 153.046C1264.28 151.275 1258.97 150.39 1253.01 150.39H1235.77V237.702H1174.43ZM1235.77 106.9H1274.22C1286.16 106.9 1295.22 104.576 1301.41 99.9278C1307.6 95.0587 1310.69 87.8657 1310.69 78.3487C1310.69 69.0531 1307.6 62.0814 1301.41 57.4336C1295.22 52.7858 1286.16 50.4619 1274.22 50.4619H1235.77V106.9Z" fill="url(#paint5_linear_22431_12194)"/>
<path d="M1526.52 241.354C1501.11 241.354 1479.11 236.374 1460.55 226.415C1442.2 216.455 1427.95 202.401 1417.78 184.252C1407.83 166.104 1402.86 144.857 1402.86 120.511C1402.86 96.1653 1407.83 75.0289 1417.78 57.1016C1427.95 38.953 1442.2 24.899 1460.55 14.9394C1479.11 4.97979 1501.11 0 1526.52 0C1542.66 0 1557.36 2.21324 1570.62 6.63971C1583.88 10.8449 1595.04 16.9313 1604.1 24.899L1585.87 73.0369C1575.7 65.7332 1566.31 60.6428 1557.69 57.7656C1549.29 54.667 1539.67 53.1178 1528.84 53.1178C1508.95 53.1178 1493.59 58.9829 1482.76 70.713C1472.15 82.2219 1466.85 98.8212 1466.85 120.511C1466.85 142.422 1472.15 159.243 1482.76 170.973C1493.59 182.482 1508.95 188.236 1528.84 188.236C1539.67 188.236 1549.29 186.798 1557.69 183.92C1566.31 180.822 1575.7 175.621 1585.87 168.317L1604.1 216.455C1595.04 224.423 1583.88 230.62 1570.62 235.046C1557.36 239.251 1542.66 241.354 1526.52 241.354Z" fill="url(#paint6_linear_22431_12194)"/>
<path d="M1686.26 237.702V53.1178H1615.31V3.65184H1818.54V53.1178H1747.59V237.702H1686.26Z" fill="url(#paint7_linear_22431_12194)"/>
<path d="M1844.3 237.702V3.65184H1905.63V237.702H1844.3Z" fill="url(#paint8_linear_22431_12194)"/>
<path d="M1942.57 120.511C1942.57 96.1653 1947.32 75.0289 1956.83 57.1016C1966.33 38.953 1979.93 24.899 1997.61 14.9394C2015.29 4.97979 2036.18 0 2060.27 0C2084.58 0 2105.58 4.97979 2123.26 14.9394C2140.94 24.899 2154.53 38.953 2164.04 57.1016C2173.76 75.0289 2178.62 96.1653 2178.62 120.511C2178.62 144.635 2173.76 165.772 2164.04 183.92C2154.53 202.069 2140.94 216.234 2123.26 226.415C2105.58 236.374 2084.58 241.354 2060.27 241.354C2036.18 241.354 2015.29 236.374 1997.61 226.415C1980.15 216.234 1966.55 202.069 1956.83 183.92C1947.32 165.772 1942.57 144.635 1942.57 120.511ZM2006.56 120.511C2006.56 142.422 2010.98 159.575 2019.82 171.969C2028.66 184.142 2042.14 190.228 2060.27 190.228C2078.39 190.228 2091.98 184.142 2101.05 171.969C2110.11 159.575 2114.64 142.422 2114.64 120.511C2114.64 98.5999 2110.11 81.5579 2101.05 69.3851C2091.98 57.2123 2078.39 51.1259 2060.27 51.1259C2042.14 51.1259 2028.66 57.2123 2019.82 69.3851C2010.98 81.3366 2006.56 98.3786 2006.56 120.511Z" fill="url(#paint9_linear_22431_12194)"/>
<path d="M2215.33 237.702V3.65184H2260.42L2378.77 150.722H2369.16V3.65184H2425.85V237.702H2380.76L2263.07 90.6322H2272.68V237.702H2215.33Z" fill="url(#paint10_linear_22431_12194)"/>
<path d="M10.3695 542.348V308.298H63.4146L139.999 479.935H129.058L205.311 308.298H258.687V542.348H203.321V398.93H217.577L151.271 542.348H116.791L50.1534 398.93H65.4038V542.348H10.3695Z" fill="url(#paint11_linear_22431_12194)"/>
<path d="M273.536 542.348L382.942 308.298H432.672L542.741 542.348H481.407L453.227 477.943L476.766 494.874H339.511L362.719 477.943L334.87 542.348H273.536ZM407.475 371.375L368.686 463.999L359.403 448.396H456.542L448.254 463.999L409.133 371.375H407.475Z" fill="url(#paint12_linear_22431_12194)"/>
<path d="M557.18 542.348V308.298H602.269L720.626 455.368H711.011V308.298H767.704V542.348H722.615L604.921 395.278H614.536V542.348H557.18Z" fill="url(#paint13_linear_22431_12194)"/>
<path d="M781.843 542.348L891.249 308.298H940.978L1051.05 542.348H989.714L961.533 477.943L985.072 494.874H847.818L871.025 477.943L843.176 542.348H781.843ZM915.782 371.375L876.993 463.999L867.71 448.396H964.849L956.56 463.999L917.44 371.375H915.782Z" fill="url(#paint14_linear_22431_12194)"/>
<path d="M1179.01 546C1151.83 546 1128.84 541.02 1110.05 531.061C1091.49 521.101 1077.34 507.158 1067.62 489.23C1058.11 471.303 1053.36 450.388 1053.36 426.485C1053.36 401.697 1058.55 380.228 1068.94 362.08C1079.55 343.71 1094.69 329.545 1114.36 319.585C1134.03 309.626 1157.68 304.646 1185.31 304.646C1202.33 304.646 1217.36 306.638 1230.4 310.622C1243.66 314.606 1255.04 320.36 1264.55 327.885L1245.65 374.695C1238.8 370.047 1232.28 366.506 1226.09 364.072C1220.12 361.416 1213.93 359.534 1207.52 358.428C1201.33 357.321 1194.15 356.768 1185.97 356.768C1162.99 356.768 1145.75 362.744 1134.25 374.695C1122.98 386.425 1117.35 403.689 1117.35 426.485C1117.35 449.06 1122.54 466.102 1132.93 477.611C1143.32 489.12 1159.78 494.874 1182.33 494.874C1189.18 494.874 1196.58 494.21 1204.54 492.882C1212.72 491.554 1221.01 489.562 1229.4 486.906L1218.46 508.818V453.044H1170.06V410.55H1268.52V527.741C1255.93 533.716 1241.78 538.254 1226.09 541.352C1210.62 544.451 1194.92 546 1179.01 546Z" fill="url(#paint15_linear_22431_12194)"/>
<path d="M1308.31 542.348V308.298H1476.06V355.108H1366.99V399.926H1468.11V447.068H1366.99V495.206H1476.06V542.348H1308.31Z" fill="url(#paint16_linear_22431_12194)"/>
<path d="M1509.06 542.348V308.298H1562.11L1638.69 479.935H1627.75L1704.01 308.298H1757.38V542.348H1702.02V398.93H1716.27L1649.97 542.348H1615.49L1548.85 398.93H1564.1V542.348H1509.06Z" fill="url(#paint17_linear_22431_12194)"/>
<path d="M1801.07 542.348V308.298H1968.83V355.108H1859.76V399.926H1960.87V447.068H1859.76V495.206H1968.83V542.348H1801.07Z" fill="url(#paint18_linear_22431_12194)"/>
<path d="M2000.84 542.348V308.298H2045.92L2164.28 455.368H2154.67V308.298H2211.36V542.348H2166.27L2048.58 395.278H2058.19V542.348H2000.84Z" fill="url(#paint19_linear_22431_12194)"/>
<path d="M2307.72 542.348V357.764H2236.77V308.298H2440V357.764H2369.05V542.348H2307.72Z" fill="url(#paint20_linear_22431_12194)"/>
</g>
<defs>
<linearGradient id="paint0_linear_22431_12194" x1="1254" y1="611.5" x2="1257.5" y2="11.5" gradientUnits="userSpaceOnUse">
<stop stop-color="#14161B"/>
<stop offset="0.958333" stop-color="#181A21"/>
</linearGradient>
<linearGradient id="paint1_linear_22431_12194" x1="1254" y1="611.5" x2="1257.5" y2="11.5" gradientUnits="userSpaceOnUse">
<stop stop-color="#14161B"/>
<stop offset="0.958333" stop-color="#181A21"/>
</linearGradient>
<linearGradient id="paint2_linear_22431_12194" x1="1254" y1="611.5" x2="1257.5" y2="11.5" gradientUnits="userSpaceOnUse">
<stop stop-color="#14161B"/>
<stop offset="0.958333" stop-color="#181A21"/>
</linearGradient>
<linearGradient id="paint3_linear_22431_12194" x1="1254" y1="611.5" x2="1257.5" y2="11.5" gradientUnits="userSpaceOnUse">
<stop stop-color="#14161B"/>
<stop offset="0.958333" stop-color="#181A21"/>
</linearGradient>
<linearGradient id="paint4_linear_22431_12194" x1="1254" y1="611.5" x2="1257.5" y2="11.5" gradientUnits="userSpaceOnUse">
<stop stop-color="#14161B"/>
<stop offset="0.958333" stop-color="#181A21"/>
</linearGradient>
<linearGradient id="paint5_linear_22431_12194" x1="1254" y1="611.5" x2="1257.5" y2="11.5" gradientUnits="userSpaceOnUse">
<stop stop-color="#14161B"/>
<stop offset="0.958333" stop-color="#181A21"/>
</linearGradient>
<linearGradient id="paint6_linear_22431_12194" x1="1254" y1="611.5" x2="1257.5" y2="11.5" gradientUnits="userSpaceOnUse">
<stop stop-color="#14161B"/>
<stop offset="0.958333" stop-color="#181A21"/>
</linearGradient>
<linearGradient id="paint7_linear_22431_12194" x1="1254" y1="611.5" x2="1257.5" y2="11.5" gradientUnits="userSpaceOnUse">
<stop stop-color="#14161B"/>
<stop offset="0.958333" stop-color="#181A21"/>
</linearGradient>
<linearGradient id="paint8_linear_22431_12194" x1="1254" y1="611.5" x2="1257.5" y2="11.5" gradientUnits="userSpaceOnUse">
<stop stop-color="#14161B"/>
<stop offset="0.958333" stop-color="#181A21"/>
</linearGradient>
<linearGradient id="paint9_linear_22431_12194" x1="1254" y1="611.5" x2="1257.5" y2="11.5" gradientUnits="userSpaceOnUse">
<stop stop-color="#14161B"/>
<stop offset="0.958333" stop-color="#181A21"/>
</linearGradient>
<linearGradient id="paint10_linear_22431_12194" x1="1254" y1="611.5" x2="1257.5" y2="11.5" gradientUnits="userSpaceOnUse">
<stop stop-color="#14161B"/>
<stop offset="0.958333" stop-color="#181A21"/>
</linearGradient>
<linearGradient id="paint11_linear_22431_12194" x1="1254" y1="611.5" x2="1257.5" y2="11.5" gradientUnits="userSpaceOnUse">
<stop stop-color="#14161B"/>
<stop offset="0.958333" stop-color="#181A21"/>
</linearGradient>
<linearGradient id="paint12_linear_22431_12194" x1="1254" y1="611.5" x2="1257.5" y2="11.5" gradientUnits="userSpaceOnUse">
<stop stop-color="#14161B"/>
<stop offset="0.958333" stop-color="#181A21"/>
</linearGradient>
<linearGradient id="paint13_linear_22431_12194" x1="1254" y1="611.5" x2="1257.5" y2="11.5" gradientUnits="userSpaceOnUse">
<stop stop-color="#14161B"/>
<stop offset="0.958333" stop-color="#181A21"/>
</linearGradient>
<linearGradient id="paint14_linear_22431_12194" x1="1254" y1="611.5" x2="1257.5" y2="11.5" gradientUnits="userSpaceOnUse">
<stop stop-color="#14161B"/>
<stop offset="0.958333" stop-color="#181A21"/>
</linearGradient>
<linearGradient id="paint15_linear_22431_12194" x1="1254" y1="611.5" x2="1257.5" y2="11.5" gradientUnits="userSpaceOnUse">
<stop stop-color="#14161B"/>
<stop offset="0.958333" stop-color="#181A21"/>
</linearGradient>
<linearGradient id="paint16_linear_22431_12194" x1="1254" y1="611.5" x2="1257.5" y2="11.5" gradientUnits="userSpaceOnUse">
<stop stop-color="#14161B"/>
<stop offset="0.958333" stop-color="#181A21"/>
</linearGradient>
<linearGradient id="paint17_linear_22431_12194" x1="1254" y1="611.5" x2="1257.5" y2="11.5" gradientUnits="userSpaceOnUse">
<stop stop-color="#14161B"/>
<stop offset="0.958333" stop-color="#181A21"/>
</linearGradient>
<linearGradient id="paint18_linear_22431_12194" x1="1254" y1="611.5" x2="1257.5" y2="11.5" gradientUnits="userSpaceOnUse">
<stop stop-color="#14161B"/>
<stop offset="0.958333" stop-color="#181A21"/>
</linearGradient>
<linearGradient id="paint19_linear_22431_12194" x1="1254" y1="611.5" x2="1257.5" y2="11.5" gradientUnits="userSpaceOnUse">
<stop stop-color="#14161B"/>
<stop offset="0.958333" stop-color="#181A21"/>
</linearGradient>
<linearGradient id="paint20_linear_22431_12194" x1="1254" y1="611.5" x2="1257.5" y2="11.5" gradientUnits="userSpaceOnUse">
<stop stop-color="#14161B"/>
<stop offset="0.958333" stop-color="#181A21"/>
</linearGradient>
</defs>
</svg>
