<svg width="1387" height="311" viewBox="0 0 1387 311" fill="none" xmlns="http://www.w3.org/2000/svg">
<g opacity="0.8">
<path d="M70.2945 137.474C55.8461 137.474 43.3452 134.638 32.7915 128.965C22.3636 123.292 14.2599 115.287 8.48057 104.95C2.82686 94.6122 0 82.5099 0 68.6427C0 54.7755 2.82686 42.7362 8.48057 32.5249C14.2599 22.1875 22.3636 14.1824 32.7915 8.50943C43.3452 2.83648 55.8461 0 70.2945 0C79.4661 0 87.8211 1.26065 95.3593 3.78196C102.898 6.17721 109.242 9.64401 114.394 14.1824L104.028 41.6016C98.249 37.4415 92.9094 34.542 88.0095 32.9031C83.2353 31.1382 77.77 30.2557 71.6137 30.2557C60.3063 30.2557 51.5745 33.5965 45.4182 40.2779C39.3876 46.8333 36.3722 56.2883 36.3722 68.6427C36.3722 81.1232 39.3876 90.7042 45.4182 97.3856C51.5745 103.941 60.3063 107.219 71.6137 107.219C77.77 107.219 83.2353 106.399 88.0095 104.76C92.9094 102.996 98.249 100.033 104.028 95.8728L114.394 123.292C109.242 127.83 102.898 131.36 95.3593 133.882C87.8211 136.277 79.4661 137.474 70.2945 137.474Z" fill="url(#paint0_linear_22265_12415)"/>
<path d="M124.595 68.6427C124.595 54.7755 127.296 42.7362 132.699 32.5249C138.101 22.1875 145.828 14.1824 155.879 8.50943C165.93 2.83648 177.803 0 191.498 0C205.318 0 217.253 2.83648 227.304 8.50943C237.355 14.1824 245.082 22.1875 250.485 32.5249C256.013 42.7362 258.777 54.7755 258.777 68.6427C258.777 82.3838 256.013 94.4231 250.485 104.76C245.082 115.098 237.355 123.166 227.304 128.965C217.253 134.638 205.318 137.474 191.498 137.474C177.803 137.474 165.93 134.638 155.879 128.965C145.954 123.166 138.227 115.098 132.699 104.76C127.296 94.4231 124.595 82.3838 124.595 68.6427ZM160.967 68.6427C160.967 81.1232 163.48 90.8933 168.506 97.9529C173.531 104.887 181.195 108.353 191.498 108.353C201.8 108.353 209.527 104.887 214.678 97.9529C219.829 90.8933 222.404 81.1232 222.404 68.6427C222.404 56.1622 219.829 46.4552 214.678 39.5215C209.527 32.5879 201.8 29.1211 191.498 29.1211C181.195 29.1211 173.531 32.5879 168.506 39.5215C163.48 46.3291 160.967 56.0361 160.967 68.6427Z" fill="url(#paint1_linear_22265_12415)"/>
<path d="M279.641 135.394V2.08008H305.271L372.55 85.8506H367.085V2.08008H399.311V135.394H373.681L306.779 51.6238H312.244V135.394H279.641Z" fill="url(#paint2_linear_22265_12415)"/>
<path d="M473.686 137.474C463.006 137.474 452.83 136.214 443.156 133.693C433.607 131.045 425.566 127.515 419.033 123.103L428.833 96.062C432.979 98.7093 437.502 100.979 442.402 102.869C447.302 104.76 452.39 106.273 457.667 107.408C463.069 108.416 468.534 108.921 474.063 108.921C482.355 108.921 488.071 107.849 491.212 105.706C494.479 103.563 496.112 100.789 496.112 97.3856C496.112 94.3601 495.044 92.0279 492.908 90.389C490.772 88.6241 486.752 87.1113 480.847 85.8506L457.855 81.1232C445.668 78.6019 436.56 74.2526 430.529 68.0754C424.498 61.7721 421.483 53.5779 421.483 43.4926C421.483 34.668 423.807 27.0411 428.456 20.6117C433.23 14.0563 439.889 9.01368 448.432 5.48385C456.976 1.82795 466.964 0 478.397 0C487.82 0 496.677 1.32369 504.97 3.97106C513.262 6.49237 520.046 10.0222 525.323 14.5606L515.523 39.8997C510.498 36.2438 504.844 33.4704 498.562 31.5794C492.28 29.5624 485.307 28.5539 477.643 28.5539C470.356 28.5539 464.828 29.6884 461.059 31.9576C457.415 34.1007 455.594 37.1893 455.594 41.2234C455.594 43.9969 456.662 46.3921 458.798 48.4092C461.059 50.3002 465.142 51.876 471.047 53.1366L493.662 57.675C505.849 60.0702 514.958 64.3565 520.988 70.5337C527.145 76.7109 530.223 84.7791 530.223 94.7383C530.223 103.311 527.836 110.812 523.061 117.241C518.413 123.67 511.88 128.65 503.462 132.18C495.044 135.71 485.119 137.474 473.686 137.474Z" fill="url(#paint3_linear_22265_12415)"/>
<path d="M577.761 135.394V30.2557H537.431V2.08008H652.956V30.2557H612.626V135.394H577.761Z" fill="url(#paint4_linear_22265_12415)"/>
<path d="M667.598 135.394V2.08008H730.354C745.682 2.08008 757.492 5.73598 765.784 13.0478C774.202 20.3596 778.411 30.5079 778.411 43.4926C778.411 52.1911 776.526 59.629 772.757 65.8062C768.988 71.8574 763.522 76.5848 756.361 79.9886C749.2 83.2663 740.656 84.9051 730.731 84.9051L732.427 80.1777H741.85C747.378 80.1777 752.278 81.6905 756.55 84.716C760.821 87.7416 764.339 91.9648 767.103 97.3856L787.268 135.394H749.2L727.527 92.8473C726.145 90.0738 724.072 88.1828 721.308 87.1743C718.67 86.1658 715.654 85.6615 712.262 85.6615H702.462V135.394H667.598ZM702.462 60.8897H724.323C731.108 60.8897 736.259 59.566 739.777 56.9186C743.295 54.1452 745.054 50.048 745.054 44.6272C745.054 39.3325 743.295 35.3614 739.777 32.714C736.259 30.0666 731.108 28.7429 724.323 28.7429H702.462V60.8897Z" fill="url(#paint5_linear_22265_12415)"/>
<path d="M867.741 137.474C853.292 137.474 840.791 134.638 830.238 128.965C819.81 123.292 811.706 115.287 805.927 104.95C800.273 94.6122 797.446 82.5099 797.446 68.6427C797.446 54.7755 800.273 42.7362 805.927 32.5249C811.706 22.1875 819.81 14.1824 830.238 8.50943C840.791 2.83648 853.292 0 867.741 0C876.912 0 885.267 1.26065 892.806 3.78196C900.344 6.17721 906.689 9.64401 911.84 14.1824L901.475 41.6016C895.695 37.4415 890.356 34.542 885.456 32.9031C880.682 31.1382 875.216 30.2557 869.06 30.2557C857.753 30.2557 849.021 33.5965 842.864 40.2779C836.834 46.8333 833.818 56.2883 833.818 68.6427C833.818 81.1232 836.834 90.7042 842.864 97.3856C849.021 103.941 857.753 107.219 869.06 107.219C875.216 107.219 880.682 106.399 885.456 104.76C890.356 102.996 895.695 100.033 901.475 95.8728L911.84 123.292C906.689 127.83 900.344 131.36 892.806 133.882C885.267 136.277 876.912 137.474 867.741 137.474Z" fill="url(#paint6_linear_22265_12415)"/>
<path d="M958.54 135.394V30.2557H918.21V2.08008H1033.73V30.2557H993.405V135.394H958.54Z" fill="url(#paint7_linear_22265_12415)"/>
<path d="M1048.38 135.394V2.08008H1083.24V135.394H1048.38Z" fill="url(#paint8_linear_22265_12415)"/>
<path d="M1104.24 68.6427C1104.24 54.7755 1106.94 42.7362 1112.34 32.5249C1117.75 22.1875 1125.47 14.1824 1135.53 8.50943C1145.58 2.83648 1157.45 0 1171.14 0C1184.96 0 1196.9 2.83648 1206.95 8.50943C1217 14.1824 1224.73 22.1875 1230.13 32.5249C1235.66 42.7362 1238.42 54.7755 1238.42 68.6427C1238.42 82.3838 1235.66 94.4231 1230.13 104.76C1224.73 115.098 1217 123.166 1206.95 128.965C1196.9 134.638 1184.96 137.474 1171.14 137.474C1157.45 137.474 1145.58 134.638 1135.53 128.965C1125.6 123.166 1117.87 115.098 1112.34 104.76C1106.94 94.4231 1104.24 82.3838 1104.24 68.6427ZM1140.61 68.6427C1140.61 81.1232 1143.13 90.8933 1148.15 97.9529C1153.18 104.887 1160.84 108.353 1171.14 108.353C1181.45 108.353 1189.17 104.887 1194.32 97.9529C1199.47 90.8933 1202.05 81.1232 1202.05 68.6427C1202.05 56.1622 1199.47 46.4552 1194.32 39.5215C1189.17 32.5879 1181.45 29.1211 1171.14 29.1211C1160.84 29.1211 1153.18 32.5879 1148.15 39.5215C1143.13 46.3291 1140.61 56.0361 1140.61 68.6427Z" fill="url(#paint9_linear_22265_12415)"/>
<path d="M1259.29 135.394V2.08008H1284.92L1352.2 85.8506H1346.73V2.08008H1378.96V135.394H1353.33L1286.43 51.6238H1291.89V135.394H1259.29Z" fill="url(#paint10_linear_22265_12415)"/>
<path d="M5.89444 308.92V175.606H36.0476L79.5812 273.369H73.3621L116.707 175.606H147.049V308.92H115.577V227.229H123.68L85.9887 308.92H66.3892L28.5093 227.229H37.1783V308.92H5.89444Z" fill="url(#paint11_linear_22265_12415)"/>
<path d="M155.49 308.92L217.681 175.606H245.949L308.517 308.92H273.652L257.633 272.235L271.014 281.879H192.993L206.185 272.235L190.354 308.92H155.49ZM231.626 211.534L209.577 264.293L204.3 255.405H259.518L254.807 264.293L232.569 211.534H231.626Z" fill="url(#paint12_linear_22265_12415)"/>
<path d="M316.725 308.92V175.606H342.355L409.635 259.376H404.169V175.606H436.395V308.92H410.765L343.863 225.149H349.328V308.92H316.725Z" fill="url(#paint13_linear_22265_12415)"/>
<path d="M444.433 308.92L506.624 175.606H534.892L597.46 308.92H562.595L546.577 272.235L559.957 281.879H481.936L495.128 272.235L479.297 308.92H444.433ZM520.57 211.534L498.52 264.293L493.243 255.405H548.461L543.75 264.293L521.512 211.534H520.57Z" fill="url(#paint14_linear_22265_12415)"/>
<path d="M670.2 311C654.747 311 641.68 308.164 631.001 302.491C620.447 296.818 612.407 288.875 606.878 278.664C601.476 268.453 598.775 256.54 598.775 242.925C598.775 228.805 601.727 216.577 607.632 206.24C613.663 195.776 622.269 187.708 633.451 182.035C644.633 176.362 658.076 173.526 673.781 173.526C683.455 173.526 691.998 174.66 699.411 176.929C706.949 179.198 713.42 182.476 718.822 186.762L708.08 213.425C704.185 210.778 700.479 208.761 696.961 207.374C693.569 205.861 690.051 204.79 686.407 204.159C682.89 203.529 678.806 203.214 674.158 203.214C661.091 203.214 651.292 206.618 644.758 213.425C638.351 220.107 635.147 229.94 635.147 242.925C635.147 255.783 638.1 265.49 644.005 272.046C649.91 278.601 659.27 281.879 672.085 281.879C675.979 281.879 680.188 281.501 684.711 280.744C689.36 279.988 694.071 278.853 698.846 277.34L692.626 289.821V258.052H665.112V233.848H721.084V300.6C713.922 304.003 705.881 306.588 696.961 308.353C688.166 310.118 679.246 311 670.2 311Z" fill="url(#paint15_linear_22265_12415)"/>
<path d="M743.698 308.92V175.606H839.058V202.268H777.055V227.797H834.535V254.649H777.055V282.068H839.058V308.92H743.698Z" fill="url(#paint16_linear_22265_12415)"/>
<path d="M857.817 308.92V175.606H887.97L931.503 273.369H925.284L968.629 175.606H998.971V308.92H967.499V227.229H975.602L937.911 308.92H918.311L880.431 227.229H889.101V308.92H857.817Z" fill="url(#paint17_linear_22265_12415)"/>
<path d="M1023.81 308.92V175.606H1119.17V202.268H1057.16V227.797H1114.64V254.649H1057.16V282.068H1119.17V308.92H1023.81Z" fill="url(#paint18_linear_22265_12415)"/>
<path d="M1137.36 308.92V175.606H1162.99L1230.27 259.376H1224.8V175.606H1257.03V308.92H1231.4L1164.5 225.149H1169.96V308.92H1137.36Z" fill="url(#paint19_linear_22265_12415)"/>
<path d="M1311.81 308.92V203.781H1271.48V175.606H1387V203.781H1346.67V308.92H1311.81Z" fill="url(#paint20_linear_22265_12415)"/>
</g>
<defs>
<linearGradient id="paint0_linear_22265_12415" x1="712.827" y1="348.309" x2="714.825" y2="6.55043" gradientUnits="userSpaceOnUse">
<stop stop-color="#14161B"/>
<stop offset="0.958333" stop-color="#181A21"/>
</linearGradient>
<linearGradient id="paint1_linear_22265_12415" x1="712.827" y1="348.309" x2="714.825" y2="6.55043" gradientUnits="userSpaceOnUse">
<stop stop-color="#14161B"/>
<stop offset="0.958333" stop-color="#181A21"/>
</linearGradient>
<linearGradient id="paint2_linear_22265_12415" x1="712.827" y1="348.309" x2="714.825" y2="6.55043" gradientUnits="userSpaceOnUse">
<stop stop-color="#14161B"/>
<stop offset="0.958333" stop-color="#181A21"/>
</linearGradient>
<linearGradient id="paint3_linear_22265_12415" x1="712.827" y1="348.309" x2="714.825" y2="6.55043" gradientUnits="userSpaceOnUse">
<stop stop-color="#14161B"/>
<stop offset="0.958333" stop-color="#181A21"/>
</linearGradient>
<linearGradient id="paint4_linear_22265_12415" x1="712.827" y1="348.309" x2="714.825" y2="6.55043" gradientUnits="userSpaceOnUse">
<stop stop-color="#14161B"/>
<stop offset="0.958333" stop-color="#181A21"/>
</linearGradient>
<linearGradient id="paint5_linear_22265_12415" x1="712.827" y1="348.309" x2="714.825" y2="6.55043" gradientUnits="userSpaceOnUse">
<stop stop-color="#14161B"/>
<stop offset="0.958333" stop-color="#181A21"/>
</linearGradient>
<linearGradient id="paint6_linear_22265_12415" x1="712.827" y1="348.309" x2="714.825" y2="6.55043" gradientUnits="userSpaceOnUse">
<stop stop-color="#14161B"/>
<stop offset="0.958333" stop-color="#181A21"/>
</linearGradient>
<linearGradient id="paint7_linear_22265_12415" x1="712.827" y1="348.309" x2="714.825" y2="6.55043" gradientUnits="userSpaceOnUse">
<stop stop-color="#14161B"/>
<stop offset="0.958333" stop-color="#181A21"/>
</linearGradient>
<linearGradient id="paint8_linear_22265_12415" x1="712.827" y1="348.309" x2="714.825" y2="6.55043" gradientUnits="userSpaceOnUse">
<stop stop-color="#14161B"/>
<stop offset="0.958333" stop-color="#181A21"/>
</linearGradient>
<linearGradient id="paint9_linear_22265_12415" x1="712.827" y1="348.309" x2="714.825" y2="6.55043" gradientUnits="userSpaceOnUse">
<stop stop-color="#14161B"/>
<stop offset="0.958333" stop-color="#181A21"/>
</linearGradient>
<linearGradient id="paint10_linear_22265_12415" x1="712.827" y1="348.309" x2="714.825" y2="6.55043" gradientUnits="userSpaceOnUse">
<stop stop-color="#14161B"/>
<stop offset="0.958333" stop-color="#181A21"/>
</linearGradient>
<linearGradient id="paint11_linear_22265_12415" x1="712.827" y1="348.309" x2="714.825" y2="6.55043" gradientUnits="userSpaceOnUse">
<stop stop-color="#14161B"/>
<stop offset="0.958333" stop-color="#181A21"/>
</linearGradient>
<linearGradient id="paint12_linear_22265_12415" x1="712.827" y1="348.309" x2="714.825" y2="6.55043" gradientUnits="userSpaceOnUse">
<stop stop-color="#14161B"/>
<stop offset="0.958333" stop-color="#181A21"/>
</linearGradient>
<linearGradient id="paint13_linear_22265_12415" x1="712.827" y1="348.309" x2="714.825" y2="6.55043" gradientUnits="userSpaceOnUse">
<stop stop-color="#14161B"/>
<stop offset="0.958333" stop-color="#181A21"/>
</linearGradient>
<linearGradient id="paint14_linear_22265_12415" x1="712.827" y1="348.309" x2="714.825" y2="6.55043" gradientUnits="userSpaceOnUse">
<stop stop-color="#14161B"/>
<stop offset="0.958333" stop-color="#181A21"/>
</linearGradient>
<linearGradient id="paint15_linear_22265_12415" x1="712.827" y1="348.309" x2="714.825" y2="6.55043" gradientUnits="userSpaceOnUse">
<stop stop-color="#14161B"/>
<stop offset="0.958333" stop-color="#181A21"/>
</linearGradient>
<linearGradient id="paint16_linear_22265_12415" x1="712.827" y1="348.309" x2="714.825" y2="6.55043" gradientUnits="userSpaceOnUse">
<stop stop-color="#14161B"/>
<stop offset="0.958333" stop-color="#181A21"/>
</linearGradient>
<linearGradient id="paint17_linear_22265_12415" x1="712.827" y1="348.309" x2="714.825" y2="6.55043" gradientUnits="userSpaceOnUse">
<stop stop-color="#14161B"/>
<stop offset="0.958333" stop-color="#181A21"/>
</linearGradient>
<linearGradient id="paint18_linear_22265_12415" x1="712.827" y1="348.309" x2="714.825" y2="6.55043" gradientUnits="userSpaceOnUse">
<stop stop-color="#14161B"/>
<stop offset="0.958333" stop-color="#181A21"/>
</linearGradient>
<linearGradient id="paint19_linear_22265_12415" x1="712.827" y1="348.309" x2="714.825" y2="6.55043" gradientUnits="userSpaceOnUse">
<stop stop-color="#14161B"/>
<stop offset="0.958333" stop-color="#181A21"/>
</linearGradient>
<linearGradient id="paint20_linear_22265_12415" x1="712.827" y1="348.309" x2="714.825" y2="6.55043" gradientUnits="userSpaceOnUse">
<stop stop-color="#14161B"/>
<stop offset="0.958333" stop-color="#181A21"/>
</linearGradient>
</defs>
</svg>
