<svg width="77" height="91" viewBox="0 0 77 91" fill="none" xmlns="http://www.w3.org/2000/svg">
<path fill-rule="evenodd" clip-rule="evenodd" d="M13.68 78.224C13.68 80.704 12.128 82.304 8.36799 82.304H6.36799V86H3.34399V74H8.36799C12.128 74 13.68 75.488 13.68 78.224ZM10.576 78.208C10.576 76.816 9.96799 76.384 8.36799 76.384H6.36799V80.032H8.36799C9.90399 80.032 10.576 79.664 10.576 78.208ZM17.96 86H15.208V76.4L17.4 76.272L17.672 78H17.72C18.392 76.784 19.48 76.144 20.792 76.144C21.272 76.144 21.688 76.224 21.976 76.32L21.816 78.896C21.464 78.768 21.032 78.704 20.584 78.704C19.08 78.704 17.96 79.712 17.96 81.376V86ZM32.832 81.2C32.832 84.56 31.312 86.24 27.728 86.24C24.16 86.24 22.608 84.56 22.608 81.2C22.608 77.84 24.16 76.128 27.728 76.128C31.312 76.128 32.832 77.84 32.832 81.2ZM25.456 81.184C25.456 83.36 26.08 84.064 27.728 84.064C29.36 84.064 29.952 83.344 29.952 81.184C29.952 79.024 29.36 78.32 27.728 78.32C26.08 78.32 25.456 79.024 25.456 81.184ZM41.688 76.608L41.544 78.848C40.92 78.64 40.2 78.496 39.528 78.496C37.432 78.496 36.744 79.312 36.744 81.168C36.744 83.104 37.768 83.936 39.48 83.936C40.264 83.936 41 83.776 41.608 83.52L41.8 85.568C41.144 85.952 40.136 86.208 38.856 86.208C35.608 86.208 33.896 84.448 33.896 81.184C33.896 78.08 35.384 76.16 38.936 76.16C39.896 76.16 40.952 76.336 41.688 76.608ZM52.784 81.2C52.784 84.56 51.264 86.24 47.68 86.24C44.112 86.24 42.56 84.56 42.56 81.2C42.56 77.84 44.112 76.128 47.68 76.128C51.264 76.128 52.784 77.84 52.784 81.2ZM45.408 81.184C45.408 83.36 46.032 84.064 47.68 84.064C49.312 84.064 49.904 83.344 49.904 81.184C49.904 79.024 49.312 78.32 47.68 78.32C46.032 78.32 45.408 79.024 45.408 81.184ZM64.072 81.2C64.072 84.56 62.552 86.24 58.968 86.24C55.4 86.24 53.848 84.56 53.848 81.2C53.848 77.84 55.4 76.128 58.968 76.128C62.552 76.128 64.072 77.84 64.072 81.2ZM56.696 81.184C56.696 83.36 57.32 84.064 58.968 84.064C60.6 84.064 61.192 83.344 61.192 81.184C61.192 79.024 60.6 78.32 58.968 78.32C57.32 78.32 56.696 79.024 56.696 81.184ZM68.416 86H65.664V76.4L67.856 76.272L68.128 78H68.176C68.848 76.784 69.936 76.144 71.248 76.144C71.728 76.144 72.144 76.224 72.432 76.32L72.272 78.896C71.92 78.768 71.488 78.704 71.04 78.704C69.536 78.704 68.416 79.712 68.416 81.376V86Z" fill="#393F45"/>
<g clip-path="url(#clip0_21130_11096)">
<path fill-rule="evenodd" clip-rule="evenodd" d="M29.6599 43.6222C23.4702 37.3799 25.7658 26.4134 33.9128 23.2702C39.4318 21.1414 44.5038 22.4433 48.717 27.0708C51.9294 30.5999 52.6201 36.3286 50.1644 40.9817C49.3255 42.5722 48.0641 43.9785 46.8137 45.296C45.5467 46.6311 45.3134 46.4665 42.3452 43.4598C41.3914 42.4941 40.4837 41.6347 41.9351 40.3422C43.821 38.664 45.0279 36.6482 44.4605 33.9724C43.9123 31.3921 42.0987 29.717 39.5168 29.3326C37.3397 29.0083 35.0333 30.1608 33.9119 32.1333C32.699 34.2687 32.8076 36.8496 34.5662 38.678C38.6736 42.9474 42.8882 47.1159 47.1485 51.2334C47.541 51.6131 48.7624 51.6418 49.2682 51.3188C55.3486 47.4391 58.4933 41.7714 58.2256 34.5827C57.6758 19.8044 42.6916 11.7283 30.4087 17.7854C19.5762 23.1276 16.9901 36.1494 22.826 45.2177C24.4065 47.6741 26.3824 49.6768 28.8292 51.2573C29.7029 51.8218 30.4431 51.9533 31.1677 51.0978C32.0421 50.0645 32.8623 50.2975 33.7313 51.1729C37.8078 55.2763 37.6466 54.3518 33.9787 58.2705C32.5121 59.8376 31.2705 60.1569 29.1975 59.284C14.6185 53.1483 8.01931 36.0254 16.0058 22.4782C24.4908 8.08547 40.0921 4.65446 53.7031 13.47C66.4835 21.7482 68.8899 40.0468 59.196 51.6461C56.2374 55.1866 52.6609 57.7184 48.48 59.531C47.0417 60.1549 45.9353 60.0447 44.7671 58.7906C42.2494 56.0883 39.5695 53.5372 36.9568 50.9235C34.5241 48.4897 32.0818 46.0656 29.6599 43.6222Z" fill="#294CFF"/>
</g>
<defs>
<clipPath id="clip0_21130_11096">
<rect width="57" height="70" fill="white" transform="translate(10)"/>
</clipPath>
</defs>
</svg>
