<svg width="554" height="254" viewBox="0 0 554 254" fill="none" xmlns="http://www.w3.org/2000/svg">
<path fill-rule="evenodd" clip-rule="evenodd" d="M62.8243 122.448C49.9114 122.448 38.7388 119.922 29.3068 114.869C19.987 109.816 12.7445 102.686 7.57934 93.4785C2.52645 84.271 0 73.4915 0 61.14C0 48.7885 2.52645 38.0651 7.57934 28.9699C12.7445 19.7624 19.987 12.6322 29.3068 7.57934C38.7388 2.52645 49.9114 0 62.8243 0C71.0212 0 78.4883 1.12287 85.2255 3.36859C91.9626 5.50204 97.6331 8.58991 102.237 12.6322L92.9732 37.0545C87.8081 33.3491 83.0359 30.7665 78.6567 29.3068C74.3898 27.7348 69.5053 26.9488 64.0033 26.9488C53.8975 26.9488 46.0936 29.9243 40.5916 35.8755C35.2018 41.7144 32.5069 50.1359 32.5069 61.14C32.5069 72.2564 35.2018 80.7901 40.5916 86.7413C46.0936 92.5802 53.8975 95.4997 64.0033 95.4997C69.5053 95.4997 74.3898 94.7698 78.6567 93.3101C83.0359 91.7381 87.8081 89.0993 92.9732 85.3939L102.237 109.816C97.6331 113.859 91.9626 117.003 85.2255 119.248C78.4883 121.382 71.0212 122.448 62.8243 122.448ZM166.324 122.448C148.583 122.448 135.277 118.069 126.407 109.311C117.536 100.553 113.101 87.4712 113.101 70.0668V1.85273H144.092V70.2352C144.092 78.8813 145.888 85.45 149.482 89.9415C153.075 94.3207 158.689 96.5102 166.324 96.5102C173.96 96.5102 179.574 94.3207 183.167 89.9415C186.761 85.45 188.557 78.8813 188.557 70.2352V1.85273H219.211V70.0668C219.211 87.4712 214.832 100.553 206.074 109.311C197.316 118.069 184.066 122.448 166.324 122.448ZM252.545 119.08C261.191 121.326 270.286 122.448 279.83 122.448C290.049 122.448 298.919 120.876 306.442 117.732C313.966 114.588 319.804 110.153 323.959 104.426C328.226 98.6999 330.359 92.0188 330.359 84.3833C330.359 75.5127 327.608 68.3263 322.106 62.8243C316.717 57.3223 308.576 53.5045 297.684 51.3711L277.472 47.3288C272.195 46.2059 268.546 44.8023 266.524 43.118C264.616 41.3214 263.661 39.188 263.661 36.7177C263.661 33.1245 265.289 30.3735 268.546 28.4646C271.914 26.4435 276.855 25.4329 283.367 25.4329C290.217 25.4329 296.449 26.3312 302.063 28.1278C307.677 29.8121 312.73 32.2824 317.222 35.5387L325.98 12.9691C321.264 8.92678 315.201 5.78276 307.79 3.53702C300.379 1.17901 292.463 0 284.041 0C273.823 0 264.896 1.62816 257.261 4.88446C249.625 8.02848 243.674 12.5199 239.407 18.3588C235.253 24.0854 233.175 30.8788 233.175 38.7388C233.175 47.7218 235.87 55.0204 241.26 60.6347C246.65 66.1367 254.791 70.0106 265.682 72.2564L286.231 76.4671C291.508 77.59 295.101 78.9374 297.01 80.5094C298.919 81.9691 299.874 84.0464 299.874 86.7413C299.874 89.7731 298.414 92.2434 295.494 94.1522C292.687 96.0611 287.578 97.0155 280.167 97.0155C275.227 97.0155 270.342 96.5664 265.514 95.6681C260.798 94.6575 256.25 93.3101 251.871 91.6258C247.492 89.9415 243.45 87.9203 239.744 85.5623L230.986 109.648C236.825 113.578 244.011 116.722 252.545 119.08ZM367.95 120.596V26.9488H331.906V1.85273H435.153V26.9488H399.109V120.596H367.95ZM440.477 28.9699C435.649 38.0651 433.235 48.7885 433.235 61.14C433.235 73.3792 435.649 84.1026 440.477 93.3101C445.418 102.518 452.323 109.704 461.194 114.869C470.177 119.922 480.788 122.448 493.027 122.448C505.379 122.448 516.046 119.922 525.029 114.869C534.012 109.704 540.917 102.518 545.746 93.3101C550.686 84.1026 553.157 73.3792 553.157 61.14C553.157 48.7885 550.686 38.0651 545.746 28.9699C540.917 19.7624 534.012 12.6322 525.029 7.57934C516.046 2.52645 505.379 0 493.027 0C480.788 0 470.177 2.52645 461.194 7.57934C452.211 12.6322 445.305 19.7624 440.477 28.9699ZM472.479 87.2466C467.987 80.9586 465.742 72.2564 465.742 61.14C465.742 49.9114 467.987 41.2653 472.479 35.2018C476.97 29.0261 483.82 25.9382 493.027 25.9382C502.235 25.9382 509.14 29.0261 513.744 35.2018C518.348 41.3776 520.65 50.0236 520.65 61.14C520.65 72.2564 518.348 80.9586 513.744 87.2466C509.14 93.4224 502.235 96.5102 493.027 96.5102C483.82 96.5102 476.97 93.4224 472.479 87.2466ZM423.758 250.631C432.404 252.877 441.499 254 451.043 254C461.262 254 470.132 252.428 477.655 249.284C485.179 246.14 491.017 241.705 495.172 235.978C499.439 230.251 501.572 223.57 501.572 215.935C501.572 207.064 498.821 199.878 493.319 194.376C487.93 188.874 479.789 185.056 468.897 182.923L448.685 178.88C443.408 177.757 439.759 176.354 437.738 174.67C435.829 172.873 434.874 170.74 434.874 168.269C434.874 164.676 436.502 161.925 439.759 160.016C443.127 157.995 448.068 156.984 454.581 156.984C461.43 156.984 467.662 157.883 473.276 159.679C478.891 161.364 483.943 163.834 488.435 167.09L497.193 144.521C492.477 140.478 486.414 137.334 479.003 135.089C471.592 132.731 463.676 131.552 455.254 131.552C445.036 131.552 436.109 133.18 428.474 136.436C420.838 139.58 414.887 144.071 410.62 149.91C406.466 155.637 404.388 162.43 404.388 170.29C404.388 179.273 407.083 186.572 412.473 192.186C417.863 197.688 426.004 201.562 436.895 203.808L457.444 208.019C462.721 209.141 466.314 210.489 468.223 212.061C470.132 213.521 471.087 215.598 471.087 218.293C471.087 221.325 469.627 223.795 466.707 225.704C463.9 227.613 458.791 228.567 451.38 228.567C446.44 228.567 441.555 228.118 436.727 227.22C432.011 226.209 427.463 224.862 423.084 223.177C418.705 221.493 414.663 219.472 410.957 217.114L402.199 241.199C408.038 245.129 415.224 248.273 423.758 250.631ZM51.8475 133.404V252.147H79.8069V196.037L105.914 252.147H123.43L149.874 195.029V252.147H178.001V133.404H150.884L114.918 214.249L78.7963 133.404H51.8475ZM195.302 133.404V252.147H280.528V228.23H225.115V203.808H276.486V179.891H225.115V157.153H280.528V133.404H195.302ZM291.892 252.147V133.404H347.979C361.678 133.404 372.233 136.661 379.644 143.173C387.167 149.686 390.928 158.725 390.928 170.29C390.928 178.038 389.244 184.663 385.876 190.165C382.507 195.555 377.623 199.766 371.222 202.797C369.807 203.443 368.331 204.017 366.796 204.52C368.408 205.155 369.94 205.984 371.391 207.008C375.208 209.703 378.352 213.465 380.823 218.293L398.845 252.147H364.822L345.452 214.251C344.217 211.78 342.365 210.096 339.894 209.198C337.536 208.299 334.841 207.85 331.81 207.85H323.051V252.147H291.892ZM323.051 185.786H342.589C348.653 185.786 353.256 184.607 356.4 182.249C359.544 179.779 361.116 176.129 361.116 171.301C361.116 166.585 359.544 163.048 356.4 160.69C353.256 158.332 348.653 157.153 342.589 157.153H323.051V185.786Z" fill="#F7F9FA"/>
</svg>
