<svg width="1582" height="192" viewBox="0 0 1582 192" fill="none" xmlns="http://www.w3.org/2000/svg">
<path fill-rule="evenodd" clip-rule="evenodd" d="M98.5093 192C78.2616 192 60.743 188.038 45.9534 180.116C31.3399 172.193 19.9836 161.012 11.8845 146.575C3.9615 132.138 0 115.235 0 95.8679C0 76.5007 3.9615 59.6864 11.8845 45.425C19.9836 30.9876 31.3399 19.8074 45.9534 11.8845C60.743 3.96149 78.2616 0 98.5093 0C111.362 0 123.071 1.76066 133.635 5.28198C144.199 8.62723 153.09 13.469 160.309 19.8074L145.783 58.1018C137.684 52.2916 130.201 48.2421 123.335 45.9532C116.644 43.4883 108.985 42.2558 100.358 42.2558C84.512 42.2558 72.2753 46.9216 63.6481 56.2531C55.1969 65.4085 50.9713 78.6135 50.9713 95.8679C50.9713 113.298 55.1969 126.679 63.6481 136.011C72.2753 145.166 84.512 149.744 100.358 149.744C108.985 149.744 116.644 148.6 123.335 146.311C130.201 143.846 137.684 139.708 145.783 133.898L160.309 172.193C153.09 178.531 144.199 183.461 133.635 186.982C123.071 190.327 111.362 192 98.5093 192ZM260.799 192C232.98 192 212.116 185.133 198.207 171.4C184.298 157.667 177.343 137.155 177.343 109.865V2.90509H225.938V110.129C225.938 123.686 228.755 133.986 234.389 141.029C240.023 147.895 248.826 151.329 260.799 151.329C272.771 151.329 281.575 147.895 287.209 141.029C292.843 133.986 295.66 123.686 295.66 110.129V2.90509H343.726V109.865C343.726 137.155 336.86 157.667 323.126 171.4C309.393 185.133 288.617 192 260.799 192ZM395.993 186.718C409.551 190.239 423.812 192 438.778 192C454.8 192 468.709 189.535 480.505 184.605C492.302 179.675 501.457 172.721 507.972 163.741C514.662 154.762 518.008 144.286 518.008 132.314C518.008 118.404 513.694 107.136 505.067 98.5089C496.616 89.8817 483.851 83.8955 466.772 80.5502L435.08 74.2118C426.805 72.4512 421.083 70.2503 417.914 67.6094C414.921 64.7923 413.424 61.447 413.424 57.5736C413.424 51.9395 415.977 47.6259 421.083 44.6327C426.365 41.4636 434.112 39.879 444.324 39.879C455.064 39.879 464.835 41.2875 473.639 44.1045C482.442 46.7455 490.365 50.619 497.408 55.7249L511.141 20.3356C503.746 13.9972 494.239 9.0674 482.618 5.54607C470.998 1.84869 458.585 0 445.38 0C429.358 0 415.361 2.55296 403.388 7.65887C391.416 12.5887 382.084 19.6314 375.394 28.7868C368.879 37.7661 365.622 48.4182 365.622 60.7428C365.622 74.8281 369.847 86.2723 378.299 95.0756C386.75 103.703 399.515 109.777 416.593 113.298L448.813 119.901C457.089 121.662 462.723 123.774 465.716 126.239C468.709 128.528 470.205 131.785 470.205 136.011C470.205 140.765 467.917 144.638 463.339 147.631C458.937 150.624 450.926 152.121 439.306 152.121C431.559 152.121 423.9 151.417 416.329 150.008C408.934 148.424 401.804 146.311 394.937 143.67C388.07 141.029 381.732 137.86 375.922 134.162L362.189 171.928C371.344 178.091 382.612 183.021 395.993 186.718ZM576.949 189.095V42.2558H520.432V2.90509H682.325V42.2558H625.808V189.095H576.949ZM690.674 45.425C683.103 59.6864 679.317 76.5007 679.317 95.8679C679.317 115.059 683.103 131.873 690.674 146.311C698.42 160.748 709.249 172.016 723.158 180.116C737.243 188.038 753.881 192 773.073 192C792.44 192 809.166 188.038 823.252 180.116C837.337 172.016 848.165 160.748 855.736 146.311C863.483 131.873 867.356 115.059 867.356 95.8679C867.356 76.5007 863.483 59.6864 855.736 45.425C848.165 30.9876 837.337 19.8074 823.252 11.8845C809.166 3.96149 792.44 0 773.073 0C753.881 0 737.243 3.96149 723.158 11.8845C709.072 19.8074 698.244 30.9876 690.674 45.425ZM740.853 136.803C733.81 126.944 730.289 113.298 730.289 95.8679C730.289 78.2613 733.81 64.7043 740.853 55.1967C747.895 45.5131 758.635 40.6712 773.073 40.6712C787.51 40.6712 798.338 45.5131 805.557 55.1967C812.776 64.8803 816.385 78.4374 816.385 95.8679C816.385 113.298 812.776 126.944 805.557 136.803C798.338 146.487 787.51 151.329 773.073 151.329C758.635 151.329 747.895 146.487 740.853 136.803ZM1459.14 186.718C1472.7 190.239 1486.96 192 1501.93 192C1517.95 192 1531.86 189.535 1543.65 184.605C1555.45 179.675 1564.61 172.721 1571.12 163.741C1577.81 154.762 1581.16 144.286 1581.16 132.314C1581.16 118.404 1576.84 107.136 1568.22 98.5089C1559.76 89.8817 1547 83.8955 1529.92 80.5502L1498.23 74.2118C1489.95 72.4512 1484.23 70.2503 1481.06 67.6094C1478.07 64.7923 1476.57 61.447 1476.57 57.5736C1476.57 51.9395 1479.13 47.6259 1484.23 44.6327C1489.51 41.4636 1497.26 39.879 1507.47 39.879C1518.21 39.879 1527.98 41.2875 1536.79 44.1045C1545.59 46.7455 1553.51 50.619 1560.56 55.7249L1574.29 20.3356C1566.9 13.9972 1557.39 9.0674 1545.77 5.54607C1534.15 1.84869 1521.73 0 1508.53 0C1492.51 0 1478.51 2.55296 1466.54 7.65887C1454.56 12.5887 1445.23 19.6314 1438.54 28.7868C1432.03 37.7661 1428.77 48.4182 1428.77 60.7428C1428.77 74.8281 1433 86.2723 1441.45 95.0756C1449.9 103.703 1462.66 109.777 1479.74 113.298L1511.96 119.901C1520.24 121.662 1525.87 123.774 1528.86 126.239C1531.86 128.528 1533.35 131.785 1533.35 136.011C1533.35 140.765 1531.07 144.638 1526.49 147.631C1522.09 150.624 1514.08 152.121 1502.45 152.121C1494.71 152.121 1487.05 151.417 1479.48 150.008C1472.08 148.424 1464.95 146.311 1458.09 143.67C1451.22 141.029 1444.88 137.86 1439.07 134.162L1425.34 171.928C1434.49 178.091 1445.76 183.021 1459.14 186.718ZM875.982 2.90509V189.095H919.822V101.114L960.758 189.095H988.224L1029.69 99.5337V189.095H1073.79V2.90509H1031.27L974.878 129.67L918.238 2.90509H875.982ZM1100.92 2.90509V189.095H1234.56V151.593H1147.67V113.298H1228.22V75.7964H1147.67V40.1431H1234.56V2.90509H1100.92ZM1252.37 189.095V2.90509H1340.32C1361.8 2.90509 1378.35 8.011 1389.97 18.2228C1401.77 28.4347 1407.67 42.608 1407.67 60.7428C1407.67 72.8913 1405.02 83.2792 1399.74 91.9065C1394.46 100.358 1386.8 106.96 1376.77 111.714C1374.55 112.726 1372.23 113.626 1369.82 114.415C1372.35 115.41 1374.76 116.711 1377.03 118.316C1383.02 122.542 1387.95 128.44 1391.82 136.011L1420.08 189.095H1366.73L1336.36 129.673C1334.42 125.799 1331.52 123.158 1327.64 121.75C1323.95 120.341 1319.72 119.637 1314.97 119.637H1301.23V189.095H1252.37ZM1301.23 85.0399H1331.87C1341.38 85.0399 1348.59 83.1912 1353.52 79.4938C1358.45 75.6204 1360.92 69.8982 1360.92 62.3274C1360.92 54.9326 1358.45 49.3865 1353.52 45.6891C1348.59 41.9917 1341.38 40.1431 1331.87 40.1431H1301.23V85.0399Z" fill="#F7F9FA"/>
</svg>
