<svg width="2060" height="251" viewBox="0 0 2060 251" fill="none" xmlns="http://www.w3.org/2000/svg">
<path fill-rule="evenodd" clip-rule="evenodd" d="M128.312 250.088C101.939 250.088 79.12 244.928 59.856 234.608C40.8213 224.288 26.0293 209.725 15.48 190.92C5.16 172.115 0 150.099 0 124.872C0 99.6453 5.16 77.744 15.48 59.168C26.0293 40.3627 40.8213 25.8 59.856 15.48C79.12 5.16 101.939 0 128.312 0C145.053 0 160.304 2.29333 174.064 6.88C187.824 11.2373 199.405 17.544 208.808 25.8L189.888 75.68C179.339 68.112 169.592 62.8373 160.648 59.856C151.933 56.6453 141.957 55.04 130.72 55.04C110.08 55.04 94.1413 61.1173 82.904 73.272C71.896 85.1973 66.392 102.397 66.392 124.872C66.392 147.576 71.896 165.005 82.904 177.16C94.1413 189.085 110.08 195.048 130.72 195.048C141.957 195.048 151.933 193.557 160.648 190.576C169.592 187.365 179.339 181.976 189.888 174.408L208.808 224.288C199.405 232.544 187.824 238.965 174.064 243.552C160.304 247.909 145.053 250.088 128.312 250.088ZM339.7 250.088C303.466 250.088 276.29 241.144 258.172 223.256C240.055 205.368 230.996 178.651 230.996 143.104V3.784H294.292V143.448C294.292 161.107 297.962 174.523 305.3 183.696C312.639 192.64 324.106 197.112 339.7 197.112C355.295 197.112 366.762 192.64 374.1 183.696C381.439 174.523 385.108 161.107 385.108 143.448V3.784H447.716V143.104C447.716 178.651 438.772 205.368 420.884 223.256C402.996 241.144 375.935 250.088 339.7 250.088ZM515.796 243.208C533.455 247.795 552.031 250.088 571.524 250.088C592.393 250.088 610.511 246.877 625.876 240.456C641.242 234.035 653.167 224.976 661.652 213.28C670.367 201.584 674.724 187.939 674.724 172.344C674.724 154.227 669.106 139.549 657.868 128.312C646.86 117.075 630.234 109.277 607.988 104.92L566.708 96.664C555.929 94.3707 548.476 91.504 544.348 88.064C540.449 84.3947 538.5 80.0373 538.5 74.992C538.5 67.6533 541.825 62.0347 548.476 58.136C555.356 54.008 565.447 51.944 578.748 51.944C592.737 51.944 605.465 53.7787 616.932 57.448C628.399 60.888 638.719 65.9333 647.892 72.584L665.78 26.488C656.148 18.232 643.764 11.8107 628.628 7.22399C613.492 2.408 597.324 0 580.124 0C559.255 0 541.023 3.32534 525.428 9.976C509.833 16.3973 497.679 25.5707 488.964 37.496C480.479 49.192 476.236 63.0667 476.236 79.12C476.236 97.4667 481.74 112.373 492.748 123.84C503.756 135.077 520.383 142.989 542.628 147.576L584.596 156.176C595.375 158.469 602.714 161.221 606.612 164.432C610.511 167.413 612.46 171.656 612.46 177.16C612.46 183.352 609.479 188.397 603.516 192.296C597.783 196.195 587.348 198.144 572.212 198.144C562.122 198.144 552.146 197.227 542.284 195.392C532.652 193.328 523.364 190.576 514.42 187.136C505.476 183.696 497.22 179.568 489.652 174.752L471.764 223.944C483.689 231.971 498.367 238.392 515.796 243.208ZM751.498 246.304V55.04H677.882V3.784H888.754V55.04H815.138V246.304H751.498ZM899.628 59.168C889.767 77.744 884.836 99.6453 884.836 124.872C884.836 149.869 889.767 171.771 899.628 190.576C909.719 209.381 923.823 224.059 941.94 234.608C960.287 244.928 981.959 250.088 1006.96 250.088C1032.18 250.088 1053.97 244.928 1072.32 234.608C1090.66 224.059 1104.77 209.381 1114.63 190.576C1124.72 171.771 1129.76 149.869 1129.76 124.872C1129.76 99.6453 1124.72 77.744 1114.63 59.168C1104.77 40.3627 1090.66 25.8 1072.32 15.48C1053.97 5.16 1032.18 0 1006.96 0C981.959 0 960.287 5.16 941.94 15.48C923.593 25.8 909.489 40.3627 899.628 59.168ZM964.988 178.192C955.815 165.349 951.228 147.576 951.228 124.872C951.228 101.939 955.815 84.28 964.988 71.896C974.161 59.2827 988.151 52.976 1006.96 52.976C1025.76 52.976 1039.87 59.2827 1049.27 71.896C1058.67 84.5093 1063.37 102.168 1063.37 124.872C1063.37 147.576 1058.67 165.349 1049.27 178.192C1039.87 190.805 1025.76 197.112 1006.96 197.112C988.151 197.112 974.161 190.805 964.988 178.192ZM1900.59 243.208C1918.25 247.795 1936.82 250.088 1956.32 250.088C1977.18 250.088 1995.3 246.877 2010.67 240.456C2026.03 234.035 2037.96 224.976 2046.44 213.28C2055.16 201.584 2059.52 187.939 2059.52 172.344C2059.52 154.227 2053.9 139.549 2042.66 128.312C2031.65 117.075 2015.02 109.277 1992.78 104.92L1951.5 96.664C1940.72 94.3707 1933.27 91.504 1929.14 88.064C1925.24 84.3947 1923.29 80.0373 1923.29 74.992C1923.29 67.6533 1926.62 62.0347 1933.27 58.136C1940.15 54.008 1950.24 51.944 1963.54 51.944C1977.53 51.944 1990.26 53.7787 2001.72 57.448C2013.19 60.888 2023.51 65.9333 2032.68 72.584L2050.57 26.488C2040.94 18.232 2028.56 11.8107 2013.42 7.22399C1998.28 2.408 1982.12 0 1964.92 0C1944.05 0 1925.81 3.32534 1910.22 9.976C1894.62 16.3973 1882.47 25.5707 1873.76 37.496C1865.27 49.192 1861.03 63.0667 1861.03 79.12C1861.03 97.4667 1866.53 112.373 1877.54 123.84C1888.55 135.077 1905.17 142.989 1927.42 147.576L1969.39 156.176C1980.17 158.469 1987.5 161.221 1991.4 164.432C1995.3 167.413 1997.25 171.656 1997.25 177.16C1997.25 183.352 1994.27 188.397 1988.31 192.296C1982.57 196.195 1972.14 198.144 1957 198.144C1946.91 198.144 1936.94 197.227 1927.08 195.392C1917.44 193.328 1908.16 190.576 1899.21 187.136C1890.27 183.696 1882.01 179.568 1874.44 174.752L1856.56 223.944C1868.48 231.971 1883.16 238.392 1900.59 243.208ZM1141 3.784V246.304H1198.1V131.706L1251.42 246.304H1287.2L1341.21 129.647V246.304H1398.66V3.784H1343.27L1269.82 168.901L1196.04 3.784H1141ZM1433.99 3.784V246.304H1608.06V197.456H1494.88V147.576H1599.8V98.728H1494.88V52.288H1608.06V3.784H1433.99ZM1631.26 246.304V3.784H1745.82C1773.8 3.784 1795.35 10.4347 1810.49 23.736C1825.85 37.0373 1833.54 55.4987 1833.54 79.12C1833.54 94.944 1830.1 108.475 1823.22 119.712C1816.34 130.72 1806.36 139.32 1793.29 145.512C1790.4 146.83 1787.38 148.003 1784.25 149.03C1787.54 150.327 1790.67 152.021 1793.63 154.112C1801.43 159.616 1807.85 167.299 1812.9 177.16L1849.7 246.304H1780.22L1740.66 168.904C1738.13 163.859 1734.35 160.419 1729.3 158.584C1724.49 156.749 1718.98 155.832 1712.79 155.832H1694.9V246.304H1631.26ZM1694.9 110.768H1734.81C1747.19 110.768 1756.6 108.36 1763.02 103.544C1769.44 98.4987 1772.65 91.0453 1772.65 81.184C1772.65 71.552 1769.44 64.328 1763.02 59.512C1756.6 54.696 1747.19 52.288 1734.81 52.288H1694.9V110.768Z" fill="#F7F9FA"/>
</svg>
