<svg width="85" height="84" viewBox="0 0 85 84" fill="none" xmlns="http://www.w3.org/2000/svg">
<path fill-rule="evenodd" clip-rule="evenodd" d="M60.4917 12.3048C60.3843 13.1258 60.3169 13.7431 60.2192 14.3556C60.1355 14.8783 60.3103 15.2523 60.7574 15.5363C61.2166 15.8278 61.7051 16.1022 62.0841 16.4802C62.3413 16.7369 62.6145 17.2014 62.5461 17.496C62.4768 17.7943 62.032 18.0949 61.6876 18.2203C61.1841 18.4035 60.5903 18.3506 60.0987 18.5522C59.7203 18.7075 59.3354 19.0431 59.1412 19.4003C58.8753 19.8894 58.8478 20.5041 58.6015 21.0084C58.4413 21.337 58.0917 21.7557 57.7939 21.784C57.4936 21.8123 57.0837 21.4642 56.8458 21.1786C56.5364 20.8071 56.3126 20.3504 56.1184 19.9018C55.8244 19.2233 55.3243 19.0039 54.6241 19.0736C54.1343 19.1222 53.6279 19.2074 53.1521 19.1318C52.7916 19.0746 52.3033 18.8655 52.1729 18.5849C52.0383 18.2949 52.1835 17.7931 52.3583 17.4646C52.5587 17.0878 52.8971 16.7655 53.2277 16.4796C53.873 15.9218 53.9822 15.3033 53.6198 14.5448C53.4428 14.1743 53.2733 13.7704 53.2402 13.37C53.2093 12.9964 53.2405 12.4712 53.4712 12.2637C53.6953 12.0624 54.2348 12.083 54.5878 12.18C55.1307 12.3294 55.6414 12.61 56.1497 12.8663C56.6507 13.119 57.0868 13.0617 57.5223 12.7217C57.9918 12.3552 58.4516 11.9563 58.9745 11.6847C59.2717 11.5304 59.7425 11.48 60.0328 11.6098C60.2878 11.7239 60.4005 12.1542 60.4917 12.3048ZM24.3994 71.5294C24.5109 70.6642 24.6673 70.0454 24.6404 69.4347C24.6242 69.0583 24.4094 68.6131 24.1387 68.343C23.7232 67.9283 23.1351 67.6863 22.7143 67.2753C22.4777 67.0441 22.286 66.5946 22.3416 66.2922C22.3896 66.0302 22.7808 65.7437 23.0811 65.6354C23.5366 65.4711 24.0429 65.4354 24.5312 65.375C25.2579 65.2854 25.7118 64.9301 25.8719 64.1925C25.9809 63.6891 26.0914 63.1671 26.3237 62.7163C26.4782 62.4164 26.8263 62.0791 27.1294 62.0337C27.3863 61.9951 27.779 62.2916 27.976 62.5448C28.3066 62.9689 28.5663 63.4598 28.788 63.9529C29.077 64.5966 29.5506 64.8153 30.2205 64.7537C30.711 64.7086 31.2145 64.6246 31.6928 64.6931C32.0596 64.746 32.584 64.9311 32.6967 65.1999C32.8313 65.5203 32.6973 66.0467 32.5054 66.3858C32.2566 66.8254 31.8595 67.1938 31.4827 67.5469C31.0188 67.9815 30.9442 68.4426 31.1858 69.0156C31.3762 69.4668 31.5832 69.9359 31.6347 70.4128C31.6772 70.8036 31.6247 71.3393 31.3831 71.5832C31.1861 71.782 30.6208 71.7347 30.2658 71.6336C29.7236 71.479 29.2413 71.1013 28.6968 70.975C28.295 70.882 27.7846 70.934 27.4132 71.1104C26.8837 71.3617 26.4654 71.8396 25.9437 72.1165C25.6444 72.2751 25.1717 72.3635 24.8927 72.2344C24.617 72.1071 24.4871 71.6666 24.3994 71.5294ZM54.1697 64.6212C55.2292 64.9059 55.9999 64.4638 56.407 63.3257C56.51 63.0373 56.6605 62.7343 56.8746 62.5255C57.1284 62.2785 57.5096 61.9351 57.7731 61.9817C58.0934 62.0387 58.438 62.4114 58.611 62.7334C58.8638 63.2053 58.9981 63.747 59.1376 64.2706C59.2978 64.871 59.6443 65.1933 60.2745 65.2605C60.7634 65.3125 61.271 65.3697 61.7212 65.5486C62.0589 65.6827 62.5047 65.977 62.5615 66.2663C62.6205 66.5678 62.343 67.0214 62.083 67.2784C61.7009 67.6555 61.2133 67.9311 60.7531 68.2232C60.2714 68.5291 60.1125 68.9388 60.2374 69.4848C60.3585 70.0146 60.538 70.5466 60.5486 71.0805C60.5555 71.4398 60.4113 71.937 60.1531 72.1261C59.9296 72.2895 59.2993 72.2506 59.1083 72.0527C57.71 70.6039 56.2547 70.5379 54.6126 71.6181C54.3801 71.7711 53.7932 71.6856 53.5787 71.4871C53.3661 71.2905 53.2472 70.7208 53.3808 70.4701C54.2736 68.7923 53.944 67.4504 52.4905 66.2642C52.2451 66.0635 52.0765 65.4363 52.2114 65.1921C52.374 64.8981 52.8857 64.764 53.2712 64.6355C53.505 64.5577 53.7863 64.6212 54.1697 64.6212ZM65.229 30.1651C65.5428 29.1039 65.013 28.4129 63.9388 28.0038C63.6036 27.8762 63.262 27.6967 63.0051 27.455C62.7844 27.2475 62.5269 26.8941 62.564 26.647C62.6077 26.3586 62.9021 26.003 63.1793 25.877C63.764 25.6113 64.4408 25.5426 65.0161 25.2626C65.3549 25.0977 65.6842 24.7247 65.8169 24.3703C66.022 23.8222 65.9926 23.1884 66.1862 22.6337C66.2961 22.3186 66.6195 21.9231 66.9064 21.8665C67.1945 21.8099 67.6315 22.0572 67.8697 22.3008C68.245 22.6847 68.5319 23.1626 68.8128 23.6268C69.1487 24.1815 69.6107 24.31 70.2089 24.1678C70.7383 24.0418 71.2712 23.8775 71.8078 23.8548C72.1219 23.8411 72.5945 23.9864 72.7269 24.2148C72.8823 24.483 72.8536 24.9698 72.711 25.2707C72.4821 25.7529 72.1169 26.1794 71.7672 26.5942C71.3068 27.1402 71.2568 27.6812 71.6005 28.3062C71.8615 28.7803 72.1247 29.2728 72.2586 29.7902C72.3423 30.1144 72.3004 30.5897 72.1066 30.8305C71.9436 31.0325 71.3954 31.1553 71.1616 31.0353C69.4381 30.1501 68.0339 30.4367 66.819 31.954C66.6391 32.1786 66.0423 32.3136 65.8013 32.1854C65.5178 32.0345 65.357 31.5685 65.2465 31.2076C65.1594 30.9236 65.229 30.5919 65.229 30.1651ZM30.718 19.2068C29.6535 18.9197 28.8952 19.373 28.4794 20.502C28.3477 20.8604 28.1267 21.1967 27.8966 21.5066C27.4427 22.1182 26.6401 22.0224 26.3579 21.3109C26.1394 20.7602 25.9801 20.1831 25.8359 19.6076C25.6789 18.9819 25.3411 18.6266 24.6681 18.5632C24.1283 18.5121 23.5758 18.4325 23.0691 18.2533C22.77 18.1475 22.3808 17.8513 22.3371 17.5897C22.2856 17.2842 22.4925 16.8576 22.7213 16.6028C23.0073 16.2846 23.4081 16.0472 23.7971 15.8468C24.63 15.4175 24.816 14.7604 24.6191 13.9049C24.521 13.478 24.4143 13.0316 24.4449 12.6035C24.468 12.2831 24.6269 11.8264 24.8654 11.7053C25.1429 11.5644 25.6271 11.6217 25.9255 11.7766C26.3766 12.0108 26.7487 12.3985 27.1464 12.7308C27.6109 13.1193 28.0926 13.2074 28.6527 12.9193C29.1818 12.6471 29.7172 12.3584 30.2844 12.2006C30.6053 12.1113 31.088 12.1589 31.3271 12.3537C31.5294 12.5186 31.5662 12.9912 31.5322 13.3125C31.4894 13.7148 31.3502 14.1276 31.1623 14.4892C30.703 15.3724 30.9294 16.0628 31.6343 16.6909C31.9421 16.965 32.2574 17.2649 32.4559 17.6164C32.6279 17.9207 32.7956 18.3827 32.6785 18.6503C32.562 18.9166 32.1063 19.0855 31.766 19.1891C31.481 19.2759 31.1482 19.2068 30.718 19.2068ZM12.8746 24.0757C13.5358 24.1659 14.182 24.2334 14.82 24.347C15.3841 24.4472 15.7691 24.2378 16.0703 23.7811C16.3694 23.3272 16.6419 22.8422 17.0146 22.4558C17.2513 22.2106 17.7017 21.9365 17.9624 22.0093C18.2733 22.0961 18.5855 22.5015 18.7144 22.8381C18.9055 23.3368 18.9535 23.8943 19.0297 24.4313C19.1084 24.9838 19.3925 25.3142 19.9369 25.4583C20.5126 25.6101 21.1026 25.7464 21.6395 25.9915C21.9264 26.1225 22.287 26.4585 22.3019 26.7198C22.3194 27.0244 22.0588 27.4177 21.805 27.6473C21.4865 27.9347 21.072 28.146 20.6646 28.3C19.7855 28.6319 19.5161 29.2507 19.6282 30.1312C19.68 30.5397 19.7193 30.9715 19.6391 31.3675C19.5698 31.7079 19.3906 32.1907 19.1365 32.2872C18.8312 32.4026 18.3367 32.2682 18.0298 32.075C17.5538 31.7757 17.152 31.3507 16.7477 30.9494C16.3525 30.5571 15.9454 30.4473 15.4122 30.6653C14.8865 30.8803 14.3415 31.09 13.7855 31.1737C13.448 31.2244 12.9514 31.1407 12.7513 30.917C12.559 30.7024 12.5627 30.2052 12.6492 29.8761C12.7787 29.3836 13.0082 28.8998 13.2807 28.4658C13.7202 27.7655 13.5529 27.2126 13.0303 26.6561C12.6948 26.2986 12.3782 25.9128 12.1154 25.5C11.6908 24.8326 12.111 24.095 12.8746 24.0757ZM19.6599 53.6207C19.344 54.7071 19.88 55.4215 20.9813 55.8433C21.3163 55.9715 21.6297 56.1747 21.926 56.3819C22.5981 56.8523 22.5182 57.6459 21.7502 57.9471C21.1486 58.1826 20.5224 58.3655 19.8943 58.5211C19.3617 58.653 19.1154 58.9712 19.0374 59.4877C18.9522 60.0499 18.8969 60.6285 18.7109 61.159C18.5985 61.4794 18.2904 61.9119 18.0203 61.9507C17.7016 61.9965 17.2833 61.728 16.9936 61.4915C16.7232 61.2707 16.5185 60.935 16.3664 60.612C15.9035 59.6271 15.1421 59.4553 14.1725 59.7076C13.8484 59.7919 13.4941 59.8784 13.1741 59.8299C12.7992 59.773 12.2523 59.6597 12.1349 59.4074C11.9925 59.101 12.1377 58.5823 12.3116 58.2308C12.5133 57.8239 12.8776 57.4959 13.1782 57.1394C13.5481 56.7001 13.6383 56.2384 13.3727 55.7055C13.0958 55.1505 12.7886 54.5967 12.6219 54.0068C12.5329 53.6926 12.6032 53.2085 12.8045 52.9761C12.9759 52.7789 13.5197 52.6765 13.7591 52.8003C15.4561 53.6783 16.8391 53.4132 18.0384 51.9034C18.2279 51.6648 18.8454 51.5313 19.1208 51.6589C19.3948 51.7858 19.5334 52.2886 19.6446 52.6529C19.7239 52.9136 19.6599 53.2179 19.6599 53.6207ZM72.0851 59.7595C71.2663 59.6491 70.6466 59.5819 70.0332 59.4783C69.504 59.389 69.1316 59.5778 68.8438 60.0115C68.5294 60.4863 68.2438 60.9946 67.8523 61.3988C67.6194 61.6393 67.1696 61.8717 66.8858 61.8073C66.5989 61.7422 66.2968 61.3434 66.1797 61.0254C65.9943 60.5233 65.9337 59.9695 65.865 59.4322C65.7898 58.8424 65.4892 58.5054 64.9132 58.357C64.3369 58.2086 63.7478 58.0665 63.2143 57.816C62.9321 57.6838 62.6043 57.3434 62.5744 57.0672C62.5444 56.7934 62.7963 56.3967 63.0429 56.2057C63.4884 55.8607 64.0088 55.6009 64.522 55.3567C65.0936 55.0845 65.3143 54.6716 65.2616 54.0519C65.2179 53.5373 65.1682 53.0065 65.2507 52.5041C65.3103 52.1432 65.5069 51.6445 65.7823 51.5235C66.0648 51.3993 66.5708 51.5745 66.8833 51.7705C67.3375 52.0558 67.7299 52.4546 68.1052 52.8463C68.5444 53.3052 69.0046 53.373 69.5796 53.1291C70.0544 52.9275 70.5517 52.7231 71.0559 52.6643C71.4192 52.622 71.9221 52.7063 72.1541 52.94C72.3451 53.1325 72.3245 53.6555 72.2278 53.9822C72.0679 54.5214 71.7963 55.0337 71.5251 55.5325C71.2182 56.0959 71.3228 56.5582 71.7323 57.0162C72.0773 57.4019 72.4525 57.7843 72.6901 58.2335C72.8474 58.5316 72.9105 58.9982 72.7844 59.2901C72.6732 59.5461 72.2403 59.664 72.0851 59.7595ZM47.7815 11.1586C47.6938 11.2924 47.5667 11.5755 47.3607 11.779C47.0301 12.1063 46.668 12.4115 46.2818 12.6706C45.6029 13.1264 45.3865 13.6796 45.6924 14.4648C45.8694 14.9187 46.0059 15.4121 46.0265 15.8937C46.0399 16.2055 45.8975 16.6538 45.6672 16.8096C45.4365 16.9661 44.976 16.9238 44.6772 16.8096C44.2486 16.646 43.849 16.3716 43.4844 16.0848C42.7795 15.5307 42.1246 15.573 41.4359 16.1068C41.1097 16.3598 40.7579 16.618 40.3749 16.749C40.0224 16.8691 39.5011 16.977 39.2591 16.8047C39.0169 16.6323 38.9251 16.0972 38.9541 15.736C38.9988 15.1763 39.1817 14.6228 39.3431 14.0778C39.5067 13.5268 39.3297 13.1242 38.8986 12.7851C38.4497 12.4323 37.967 12.1063 37.5862 11.6897C37.3739 11.4576 37.1904 11.0233 37.2653 10.7554C37.3408 10.4854 37.7223 10.196 38.0232 10.117C38.5162 9.9876 39.0515 10.0013 39.5701 9.99196C40.3034 9.97827 40.791 9.6796 41.0239 8.95627C41.174 8.49054 41.3417 8.008 41.6154 7.61102C41.8127 7.3248 42.1983 6.99907 42.4992 7C42.7923 7.00062 43.1757 7.33725 43.3571 7.6272C43.6552 8.10476 43.8391 8.65698 44.0392 9.1896C44.2252 9.68582 44.5458 9.9372 45.0856 9.95058C45.6562 9.96458 46.2275 10.0035 46.7954 10.0632C47.341 10.1204 47.7216 10.3855 47.7815 11.1586ZM73.3018 47.2246C73.1432 47.0977 72.8323 46.9173 72.6113 46.6603C70.8981 44.6667 71.637 44.7874 68.8761 45.4246C68.4953 45.5123 67.9343 45.3857 67.6368 45.1408C67.1985 44.7796 67.5076 44.2949 67.7617 43.8874C69.164 41.6374 69.0987 42.2288 67.7895 40.0056C67.5859 39.6606 67.4807 39.0975 67.6193 38.7494C67.841 38.1918 68.4076 38.3499 68.9123 38.4681C71.4347 39.0583 70.8519 39.3125 72.6072 37.2772C72.8632 36.9801 73.4442 36.6727 73.7351 36.7732C74.0489 36.8811 74.366 37.4514 74.3929 37.8397C74.5796 40.5442 74.3785 39.921 76.6758 41.0015C77.0389 41.172 77.5043 41.6212 77.5 41.9358C77.4956 42.2658 77.0345 42.7907 76.683 42.8809C74.9529 43.3246 74.1856 44.3263 74.4004 46.1205C74.4691 46.6917 74.2234 47.2054 73.3018 47.2246ZM11.3321 36.3912C11.7544 36.6908 12.0326 36.8295 12.2308 37.042C12.5658 37.401 12.8886 37.7828 13.1464 38.1981C13.5754 38.8885 14.1354 39.03 14.875 38.7799C15.3154 38.6308 15.775 38.475 16.2317 38.4551C16.5963 38.4395 17.1276 38.5136 17.2956 38.7513C17.4722 39.0011 17.398 39.5287 17.2647 39.8697C17.0798 40.3432 16.7496 40.7638 16.4596 41.1922C16.114 41.7031 16.1105 42.1946 16.4542 42.7061C16.728 43.114 17.0458 43.5112 17.2216 43.9605C17.3667 44.3313 17.5153 44.9333 17.3311 45.1402C17.0992 45.4012 16.5264 45.4532 16.1084 45.4333C15.6267 45.4103 15.1497 45.2233 14.678 45.0833C14.1132 44.9159 13.6653 45.0513 13.2953 45.5101C12.9701 45.9133 12.6635 46.3492 12.268 46.6718C11.983 46.9042 11.5069 47.1562 11.2225 47.066C10.9378 46.9758 10.733 46.4923 10.5916 46.142C10.4805 45.8664 10.4655 45.5244 10.5001 45.2227C10.6384 44.0156 10.0328 43.4024 8.92864 43.1186C8.6071 43.0362 8.26027 42.9114 8.01896 42.6996C7.77203 42.483 7.49326 42.1324 7.50012 41.8471C7.50699 41.5621 7.79232 41.1932 8.05923 41.0248C8.51313 40.7386 9.0379 40.5482 9.55268 40.3777C10.1808 40.1699 10.4758 39.7985 10.463 39.1212C10.4524 38.5553 10.473 37.9688 10.6153 37.4269C10.7077 37.0765 11.0446 36.79 11.3321 36.3912ZM42.3802 77.001C42.0093 76.641 41.6943 76.4438 41.5373 76.1594C41.2513 75.6411 41.0453 75.0765 40.8324 74.5211C40.6407 74.0218 40.3076 73.8012 39.7666 73.7941C39.1704 73.786 38.5629 73.7642 37.9847 73.6373C37.6804 73.5707 37.2767 73.3149 37.1946 73.0573C37.1094 72.7895 37.2677 72.3306 37.4803 72.1072C37.9055 71.6611 38.5036 71.3736 38.9075 70.9138C39.1701 70.6151 39.3496 70.1201 39.3283 69.726C39.2959 69.1171 39.0024 68.5254 38.9334 67.9137C38.8988 67.6067 39.0234 67.1506 39.2447 66.9829C39.4695 66.8124 39.948 66.8028 40.2333 66.9201C40.7547 67.1347 41.2254 67.4801 41.699 67.7983C42.2406 68.1623 42.7489 68.157 43.2855 67.7846C43.7113 67.4891 44.139 67.1652 44.6157 66.9851C44.9584 66.8557 45.4748 66.8018 45.7432 66.9757C45.9677 67.1207 46.0414 67.654 46.0095 67.9996C45.9602 68.5338 45.7785 69.0589 45.6265 69.5804C45.4626 70.1435 45.5925 70.5912 46.0523 70.9626C46.4762 71.3049 46.9317 71.6287 47.276 72.0409C47.4924 72.3001 47.6918 72.7612 47.6016 73.0337C47.5105 73.3084 47.0778 73.5641 46.7491 73.6463C46.2271 73.7766 45.6674 73.7866 45.1233 73.79C44.517 73.7941 44.1589 74.0666 43.9507 74.6185C43.7591 75.1262 43.5733 75.6473 43.2939 76.1075C43.1022 76.4236 42.7545 76.6457 42.3802 77.001Z" fill="black"/>
</svg>
