<svg xmlns="http://www.w3.org/2000/svg" width="48" height="48" viewBox="0 0 48 48" fill="none">
<path fill-rule="evenodd" clip-rule="evenodd" d="M24 48C37.2548 48 48 37.2548 48 24C48 10.7452 37.2548 0 24 0C10.7452 0 0 10.7452 0 24C0 27.6854 0.830673 31.1768 2.315 34.2971C3.21833 36.1961 4.36374 37.9576 5.71135 39.5418C6.28799 40.2197 6.90165 40.8651 7.5492 41.475C8.26666 42.1506 9.02572 42.7826 9.82214 43.3666C13.7946 46.2797 18.6964 48 24 48Z" fill="#2448FF"/>
<path fill-rule="evenodd" clip-rule="evenodd" d="M15.8019 30.3044C15.8024 28.0802 15.794 25.8561 15.8039 23.6325C15.828 17.9506 21.9259 13.9877 27.1171 16.2746C30.6335 17.824 32.367 20.7372 32.1764 24.7777C32.0308 27.8588 29.7144 30.7927 26.4458 31.797C25.3288 32.1405 24.1022 32.2068 22.9215 32.2374C21.725 32.2685 21.6934 32.0866 21.7112 29.3559C21.7166 28.4786 21.6944 27.671 22.9561 27.7437C24.5948 27.8386 26.0766 27.4689 27.046 25.9866C27.9804 24.5567 27.9167 22.9623 26.9063 21.6065C26.0544 20.4633 24.464 19.936 23.0415 20.3249C21.5019 20.7465 20.3652 21.9757 20.3331 23.6152C20.2586 27.4437 20.2798 31.2751 20.3454 35.1041C20.3514 35.457 20.8997 36.0283 21.2808 36.1118C25.8604 37.1176 29.9123 35.9645 33.0945 32.5567C39.6366 25.5512 36.4604 15.0117 28.0278 12.1663C20.5908 9.65702 13.4144 14.4266 11.9281 21.2383C11.5254 23.0834 11.513 24.9017 11.9114 26.7423C12.0535 27.3997 12.3334 27.798 13.06 27.7382C13.9371 27.6656 14.2071 28.147 14.2041 28.9442C14.1918 32.6827 14.5427 32.1865 11.0545 32.3012C9.65958 32.3471 8.94189 31.9255 8.39005 30.5792C4.50792 21.1118 9.34664 10.2699 19.2477 7.72845C29.7667 5.02836 38.5177 10.5907 40.7226 20.8405C42.7927 30.465 35.4855 39.9279 25.695 40.7988C22.7068 41.0647 19.8982 40.5873 17.1425 39.5049C16.1943 39.1327 15.7362 38.5767 15.7757 37.4695C15.8606 35.0838 15.8014 32.6931 15.8019 30.3044Z" fill="#CCDDFF"/>
</svg>