<svg width="414" height="188" viewBox="0 0 414 188" fill="none" xmlns="http://www.w3.org/2000/svg">
<g opacity="0.2">
<mask id="mask0_21038_9760" style="mask-type:alpha" maskUnits="userSpaceOnUse" x="0" y="0" width="414" height="188">
<path d="M0 187.363C0 113.112 0 138.07 0 18.5935C6.40213 12.3701 9.67441 9.01897 17.9557 0.637466C17.9557 5.52383 18.0308 13.476 18.0308 18.2165C18.0308 60.2109 359.34 19.3831 412.24 19.3831C413.561 117.455 412.132 133.92 413.561 187.363C247.758 187.363 128.746 187.363 0 187.363Z" fill="white"/>
</mask>
<g mask="url(#mask0_21038_9760)">
<path fill-rule="evenodd" clip-rule="evenodd" d="M447.953 171.181L445.314 168.542L207.994 405.862L210.633 408.501L447.953 171.181ZM273.77 -3.00134L271.131 -5.64048L33.8113 231.679L36.4505 234.318L273.77 -3.00134ZM360.861 84.0899L358.222 81.4508L120.903 318.77L123.542 321.41L360.861 84.0899ZM186.679 -90.0926L184.04 -92.7317L-53.2799 144.588L-50.6408 147.227L186.679 -90.0926ZM404.407 127.636L401.768 124.996L164.448 362.316L167.087 364.955L404.407 127.636ZM230.225 -46.547L227.585 -49.1861L-9.73429 188.134L-7.09516 190.773L230.225 -46.547ZM317.316 40.5443L314.677 37.9052L77.357 275.225L79.9961 277.864L317.316 40.5443ZM143.133 -133.638L140.494 -136.277L-96.8255 101.042L-94.1864 103.681L143.133 -133.638ZM426.18 149.408L423.541 146.769L186.221 384.089L188.86 386.728L426.18 149.408ZM251.997 -24.7741L249.358 -27.4133L12.0385 209.906L14.6777 212.546L251.997 -24.7741ZM339.089 62.3171L336.449 59.678L99.1298 296.998L101.769 299.637L339.089 62.3171ZM164.906 -111.865L162.267 -114.505L-75.0527 122.815L-72.4136 125.454L164.906 -111.865ZM382.634 105.863L379.995 103.224L142.675 340.543L145.315 343.182L382.634 105.863ZM208.452 -68.3198L205.813 -70.9589L-31.5071 166.361L-28.868 169L208.452 -68.3198ZM295.543 18.7715L292.904 16.1323L55.5841 253.452L58.2233 256.091L295.543 18.7715ZM121.36 -155.411L118.721 -158.05L-118.598 79.2696L-115.959 81.9087L121.36 -155.411ZM440.695 163.924L438.056 161.284L200.736 398.604L203.375 401.243L440.695 163.924ZM266.513 -10.259L263.873 -12.8981L26.5537 224.422L29.1929 227.061L266.513 -10.259ZM353.604 76.8323L350.965 74.1932L113.645 311.513L116.284 314.152L353.604 76.8323ZM179.421 -97.3502L176.782 -99.9893L-60.5375 137.33L-57.8984 139.97L179.421 -97.3502ZM397.149 120.378L394.51 117.739L157.191 355.059L159.83 357.698L397.149 120.378ZM222.967 -53.8046L220.328 -56.4437L-16.9919 180.876L-14.3528 183.515L222.967 -53.8046ZM310.058 33.2867L307.419 30.6475L70.0993 267.967L72.7385 270.606L310.058 33.2867ZM135.876 -140.896L133.237 -143.535L-104.083 93.7847L-101.444 96.4239L135.876 -140.896ZM418.922 142.151L416.283 139.512L178.963 376.831L181.603 379.47L418.922 142.151ZM244.74 -32.0317L242.101 -34.6709L4.78092 202.649L7.42006 205.288L244.74 -32.0317ZM331.831 55.0595L329.192 52.4204L91.8722 289.74L94.5113 292.379L331.831 55.0595ZM157.649 -119.123L155.009 -121.762L-82.3103 115.558L-79.6712 118.197L157.649 -119.123ZM375.377 98.6051L372.737 95.966L135.418 333.286L138.057 335.925L375.377 98.6051ZM201.194 -75.5774L198.555 -78.2165L-38.7647 159.103L-36.1256 161.742L201.194 -75.5774ZM288.285 11.5139L285.646 8.87474L48.3265 246.194L50.9657 248.834L288.285 11.5139ZM114.103 -162.669L111.464 -165.308L-125.856 72.012L-123.217 74.6511L114.103 -162.669ZM433.437 156.666L430.798 154.027L193.479 391.347L196.118 393.986L433.437 156.666ZM259.255 -17.5166L256.616 -20.1557L19.2961 217.164L21.9353 219.803L259.255 -17.5166ZM346.346 69.5747L343.707 66.9356L106.387 304.255L109.027 306.894L346.346 69.5747ZM172.164 -104.608L169.525 -107.247L-67.7951 130.073L-65.156 132.712L172.164 -104.608ZM389.892 113.12L387.253 110.481L149.933 347.801L152.572 350.44L389.892 113.12ZM215.709 -61.0622L213.07 -63.7013L-24.2495 173.618L-21.6104 176.258L215.709 -61.0622ZM302.801 26.0291L300.161 23.3899L62.8418 260.71L65.4809 263.349L302.801 26.0291ZM128.618 -148.153L125.979 -150.793L-111.341 86.5271L-108.702 89.1663L128.618 -148.153ZM411.665 134.893L409.026 132.254L171.706 369.574L174.345 372.213L411.665 134.893ZM237.482 -39.2894L234.843 -41.9285L-2.47668 195.391L0.162438 198.03L237.482 -39.2894ZM324.573 47.8019L321.934 45.1628L84.6146 282.482L87.2537 285.122L324.573 47.8019ZM150.391 -126.381L147.752 -129.02L-89.5679 108.3L-86.9288 110.939L150.391 -126.381ZM368.119 91.3475L365.48 88.7084L128.16 326.028L130.799 328.667L368.119 91.3475ZM193.937 -82.835L191.297 -85.4741L-46.0223 151.846L-43.3832 154.485L193.937 -82.835ZM281.028 4.25625L278.389 1.61714L41.0689 238.937L43.7081 241.576L281.028 4.25625ZM106.845 -169.926L104.206 -172.565L-133.114 64.7543L-130.474 67.3935L106.845 -169.926Z" fill="#37CC3A"/>
</g>
</g>
</svg>
