<svg width="1440" height="780" viewBox="0 0 1440 780" fill="none" xmlns="http://www.w3.org/2000/svg">
<g opacity="0.1" clip-path="url(#clip0_22268_12456)">
<path d="M1420.5 678.381C1069.52 678.381 785 394.307 785 43.8848C785 -306.538 1069.52 -590.611 1420.5 -590.611C1771.48 -590.611 2056 -306.538 2056 43.8848C2056 394.307 1771.48 678.381 1420.5 678.381Z" stroke="#294CFF" stroke-width="6"/>
<path d="M1420.5 634.315C1093.82 634.315 829 369.91 829 43.7492C829 -282.411 1093.82 -546.816 1420.5 -546.816C1747.18 -546.816 2012 -282.411 2012 43.7492C2012 369.91 1747.18 634.315 1420.5 634.315Z" stroke="#294CFF" stroke-width="6"/>
<path d="M1420.5 590.249C1118.12 590.249 873 345.512 873 43.6136C873 -258.285 1118.12 -503.021 1420.5 -503.021C1722.88 -503.021 1968 -258.285 1968 43.6136C1968 345.512 1722.88 590.249 1420.5 590.249Z" stroke="#294CFF" stroke-width="6"/>
<path d="M1420.5 546.183C1142.42 546.183 917 321.114 917 43.4781C917 -234.158 1142.42 -459.227 1420.5 -459.227C1698.58 -459.227 1924 -234.158 1924 43.4781C1924 321.114 1698.58 546.183 1420.5 546.183Z" stroke="#294CFF" stroke-width="6"/>
<path d="M1420.5 502.117C1166.73 502.117 961 296.716 961 43.3425C961 -210.031 1166.73 -415.432 1420.5 -415.432C1674.27 -415.432 1880 -210.031 1880 43.3425C1880 296.716 1674.27 502.117 1420.5 502.117Z" stroke="#294CFF" stroke-width="6"/>
<path d="M1420 721.448C1045 721.448 741 417.93 741 43.5211C741 -330.888 1045 -634.406 1420 -634.406C1795 -634.406 2099 -330.888 2099 43.5211C2099 417.93 1795 721.448 1420 721.448Z" stroke="#294CFF" stroke-width="6"/>
<path d="M1420.5 765.518C1020.92 765.518 697 442.108 697 43.1608C697 -355.786 1020.92 -679.196 1420.5 -679.196C1820.08 -679.196 2144 -355.786 2144 43.1608C2144 442.108 1820.08 765.518 1420.5 765.518Z" stroke="#294CFF" stroke-width="6"/>
<path d="M1420.5 809.584C996.621 809.584 653 466.505 653 43.2963C653 -379.913 996.621 -722.991 1420.5 -722.991C1844.38 -722.991 2188 -379.913 2188 43.2963C2188 466.505 1844.38 809.584 1420.5 809.584Z" stroke="#294CFF" stroke-width="6"/>
<path d="M1420.5 458.051C1191.03 458.051 1005 272.319 1005 43.2069C1005 -185.905 1191.03 -371.637 1420.5 -371.637C1649.97 -371.637 1836 -185.905 1836 43.2069C1836 272.319 1649.97 458.051 1420.5 458.051Z" stroke="#294CFF" stroke-width="6"/>
<path d="M1420 853.49C971.545 853.49 608 490.779 608 43.3518C608 -404.075 971.545 -766.786 1420 -766.786C1868.46 -766.786 2232 -404.075 2232 43.3518C2232 490.779 1868.46 853.49 1420 853.49Z" stroke="#294CFF" stroke-width="6"/>
<path d="M1420.5 897.716C948.021 897.716 565 515.301 565 43.5676C565 -428.166 948.021 -810.581 1420.5 -810.581C1892.98 -810.581 2276 -428.166 2276 43.5676C2276 515.301 1892.98 897.716 1420.5 897.716Z" stroke="#294CFF" stroke-width="6"/>
</g>
<g opacity="0.1" clip-path="url(#clip1_22268_12456)">
<path d="M19.5 685.354C370.477 685.354 655 399.95 655 47.8864C655 -304.177 370.477 -589.581 19.5 -589.581C-331.477 -589.581 -616 -304.177 -616 47.8864C-616 399.95 -331.477 685.354 19.5 685.354Z" stroke="#294CFF" stroke-width="6"/>
<path d="M19.5 641.081C346.176 641.081 611 375.438 611 47.7502C611 -279.938 346.176 -545.581 19.5 -545.581C-307.176 -545.581 -572 -279.938 -572 47.7502C-572 375.438 -307.176 641.081 19.5 641.081Z" stroke="#294CFF" stroke-width="6"/>
<path d="M19.5 596.809C321.876 596.809 567 350.926 567 47.614C567 -255.698 321.876 -501.581 19.5 -501.581C-282.876 -501.581 -528 -255.698 -528 47.614C-528 350.926 -282.876 596.809 19.5 596.809Z" stroke="#294CFF" stroke-width="6"/>
<path d="M19.5 552.537C297.575 552.537 523 326.414 523 47.4778C523 -231.459 297.575 -457.581 19.5 -457.581C-258.575 -457.581 -484 -231.459 -484 47.4778C-484 326.414 -258.575 552.537 19.5 552.537Z" stroke="#294CFF" stroke-width="6"/>
<path d="M19.5 508.264C273.275 508.264 479 301.902 479 47.3416C479 -207.219 273.275 -413.581 19.5 -413.581C-234.275 -413.581 -440 -207.219 -440 47.3416C-440 301.902 -234.275 508.264 19.5 508.264Z" stroke="#294CFF" stroke-width="6"/>
<path d="M20 728.623C395.001 728.623 699 423.683 699 47.5211C699 -328.641 395.001 -633.581 20 -633.581C-355.001 -633.581 -659 -328.641 -659 47.5211C-659 423.683 -355.001 728.623 20 728.623Z" stroke="#294CFF" stroke-width="6"/>
<path d="M19.5 772.899C419.078 772.899 743 447.974 743 47.1589C743 -353.656 419.078 -678.581 19.5 -678.581C-380.078 -678.581 -704 -353.656 -704 47.1589C-704 447.974 -380.078 772.899 19.5 772.899Z" stroke="#294CFF" stroke-width="6"/>
<path d="M19.5 817.171C443.379 817.171 787 472.486 787 47.295C787 -377.896 443.379 -722.581 19.5 -722.581C-404.379 -722.581 -748 -377.896 -748 47.295C-748 472.486 -404.379 817.171 19.5 817.171Z" stroke="#294CFF" stroke-width="6"/>
<path d="M19.5 463.992C248.974 463.992 435 277.39 435 47.2053C435 -182.979 248.974 -369.581 19.5 -369.581C-209.974 -369.581 -396 -182.979 -396 47.2053C-396 277.39 -209.974 463.992 19.5 463.992Z" stroke="#294CFF" stroke-width="6"/>
<path d="M20 861.283C468.455 861.283 832 496.873 832 47.3508C832 -402.171 468.455 -766.581 20 -766.581C-428.455 -766.581 -792 -402.171 -792 47.3508C-792 496.873 -428.455 861.283 20 861.283Z" stroke="#294CFF" stroke-width="6"/>
<path d="M19.5 905.716C491.979 905.716 875 521.51 875 47.5675C875 -426.375 491.979 -810.581 19.5 -810.581C-452.98 -810.581 -836 -426.375 -836 47.5675C-836 521.51 -452.98 905.716 19.5 905.716Z" stroke="#294CFF" stroke-width="6"/>
</g>
<rect width="1440" height="780" fill="url(#paint0_linear_22268_12456)"/>
<defs>
<linearGradient id="paint0_linear_22268_12456" x1="720" y1="0" x2="720" y2="780" gradientUnits="userSpaceOnUse">
<stop stop-color="#1A1C23" stop-opacity="0"/>
<stop offset="0.38381" stop-color="#16181E" stop-opacity="0.5"/>
<stop offset="1" stop-color="#16181E"/>
</linearGradient>
<clipPath id="clip0_22268_12456">
<rect width="868" height="772" fill="white" transform="translate(557 8)"/>
</clipPath>
<clipPath id="clip1_22268_12456">
<rect width="868" height="772" fill="white" transform="matrix(-1 0 0 1 883 8)"/>
</clipPath>
</defs>
</svg>
