<svg width="480" height="348" viewBox="0 0 480 348" fill="none" xmlns="http://www.w3.org/2000/svg">
<g opacity="0.1" clip-path="url(#clip0_22268_12512)">
<path d="M-19.5584 236.342C110.501 236.342 215.936 130.581 215.936 0.118271C215.936 -130.344 110.501 -236.105 -19.5584 -236.105C-149.618 -236.105 -255.053 -130.344 -255.053 0.118271C-255.053 130.581 -149.618 236.342 -19.5584 236.342Z" stroke="#294CFF" stroke-width="3"/>
<path d="M-19.5585 219.935C101.496 219.935 199.631 121.497 199.631 0.0675964C199.631 -121.362 101.496 -219.8 -19.5585 -219.8C-140.613 -219.8 -238.748 -121.362 -238.748 0.0675964C-238.748 121.497 -140.613 219.935 -19.5585 219.935Z" stroke="#294CFF" stroke-width="3"/>
<path d="M-19.5585 203.53C92.4915 203.53 183.326 112.414 183.326 0.016983C183.326 -112.38 92.4915 -203.496 -19.5585 -203.496C-131.608 -203.496 -222.443 -112.38 -222.443 0.016983C-222.443 112.414 -131.608 203.53 -19.5585 203.53Z" stroke="#294CFF" stroke-width="3"/>
<path d="M-19.5583 187.124C83.4867 187.124 167.021 103.33 167.021 -0.0336914C167.021 -103.398 83.4867 -187.191 -19.5583 -187.191C-122.603 -187.191 -206.138 -103.398 -206.138 -0.0336914C-206.138 103.33 -122.603 187.124 -19.5583 187.124Z" stroke="#294CFF" stroke-width="3"/>
<path d="M-19.5584 170.718C74.4817 170.718 150.716 94.2474 150.716 -0.0838623C150.716 -94.4151 74.4817 -170.886 -19.5584 -170.886C-113.598 -170.886 -189.833 -94.4151 -189.833 -0.0838623C-189.833 94.2474 -113.598 170.718 -19.5584 170.718Z" stroke="#294CFF" stroke-width="3"/>
<path d="M-19.3732 252.375C119.589 252.375 232.241 139.375 232.241 -0.0174255C232.241 -139.41 119.589 -252.41 -19.3732 -252.41C-158.336 -252.41 -270.987 -139.41 -270.987 -0.0174255C-270.987 139.375 -158.336 252.375 -19.3732 252.375Z" stroke="#294CFF" stroke-width="3"/>
<path d="M-19.5584 268.782C128.511 268.782 248.546 148.377 248.546 -0.151489C248.546 -148.68 128.511 -269.085 -19.5584 -269.085C-167.628 -269.085 -287.662 -148.68 -287.662 -0.151489C-287.662 148.377 -167.628 268.782 -19.5584 268.782Z" stroke="#294CFF" stroke-width="3"/>
<path d="M-19.5584 285.188C137.516 285.188 264.85 157.46 264.85 -0.100891C264.85 -157.662 137.516 -285.39 -19.5584 -285.39C-176.633 -285.39 -303.967 -157.662 -303.967 -0.100891C-303.967 157.46 -176.633 285.188 -19.5584 285.188Z" stroke="#294CFF" stroke-width="3"/>
<path d="M-19.5584 154.312C65.4768 154.312 134.411 85.1644 134.411 -0.134048C134.411 -85.4325 65.4768 -154.581 -19.5584 -154.581C-104.594 -154.581 -173.528 -85.4325 -173.528 -0.134048C-173.528 85.1644 -104.594 154.312 -19.5584 154.312Z" stroke="#294CFF" stroke-width="3"/>
<path d="M-19.373 301.535C146.809 301.535 281.526 166.497 281.526 -0.0800476C281.526 -166.657 146.809 -301.695 -19.373 -301.695C-185.555 -301.695 -320.272 -166.657 -320.272 -0.0800476C-320.272 166.497 -185.555 301.535 -19.373 301.535Z" stroke="#294CFF" stroke-width="3"/>
<path d="M-19.5585 318C155.526 318 297.46 175.627 297.46 0C297.46 -175.627 155.526 -318 -19.5585 -318C-194.643 -318 -336.577 -175.627 -336.577 0C-336.577 175.627 -194.643 318 -19.5585 318Z" stroke="#294CFF" stroke-width="3"/>
</g>
<g opacity="0.1" clip-path="url(#clip1_22268_12512)">
<path d="M499.558 236.342C369.499 236.342 264.064 130.581 264.064 0.118271C264.064 -130.344 369.499 -236.105 499.558 -236.105C629.618 -236.105 735.053 -130.344 735.053 0.118271C735.053 130.581 629.618 236.342 499.558 236.342Z" stroke="#294CFF" stroke-width="3"/>
<path d="M499.559 219.935C378.504 219.935 280.369 121.497 280.369 0.0675964C280.369 -121.362 378.504 -219.8 499.559 -219.8C620.613 -219.8 718.748 -121.362 718.748 0.0675964C718.748 121.497 620.613 219.935 499.559 219.935Z" stroke="#294CFF" stroke-width="3"/>
<path d="M499.558 203.53C387.509 203.53 296.674 112.414 296.674 0.016983C296.674 -112.38 387.509 -203.496 499.558 -203.496C611.608 -203.496 702.443 -112.38 702.443 0.016983C702.443 112.414 611.608 203.53 499.558 203.53Z" stroke="#294CFF" stroke-width="3"/>
<path d="M499.558 187.124C396.513 187.124 312.979 103.33 312.979 -0.0336914C312.979 -103.398 396.513 -187.191 499.558 -187.191C602.603 -187.191 686.138 -103.398 686.138 -0.0336914C686.138 103.33 602.603 187.124 499.558 187.124Z" stroke="#294CFF" stroke-width="3"/>
<path d="M499.558 170.718C405.518 170.718 329.284 94.2474 329.284 -0.0838623C329.284 -94.4151 405.518 -170.886 499.558 -170.886C593.598 -170.886 669.833 -94.4151 669.833 -0.0838623C669.833 94.2474 593.598 170.718 499.558 170.718Z" stroke="#294CFF" stroke-width="3"/>
<path d="M499.373 252.375C360.411 252.375 247.759 139.375 247.759 -0.0174255C247.759 -139.41 360.411 -252.41 499.373 -252.41C638.336 -252.41 750.987 -139.41 750.987 -0.0174255C750.987 139.375 638.336 252.375 499.373 252.375Z" stroke="#294CFF" stroke-width="3"/>
<path d="M499.558 268.782C351.489 268.782 231.454 148.377 231.454 -0.151489C231.454 -148.68 351.489 -269.085 499.558 -269.085C647.628 -269.085 767.662 -148.68 767.662 -0.151489C767.662 148.377 647.628 268.782 499.558 268.782Z" stroke="#294CFF" stroke-width="3"/>
<path d="M499.558 285.188C342.484 285.188 215.15 157.46 215.15 -0.100891C215.15 -157.662 342.484 -285.39 499.558 -285.39C656.633 -285.39 783.967 -157.662 783.967 -0.100891C783.967 157.46 656.633 285.188 499.558 285.188Z" stroke="#294CFF" stroke-width="3"/>
<path d="M499.558 154.312C414.523 154.312 345.589 85.1644 345.589 -0.134048C345.589 -85.4325 414.523 -154.581 499.558 -154.581C584.594 -154.581 653.528 -85.4325 653.528 -0.134048C653.528 85.1644 584.594 154.312 499.558 154.312Z" stroke="#294CFF" stroke-width="3"/>
<path d="M499.373 301.535C333.191 301.535 198.474 166.497 198.474 -0.0800476C198.474 -166.657 333.191 -301.695 499.373 -301.695C665.555 -301.695 800.272 -166.657 800.272 -0.0800476C800.272 166.497 665.555 301.535 499.373 301.535Z" stroke="#294CFF" stroke-width="3"/>
<path d="M499.559 318C324.474 318 182.54 175.627 182.54 0C182.54 -175.627 324.474 -318 499.559 -318C674.643 -318 816.577 -175.627 816.577 0C816.577 175.627 674.643 318 499.559 318Z" stroke="#294CFF" stroke-width="3"/>
</g>
<rect width="480" height="348" fill="url(#paint0_linear_22268_12512)"/>
<defs>
<linearGradient id="paint0_linear_22268_12512" x1="240" y1="0" x2="240" y2="348" gradientUnits="userSpaceOnUse">
<stop stop-color="#1A1C23" stop-opacity="0"/>
<stop offset="0.38381" stop-color="#16181E" stop-opacity="0.5"/>
<stop offset="1" stop-color="#16181E"/>
</linearGradient>
<clipPath id="clip0_22268_12512">
<rect width="299" height="330" fill="white" transform="matrix(-1 0 0 1 299 0)"/>
</clipPath>
<clipPath id="clip1_22268_12512">
<rect width="299" height="330" fill="white" transform="translate(181)"/>
</clipPath>
</defs>
</svg>
