<svg width="767" height="552" viewBox="0 0 767 552" fill="none" xmlns="http://www.w3.org/2000/svg">
<g opacity="0.1" clip-path="url(#clip0_22268_12484)">
<path d="M-95.5421 437.633C145.092 437.633 340.165 241.956 340.165 0.57666C340.165 -240.803 145.092 -436.479 -95.5421 -436.479C-336.177 -436.479 -531.249 -240.803 -531.249 0.57666C-531.249 241.956 -336.177 437.633 -95.5421 437.633Z" stroke="#294CFF" stroke-width="4"/>
<path d="M-95.5421 407.279C128.432 407.279 309.998 225.15 309.998 0.483276C309.998 -224.184 128.432 -406.312 -95.5421 -406.312C-319.516 -406.312 -501.082 -224.184 -501.082 0.483276C-501.082 225.15 -319.516 407.279 -95.5421 407.279Z" stroke="#294CFF" stroke-width="4"/>
<path d="M-95.5423 376.925C111.771 376.925 279.831 208.345 279.831 0.389923C279.831 -207.565 111.771 -376.146 -95.5423 -376.146C-302.855 -376.146 -470.916 -207.565 -470.916 0.389923C-470.916 208.345 -302.855 376.925 -95.5423 376.925Z" stroke="#294CFF" stroke-width="4"/>
<path d="M-95.5422 346.572C95.1099 346.572 249.664 191.539 249.664 0.296539C249.664 -190.946 95.1099 -345.979 -95.5422 -345.979C-286.194 -345.979 -440.749 -190.946 -440.749 0.296539C-440.749 191.539 -286.194 346.572 -95.5422 346.572Z" stroke="#294CFF" stroke-width="4"/>
<path d="M-95.5422 316.218C78.4492 316.218 219.497 174.733 219.497 0.203125C219.497 -174.327 78.4492 -315.812 -95.5422 -315.812C-269.534 -315.812 -410.582 -174.327 -410.582 0.203125C-410.582 174.733 -269.534 316.218 -95.5422 316.218Z" stroke="#294CFF" stroke-width="4"/>
<path d="M-95.1994 467.299C161.906 467.299 370.332 258.228 370.332 0.326172C370.332 -257.576 161.906 -466.646 -95.1994 -466.646C-352.305 -466.646 -560.731 -257.576 -560.731 0.326172C-560.731 258.228 -352.305 467.299 -95.1994 467.299Z" stroke="#294CFF" stroke-width="4"/>
<path d="M-95.5422 497.655C178.414 497.655 400.499 274.882 400.499 0.0779419C400.499 -274.726 178.414 -497.499 -95.5422 -497.499C-369.498 -497.499 -591.583 -274.726 -591.583 0.0779419C-591.583 274.882 -369.498 497.655 -95.5422 497.655Z" stroke="#294CFF" stroke-width="4"/>
<path d="M-95.5422 528.009C195.075 528.009 430.666 291.688 430.666 0.171265C430.666 -291.345 195.075 -527.666 -95.5422 -527.666C-386.159 -527.666 -621.75 -291.345 -621.75 0.171265C-621.75 291.688 -386.159 528.009 -95.5422 528.009Z" stroke="#294CFF" stroke-width="4"/>
<path d="M-95.5422 285.864C61.7884 285.864 189.33 157.927 189.33 0.109741C189.33 -157.708 61.7884 -285.645 -95.5422 -285.645C-252.873 -285.645 -380.415 -157.708 -380.415 0.109741C-380.415 157.927 -252.873 285.864 -95.5422 285.864Z" stroke="#294CFF" stroke-width="4"/>
<path d="M-95.1994 558.252C212.267 558.252 461.519 308.408 461.519 0.209473C461.519 -307.989 212.267 -557.833 -95.1994 -557.833C-402.666 -557.833 -651.917 -307.989 -651.917 0.209473C-651.917 308.408 -402.666 558.252 -95.1994 558.252Z" stroke="#294CFF" stroke-width="4"/>
<path d="M-95.5422 588.716C228.396 588.716 491 325.299 491 0.358093C491 -324.583 228.396 -588 -95.5422 -588C-419.48 -588 -682.084 -324.583 -682.084 0.358093C-682.084 325.299 -419.48 588.716 -95.5422 588.716Z" stroke="#294CFF" stroke-width="4"/>
</g>
<g opacity="0.1" clip-path="url(#clip1_22268_12484)">
<path d="M866.542 437.633C625.908 437.633 430.835 241.956 430.835 0.57666C430.835 -240.803 625.908 -436.479 866.542 -436.479C1107.18 -436.479 1302.25 -240.803 1302.25 0.57666C1302.25 241.956 1107.18 437.633 866.542 437.633Z" stroke="#294CFF" stroke-width="4"/>
<path d="M866.542 407.279C642.568 407.279 461.002 225.15 461.002 0.483276C461.002 -224.184 642.568 -406.312 866.542 -406.312C1090.52 -406.312 1272.08 -224.184 1272.08 0.483276C1272.08 225.15 1090.52 407.279 866.542 407.279Z" stroke="#294CFF" stroke-width="4"/>
<path d="M866.542 376.925C659.229 376.925 491.169 208.345 491.169 0.389923C491.169 -207.565 659.229 -376.146 866.542 -376.146C1073.86 -376.146 1241.92 -207.565 1241.92 0.389923C1241.92 208.345 1073.86 376.925 866.542 376.925Z" stroke="#294CFF" stroke-width="4"/>
<path d="M866.542 346.572C675.89 346.572 521.336 191.539 521.336 0.296539C521.336 -190.946 675.89 -345.979 866.542 -345.979C1057.19 -345.979 1211.75 -190.946 1211.75 0.296539C1211.75 191.539 1057.19 346.572 866.542 346.572Z" stroke="#294CFF" stroke-width="4"/>
<path d="M866.542 316.218C692.551 316.218 551.503 174.733 551.503 0.203125C551.503 -174.327 692.551 -315.812 866.542 -315.812C1040.53 -315.812 1181.58 -174.327 1181.58 0.203125C1181.58 174.733 1040.53 316.218 866.542 316.218Z" stroke="#294CFF" stroke-width="4"/>
<path d="M866.199 467.299C609.094 467.299 400.668 258.228 400.668 0.326172C400.668 -257.576 609.094 -466.646 866.199 -466.646C1123.31 -466.646 1331.73 -257.576 1331.73 0.326172C1331.73 258.228 1123.31 467.299 866.199 467.299Z" stroke="#294CFF" stroke-width="4"/>
<path d="M866.542 497.655C592.586 497.655 370.501 274.882 370.501 0.0779419C370.501 -274.726 592.586 -497.499 866.542 -497.499C1140.5 -497.499 1362.58 -274.726 1362.58 0.0779419C1362.58 274.882 1140.5 497.655 866.542 497.655Z" stroke="#294CFF" stroke-width="4"/>
<path d="M866.542 528.009C575.925 528.009 340.334 291.688 340.334 0.171265C340.334 -291.345 575.925 -527.666 866.542 -527.666C1157.16 -527.666 1392.75 -291.345 1392.75 0.171265C1392.75 291.688 1157.16 528.009 866.542 528.009Z" stroke="#294CFF" stroke-width="4"/>
<path d="M866.542 285.864C709.212 285.864 581.67 157.927 581.67 0.109741C581.67 -157.708 709.212 -285.645 866.542 -285.645C1023.87 -285.645 1151.41 -157.708 1151.41 0.109741C1151.41 157.927 1023.87 285.864 866.542 285.864Z" stroke="#294CFF" stroke-width="4"/>
<path d="M866.199 558.252C558.733 558.252 309.481 308.408 309.481 0.209473C309.481 -307.989 558.733 -557.833 866.199 -557.833C1173.67 -557.833 1422.92 -307.989 1422.92 0.209473C1422.92 308.408 1173.67 558.252 866.199 558.252Z" stroke="#294CFF" stroke-width="4"/>
<path d="M866.542 588.716C542.604 588.716 280 325.299 280 0.358093C280 -324.583 542.604 -588 866.542 -588C1190.48 -588 1453.08 -324.583 1453.08 0.358093C1453.08 325.299 1190.48 588.716 866.542 588.716Z" stroke="#294CFF" stroke-width="4"/>
</g>
<rect width="767" height="552" fill="url(#paint0_linear_22268_12484)"/>
<defs>
<linearGradient id="paint0_linear_22268_12484" x1="383.5" y1="0" x2="383.5" y2="552" gradientUnits="userSpaceOnUse">
<stop stop-color="#1A1C23" stop-opacity="0"/>
<stop offset="0.38381" stop-color="#16181E" stop-opacity="0.5"/>
<stop offset="1" stop-color="#16181E"/>
</linearGradient>
<clipPath id="clip0_22268_12484">
<rect width="499" height="552" fill="white" transform="matrix(-1 0 0 1 499 0)"/>
</clipPath>
<clipPath id="clip1_22268_12484">
<rect width="495" height="552" fill="white" transform="translate(272)"/>
</clipPath>
</defs>
</svg>
