<svg width="122" height="213" viewBox="0 0 122 213" fill="none" xmlns="http://www.w3.org/2000/svg">
<g opacity="0.2">
<mask id="mask0_21038_9765" style="mask-type:alpha" maskUnits="userSpaceOnUse" x="0" y="0" width="382" height="213">
<path d="M381.452 0C381.452 84.7713 381.452 58.5195 381.452 188.535C379.688 190.2 378.843 190.997 377.447 192.315C375.412 194.236 374.837 194.677 372.947 196.563C369.85 199.402 361.605 206.963 355.936 212.16C258.901 211.958 59.5444 195.19 1.56432 195.19C0.302976 97.6832 1.28342 63.233 0.602783 18.4282C8.58706 10.0801 10.9725 7.4767 18.0859 0C203.644 0 237.379 0 381.452 0Z" fill="white"/>
</mask>
<g mask="url(#mask0_21038_9765)">
<path fill-rule="evenodd" clip-rule="evenodd" d="M-103.357 9.18311L-100.718 11.8222L136.602 -225.497L133.963 -228.137L-103.357 9.18311ZM70.8255 183.366L73.4646 186.005L310.784 -51.315L308.145 -53.9541L70.8255 183.366ZM-16.2657 96.2744L-13.6266 98.9135L223.693 -138.406L221.054 -141.045L-16.2657 96.2744ZM157.917 270.457L160.556 273.096L397.876 35.7763L395.236 33.1371L157.917 270.457ZM-59.8114 52.7287L-57.1722 55.3679L180.147 -181.952L177.508 -184.591L-59.8114 52.7287ZM114.371 226.911L117.01 229.55L354.33 -7.76935L351.691 -10.4085L114.371 226.911ZM27.2799 139.82L29.919 142.459L267.239 -94.8606L264.6 -97.4997L27.2799 139.82ZM201.462 314.002L204.102 316.642L441.421 79.3219L438.782 76.6828L201.462 314.002ZM-81.5842 30.9559L-78.9451 33.595L158.375 -203.725L155.736 -206.364L-81.5842 30.9559ZM92.5983 205.138L95.2374 207.778L332.557 -29.5422L329.918 -32.1813L92.5983 205.138ZM5.50706 118.047L8.1462 120.686L245.466 -116.633L242.827 -119.273L5.50706 118.047ZM179.69 292.23L182.329 294.869L419.648 57.5491L417.009 54.91L179.69 292.23ZM-38.0386 74.5015L-35.3994 77.1407L201.92 -160.179L199.281 -162.818L-38.0386 74.5015ZM136.144 248.684L138.783 251.323L376.103 14.0035L373.464 11.3643L136.144 248.684ZM49.0527 161.593L51.6918 164.232L289.012 -73.0878L286.372 -75.7269L49.0527 161.593ZM223.235 335.775L225.874 338.414L463.194 101.095L460.555 98.4556L223.235 335.775ZM-96.0994 16.4407L-93.4603 19.0798L143.859 -218.24L141.22 -220.879L-96.0994 16.4407ZM78.0831 190.623L80.7222 193.262L318.042 -44.0574L315.403 -46.6965L78.0831 190.623ZM-9.00814 103.532L-6.36902 106.171L230.951 -131.149L228.312 -133.788L-9.00814 103.532ZM165.174 277.714L167.813 280.354L405.133 43.0339L402.494 40.3947L165.174 277.714ZM-52.5538 59.9863L-49.9146 62.6255L187.405 -174.694L184.766 -177.333L-52.5538 59.9863ZM121.629 234.169L124.268 236.808L361.588 -0.511754L358.948 -3.15089L121.629 234.169ZM34.5375 147.078L37.1766 149.717L274.496 -87.603L271.857 -90.2421L34.5375 147.078ZM208.72 321.26L211.359 323.899L448.679 86.5795L446.04 83.9404L208.72 321.26ZM-74.3266 38.2135L-71.6874 40.8527L165.632 -196.467L162.993 -199.106L-74.3266 38.2135ZM99.8559 212.396L102.495 215.035L339.815 -22.2846L337.176 -24.9237L99.8559 212.396ZM12.7647 125.305L15.4038 127.944L252.724 -109.376L250.084 -112.015L12.7647 125.305ZM186.947 299.487L189.586 302.126L426.906 64.8067L424.267 62.1675L186.947 299.487ZM-30.781 81.7591L-28.1418 84.3983L209.178 -152.921L206.539 -155.561L-30.781 81.7591ZM143.402 255.942L146.041 258.581L383.36 21.2611L380.721 18.6219L143.402 255.942ZM56.3103 168.85L58.9494 171.49L296.269 -65.8302L293.63 -68.4693L56.3103 168.85ZM230.493 343.033L233.132 345.672L470.452 108.352L467.812 105.713L230.493 343.033ZM-88.8418 23.6983L-86.2027 26.3374L151.117 -210.982L148.478 -213.621L-88.8418 23.6983ZM85.3407 197.881L87.9798 200.52L325.3 -36.7998L322.66 -39.4389L85.3407 197.881ZM-1.75054 110.79L0.88859 113.429L238.208 -123.891L235.569 -126.53L-1.75054 110.79ZM172.432 284.972L175.071 287.611L412.391 50.2915L409.752 47.6523L172.432 284.972ZM-45.2962 67.2439L-42.657 69.8831L194.663 -167.437L192.024 -170.076L-45.2962 67.2439ZM128.886 241.426L131.525 244.066L368.845 6.74584L366.206 4.10673L128.886 241.426ZM41.7951 154.335L44.4342 156.974L281.754 -80.3454L279.115 -82.9845L41.7951 154.335ZM215.978 328.518L218.617 331.157L455.936 93.8371L453.297 91.198L215.978 328.518ZM-67.069 45.4711L-64.4299 48.1102L172.89 -189.209L170.251 -191.849L-67.069 45.4711ZM107.114 219.654L109.753 222.293L347.072 -15.027L344.433 -17.6661L107.114 219.654ZM20.0223 132.562L22.6614 135.201L259.981 -102.118L257.342 -104.757L20.0223 132.562ZM194.205 306.745L196.844 309.384L434.164 72.0643L431.524 69.4252L194.205 306.745ZM-23.5233 89.0168L-20.8842 91.6559L216.435 -145.664L213.796 -148.303L-23.5233 89.0168ZM150.659 263.199L153.298 265.838L390.618 28.5186L387.979 25.8795L150.659 263.199ZM63.5679 176.108L66.207 178.747L303.527 -58.5726L300.888 -61.2117L63.5679 176.108ZM237.75 350.29L240.39 352.93L477.709 115.61L475.07 112.971L237.75 350.29Z" fill="#37CC3A"/>
</g>
</g>
</svg>
