<svg width="139" height="40" viewBox="0 0 139 40" fill="none" xmlns="http://www.w3.org/2000/svg">
<g clip-path="url(#clip0_21573_12402)">
<path fill-rule="evenodd" clip-rule="evenodd" d="M20 40C31.0457 40 40 31.0457 40 20C40 8.95431 31.0457 0 20 0C8.95431 0 0 8.95431 0 20C0 23.0712 0.692228 25.9806 1.92917 28.5809C2.68194 30.1634 3.63645 31.6313 4.75946 32.9515C5.23999 33.5164 5.75137 34.0543 6.291 34.5625C6.88888 35.1255 7.52144 35.6522 8.18512 36.1389C11.4955 38.5664 15.5803 40 20 40Z" fill="#2448FF"/>
<path fill-rule="evenodd" clip-rule="evenodd" d="M13.1694 25.2536C13.1698 23.4001 13.1628 21.5467 13.171 19.6937C13.1912 14.9587 18.2727 11.6563 22.5987 13.5621C25.529 14.8533 26.9736 17.2809 26.8148 20.648C26.6935 23.2156 24.7631 25.6605 22.0393 26.4975C21.1085 26.7837 20.0863 26.8389 19.1024 26.8644C18.1053 26.8904 18.079 26.7388 18.0938 24.4632C18.0983 23.7321 18.0798 23.0591 19.1312 23.1197C20.4968 23.1987 21.7316 22.8907 22.5395 21.6554C23.3181 20.4639 23.2651 19.1352 22.4231 18.0054C21.7131 17.0527 20.3878 16.6132 19.2024 16.9374C17.9194 17.2887 16.9721 18.3131 16.9454 19.6793C16.8833 22.8696 16.901 26.0625 16.9557 29.2533C16.9606 29.5474 17.4176 30.0235 17.7351 30.0931C21.5515 30.9313 24.9281 29.9704 27.5799 27.1305C33.0317 21.2926 30.3848 12.5097 23.3576 10.1386C17.1601 8.04746 11.1798 12.0221 9.94126 17.6985C9.60562 19.2361 9.59534 20.7514 9.92728 22.2852C10.0457 22.833 10.279 23.165 10.8844 23.1151C11.6154 23.0546 11.8404 23.4557 11.8379 24.1201C11.8276 27.2355 12.1201 26.822 9.21321 26.9176C8.05079 26.9559 7.45272 26.6045 6.99285 25.4826C3.75774 17.5931 7.79001 8.55819 16.0409 6.44032C24.8067 4.19024 32.0992 8.82549 33.9366 17.367C35.6617 25.3874 29.5724 33.2732 21.4137 33.999C18.9235 34.2205 16.583 33.8227 14.2866 32.9207C13.4964 32.6105 13.1147 32.1472 13.1476 31.2246C13.2183 29.2364 13.169 27.2442 13.1694 25.2536Z" fill="#CCDDFF"/>
<path d="M65.28 18.49C65.28 22.73 63.08 24.79 59.86 24.79C58.58 24.79 57.42 24.51 56.5 23.67L56.44 23.69L56.48 25.31V27.79H53V12.55L55.42 12.39L56.14 13.53C57.16 12.69 58.5 12.21 59.94 12.21C63.44 12.21 65.28 14.03 65.28 18.49ZM61.7 18.53C61.7 15.95 60.86 15.17 59 15.17C57.92 15.17 57.02 15.53 56.48 16.19V20.97C56.96 21.59 57.76 22.03 58.92 22.03C60.56 22.03 61.7 21.37 61.7 18.53ZM70.735 24.55H67.295V12.55L70.035 12.39L70.375 14.55H70.435C71.275 13.03 72.635 12.23 74.275 12.23C74.875 12.23 75.395 12.33 75.755 12.45L75.555 15.67C75.115 15.51 74.575 15.43 74.015 15.43C72.135 15.43 70.735 16.69 70.735 18.77V24.55ZM89.35 18.55C89.35 22.75 87.45 24.85 82.97 24.85C78.51 24.85 76.57 22.75 76.57 18.55C76.57 14.35 78.51 12.21 82.97 12.21C87.45 12.21 89.35 14.35 89.35 18.55ZM80.13 18.53C80.13 21.25 80.91 22.13 82.97 22.13C85.01 22.13 85.75 21.23 85.75 18.53C85.75 15.83 85.01 14.95 82.97 14.95C80.91 14.95 80.13 15.83 80.13 18.53ZM100.445 12.81L100.265 15.61C99.485 15.35 98.585 15.17 97.745 15.17C95.125 15.17 94.265 16.19 94.265 18.51C94.265 20.93 95.545 21.97 97.685 21.97C98.665 21.97 99.585 21.77 100.345 21.45L100.585 24.01C99.765 24.49 98.505 24.81 96.905 24.81C92.845 24.81 90.705 22.61 90.705 18.53C90.705 14.65 92.565 12.25 97.005 12.25C98.205 12.25 99.525 12.47 100.445 12.81ZM114.34 18.55C114.34 22.75 112.44 24.85 107.96 24.85C103.5 24.85 101.56 22.75 101.56 18.55C101.56 14.35 103.5 12.21 107.96 12.21C112.44 12.21 114.34 14.35 114.34 18.55ZM105.12 18.53C105.12 21.25 105.9 22.13 107.96 22.13C110 22.13 110.74 21.23 110.74 18.53C110.74 15.83 110 14.95 107.96 14.95C105.9 14.95 105.12 15.83 105.12 18.53ZM128.475 18.55C128.475 22.75 126.575 24.85 122.095 24.85C117.635 24.85 115.695 22.75 115.695 18.55C115.695 14.35 117.635 12.21 122.095 12.21C126.575 12.21 128.475 14.35 128.475 18.55ZM119.255 18.53C119.255 21.25 120.035 22.13 122.095 22.13C124.135 22.13 124.875 21.23 124.875 18.53C124.875 15.83 124.135 14.95 122.095 14.95C120.035 14.95 119.255 15.83 119.255 18.53ZM133.93 24.55H130.49V12.55L133.23 12.39L133.57 14.55H133.63C134.47 13.03 135.83 12.23 137.47 12.23C138.07 12.23 138.59 12.33 138.95 12.45L138.75 15.67C138.31 15.51 137.77 15.43 137.21 15.43C135.33 15.43 133.93 16.69 133.93 18.77V24.55Z" fill="#6C7C83"/>
</g>
<defs>
<clipPath id="clip0_21573_12402">
<rect width="138.95" height="40" fill="white"/>
</clipPath>
</defs>
</svg>
