<svg width="375" height="402" viewBox="0 0 375 402" fill="none" xmlns="http://www.w3.org/2000/svg">
<g clip-path="url(#clip0_21950_12475)">
<rect width="375" height="402" fill="#045228" fill-opacity="0.15"/>
<path fill-rule="evenodd" clip-rule="evenodd" d="M52.62 31.5583C49.5837 40.8232 44.1533 47.838 33.1617 51.103C43.9682 54.4323 49.6504 61.3334 52.62 70.7359V31.5583ZM-16.7664 1C-7.50224 4.0022 -0.630424 9.57633 2.70942 20.4407C5.9896 9.69183 12.8632 3.98809 22.2151 1H-16.7664ZM24.668 1.22633C15.6521 1.96785 4.29643 13.214 3.556 22.158C3.42967 23.6913 4.12799 24.5641 5.07547 25.5129C12.7991 33.2436 20.5315 40.9656 28.1727 48.7784C29.5378 50.1741 30.8529 50.5621 32.6688 50.078C42.2699 47.5193 49.0935 40.1844 51.7508 30.5183C52.3307 28.4084 51.9727 26.928 50.3445 25.3312C42.7287 17.8632 35.7771 10.5689 28.2368 3.02236C27.2621 2.04632 26.4436 0.646172 24.668 1.22633ZM1.88765 22.4817C1.64025 13.6691 -9.66011 2.46883 -18.612 1.85428C-20.0262 1.7573 -20.778 2.43268 -21.6018 3.2606C-29.4026 11.0989 -37.2158 18.9338 -45.0403 26.7483C-46.129 27.8354 -46.6072 28.8441 -46.3273 30.5185C-44.7868 39.7464 -35.8639 48.6824 -26.7102 50.2078C-25.1451 50.4679 -24.0389 50.0949 -22.9098 48.9478C-15.1546 41.0654 -7.33792 33.2429 0.469952 25.4116C1.30952 24.5696 2.19558 23.784 1.88765 22.4817ZM31.1933 51.9814C29.8862 51.6834 29.1247 52.611 28.2921 53.4486C20.4974 61.2931 12.7141 69.1491 4.86939 76.9424C3.71751 78.0869 3.40343 79.2208 3.671 80.7787C5.23959 89.9291 13.8353 98.2647 23.0521 100.067C24.8032 100.409 25.9498 100.067 27.1789 98.8184C34.9341 90.9351 42.4367 83.6505 50.2314 75.8059C50.9543 75.0776 51.6403 74.4111 51.6482 73.1758C51.7026 64.625 39.9654 52.1419 31.1933 51.9814ZM-18.7905 100.336C-9.74302 99.4731 0.648479 89.6112 1.85125 80.4485C2.06969 78.7892 1.40295 77.7876 0.330029 76.7172C-7.40767 69.0014 -15.1304 61.2697 -22.7865 53.4711C-24.0209 52.2129 -25.2087 51.7976 -26.9203 52.1256C-35.9889 53.8625 -44.017 62.6805 -45.9374 71.8519C-46.3321 73.7405 -45.9935 74.9934 -44.6293 76.3451C-36.8662 84.0353 -29.7672 91.1445 -22.0602 98.892C-21.1434 99.8134 -20.2968 100.903 -18.7905 100.336ZM51.7714 25.1077C51.7714 18.8661 51.7161 11.697 51.8065 4.52964C51.8319 2.5026 51.1775 1.7893 49.1307 1.81663C41.9966 1.91186 34.8599 1.85367 28.718 1.85367C36.21 9.40986 44.1346 17.4043 51.7714 25.1077ZM-46.3254 26.5348C-38.0034 18.1683 -30.1341 10.2559 -21.7744 1.85058C-25.9003 1.85058 -29.8043 1.72626 -33.6977 1.88408C-37.7964 2.05073 -43.1101 0.0571945 -45.6516 2.72964C-47.9799 5.17725 -46.2148 10.4375 -46.3061 14.4572C-46.3947 18.3367 -46.3254 22.2197 -46.3254 26.5348ZM-22.5077 100.439C-30.4866 92.4185 -38.3954 84.4691 -46.3191 76.5047C-46.3191 83.5266 -46.2875 90.91 -46.3419 98.2925C-46.355 100.084 -45.4812 100.464 -43.9372 100.455C-36.6952 100.417 -29.4523 100.439 -22.5077 100.439ZM51.7693 75.8348C43.4947 84.1467 35.6237 92.052 27.6035 100.107C29.1782 100.829 31.081 100.397 32.8891 100.419C38.2099 100.486 43.5324 100.412 48.8532 100.46C50.5788 100.475 51.8412 100.382 51.8079 98.0441C51.7035 90.77 51.7693 83.4942 51.7693 75.8348ZM3.36466 25.5846C3.36466 32.3755 3.38747 41.2137 3.34711 48.5936C3.33834 50.2203 4.19283 50.5298 5.55087 50.5254C12.7841 50.5007 21.4017 50.5139 28.1077 50.5139C20.399 42.7681 11.1989 33.4565 3.36466 25.5846ZM2.09101 25.5846C-5.97918 33.6945 -14.803 42.4278 -22.8275 50.4919C-15.4364 50.4919 -6.97227 50.4892 0.484692 50.4954C1.94889 50.4963 2.09451 49.5229 2.09364 48.3952C2.08837 41.1088 2.09101 32.9451 2.09101 25.5846ZM28.0168 51.7894C21.3511 51.7894 12.63 51.8114 5.29146 51.7718C3.70005 51.7629 3.33773 52.5723 3.34299 53.9601C3.36931 61.2342 3.35527 69.6977 3.35527 76.411C11.0228 68.6934 20.2106 59.6471 28.0168 51.7894ZM-22.6459 51.7779C-14.5371 59.9021 -5.99234 68.5102 2.07609 76.5937C2.07609 69.205 2.06821 60.9619 2.08224 53.4842C2.08487 51.7243 0.87685 51.779 -0.317142 51.779C-7.44863 51.7772 -15.2978 51.7781 -22.6459 51.7779ZM2.73363 82.0094C-0.572876 91.9489 -6.48581 97.8431 -16.4299 101.011H21.6559C12.0838 97.888 5.98574 92.0379 2.73363 82.0094ZM-27.9795 51.1834C-37.8595 47.8576 -43.7882 41.84 -47 32.9894V70.3719C-43.7084 60.5779 -38.0034 54.4325 -27.9795 51.1834Z" fill="url(#paint0_linear_21950_12475)"/>
<path fill-rule="evenodd" clip-rule="evenodd" d="M152.24 31.5583C149.204 40.8232 143.773 47.838 132.782 51.103C143.588 54.4323 149.27 61.3334 152.24 70.7359V31.5583ZM82.8536 1C92.1178 4.0022 98.9896 9.57633 102.329 20.4407C105.61 9.69183 112.483 3.98809 121.835 1H82.8536ZM124.288 1.22633C115.272 1.96785 103.916 13.214 103.176 22.158C103.05 23.6913 103.748 24.5641 104.695 25.5129C112.419 33.2436 120.152 40.9656 127.793 48.7784C129.158 50.1741 130.473 50.5621 132.289 50.078C141.89 47.5193 148.713 40.1844 151.371 30.5183C151.951 28.4084 151.593 26.928 149.964 25.3312C142.349 17.8632 135.397 10.5689 127.857 3.02236C126.882 2.04632 126.064 0.646172 124.288 1.22633ZM101.508 22.4817C101.26 13.6691 89.9599 2.46883 81.008 1.85428C79.5938 1.7573 78.842 2.43268 78.0182 3.2606C70.2174 11.0989 62.4042 18.9338 54.5797 26.7483C53.491 27.8354 53.0128 28.8441 53.2927 30.5185C54.8332 39.7464 63.7561 48.6824 72.9098 50.2078C74.4748 50.4679 75.5811 50.0949 76.7102 48.9478C84.4654 41.0654 92.2821 33.2429 100.09 25.4116C100.93 24.5696 101.816 23.784 101.508 22.4817ZM130.813 51.9814C129.506 51.6834 128.745 52.611 127.912 53.4486C120.117 61.2931 112.334 69.1491 104.489 76.9424C103.338 78.0869 103.023 79.2208 103.291 80.7787C104.86 89.9291 113.455 98.2647 122.672 100.067C124.423 100.409 125.57 100.067 126.799 98.8184C134.554 90.9351 142.057 83.6505 149.851 75.8059C150.574 75.0776 151.26 74.4111 151.268 73.1758C151.323 64.625 139.585 52.1419 130.813 51.9814ZM80.8295 100.336C89.877 99.4731 100.268 89.6112 101.471 80.4485C101.69 78.7892 101.023 77.7876 99.95 76.7172C92.2123 69.0014 84.4896 61.2697 76.8335 53.4711C75.5991 52.2129 74.4112 51.7976 72.6997 52.1256C63.6311 53.8625 55.603 62.6805 53.6826 71.8519C53.2879 73.7405 53.6265 74.9934 54.9907 76.3451C62.7538 84.0353 69.8528 91.1445 77.5598 98.892C78.4766 99.8134 79.3232 100.903 80.8295 100.336ZM151.391 25.1077C151.391 18.8661 151.336 11.697 151.426 4.52964C151.452 2.5026 150.797 1.7893 148.751 1.81663C141.617 1.91186 134.48 1.85367 128.338 1.85367C135.83 9.40986 143.755 17.4043 151.391 25.1077ZM53.2946 26.5348C61.6166 18.1683 69.4859 10.2559 77.8456 1.85058C73.7197 1.85058 69.8157 1.72626 65.9223 1.88408C61.8236 2.05073 56.5099 0.0571945 53.9684 2.72964C51.64 5.17725 53.4052 10.4375 53.3139 14.4572C53.2253 18.3367 53.2946 22.2197 53.2946 26.5348ZM77.1123 100.439C69.1334 92.4185 61.2246 84.4691 53.3009 76.5047C53.3009 83.5266 53.3325 90.91 53.2781 98.2925C53.265 100.084 54.1388 100.464 55.6828 100.455C62.9248 100.417 70.1677 100.439 77.1123 100.439ZM151.389 75.8348C143.115 84.1467 135.244 92.052 127.223 100.107C128.798 100.829 130.701 100.397 132.509 100.419C137.83 100.486 143.152 100.412 148.473 100.46C150.199 100.475 151.461 100.382 151.428 98.0441C151.323 90.77 151.389 83.4942 151.389 75.8348ZM102.985 25.5846C102.985 32.3755 103.007 41.2137 102.967 48.5936C102.958 50.2203 103.813 50.5298 105.171 50.5254C112.404 50.5007 121.022 50.5139 127.728 50.5139C120.019 42.7681 110.819 33.4565 102.985 25.5846ZM101.711 25.5846C93.6408 33.6945 84.817 42.4278 76.7925 50.4919C84.1836 50.4919 92.6477 50.4892 100.105 50.4954C101.569 50.4963 101.715 49.5229 101.714 48.3952C101.708 41.1088 101.711 32.9451 101.711 25.5846ZM127.637 51.7894C120.971 51.7894 112.25 51.8114 104.911 51.7718C103.32 51.7629 102.958 52.5723 102.963 53.9601C102.989 61.2342 102.975 69.6977 102.975 76.411C110.643 68.6934 119.831 59.6471 127.637 51.7894ZM76.9741 51.7779C85.0828 59.9021 93.6277 68.5102 101.696 76.5937C101.696 69.205 101.688 60.9619 101.702 53.4842C101.705 51.7243 100.497 51.779 99.3029 51.779C92.1714 51.7772 84.3222 51.7781 76.9741 51.7779ZM102.354 82.0094C99.0471 91.9489 93.1342 97.8431 83.1901 101.011H121.276C111.704 97.888 105.606 92.0379 102.354 82.0094ZM71.6405 51.1834C61.7605 47.8576 55.8317 41.84 52.62 32.9894V70.3719C55.9116 60.5779 61.6166 54.4325 71.6405 51.1834Z" fill="url(#paint1_linear_21950_12475)"/>
<path fill-rule="evenodd" clip-rule="evenodd" d="M251.86 31.5583C248.824 40.8232 243.393 47.838 232.402 51.103C243.208 54.4323 248.89 61.3334 251.86 70.7359V31.5583ZM182.474 1C191.738 4.0022 198.61 9.57633 201.95 20.4407C205.23 9.69183 212.103 3.98809 221.455 1H182.474ZM223.908 1.22633C214.892 1.96785 203.537 13.214 202.796 22.158C202.67 23.6913 203.368 24.5641 204.316 25.5129C212.039 33.2436 219.772 40.9656 227.413 48.7784C228.778 50.1741 230.093 50.5621 231.909 50.078C241.51 47.5193 248.334 40.1844 250.991 30.5183C251.571 28.4084 251.213 26.928 249.585 25.3312C241.969 17.8632 235.017 10.5689 227.477 3.02236C226.502 2.04632 225.684 0.646172 223.908 1.22633ZM201.128 22.4817C200.88 13.6691 189.58 2.46883 180.628 1.85428C179.214 1.7573 178.462 2.43268 177.638 3.2606C169.837 11.0989 162.024 18.9338 154.2 26.7483C153.111 27.8354 152.633 28.8441 152.913 30.5185C154.453 39.7464 163.376 48.6824 172.53 50.2078C174.095 50.4679 175.201 50.0949 176.33 48.9478C184.086 41.0654 191.902 33.2429 199.71 25.4116C200.55 24.5696 201.436 23.784 201.128 22.4817ZM230.433 51.9814C229.126 51.6834 228.365 52.611 227.532 53.4486C219.738 61.2931 211.954 69.1491 204.11 76.9424C202.958 78.0869 202.644 79.2208 202.911 80.7787C204.48 89.9291 213.075 98.2647 222.292 100.067C224.043 100.409 225.19 100.067 226.419 98.8184C234.174 90.9351 241.677 83.6505 249.472 75.8059C250.194 75.0776 250.88 74.4111 250.888 73.1758C250.943 64.625 239.205 52.1419 230.433 51.9814ZM180.45 100.336C189.497 99.4731 199.889 89.6112 201.091 80.4485C201.31 78.7892 200.643 77.7876 199.57 76.7172C191.832 69.0014 184.11 61.2697 176.454 53.4711C175.219 52.2129 174.031 51.7976 172.32 52.1256C163.251 53.8625 155.223 62.6805 153.303 71.8519C152.908 73.7405 153.247 74.9934 154.611 76.3451C162.374 84.0353 169.473 91.1445 177.18 98.892C178.097 99.8134 178.943 100.903 180.45 100.336ZM251.011 25.1077C251.011 18.8661 250.956 11.697 251.047 4.52964C251.072 2.5026 250.418 1.7893 248.371 1.81663C241.237 1.91186 234.1 1.85367 227.958 1.85367C235.45 9.40986 243.375 17.4043 251.011 25.1077ZM152.915 26.5348C161.237 18.1683 169.106 10.2559 177.466 1.85058C173.34 1.85058 169.436 1.72626 165.542 1.88408C161.444 2.05073 156.13 0.0571945 153.588 2.72964C151.26 5.17725 153.025 10.4375 152.934 14.4572C152.845 18.3367 152.915 22.2197 152.915 26.5348ZM176.732 100.439C168.754 92.4185 160.845 84.4691 152.921 76.5047C152.921 83.5266 152.953 90.91 152.898 98.2925C152.885 100.084 153.759 100.464 155.303 100.455C162.545 100.417 169.788 100.439 176.732 100.439ZM251.009 75.8348C242.735 84.1467 234.864 92.052 226.844 100.107C228.418 100.829 230.321 100.397 232.129 100.419C237.45 100.486 242.773 100.412 248.093 100.46C249.819 100.475 251.081 100.382 251.048 98.0441C250.944 90.77 251.009 83.4942 251.009 75.8348ZM202.605 25.5846C202.605 32.3755 202.628 41.2137 202.587 48.5936C202.578 50.2203 203.433 50.5298 204.791 50.5254C212.024 50.5007 220.642 50.5139 227.348 50.5139C219.639 42.7681 210.439 33.4565 202.605 25.5846ZM201.331 25.5846C193.261 33.6945 184.437 42.4278 176.413 50.4919C183.804 50.4919 192.268 50.4892 199.725 50.4954C201.189 50.4963 201.335 49.5229 201.334 48.3952C201.328 41.1088 201.331 32.9451 201.331 25.5846ZM227.257 51.7894C220.591 51.7894 211.87 51.8114 204.532 51.7718C202.94 51.7629 202.578 52.5723 202.583 53.9601C202.609 61.2342 202.595 69.6977 202.595 76.411C210.263 68.6934 219.451 59.6471 227.257 51.7894ZM176.594 51.7779C184.703 59.9021 193.248 68.5102 201.316 76.5937C201.316 69.205 201.308 60.9619 201.322 53.4842C201.325 51.7243 200.117 51.779 198.923 51.779C191.791 51.7772 183.942 51.7781 176.594 51.7779ZM201.974 82.0094C198.667 91.9489 192.754 97.8431 182.81 101.011H220.896C211.324 97.888 205.226 92.0379 201.974 82.0094ZM171.261 51.1834C161.381 47.8576 155.452 41.84 152.24 32.9894V70.3719C155.532 60.5779 161.237 54.4325 171.261 51.1834Z" fill="url(#paint2_linear_21950_12475)"/>
<path fill-rule="evenodd" clip-rule="evenodd" d="M351.48 31.5583C348.444 40.8232 343.013 47.838 332.022 51.103C342.828 54.4323 348.51 61.3334 351.48 70.7359V31.5583ZM282.094 1C291.358 4.0022 298.23 9.57633 301.569 20.4407C304.85 9.69183 311.723 3.98809 321.075 1H282.094ZM323.528 1.22633C314.512 1.96785 303.156 13.214 302.416 22.158C302.29 23.6913 302.988 24.5641 303.935 25.5129C311.659 33.2436 319.392 40.9656 327.033 48.7784C328.398 50.1741 329.713 50.5621 331.529 50.078C341.13 47.5193 347.953 40.1844 350.611 30.5183C351.191 28.4084 350.833 26.928 349.204 25.3312C341.589 17.8632 334.637 10.5689 327.097 3.02236C326.122 2.04632 325.304 0.646172 323.528 1.22633ZM300.748 22.4817C300.5 13.6691 289.2 2.46883 280.248 1.85428C278.834 1.7573 278.082 2.43268 277.258 3.2606C269.457 11.0989 261.644 18.9338 253.82 26.7483C252.731 27.8354 252.253 28.8441 252.533 30.5185C254.073 39.7464 262.996 48.6824 272.15 50.2078C273.715 50.4679 274.821 50.0949 275.95 48.9478C283.705 41.0654 291.522 33.2429 299.33 25.4116C300.17 24.5696 301.056 23.784 300.748 22.4817ZM330.053 51.9814C328.746 51.6834 327.985 52.611 327.152 53.4486C319.357 61.2931 311.574 69.1491 303.729 76.9424C302.577 78.0869 302.263 79.2208 302.531 80.7787C304.1 89.9291 312.695 98.2647 321.912 100.067C323.663 100.409 324.81 100.067 326.039 98.8184C333.794 90.9351 341.297 83.6505 349.091 75.8059C349.814 75.0776 350.5 74.4111 350.508 73.1758C350.563 64.625 338.825 52.1419 330.053 51.9814ZM280.069 100.336C289.117 99.4731 299.508 89.6112 300.711 80.4485C300.93 78.7892 300.263 77.7876 299.19 76.7172C291.452 69.0014 283.73 61.2697 276.073 53.4711C274.839 52.2129 273.651 51.7976 271.94 52.1256C262.871 53.8625 254.843 62.6805 252.923 71.8519C252.528 73.7405 252.866 74.9934 254.231 76.3451C261.994 84.0353 269.093 91.1445 276.8 98.892C277.717 99.8134 278.563 100.903 280.069 100.336ZM350.631 25.1077C350.631 18.8661 350.576 11.697 350.666 4.52964C350.692 2.5026 350.037 1.7893 347.991 1.81663C340.857 1.91186 333.72 1.85367 327.578 1.85367C335.07 9.40986 342.995 17.4043 350.631 25.1077ZM252.535 26.5348C260.857 18.1683 268.726 10.2559 277.086 1.85058C272.96 1.85058 269.056 1.72626 265.162 1.88408C261.064 2.05073 255.75 0.0571945 253.208 2.72964C250.88 5.17725 252.645 10.4375 252.554 14.4572C252.465 18.3367 252.535 22.2197 252.535 26.5348ZM276.352 100.439C268.373 92.4185 260.465 84.4691 252.541 76.5047C252.541 83.5266 252.573 90.91 252.518 98.2925C252.505 100.084 253.379 100.464 254.923 100.455C262.165 100.417 269.408 100.439 276.352 100.439ZM350.629 75.8348C342.355 84.1467 334.484 92.052 326.463 100.107C328.038 100.829 329.941 100.397 331.749 100.419C337.07 100.486 342.392 100.412 347.713 100.46C349.439 100.475 350.701 100.382 350.668 98.0441C350.563 90.77 350.629 83.4942 350.629 75.8348ZM302.225 25.5846C302.225 32.3755 302.247 41.2137 302.207 48.5936C302.198 50.2203 303.053 50.5298 304.411 50.5254C311.644 50.5007 320.262 50.5139 326.968 50.5139C319.259 42.7681 310.059 33.4565 302.225 25.5846ZM300.951 25.5846C292.881 33.6945 284.057 42.4278 276.032 50.4919C283.424 50.4919 291.888 50.4892 299.345 50.4954C300.809 50.4963 300.954 49.5229 300.954 48.3952C300.948 41.1088 300.951 32.9451 300.951 25.5846ZM326.877 51.7894C320.211 51.7894 311.49 51.8114 304.151 51.7718C302.56 51.7629 302.198 52.5723 302.203 53.9601C302.229 61.2342 302.215 69.6977 302.215 76.411C309.883 68.6934 319.071 59.6471 326.877 51.7894ZM276.214 51.7779C284.323 59.9021 292.868 68.5102 300.936 76.5937C300.936 69.205 300.928 60.9619 300.942 53.4842C300.945 51.7243 299.737 51.779 298.543 51.779C291.411 51.7772 283.562 51.7781 276.214 51.7779ZM301.594 82.0094C298.287 91.9489 292.374 97.8431 282.43 101.011H320.516C310.944 97.888 304.846 92.0379 301.594 82.0094ZM270.88 51.1834C261 47.8576 255.072 41.84 251.86 32.9894V70.3719C255.152 60.5779 260.857 54.4325 270.88 51.1834Z" fill="url(#paint3_linear_21950_12475)"/>
<path fill-rule="evenodd" clip-rule="evenodd" d="M451.1 31.5583C448.064 40.8232 442.633 47.838 431.642 51.103C442.448 54.4323 448.13 61.3334 451.1 70.7359V31.5583ZM381.714 1C390.978 4.0022 397.85 9.57633 401.19 20.4407C404.47 9.69183 411.343 3.98809 420.695 1H381.714ZM423.148 1.22633C414.132 1.96785 402.777 13.214 402.036 22.158C401.91 23.6913 402.608 24.5641 403.556 25.5129C411.279 33.2436 419.012 40.9656 426.653 48.7784C428.018 50.1741 429.333 50.5621 431.149 50.078C440.75 47.5193 447.574 40.1844 450.231 30.5183C450.811 28.4084 450.453 26.928 448.825 25.3312C441.209 17.8632 434.257 10.5689 426.717 3.02236C425.742 2.04632 424.924 0.646172 423.148 1.22633ZM400.368 22.4817C400.12 13.6691 388.82 2.46883 379.868 1.85428C378.454 1.7573 377.702 2.43268 376.878 3.2606C369.077 11.0989 361.264 18.9338 353.44 26.7483C352.351 27.8354 351.873 28.8441 352.153 30.5185C353.693 39.7464 362.616 48.6824 371.77 50.2078C373.335 50.4679 374.441 50.0949 375.57 48.9478C383.326 41.0654 391.142 33.2429 398.95 25.4116C399.79 24.5696 400.676 23.784 400.368 22.4817ZM429.673 51.9814C428.366 51.6834 427.605 52.611 426.772 53.4486C418.978 61.2931 411.194 69.1491 403.349 76.9424C402.198 78.0869 401.884 79.2208 402.151 80.7787C403.72 89.9291 412.315 98.2647 421.532 100.067C423.283 100.409 424.43 100.067 425.659 98.8184C433.414 90.9351 440.917 83.6505 448.712 75.8059C449.434 75.0776 450.12 74.4111 450.128 73.1758C450.183 64.625 438.445 52.1419 429.673 51.9814ZM379.69 100.336C388.737 99.4731 399.129 89.6112 400.331 80.4485C400.55 78.7892 399.883 77.7876 398.81 76.7172C391.072 69.0014 383.35 61.2697 375.694 53.4711C374.459 52.2129 373.271 51.7976 371.56 52.1256C362.491 53.8625 354.463 62.6805 352.543 71.8519C352.148 73.7405 352.487 74.9934 353.851 76.3451C361.614 84.0353 368.713 91.1445 376.42 98.892C377.337 99.8134 378.183 100.903 379.69 100.336ZM450.251 25.1077C450.251 18.8661 450.196 11.697 450.287 4.52964C450.312 2.5026 449.658 1.7893 447.611 1.81663C440.477 1.91186 433.34 1.85367 427.198 1.85367C434.69 9.40986 442.615 17.4043 450.251 25.1077ZM352.155 26.5348C360.477 18.1683 368.346 10.2559 376.706 1.85058C372.58 1.85058 368.676 1.72626 364.782 1.88408C360.684 2.05073 355.37 0.0571945 352.828 2.72964C350.5 5.17725 352.265 10.4375 352.174 14.4572C352.085 18.3367 352.155 22.2197 352.155 26.5348ZM375.972 100.439C367.993 92.4185 360.085 84.4691 352.161 76.5047C352.161 83.5266 352.193 90.91 352.138 98.2925C352.125 100.084 352.999 100.464 354.543 100.455C361.785 100.417 369.028 100.439 375.972 100.439ZM450.249 75.8348C441.975 84.1467 434.104 92.052 426.084 100.107C427.658 100.829 429.561 100.397 431.369 100.419C436.69 100.486 442.013 100.412 447.333 100.46C449.059 100.475 450.321 100.382 450.288 98.0441C450.184 90.77 450.249 83.4942 450.249 75.8348ZM401.845 25.5846C401.845 32.3755 401.868 41.2137 401.827 48.5936C401.818 50.2203 402.673 50.5298 404.031 50.5254C411.264 50.5007 419.882 50.5139 426.588 50.5139C418.879 42.7681 409.679 33.4565 401.845 25.5846ZM400.571 25.5846C392.501 33.6945 383.677 42.4278 375.653 50.4919C383.044 50.4919 391.508 50.4892 398.965 50.4954C400.429 50.4963 400.575 49.5229 400.574 48.3952C400.568 41.1088 400.571 32.9451 400.571 25.5846ZM426.497 51.7894C419.831 51.7894 411.11 51.8114 403.772 51.7718C402.18 51.7629 401.818 52.5723 401.823 53.9601C401.849 61.2342 401.835 69.6977 401.835 76.411C409.503 68.6934 418.691 59.6471 426.497 51.7894ZM375.834 51.7779C383.943 59.9021 392.488 68.5102 400.556 76.5937C400.556 69.205 400.548 60.9619 400.562 53.4842C400.565 51.7243 399.357 51.779 398.163 51.779C391.031 51.7772 383.182 51.7781 375.834 51.7779ZM401.214 82.0094C397.907 91.9489 391.994 97.8431 382.05 101.011H420.136C410.564 97.888 404.466 92.0379 401.214 82.0094ZM370.501 51.1834C360.621 47.8576 354.692 41.84 351.48 32.9894V70.3719C354.772 60.5779 360.477 54.4325 370.501 51.1834Z" fill="url(#paint4_linear_21950_12475)"/>
<path fill-rule="evenodd" clip-rule="evenodd" d="M52.62 131.569C49.5837 140.834 44.1533 147.849 33.1617 151.114C43.9682 154.443 49.6504 161.344 52.62 170.747V131.569ZM-16.7664 101.011C-7.50224 104.013 -0.630424 109.587 2.70942 120.452C5.9896 109.703 12.8632 103.999 22.2151 101.011H-16.7664ZM24.668 101.237C15.6521 101.979 4.29643 113.225 3.556 122.169C3.42967 123.702 4.12799 124.575 5.07547 125.524C12.7991 133.255 20.5315 140.977 28.1727 148.789C29.5378 150.185 30.8529 150.573 32.6688 150.089C42.2699 147.53 49.0935 140.195 51.7508 130.529C52.3307 128.419 51.9727 126.939 50.3445 125.342C42.7287 117.874 35.7771 110.58 28.2368 103.033C27.2621 102.057 26.4436 100.657 24.668 101.237ZM1.88765 122.493C1.64025 113.68 -9.66011 102.48 -18.612 101.865C-20.0262 101.768 -20.778 102.444 -21.6018 103.272C-29.4026 111.11 -37.2158 118.945 -45.0403 126.759C-46.129 127.846 -46.6072 128.855 -46.3273 130.529C-44.7868 139.757 -35.8639 148.693 -26.7102 150.219C-25.1451 150.479 -24.0389 150.106 -22.9098 148.959C-15.1546 141.076 -7.33792 133.254 0.469952 125.423C1.30952 124.581 2.19558 123.795 1.88765 122.493ZM31.1933 151.992C29.8862 151.694 29.1247 152.622 28.2921 153.46C20.4974 161.304 12.7141 169.16 4.86939 176.953C3.71751 178.098 3.40343 179.232 3.671 180.79C5.23959 189.94 13.8353 198.276 23.0521 200.078C24.8032 200.42 25.9498 200.078 27.1789 198.829C34.9341 190.946 42.4367 183.661 50.2314 175.817C50.9543 175.089 51.6403 174.422 51.6482 173.187C51.7026 164.636 39.9654 152.153 31.1933 151.992ZM-18.7905 200.347C-9.74302 199.484 0.648479 189.622 1.85125 180.46C2.06969 178.8 1.40295 177.799 0.330029 176.728C-7.40767 169.012 -15.1304 161.281 -22.7865 153.482C-24.0209 152.224 -25.2087 151.809 -26.9203 152.137C-35.9889 153.874 -44.017 162.691 -45.9374 171.863C-46.3321 173.752 -45.9935 175.004 -44.6293 176.356C-36.8662 184.046 -29.7672 191.155 -22.0602 198.903C-21.1434 199.824 -20.2968 200.914 -18.7905 200.347ZM51.7714 125.119C51.7714 118.877 51.7161 111.708 51.8065 104.541C51.8319 102.514 51.1775 101.8 49.1307 101.828C41.9966 101.923 34.8599 101.865 28.718 101.865C36.21 109.421 44.1346 117.415 51.7714 125.119ZM-46.3254 126.546C-38.0034 118.179 -30.1341 110.267 -21.7744 101.862C-25.9003 101.862 -29.8043 101.737 -33.6977 101.895C-37.7964 102.062 -43.1101 100.068 -45.6516 102.741C-47.9799 105.188 -46.2148 110.448 -46.3061 114.468C-46.3947 118.348 -46.3254 122.231 -46.3254 126.546ZM-22.5077 200.45C-30.4866 192.43 -38.3954 184.48 -46.3191 176.516C-46.3191 183.538 -46.2875 190.921 -46.3419 198.303C-46.355 200.095 -45.4812 200.475 -43.9372 200.466C-36.6952 200.428 -29.4523 200.45 -22.5077 200.45ZM51.7693 175.846C43.4947 184.158 35.6237 192.063 27.6035 200.118C29.1782 200.84 31.081 200.408 32.8891 200.43C38.2099 200.497 43.5324 200.423 48.8532 200.471C50.5788 200.486 51.8412 200.393 51.8079 198.055C51.7035 190.781 51.7693 183.505 51.7693 175.846ZM3.36466 125.596C3.36466 132.386 3.38747 141.225 3.34711 148.605C3.33834 150.231 4.19283 150.541 5.55087 150.536C12.7841 150.512 21.4017 150.525 28.1077 150.525C20.399 142.779 11.1989 133.467 3.36466 125.596ZM2.09101 125.596C-5.97918 133.706 -14.803 142.439 -22.8275 150.503C-15.4364 150.503 -6.97227 150.5 0.484692 150.506C1.94889 150.507 2.09451 149.534 2.09364 148.406C2.08837 141.12 2.09101 132.956 2.09101 125.596ZM28.0168 151.8C21.3511 151.8 12.63 151.822 5.29146 151.783C3.70005 151.774 3.33773 152.583 3.34299 153.971C3.36931 161.245 3.35527 169.709 3.35527 176.422C11.0228 168.704 20.2106 159.658 28.0168 151.8ZM-22.6459 151.789C-14.5371 159.913 -5.99234 168.521 2.07609 176.605C2.07609 169.216 2.06821 160.973 2.08224 153.495C2.08487 151.735 0.87685 151.79 -0.317142 151.79C-7.44863 151.788 -15.2978 151.789 -22.6459 151.789ZM2.73363 182.02C-0.572876 191.96 -6.48581 197.854 -16.4299 201.022H21.6559C12.0838 197.899 5.98574 192.049 2.73363 182.02ZM-27.9795 151.194C-37.8595 147.869 -43.7882 141.851 -47 133V170.383C-43.7084 160.589 -38.0034 154.443 -27.9795 151.194Z" fill="url(#paint5_linear_21950_12475)"/>
<path fill-rule="evenodd" clip-rule="evenodd" d="M152.24 131.569C149.204 140.834 143.773 147.849 132.782 151.114C143.588 154.443 149.27 161.344 152.24 170.747V131.569ZM82.8536 101.011C92.1178 104.013 98.9896 109.587 102.329 120.452C105.61 109.703 112.483 103.999 121.835 101.011H82.8536ZM124.288 101.237C115.272 101.979 103.916 113.225 103.176 122.169C103.05 123.702 103.748 124.575 104.695 125.524C112.419 133.255 120.152 140.977 127.793 148.789C129.158 150.185 130.473 150.573 132.289 150.089C141.89 147.53 148.713 140.195 151.371 130.529C151.951 128.419 151.593 126.939 149.964 125.342C142.349 117.874 135.397 110.58 127.857 103.033C126.882 102.057 126.064 100.657 124.288 101.237ZM101.508 122.493C101.26 113.68 89.9599 102.48 81.008 101.865C79.5938 101.768 78.842 102.444 78.0182 103.272C70.2174 111.11 62.4042 118.945 54.5797 126.759C53.491 127.846 53.0128 128.855 53.2927 130.529C54.8332 139.757 63.7561 148.693 72.9098 150.219C74.4748 150.479 75.5811 150.106 76.7102 148.959C84.4654 141.076 92.2821 133.254 100.09 125.423C100.93 124.581 101.816 123.795 101.508 122.493ZM130.813 151.992C129.506 151.694 128.745 152.622 127.912 153.46C120.117 161.304 112.334 169.16 104.489 176.953C103.338 178.098 103.023 179.232 103.291 180.79C104.86 189.94 113.455 198.276 122.672 200.078C124.423 200.42 125.57 200.078 126.799 198.829C134.554 190.946 142.057 183.661 149.851 175.817C150.574 175.089 151.26 174.422 151.268 173.187C151.323 164.636 139.585 152.153 130.813 151.992ZM80.8295 200.347C89.877 199.484 100.268 189.622 101.471 180.46C101.69 178.8 101.023 177.799 99.95 176.728C92.2123 169.012 84.4896 161.281 76.8335 153.482C75.5991 152.224 74.4112 151.809 72.6997 152.137C63.6311 153.874 55.603 162.691 53.6826 171.863C53.2879 173.752 53.6265 175.004 54.9907 176.356C62.7538 184.046 69.8528 191.155 77.5598 198.903C78.4766 199.824 79.3232 200.914 80.8295 200.347ZM151.391 125.119C151.391 118.877 151.336 111.708 151.426 104.541C151.452 102.514 150.797 101.8 148.751 101.828C141.617 101.923 134.48 101.865 128.338 101.865C135.83 109.421 143.755 117.415 151.391 125.119ZM53.2946 126.546C61.6166 118.179 69.4859 110.267 77.8456 101.862C73.7197 101.862 69.8157 101.737 65.9223 101.895C61.8236 102.062 56.5099 100.068 53.9684 102.741C51.64 105.188 53.4052 110.448 53.3139 114.468C53.2253 118.348 53.2946 122.231 53.2946 126.546ZM77.1123 200.45C69.1334 192.43 61.2246 184.48 53.3009 176.516C53.3009 183.538 53.3325 190.921 53.2781 198.303C53.265 200.095 54.1388 200.475 55.6828 200.466C62.9248 200.428 70.1677 200.45 77.1123 200.45ZM151.389 175.846C143.115 184.158 135.244 192.063 127.223 200.118C128.798 200.84 130.701 200.408 132.509 200.43C137.83 200.497 143.152 200.423 148.473 200.471C150.199 200.486 151.461 200.393 151.428 198.055C151.323 190.781 151.389 183.505 151.389 175.846ZM102.985 125.596C102.985 132.386 103.007 141.225 102.967 148.605C102.958 150.231 103.813 150.541 105.171 150.536C112.404 150.512 121.022 150.525 127.728 150.525C120.019 142.779 110.819 133.467 102.985 125.596ZM101.711 125.596C93.6408 133.706 84.817 142.439 76.7925 150.503C84.1836 150.503 92.6477 150.5 100.105 150.506C101.569 150.507 101.715 149.534 101.714 148.406C101.708 141.12 101.711 132.956 101.711 125.596ZM127.637 151.8C120.971 151.8 112.25 151.822 104.911 151.783C103.32 151.774 102.958 152.583 102.963 153.971C102.989 161.245 102.975 169.709 102.975 176.422C110.643 168.704 119.831 159.658 127.637 151.8ZM76.9741 151.789C85.0828 159.913 93.6277 168.521 101.696 176.605C101.696 169.216 101.688 160.973 101.702 153.495C101.705 151.735 100.497 151.79 99.3029 151.79C92.1714 151.788 84.3222 151.789 76.9741 151.789ZM102.354 182.02C99.0471 191.96 93.1342 197.854 83.1901 201.022H121.276C111.704 197.899 105.606 192.049 102.354 182.02ZM71.6405 151.194C61.7605 147.869 55.8317 141.851 52.62 133V170.383C55.9116 160.589 61.6166 154.443 71.6405 151.194Z" fill="url(#paint6_linear_21950_12475)"/>
<path fill-rule="evenodd" clip-rule="evenodd" d="M251.86 131.569C248.824 140.834 243.393 147.849 232.402 151.114C243.208 154.443 248.89 161.344 251.86 170.747V131.569ZM182.474 101.011C191.738 104.013 198.61 109.587 201.95 120.452C205.23 109.703 212.103 103.999 221.455 101.011H182.474ZM223.908 101.237C214.892 101.979 203.537 113.225 202.796 122.169C202.67 123.702 203.368 124.575 204.316 125.524C212.039 133.255 219.772 140.977 227.413 148.789C228.778 150.185 230.093 150.573 231.909 150.089C241.51 147.53 248.334 140.195 250.991 130.529C251.571 128.419 251.213 126.939 249.585 125.342C241.969 117.874 235.017 110.58 227.477 103.033C226.502 102.057 225.684 100.657 223.908 101.237ZM201.128 122.493C200.88 113.68 189.58 102.48 180.628 101.865C179.214 101.768 178.462 102.444 177.638 103.272C169.837 111.11 162.024 118.945 154.2 126.759C153.111 127.846 152.633 128.855 152.913 130.529C154.453 139.757 163.376 148.693 172.53 150.219C174.095 150.479 175.201 150.106 176.33 148.959C184.086 141.076 191.902 133.254 199.71 125.423C200.55 124.581 201.436 123.795 201.128 122.493ZM230.433 151.992C229.126 151.694 228.365 152.622 227.532 153.46C219.738 161.304 211.954 169.16 204.11 176.953C202.958 178.098 202.644 179.232 202.911 180.79C204.48 189.94 213.075 198.276 222.292 200.078C224.043 200.42 225.19 200.078 226.419 198.829C234.174 190.946 241.677 183.661 249.472 175.817C250.194 175.089 250.88 174.422 250.888 173.187C250.943 164.636 239.205 152.153 230.433 151.992ZM180.45 200.347C189.497 199.484 199.889 189.622 201.091 180.46C201.31 178.8 200.643 177.799 199.57 176.728C191.832 169.012 184.11 161.281 176.454 153.482C175.219 152.224 174.031 151.809 172.32 152.137C163.251 153.874 155.223 162.691 153.303 171.863C152.908 173.752 153.247 175.004 154.611 176.356C162.374 184.046 169.473 191.155 177.18 198.903C178.097 199.824 178.943 200.914 180.45 200.347ZM251.011 125.119C251.011 118.877 250.956 111.708 251.047 104.541C251.072 102.514 250.418 101.8 248.371 101.828C241.237 101.923 234.1 101.865 227.958 101.865C235.45 109.421 243.375 117.415 251.011 125.119ZM152.915 126.546C161.237 118.179 169.106 110.267 177.466 101.862C173.34 101.862 169.436 101.737 165.542 101.895C161.444 102.062 156.13 100.068 153.588 102.741C151.26 105.188 153.025 110.448 152.934 114.468C152.845 118.348 152.915 122.231 152.915 126.546ZM176.732 200.45C168.754 192.43 160.845 184.48 152.921 176.516C152.921 183.538 152.953 190.921 152.898 198.303C152.885 200.095 153.759 200.475 155.303 200.466C162.545 200.428 169.788 200.45 176.732 200.45ZM251.009 175.846C242.735 184.158 234.864 192.063 226.844 200.118C228.418 200.84 230.321 200.408 232.129 200.43C237.45 200.497 242.773 200.423 248.093 200.471C249.819 200.486 251.081 200.393 251.048 198.055C250.944 190.781 251.009 183.505 251.009 175.846ZM202.605 125.596C202.605 132.386 202.628 141.225 202.587 148.605C202.578 150.231 203.433 150.541 204.791 150.536C212.024 150.512 220.642 150.525 227.348 150.525C219.639 142.779 210.439 133.467 202.605 125.596ZM201.331 125.596C193.261 133.706 184.437 142.439 176.413 150.503C183.804 150.503 192.268 150.5 199.725 150.506C201.189 150.507 201.335 149.534 201.334 148.406C201.328 141.12 201.331 132.956 201.331 125.596ZM227.257 151.8C220.591 151.8 211.87 151.822 204.532 151.783C202.94 151.774 202.578 152.583 202.583 153.971C202.609 161.245 202.595 169.709 202.595 176.422C210.263 168.704 219.451 159.658 227.257 151.8ZM176.594 151.789C184.703 159.913 193.248 168.521 201.316 176.605C201.316 169.216 201.308 160.973 201.322 153.495C201.325 151.735 200.117 151.79 198.923 151.79C191.791 151.788 183.942 151.789 176.594 151.789ZM201.974 182.02C198.667 191.96 192.754 197.854 182.81 201.022H220.896C211.324 197.899 205.226 192.049 201.974 182.02ZM171.261 151.194C161.381 147.869 155.452 141.851 152.24 133V170.383C155.532 160.589 161.237 154.443 171.261 151.194Z" fill="url(#paint7_linear_21950_12475)"/>
<path fill-rule="evenodd" clip-rule="evenodd" d="M351.48 131.569C348.444 140.834 343.013 147.849 332.022 151.114C342.828 154.443 348.51 161.344 351.48 170.747V131.569ZM282.094 101.011C291.358 104.013 298.23 109.587 301.569 120.452C304.85 109.703 311.723 103.999 321.075 101.011H282.094ZM323.528 101.237C314.512 101.979 303.156 113.225 302.416 122.169C302.29 123.702 302.988 124.575 303.935 125.524C311.659 133.255 319.392 140.977 327.033 148.789C328.398 150.185 329.713 150.573 331.529 150.089C341.13 147.53 347.953 140.195 350.611 130.529C351.191 128.419 350.833 126.939 349.204 125.342C341.589 117.874 334.637 110.58 327.097 103.033C326.122 102.057 325.304 100.657 323.528 101.237ZM300.748 122.493C300.5 113.68 289.2 102.48 280.248 101.865C278.834 101.768 278.082 102.444 277.258 103.272C269.457 111.11 261.644 118.945 253.82 126.759C252.731 127.846 252.253 128.855 252.533 130.529C254.073 139.757 262.996 148.693 272.15 150.219C273.715 150.479 274.821 150.106 275.95 148.959C283.705 141.076 291.522 133.254 299.33 125.423C300.17 124.581 301.056 123.795 300.748 122.493ZM330.053 151.992C328.746 151.694 327.985 152.622 327.152 153.46C319.357 161.304 311.574 169.16 303.729 176.953C302.577 178.098 302.263 179.232 302.531 180.79C304.1 189.94 312.695 198.276 321.912 200.078C323.663 200.42 324.81 200.078 326.039 198.829C333.794 190.946 341.297 183.661 349.091 175.817C349.814 175.089 350.5 174.422 350.508 173.187C350.563 164.636 338.825 152.153 330.053 151.992ZM280.069 200.347C289.117 199.484 299.508 189.622 300.711 180.46C300.93 178.8 300.263 177.799 299.19 176.728C291.452 169.012 283.73 161.281 276.073 153.482C274.839 152.224 273.651 151.809 271.94 152.137C262.871 153.874 254.843 162.691 252.923 171.863C252.528 173.752 252.866 175.004 254.231 176.356C261.994 184.046 269.093 191.155 276.8 198.903C277.717 199.824 278.563 200.914 280.069 200.347ZM350.631 125.119C350.631 118.877 350.576 111.708 350.666 104.541C350.692 102.514 350.037 101.8 347.991 101.828C340.857 101.923 333.72 101.865 327.578 101.865C335.07 109.421 342.995 117.415 350.631 125.119ZM252.535 126.546C260.857 118.179 268.726 110.267 277.086 101.862C272.96 101.862 269.056 101.737 265.162 101.895C261.064 102.062 255.75 100.068 253.208 102.741C250.88 105.188 252.645 110.448 252.554 114.468C252.465 118.348 252.535 122.231 252.535 126.546ZM276.352 200.45C268.373 192.43 260.465 184.48 252.541 176.516C252.541 183.538 252.573 190.921 252.518 198.303C252.505 200.095 253.379 200.475 254.923 200.466C262.165 200.428 269.408 200.45 276.352 200.45ZM350.629 175.846C342.355 184.158 334.484 192.063 326.463 200.118C328.038 200.84 329.941 200.408 331.749 200.43C337.07 200.497 342.392 200.423 347.713 200.471C349.439 200.486 350.701 200.393 350.668 198.055C350.563 190.781 350.629 183.505 350.629 175.846ZM302.225 125.596C302.225 132.386 302.247 141.225 302.207 148.605C302.198 150.231 303.053 150.541 304.411 150.536C311.644 150.512 320.262 150.525 326.968 150.525C319.259 142.779 310.059 133.467 302.225 125.596ZM300.951 125.596C292.881 133.706 284.057 142.439 276.032 150.503C283.424 150.503 291.888 150.5 299.345 150.506C300.809 150.507 300.954 149.534 300.954 148.406C300.948 141.12 300.951 132.956 300.951 125.596ZM326.877 151.8C320.211 151.8 311.49 151.822 304.151 151.783C302.56 151.774 302.198 152.583 302.203 153.971C302.229 161.245 302.215 169.709 302.215 176.422C309.883 168.704 319.071 159.658 326.877 151.8ZM276.214 151.789C284.323 159.913 292.868 168.521 300.936 176.605C300.936 169.216 300.928 160.973 300.942 153.495C300.945 151.735 299.737 151.79 298.543 151.79C291.411 151.788 283.562 151.789 276.214 151.789ZM301.594 182.02C298.287 191.96 292.374 197.854 282.43 201.022H320.516C310.944 197.899 304.846 192.049 301.594 182.02ZM270.88 151.194C261 147.869 255.072 141.851 251.86 133V170.383C255.152 160.589 260.857 154.443 270.88 151.194Z" fill="url(#paint8_linear_21950_12475)"/>
<path fill-rule="evenodd" clip-rule="evenodd" d="M451.1 131.569C448.064 140.834 442.633 147.849 431.642 151.114C442.448 154.443 448.13 161.344 451.1 170.747V131.569ZM381.714 101.011C390.978 104.013 397.85 109.587 401.19 120.452C404.47 109.703 411.343 103.999 420.695 101.011H381.714ZM423.148 101.237C414.132 101.979 402.777 113.225 402.036 122.169C401.91 123.702 402.608 124.575 403.556 125.524C411.279 133.255 419.012 140.977 426.653 148.789C428.018 150.185 429.333 150.573 431.149 150.089C440.75 147.53 447.574 140.195 450.231 130.529C450.811 128.419 450.453 126.939 448.825 125.342C441.209 117.874 434.257 110.58 426.717 103.033C425.742 102.057 424.924 100.657 423.148 101.237ZM400.368 122.493C400.12 113.68 388.82 102.48 379.868 101.865C378.454 101.768 377.702 102.444 376.878 103.272C369.077 111.11 361.264 118.945 353.44 126.759C352.351 127.846 351.873 128.855 352.153 130.529C353.693 139.757 362.616 148.693 371.77 150.219C373.335 150.479 374.441 150.106 375.57 148.959C383.326 141.076 391.142 133.254 398.95 125.423C399.79 124.581 400.676 123.795 400.368 122.493ZM429.673 151.992C428.366 151.694 427.605 152.622 426.772 153.46C418.978 161.304 411.194 169.16 403.349 176.953C402.198 178.098 401.884 179.232 402.151 180.79C403.72 189.94 412.315 198.276 421.532 200.078C423.283 200.42 424.43 200.078 425.659 198.829C433.414 190.946 440.917 183.661 448.712 175.817C449.434 175.089 450.12 174.422 450.128 173.187C450.183 164.636 438.445 152.153 429.673 151.992ZM379.69 200.347C388.737 199.484 399.129 189.622 400.331 180.46C400.55 178.8 399.883 177.799 398.81 176.728C391.072 169.012 383.35 161.281 375.694 153.482C374.459 152.224 373.271 151.809 371.56 152.137C362.491 153.874 354.463 162.691 352.543 171.863C352.148 173.752 352.487 175.004 353.851 176.356C361.614 184.046 368.713 191.155 376.42 198.903C377.337 199.824 378.183 200.914 379.69 200.347ZM450.251 125.119C450.251 118.877 450.196 111.708 450.287 104.541C450.312 102.514 449.658 101.8 447.611 101.828C440.477 101.923 433.34 101.865 427.198 101.865C434.69 109.421 442.615 117.415 450.251 125.119ZM352.155 126.546C360.477 118.179 368.346 110.267 376.706 101.862C372.58 101.862 368.676 101.737 364.782 101.895C360.684 102.062 355.37 100.068 352.828 102.741C350.5 105.188 352.265 110.448 352.174 114.468C352.085 118.348 352.155 122.231 352.155 126.546ZM375.972 200.45C367.993 192.43 360.085 184.48 352.161 176.516C352.161 183.538 352.193 190.921 352.138 198.303C352.125 200.095 352.999 200.475 354.543 200.466C361.785 200.428 369.028 200.45 375.972 200.45ZM450.249 175.846C441.975 184.158 434.104 192.063 426.084 200.118C427.658 200.84 429.561 200.408 431.369 200.43C436.69 200.497 442.013 200.423 447.333 200.471C449.059 200.486 450.321 200.393 450.288 198.055C450.184 190.781 450.249 183.505 450.249 175.846ZM401.845 125.596C401.845 132.386 401.868 141.225 401.827 148.605C401.818 150.231 402.673 150.541 404.031 150.536C411.264 150.512 419.882 150.525 426.588 150.525C418.879 142.779 409.679 133.467 401.845 125.596ZM400.571 125.596C392.501 133.706 383.677 142.439 375.653 150.503C383.044 150.503 391.508 150.5 398.965 150.506C400.429 150.507 400.575 149.534 400.574 148.406C400.568 141.12 400.571 132.956 400.571 125.596ZM426.497 151.8C419.831 151.8 411.11 151.822 403.772 151.783C402.18 151.774 401.818 152.583 401.823 153.971C401.849 161.245 401.835 169.709 401.835 176.422C409.503 168.704 418.691 159.658 426.497 151.8ZM375.834 151.789C383.943 159.913 392.488 168.521 400.556 176.605C400.556 169.216 400.548 160.973 400.562 153.495C400.565 151.735 399.357 151.79 398.163 151.79C391.031 151.788 383.182 151.789 375.834 151.789ZM401.214 182.02C397.907 191.96 391.994 197.854 382.05 201.022H420.136C410.564 197.899 404.466 192.049 401.214 182.02ZM370.501 151.194C360.621 147.869 354.692 141.851 351.48 133V170.383C354.772 160.589 360.477 154.443 370.501 151.194Z" fill="url(#paint9_linear_21950_12475)"/>
<path fill-rule="evenodd" clip-rule="evenodd" d="M52.62 231.58C49.5837 240.845 44.1533 247.86 33.1617 251.125C43.9682 254.454 49.6504 261.355 52.62 270.758V231.58ZM-16.7664 201.022C-7.50224 204.024 -0.630424 209.598 2.70942 220.463C5.9896 209.714 12.8632 204.01 22.2151 201.022H-16.7664ZM24.668 201.248C15.6521 201.99 4.29643 213.236 3.556 222.18C3.42967 223.713 4.12799 224.586 5.07547 225.535C12.7991 233.266 20.5315 240.988 28.1727 248.8C29.5378 250.196 30.8529 250.584 32.6688 250.1C42.2699 247.541 49.0935 240.206 51.7508 230.54C52.3307 228.43 51.9727 226.95 50.3445 225.353C42.7287 217.885 35.7771 210.591 28.2368 203.044C27.2621 202.068 26.4436 200.668 24.668 201.248ZM1.88765 222.504C1.64025 213.691 -9.66011 202.491 -18.612 201.876C-20.0262 201.779 -20.778 202.455 -21.6018 203.283C-29.4026 211.121 -37.2158 218.956 -45.0403 226.77C-46.129 227.857 -46.6072 228.866 -46.3273 230.54C-44.7868 239.768 -35.8639 248.704 -26.7102 250.23C-25.1451 250.49 -24.0389 250.117 -22.9098 248.97C-15.1546 241.087 -7.33792 233.265 0.469952 225.434C1.30952 224.592 2.19558 223.806 1.88765 222.504ZM31.1933 252.003C29.8862 251.705 29.1247 252.633 28.2921 253.471C20.4974 261.315 12.7141 269.171 4.86939 276.964C3.71751 278.109 3.40343 279.243 3.671 280.801C5.23959 289.951 13.8353 298.287 23.0521 300.089C24.8032 300.431 25.9498 300.089 27.1789 298.84C34.9341 290.957 42.4367 283.672 50.2314 275.828C50.9543 275.1 51.6403 274.433 51.6482 273.198C51.7026 264.647 39.9654 252.164 31.1933 252.003ZM-18.7905 300.358C-9.74302 299.495 0.648479 289.633 1.85125 280.471C2.06969 278.811 1.40295 277.81 0.330029 276.739C-7.40767 269.023 -15.1304 261.292 -22.7865 253.493C-24.0209 252.235 -25.2087 251.82 -26.9203 252.148C-35.9889 253.885 -44.017 262.702 -45.9374 271.874C-46.3321 273.763 -45.9935 275.015 -44.6293 276.367C-36.8662 284.057 -29.7672 291.166 -22.0602 298.914C-21.1434 299.835 -20.2968 300.925 -18.7905 300.358ZM51.7714 225.13C51.7714 218.888 51.7161 211.719 51.8065 204.552C51.8319 202.525 51.1775 201.811 49.1307 201.839C41.9966 201.934 34.8599 201.876 28.718 201.876C36.21 209.432 44.1346 217.426 51.7714 225.13ZM-46.3254 226.557C-38.0034 218.19 -30.1341 210.278 -21.7744 201.873C-25.9003 201.873 -29.8043 201.748 -33.6977 201.906C-37.7964 202.073 -43.1101 200.079 -45.6516 202.752C-47.9799 205.199 -46.2148 210.459 -46.3061 214.479C-46.3947 218.359 -46.3254 222.242 -46.3254 226.557ZM-22.5077 300.461C-30.4866 292.441 -38.3954 284.491 -46.3191 276.527C-46.3191 283.549 -46.2875 290.932 -46.3419 298.314C-46.355 300.106 -45.4812 300.486 -43.9372 300.477C-36.6952 300.439 -29.4523 300.461 -22.5077 300.461ZM51.7693 275.857C43.4947 284.169 35.6237 292.074 27.6035 300.129C29.1782 300.851 31.081 300.419 32.8891 300.441C38.2099 300.507 43.5324 300.434 48.8532 300.482C50.5788 300.497 51.8412 300.404 51.8079 298.066C51.7035 290.792 51.7693 283.516 51.7693 275.857ZM3.36466 225.607C3.36466 232.397 3.38747 241.236 3.34711 248.616C3.33834 250.242 4.19283 250.552 5.55087 250.547C12.7841 250.523 21.4017 250.536 28.1077 250.536C20.399 242.79 11.1989 233.478 3.36466 225.607ZM2.09101 225.607C-5.97918 233.717 -14.803 242.45 -22.8275 250.514C-15.4364 250.514 -6.97227 250.511 0.484692 250.517C1.94889 250.518 2.09451 249.545 2.09364 248.417C2.08837 241.131 2.09101 232.967 2.09101 225.607ZM28.0168 251.811C21.3511 251.811 12.63 251.833 5.29146 251.794C3.70005 251.785 3.33773 252.594 3.34299 253.982C3.36931 261.256 3.35527 269.72 3.35527 276.433C11.0228 268.715 20.2106 259.669 28.0168 251.811ZM-22.6459 251.8C-14.5371 259.924 -5.99234 268.532 2.07609 276.616C2.07609 269.227 2.06821 260.984 2.08224 253.506C2.08487 251.746 0.87685 251.801 -0.317142 251.801C-7.44863 251.799 -15.2978 251.8 -22.6459 251.8ZM2.73363 282.031C-0.572876 291.971 -6.48581 297.865 -16.4299 301.033H21.6559C12.0838 297.91 5.98574 292.06 2.73363 282.031ZM-27.9795 251.205C-37.8595 247.88 -43.7882 241.862 -47 233.011V270.394C-43.7084 260.6 -38.0034 254.454 -27.9795 251.205Z" fill="url(#paint10_linear_21950_12475)"/>
<path fill-rule="evenodd" clip-rule="evenodd" d="M152.24 231.58C149.204 240.845 143.773 247.86 132.782 251.125C143.588 254.454 149.27 261.355 152.24 270.758V231.58ZM82.8536 201.022C92.1178 204.024 98.9896 209.598 102.329 220.463C105.61 209.714 112.483 204.01 121.835 201.022H82.8536ZM124.288 201.248C115.272 201.99 103.916 213.236 103.176 222.18C103.05 223.713 103.748 224.586 104.695 225.535C112.419 233.266 120.152 240.988 127.793 248.8C129.158 250.196 130.473 250.584 132.289 250.1C141.89 247.541 148.713 240.206 151.371 230.54C151.951 228.43 151.593 226.95 149.964 225.353C142.349 217.885 135.397 210.591 127.857 203.044C126.882 202.068 126.064 200.668 124.288 201.248ZM101.508 222.504C101.26 213.691 89.9599 202.491 81.008 201.876C79.5938 201.779 78.842 202.455 78.0182 203.283C70.2174 211.121 62.4042 218.956 54.5797 226.77C53.491 227.857 53.0128 228.866 53.2927 230.54C54.8332 239.768 63.7561 248.704 72.9098 250.23C74.4748 250.49 75.5811 250.117 76.7102 248.97C84.4654 241.087 92.2821 233.265 100.09 225.434C100.93 224.592 101.816 223.806 101.508 222.504ZM130.813 252.003C129.506 251.705 128.745 252.633 127.912 253.471C120.117 261.315 112.334 269.171 104.489 276.964C103.338 278.109 103.023 279.243 103.291 280.801C104.86 289.951 113.455 298.287 122.672 300.089C124.423 300.431 125.57 300.089 126.799 298.84C134.554 290.957 142.057 283.672 149.851 275.828C150.574 275.1 151.26 274.433 151.268 273.198C151.323 264.647 139.585 252.164 130.813 252.003ZM80.8295 300.358C89.877 299.495 100.268 289.633 101.471 280.471C101.69 278.811 101.023 277.81 99.95 276.739C92.2123 269.023 84.4896 261.292 76.8335 253.493C75.5991 252.235 74.4112 251.82 72.6997 252.148C63.6311 253.885 55.603 262.702 53.6826 271.874C53.2879 273.763 53.6265 275.015 54.9907 276.367C62.7538 284.057 69.8528 291.166 77.5598 298.914C78.4766 299.835 79.3232 300.925 80.8295 300.358ZM151.391 225.13C151.391 218.888 151.336 211.719 151.426 204.552C151.452 202.525 150.797 201.811 148.751 201.839C141.617 201.934 134.48 201.876 128.338 201.876C135.83 209.432 143.755 217.426 151.391 225.13ZM53.2946 226.557C61.6166 218.19 69.4859 210.278 77.8456 201.873C73.7197 201.873 69.8157 201.748 65.9223 201.906C61.8236 202.073 56.5099 200.079 53.9684 202.752C51.64 205.199 53.4052 210.459 53.3139 214.479C53.2253 218.359 53.2946 222.242 53.2946 226.557ZM77.1123 300.461C69.1334 292.441 61.2246 284.491 53.3009 276.527C53.3009 283.549 53.3325 290.932 53.2781 298.314C53.265 300.106 54.1388 300.486 55.6828 300.477C62.9248 300.439 70.1677 300.461 77.1123 300.461ZM151.389 275.857C143.115 284.169 135.244 292.074 127.223 300.129C128.798 300.851 130.701 300.419 132.509 300.441C137.83 300.507 143.152 300.434 148.473 300.482C150.199 300.497 151.461 300.404 151.428 298.066C151.323 290.792 151.389 283.516 151.389 275.857ZM102.985 225.607C102.985 232.397 103.007 241.236 102.967 248.616C102.958 250.242 103.813 250.552 105.171 250.547C112.404 250.523 121.022 250.536 127.728 250.536C120.019 242.79 110.819 233.478 102.985 225.607ZM101.711 225.607C93.6408 233.717 84.817 242.45 76.7925 250.514C84.1836 250.514 92.6477 250.511 100.105 250.517C101.569 250.518 101.715 249.545 101.714 248.417C101.708 241.131 101.711 232.967 101.711 225.607ZM127.637 251.811C120.971 251.811 112.25 251.833 104.911 251.794C103.32 251.785 102.958 252.594 102.963 253.982C102.989 261.256 102.975 269.72 102.975 276.433C110.643 268.715 119.831 259.669 127.637 251.811ZM76.9741 251.8C85.0828 259.924 93.6277 268.532 101.696 276.616C101.696 269.227 101.688 260.984 101.702 253.506C101.705 251.746 100.497 251.801 99.3029 251.801C92.1714 251.799 84.3222 251.8 76.9741 251.8ZM102.354 282.031C99.0471 291.971 93.1342 297.865 83.1901 301.033H121.276C111.704 297.91 105.606 292.06 102.354 282.031ZM71.6405 251.205C61.7605 247.88 55.8317 241.862 52.62 233.011V270.394C55.9116 260.6 61.6166 254.454 71.6405 251.205Z" fill="url(#paint11_linear_21950_12475)"/>
<path fill-rule="evenodd" clip-rule="evenodd" d="M251.86 231.58C248.824 240.845 243.393 247.86 232.402 251.125C243.208 254.454 248.89 261.355 251.86 270.758V231.58ZM182.474 201.022C191.738 204.024 198.61 209.598 201.95 220.463C205.23 209.714 212.103 204.01 221.455 201.022H182.474ZM223.908 201.248C214.892 201.99 203.537 213.236 202.796 222.18C202.67 223.713 203.368 224.586 204.316 225.535C212.039 233.266 219.772 240.988 227.413 248.8C228.778 250.196 230.093 250.584 231.909 250.1C241.51 247.541 248.334 240.206 250.991 230.54C251.571 228.43 251.213 226.95 249.585 225.353C241.969 217.885 235.017 210.591 227.477 203.044C226.502 202.068 225.684 200.668 223.908 201.248ZM201.128 222.504C200.88 213.691 189.58 202.491 180.628 201.876C179.214 201.779 178.462 202.455 177.638 203.283C169.837 211.121 162.024 218.956 154.2 226.77C153.111 227.857 152.633 228.866 152.913 230.54C154.453 239.768 163.376 248.704 172.53 250.23C174.095 250.49 175.201 250.117 176.33 248.97C184.086 241.087 191.902 233.265 199.71 225.434C200.55 224.592 201.436 223.806 201.128 222.504ZM230.433 252.003C229.126 251.705 228.365 252.633 227.532 253.471C219.738 261.315 211.954 269.171 204.11 276.964C202.958 278.109 202.644 279.243 202.911 280.801C204.48 289.951 213.075 298.287 222.292 300.089C224.043 300.431 225.19 300.089 226.419 298.84C234.174 290.957 241.677 283.672 249.472 275.828C250.194 275.1 250.88 274.433 250.888 273.198C250.943 264.647 239.205 252.164 230.433 252.003ZM180.45 300.358C189.497 299.495 199.889 289.633 201.091 280.471C201.31 278.811 200.643 277.81 199.57 276.739C191.832 269.023 184.11 261.292 176.454 253.493C175.219 252.235 174.031 251.82 172.32 252.148C163.251 253.885 155.223 262.702 153.303 271.874C152.908 273.763 153.247 275.015 154.611 276.367C162.374 284.057 169.473 291.166 177.18 298.914C178.097 299.835 178.943 300.925 180.45 300.358ZM251.011 225.13C251.011 218.888 250.956 211.719 251.047 204.552C251.072 202.525 250.418 201.811 248.371 201.839C241.237 201.934 234.1 201.876 227.958 201.876C235.45 209.432 243.375 217.426 251.011 225.13ZM152.915 226.557C161.237 218.19 169.106 210.278 177.466 201.873C173.34 201.873 169.436 201.748 165.542 201.906C161.444 202.073 156.13 200.079 153.588 202.752C151.26 205.199 153.025 210.459 152.934 214.479C152.845 218.359 152.915 222.242 152.915 226.557ZM176.732 300.461C168.754 292.441 160.845 284.491 152.921 276.527C152.921 283.549 152.953 290.932 152.898 298.314C152.885 300.106 153.759 300.486 155.303 300.477C162.545 300.439 169.788 300.461 176.732 300.461ZM251.009 275.857C242.735 284.169 234.864 292.074 226.844 300.129C228.418 300.851 230.321 300.419 232.129 300.441C237.45 300.507 242.773 300.434 248.093 300.482C249.819 300.497 251.081 300.404 251.048 298.066C250.944 290.792 251.009 283.516 251.009 275.857ZM202.605 225.607C202.605 232.397 202.628 241.236 202.587 248.616C202.578 250.242 203.433 250.552 204.791 250.547C212.024 250.523 220.642 250.536 227.348 250.536C219.639 242.79 210.439 233.478 202.605 225.607ZM201.331 225.607C193.261 233.717 184.437 242.45 176.413 250.514C183.804 250.514 192.268 250.511 199.725 250.517C201.189 250.518 201.335 249.545 201.334 248.417C201.328 241.131 201.331 232.967 201.331 225.607ZM227.257 251.811C220.591 251.811 211.87 251.833 204.532 251.794C202.94 251.785 202.578 252.594 202.583 253.982C202.609 261.256 202.595 269.72 202.595 276.433C210.263 268.715 219.451 259.669 227.257 251.811ZM176.594 251.8C184.703 259.924 193.248 268.532 201.316 276.616C201.316 269.227 201.308 260.984 201.322 253.506C201.325 251.746 200.117 251.801 198.923 251.801C191.791 251.799 183.942 251.8 176.594 251.8ZM201.974 282.031C198.667 291.971 192.754 297.865 182.81 301.033H220.896C211.324 297.91 205.226 292.06 201.974 282.031ZM171.261 251.205C161.381 247.88 155.452 241.862 152.24 233.011V270.394C155.532 260.6 161.237 254.454 171.261 251.205Z" fill="url(#paint12_linear_21950_12475)"/>
<path fill-rule="evenodd" clip-rule="evenodd" d="M351.48 231.58C348.444 240.845 343.013 247.86 332.022 251.125C342.828 254.454 348.51 261.355 351.48 270.758V231.58ZM282.094 201.022C291.358 204.024 298.23 209.598 301.569 220.463C304.85 209.714 311.723 204.01 321.075 201.022H282.094ZM323.528 201.248C314.512 201.99 303.156 213.236 302.416 222.18C302.29 223.713 302.988 224.586 303.935 225.535C311.659 233.266 319.392 240.988 327.033 248.8C328.398 250.196 329.713 250.584 331.529 250.1C341.13 247.541 347.953 240.206 350.611 230.54C351.191 228.43 350.833 226.95 349.204 225.353C341.589 217.885 334.637 210.591 327.097 203.044C326.122 202.068 325.304 200.668 323.528 201.248ZM300.748 222.504C300.5 213.691 289.2 202.491 280.248 201.876C278.834 201.779 278.082 202.455 277.258 203.283C269.457 211.121 261.644 218.956 253.82 226.77C252.731 227.857 252.253 228.866 252.533 230.54C254.073 239.768 262.996 248.704 272.15 250.23C273.715 250.49 274.821 250.117 275.95 248.97C283.705 241.087 291.522 233.265 299.33 225.434C300.17 224.592 301.056 223.806 300.748 222.504ZM330.053 252.003C328.746 251.705 327.985 252.633 327.152 253.471C319.357 261.315 311.574 269.171 303.729 276.964C302.577 278.109 302.263 279.243 302.531 280.801C304.1 289.951 312.695 298.287 321.912 300.089C323.663 300.431 324.81 300.089 326.039 298.84C333.794 290.957 341.297 283.672 349.091 275.828C349.814 275.1 350.5 274.433 350.508 273.198C350.563 264.647 338.825 252.164 330.053 252.003ZM280.069 300.358C289.117 299.495 299.508 289.633 300.711 280.471C300.93 278.811 300.263 277.81 299.19 276.739C291.452 269.023 283.73 261.292 276.073 253.493C274.839 252.235 273.651 251.82 271.94 252.148C262.871 253.885 254.843 262.702 252.923 271.874C252.528 273.763 252.866 275.015 254.231 276.367C261.994 284.057 269.093 291.166 276.8 298.914C277.717 299.835 278.563 300.925 280.069 300.358ZM350.631 225.13C350.631 218.888 350.576 211.719 350.666 204.552C350.692 202.525 350.037 201.811 347.991 201.839C340.857 201.934 333.72 201.876 327.578 201.876C335.07 209.432 342.995 217.426 350.631 225.13ZM252.535 226.557C260.857 218.19 268.726 210.278 277.086 201.873C272.96 201.873 269.056 201.748 265.162 201.906C261.064 202.073 255.75 200.079 253.208 202.752C250.88 205.199 252.645 210.459 252.554 214.479C252.465 218.359 252.535 222.242 252.535 226.557ZM276.352 300.461C268.373 292.441 260.465 284.491 252.541 276.527C252.541 283.549 252.573 290.932 252.518 298.314C252.505 300.106 253.379 300.486 254.923 300.477C262.165 300.439 269.408 300.461 276.352 300.461ZM350.629 275.857C342.355 284.169 334.484 292.074 326.463 300.129C328.038 300.851 329.941 300.419 331.749 300.441C337.07 300.507 342.392 300.434 347.713 300.482C349.439 300.497 350.701 300.404 350.668 298.066C350.563 290.792 350.629 283.516 350.629 275.857ZM302.225 225.607C302.225 232.397 302.247 241.236 302.207 248.616C302.198 250.242 303.053 250.552 304.411 250.547C311.644 250.523 320.262 250.536 326.968 250.536C319.259 242.79 310.059 233.478 302.225 225.607ZM300.951 225.607C292.881 233.717 284.057 242.45 276.032 250.514C283.424 250.514 291.888 250.511 299.345 250.517C300.809 250.518 300.954 249.545 300.954 248.417C300.948 241.131 300.951 232.967 300.951 225.607ZM326.877 251.811C320.211 251.811 311.49 251.833 304.151 251.794C302.56 251.785 302.198 252.594 302.203 253.982C302.229 261.256 302.215 269.72 302.215 276.433C309.883 268.715 319.071 259.669 326.877 251.811ZM276.214 251.8C284.323 259.924 292.868 268.532 300.936 276.616C300.936 269.227 300.928 260.984 300.942 253.506C300.945 251.746 299.737 251.801 298.543 251.801C291.411 251.799 283.562 251.8 276.214 251.8ZM301.594 282.031C298.287 291.971 292.374 297.865 282.43 301.033H320.516C310.944 297.91 304.846 292.06 301.594 282.031ZM270.88 251.205C261 247.88 255.072 241.862 251.86 233.011V270.394C255.152 260.6 260.857 254.454 270.88 251.205Z" fill="url(#paint13_linear_21950_12475)"/>
<path fill-rule="evenodd" clip-rule="evenodd" d="M451.1 231.58C448.064 240.845 442.633 247.86 431.642 251.125C442.448 254.454 448.13 261.355 451.1 270.758V231.58ZM381.714 201.022C390.978 204.024 397.85 209.598 401.19 220.463C404.47 209.714 411.343 204.01 420.695 201.022H381.714ZM423.148 201.248C414.132 201.99 402.777 213.236 402.036 222.18C401.91 223.713 402.608 224.586 403.556 225.535C411.279 233.266 419.012 240.988 426.653 248.8C428.018 250.196 429.333 250.584 431.149 250.1C440.75 247.541 447.574 240.206 450.231 230.54C450.811 228.43 450.453 226.95 448.825 225.353C441.209 217.885 434.257 210.591 426.717 203.044C425.742 202.068 424.924 200.668 423.148 201.248ZM400.368 222.504C400.12 213.691 388.82 202.491 379.868 201.876C378.454 201.779 377.702 202.455 376.878 203.283C369.077 211.121 361.264 218.956 353.44 226.77C352.351 227.857 351.873 228.866 352.153 230.54C353.693 239.768 362.616 248.704 371.77 250.23C373.335 250.49 374.441 250.117 375.57 248.97C383.326 241.087 391.142 233.265 398.95 225.434C399.79 224.592 400.676 223.806 400.368 222.504ZM429.673 252.003C428.366 251.705 427.605 252.633 426.772 253.471C418.978 261.315 411.194 269.171 403.349 276.964C402.198 278.109 401.884 279.243 402.151 280.801C403.72 289.951 412.315 298.287 421.532 300.089C423.283 300.431 424.43 300.089 425.659 298.84C433.414 290.957 440.917 283.672 448.712 275.828C449.434 275.1 450.12 274.433 450.128 273.198C450.183 264.647 438.445 252.164 429.673 252.003ZM379.69 300.358C388.737 299.495 399.129 289.633 400.331 280.471C400.55 278.811 399.883 277.81 398.81 276.739C391.072 269.023 383.35 261.292 375.694 253.493C374.459 252.235 373.271 251.82 371.56 252.148C362.491 253.885 354.463 262.702 352.543 271.874C352.148 273.763 352.487 275.015 353.851 276.367C361.614 284.057 368.713 291.166 376.42 298.914C377.337 299.835 378.183 300.925 379.69 300.358ZM450.251 225.13C450.251 218.888 450.196 211.719 450.287 204.552C450.312 202.525 449.658 201.811 447.611 201.839C440.477 201.934 433.34 201.876 427.198 201.876C434.69 209.432 442.615 217.426 450.251 225.13ZM352.155 226.557C360.477 218.19 368.346 210.278 376.706 201.873C372.58 201.873 368.676 201.748 364.782 201.906C360.684 202.073 355.37 200.079 352.828 202.752C350.5 205.199 352.265 210.459 352.174 214.479C352.085 218.359 352.155 222.242 352.155 226.557ZM375.972 300.461C367.993 292.441 360.085 284.491 352.161 276.527C352.161 283.549 352.193 290.932 352.138 298.314C352.125 300.106 352.999 300.486 354.543 300.477C361.785 300.439 369.028 300.461 375.972 300.461ZM450.249 275.857C441.975 284.169 434.104 292.074 426.084 300.129C427.658 300.851 429.561 300.419 431.369 300.441C436.69 300.507 442.013 300.434 447.333 300.482C449.059 300.497 450.321 300.404 450.288 298.066C450.184 290.792 450.249 283.516 450.249 275.857ZM401.845 225.607C401.845 232.397 401.868 241.236 401.827 248.616C401.818 250.242 402.673 250.552 404.031 250.547C411.264 250.523 419.882 250.536 426.588 250.536C418.879 242.79 409.679 233.478 401.845 225.607ZM400.571 225.607C392.501 233.717 383.677 242.45 375.653 250.514C383.044 250.514 391.508 250.511 398.965 250.517C400.429 250.518 400.575 249.545 400.574 248.417C400.568 241.131 400.571 232.967 400.571 225.607ZM426.497 251.811C419.831 251.811 411.11 251.833 403.772 251.794C402.18 251.785 401.818 252.594 401.823 253.982C401.849 261.256 401.835 269.72 401.835 276.433C409.503 268.715 418.691 259.669 426.497 251.811ZM375.834 251.8C383.943 259.924 392.488 268.532 400.556 276.616C400.556 269.227 400.548 260.984 400.562 253.506C400.565 251.746 399.357 251.801 398.163 251.801C391.031 251.799 383.182 251.8 375.834 251.8ZM401.214 282.031C397.907 291.971 391.994 297.865 382.05 301.033H420.136C410.564 297.91 404.466 292.06 401.214 282.031ZM370.501 251.205C360.621 247.88 354.692 241.862 351.48 233.011V270.394C354.772 260.6 360.477 254.454 370.501 251.205Z" fill="url(#paint14_linear_21950_12475)"/>
<path fill-rule="evenodd" clip-rule="evenodd" d="M52.62 331.591C49.5837 340.856 44.1533 347.871 33.1617 351.136C43.9682 354.465 49.6504 361.366 52.62 370.769V331.591ZM-16.7664 301.033C-7.50224 304.035 -0.630424 309.609 2.70942 320.474C5.9896 309.725 12.8632 304.021 22.2151 301.033H-16.7664ZM24.668 301.259C15.6521 302.001 4.29643 313.247 3.556 322.191C3.42967 323.724 4.12799 324.597 5.07547 325.546C12.7991 333.277 20.5315 340.999 28.1727 348.811C29.5378 350.207 30.8529 350.595 32.6688 350.111C42.2699 347.552 49.0935 340.217 51.7508 330.551C52.3307 328.441 51.9727 326.961 50.3445 325.364C42.7287 317.896 35.7771 310.602 28.2368 303.055C27.2621 302.079 26.4436 300.679 24.668 301.259ZM1.88765 322.515C1.64025 313.702 -9.66011 302.502 -18.612 301.887C-20.0262 301.79 -20.778 302.466 -21.6018 303.294C-29.4026 311.132 -37.2158 318.967 -45.0403 326.781C-46.129 327.868 -46.6072 328.877 -46.3273 330.551C-44.7868 339.779 -35.8639 348.715 -26.7102 350.241C-25.1451 350.501 -24.0389 350.128 -22.9098 348.981C-15.1546 341.098 -7.33792 333.276 0.469952 325.445C1.30952 324.603 2.19558 323.817 1.88765 322.515ZM31.1933 352.014C29.8862 351.716 29.1247 352.644 28.2921 353.482C20.4974 361.326 12.7141 369.182 4.86939 376.975C3.71751 378.12 3.40343 379.254 3.671 380.812C5.23959 389.962 13.8353 398.298 23.0521 400.1C24.8032 400.442 25.9498 400.1 27.1789 398.851C34.9341 390.968 42.4367 383.683 50.2314 375.839C50.9543 375.111 51.6403 374.444 51.6482 373.209C51.7026 364.658 39.9654 352.175 31.1933 352.014ZM-18.7905 400.369C-9.74302 399.506 0.648479 389.644 1.85125 380.481C2.06969 378.822 1.40295 377.821 0.330029 376.75C-7.40767 369.034 -15.1304 361.303 -22.7865 353.504C-24.0209 352.246 -25.2087 351.831 -26.9203 352.159C-35.9889 353.895 -44.017 362.713 -45.9374 371.885C-46.3321 373.773 -45.9935 375.026 -44.6293 376.378C-36.8662 384.068 -29.7672 391.177 -22.0602 398.925C-21.1434 399.846 -20.2968 400.936 -18.7905 400.369ZM51.7714 325.141C51.7714 318.899 51.7161 311.73 51.8065 304.563C51.8319 302.536 51.1775 301.822 49.1307 301.85C41.9966 301.945 34.8599 301.887 28.718 301.887C36.21 309.443 44.1346 317.437 51.7714 325.141ZM-46.3254 326.568C-38.0034 318.201 -30.1341 310.289 -21.7744 301.884C-25.9003 301.884 -29.8043 301.759 -33.6977 301.917C-37.7964 302.084 -43.1101 300.09 -45.6516 302.763C-47.9799 305.21 -46.2148 310.47 -46.3061 314.49C-46.3947 318.37 -46.3254 322.253 -46.3254 326.568ZM-22.5077 400.471C-30.4866 392.452 -38.3954 384.502 -46.3191 376.538C-46.3191 383.56 -46.2875 390.943 -46.3419 398.325C-46.355 400.117 -45.4812 400.497 -43.9372 400.488C-36.6952 400.45 -29.4523 400.471 -22.5077 400.471ZM51.7693 375.868C43.4947 384.18 35.6237 392.085 27.6035 400.14C29.1782 400.862 31.081 400.43 32.8891 400.452C38.2099 400.518 43.5324 400.445 48.8532 400.493C50.5788 400.508 51.8412 400.415 51.8079 398.077C51.7035 390.803 51.7693 383.527 51.7693 375.868ZM3.36466 325.618C3.36466 332.408 3.38747 341.247 3.34711 348.627C3.33834 350.253 4.19283 350.563 5.55087 350.558C12.7841 350.534 21.4017 350.547 28.1077 350.547C20.399 342.801 11.1989 333.489 3.36466 325.618ZM2.09101 325.618C-5.97918 333.727 -14.803 342.461 -22.8275 350.525C-15.4364 350.525 -6.97227 350.522 0.484692 350.528C1.94889 350.529 2.09451 349.556 2.09364 348.428C2.08837 341.142 2.09101 332.978 2.09101 325.618ZM28.0168 351.822C21.3511 351.822 12.63 351.844 5.29146 351.805C3.70005 351.796 3.33773 352.605 3.34299 353.993C3.36931 361.267 3.35527 369.731 3.35527 376.444C11.0228 368.726 20.2106 359.68 28.0168 351.822ZM-22.6459 351.811C-14.5371 359.935 -5.99234 368.543 2.07609 376.627C2.07609 369.238 2.06821 360.995 2.08224 353.517C2.08487 351.757 0.87685 351.812 -0.317142 351.812C-7.44863 351.81 -15.2978 351.811 -22.6459 351.811ZM2.73363 382.042C-0.572876 391.982 -6.48581 397.876 -16.4299 401.044H21.6559C12.0838 397.921 5.98574 392.071 2.73363 382.042ZM-27.9795 351.216C-37.8595 347.891 -43.7882 341.873 -47 333.022V370.405C-43.7084 360.611 -38.0034 354.465 -27.9795 351.216Z" fill="url(#paint15_linear_21950_12475)"/>
<path fill-rule="evenodd" clip-rule="evenodd" d="M152.24 331.591C149.204 340.856 143.773 347.871 132.782 351.136C143.588 354.465 149.27 361.366 152.24 370.769V331.591ZM82.8536 301.033C92.1178 304.035 98.9896 309.609 102.329 320.474C105.61 309.725 112.483 304.021 121.835 301.033H82.8536ZM124.288 301.259C115.272 302.001 103.916 313.247 103.176 322.191C103.05 323.724 103.748 324.597 104.695 325.546C112.419 333.277 120.152 340.999 127.793 348.811C129.158 350.207 130.473 350.595 132.289 350.111C141.89 347.552 148.713 340.217 151.371 330.551C151.951 328.441 151.593 326.961 149.964 325.364C142.349 317.896 135.397 310.602 127.857 303.055C126.882 302.079 126.064 300.679 124.288 301.259ZM101.508 322.515C101.26 313.702 89.9599 302.502 81.008 301.887C79.5938 301.79 78.842 302.466 78.0182 303.294C70.2174 311.132 62.4042 318.967 54.5797 326.781C53.491 327.868 53.0128 328.877 53.2927 330.551C54.8332 339.779 63.7561 348.715 72.9098 350.241C74.4748 350.501 75.5811 350.128 76.7102 348.981C84.4654 341.098 92.2821 333.276 100.09 325.445C100.93 324.603 101.816 323.817 101.508 322.515ZM130.813 352.014C129.506 351.716 128.745 352.644 127.912 353.482C120.117 361.326 112.334 369.182 104.489 376.975C103.338 378.12 103.023 379.254 103.291 380.812C104.86 389.962 113.455 398.298 122.672 400.1C124.423 400.442 125.57 400.1 126.799 398.851C134.554 390.968 142.057 383.683 149.851 375.839C150.574 375.111 151.26 374.444 151.268 373.209C151.323 364.658 139.585 352.175 130.813 352.014ZM80.8295 400.369C89.877 399.506 100.268 389.644 101.471 380.481C101.69 378.822 101.023 377.821 99.95 376.75C92.2123 369.034 84.4896 361.303 76.8335 353.504C75.5991 352.246 74.4112 351.831 72.6997 352.159C63.6311 353.895 55.603 362.713 53.6826 371.885C53.2879 373.773 53.6265 375.026 54.9907 376.378C62.7538 384.068 69.8528 391.177 77.5598 398.925C78.4766 399.846 79.3232 400.936 80.8295 400.369ZM151.391 325.141C151.391 318.899 151.336 311.73 151.426 304.563C151.452 302.536 150.797 301.822 148.751 301.85C141.617 301.945 134.48 301.887 128.338 301.887C135.83 309.443 143.755 317.437 151.391 325.141ZM53.2946 326.568C61.6166 318.201 69.4859 310.289 77.8456 301.884C73.7197 301.884 69.8157 301.759 65.9223 301.917C61.8236 302.084 56.5099 300.09 53.9684 302.763C51.64 305.21 53.4052 310.47 53.3139 314.49C53.2253 318.37 53.2946 322.253 53.2946 326.568ZM77.1123 400.471C69.1334 392.452 61.2246 384.502 53.3009 376.538C53.3009 383.56 53.3325 390.943 53.2781 398.325C53.265 400.117 54.1388 400.497 55.6828 400.488C62.9248 400.45 70.1677 400.471 77.1123 400.471ZM151.389 375.868C143.115 384.18 135.244 392.085 127.223 400.14C128.798 400.862 130.701 400.43 132.509 400.452C137.83 400.518 143.152 400.445 148.473 400.493C150.199 400.508 151.461 400.415 151.428 398.077C151.323 390.803 151.389 383.527 151.389 375.868ZM102.985 325.618C102.985 332.408 103.007 341.247 102.967 348.627C102.958 350.253 103.813 350.563 105.171 350.558C112.404 350.534 121.022 350.547 127.728 350.547C120.019 342.801 110.819 333.489 102.985 325.618ZM101.711 325.618C93.6408 333.727 84.817 342.461 76.7925 350.525C84.1836 350.525 92.6477 350.522 100.105 350.528C101.569 350.529 101.715 349.556 101.714 348.428C101.708 341.142 101.711 332.978 101.711 325.618ZM127.637 351.822C120.971 351.822 112.25 351.844 104.911 351.805C103.32 351.796 102.958 352.605 102.963 353.993C102.989 361.267 102.975 369.731 102.975 376.444C110.643 368.726 119.831 359.68 127.637 351.822ZM76.9741 351.811C85.0828 359.935 93.6277 368.543 101.696 376.627C101.696 369.238 101.688 360.995 101.702 353.517C101.705 351.757 100.497 351.812 99.3029 351.812C92.1714 351.81 84.3222 351.811 76.9741 351.811ZM102.354 382.042C99.0471 391.982 93.1342 397.876 83.1901 401.044H121.276C111.704 397.921 105.606 392.071 102.354 382.042ZM71.6405 351.216C61.7605 347.891 55.8317 341.873 52.62 333.022V370.405C55.9116 360.611 61.6166 354.465 71.6405 351.216Z" fill="url(#paint16_linear_21950_12475)"/>
<path fill-rule="evenodd" clip-rule="evenodd" d="M251.86 331.591C248.824 340.856 243.393 347.871 232.402 351.136C243.208 354.465 248.89 361.366 251.86 370.769V331.591ZM182.474 301.033C191.738 304.035 198.61 309.609 201.95 320.474C205.23 309.725 212.103 304.021 221.455 301.033H182.474ZM223.908 301.259C214.892 302.001 203.537 313.247 202.796 322.191C202.67 323.724 203.368 324.597 204.316 325.546C212.039 333.277 219.772 340.999 227.413 348.811C228.778 350.207 230.093 350.595 231.909 350.111C241.51 347.552 248.334 340.217 250.991 330.551C251.571 328.441 251.213 326.961 249.585 325.364C241.969 317.896 235.017 310.602 227.477 303.055C226.502 302.079 225.684 300.679 223.908 301.259ZM201.128 322.515C200.88 313.702 189.58 302.502 180.628 301.887C179.214 301.79 178.462 302.466 177.638 303.294C169.837 311.132 162.024 318.967 154.2 326.781C153.111 327.868 152.633 328.877 152.913 330.551C154.453 339.779 163.376 348.715 172.53 350.241C174.095 350.501 175.201 350.128 176.33 348.981C184.086 341.098 191.902 333.276 199.71 325.445C200.55 324.603 201.436 323.817 201.128 322.515ZM230.433 352.014C229.126 351.716 228.365 352.644 227.532 353.482C219.738 361.326 211.954 369.182 204.11 376.975C202.958 378.12 202.644 379.254 202.911 380.812C204.48 389.962 213.075 398.298 222.292 400.1C224.043 400.442 225.19 400.1 226.419 398.851C234.174 390.968 241.677 383.683 249.472 375.839C250.194 375.111 250.88 374.444 250.888 373.209C250.943 364.658 239.205 352.175 230.433 352.014ZM180.45 400.369C189.497 399.506 199.889 389.644 201.091 380.481C201.31 378.822 200.643 377.821 199.57 376.75C191.832 369.034 184.11 361.303 176.454 353.504C175.219 352.246 174.031 351.831 172.32 352.159C163.251 353.895 155.223 362.713 153.303 371.885C152.908 373.773 153.247 375.026 154.611 376.378C162.374 384.068 169.473 391.177 177.18 398.925C178.097 399.846 178.943 400.936 180.45 400.369ZM251.011 325.141C251.011 318.899 250.956 311.73 251.047 304.563C251.072 302.536 250.418 301.822 248.371 301.85C241.237 301.945 234.1 301.887 227.958 301.887C235.45 309.443 243.375 317.437 251.011 325.141ZM152.915 326.568C161.237 318.201 169.106 310.289 177.466 301.884C173.34 301.884 169.436 301.759 165.542 301.917C161.444 302.084 156.13 300.09 153.588 302.763C151.26 305.21 153.025 310.47 152.934 314.49C152.845 318.37 152.915 322.253 152.915 326.568ZM176.732 400.471C168.754 392.452 160.845 384.502 152.921 376.538C152.921 383.56 152.953 390.943 152.898 398.325C152.885 400.117 153.759 400.497 155.303 400.488C162.545 400.45 169.788 400.471 176.732 400.471ZM251.009 375.868C242.735 384.18 234.864 392.085 226.844 400.14C228.418 400.862 230.321 400.43 232.129 400.452C237.45 400.518 242.773 400.445 248.093 400.493C249.819 400.508 251.081 400.415 251.048 398.077C250.944 390.803 251.009 383.527 251.009 375.868ZM202.605 325.618C202.605 332.408 202.628 341.247 202.587 348.627C202.578 350.253 203.433 350.563 204.791 350.558C212.024 350.534 220.642 350.547 227.348 350.547C219.639 342.801 210.439 333.489 202.605 325.618ZM201.331 325.618C193.261 333.727 184.437 342.461 176.413 350.525C183.804 350.525 192.268 350.522 199.725 350.528C201.189 350.529 201.335 349.556 201.334 348.428C201.328 341.142 201.331 332.978 201.331 325.618ZM227.257 351.822C220.591 351.822 211.87 351.844 204.532 351.805C202.94 351.796 202.578 352.605 202.583 353.993C202.609 361.267 202.595 369.731 202.595 376.444C210.263 368.726 219.451 359.68 227.257 351.822ZM176.594 351.811C184.703 359.935 193.248 368.543 201.316 376.627C201.316 369.238 201.308 360.995 201.322 353.517C201.325 351.757 200.117 351.812 198.923 351.812C191.791 351.81 183.942 351.811 176.594 351.811ZM201.974 382.042C198.667 391.982 192.754 397.876 182.81 401.044H220.896C211.324 397.921 205.226 392.071 201.974 382.042ZM171.261 351.216C161.381 347.891 155.452 341.873 152.24 333.022V370.405C155.532 360.611 161.237 354.465 171.261 351.216Z" fill="url(#paint17_linear_21950_12475)"/>
<path fill-rule="evenodd" clip-rule="evenodd" d="M351.48 331.591C348.444 340.856 343.013 347.871 332.022 351.136C342.828 354.465 348.51 361.366 351.48 370.769V331.591ZM282.094 301.033C291.358 304.035 298.23 309.609 301.569 320.474C304.85 309.725 311.723 304.021 321.075 301.033H282.094ZM323.528 301.259C314.512 302.001 303.156 313.247 302.416 322.191C302.29 323.724 302.988 324.597 303.935 325.546C311.659 333.277 319.392 340.999 327.033 348.811C328.398 350.207 329.713 350.595 331.529 350.111C341.13 347.552 347.953 340.217 350.611 330.551C351.191 328.441 350.833 326.961 349.204 325.364C341.589 317.896 334.637 310.602 327.097 303.055C326.122 302.079 325.304 300.679 323.528 301.259ZM300.748 322.515C300.5 313.702 289.2 302.502 280.248 301.887C278.834 301.79 278.082 302.466 277.258 303.294C269.457 311.132 261.644 318.967 253.82 326.781C252.731 327.868 252.253 328.877 252.533 330.551C254.073 339.779 262.996 348.715 272.15 350.241C273.715 350.501 274.821 350.128 275.95 348.981C283.705 341.098 291.522 333.276 299.33 325.445C300.17 324.603 301.056 323.817 300.748 322.515ZM330.053 352.014C328.746 351.716 327.985 352.644 327.152 353.482C319.357 361.326 311.574 369.182 303.729 376.975C302.577 378.12 302.263 379.254 302.531 380.812C304.1 389.962 312.695 398.298 321.912 400.1C323.663 400.442 324.81 400.1 326.039 398.851C333.794 390.968 341.297 383.683 349.091 375.839C349.814 375.111 350.5 374.444 350.508 373.209C350.563 364.658 338.825 352.175 330.053 352.014ZM280.069 400.369C289.117 399.506 299.508 389.644 300.711 380.481C300.93 378.822 300.263 377.821 299.19 376.75C291.452 369.034 283.73 361.303 276.073 353.504C274.839 352.246 273.651 351.831 271.94 352.159C262.871 353.895 254.843 362.713 252.923 371.885C252.528 373.773 252.866 375.026 254.231 376.378C261.994 384.068 269.093 391.177 276.8 398.925C277.717 399.846 278.563 400.936 280.069 400.369ZM350.631 325.141C350.631 318.899 350.576 311.73 350.666 304.563C350.692 302.536 350.037 301.822 347.991 301.85C340.857 301.945 333.72 301.887 327.578 301.887C335.07 309.443 342.995 317.437 350.631 325.141ZM252.535 326.568C260.857 318.201 268.726 310.289 277.086 301.884C272.96 301.884 269.056 301.759 265.162 301.917C261.064 302.084 255.75 300.09 253.208 302.763C250.88 305.21 252.645 310.47 252.554 314.49C252.465 318.37 252.535 322.253 252.535 326.568ZM276.352 400.471C268.373 392.452 260.465 384.502 252.541 376.538C252.541 383.56 252.573 390.943 252.518 398.325C252.505 400.117 253.379 400.497 254.923 400.488C262.165 400.45 269.408 400.471 276.352 400.471ZM350.629 375.868C342.355 384.18 334.484 392.085 326.463 400.14C328.038 400.862 329.941 400.43 331.749 400.452C337.07 400.518 342.392 400.445 347.713 400.493C349.439 400.508 350.701 400.415 350.668 398.077C350.563 390.803 350.629 383.527 350.629 375.868ZM302.225 325.618C302.225 332.408 302.247 341.247 302.207 348.627C302.198 350.253 303.053 350.563 304.411 350.558C311.644 350.534 320.262 350.547 326.968 350.547C319.259 342.801 310.059 333.489 302.225 325.618ZM300.951 325.618C292.881 333.727 284.057 342.461 276.032 350.525C283.424 350.525 291.888 350.522 299.345 350.528C300.809 350.529 300.954 349.556 300.954 348.428C300.948 341.142 300.951 332.978 300.951 325.618ZM326.877 351.822C320.211 351.822 311.49 351.844 304.151 351.805C302.56 351.796 302.198 352.605 302.203 353.993C302.229 361.267 302.215 369.731 302.215 376.444C309.883 368.726 319.071 359.68 326.877 351.822ZM276.214 351.811C284.323 359.935 292.868 368.543 300.936 376.627C300.936 369.238 300.928 360.995 300.942 353.517C300.945 351.757 299.737 351.812 298.543 351.812C291.411 351.81 283.562 351.811 276.214 351.811ZM301.594 382.042C298.287 391.982 292.374 397.876 282.43 401.044H320.516C310.944 397.921 304.846 392.071 301.594 382.042ZM270.88 351.216C261 347.891 255.072 341.873 251.86 333.022V370.405C255.152 360.611 260.857 354.465 270.88 351.216Z" fill="url(#paint18_linear_21950_12475)"/>
<path fill-rule="evenodd" clip-rule="evenodd" d="M451.1 331.591C448.064 340.856 442.633 347.871 431.642 351.136C442.448 354.465 448.13 361.366 451.1 370.769V331.591ZM381.714 301.033C390.978 304.035 397.85 309.609 401.19 320.474C404.47 309.725 411.343 304.021 420.695 301.033H381.714ZM423.148 301.259C414.132 302.001 402.777 313.247 402.036 322.191C401.91 323.724 402.608 324.597 403.556 325.546C411.279 333.277 419.012 340.999 426.653 348.811C428.018 350.207 429.333 350.595 431.149 350.111C440.75 347.552 447.574 340.217 450.231 330.551C450.811 328.441 450.453 326.961 448.825 325.364C441.209 317.896 434.257 310.602 426.717 303.055C425.742 302.079 424.924 300.679 423.148 301.259ZM400.368 322.515C400.12 313.702 388.82 302.502 379.868 301.887C378.454 301.79 377.702 302.466 376.878 303.294C369.077 311.132 361.264 318.967 353.44 326.781C352.351 327.868 351.873 328.877 352.153 330.551C353.693 339.779 362.616 348.715 371.77 350.241C373.335 350.501 374.441 350.128 375.57 348.981C383.326 341.098 391.142 333.276 398.95 325.445C399.79 324.603 400.676 323.817 400.368 322.515ZM429.673 352.014C428.366 351.716 427.605 352.644 426.772 353.482C418.978 361.326 411.194 369.182 403.349 376.975C402.198 378.12 401.884 379.254 402.151 380.812C403.72 389.962 412.315 398.298 421.532 400.1C423.283 400.442 424.43 400.1 425.659 398.851C433.414 390.968 440.917 383.683 448.712 375.839C449.434 375.111 450.12 374.444 450.128 373.209C450.183 364.658 438.445 352.175 429.673 352.014ZM379.69 400.369C388.737 399.506 399.129 389.644 400.331 380.481C400.55 378.822 399.883 377.821 398.81 376.75C391.072 369.034 383.35 361.303 375.694 353.504C374.459 352.246 373.271 351.831 371.56 352.159C362.491 353.895 354.463 362.713 352.543 371.885C352.148 373.773 352.487 375.026 353.851 376.378C361.614 384.068 368.713 391.177 376.42 398.925C377.337 399.846 378.183 400.936 379.69 400.369ZM450.251 325.141C450.251 318.899 450.196 311.73 450.287 304.563C450.312 302.536 449.658 301.822 447.611 301.85C440.477 301.945 433.34 301.887 427.198 301.887C434.69 309.443 442.615 317.437 450.251 325.141ZM352.155 326.568C360.477 318.201 368.346 310.289 376.706 301.884C372.58 301.884 368.676 301.759 364.782 301.917C360.684 302.084 355.37 300.09 352.828 302.763C350.5 305.21 352.265 310.47 352.174 314.49C352.085 318.37 352.155 322.253 352.155 326.568ZM375.972 400.471C367.993 392.452 360.085 384.502 352.161 376.538C352.161 383.56 352.193 390.943 352.138 398.325C352.125 400.117 352.999 400.497 354.543 400.488C361.785 400.45 369.028 400.471 375.972 400.471ZM450.249 375.868C441.975 384.18 434.104 392.085 426.084 400.14C427.658 400.862 429.561 400.43 431.369 400.452C436.69 400.518 442.013 400.445 447.333 400.493C449.059 400.508 450.321 400.415 450.288 398.077C450.184 390.803 450.249 383.527 450.249 375.868ZM401.845 325.618C401.845 332.408 401.868 341.247 401.827 348.627C401.818 350.253 402.673 350.563 404.031 350.558C411.264 350.534 419.882 350.547 426.588 350.547C418.879 342.801 409.679 333.489 401.845 325.618ZM400.571 325.618C392.501 333.727 383.677 342.461 375.653 350.525C383.044 350.525 391.508 350.522 398.965 350.528C400.429 350.529 400.575 349.556 400.574 348.428C400.568 341.142 400.571 332.978 400.571 325.618ZM426.497 351.822C419.831 351.822 411.11 351.844 403.772 351.805C402.18 351.796 401.818 352.605 401.823 353.993C401.849 361.267 401.835 369.731 401.835 376.444C409.503 368.726 418.691 359.68 426.497 351.822ZM375.834 351.811C383.943 359.935 392.488 368.543 400.556 376.627C400.556 369.238 400.548 360.995 400.562 353.517C400.565 351.757 399.357 351.812 398.163 351.812C391.031 351.81 383.182 351.811 375.834 351.811ZM401.214 382.042C397.907 391.982 391.994 397.876 382.05 401.044H420.136C410.564 397.921 404.466 392.071 401.214 382.042ZM370.501 351.216C360.621 347.891 354.692 341.873 351.48 333.022V370.405C354.772 360.611 360.477 354.465 370.501 351.216Z" fill="url(#paint19_linear_21950_12475)"/>
</g>
<defs>
<linearGradient id="paint0_linear_21950_12475" x1="2.80999" y1="1" x2="2.80999" y2="101.011" gradientUnits="userSpaceOnUse">
<stop stop-color="#191B22"/>
<stop offset="1" stop-color="#181A21"/>
</linearGradient>
<linearGradient id="paint1_linear_21950_12475" x1="102.43" y1="1" x2="102.43" y2="101.011" gradientUnits="userSpaceOnUse">
<stop stop-color="#191B22"/>
<stop offset="1" stop-color="#181A21"/>
</linearGradient>
<linearGradient id="paint2_linear_21950_12475" x1="202.05" y1="1" x2="202.05" y2="101.011" gradientUnits="userSpaceOnUse">
<stop stop-color="#191B22"/>
<stop offset="1" stop-color="#181A21"/>
</linearGradient>
<linearGradient id="paint3_linear_21950_12475" x1="301.67" y1="1" x2="301.67" y2="101.011" gradientUnits="userSpaceOnUse">
<stop stop-color="#191B22"/>
<stop offset="1" stop-color="#181A21"/>
</linearGradient>
<linearGradient id="paint4_linear_21950_12475" x1="401.29" y1="1" x2="401.29" y2="101.011" gradientUnits="userSpaceOnUse">
<stop stop-color="#191B22"/>
<stop offset="1" stop-color="#181A21"/>
</linearGradient>
<linearGradient id="paint5_linear_21950_12475" x1="2.80999" y1="101.011" x2="2.80999" y2="201.022" gradientUnits="userSpaceOnUse">
<stop stop-color="#181A21"/>
<stop offset="1" stop-color="#181A20"/>
</linearGradient>
<linearGradient id="paint6_linear_21950_12475" x1="102.43" y1="101.011" x2="102.43" y2="201.022" gradientUnits="userSpaceOnUse">
<stop stop-color="#181A21"/>
<stop offset="1" stop-color="#181A20"/>
</linearGradient>
<linearGradient id="paint7_linear_21950_12475" x1="202.05" y1="101.011" x2="202.05" y2="201.022" gradientUnits="userSpaceOnUse">
<stop stop-color="#181A21"/>
<stop offset="1" stop-color="#181A20"/>
</linearGradient>
<linearGradient id="paint8_linear_21950_12475" x1="301.67" y1="101.011" x2="301.67" y2="201.022" gradientUnits="userSpaceOnUse">
<stop stop-color="#181A21"/>
<stop offset="1" stop-color="#181A20"/>
</linearGradient>
<linearGradient id="paint9_linear_21950_12475" x1="401.29" y1="101.011" x2="401.29" y2="201.022" gradientUnits="userSpaceOnUse">
<stop stop-color="#181A21"/>
<stop offset="1" stop-color="#181A20"/>
</linearGradient>
<linearGradient id="paint10_linear_21950_12475" x1="2.80999" y1="201.022" x2="2.80999" y2="301.033" gradientUnits="userSpaceOnUse">
<stop stop-color="#181A20"/>
<stop offset="1" stop-color="#17191F"/>
</linearGradient>
<linearGradient id="paint11_linear_21950_12475" x1="102.43" y1="201.022" x2="102.43" y2="301.033" gradientUnits="userSpaceOnUse">
<stop stop-color="#181A20"/>
<stop offset="1" stop-color="#17191F"/>
</linearGradient>
<linearGradient id="paint12_linear_21950_12475" x1="202.05" y1="201.022" x2="202.05" y2="301.033" gradientUnits="userSpaceOnUse">
<stop stop-color="#181A20"/>
<stop offset="1" stop-color="#17191F"/>
</linearGradient>
<linearGradient id="paint13_linear_21950_12475" x1="301.67" y1="201.022" x2="301.67" y2="301.033" gradientUnits="userSpaceOnUse">
<stop stop-color="#181A20"/>
<stop offset="1" stop-color="#17191F"/>
</linearGradient>
<linearGradient id="paint14_linear_21950_12475" x1="401.29" y1="201.022" x2="401.29" y2="301.033" gradientUnits="userSpaceOnUse">
<stop stop-color="#181A20"/>
<stop offset="1" stop-color="#17191F"/>
</linearGradient>
<linearGradient id="paint15_linear_21950_12475" x1="2.80999" y1="301.033" x2="2.80999" y2="401.044" gradientUnits="userSpaceOnUse">
<stop stop-color="#17191F"/>
<stop offset="1" stop-color="#16181E"/>
</linearGradient>
<linearGradient id="paint16_linear_21950_12475" x1="102.43" y1="301.033" x2="102.43" y2="401.044" gradientUnits="userSpaceOnUse">
<stop stop-color="#17191F"/>
<stop offset="1" stop-color="#16181E"/>
</linearGradient>
<linearGradient id="paint17_linear_21950_12475" x1="202.05" y1="301.033" x2="202.05" y2="401.044" gradientUnits="userSpaceOnUse">
<stop stop-color="#17191F"/>
<stop offset="1" stop-color="#16181E"/>
</linearGradient>
<linearGradient id="paint18_linear_21950_12475" x1="301.67" y1="301.033" x2="301.67" y2="401.044" gradientUnits="userSpaceOnUse">
<stop stop-color="#17191F"/>
<stop offset="1" stop-color="#16181E"/>
</linearGradient>
<linearGradient id="paint19_linear_21950_12475" x1="401.29" y1="301.033" x2="401.29" y2="401.044" gradientUnits="userSpaceOnUse">
<stop stop-color="#17191F"/>
<stop offset="1" stop-color="#16181E"/>
</linearGradient>
<clipPath id="clip0_21950_12475">
<rect width="375" height="402" fill="white"/>
</clipPath>
</defs>
</svg>
