<svg xmlns="http://www.w3.org/2000/svg" width="46" height="40" viewBox="0 0 46 40" fill="none">
<g clip-path="url(#clip0_20960_8942)">
<path d="M27 6H15C10.5817 6 7 9.58172 7 14V26C7 30.4183 10.5817 34 15 34H27C31.4183 34 35 30.4183 35 26V14C35 9.58172 31.4183 6 27 6Z" fill="#39BD3D"/>
<g style="mix-blend-mode:hard-light">
<path fill-rule="evenodd" clip-rule="evenodd" d="M27.4539 19.8943C29.8078 17.5348 32.1171 15.2198 34.4266 12.9051C34.9025 12.4281 35.4153 12.0384 36.1336 12.0036C37.0955 11.9566 37.7961 12.3734 38.2302 13.2005C38.6697 14.0374 38.5865 14.8678 37.9616 15.5885C37.5163 16.1024 37.0201 16.5723 36.539 17.0546C34.0787 19.5221 31.616 21.9875 29.1539 24.4532C28.0562 25.5523 26.8349 25.575 25.728 24.4829C24.2176 22.9926 22.7268 21.4823 21.2264 19.982C21.0919 19.8475 20.9476 19.7226 20.7818 19.5689C20.6052 19.7364 20.4495 19.8772 20.3017 20.0255C18.8048 21.5295 17.3131 23.0387 15.8111 24.5376C15.1528 25.1947 14.3625 25.4588 13.4637 25.1413C12.5784 24.8288 12.0014 24.1685 12 23.2317C11.9991 22.6935 12.1684 22.0081 12.5215 21.6397C14.771 19.2938 17.0784 17.0027 19.3991 14.7268C20.2132 13.9282 21.4921 14.007 22.3471 14.8449C23.9042 16.3707 25.4426 17.9159 26.9897 19.4524C27.1258 19.5876 27.2678 19.7174 27.4539 19.8943Z" fill="#011474"/>
</g>
</g>
<defs>
<clipPath id="clip0_20960_8942">
<rect width="32" height="28" fill="white" transform="translate(7 6)"/>
</clipPath>
</defs>
</svg>