<svg width="40" height="40" viewBox="0 0 40 40" fill="none" xmlns="http://www.w3.org/2000/svg">
<g clip-path="url(#clip0_20928_8537)">
<g style="mix-blend-mode:difference">
<path fill-rule="evenodd" clip-rule="evenodd" d="M17.0024 10.9273L22.9584 17.0206C24.4777 18.575 24.4777 21.0582 22.9584 22.6126L17.0024 28.706C15.4583 30.2858 12.9258 30.3147 11.346 28.7705C11.3242 28.7492 11.3027 28.7277 11.2814 28.706L5.32552 22.6126C3.80619 21.0582 3.80619 18.575 5.32552 17.0206L11.2814 10.9273C12.8256 9.34747 15.3581 9.31858 16.9379 10.8628C16.9597 10.884 16.9812 10.9055 17.0024 10.9273Z" fill="#294CFF"/>
</g>
<g style="mix-blend-mode:difference">
<path fill-rule="evenodd" clip-rule="evenodd" d="M17.7326 17.2362L23.6886 11.1429C25.2327 9.56308 27.7652 9.53419 29.3451 11.0784C29.3668 11.0996 29.3883 11.1211 29.4096 11.1429C29.4308 11.1646 35.3655 17.2363 35.3655 17.2363C36.8848 18.7906 36.8848 21.2738 35.3655 22.8282L29.4096 28.9216C27.8654 30.5014 25.3329 30.5303 23.7531 28.9861C23.7313 28.9648 23.7098 28.9433 23.6886 28.9216L17.7326 22.8282C16.2133 21.2738 16.2133 18.7906 17.7326 17.2362Z" fill="#294CFF"/>
</g>
</g>
<defs>
<clipPath id="clip0_20928_8537">
<rect width="33" height="21" fill="white" transform="translate(3.5 9.5)"/>
</clipPath>
</defs>
</svg>
