<svg width="122" height="40" viewBox="0 0 122 40" fill="none" xmlns="http://www.w3.org/2000/svg">
<path fill-rule="evenodd" clip-rule="evenodd" d="M58.18 18.224C58.18 20.704 56.628 22.304 52.868 22.304H50.868V26H47.844V14H52.868C56.628 14 58.18 15.488 58.18 18.224ZM55.076 18.208C55.076 16.816 54.468 16.384 52.868 16.384H50.868V20.032H52.868C54.404 20.032 55.076 19.664 55.076 18.208ZM62.46 26H59.708V16.4L61.9 16.272L62.172 18H62.22C62.892 16.784 63.98 16.144 65.292 16.144C65.772 16.144 66.188 16.224 66.476 16.32L66.316 18.896C65.964 18.768 65.532 18.704 65.084 18.704C63.58 18.704 62.46 19.712 62.46 21.376V26ZM77.332 21.2C77.332 24.56 75.812 26.24 72.228 26.24C68.66 26.24 67.108 24.56 67.108 21.2C67.108 17.84 68.66 16.128 72.228 16.128C75.812 16.128 77.332 17.84 77.332 21.2ZM69.956 21.184C69.956 23.36 70.58 24.064 72.228 24.064C73.86 24.064 74.452 23.344 74.452 21.184C74.452 19.024 73.86 18.32 72.228 18.32C70.58 18.32 69.956 19.024 69.956 21.184ZM86.188 16.608L86.044 18.848C85.42 18.64 84.7 18.496 84.028 18.496C81.932 18.496 81.244 19.312 81.244 21.168C81.244 23.104 82.268 23.936 83.98 23.936C84.764 23.936 85.5 23.776 86.108 23.52L86.3 25.568C85.644 25.952 84.636 26.208 83.356 26.208C80.108 26.208 78.396 24.448 78.396 21.184C78.396 18.08 79.884 16.16 83.436 16.16C84.396 16.16 85.452 16.336 86.188 16.608ZM97.284 21.2C97.284 24.56 95.764 26.24 92.18 26.24C88.612 26.24 87.06 24.56 87.06 21.2C87.06 17.84 88.612 16.128 92.18 16.128C95.764 16.128 97.284 17.84 97.284 21.2ZM89.908 21.184C89.908 23.36 90.532 24.064 92.18 24.064C93.812 24.064 94.404 23.344 94.404 21.184C94.404 19.024 93.812 18.32 92.18 18.32C90.532 18.32 89.908 19.024 89.908 21.184ZM108.572 21.2C108.572 24.56 107.052 26.24 103.468 26.24C99.9 26.24 98.348 24.56 98.348 21.2C98.348 17.84 99.9 16.128 103.468 16.128C107.052 16.128 108.572 17.84 108.572 21.2ZM101.196 21.184C101.196 23.36 101.82 24.064 103.468 24.064C105.1 24.064 105.692 23.344 105.692 21.184C105.692 19.024 105.1 18.32 103.468 18.32C101.82 18.32 101.196 19.024 101.196 21.184ZM112.916 26H110.164V16.4L112.356 16.272L112.628 18H112.676C113.348 16.784 114.436 16.144 115.748 16.144C116.228 16.144 116.644 16.224 116.932 16.32L116.772 18.896C116.42 18.768 115.988 18.704 115.54 18.704C114.036 18.704 112.916 19.712 112.916 21.376V26Z" fill="#333B52"/>
<path fill-rule="evenodd" clip-rule="evenodd" d="M15.502 24.6138C12.1898 21.2735 13.4183 15.4052 17.7778 13.7233C20.731 12.5842 23.4451 13.2808 25.6996 15.757C27.4186 17.6455 27.7882 20.7109 26.4741 23.2009C26.0252 24.052 25.3502 24.8045 24.6811 25.5095C24.0031 26.2239 23.8783 26.1358 22.29 24.5269C21.7796 24.0101 21.2939 23.5503 22.0706 22.8587C23.0797 21.9607 23.7255 20.882 23.4219 19.4501C23.1286 18.0694 22.1581 17.173 20.7765 16.9673C19.6115 16.7938 18.3774 17.4105 17.7773 18.466C17.1282 19.6087 17.1864 20.9897 18.1274 21.9681C20.3253 24.2527 22.5806 26.4833 24.8603 28.6866C25.0703 28.8898 25.7239 28.9052 25.9945 28.7323C29.2482 26.6563 30.931 23.6234 30.7877 19.7767C30.4935 11.8687 22.4754 7.54715 15.9027 10.7884C10.1061 13.647 8.72231 20.615 11.8451 25.4675C12.6909 26.782 13.7482 27.8537 15.0575 28.6994C15.525 29.0015 15.9211 29.0718 16.3089 28.614C16.7767 28.0611 17.2156 28.1858 17.6806 28.6542C19.862 30.85 19.7757 30.3553 17.813 32.4522C17.0283 33.2908 16.3638 33.4616 15.2546 32.9946C7.45325 29.7113 3.92195 20.5487 8.19559 13.2995C12.7359 5.59783 21.0844 3.76187 28.3677 8.47916C35.2066 12.9088 36.4943 22.7006 31.307 28.9075C29.7238 30.802 27.81 32.1568 25.5728 33.1267C24.8031 33.4606 24.2111 33.4016 23.586 32.7305C22.2387 31.2845 20.8047 29.9194 19.4066 28.5208C18.1049 27.2184 16.798 25.9213 15.502 24.6138Z" fill="#294CFF"/>
</svg>
