<svg width="41" height="40" viewBox="0 0 41 40" fill="none" xmlns="http://www.w3.org/2000/svg">
<path fill-rule="evenodd" clip-rule="evenodd" d="M20.4911 33.3008C19.8954 33.3184 19.3518 33.1431 18.8317 32.8673C14.3006 30.4653 9.76873 28.0652 5.23671 25.6651C4.88808 25.4806 4.66381 25.2139 4.6667 24.8005C4.66948 24.4007 4.87985 24.1405 5.22368 23.9583C9.77023 21.5476 14.3142 19.1322 18.861 16.7219C19.9983 16.1191 21.13 16.175 22.2559 16.7743C26.1779 18.8616 30.1022 20.9444 34.0254 23.029C34.6073 23.3382 35.1862 23.6528 35.7715 23.955C36.128 24.1391 36.339 24.4111 36.3332 24.8212C36.3276 25.2199 36.1096 25.4824 35.7694 25.6625C31.2452 28.0582 26.7212 30.4545 22.1981 32.8525C21.6623 33.1365 21.1037 33.323 20.4911 33.3008Z" fill="#37CC3A"/>
<g style="mix-blend-mode:multiply">
<path fill-rule="evenodd" clip-rule="evenodd" d="M20.4911 24.5044C19.8954 24.522 19.3518 24.3467 18.8317 24.0709C14.3006 21.669 9.76873 19.2688 5.23671 16.8687C4.88808 16.6842 4.66381 16.4175 4.6667 16.0041C4.66948 15.6043 4.87985 15.3442 5.22368 15.1619C9.77023 12.7512 14.3142 10.3358 18.861 7.92555C19.9983 7.32269 21.13 7.37859 22.2559 7.97791C26.1779 10.0652 30.1022 12.148 34.0254 14.2326C34.6073 14.5418 35.1862 14.8564 35.7715 15.1587C36.128 15.3428 36.339 15.6147 36.3332 16.0248C36.3276 16.4235 36.1096 16.686 35.7694 16.8662C31.2452 19.2618 26.7212 21.6581 22.1981 24.0561C21.6623 24.3401 21.1037 24.5266 20.4911 24.5044Z" fill="#294CFF"/>
</g>
</svg>
