<svg width="40" height="40" viewBox="0 0 40 40" fill="none" xmlns="http://www.w3.org/2000/svg">
<g style="mix-blend-mode:difference">
<path fill-rule="evenodd" clip-rule="evenodd" d="M19.9921 31.4983C19.4654 31.514 18.9848 31.3577 18.5249 31.1119C14.5185 28.9708 10.5113 26.8314 6.50404 24.692C6.19577 24.5275 5.99747 24.2897 6.00002 23.9213C6.00248 23.5649 6.1885 23.333 6.49251 23.1705C10.5126 21.0217 14.5305 18.8686 18.5507 16.7201C19.5564 16.1828 20.5571 16.2326 21.5526 16.7668C25.0204 18.6274 28.4903 20.484 31.9593 22.3422C32.4738 22.6178 32.9857 22.8982 33.5033 23.1676C33.8184 23.3318 34.005 23.5742 33.9999 23.9397C33.9949 24.2951 33.8022 24.5291 33.5014 24.6897C29.501 26.8252 25.5008 28.9612 21.5015 31.0987C21.0277 31.3519 20.5338 31.5181 19.9921 31.4983Z" fill="#294CFF"/>
</g>
<g style="mix-blend-mode:difference">
<path fill-rule="evenodd" clip-rule="evenodd" d="M19.9921 23.6575C19.4654 23.6732 18.9848 23.5169 18.5249 23.2711C14.5185 21.13 10.5113 18.9906 6.50404 16.8512C6.19577 16.6867 5.99747 16.4489 6.00002 16.0804C6.00248 15.7241 6.1885 15.4922 6.49251 15.3297C10.5126 13.1808 14.5305 11.0278 18.5507 8.87933C19.5564 8.34195 20.5571 8.39178 21.5526 8.926C25.0204 10.7866 28.4903 12.6432 31.9593 14.5014C32.4738 14.777 32.9857 15.0574 33.5033 15.3268C33.8184 15.4909 34.005 15.7334 33.9999 16.0989C33.9949 16.4543 33.8022 16.6883 33.5014 16.8489C29.501 18.9843 25.5008 21.1204 21.5015 23.2579C21.0277 23.5111 20.5338 23.6773 19.9921 23.6575Z" fill="#294CFF"/>
</g>
</svg>
