<svg width="275" height="265" viewBox="0 0 275 265" fill="none" xmlns="http://www.w3.org/2000/svg">
<mask id="mask0_21924_31234" style="mask-type:alpha" maskUnits="userSpaceOnUse" x="0" y="0" width="275" height="265">
<path d="M275 265C153.166 265 197.275 265 1.23309 265C1.23309 218.016 0 174.758 0 138.372C0 121.454 0.411041 75.389 1.23309 0.177047C124.954 -0.0590155 216.209 -0.0590155 275 0.177047C275 106.358 275 182.558 275 265Z" fill="white"/>
</mask>
<g mask="url(#mask0_21924_31234)">
<path opacity="0.6" fill-rule="evenodd" clip-rule="evenodd" d="M273.227 151.798L270.827 151.798L270.827 154.281L273.227 154.281L273.227 151.798ZM273.227 227.274L270.827 227.274L270.827 229.757L273.227 229.757L273.227 227.274ZM273.227 189.536L270.827 189.536L270.827 192.019L273.227 192.019L273.227 189.536ZM273.227 265.012L270.827 265.012L270.827 267.494L273.227 267.494L273.227 265.012ZM273.227 170.667L270.827 170.667L270.827 173.15L273.227 173.15L273.227 170.667ZM273.227 246.143L270.827 246.143L270.827 248.625L273.227 248.625L273.227 246.143ZM273.227 208.405L270.827 208.405L270.827 210.888L273.227 210.888L273.227 208.405ZM273.227 283.881L270.827 283.881L270.827 286.363L273.227 286.363L273.227 283.881ZM273.227 161.232L270.827 161.232L270.827 163.715L273.227 163.715L273.227 161.232ZM273.227 236.708L270.827 236.708L270.827 239.191L273.227 239.191L273.227 236.708ZM273.227 198.97L270.827 198.97L270.827 201.453L273.227 201.453L273.227 198.97ZM273.227 274.446L270.827 274.446L270.827 276.929L273.227 276.929L273.227 274.446ZM273.227 180.101L270.827 180.101L270.827 182.584L273.227 182.584L273.227 180.101ZM273.227 255.577L270.827 255.577L270.827 258.06L273.227 258.06L273.227 255.577ZM273.227 217.839L270.827 217.839L270.827 220.322L273.227 220.322L273.227 217.839ZM273.227 293.315L270.827 293.315L270.827 295.798L273.227 295.798L273.227 293.315ZM197.627 151.798L195.227 151.798L195.227 154.281L197.627 154.281L197.627 151.798ZM197.627 227.274L195.227 227.274L195.227 229.757L197.627 229.757L197.627 227.274ZM197.627 189.536L195.227 189.536L195.227 192.019L197.627 192.019L197.627 189.536ZM197.627 265.012L195.227 265.012L195.227 267.494L197.627 267.494L197.627 265.012ZM197.627 170.667L195.227 170.667L195.227 173.15L197.627 173.15L197.627 170.667ZM197.627 246.143L195.227 246.143L195.227 248.625L197.627 248.625L197.627 246.143ZM197.627 208.405L195.227 208.405L195.227 210.888L197.627 210.888L197.627 208.405ZM197.627 283.881L195.227 283.881L195.227 286.363L197.627 286.363L197.627 283.881ZM197.627 161.232L195.227 161.232L195.227 163.715L197.627 163.715L197.627 161.232ZM197.627 236.708L195.227 236.708L195.227 239.191L197.627 239.191L197.627 236.708ZM197.627 198.97L195.227 198.97L195.227 201.453L197.627 201.453L197.627 198.97ZM197.627 274.446L195.227 274.446L195.227 276.929L197.627 276.929L197.627 274.446ZM197.627 180.101L195.227 180.101L195.227 182.584L197.627 182.584L197.627 180.101ZM197.627 255.577L195.227 255.577L195.227 258.06L197.627 258.06L197.627 255.577ZM197.627 217.839L195.227 217.839L195.227 220.322L197.627 220.322L197.627 217.839ZM197.627 293.315L195.227 293.315L195.227 295.798L197.627 295.798L197.627 293.315ZM236.027 151.798L233.627 151.798L233.627 154.281L236.027 154.281L236.027 151.798ZM236.027 227.274L233.627 227.274L233.627 229.757L236.027 229.757L236.027 227.274ZM236.027 189.536L233.627 189.536L233.627 192.019L236.027 192.019L236.027 189.536ZM236.027 265.012L233.627 265.012L233.627 267.494L236.027 267.494L236.027 265.012ZM236.027 170.667L233.627 170.667L233.627 173.15L236.027 173.15L236.027 170.667ZM236.027 246.143L233.627 246.143L233.627 248.625L236.027 248.625L236.027 246.143ZM236.027 208.405L233.627 208.405L233.627 210.888L236.027 210.888L236.027 208.405ZM236.027 283.881L233.627 283.881L233.627 286.363L236.027 286.363L236.027 283.881ZM236.027 161.232L233.627 161.232L233.627 163.715L236.027 163.715L236.027 161.232ZM236.027 236.708L233.627 236.708L233.627 239.191L236.027 239.191L236.027 236.708ZM236.027 198.97L233.627 198.97L233.627 201.453L236.027 201.453L236.027 198.97ZM236.027 274.446L233.627 274.446L233.627 276.929L236.027 276.929L236.027 274.446ZM236.027 180.101L233.627 180.101L233.627 182.584L236.027 182.584L236.027 180.101ZM236.027 255.577L233.627 255.577L233.627 258.06L236.027 258.06L236.027 255.577ZM236.027 217.839L233.627 217.839L233.627 220.322L236.027 220.322L236.027 217.839ZM236.027 293.315L233.627 293.315L233.627 295.798L236.027 295.798L236.027 293.315ZM160.427 151.798L158.027 151.798L158.027 154.281L160.427 154.281L160.427 151.798ZM160.427 227.274L158.027 227.274L158.027 229.757L160.427 229.757L160.427 227.274ZM160.427 189.536L158.027 189.536L158.027 192.019L160.427 192.019L160.427 189.536ZM160.427 265.012L158.027 265.012L158.027 267.494L160.427 267.494L160.427 265.012ZM160.427 170.667L158.027 170.667L158.027 173.15L160.427 173.15L160.427 170.667ZM160.427 246.143L158.027 246.143L158.027 248.625L160.427 248.625L160.427 246.143ZM160.427 208.405L158.027 208.405L158.027 210.888L160.427 210.888L160.427 208.405ZM160.427 283.881L158.027 283.881L158.027 286.363L160.427 286.363L160.427 283.881ZM160.427 161.232L158.027 161.232L158.027 163.715L160.427 163.715L160.427 161.232ZM160.427 236.708L158.027 236.708L158.027 239.191L160.427 239.191L160.427 236.708ZM160.427 198.97L158.027 198.97L158.027 201.453L160.427 201.453L160.427 198.97ZM160.427 274.446L158.027 274.446L158.027 276.929L160.427 276.929L160.427 274.446ZM160.427 180.101L158.027 180.101L158.027 182.584L160.427 182.584L160.427 180.101ZM160.427 255.577L158.027 255.577L158.027 258.06L160.427 258.06L160.427 255.577ZM160.427 217.839L158.027 217.839L158.027 220.322L160.427 220.322L160.427 217.839ZM160.427 293.315L158.027 293.315L158.027 295.798L160.427 295.798L160.427 293.315ZM254.027 151.798L251.627 151.798L251.627 154.281L254.027 154.281L254.027 151.798ZM254.027 227.274L251.627 227.274L251.627 229.757L254.027 229.757L254.027 227.274ZM254.027 189.536L251.627 189.536L251.627 192.019L254.027 192.019L254.027 189.536ZM254.027 265.012L251.627 265.012L251.627 267.494L254.027 267.494L254.027 265.012ZM254.027 170.667L251.627 170.667L251.627 173.15L254.027 173.15L254.027 170.667ZM254.027 246.143L251.627 246.143L251.627 248.625L254.027 248.626L254.027 246.143ZM254.027 208.405L251.627 208.405L251.627 210.888L254.027 210.888L254.027 208.405ZM254.027 283.881L251.627 283.881L251.627 286.363L254.027 286.363L254.027 283.881ZM254.027 161.232L251.627 161.232L251.627 163.715L254.027 163.715L254.027 161.232ZM254.027 236.708L251.627 236.708L251.627 239.191L254.027 239.191L254.027 236.708ZM254.027 198.97L251.627 198.97L251.627 201.453L254.027 201.453L254.027 198.97ZM254.027 274.446L251.627 274.446L251.627 276.929L254.027 276.929L254.027 274.446ZM254.027 180.101L251.627 180.101L251.627 182.584L254.027 182.584L254.027 180.101ZM254.027 255.577L251.627 255.577L251.627 258.06L254.027 258.06L254.027 255.577ZM254.027 217.839L251.627 217.839L251.627 220.322L254.027 220.322L254.027 217.839ZM254.027 293.315L251.627 293.315L251.627 295.798L254.027 295.798L254.027 293.315ZM178.427 151.798L176.027 151.798L176.027 154.281L178.427 154.281L178.427 151.798ZM178.427 227.274L176.027 227.274L176.027 229.757L178.427 229.757L178.427 227.274ZM178.427 189.536L176.027 189.536L176.027 192.019L178.427 192.019L178.427 189.536ZM178.427 265.012L176.027 265.012L176.027 267.494L178.427 267.494L178.427 265.012ZM178.427 170.667L176.027 170.667L176.027 173.15L178.427 173.15L178.427 170.667ZM178.427 246.143L176.027 246.143L176.027 248.625L178.427 248.625L178.427 246.143ZM178.427 208.405L176.027 208.405L176.027 210.888L178.427 210.888L178.427 208.405ZM178.427 283.881L176.027 283.881L176.027 286.363L178.427 286.363L178.427 283.881ZM178.427 161.232L176.027 161.232L176.027 163.715L178.427 163.715L178.427 161.232ZM178.427 236.708L176.027 236.708L176.027 239.191L178.427 239.191L178.427 236.708ZM178.427 198.97L176.027 198.97L176.027 201.453L178.427 201.453L178.427 198.97ZM178.427 274.446L176.027 274.446L176.027 276.929L178.427 276.929L178.427 274.446ZM178.427 180.101L176.027 180.101L176.027 182.584L178.427 182.584L178.427 180.101ZM178.427 255.577L176.027 255.577L176.027 258.06L178.427 258.06L178.427 255.577ZM178.427 217.839L176.027 217.839L176.027 220.322L178.427 220.322L178.427 217.839ZM178.427 293.315L176.027 293.315L176.027 295.798L178.427 295.798L178.427 293.315ZM216.827 151.798L214.427 151.798L214.427 154.281L216.827 154.281L216.827 151.798ZM216.827 227.274L214.427 227.274L214.427 229.757L216.827 229.757L216.827 227.274ZM216.827 189.536L214.427 189.536L214.427 192.019L216.827 192.019L216.827 189.536ZM216.827 265.012L214.427 265.012L214.427 267.494L216.827 267.494L216.827 265.012ZM216.827 170.667L214.427 170.667L214.427 173.15L216.827 173.15L216.827 170.667ZM216.827 246.143L214.427 246.143L214.427 248.626L216.827 248.626L216.827 246.143ZM216.827 208.405L214.427 208.405L214.427 210.888L216.827 210.888L216.827 208.405ZM216.827 283.881L214.427 283.881L214.427 286.363L216.827 286.363L216.827 283.881ZM216.827 161.232L214.427 161.232L214.427 163.715L216.827 163.715L216.827 161.232ZM216.827 236.708L214.427 236.708L214.427 239.191L216.827 239.191L216.827 236.708ZM216.827 198.97L214.427 198.97L214.427 201.453L216.827 201.453L216.827 198.97ZM216.827 274.446L214.427 274.446L214.427 276.929L216.827 276.929L216.827 274.446ZM216.827 180.101L214.427 180.101L214.427 182.584L216.827 182.584L216.827 180.101ZM216.827 255.577L214.427 255.577L214.427 258.06L216.827 258.06L216.827 255.577ZM216.827 217.839L214.427 217.839L214.427 220.322L216.827 220.322L216.827 217.839ZM216.827 293.315L214.427 293.315L214.427 295.798L216.827 295.798L216.827 293.315ZM141.227 151.798L138.827 151.798L138.827 154.281L141.227 154.281L141.227 151.798ZM141.227 227.274L138.827 227.274L138.827 229.757L141.227 229.757L141.227 227.274ZM141.227 189.536L138.827 189.536L138.827 192.019L141.227 192.019L141.227 189.536ZM141.227 265.012L138.827 265.012L138.827 267.494L141.227 267.494L141.227 265.012ZM141.227 170.667L138.827 170.667L138.827 173.15L141.227 173.15L141.227 170.667ZM141.227 246.143L138.827 246.143L138.827 248.625L141.227 248.625L141.227 246.143ZM141.227 208.405L138.827 208.405L138.827 210.888L141.227 210.888L141.227 208.405ZM141.227 283.881L138.827 283.881L138.827 286.363L141.227 286.363L141.227 283.881ZM141.227 161.232L138.827 161.232L138.827 163.715L141.227 163.715L141.227 161.232ZM141.227 236.708L138.827 236.708L138.827 239.191L141.227 239.191L141.227 236.708ZM141.227 198.97L138.827 198.97L138.827 201.453L141.227 201.453L141.227 198.97ZM141.227 274.446L138.827 274.446L138.827 276.929L141.227 276.929L141.227 274.446ZM141.227 180.101L138.827 180.101L138.827 182.584L141.227 182.584L141.227 180.101ZM141.227 255.577L138.827 255.577L138.827 258.06L141.227 258.06L141.227 255.577ZM141.227 217.839L138.827 217.839L138.827 220.322L141.227 220.322L141.227 217.839ZM141.227 293.315L138.827 293.315L138.827 295.798L141.227 295.798L141.227 293.315ZM263.627 151.798L261.227 151.798L261.227 154.281L263.627 154.281L263.627 151.798ZM263.627 227.274L261.227 227.274L261.227 229.757L263.627 229.757L263.627 227.274ZM263.627 189.536L261.227 189.536L261.227 192.019L263.627 192.019L263.627 189.536ZM263.627 265.012L261.227 265.012L261.227 267.494L263.627 267.494L263.627 265.012ZM263.627 170.667L261.227 170.667L261.227 173.15L263.627 173.15L263.627 170.667ZM263.627 246.143L261.227 246.143L261.227 248.625L263.627 248.625L263.627 246.143ZM263.627 208.405L261.227 208.405L261.227 210.888L263.627 210.888L263.627 208.405ZM263.627 283.881L261.227 283.881L261.227 286.363L263.627 286.363L263.627 283.881ZM263.627 161.232L261.227 161.232L261.227 163.715L263.627 163.715L263.627 161.232ZM263.627 236.708L261.227 236.708L261.227 239.191L263.627 239.191L263.627 236.708ZM263.627 198.97L261.227 198.97L261.227 201.453L263.627 201.453L263.627 198.97ZM263.627 274.446L261.227 274.446L261.227 276.929L263.627 276.929L263.627 274.446ZM263.627 180.101L261.227 180.101L261.227 182.584L263.627 182.584L263.627 180.101ZM263.627 255.577L261.227 255.577L261.227 258.06L263.627 258.06L263.627 255.577ZM263.627 217.839L261.227 217.839L261.227 220.322L263.627 220.322L263.627 217.839ZM263.627 293.315L261.227 293.315L261.227 295.798L263.627 295.798L263.627 293.315ZM188.027 151.798L185.627 151.798L185.627 154.281L188.027 154.281L188.027 151.798ZM188.027 227.274L185.627 227.274L185.627 229.757L188.027 229.757L188.027 227.274ZM188.027 189.536L185.627 189.536L185.627 192.019L188.027 192.019L188.027 189.536ZM188.027 265.012L185.627 265.012L185.627 267.494L188.027 267.494L188.027 265.012ZM188.027 170.667L185.627 170.667L185.627 173.15L188.027 173.15L188.027 170.667ZM188.027 246.143L185.627 246.143L185.627 248.625L188.027 248.625L188.027 246.143ZM188.027 208.405L185.627 208.405L185.627 210.888L188.027 210.888L188.027 208.405ZM188.027 283.881L185.627 283.881L185.627 286.363L188.027 286.363L188.027 283.881ZM188.027 161.232L185.627 161.232L185.627 163.715L188.027 163.715L188.027 161.232ZM188.027 236.708L185.627 236.708L185.627 239.191L188.027 239.191L188.027 236.708ZM188.027 198.97L185.627 198.97L185.627 201.453L188.027 201.453L188.027 198.97ZM188.027 274.446L185.627 274.446L185.627 276.929L188.027 276.929L188.027 274.446ZM188.027 180.101L185.627 180.101L185.627 182.584L188.027 182.584L188.027 180.101ZM188.027 255.577L185.627 255.577L185.627 258.06L188.027 258.06L188.027 255.577ZM188.027 217.839L185.627 217.839L185.627 220.322L188.027 220.322L188.027 217.839ZM188.027 293.315L185.627 293.315L185.627 295.798L188.027 295.798L188.027 293.315ZM226.427 151.798L224.027 151.798L224.027 154.281L226.427 154.281L226.427 151.798ZM226.427 227.274L224.027 227.274L224.027 229.757L226.427 229.757L226.427 227.274ZM226.427 189.536L224.027 189.536L224.027 192.019L226.427 192.019L226.427 189.536ZM226.427 265.012L224.027 265.012L224.027 267.494L226.427 267.494L226.427 265.012ZM226.427 170.667L224.027 170.667L224.027 173.15L226.427 173.15L226.427 170.667ZM226.427 246.143L224.027 246.143L224.027 248.625L226.427 248.626L226.427 246.143ZM226.427 208.405L224.027 208.405L224.027 210.888L226.427 210.888L226.427 208.405ZM226.427 283.881L224.027 283.881L224.027 286.363L226.427 286.363L226.427 283.881ZM226.427 161.232L224.027 161.232L224.027 163.715L226.427 163.715L226.427 161.232ZM226.427 236.708L224.027 236.708L224.027 239.191L226.427 239.191L226.427 236.708ZM226.427 198.97L224.027 198.97L224.027 201.453L226.427 201.453L226.427 198.97ZM226.427 274.446L224.027 274.446L224.027 276.929L226.427 276.929L226.427 274.446ZM226.427 180.101L224.027 180.101L224.027 182.584L226.427 182.584L226.427 180.101ZM226.427 255.577L224.027 255.577L224.027 258.06L226.427 258.06L226.427 255.577ZM226.427 217.839L224.027 217.839L224.027 220.322L226.427 220.322L226.427 217.839ZM226.427 293.315L224.027 293.315L224.027 295.798L226.427 295.798L226.427 293.315ZM150.827 151.798L148.427 151.798L148.427 154.281L150.827 154.281L150.827 151.798ZM150.827 227.274L148.427 227.274L148.427 229.757L150.827 229.757L150.827 227.274ZM150.827 189.536L148.427 189.536L148.427 192.019L150.827 192.019L150.827 189.536ZM150.827 265.012L148.427 265.012L148.427 267.494L150.827 267.494L150.827 265.012ZM150.827 170.667L148.427 170.667L148.427 173.15L150.827 173.15L150.827 170.667ZM150.827 246.143L148.427 246.143L148.427 248.625L150.827 248.625L150.827 246.143ZM150.827 208.405L148.427 208.405L148.427 210.888L150.827 210.888L150.827 208.405ZM150.827 283.881L148.427 283.881L148.427 286.363L150.827 286.363L150.827 283.881ZM150.827 161.232L148.427 161.232L148.427 163.715L150.827 163.715L150.827 161.232ZM150.827 236.708L148.427 236.708L148.427 239.191L150.827 239.191L150.827 236.708ZM150.827 198.97L148.427 198.97L148.427 201.453L150.827 201.453L150.827 198.97ZM150.827 274.446L148.427 274.446L148.427 276.929L150.827 276.929L150.827 274.446ZM150.827 180.101L148.427 180.101L148.427 182.584L150.827 182.584L150.827 180.101ZM150.827 255.577L148.427 255.577L148.427 258.06L150.827 258.06L150.827 255.577ZM150.827 217.839L148.427 217.839L148.427 220.322L150.827 220.322L150.827 217.839ZM150.827 293.315L148.427 293.315L148.427 295.798L150.827 295.798L150.827 293.315ZM244.427 151.798L242.027 151.798L242.027 154.281L244.427 154.281L244.427 151.798ZM244.427 227.274L242.027 227.274L242.027 229.757L244.427 229.757L244.427 227.274ZM244.427 189.536L242.027 189.536L242.027 192.019L244.427 192.019L244.427 189.536ZM244.427 265.012L242.027 265.012L242.027 267.494L244.427 267.494L244.427 265.012ZM244.427 170.667L242.027 170.667L242.027 173.15L244.427 173.15L244.427 170.667ZM244.427 246.143L242.027 246.143L242.027 248.626L244.427 248.625L244.427 246.143ZM244.427 208.405L242.027 208.405L242.027 210.888L244.427 210.888L244.427 208.405ZM244.427 283.881L242.027 283.881L242.027 286.363L244.427 286.363L244.427 283.881ZM244.427 161.232L242.027 161.232L242.027 163.715L244.427 163.715L244.427 161.232ZM244.427 236.708L242.027 236.708L242.027 239.191L244.427 239.191L244.427 236.708ZM244.427 198.97L242.027 198.97L242.027 201.453L244.427 201.453L244.427 198.97ZM244.427 274.446L242.027 274.446L242.027 276.929L244.427 276.929L244.427 274.446ZM244.427 180.101L242.027 180.101L242.027 182.584L244.427 182.584L244.427 180.101ZM244.427 255.577L242.027 255.577L242.027 258.06L244.427 258.06L244.427 255.577ZM244.427 217.839L242.027 217.839L242.027 220.322L244.427 220.322L244.427 217.839ZM244.427 293.315L242.027 293.315L242.027 295.798L244.427 295.798L244.427 293.315ZM168.827 151.798L166.427 151.798L166.427 154.281L168.827 154.281L168.827 151.798ZM168.827 227.274L166.427 227.274L166.427 229.757L168.827 229.757L168.827 227.274ZM168.827 189.536L166.427 189.536L166.427 192.019L168.827 192.019L168.827 189.536ZM168.827 265.012L166.427 265.012L166.427 267.494L168.827 267.494L168.827 265.012ZM168.827 170.667L166.427 170.667L166.427 173.15L168.827 173.15L168.827 170.667ZM168.827 246.143L166.427 246.143L166.427 248.625L168.827 248.625L168.827 246.143ZM168.827 208.405L166.427 208.405L166.427 210.888L168.827 210.888L168.827 208.405ZM168.827 283.881L166.427 283.881L166.427 286.363L168.827 286.363L168.827 283.881ZM168.827 161.232L166.427 161.232L166.427 163.715L168.827 163.715L168.827 161.232ZM168.827 236.708L166.427 236.708L166.427 239.191L168.827 239.191L168.827 236.708ZM168.827 198.97L166.427 198.97L166.427 201.453L168.827 201.453L168.827 198.97ZM168.827 274.446L166.427 274.446L166.427 276.929L168.827 276.929L168.827 274.446ZM168.827 180.101L166.427 180.101L166.427 182.584L168.827 182.584L168.827 180.101ZM168.827 255.577L166.427 255.577L166.427 258.06L168.827 258.06L168.827 255.577ZM168.827 217.839L166.427 217.839L166.427 220.322L168.827 220.322L168.827 217.839ZM168.827 293.315L166.427 293.315L166.427 295.798L168.827 295.798L168.827 293.315ZM207.227 151.798L204.827 151.798L204.827 154.281L207.227 154.281L207.227 151.798ZM207.227 227.274L204.827 227.274L204.827 229.757L207.227 229.757L207.227 227.274ZM207.227 189.536L204.827 189.536L204.827 192.019L207.227 192.019L207.227 189.536ZM207.227 265.012L204.827 265.012L204.827 267.494L207.227 267.494L207.227 265.012ZM207.227 170.667L204.827 170.667L204.827 173.15L207.227 173.15L207.227 170.667ZM207.227 246.143L204.827 246.143L204.827 248.625L207.227 248.625L207.227 246.143ZM207.227 208.405L204.827 208.405L204.827 210.888L207.227 210.888L207.227 208.405ZM207.227 283.881L204.827 283.881L204.827 286.363L207.227 286.363L207.227 283.881ZM207.227 161.232L204.827 161.232L204.827 163.715L207.227 163.715L207.227 161.232ZM207.227 236.708L204.827 236.708L204.827 239.191L207.227 239.191L207.227 236.708ZM207.227 198.97L204.827 198.97L204.827 201.453L207.227 201.453L207.227 198.97ZM207.227 274.446L204.827 274.446L204.827 276.929L207.227 276.929L207.227 274.446ZM207.227 180.101L204.827 180.101L204.827 182.584L207.227 182.584L207.227 180.101ZM207.227 255.577L204.827 255.577L204.827 258.06L207.227 258.06L207.227 255.577ZM207.227 217.839L204.827 217.839L204.827 220.322L207.227 220.322L207.227 217.839ZM207.227 293.315L204.827 293.315L204.827 295.798L207.227 295.798L207.227 293.315ZM131.627 151.798L129.227 151.798L129.227 154.281L131.627 154.281L131.627 151.798ZM131.627 227.274L129.227 227.274L129.227 229.757L131.627 229.757L131.627 227.274ZM131.627 189.536L129.227 189.536L129.227 192.019L131.627 192.019L131.627 189.536ZM131.627 265.012L129.227 265.012L129.227 267.494L131.627 267.494L131.627 265.012ZM131.627 170.667L129.227 170.667L129.227 173.15L131.627 173.15L131.627 170.667ZM131.627 246.143L129.227 246.143L129.227 248.625L131.627 248.625L131.627 246.143ZM131.627 208.405L129.227 208.405L129.227 210.888L131.627 210.888L131.627 208.405ZM131.627 283.881L129.227 283.881L129.227 286.363L131.627 286.363L131.627 283.881ZM131.627 161.232L129.227 161.232L129.227 163.715L131.627 163.715L131.627 161.232ZM131.627 236.708L129.227 236.708L129.227 239.191L131.627 239.191L131.627 236.708ZM131.627 198.97L129.227 198.97L129.227 201.453L131.627 201.453L131.627 198.97ZM131.627 274.446L129.227 274.446L129.227 276.929L131.627 276.929L131.627 274.446ZM131.627 180.101L129.227 180.101L129.227 182.584L131.627 182.584L131.627 180.101ZM131.627 255.577L129.227 255.577L129.227 258.06L131.627 258.06L131.627 255.577ZM131.627 217.839L129.227 217.839L129.227 220.322L131.627 220.322L131.627 217.839ZM131.627 293.315L129.227 293.315L129.227 295.798L131.627 295.798L131.627 293.315ZM273.196 0.505778L270.796 0.505778L270.796 2.98854L273.196 2.98854L273.196 0.505778ZM273.196 75.9816L270.796 75.9816L270.796 78.4644L273.196 78.4644L273.196 75.9816ZM273.196 38.2437L270.796 38.2437L270.796 40.7265L273.196 40.7265L273.196 38.2437ZM273.196 113.72L270.796 113.72L270.796 116.202L273.196 116.202L273.196 113.72ZM273.196 19.3747L270.796 19.3747L270.796 21.8575L273.196 21.8575L273.196 19.3747ZM273.196 94.8506L270.796 94.8506L270.796 97.3334L273.196 97.3334L273.196 94.8506ZM273.196 57.1127L270.796 57.1127L270.796 59.5954L273.196 59.5954L273.196 57.1127ZM273.196 132.589L270.796 132.589L270.796 135.071L273.196 135.071L273.196 132.589ZM273.196 9.94026L270.796 9.94026L270.796 12.423L273.196 12.423L273.196 9.94026ZM273.196 85.4161L270.796 85.4161L270.796 87.8989L273.196 87.8989L273.196 85.4161ZM273.196 47.6782L270.796 47.6782L270.796 50.1609L273.196 50.161L273.196 47.6782ZM273.196 123.154L270.796 123.154L270.796 125.637L273.196 125.637L273.196 123.154ZM273.196 28.8092L270.796 28.8092L270.796 31.292L273.196 31.292L273.196 28.8092ZM273.196 104.285L270.796 104.285L270.796 106.768L273.196 106.768L273.196 104.285ZM273.196 66.5472L270.796 66.5472L270.796 69.0299L273.196 69.0299L273.196 66.5472ZM273.196 142.023L270.796 142.023L270.796 144.506L273.196 144.506L273.196 142.023ZM197.596 0.505778L195.196 0.505778L195.196 2.98854L197.596 2.98854L197.596 0.505778ZM197.596 75.9816L195.196 75.9816L195.196 78.4644L197.596 78.4644L197.596 75.9816ZM197.596 38.2437L195.196 38.2437L195.196 40.7265L197.596 40.7265L197.596 38.2437ZM197.596 113.72L195.196 113.72L195.196 116.202L197.596 116.202L197.596 113.72ZM197.596 19.3747L195.196 19.3747L195.196 21.8575L197.596 21.8575L197.596 19.3747ZM197.596 94.8506L195.196 94.8506L195.196 97.3334L197.596 97.3334L197.596 94.8506ZM197.596 57.1127L195.196 57.1127L195.196 59.5954L197.596 59.5954L197.596 57.1127ZM197.596 132.589L195.196 132.589L195.196 135.071L197.596 135.071L197.596 132.589ZM197.596 9.94026L195.196 9.94026L195.196 12.423L197.596 12.423L197.596 9.94026ZM197.596 85.4161L195.196 85.4161L195.196 87.8989L197.596 87.8989L197.596 85.4161ZM197.596 47.6782L195.196 47.6782L195.196 50.161L197.596 50.161L197.596 47.6782ZM197.596 123.154L195.196 123.154L195.196 125.637L197.596 125.637L197.596 123.154ZM197.596 28.8092L195.196 28.8092L195.196 31.292L197.596 31.292L197.596 28.8092ZM197.596 104.285L195.196 104.285L195.196 106.768L197.596 106.768L197.596 104.285ZM197.596 66.5472L195.196 66.5472L195.196 69.0299L197.596 69.0299L197.596 66.5472ZM197.596 142.023L195.196 142.023L195.196 144.506L197.596 144.506L197.596 142.023ZM235.996 0.505779L233.596 0.505778L233.596 2.98854L235.996 2.98854L235.996 0.505779ZM235.996 75.9816L233.596 75.9816L233.596 78.4644L235.996 78.4644L235.996 75.9816ZM235.996 38.2437L233.596 38.2437L233.596 40.7265L235.996 40.7265L235.996 38.2437ZM235.996 113.72L233.596 113.72L233.596 116.202L235.996 116.202L235.996 113.72ZM235.996 19.3747L233.596 19.3747L233.596 21.8575L235.996 21.8575L235.996 19.3747ZM235.996 94.8506L233.596 94.8506L233.596 97.3334L235.996 97.3334L235.996 94.8506ZM235.996 57.1127L233.596 57.1127L233.596 59.5954L235.996 59.5954L235.996 57.1127ZM235.996 132.589L233.596 132.589L233.596 135.071L235.996 135.071L235.996 132.589ZM235.996 9.94026L233.596 9.94026L233.596 12.423L235.996 12.423L235.996 9.94026ZM235.996 85.4161L233.596 85.4161L233.596 87.8989L235.996 87.8989L235.996 85.4161ZM235.996 47.6782L233.596 47.6782L233.596 50.1609L235.996 50.161L235.996 47.6782ZM235.996 123.154L233.596 123.154L233.596 125.637L235.996 125.637L235.996 123.154ZM235.996 28.8092L233.596 28.8092L233.596 31.292L235.996 31.292L235.996 28.8092ZM235.996 104.285L233.596 104.285L233.596 106.768L235.996 106.768L235.996 104.285ZM235.996 66.5472L233.596 66.5472L233.596 69.0299L235.996 69.0299L235.996 66.5472ZM235.996 142.023L233.596 142.023L233.596 144.506L235.996 144.506L235.996 142.023ZM160.396 0.505779L157.996 0.505779L157.996 2.98854L160.396 2.98854L160.396 0.505779ZM160.396 75.9816L157.996 75.9816L157.996 78.4644L160.396 78.4644L160.396 75.9816ZM160.396 38.2437L157.996 38.2437L157.996 40.7265L160.396 40.7265L160.396 38.2437ZM160.396 113.72L157.996 113.72L157.996 116.202L160.396 116.202L160.396 113.72ZM160.396 19.3747L157.996 19.3747L157.996 21.8575L160.396 21.8575L160.396 19.3747ZM160.396 94.8506L157.996 94.8506L157.996 97.3334L160.396 97.3334L160.396 94.8506ZM160.396 57.1127L157.996 57.1127L157.996 59.5954L160.396 59.5954L160.396 57.1127ZM160.396 132.589L157.996 132.589L157.996 135.071L160.396 135.071L160.396 132.589ZM160.396 9.94026L157.996 9.94026L157.996 12.423L160.396 12.423L160.396 9.94026ZM160.396 85.4161L157.996 85.4161L157.996 87.8989L160.396 87.8989L160.396 85.4161ZM160.396 47.6782L157.996 47.6782L157.996 50.161L160.396 50.161L160.396 47.6782ZM160.396 123.154L157.996 123.154L157.996 125.637L160.396 125.637L160.396 123.154ZM160.396 28.8092L157.996 28.8092L157.996 31.292L160.396 31.292L160.396 28.8092ZM160.396 104.285L157.996 104.285L157.996 106.768L160.396 106.768L160.396 104.285ZM160.396 66.5472L157.996 66.5472L157.996 69.0299L160.396 69.0299L160.396 66.5472ZM160.396 142.023L157.996 142.023L157.996 144.506L160.396 144.506L160.396 142.023ZM253.996 0.505779L251.596 0.505778L251.596 2.98854L253.996 2.98854L253.996 0.505779ZM253.996 75.9816L251.596 75.9816L251.596 78.4644L253.996 78.4644L253.996 75.9816ZM253.996 38.2437L251.596 38.2437L251.596 40.7265L253.996 40.7265L253.996 38.2437ZM253.996 113.72L251.596 113.72L251.596 116.202L253.996 116.202L253.996 113.72ZM253.996 19.3747L251.596 19.3747L251.596 21.8575L253.996 21.8575L253.996 19.3747ZM253.996 94.8506L251.596 94.8506L251.596 97.3334L253.996 97.3334L253.996 94.8506ZM253.996 57.1127L251.596 57.1127L251.596 59.5954L253.996 59.5954L253.996 57.1127ZM253.996 132.589L251.596 132.589L251.596 135.071L253.996 135.071L253.996 132.589ZM253.996 9.94026L251.596 9.94026L251.596 12.423L253.996 12.423L253.996 9.94026ZM253.996 85.4161L251.596 85.4161L251.596 87.8989L253.996 87.8989L253.996 85.4161ZM253.996 47.6782L251.596 47.6782L251.596 50.161L253.996 50.161L253.996 47.6782ZM253.996 123.154L251.596 123.154L251.596 125.637L253.996 125.637L253.996 123.154ZM253.996 28.8092L251.596 28.8092L251.596 31.292L253.996 31.292L253.996 28.8092ZM253.996 104.285L251.596 104.285L251.596 106.768L253.996 106.768L253.996 104.285ZM253.996 66.5472L251.596 66.5472L251.596 69.0299L253.996 69.0299L253.996 66.5472ZM253.996 142.023L251.596 142.023L251.596 144.506L253.996 144.506L253.996 142.023ZM178.396 0.505778L175.996 0.505778L175.996 2.98854L178.396 2.98854L178.396 0.505778ZM178.396 75.9816L175.996 75.9816L175.996 78.4644L178.396 78.4644L178.396 75.9816ZM178.396 38.2437L175.996 38.2437L175.996 40.7265L178.396 40.7265L178.396 38.2437ZM178.396 113.72L175.996 113.72L175.996 116.202L178.396 116.202L178.396 113.72ZM178.396 19.3747L175.996 19.3747L175.996 21.8575L178.396 21.8575L178.396 19.3747ZM178.396 94.8506L175.996 94.8506L175.996 97.3334L178.396 97.3334L178.396 94.8506ZM178.396 57.1127L175.996 57.1127L175.996 59.5954L178.396 59.5954L178.396 57.1127ZM178.396 132.589L175.996 132.589L175.996 135.071L178.396 135.071L178.396 132.589ZM178.396 9.94026L175.996 9.94026L175.996 12.423L178.396 12.423L178.396 9.94026ZM178.396 85.4161L175.996 85.4161L175.996 87.8989L178.396 87.8989L178.396 85.4161ZM178.396 47.6782L175.996 47.6782L175.996 50.161L178.396 50.1609L178.396 47.6782ZM178.396 123.154L175.996 123.154L175.996 125.637L178.396 125.637L178.396 123.154ZM178.396 28.8092L175.996 28.8092L175.996 31.292L178.396 31.292L178.396 28.8092ZM178.396 104.285L175.996 104.285L175.996 106.768L178.396 106.768L178.396 104.285ZM178.396 66.5472L175.996 66.5472L175.996 69.0299L178.396 69.0299L178.396 66.5472ZM178.396 142.023L175.996 142.023L175.996 144.506L178.396 144.506L178.396 142.023ZM216.796 0.505779L214.396 0.505779L214.396 2.98854L216.796 2.98854L216.796 0.505779ZM216.796 75.9816L214.396 75.9816L214.396 78.4644L216.796 78.4644L216.796 75.9816ZM216.796 38.2437L214.396 38.2437L214.396 40.7265L216.796 40.7265L216.796 38.2437ZM216.796 113.72L214.396 113.72L214.396 116.202L216.796 116.202L216.796 113.72ZM216.796 19.3747L214.396 19.3747L214.396 21.8575L216.796 21.8575L216.796 19.3747ZM216.796 94.8506L214.396 94.8506L214.396 97.3334L216.796 97.3334L216.796 94.8506ZM216.796 57.1127L214.396 57.1127L214.396 59.5954L216.796 59.5954L216.796 57.1127ZM216.796 132.589L214.396 132.589L214.396 135.071L216.796 135.071L216.796 132.589ZM216.796 9.94026L214.396 9.94026L214.396 12.423L216.796 12.423L216.796 9.94026ZM216.796 85.4161L214.396 85.4161L214.396 87.8989L216.796 87.8989L216.796 85.4161ZM216.796 47.6782L214.396 47.6782L214.396 50.161L216.796 50.1609L216.796 47.6782ZM216.796 123.154L214.396 123.154L214.396 125.637L216.796 125.637L216.796 123.154ZM216.796 28.8092L214.396 28.8092L214.396 31.292L216.796 31.292L216.796 28.8092ZM216.796 104.285L214.396 104.285L214.396 106.768L216.796 106.768L216.796 104.285ZM216.796 66.5472L214.396 66.5472L214.396 69.0299L216.796 69.0299L216.796 66.5472ZM216.796 142.023L214.396 142.023L214.396 144.506L216.796 144.506L216.796 142.023ZM141.196 0.505779L138.796 0.505779L138.796 2.98854L141.196 2.98854L141.196 0.505779ZM141.196 75.9816L138.796 75.9816L138.796 78.4644L141.196 78.4644L141.196 75.9816ZM141.196 38.2437L138.796 38.2437L138.796 40.7265L141.196 40.7265L141.196 38.2437ZM141.196 113.72L138.796 113.72L138.796 116.202L141.196 116.202L141.196 113.72ZM141.196 19.3747L138.796 19.3747L138.796 21.8575L141.196 21.8575L141.196 19.3747ZM141.196 94.8506L138.796 94.8506L138.796 97.3334L141.196 97.3334L141.196 94.8506ZM141.196 57.1127L138.796 57.1127L138.796 59.5954L141.196 59.5954L141.196 57.1127ZM141.196 132.589L138.796 132.589L138.796 135.071L141.196 135.071L141.196 132.589ZM141.196 9.94026L138.796 9.94026L138.796 12.423L141.196 12.423L141.196 9.94026ZM141.196 85.4161L138.796 85.4161L138.796 87.8989L141.196 87.8989L141.196 85.4161ZM141.196 47.6782L138.796 47.6782L138.796 50.161L141.196 50.161L141.196 47.6782ZM141.196 123.154L138.796 123.154L138.796 125.637L141.196 125.637L141.196 123.154ZM141.196 28.8092L138.796 28.8092L138.796 31.292L141.196 31.292L141.196 28.8092ZM141.196 104.285L138.796 104.285L138.796 106.768L141.196 106.768L141.196 104.285ZM141.196 66.5472L138.796 66.5472L138.796 69.0299L141.196 69.0299L141.196 66.5472ZM141.196 142.023L138.796 142.023L138.796 144.506L141.196 144.506L141.196 142.023ZM263.596 0.505779L261.196 0.505779L261.196 2.98854L263.596 2.98854L263.596 0.505779ZM263.596 75.9816L261.196 75.9816L261.196 78.4644L263.596 78.4644L263.596 75.9816ZM263.596 38.2437L261.196 38.2437L261.196 40.7265L263.596 40.7265L263.596 38.2437ZM263.596 113.72L261.196 113.72L261.196 116.202L263.596 116.202L263.596 113.72ZM263.596 19.3747L261.196 19.3747L261.196 21.8575L263.596 21.8575L263.596 19.3747ZM263.596 94.8506L261.196 94.8506L261.196 97.3334L263.596 97.3334L263.596 94.8506ZM263.596 57.1127L261.196 57.1127L261.196 59.5954L263.596 59.5954L263.596 57.1127ZM263.596 132.589L261.196 132.589L261.196 135.071L263.596 135.071L263.596 132.589ZM263.596 9.94026L261.196 9.94026L261.196 12.423L263.596 12.423L263.596 9.94026ZM263.596 85.4161L261.196 85.4161L261.196 87.8989L263.596 87.8989L263.596 85.4161ZM263.596 47.6782L261.196 47.6782L261.196 50.161L263.596 50.161L263.596 47.6782ZM263.596 123.154L261.196 123.154L261.196 125.637L263.596 125.637L263.596 123.154ZM263.596 28.8092L261.196 28.8092L261.196 31.292L263.596 31.292L263.596 28.8092ZM263.596 104.285L261.196 104.285L261.196 106.768L263.596 106.768L263.596 104.285ZM263.596 66.5472L261.196 66.5472L261.196 69.0299L263.596 69.0299L263.596 66.5472ZM263.596 142.023L261.196 142.023L261.196 144.506L263.596 144.506L263.596 142.023ZM187.996 0.505778L185.596 0.505778L185.596 2.98854L187.996 2.98854L187.996 0.505778ZM187.996 75.9816L185.596 75.9816L185.596 78.4644L187.996 78.4644L187.996 75.9816ZM187.996 38.2437L185.596 38.2437L185.596 40.7265L187.996 40.7265L187.996 38.2437ZM187.996 113.72L185.596 113.72L185.596 116.202L187.996 116.202L187.996 113.72ZM187.996 19.3747L185.596 19.3747L185.596 21.8575L187.996 21.8575L187.996 19.3747ZM187.996 94.8506L185.596 94.8506L185.596 97.3334L187.996 97.3334L187.996 94.8506ZM187.996 57.1127L185.596 57.1127L185.596 59.5954L187.996 59.5954L187.996 57.1127ZM187.996 132.589L185.596 132.589L185.596 135.071L187.996 135.071L187.996 132.589ZM187.996 9.94026L185.596 9.94026L185.596 12.423L187.996 12.423L187.996 9.94026ZM187.996 85.4161L185.596 85.4161L185.596 87.8989L187.996 87.8989L187.996 85.4161ZM187.996 47.6782L185.596 47.6782L185.596 50.161L187.996 50.161L187.996 47.6782ZM187.996 123.154L185.596 123.154L185.596 125.637L187.996 125.637L187.996 123.154ZM187.996 28.8092L185.596 28.8092L185.596 31.292L187.996 31.292L187.996 28.8092ZM187.996 104.285L185.596 104.285L185.596 106.768L187.996 106.768L187.996 104.285ZM187.996 66.5472L185.596 66.5472L185.596 69.0299L187.996 69.0299L187.996 66.5472ZM187.996 142.023L185.596 142.023L185.596 144.506L187.996 144.506L187.996 142.023ZM226.396 0.505779L223.996 0.505779L223.996 2.98854L226.396 2.98854L226.396 0.505779ZM226.396 75.9816L223.996 75.9816L223.996 78.4644L226.396 78.4644L226.396 75.9816ZM226.396 38.2437L223.996 38.2437L223.996 40.7265L226.396 40.7265L226.396 38.2437ZM226.396 113.72L223.996 113.72L223.996 116.202L226.396 116.202L226.396 113.72ZM226.396 19.3747L223.996 19.3747L223.996 21.8575L226.396 21.8575L226.396 19.3747ZM226.396 94.8506L223.996 94.8506L223.996 97.3334L226.396 97.3334L226.396 94.8506ZM226.396 57.1127L223.996 57.1127L223.996 59.5954L226.396 59.5954L226.396 57.1127ZM226.396 132.589L223.996 132.589L223.996 135.071L226.396 135.071L226.396 132.589ZM226.396 9.94026L223.996 9.94026L223.996 12.423L226.396 12.423L226.396 9.94026ZM226.396 85.4161L223.996 85.4161L223.996 87.8989L226.396 87.8989L226.396 85.4161ZM226.396 47.6782L223.996 47.6782L223.996 50.161L226.396 50.161L226.396 47.6782ZM226.396 123.154L223.996 123.154L223.996 125.637L226.396 125.637L226.396 123.154ZM226.396 28.8092L223.996 28.8092L223.996 31.292L226.396 31.292L226.396 28.8092ZM226.396 104.285L223.996 104.285L223.996 106.768L226.396 106.768L226.396 104.285ZM226.396 66.5472L223.996 66.5472L223.996 69.0299L226.396 69.0299L226.396 66.5472ZM226.396 142.023L223.996 142.023L223.996 144.506L226.396 144.506L226.396 142.023ZM150.796 0.505779L148.396 0.505779L148.396 2.98854L150.796 2.98854L150.796 0.505779ZM150.796 75.9816L148.396 75.9816L148.396 78.4644L150.796 78.4644L150.796 75.9816ZM150.796 38.2437L148.396 38.2437L148.396 40.7265L150.796 40.7265L150.796 38.2437ZM150.796 113.72L148.396 113.72L148.396 116.202L150.796 116.202L150.796 113.72ZM150.796 19.3747L148.396 19.3747L148.396 21.8575L150.796 21.8575L150.796 19.3747ZM150.796 94.8506L148.396 94.8506L148.396 97.3334L150.796 97.3334L150.796 94.8506ZM150.796 57.1127L148.396 57.1127L148.396 59.5954L150.796 59.5954L150.796 57.1127ZM150.796 132.589L148.396 132.589L148.396 135.071L150.796 135.071L150.796 132.589ZM150.796 9.94026L148.396 9.94026L148.396 12.423L150.796 12.423L150.796 9.94026ZM150.796 85.4161L148.396 85.4161L148.396 87.8989L150.796 87.8989L150.796 85.4161ZM150.796 47.6782L148.396 47.6782L148.396 50.161L150.796 50.1609L150.796 47.6782ZM150.796 123.154L148.396 123.154L148.396 125.637L150.796 125.637L150.796 123.154ZM150.796 28.8092L148.396 28.8092L148.396 31.292L150.796 31.292L150.796 28.8092ZM150.796 104.285L148.396 104.285L148.396 106.768L150.796 106.768L150.796 104.285ZM150.796 66.5472L148.396 66.5472L148.396 69.0299L150.796 69.0299L150.796 66.5472ZM150.796 142.023L148.396 142.023L148.396 144.506L150.796 144.506L150.796 142.023ZM244.396 0.505779L241.996 0.505778L241.996 2.98854L244.396 2.98854L244.396 0.505779ZM244.396 75.9816L241.996 75.9816L241.996 78.4644L244.396 78.4644L244.396 75.9816ZM244.396 38.2437L241.996 38.2437L241.996 40.7265L244.396 40.7265L244.396 38.2437ZM244.396 113.72L241.996 113.72L241.996 116.202L244.396 116.202L244.396 113.72ZM244.396 19.3747L241.996 19.3747L241.996 21.8575L244.396 21.8575L244.396 19.3747ZM244.396 94.8506L241.996 94.8506L241.996 97.3334L244.396 97.3334L244.396 94.8506ZM244.396 57.1127L241.996 57.1127L241.996 59.5954L244.396 59.5954L244.396 57.1127ZM244.396 132.589L241.996 132.589L241.996 135.071L244.396 135.071L244.396 132.589ZM244.396 9.94026L241.996 9.94026L241.996 12.423L244.396 12.423L244.396 9.94026ZM244.396 85.4161L241.996 85.4161L241.996 87.8989L244.396 87.8989L244.396 85.4161ZM244.396 47.6782L241.996 47.6782L241.996 50.161L244.396 50.1609L244.396 47.6782ZM244.396 123.154L241.996 123.154L241.996 125.637L244.396 125.637L244.396 123.154ZM244.396 28.8092L241.996 28.8092L241.996 31.292L244.396 31.292L244.396 28.8092ZM244.396 104.285L241.996 104.285L241.996 106.768L244.396 106.768L244.396 104.285ZM244.396 66.5472L241.996 66.5472L241.996 69.0299L244.396 69.0299L244.396 66.5472ZM244.396 142.023L241.996 142.023L241.996 144.506L244.396 144.506L244.396 142.023ZM168.796 0.505779L166.396 0.505778L166.396 2.98854L168.796 2.98854L168.796 0.505779ZM168.796 75.9816L166.396 75.9816L166.396 78.4644L168.796 78.4644L168.796 75.9816ZM168.796 38.2437L166.396 38.2437L166.396 40.7265L168.796 40.7265L168.796 38.2437ZM168.796 113.72L166.396 113.72L166.396 116.202L168.796 116.202L168.796 113.72ZM168.796 19.3747L166.396 19.3747L166.396 21.8575L168.796 21.8575L168.796 19.3747ZM168.796 94.8506L166.396 94.8506L166.396 97.3334L168.796 97.3334L168.796 94.8506ZM168.796 57.1127L166.396 57.1127L166.396 59.5954L168.796 59.5954L168.796 57.1127ZM168.796 132.589L166.396 132.589L166.396 135.071L168.796 135.071L168.796 132.589ZM168.796 9.94026L166.396 9.94026L166.396 12.423L168.796 12.423L168.796 9.94026ZM168.796 85.4161L166.396 85.4161L166.396 87.8989L168.796 87.8989L168.796 85.4161ZM168.796 47.6782L166.396 47.6782L166.396 50.161L168.796 50.161L168.796 47.6782ZM168.796 123.154L166.396 123.154L166.396 125.637L168.796 125.637L168.796 123.154ZM168.796 28.8092L166.396 28.8092L166.396 31.292L168.796 31.292L168.796 28.8092ZM168.796 104.285L166.396 104.285L166.396 106.768L168.796 106.768L168.796 104.285ZM168.796 66.5472L166.396 66.5472L166.396 69.0299L168.796 69.0299L168.796 66.5472ZM168.796 142.023L166.396 142.023L166.396 144.506L168.796 144.506L168.796 142.023ZM207.196 0.505778L204.796 0.505778L204.796 2.98854L207.196 2.98854L207.196 0.505778ZM207.196 75.9816L204.796 75.9816L204.796 78.4644L207.196 78.4644L207.196 75.9816ZM207.196 38.2437L204.796 38.2437L204.796 40.7265L207.196 40.7265L207.196 38.2437ZM207.196 113.72L204.796 113.72L204.796 116.202L207.196 116.202L207.196 113.72ZM207.196 19.3747L204.796 19.3747L204.796 21.8575L207.196 21.8575L207.196 19.3747ZM207.196 94.8506L204.796 94.8506L204.796 97.3334L207.196 97.3334L207.196 94.8506ZM207.196 57.1127L204.796 57.1127L204.796 59.5954L207.196 59.5954L207.196 57.1127ZM207.196 132.589L204.796 132.589L204.796 135.071L207.196 135.071L207.196 132.589ZM207.196 9.94026L204.796 9.94026L204.796 12.423L207.196 12.423L207.196 9.94026ZM207.196 85.4161L204.796 85.4161L204.796 87.8989L207.196 87.8989L207.196 85.4161ZM207.196 47.6782L204.796 47.6782L204.796 50.161L207.196 50.161L207.196 47.6782ZM207.196 123.154L204.796 123.154L204.796 125.637L207.196 125.637L207.196 123.154ZM207.196 28.8092L204.796 28.8092L204.796 31.292L207.196 31.292L207.196 28.8092ZM207.196 104.285L204.796 104.285L204.796 106.768L207.196 106.768L207.196 104.285ZM207.196 66.5472L204.796 66.5472L204.796 69.0299L207.196 69.0299L207.196 66.5472ZM207.196 142.023L204.796 142.023L204.796 144.506L207.196 144.506L207.196 142.023ZM131.596 0.505779L129.196 0.505779L129.196 2.98854L131.596 2.98854L131.596 0.505779ZM131.596 75.9816L129.196 75.9816L129.196 78.4644L131.596 78.4644L131.596 75.9816ZM131.596 38.2437L129.196 38.2437L129.196 40.7265L131.596 40.7265L131.596 38.2437ZM131.596 113.72L129.196 113.72L129.196 116.202L131.596 116.202L131.596 113.72ZM131.596 19.3747L129.196 19.3747L129.196 21.8575L131.596 21.8575L131.596 19.3747ZM131.596 94.8506L129.196 94.8506L129.196 97.3334L131.596 97.3334L131.596 94.8506ZM131.596 57.1127L129.196 57.1127L129.196 59.5954L131.596 59.5954L131.596 57.1127ZM131.596 132.589L129.196 132.589L129.196 135.071L131.596 135.071L131.596 132.589ZM131.596 9.94026L129.196 9.94026L129.196 12.423L131.596 12.423L131.596 9.94026ZM131.596 85.4161L129.196 85.4161L129.196 87.8989L131.596 87.8989L131.596 85.4161ZM131.596 47.6782L129.196 47.6782L129.196 50.1609L131.596 50.161L131.596 47.6782ZM131.596 123.154L129.196 123.154L129.196 125.637L131.596 125.637L131.596 123.154ZM131.596 28.8092L129.196 28.8092L129.196 31.292L131.596 31.292L131.596 28.8092ZM131.596 104.285L129.196 104.285L129.196 106.768L131.596 106.768L131.596 104.285ZM131.596 66.5472L129.196 66.5472L129.196 69.0299L131.596 69.0299L131.596 66.5472ZM131.596 142.023L129.196 142.023L129.196 144.506L131.596 144.506L131.596 142.023Z" fill="#47CC4A"/>
<path opacity="0.6" fill-rule="evenodd" clip-rule="evenodd" d="M121.719 151.798L119.319 151.798L119.319 154.281L121.719 154.281L121.719 151.798ZM121.719 227.274L119.319 227.274L119.319 229.757L121.719 229.757L121.719 227.274ZM121.719 189.536L119.319 189.536L119.319 192.019L121.719 192.019L121.719 189.536ZM121.719 265.012L119.319 265.012L119.319 267.494L121.719 267.494L121.719 265.012ZM121.719 170.667L119.319 170.667L119.319 173.15L121.719 173.15L121.719 170.667ZM121.719 246.143L119.319 246.143L119.319 248.625L121.719 248.625L121.719 246.143ZM121.719 208.405L119.319 208.405L119.319 210.888L121.719 210.888L121.719 208.405ZM121.719 283.881L119.319 283.881L119.319 286.363L121.719 286.363L121.719 283.881ZM121.719 161.232L119.319 161.232L119.319 163.715L121.719 163.715L121.719 161.232ZM121.719 236.708L119.319 236.708L119.319 239.191L121.719 239.191L121.719 236.708ZM121.719 198.97L119.319 198.97L119.319 201.453L121.719 201.453L121.719 198.97ZM121.719 274.446L119.319 274.446L119.319 276.929L121.719 276.929L121.719 274.446ZM121.719 180.101L119.319 180.101L119.319 182.584L121.719 182.584L121.719 180.101ZM121.719 255.577L119.319 255.577L119.319 258.06L121.719 258.06L121.719 255.577ZM121.719 217.839L119.319 217.839L119.319 220.322L121.719 220.322L121.719 217.839ZM121.719 293.315L119.319 293.315L119.319 295.798L121.719 295.798L121.719 293.315ZM46.1193 151.798L43.7193 151.798L43.7193 154.281L46.1193 154.281L46.1193 151.798ZM46.1193 227.274L43.7193 227.274L43.7193 229.757L46.1193 229.757L46.1193 227.274ZM46.1193 189.536L43.7193 189.536L43.7193 192.019L46.1193 192.019L46.1193 189.536ZM46.1193 265.012L43.7193 265.012L43.7193 267.494L46.1193 267.494L46.1193 265.012ZM46.1193 170.667L43.7193 170.667L43.7193 173.15L46.1193 173.15L46.1193 170.667ZM46.1193 246.143L43.7193 246.143L43.7193 248.625L46.1193 248.625L46.1193 246.143ZM46.1193 208.405L43.7193 208.405L43.7193 210.888L46.1193 210.888L46.1193 208.405ZM46.1193 283.881L43.7193 283.881L43.7193 286.363L46.1193 286.363L46.1193 283.881ZM46.1193 161.232L43.7193 161.232L43.7193 163.715L46.1193 163.715L46.1193 161.232ZM46.1193 236.708L43.7193 236.708L43.7193 239.191L46.1193 239.191L46.1193 236.708ZM46.1193 198.97L43.7193 198.97L43.7193 201.453L46.1193 201.453L46.1193 198.97ZM46.1193 274.446L43.7193 274.446L43.7193 276.929L46.1193 276.929L46.1193 274.446ZM46.1193 180.101L43.7193 180.101L43.7193 182.584L46.1193 182.584L46.1193 180.101ZM46.1193 255.577L43.7193 255.577L43.7193 258.06L46.1193 258.06L46.1193 255.577ZM46.1193 217.839L43.7193 217.839L43.7193 220.322L46.1193 220.322L46.1193 217.839ZM46.1193 293.315L43.7193 293.315L43.7193 295.798L46.1193 295.798L46.1193 293.315ZM84.5193 151.798L82.1193 151.798L82.1193 154.281L84.5193 154.281L84.5193 151.798ZM84.5193 227.274L82.1193 227.274L82.1193 229.757L84.5193 229.757L84.5193 227.274ZM84.5193 189.536L82.1193 189.536L82.1193 192.019L84.5193 192.019L84.5193 189.536ZM84.5193 265.012L82.1193 265.012L82.1193 267.494L84.5193 267.494L84.5193 265.012ZM84.5193 170.667L82.1193 170.667L82.1193 173.15L84.5193 173.15L84.5193 170.667ZM84.5193 246.143L82.1193 246.143L82.1193 248.625L84.5193 248.625L84.5193 246.143ZM84.5193 208.405L82.1193 208.405L82.1193 210.888L84.5193 210.888L84.5193 208.405ZM84.5193 283.881L82.1193 283.881L82.1193 286.363L84.5193 286.363L84.5193 283.881ZM84.5193 161.232L82.1193 161.232L82.1193 163.715L84.5193 163.715L84.5193 161.232ZM84.5193 236.708L82.1193 236.708L82.1193 239.191L84.5193 239.191L84.5193 236.708ZM84.5193 198.97L82.1193 198.97L82.1193 201.453L84.5193 201.453L84.5193 198.97ZM84.5193 274.446L82.1193 274.446L82.1193 276.929L84.5193 276.929L84.5193 274.446ZM84.5193 180.101L82.1193 180.101L82.1193 182.584L84.5193 182.584L84.5193 180.101ZM84.5193 255.577L82.1193 255.577L82.1193 258.06L84.5193 258.06L84.5193 255.577ZM84.5193 217.839L82.1193 217.839L82.1193 220.322L84.5193 220.322L84.5193 217.839ZM84.5193 293.315L82.1193 293.315L82.1193 295.798L84.5193 295.798L84.5193 293.315ZM8.91928 151.798L6.51928 151.798L6.51927 154.281L8.91927 154.281L8.91928 151.798ZM8.91928 227.274L6.51928 227.274L6.51928 229.757L8.91928 229.757L8.91928 227.274ZM8.91927 189.536L6.51927 189.536L6.51928 192.019L8.91928 192.019L8.91927 189.536ZM8.91928 265.012L6.51929 265.012L6.51927 267.494L8.91927 267.494L8.91928 265.012ZM8.91928 170.667L6.51928 170.667L6.51927 173.15L8.91927 173.15L8.91928 170.667ZM8.91928 246.143L6.51928 246.143L6.51927 248.625L8.91927 248.625L8.91928 246.143ZM8.91927 208.405L6.51927 208.405L6.51928 210.888L8.91928 210.888L8.91927 208.405ZM8.91927 283.881L6.51927 283.881L6.51928 286.363L8.91928 286.363L8.91927 283.881ZM8.91928 161.232L6.51927 161.232L6.51928 163.715L8.91928 163.715L8.91928 161.232ZM8.91927 236.708L6.51927 236.708L6.51928 239.191L8.91928 239.191L8.91927 236.708ZM8.91928 198.97L6.51928 198.97L6.51927 201.453L8.91927 201.453L8.91928 198.97ZM8.91928 274.446L6.51928 274.446L6.51928 276.929L8.91928 276.929L8.91928 274.446ZM8.91928 180.101L6.51928 180.101L6.51928 182.584L8.91928 182.584L8.91928 180.101ZM8.91927 255.577L6.51928 255.577L6.51928 258.06L8.91928 258.06L8.91927 255.577ZM8.91928 217.839L6.51928 217.839L6.51927 220.322L8.91927 220.322L8.91928 217.839ZM8.91928 293.315L6.51928 293.315L6.51927 295.798L8.91927 295.798L8.91928 293.315ZM102.519 151.798L100.119 151.798L100.119 154.281L102.519 154.281L102.519 151.798ZM102.519 227.274L100.119 227.274L100.119 229.757L102.519 229.757L102.519 227.274ZM102.519 189.536L100.119 189.536L100.119 192.019L102.519 192.019L102.519 189.536ZM102.519 265.012L100.119 265.012L100.119 267.494L102.519 267.494L102.519 265.012ZM102.519 170.667L100.119 170.667L100.119 173.15L102.519 173.15L102.519 170.667ZM102.519 246.143L100.119 246.143L100.119 248.625L102.519 248.626L102.519 246.143ZM102.519 208.405L100.119 208.405L100.119 210.888L102.519 210.888L102.519 208.405ZM102.519 283.881L100.119 283.881L100.119 286.363L102.519 286.363L102.519 283.881ZM102.519 161.232L100.119 161.232L100.119 163.715L102.519 163.715L102.519 161.232ZM102.519 236.708L100.119 236.708L100.119 239.191L102.519 239.191L102.519 236.708ZM102.519 198.97L100.119 198.97L100.119 201.453L102.519 201.453L102.519 198.97ZM102.519 274.446L100.119 274.446L100.119 276.929L102.519 276.929L102.519 274.446ZM102.519 180.101L100.119 180.101L100.119 182.584L102.519 182.584L102.519 180.101ZM102.519 255.577L100.119 255.577L100.119 258.06L102.519 258.06L102.519 255.577ZM102.519 217.839L100.119 217.839L100.119 220.322L102.519 220.322L102.519 217.839ZM102.519 293.315L100.119 293.315L100.119 295.798L102.519 295.798L102.519 293.315ZM26.9193 151.798L24.5193 151.798L24.5193 154.281L26.9193 154.281L26.9193 151.798ZM26.9193 227.274L24.5193 227.274L24.5193 229.757L26.9193 229.757L26.9193 227.274ZM26.9193 189.536L24.5193 189.536L24.5193 192.019L26.9193 192.019L26.9193 189.536ZM26.9193 265.012L24.5193 265.012L24.5193 267.494L26.9193 267.494L26.9193 265.012ZM26.9193 170.667L24.5193 170.667L24.5193 173.15L26.9193 173.15L26.9193 170.667ZM26.9193 246.143L24.5193 246.143L24.5193 248.625L26.9193 248.625L26.9193 246.143ZM26.9193 208.405L24.5193 208.405L24.5193 210.888L26.9193 210.888L26.9193 208.405ZM26.9193 283.881L24.5193 283.881L24.5193 286.363L26.9193 286.363L26.9193 283.881ZM26.9193 161.232L24.5193 161.232L24.5193 163.715L26.9193 163.715L26.9193 161.232ZM26.9193 236.708L24.5193 236.708L24.5193 239.191L26.9193 239.191L26.9193 236.708ZM26.9193 198.97L24.5193 198.97L24.5193 201.453L26.9193 201.453L26.9193 198.97ZM26.9193 274.446L24.5193 274.446L24.5193 276.929L26.9193 276.929L26.9193 274.446ZM26.9193 180.101L24.5193 180.101L24.5193 182.584L26.9193 182.584L26.9193 180.101ZM26.9193 255.577L24.5193 255.577L24.5193 258.06L26.9193 258.06L26.9193 255.577ZM26.9193 217.839L24.5193 217.839L24.5193 220.322L26.9193 220.322L26.9193 217.839ZM26.9193 293.315L24.5193 293.315L24.5193 295.798L26.9193 295.798L26.9193 293.315ZM65.3193 151.798L62.9193 151.798L62.9193 154.281L65.3193 154.281L65.3193 151.798ZM65.3193 227.274L62.9193 227.274L62.9193 229.757L65.3193 229.757L65.3193 227.274ZM65.3193 189.536L62.9193 189.536L62.9193 192.019L65.3193 192.019L65.3193 189.536ZM65.3193 265.012L62.9193 265.012L62.9193 267.494L65.3193 267.494L65.3193 265.012ZM65.3193 170.667L62.9193 170.667L62.9193 173.15L65.3193 173.15L65.3193 170.667ZM65.3193 246.143L62.9193 246.143L62.9193 248.626L65.3193 248.626L65.3193 246.143ZM65.3193 208.405L62.9193 208.405L62.9193 210.888L65.3193 210.888L65.3193 208.405ZM65.3193 283.881L62.9193 283.881L62.9193 286.363L65.3193 286.363L65.3193 283.881ZM65.3193 161.232L62.9193 161.232L62.9193 163.715L65.3193 163.715L65.3193 161.232ZM65.3193 236.708L62.9193 236.708L62.9193 239.191L65.3193 239.191L65.3193 236.708ZM65.3193 198.97L62.9193 198.97L62.9193 201.453L65.3193 201.453L65.3193 198.97ZM65.3193 274.446L62.9193 274.446L62.9193 276.929L65.3193 276.929L65.3193 274.446ZM65.3193 180.101L62.9193 180.101L62.9193 182.584L65.3193 182.584L65.3193 180.101ZM65.3193 255.577L62.9193 255.577L62.9193 258.06L65.3193 258.06L65.3193 255.577ZM65.3193 217.839L62.9193 217.839L62.9193 220.322L65.3193 220.322L65.3193 217.839ZM65.3193 293.315L62.9193 293.315L62.9193 295.798L65.3193 295.798L65.3193 293.315ZM-10.2807 151.798L-12.6807 151.798L-12.6807 154.281L-10.2807 154.281L-10.2807 151.798ZM-10.2807 227.274L-12.6807 227.274L-12.6807 229.757L-10.2807 229.757L-10.2807 227.274ZM-10.2807 189.536L-12.6807 189.536L-12.6807 192.019L-10.2807 192.019L-10.2807 189.536ZM-10.2807 265.012L-12.6807 265.012L-12.6807 267.494L-10.2807 267.494L-10.2807 265.012ZM-10.2807 170.667L-12.6807 170.667L-12.6807 173.15L-10.2807 173.15L-10.2807 170.667ZM-10.2807 246.143L-12.6807 246.143L-12.6807 248.625L-10.2807 248.625L-10.2807 246.143ZM-10.2807 208.405L-12.6807 208.405L-12.6807 210.888L-10.2807 210.888L-10.2807 208.405ZM-10.2807 283.881L-12.6807 283.881L-12.6807 286.363L-10.2807 286.363L-10.2807 283.881ZM-10.2807 161.232L-12.6807 161.232L-12.6807 163.715L-10.2807 163.715L-10.2807 161.232ZM-10.2807 236.708L-12.6807 236.708L-12.6807 239.191L-10.2807 239.191L-10.2807 236.708ZM-10.2807 198.97L-12.6807 198.97L-12.6807 201.453L-10.2807 201.453L-10.2807 198.97ZM-10.2807 274.446L-12.6807 274.446L-12.6807 276.929L-10.2807 276.929L-10.2807 274.446ZM-10.2807 180.101L-12.6807 180.101L-12.6807 182.584L-10.2807 182.584L-10.2807 180.101ZM-10.2807 255.577L-12.6807 255.577L-12.6807 258.06L-10.2807 258.06L-10.2807 255.577ZM-10.2807 217.839L-12.6807 217.839L-12.6807 220.322L-10.2807 220.322L-10.2807 217.839ZM-10.2807 293.315L-12.6807 293.315L-12.6807 295.798L-10.2807 295.798L-10.2807 293.315ZM112.119 151.798L109.719 151.798L109.719 154.281L112.119 154.281L112.119 151.798ZM112.119 227.274L109.719 227.274L109.719 229.757L112.119 229.757L112.119 227.274ZM112.119 189.536L109.719 189.536L109.719 192.019L112.119 192.019L112.119 189.536ZM112.119 265.012L109.719 265.012L109.719 267.494L112.119 267.494L112.119 265.012ZM112.119 170.667L109.719 170.667L109.719 173.15L112.119 173.15L112.119 170.667ZM112.119 246.143L109.719 246.143L109.719 248.625L112.119 248.625L112.119 246.143ZM112.119 208.405L109.719 208.405L109.719 210.888L112.119 210.888L112.119 208.405ZM112.119 283.881L109.719 283.881L109.719 286.363L112.119 286.363L112.119 283.881ZM112.119 161.232L109.719 161.232L109.719 163.715L112.119 163.715L112.119 161.232ZM112.119 236.708L109.719 236.708L109.719 239.191L112.119 239.191L112.119 236.708ZM112.119 198.97L109.719 198.97L109.719 201.453L112.119 201.453L112.119 198.97ZM112.119 274.446L109.719 274.446L109.719 276.929L112.119 276.929L112.119 274.446ZM112.119 180.101L109.719 180.101L109.719 182.584L112.119 182.584L112.119 180.101ZM112.119 255.577L109.719 255.577L109.719 258.06L112.119 258.06L112.119 255.577ZM112.119 217.839L109.719 217.839L109.719 220.322L112.119 220.322L112.119 217.839ZM112.119 293.315L109.719 293.315L109.719 295.798L112.119 295.798L112.119 293.315ZM36.5193 151.798L34.1193 151.798L34.1193 154.281L36.5193 154.281L36.5193 151.798ZM36.5193 227.274L34.1193 227.274L34.1193 229.757L36.5193 229.757L36.5193 227.274ZM36.5193 189.536L34.1193 189.536L34.1193 192.019L36.5193 192.019L36.5193 189.536ZM36.5193 265.012L34.1193 265.012L34.1193 267.494L36.5193 267.494L36.5193 265.012ZM36.5193 170.667L34.1193 170.667L34.1193 173.15L36.5193 173.15L36.5193 170.667ZM36.5193 246.143L34.1193 246.143L34.1193 248.625L36.5193 248.625L36.5193 246.143ZM36.5193 208.405L34.1193 208.405L34.1193 210.888L36.5193 210.888L36.5193 208.405ZM36.5193 283.881L34.1193 283.881L34.1193 286.363L36.5193 286.363L36.5193 283.881ZM36.5193 161.232L34.1193 161.232L34.1193 163.715L36.5193 163.715L36.5193 161.232ZM36.5193 236.708L34.1193 236.708L34.1193 239.191L36.5193 239.191L36.5193 236.708ZM36.5193 198.97L34.1193 198.97L34.1193 201.453L36.5193 201.453L36.5193 198.97ZM36.5193 274.446L34.1193 274.446L34.1193 276.929L36.5193 276.929L36.5193 274.446ZM36.5193 180.101L34.1193 180.101L34.1193 182.584L36.5193 182.584L36.5193 180.101ZM36.5193 255.577L34.1193 255.577L34.1193 258.06L36.5193 258.06L36.5193 255.577ZM36.5193 217.839L34.1193 217.839L34.1193 220.322L36.5193 220.322L36.5193 217.839ZM36.5193 293.315L34.1193 293.315L34.1193 295.798L36.5193 295.798L36.5193 293.315ZM74.9193 151.798L72.5193 151.798L72.5193 154.281L74.9193 154.281L74.9193 151.798ZM74.9193 227.274L72.5193 227.274L72.5193 229.757L74.9193 229.757L74.9193 227.274ZM74.9193 189.536L72.5193 189.536L72.5193 192.019L74.9193 192.019L74.9193 189.536ZM74.9193 265.012L72.5193 265.012L72.5193 267.494L74.9193 267.494L74.9193 265.012ZM74.9193 170.667L72.5193 170.667L72.5193 173.15L74.9193 173.15L74.9193 170.667ZM74.9193 246.143L72.5193 246.143L72.5193 248.625L74.9193 248.626L74.9193 246.143ZM74.9193 208.405L72.5193 208.405L72.5193 210.888L74.9193 210.888L74.9193 208.405ZM74.9193 283.881L72.5193 283.881L72.5193 286.363L74.9193 286.363L74.9193 283.881ZM74.9193 161.232L72.5193 161.232L72.5193 163.715L74.9193 163.715L74.9193 161.232ZM74.9193 236.708L72.5193 236.708L72.5193 239.191L74.9193 239.191L74.9193 236.708ZM74.9193 198.97L72.5193 198.97L72.5193 201.453L74.9193 201.453L74.9193 198.97ZM74.9193 274.446L72.5193 274.446L72.5193 276.929L74.9193 276.929L74.9193 274.446ZM74.9193 180.101L72.5193 180.101L72.5193 182.584L74.9193 182.584L74.9193 180.101ZM74.9193 255.577L72.5193 255.577L72.5193 258.06L74.9193 258.06L74.9193 255.577ZM74.9193 217.839L72.5193 217.839L72.5193 220.322L74.9193 220.322L74.9193 217.839ZM74.9193 293.315L72.5193 293.315L72.5193 295.798L74.9193 295.798L74.9193 293.315ZM-0.680719 151.798L-3.08072 151.798L-3.08073 154.281L-0.680728 154.281L-0.680719 151.798ZM-0.680721 227.274L-3.08072 227.274L-3.08072 229.757L-0.680716 229.757L-0.680721 227.274ZM-0.680727 189.536L-3.08073 189.536L-3.08072 192.019L-0.680722 192.019L-0.680727 189.536ZM-0.680716 265.012L-3.08073 265.012L-3.08072 267.494L-0.680724 267.494L-0.680716 265.012ZM-0.680715 170.667L-3.08072 170.667L-3.08073 173.15L-0.680725 173.15L-0.680715 170.667ZM-0.680718 246.143L-3.08072 246.143L-3.08073 248.625L-0.680728 248.625L-0.680718 246.143ZM-0.680724 208.405L-3.08073 208.405L-3.08072 210.888L-0.680719 210.888L-0.680724 208.405ZM-0.680726 283.881L-3.08073 283.881L-3.08072 286.363L-0.680723 286.363L-0.680726 283.881ZM-0.680725 161.232L-3.08072 161.232L-3.08072 163.715L-0.68072 163.715L-0.680725 161.232ZM-0.680728 236.708L-3.08073 236.708L-3.08072 239.191L-0.680721 239.191L-0.680728 236.708ZM-0.680719 198.97L-3.08072 198.97L-3.08073 201.453L-0.680729 201.453L-0.680719 198.97ZM-0.680721 274.446L-3.08072 274.446L-3.08072 276.929L-0.680733 276.929L-0.680721 274.446ZM-0.680722 180.101L-3.08072 180.101L-3.08072 182.584L-0.680717 182.584L-0.680722 180.101ZM-0.680724 255.577L-3.08072 255.577L-3.08072 258.06L-0.680718 258.06L-0.680724 255.577ZM-0.680716 217.839L-3.08073 217.839L-3.08073 220.322L-0.680724 220.322L-0.680716 217.839ZM-0.68072 293.315L-3.08072 293.315L-3.08073 295.798L-0.680728 295.798L-0.68072 293.315ZM92.9193 151.798L90.5193 151.798L90.5193 154.281L92.9193 154.281L92.9193 151.798ZM92.9193 227.274L90.5193 227.274L90.5193 229.757L92.9193 229.757L92.9193 227.274ZM92.9193 189.536L90.5193 189.536L90.5193 192.019L92.9193 192.019L92.9193 189.536ZM92.9193 265.012L90.5193 265.012L90.5193 267.494L92.9193 267.494L92.9193 265.012ZM92.9193 170.667L90.5193 170.667L90.5193 173.15L92.9193 173.15L92.9193 170.667ZM92.9193 246.143L90.5193 246.143L90.5193 248.626L92.9193 248.625L92.9193 246.143ZM92.9193 208.405L90.5193 208.405L90.5193 210.888L92.9193 210.888L92.9193 208.405ZM92.9193 283.881L90.5193 283.881L90.5193 286.363L92.9193 286.363L92.9193 283.881ZM92.9193 161.232L90.5193 161.232L90.5193 163.715L92.9193 163.715L92.9193 161.232ZM92.9193 236.708L90.5193 236.708L90.5193 239.191L92.9193 239.191L92.9193 236.708ZM92.9193 198.97L90.5193 198.97L90.5193 201.453L92.9193 201.453L92.9193 198.97ZM92.9193 274.446L90.5193 274.446L90.5193 276.929L92.9193 276.929L92.9193 274.446ZM92.9193 180.101L90.5193 180.101L90.5193 182.584L92.9193 182.584L92.9193 180.101ZM92.9193 255.577L90.5193 255.577L90.5193 258.06L92.9193 258.06L92.9193 255.577ZM92.9193 217.839L90.5193 217.839L90.5193 220.322L92.9193 220.322L92.9193 217.839ZM92.9193 293.315L90.5193 293.315L90.5193 295.798L92.9193 295.798L92.9193 293.315ZM17.3193 151.798L14.9193 151.798L14.9193 154.281L17.3193 154.281L17.3193 151.798ZM17.3193 227.274L14.9193 227.274L14.9193 229.757L17.3193 229.757L17.3193 227.274ZM17.3193 189.536L14.9193 189.536L14.9193 192.019L17.3193 192.019L17.3193 189.536ZM17.3193 265.012L14.9193 265.012L14.9193 267.494L17.3193 267.494L17.3193 265.012ZM17.3193 170.667L14.9193 170.667L14.9193 173.15L17.3193 173.15L17.3193 170.667ZM17.3193 246.143L14.9193 246.143L14.9193 248.625L17.3193 248.625L17.3193 246.143ZM17.3193 208.405L14.9193 208.405L14.9193 210.888L17.3193 210.888L17.3193 208.405ZM17.3193 283.881L14.9193 283.881L14.9193 286.363L17.3193 286.363L17.3193 283.881ZM17.3193 161.232L14.9193 161.232L14.9193 163.715L17.3193 163.715L17.3193 161.232ZM17.3193 236.708L14.9193 236.708L14.9193 239.191L17.3193 239.191L17.3193 236.708ZM17.3193 198.97L14.9193 198.97L14.9193 201.453L17.3193 201.453L17.3193 198.97ZM17.3193 274.446L14.9193 274.446L14.9193 276.929L17.3193 276.929L17.3193 274.446ZM17.3193 180.101L14.9193 180.101L14.9193 182.584L17.3193 182.584L17.3193 180.101ZM17.3193 255.577L14.9193 255.577L14.9193 258.06L17.3193 258.06L17.3193 255.577ZM17.3193 217.839L14.9193 217.839L14.9193 220.322L17.3193 220.322L17.3193 217.839ZM17.3193 293.315L14.9193 293.315L14.9193 295.798L17.3193 295.798L17.3193 293.315ZM55.7193 151.798L53.3193 151.798L53.3193 154.281L55.7193 154.281L55.7193 151.798ZM55.7193 227.274L53.3193 227.274L53.3193 229.757L55.7193 229.757L55.7193 227.274ZM55.7193 189.536L53.3193 189.536L53.3193 192.019L55.7193 192.019L55.7193 189.536ZM55.7193 265.012L53.3193 265.012L53.3193 267.494L55.7193 267.494L55.7193 265.012ZM55.7193 170.667L53.3193 170.667L53.3193 173.15L55.7193 173.15L55.7193 170.667ZM55.7193 246.143L53.3193 246.143L53.3193 248.625L55.7193 248.625L55.7193 246.143ZM55.7193 208.405L53.3193 208.405L53.3193 210.888L55.7193 210.888L55.7193 208.405ZM55.7193 283.881L53.3193 283.881L53.3193 286.363L55.7193 286.363L55.7193 283.881ZM55.7193 161.232L53.3193 161.232L53.3193 163.715L55.7193 163.715L55.7193 161.232ZM55.7193 236.708L53.3193 236.708L53.3193 239.191L55.7193 239.191L55.7193 236.708ZM55.7193 198.97L53.3193 198.97L53.3193 201.453L55.7193 201.453L55.7193 198.97ZM55.7193 274.446L53.3193 274.446L53.3193 276.929L55.7193 276.929L55.7193 274.446ZM55.7193 180.101L53.3193 180.101L53.3193 182.584L55.7193 182.584L55.7193 180.101ZM55.7193 255.577L53.3193 255.577L53.3193 258.06L55.7193 258.06L55.7193 255.577ZM55.7193 217.839L53.3193 217.839L53.3193 220.322L55.7193 220.322L55.7193 217.839ZM55.7193 293.315L53.3193 293.315L53.3193 295.798L55.7193 295.798L55.7193 293.315ZM-19.8807 151.798L-22.2807 151.798L-22.2807 154.281L-19.8807 154.281L-19.8807 151.798ZM-19.8807 227.274L-22.2807 227.274L-22.2807 229.757L-19.8807 229.757L-19.8807 227.274ZM-19.8807 189.536L-22.2807 189.536L-22.2807 192.019L-19.8807 192.019L-19.8807 189.536ZM-19.8807 265.012L-22.2807 265.012L-22.2807 267.494L-19.8807 267.494L-19.8807 265.012ZM-19.8807 170.667L-22.2807 170.667L-22.2807 173.15L-19.8807 173.15L-19.8807 170.667ZM-19.8807 246.143L-22.2807 246.143L-22.2807 248.625L-19.8807 248.625L-19.8807 246.143ZM-19.8807 208.405L-22.2807 208.405L-22.2807 210.888L-19.8807 210.888L-19.8807 208.405ZM-19.8807 283.881L-22.2807 283.881L-22.2807 286.363L-19.8807 286.363L-19.8807 283.881ZM-19.8807 161.232L-22.2807 161.232L-22.2807 163.715L-19.8807 163.715L-19.8807 161.232ZM-19.8807 236.708L-22.2807 236.708L-22.2807 239.191L-19.8807 239.191L-19.8807 236.708ZM-19.8807 198.97L-22.2807 198.97L-22.2807 201.453L-19.8807 201.453L-19.8807 198.97ZM-19.8807 274.446L-22.2807 274.446L-22.2807 276.929L-19.8807 276.929L-19.8807 274.446ZM-19.8807 180.101L-22.2807 180.101L-22.2807 182.584L-19.8807 182.584L-19.8807 180.101ZM-19.8807 255.577L-22.2807 255.577L-22.2807 258.06L-19.8807 258.06L-19.8807 255.577ZM-19.8807 217.839L-22.2807 217.839L-22.2807 220.322L-19.8807 220.322L-19.8807 217.839ZM-19.8807 293.315L-22.2807 293.315L-22.2807 295.798L-19.8807 295.798L-19.8807 293.315ZM121.688 0.505778L119.288 0.505778L119.288 2.98854L121.688 2.98854L121.688 0.505778ZM121.688 75.9816L119.288 75.9816L119.288 78.4644L121.688 78.4644L121.688 75.9816ZM121.688 38.2437L119.288 38.2437L119.288 40.7265L121.688 40.7265L121.688 38.2437ZM121.688 113.72L119.288 113.72L119.288 116.202L121.688 116.202L121.688 113.72ZM121.688 19.3747L119.288 19.3747L119.288 21.8575L121.688 21.8575L121.688 19.3747ZM121.688 94.8506L119.288 94.8506L119.288 97.3334L121.688 97.3334L121.688 94.8506ZM121.688 57.1127L119.288 57.1127L119.288 59.5954L121.688 59.5954L121.688 57.1127ZM121.688 132.589L119.288 132.589L119.288 135.071L121.688 135.071L121.688 132.589ZM121.688 9.94026L119.288 9.94026L119.288 12.423L121.688 12.423L121.688 9.94026ZM121.688 85.4161L119.288 85.4161L119.288 87.8989L121.688 87.8989L121.688 85.4161ZM121.688 47.6782L119.288 47.6782L119.288 50.1609L121.688 50.161L121.688 47.6782ZM121.688 123.154L119.288 123.154L119.288 125.637L121.688 125.637L121.688 123.154ZM121.688 28.8092L119.288 28.8092L119.288 31.292L121.688 31.292L121.688 28.8092ZM121.688 104.285L119.288 104.285L119.288 106.768L121.688 106.768L121.688 104.285ZM121.688 66.5472L119.288 66.5472L119.288 69.0299L121.688 69.0299L121.688 66.5472ZM121.688 142.023L119.288 142.023L119.288 144.506L121.688 144.506L121.688 142.023ZM46.0877 0.505778L43.6877 0.505778L43.6877 2.98854L46.0877 2.98854L46.0877 0.505778ZM46.0877 75.9816L43.6877 75.9816L43.6877 78.4644L46.0877 78.4644L46.0877 75.9816ZM46.0877 38.2437L43.6877 38.2437L43.6877 40.7265L46.0877 40.7265L46.0877 38.2437ZM46.0877 113.72L43.6877 113.72L43.6877 116.202L46.0877 116.202L46.0877 113.72ZM46.0877 19.3747L43.6877 19.3747L43.6877 21.8575L46.0877 21.8575L46.0877 19.3747ZM46.0877 94.8506L43.6877 94.8506L43.6877 97.3334L46.0877 97.3334L46.0877 94.8506ZM46.0877 57.1127L43.6877 57.1127L43.6877 59.5954L46.0877 59.5954L46.0877 57.1127ZM46.0877 132.589L43.6877 132.589L43.6877 135.071L46.0877 135.071L46.0877 132.589ZM46.0877 9.94026L43.6877 9.94026L43.6877 12.423L46.0877 12.423L46.0877 9.94026ZM46.0877 85.4161L43.6877 85.4161L43.6877 87.8989L46.0877 87.8989L46.0877 85.4161ZM46.0877 47.6782L43.6877 47.6782L43.6877 50.161L46.0877 50.161L46.0877 47.6782ZM46.0877 123.154L43.6877 123.154L43.6877 125.637L46.0877 125.637L46.0877 123.154ZM46.0877 28.8092L43.6877 28.8092L43.6877 31.292L46.0877 31.292L46.0877 28.8092ZM46.0877 104.285L43.6877 104.285L43.6877 106.768L46.0877 106.768L46.0877 104.285ZM46.0877 66.5472L43.6877 66.5472L43.6877 69.0299L46.0877 69.0299L46.0877 66.5472ZM46.0877 142.023L43.6877 142.023L43.6877 144.506L46.0877 144.506L46.0877 142.023ZM84.4877 0.505779L82.0877 0.505778L82.0877 2.98854L84.4877 2.98854L84.4877 0.505779ZM84.4877 75.9816L82.0877 75.9816L82.0877 78.4644L84.4877 78.4644L84.4877 75.9816ZM84.4877 38.2437L82.0877 38.2437L82.0877 40.7265L84.4877 40.7265L84.4877 38.2437ZM84.4877 113.72L82.0877 113.72L82.0877 116.202L84.4877 116.202L84.4877 113.72ZM84.4877 19.3747L82.0877 19.3747L82.0877 21.8575L84.4877 21.8575L84.4877 19.3747ZM84.4877 94.8506L82.0877 94.8506L82.0877 97.3334L84.4877 97.3334L84.4877 94.8506ZM84.4877 57.1127L82.0877 57.1127L82.0877 59.5954L84.4877 59.5954L84.4877 57.1127ZM84.4877 132.589L82.0877 132.589L82.0877 135.071L84.4877 135.071L84.4877 132.589ZM84.4877 9.94026L82.0877 9.94026L82.0877 12.423L84.4877 12.423L84.4877 9.94026ZM84.4877 85.4161L82.0877 85.4161L82.0877 87.8989L84.4877 87.8989L84.4877 85.4161ZM84.4877 47.6782L82.0877 47.6782L82.0877 50.1609L84.4877 50.161L84.4877 47.6782ZM84.4877 123.154L82.0877 123.154L82.0877 125.637L84.4877 125.637L84.4877 123.154ZM84.4877 28.8092L82.0877 28.8092L82.0877 31.292L84.4877 31.292L84.4877 28.8092ZM84.4877 104.285L82.0877 104.285L82.0877 106.768L84.4877 106.768L84.4877 104.285ZM84.4877 66.5472L82.0877 66.5472L82.0877 69.0299L84.4877 69.0299L84.4877 66.5472ZM84.4877 142.023L82.0877 142.023L82.0877 144.506L84.4877 144.506L84.4877 142.023ZM8.88765 0.505779L6.48765 0.505779L6.48766 2.98854L8.88766 2.98854L8.88765 0.505779ZM8.88765 75.9816L6.48765 75.9816L6.48765 78.4644L8.88765 78.4644L8.88765 75.9816ZM8.88766 38.2437L6.48766 38.2437L6.48765 40.7265L8.88765 40.7265L8.88766 38.2437ZM8.88766 113.72L6.48766 113.72L6.48766 116.202L8.88766 116.202L8.88766 113.72ZM8.88765 19.3747L6.48766 19.3747L6.48766 21.8575L8.88766 21.8575L8.88765 19.3747ZM8.88765 94.8506L6.48765 94.8506L6.48766 97.3334L8.88766 97.3334L8.88765 94.8506ZM8.88766 57.1127L6.48766 57.1127L6.48765 59.5954L8.88765 59.5954L8.88766 57.1127ZM8.88766 132.589L6.48766 132.589L6.48765 135.071L8.88765 135.071L8.88766 132.589ZM8.88766 9.94026L6.48766 9.94026L6.48765 12.423L8.88765 12.423L8.88766 9.94026ZM8.88766 85.4161L6.48766 85.4161L6.48765 87.8989L8.88765 87.8989L8.88766 85.4161ZM8.88765 47.6782L6.48765 47.6782L6.48766 50.161L8.88766 50.161L8.88765 47.6782ZM8.88765 123.154L6.48765 123.154L6.48766 125.637L8.88765 125.637L8.88765 123.154ZM8.88765 28.8092L6.48765 28.8092L6.48765 31.292L8.88765 31.292L8.88765 28.8092ZM8.88766 104.285L6.48766 104.285L6.48765 106.768L8.88765 106.768L8.88766 104.285ZM8.88766 66.5472L6.48766 66.5472L6.48766 69.0299L8.88766 69.0299L8.88766 66.5472ZM8.88765 142.023L6.48765 142.023L6.48766 144.506L8.88766 144.506L8.88765 142.023ZM102.488 0.505779L100.088 0.505778L100.088 2.98854L102.488 2.98854L102.488 0.505779ZM102.488 75.9816L100.088 75.9816L100.088 78.4644L102.488 78.4644L102.488 75.9816ZM102.488 38.2437L100.088 38.2437L100.088 40.7265L102.488 40.7265L102.488 38.2437ZM102.488 113.72L100.088 113.72L100.088 116.202L102.488 116.202L102.488 113.72ZM102.488 19.3747L100.088 19.3747L100.088 21.8575L102.488 21.8575L102.488 19.3747ZM102.488 94.8506L100.088 94.8506L100.088 97.3334L102.488 97.3334L102.488 94.8506ZM102.488 57.1127L100.088 57.1127L100.088 59.5954L102.488 59.5954L102.488 57.1127ZM102.488 132.589L100.088 132.589L100.088 135.071L102.488 135.071L102.488 132.589ZM102.488 9.94026L100.088 9.94026L100.088 12.423L102.488 12.423L102.488 9.94026ZM102.488 85.4161L100.088 85.4161L100.088 87.8989L102.488 87.8989L102.488 85.4161ZM102.488 47.6782L100.088 47.6782L100.088 50.161L102.488 50.161L102.488 47.6782ZM102.488 123.154L100.088 123.154L100.088 125.637L102.488 125.637L102.488 123.154ZM102.488 28.8092L100.088 28.8092L100.088 31.292L102.488 31.292L102.488 28.8092ZM102.488 104.285L100.088 104.285L100.088 106.768L102.488 106.768L102.488 104.285ZM102.488 66.5472L100.088 66.5472L100.088 69.0299L102.488 69.0299L102.488 66.5472ZM102.488 142.023L100.088 142.023L100.088 144.506L102.488 144.506L102.488 142.023ZM26.8877 0.505778L24.4877 0.505778L24.4877 2.98854L26.8877 2.98854L26.8877 0.505778ZM26.8877 75.9816L24.4877 75.9816L24.4877 78.4644L26.8877 78.4644L26.8877 75.9816ZM26.8877 38.2437L24.4877 38.2437L24.4877 40.7265L26.8877 40.7265L26.8877 38.2437ZM26.8877 113.72L24.4877 113.72L24.4877 116.202L26.8877 116.202L26.8877 113.72ZM26.8877 19.3747L24.4877 19.3747L24.4877 21.8575L26.8877 21.8575L26.8877 19.3747ZM26.8877 94.8506L24.4877 94.8506L24.4877 97.3334L26.8877 97.3334L26.8877 94.8506ZM26.8877 57.1127L24.4877 57.1127L24.4877 59.5954L26.8877 59.5954L26.8877 57.1127ZM26.8877 132.589L24.4877 132.589L24.4876 135.071L26.8877 135.071L26.8877 132.589ZM26.8877 9.94026L24.4877 9.94026L24.4877 12.423L26.8877 12.423L26.8877 9.94026ZM26.8877 85.4161L24.4877 85.4161L24.4877 87.8989L26.8877 87.8989L26.8877 85.4161ZM26.8877 47.6782L24.4877 47.6782L24.4877 50.161L26.8877 50.1609L26.8877 47.6782ZM26.8877 123.154L24.4876 123.154L24.4877 125.637L26.8877 125.637L26.8877 123.154ZM26.8877 28.8092L24.4877 28.8092L24.4877 31.292L26.8877 31.292L26.8877 28.8092ZM26.8877 104.285L24.4877 104.285L24.4877 106.768L26.8877 106.768L26.8877 104.285ZM26.8877 66.5472L24.4877 66.5472L24.4877 69.0299L26.8877 69.0299L26.8877 66.5472ZM26.8877 142.023L24.4877 142.023L24.4877 144.506L26.8877 144.506L26.8877 142.023ZM65.2877 0.505779L62.8877 0.505779L62.8877 2.98854L65.2877 2.98854L65.2877 0.505779ZM65.2877 75.9816L62.8877 75.9816L62.8877 78.4644L65.2877 78.4644L65.2877 75.9816ZM65.2877 38.2437L62.8877 38.2437L62.8877 40.7265L65.2877 40.7265L65.2877 38.2437ZM65.2877 113.72L62.8877 113.72L62.8877 116.202L65.2877 116.202L65.2877 113.72ZM65.2877 19.3747L62.8877 19.3747L62.8877 21.8575L65.2877 21.8575L65.2877 19.3747ZM65.2877 94.8506L62.8877 94.8506L62.8877 97.3334L65.2877 97.3334L65.2877 94.8506ZM65.2877 57.1127L62.8877 57.1127L62.8877 59.5954L65.2877 59.5954L65.2877 57.1127ZM65.2877 132.589L62.8877 132.589L62.8877 135.071L65.2877 135.071L65.2877 132.589ZM65.2877 9.94026L62.8877 9.94026L62.8877 12.423L65.2877 12.423L65.2877 9.94026ZM65.2877 85.4161L62.8877 85.4161L62.8877 87.8989L65.2877 87.8989L65.2877 85.4161ZM65.2877 47.6782L62.8877 47.6782L62.8877 50.161L65.2877 50.1609L65.2877 47.6782ZM65.2877 123.154L62.8877 123.154L62.8876 125.637L65.2876 125.637L65.2877 123.154ZM65.2877 28.8092L62.8877 28.8092L62.8877 31.292L65.2877 31.292L65.2877 28.8092ZM65.2877 104.285L62.8877 104.285L62.8877 106.768L65.2877 106.768L65.2877 104.285ZM65.2877 66.5472L62.8877 66.5472L62.8877 69.0299L65.2877 69.0299L65.2877 66.5472ZM65.2877 142.023L62.8877 142.023L62.8877 144.506L65.2877 144.506L65.2877 142.023ZM-10.3123 0.505779L-12.7123 0.505779L-12.7123 2.98854L-10.3123 2.98854L-10.3123 0.505779ZM-10.3123 75.9816L-12.7123 75.9816L-12.7123 78.4644L-10.3123 78.4644L-10.3123 75.9816ZM-10.3123 38.2437L-12.7123 38.2437L-12.7123 40.7265L-10.3123 40.7265L-10.3123 38.2437ZM-10.3123 113.72L-12.7123 113.72L-12.7124 116.202L-10.3123 116.202L-10.3123 113.72ZM-10.3123 19.3747L-12.7123 19.3747L-12.7123 21.8575L-10.3123 21.8575L-10.3123 19.3747ZM-10.3123 94.8506L-12.7123 94.8506L-12.7123 97.3334L-10.3123 97.3334L-10.3123 94.8506ZM-10.3124 57.1127L-12.7124 57.1127L-12.7123 59.5954L-10.3123 59.5954L-10.3124 57.1127ZM-10.3123 132.589L-12.7123 132.589L-12.7124 135.071L-10.3123 135.071L-10.3123 132.589ZM-10.3124 9.94026L-12.7123 9.94026L-12.7123 12.423L-10.3123 12.423L-10.3124 9.94026ZM-10.3123 85.4161L-12.7123 85.4161L-12.7123 87.8989L-10.3123 87.8989L-10.3123 85.4161ZM-10.3123 47.6782L-12.7123 47.6782L-12.7123 50.161L-10.3123 50.161L-10.3123 47.6782ZM-10.3123 123.154L-12.7123 123.154L-12.7123 125.637L-10.3123 125.637L-10.3123 123.154ZM-10.3123 28.8092L-12.7123 28.8092L-12.7123 31.292L-10.3123 31.292L-10.3123 28.8092ZM-10.3124 104.285L-12.7124 104.285L-12.7123 106.768L-10.3123 106.768L-10.3124 104.285ZM-10.3123 66.5472L-12.7123 66.5472L-12.7124 69.0299L-10.3123 69.0299L-10.3123 66.5472ZM-10.3123 142.023L-12.7123 142.023L-12.7123 144.506L-10.3123 144.506L-10.3123 142.023ZM112.088 0.505779L109.688 0.505779L109.688 2.98854L112.088 2.98854L112.088 0.505779ZM112.088 75.9816L109.688 75.9816L109.688 78.4644L112.088 78.4644L112.088 75.9816ZM112.088 38.2437L109.688 38.2437L109.688 40.7265L112.088 40.7265L112.088 38.2437ZM112.088 113.72L109.688 113.72L109.688 116.202L112.088 116.202L112.088 113.72ZM112.088 19.3747L109.688 19.3747L109.688 21.8575L112.088 21.8575L112.088 19.3747ZM112.088 94.8506L109.688 94.8506L109.688 97.3334L112.088 97.3334L112.088 94.8506ZM112.088 57.1127L109.688 57.1127L109.688 59.5954L112.088 59.5954L112.088 57.1127ZM112.088 132.589L109.688 132.589L109.688 135.071L112.088 135.071L112.088 132.589ZM112.088 9.94026L109.688 9.94026L109.688 12.423L112.088 12.423L112.088 9.94026ZM112.088 85.4161L109.688 85.4161L109.688 87.8989L112.088 87.8989L112.088 85.4161ZM112.088 47.6782L109.688 47.6782L109.688 50.161L112.088 50.161L112.088 47.6782ZM112.088 123.154L109.688 123.154L109.688 125.637L112.088 125.637L112.088 123.154ZM112.088 28.8092L109.688 28.8092L109.688 31.292L112.088 31.292L112.088 28.8092ZM112.088 104.285L109.688 104.285L109.688 106.768L112.088 106.768L112.088 104.285ZM112.088 66.5472L109.688 66.5472L109.688 69.0299L112.088 69.0299L112.088 66.5472ZM112.088 142.023L109.688 142.023L109.688 144.506L112.088 144.506L112.088 142.023ZM36.4877 0.505778L34.0877 0.505778L34.0877 2.98854L36.4877 2.98854L36.4877 0.505778ZM36.4877 75.9816L34.0877 75.9816L34.0877 78.4644L36.4877 78.4644L36.4877 75.9816ZM36.4877 38.2437L34.0877 38.2437L34.0877 40.7265L36.4877 40.7265L36.4877 38.2437ZM36.4877 113.72L34.0877 113.72L34.0877 116.202L36.4877 116.202L36.4877 113.72ZM36.4877 19.3747L34.0877 19.3747L34.0877 21.8575L36.4877 21.8575L36.4877 19.3747ZM36.4877 94.8506L34.0877 94.8506L34.0877 97.3334L36.4877 97.3334L36.4877 94.8506ZM36.4877 57.1127L34.0877 57.1127L34.0877 59.5954L36.4877 59.5954L36.4877 57.1127ZM36.4877 132.589L34.0877 132.589L34.0877 135.071L36.4877 135.071L36.4877 132.589ZM36.4877 9.94026L34.0877 9.94026L34.0877 12.423L36.4877 12.423L36.4877 9.94026ZM36.4877 85.4161L34.0877 85.4161L34.0877 87.8989L36.4877 87.8989L36.4877 85.4161ZM36.4877 47.6782L34.0877 47.6782L34.0877 50.161L36.4877 50.161L36.4877 47.6782ZM36.4877 123.154L34.0877 123.154L34.0877 125.637L36.4877 125.637L36.4877 123.154ZM36.4877 28.8092L34.0877 28.8092L34.0877 31.292L36.4877 31.292L36.4877 28.8092ZM36.4877 104.285L34.0877 104.285L34.0877 106.768L36.4877 106.768L36.4877 104.285ZM36.4877 66.5472L34.0877 66.5472L34.0877 69.0299L36.4877 69.0299L36.4877 66.5472ZM36.4877 142.023L34.0876 142.023L34.0877 144.506L36.4877 144.506L36.4877 142.023ZM74.8877 0.505779L72.4877 0.505779L72.4877 2.98854L74.8877 2.98854L74.8877 0.505779ZM74.8877 75.9816L72.4877 75.9816L72.4877 78.4644L74.8877 78.4644L74.8877 75.9816ZM74.8877 38.2437L72.4877 38.2437L72.4877 40.7265L74.8877 40.7265L74.8877 38.2437ZM74.8877 113.72L72.4877 113.72L72.4877 116.202L74.8877 116.202L74.8877 113.72ZM74.8877 19.3747L72.4877 19.3747L72.4877 21.8575L74.8877 21.8575L74.8877 19.3747ZM74.8877 94.8506L72.4877 94.8506L72.4877 97.3334L74.8877 97.3334L74.8877 94.8506ZM74.8877 57.1127L72.4877 57.1127L72.4877 59.5954L74.8877 59.5954L74.8877 57.1127ZM74.8877 132.589L72.4877 132.589L72.4877 135.071L74.8877 135.071L74.8877 132.589ZM74.8877 9.94026L72.4877 9.94026L72.4877 12.423L74.8877 12.423L74.8877 9.94026ZM74.8877 85.4161L72.4877 85.4161L72.4877 87.8989L74.8877 87.8989L74.8877 85.4161ZM74.8877 47.6782L72.4877 47.6782L72.4877 50.161L74.8877 50.161L74.8877 47.6782ZM74.8877 123.154L72.4877 123.154L72.4877 125.637L74.8877 125.637L74.8877 123.154ZM74.8877 28.8092L72.4877 28.8092L72.4877 31.292L74.8877 31.292L74.8877 28.8092ZM74.8877 104.285L72.4877 104.285L72.4877 106.768L74.8877 106.768L74.8877 104.285ZM74.8877 66.5472L72.4877 66.5472L72.4877 69.0299L74.8877 69.0299L74.8877 66.5472ZM74.8877 142.023L72.4877 142.023L72.4877 144.506L74.8877 144.506L74.8877 142.023ZM-0.712347 0.505779L-3.11235 0.505779L-3.11234 2.98854L-0.712342 2.98854L-0.712347 0.505779ZM-0.71235 75.9816L-3.11235 75.9816L-3.11234 78.4644L-0.712344 78.4644L-0.71235 75.9816ZM-0.712341 38.2437L-3.11234 38.2437L-3.11235 40.7265L-0.712351 40.7265L-0.712341 38.2437ZM-0.712344 113.72L-3.11234 113.72L-3.11234 116.202L-0.712338 116.202L-0.712344 113.72ZM-0.712344 19.3747L-3.11234 19.3747L-3.11234 21.8575L-0.712339 21.8575L-0.712344 19.3747ZM-0.712347 94.8506L-3.11235 94.8506L-3.11234 97.3334L-0.712341 97.3334L-0.712347 94.8506ZM-0.712338 57.1127L-3.11235 57.1127L-3.11235 59.5954L-0.712347 59.5954L-0.712338 57.1127ZM-0.712342 132.589L-3.11234 132.589L-3.11235 135.071L-0.712352 135.071L-0.712342 132.589ZM-0.712338 9.94026L-3.11234 9.94026L-3.11235 12.423L-0.712348 12.423L-0.712338 9.94026ZM-0.712341 85.4161L-3.11234 85.4161L-3.11235 87.8989L-0.71235 87.8989L-0.712341 85.4161ZM-0.712347 47.6782L-3.11235 47.6782L-3.11234 50.161L-0.712342 50.1609L-0.712347 47.6782ZM-0.71235 123.154L-3.11235 123.154L-3.11234 125.637L-0.712345 125.637L-0.71235 123.154ZM-0.71235 28.8092L-3.11235 28.8092L-3.11234 31.292L-0.712345 31.292L-0.71235 28.8092ZM-0.712338 104.285L-3.11235 104.285L-3.11235 106.768L-0.712347 106.768L-0.712338 104.285ZM-0.712344 66.5472L-3.11234 66.5472L-3.11234 69.0299L-0.712339 69.0299L-0.712344 66.5472ZM-0.712349 142.023L-3.11235 142.023L-3.11234 144.506L-0.712342 144.506L-0.712349 142.023ZM92.8877 0.505779L90.4877 0.505778L90.4877 2.98854L92.8877 2.98854L92.8877 0.505779ZM92.8877 75.9816L90.4877 75.9816L90.4877 78.4644L92.8877 78.4644L92.8877 75.9816ZM92.8877 38.2437L90.4877 38.2437L90.4877 40.7265L92.8877 40.7265L92.8877 38.2437ZM92.8877 113.72L90.4877 113.72L90.4877 116.202L92.8877 116.202L92.8877 113.72ZM92.8877 19.3747L90.4877 19.3747L90.4877 21.8575L92.8877 21.8575L92.8877 19.3747ZM92.8877 94.8506L90.4877 94.8506L90.4877 97.3334L92.8877 97.3334L92.8877 94.8506ZM92.8877 57.1127L90.4877 57.1127L90.4877 59.5954L92.8877 59.5954L92.8877 57.1127ZM92.8877 132.589L90.4877 132.589L90.4877 135.071L92.8877 135.071L92.8877 132.589ZM92.8877 9.94026L90.4877 9.94026L90.4877 12.423L92.8877 12.423L92.8877 9.94026ZM92.8877 85.4161L90.4877 85.4161L90.4877 87.8989L92.8877 87.8989L92.8877 85.4161ZM92.8877 47.6782L90.4877 47.6782L90.4877 50.161L92.8877 50.1609L92.8877 47.6782ZM92.8877 123.154L90.4877 123.154L90.4877 125.637L92.8877 125.637L92.8877 123.154ZM92.8877 28.8092L90.4877 28.8092L90.4877 31.292L92.8877 31.292L92.8877 28.8092ZM92.8877 104.285L90.4877 104.285L90.4877 106.768L92.8877 106.768L92.8877 104.285ZM92.8877 66.5472L90.4877 66.5472L90.4877 69.0299L92.8877 69.0299L92.8877 66.5472ZM92.8877 142.023L90.4877 142.023L90.4877 144.506L92.8877 144.506L92.8877 142.023ZM17.2877 0.505779L14.8877 0.505778L14.8877 2.98854L17.2877 2.98854L17.2877 0.505779ZM17.2876 75.9816L14.8876 75.9816L14.8877 78.4644L17.2877 78.4644L17.2876 75.9816ZM17.2877 38.2437L14.8877 38.2437L14.8876 40.7265L17.2877 40.7265L17.2877 38.2437ZM17.2877 113.72L14.8877 113.72L14.8877 116.202L17.2877 116.202L17.2877 113.72ZM17.2877 19.3747L14.8877 19.3747L14.8877 21.8575L17.2877 21.8575L17.2877 19.3747ZM17.2877 94.8506L14.8877 94.8506L14.8877 97.3334L17.2877 97.3334L17.2877 94.8506ZM17.2877 57.1127L14.8877 57.1127L14.8877 59.5954L17.2877 59.5954L17.2877 57.1127ZM17.2877 132.589L14.8877 132.589L14.8876 135.071L17.2876 135.071L17.2877 132.589ZM17.2877 9.94026L14.8877 9.94026L14.8877 12.423L17.2877 12.423L17.2877 9.94026ZM17.2877 85.4161L14.8877 85.4161L14.8876 87.8989L17.2876 87.8989L17.2877 85.4161ZM17.2877 47.6782L14.8877 47.6782L14.8877 50.161L17.2877 50.161L17.2877 47.6782ZM17.2876 123.154L14.8876 123.154L14.8877 125.637L17.2877 125.637L17.2876 123.154ZM17.2877 28.8092L14.8877 28.8092L14.8877 31.292L17.2877 31.292L17.2877 28.8092ZM17.2877 104.285L14.8877 104.285L14.8877 106.768L17.2877 106.768L17.2877 104.285ZM17.2877 66.5472L14.8877 66.5472L14.8877 69.0299L17.2877 69.0299L17.2877 66.5472ZM17.2877 142.023L14.8877 142.023L14.8877 144.506L17.2877 144.506L17.2877 142.023ZM55.6877 0.505778L53.2877 0.505778L53.2877 2.98854L55.6877 2.98854L55.6877 0.505778ZM55.6877 75.9816L53.2877 75.9816L53.2877 78.4644L55.6877 78.4644L55.6877 75.9816ZM55.6877 38.2437L53.2877 38.2437L53.2877 40.7265L55.6877 40.7265L55.6877 38.2437ZM55.6877 113.72L53.2877 113.72L53.2877 116.202L55.6877 116.202L55.6877 113.72ZM55.6877 19.3747L53.2877 19.3747L53.2877 21.8575L55.6877 21.8575L55.6877 19.3747ZM55.6877 94.8506L53.2877 94.8506L53.2877 97.3334L55.6877 97.3334L55.6877 94.8506ZM55.6877 57.1127L53.2877 57.1127L53.2877 59.5954L55.6877 59.5954L55.6877 57.1127ZM55.6877 132.589L53.2877 132.589L53.2877 135.071L55.6877 135.071L55.6877 132.589ZM55.6877 9.94026L53.2877 9.94026L53.2877 12.423L55.6877 12.423L55.6877 9.94026ZM55.6877 85.4161L53.2877 85.4161L53.2877 87.8989L55.6877 87.8989L55.6877 85.4161ZM55.6877 47.6782L53.2877 47.6782L53.2877 50.161L55.6877 50.161L55.6877 47.6782ZM55.6877 123.154L53.2877 123.154L53.2876 125.637L55.6877 125.637L55.6877 123.154ZM55.6877 28.8092L53.2877 28.8092L53.2877 31.292L55.6877 31.292L55.6877 28.8092ZM55.6877 104.285L53.2877 104.285L53.2877 106.768L55.6877 106.768L55.6877 104.285ZM55.6877 66.5472L53.2877 66.5472L53.2877 69.0299L55.6877 69.0299L55.6877 66.5472ZM55.6877 142.023L53.2877 142.023L53.2877 144.506L55.6877 144.506L55.6877 142.023ZM-19.9123 0.505779L-22.3123 0.505779L-22.3123 2.98854L-19.9123 2.98854L-19.9123 0.505779ZM-19.9123 75.9816L-22.3123 75.9816L-22.3123 78.4644L-19.9123 78.4644L-19.9123 75.9816ZM-19.9123 38.2437L-22.3123 38.2437L-22.3123 40.7265L-19.9123 40.7265L-19.9123 38.2437ZM-19.9123 113.72L-22.3123 113.72L-22.3124 116.202L-19.9124 116.202L-19.9123 113.72ZM-19.9123 19.3747L-22.3123 19.3747L-22.3124 21.8575L-19.9124 21.8575L-19.9123 19.3747ZM-19.9123 94.8506L-22.3123 94.8506L-22.3123 97.3334L-19.9123 97.3334L-19.9123 94.8506ZM-19.9124 57.1127L-22.3124 57.1127L-22.3123 59.5954L-19.9123 59.5954L-19.9124 57.1127ZM-19.9123 132.589L-22.3123 132.589L-22.3123 135.071L-19.9123 135.071L-19.9123 132.589ZM-19.9124 9.94026L-22.3124 9.94026L-22.3123 12.423L-19.9123 12.423L-19.9124 9.94026ZM-19.9123 85.4161L-22.3123 85.4161L-22.3123 87.8989L-19.9123 87.8989L-19.9123 85.4161ZM-19.9123 47.6782L-22.3123 47.6782L-22.3123 50.1609L-19.9123 50.161L-19.9123 47.6782ZM-19.9123 123.154L-22.3123 123.154L-22.3123 125.637L-19.9123 125.637L-19.9123 123.154ZM-19.9123 28.8092L-22.3123 28.8092L-22.3123 31.292L-19.9123 31.292L-19.9123 28.8092ZM-19.9124 104.285L-22.3124 104.285L-22.3123 106.768L-19.9123 106.768L-19.9124 104.285ZM-19.9123 66.5472L-22.3123 66.5472L-22.3124 69.0299L-19.9124 69.0299L-19.9123 66.5472ZM-19.9123 142.023L-22.3123 142.023L-22.3123 144.506L-19.9123 144.506L-19.9123 142.023Z" fill="#47CC4A"/>
</g>
</svg>
