<svg width="316" height="325" viewBox="0 0 316 325" fill="none" xmlns="http://www.w3.org/2000/svg">
<g opacity="0.3">
<g style="mix-blend-mode:multiply">
<path d="M171.21 218.984C209.207 218.984 240.01 187.383 240.01 148.401C240.01 109.419 209.207 77.8176 171.21 77.8176C133.213 77.8176 102.411 109.419 102.411 148.401C102.411 187.383 133.213 218.984 171.21 218.984Z" stroke="#294CFF" stroke-width="5"/>
</g>
<g style="mix-blend-mode:multiply">
<path d="M171.648 236.938C219.55 236.938 258.382 197.098 258.382 147.953C258.382 98.8075 219.55 58.9675 171.648 58.9675C123.746 58.9675 84.9139 98.8075 84.9139 147.953C84.9139 197.098 123.746 236.938 171.648 236.938Z" stroke="#294CFF" stroke-width="5"/>
</g>
<g style="mix-blend-mode:multiply">
<path d="M171.648 255.788C229.696 255.788 276.753 207.508 276.753 147.952C276.753 88.3961 229.696 40.1165 171.648 40.1165C113.6 40.1165 66.5422 88.3961 66.5422 147.952C66.5422 207.508 113.6 255.788 171.648 255.788Z" stroke="#294CFF" stroke-width="5"/>
</g>
<g style="mix-blend-mode:multiply">
<path d="M171.648 274.639C239.842 274.639 295.125 217.92 295.125 147.953C295.125 77.9859 239.842 21.2666 171.648 21.2666C103.453 21.2666 48.1705 77.9859 48.1705 147.953C48.1705 217.92 103.453 274.639 171.648 274.639Z" stroke="#294CFF" stroke-width="5"/>
</g>
<g style="mix-blend-mode:multiply">
<path d="M171.21 293.489C249.31 293.489 312.622 228.531 312.622 148.401C312.622 68.2715 249.31 3.31348 171.21 3.31348C93.1109 3.31348 29.7989 68.2715 29.7989 148.401C29.7989 228.531 93.1109 293.489 171.21 293.489Z" stroke="#294CFF" stroke-width="5"/>
</g>
<g style="mix-blend-mode:multiply">
<path fill-rule="evenodd" clip-rule="evenodd" d="M147.579 145.167C152.468 143.582 157.725 141.971 162.727 142.217C172.107 142.68 178.517 151.877 177.104 161.429C176.783 163.6 176.14 165.741 175.46 167.833L129.245 310.684C125.737 322.024 114.886 326.236 106.589 323.113C95.6473 318.993 84.6826 314.32 74.728 308.186C39.3755 286.407 15.1598 255.072 1.38124 215.283C-2.50278 204.063 1.93748 194.825 13.0265 191.035L147.579 145.167Z" fill="#37CC3A"/>
</g>
</g>
</svg>
