<svg width="40" height="40" viewBox="0 0 40 40" fill="none" xmlns="http://www.w3.org/2000/svg">
<g style="mix-blend-mode:multiply">
<path d="M18.3443 30.4703C25.2284 30.4703 30.8092 25.0224 30.8092 18.3022C30.8092 11.5819 25.2284 6.13403 18.3443 6.13403C11.4601 6.13403 5.87933 11.5819 5.87933 18.3022C5.87933 25.0224 11.4601 30.4703 18.3443 30.4703Z" fill="#294CFF"/>
</g>
<g style="mix-blend-mode:multiply">
<path fill-rule="evenodd" clip-rule="evenodd" d="M20.5244 18.1418C20.0739 18.0025 19.5896 17.8609 19.1288 17.8826C18.2646 17.9233 17.674 18.7314 17.8042 19.5707C17.8338 19.7615 17.893 19.9497 17.9557 20.1334L22.2134 32.6859C22.5366 33.6823 23.5363 34.0524 24.3007 33.778C25.3087 33.416 26.3189 33.0054 27.236 32.4664C30.493 30.5527 32.724 27.7992 33.9934 24.3029C34.3512 23.3171 33.9422 22.5052 32.9205 22.1723L20.5244 18.1418Z" fill="#39BD3D"/>
</g>
</svg>
