<svg width="40" height="40" viewBox="0 0 40 40" fill="none" xmlns="http://www.w3.org/2000/svg">
<path fill-rule="evenodd" clip-rule="evenodd" d="M19.9911 33.3008C19.3955 33.3184 18.8518 33.1431 18.3317 32.8673C13.8007 30.4653 9.26875 28.0652 4.73673 25.6651C4.3881 25.4806 4.16383 25.2139 4.16671 24.8005C4.16949 24.4007 4.37987 24.1405 4.72369 23.9583C9.27024 21.5476 13.8142 19.1322 18.361 16.7219C19.4983 16.1191 20.63 16.175 21.756 16.7743C25.6779 18.8616 29.6022 20.9444 33.5254 23.029C34.1073 23.3382 34.6863 23.6528 35.2716 23.955C35.628 24.1391 35.839 24.4111 35.8332 24.8212C35.8276 25.2199 35.6096 25.4824 35.2694 25.6625C30.7452 28.0582 26.2212 30.4545 21.6982 32.8525C21.1623 33.1365 20.6038 33.323 19.9911 33.3008Z" fill="#37CC3A"/>
<g style="mix-blend-mode:multiply">
<path fill-rule="evenodd" clip-rule="evenodd" d="M19.9911 24.5044C19.3955 24.522 18.8518 24.3467 18.3317 24.0709C13.8007 21.669 9.26875 19.2688 4.73673 16.8687C4.3881 16.6842 4.16383 16.4175 4.16671 16.0041C4.16949 15.6043 4.37987 15.3442 4.72369 15.1619C9.27024 12.7512 13.8142 10.3358 18.361 7.92555C19.4983 7.32269 20.63 7.37859 21.756 7.97791C25.6779 10.0652 29.6022 12.148 33.5254 14.2326C34.1073 14.5418 34.6863 14.8564 35.2716 15.1587C35.628 15.3428 35.839 15.6147 35.8332 16.0248C35.8276 16.4235 35.6096 16.686 35.2694 16.8662C30.7452 19.2618 26.2212 21.6581 21.6982 24.0561C21.1623 24.3401 20.6038 24.5266 19.9911 24.5044Z" fill="#294CFF"/>
</g>
</svg>
