<svg width="168" height="219" viewBox="0 0 168 219" fill="none" xmlns="http://www.w3.org/2000/svg">
<mask id="mask0_22211_10871" style="mask-type:alpha" maskUnits="userSpaceOnUse" x="0" y="0" width="168" height="219">
<path d="M0.000244141 0.181641L135.484 0.181641L167.656 31.4179V218.835H83.8281L0.000244141 130.639L0.000244141 0.181641Z" fill="#D9D9D9"/>
</mask>
<g mask="url(#mask0_22211_10871)">
<path opacity="0.4" fill-rule="evenodd" clip-rule="evenodd" d="M-183.44 168.134L-185.243 169.937L-34.238 320.942L-32.435 319.139L-183.44 168.134ZM-143.773 128.467L-145.576 130.27L5.42924 281.275L7.23229 279.472L-143.773 128.467ZM14.895 -30.2015L13.0919 -28.3985L164.097 122.607L165.9 120.804L14.895 -30.2015ZM92.4261 -107.733L94.2291 -109.536L245.235 41.4697L243.431 43.2728L92.4261 -107.733ZM-64.439 49.1326L-66.242 50.9357L84.7634 201.941L86.5664 200.138L-64.439 49.1326ZM32.9257 -48.2322L34.7287 -50.0353L185.734 100.97L183.931 102.773L32.9257 -48.2322ZM-123.94 108.633L-125.743 110.436L25.2627 261.441L27.0658 259.638L-123.94 108.633ZM112.26 -127.566L114.063 -129.369L265.068 21.6361L263.265 23.4391L112.26 -127.566ZM-44.6057 29.2989L-46.4087 31.102L104.597 182.107L106.4 180.304L-44.6057 29.2989ZM23.0088 -38.3154L24.8118 -40.1184L175.817 110.887L174.014 112.69L23.0088 -38.3154ZM-133.856 118.55L-135.66 120.353L15.3459 271.358L17.1489 269.555L-133.856 118.55ZM102.343 -117.65L104.146 -119.453L255.151 31.5529L253.348 33.3559L102.343 -117.65ZM-54.5221 39.2158L-56.3252 41.0188L94.6803 192.024L96.4833 190.221L-54.5221 39.2158ZM42.8422 -58.1488L44.6453 -59.9519L195.651 91.0536L193.848 92.8566L42.8422 -58.1488ZM-114.023 98.7164L-115.826 100.519L35.1794 251.525L36.9824 249.722L-114.023 98.7164ZM122.176 -137.483L123.979 -139.286L274.985 11.7194L273.182 13.5224L122.176 -137.483ZM-34.6889 19.3823L-36.4919 21.1854L114.513 172.191L116.317 170.388L-34.6889 19.3823ZM18.0503 -33.3568L19.8533 -35.1599L170.859 115.846L169.056 117.649L18.0503 -33.3568ZM-138.815 123.508L-140.618 125.311L10.3874 276.317L12.1905 274.514L-138.815 123.508ZM97.3845 -112.691L99.1875 -114.494L250.193 36.5113L248.39 38.3144L97.3845 -112.691ZM-59.481 44.1742L-61.284 45.9773L89.7214 196.983L91.5244 195.18L-59.481 44.1742ZM37.884 -53.1904L39.6871 -54.9934L190.693 96.012L188.889 97.815L37.884 -53.1904ZM-118.981 103.675L-120.784 105.478L30.2209 256.483L32.024 254.68L-118.981 103.675ZM117.218 -132.525L119.021 -134.328L270.027 16.6777L268.224 18.4808L117.218 -132.525ZM-39.6473 24.3405L-41.4503 26.1436L109.555 177.149L111.358 175.346L-39.6473 24.3405ZM27.9672 -43.2737L29.7702 -45.0768L180.776 105.929L178.973 107.732L27.9672 -43.2737ZM-128.898 113.591L-130.701 115.395L20.3043 266.4L22.1074 264.597L-128.898 113.591ZM107.301 -122.608L109.104 -124.411L260.11 26.5945L258.307 28.3975L107.301 -122.608ZM-49.5641 34.2574L-51.3672 36.0604L99.6382 187.066L101.441 185.263L-49.5641 34.2574ZM47.8007 -63.1072L49.6037 -64.9103L200.609 86.0951L198.806 87.8982L47.8007 -63.1072ZM-109.065 93.758L-110.868 95.5611L40.1378 246.566L41.9408 244.763L-109.065 93.758ZM127.135 -142.441L128.938 -144.244L279.943 6.761L278.14 8.56404L127.135 -142.441ZM-29.7307 14.4238L-31.5337 16.2269L119.472 167.232L121.275 165.429L-29.7307 14.4238ZM-26.5751 11.2685L-24.772 9.46545L126.233 160.471L124.43 162.274L-26.5751 11.2685ZM52.7591 -68.0657L54.5622 -69.8687L205.568 81.1367L203.765 82.9397L52.7591 -68.0657ZM-104.106 88.7996L-105.909 90.6026L45.0962 241.608L46.8992 239.805L-104.106 88.7996ZM-6.74159 -8.56496L-4.93855 -10.368L146.067 140.637L144.264 142.44L-6.74159 -8.56496ZM-163.607 148.3L-165.41 150.103L-14.4045 301.109L-12.6014 299.306L-163.607 148.3ZM72.5926 -87.8991L74.3956 -89.7022L225.401 61.3032L223.598 63.1063L72.5926 -87.8991ZM-84.2727 68.9661L-86.0757 70.7692L64.9297 221.775L66.7327 219.972L-84.2727 68.9661ZM-16.6582 1.35163L-14.8552 -0.451423L136.15 150.554L134.347 152.357L-16.6582 1.35163ZM-173.524 158.217L-175.327 160.02L-24.3213 311.026L-22.5183 309.223L-173.524 158.217ZM62.6757 -77.9825L64.4788 -79.7855L215.484 71.2199L213.681 73.0229L62.6757 -77.9825ZM-94.1893 78.883L-95.9924 80.686L55.0131 231.691L56.8161 229.888L-94.1893 78.883ZM3.17507 -18.4819L4.97812 -20.2849L155.984 130.72L154.18 132.524L3.17507 -18.4819ZM-153.69 138.383L-155.493 140.186L-4.48783 291.192L-2.68478 289.389L-153.69 138.383ZM82.5092 -97.816L84.3123 -99.6191L235.318 51.3863L233.515 53.1894L82.5092 -97.816ZM-74.3558 59.0493L-76.1589 60.8523L74.8465 211.858L76.6496 210.055L-74.3558 59.0493ZM-21.6168 6.31005L-19.8138 4.507L131.192 155.512L129.389 157.315L-21.6168 6.31005ZM-178.482 163.175L-180.285 164.978L-29.2798 315.984L-27.4767 314.181L-178.482 163.175ZM57.7175 -73.0241L59.5206 -74.8272L210.526 76.1783L208.723 77.9813L57.7175 -73.0241ZM-99.148 83.8412L-100.951 85.6442L50.0544 236.65L51.8574 234.847L-99.148 83.8412ZM-1.78293 -13.5234L0.0201174 -15.3264L151.026 135.679L149.222 137.482L-1.78293 -13.5234ZM-158.648 143.342L-160.451 145.145L-9.44604 296.15L-7.64299 294.347L-158.648 143.342ZM77.551 -92.8576L79.354 -94.6606L230.359 56.3448L228.556 58.1478L77.551 -92.8576ZM-79.3142 64.0077L-81.1173 65.8107L69.8881 216.816L71.6911 215.013L-79.3142 64.0077ZM-11.6998 -3.60656L-9.89671 -5.40961L141.109 145.596L139.306 147.399L-11.6998 -3.60656ZM-168.565 153.258L-170.368 155.062L-19.3629 306.067L-17.5598 304.264L-168.565 153.258ZM67.6342 -82.9409L69.4372 -84.744L220.443 66.2614L218.64 68.0645L67.6342 -82.9409ZM-89.2311 73.9246L-91.0342 75.7276L59.9713 226.733L61.7743 224.93L-89.2311 73.9246ZM8.13369 -23.4402L9.93673 -25.2433L160.942 125.762L159.139 127.565L8.13369 -23.4402ZM-148.732 133.425L-150.535 135.228L0.470819 286.233L2.27386 284.43L-148.732 133.425ZM87.4678 -102.774L89.2709 -104.577L240.276 46.428L238.473 48.231L87.4678 -102.774ZM-69.3976 54.0908L-71.2007 55.8939L79.8047 206.899L81.6078 205.096L-69.3976 54.0908Z" fill="#82D9A6"/>
</g>
</svg>
