<svg width="111" height="178" viewBox="0 0 111 178" fill="none" xmlns="http://www.w3.org/2000/svg">
<mask id="mask0_22211_10941" style="mask-type:alpha" maskUnits="userSpaceOnUse" x="0" y="0" width="111" height="178">
<path d="M0.467773 26.2256L110.255 26.2257C110.255 26.2257 110.255 -51.7419 110.255 66.1908C110.255 184.124 44.3346 177.944 0.467773 177.944L0.467773 26.2256Z" fill="#D9D9D9"/>
</mask>
<g mask="url(#mask0_22211_10941)">
<path opacity="0.4" fill-rule="evenodd" clip-rule="evenodd" d="M-183.149 194.3L-184.952 196.104L-33.9467 347.109L-32.1437 345.306L-183.149 194.3ZM-143.482 154.633L-145.285 156.436L5.72025 307.442L7.52329 305.639L-143.482 154.633ZM15.1864 -4.03493L13.3834 -2.23189L164.389 148.774L166.192 146.97L15.1864 -4.03493ZM92.7175 -81.566L94.5206 -83.3691L245.526 67.6363L243.723 69.4394L92.7175 -81.566ZM-64.1479 75.2992L-65.951 77.1022L85.0544 228.108L86.8575 226.305L-64.1479 75.2992ZM33.2171 -22.0654L35.0201 -23.8684L186.026 127.137L184.223 128.94L33.2171 -22.0654ZM-123.648 134.8L-125.451 136.603L25.554 287.608L27.357 285.805L-123.648 134.8ZM112.551 -101.399L114.354 -103.203L265.359 47.8029L263.556 49.6059L112.551 -101.399ZM-44.3145 55.4657L-46.1175 57.2688L104.888 208.274L106.691 206.471L-44.3145 55.4657ZM23.3 -12.1487L25.103 -13.9518L176.108 137.054L174.305 138.857L23.3 -12.1487ZM-133.565 144.717L-135.368 146.52L15.6371 297.525L17.4402 295.722L-133.565 144.717ZM102.634 -91.4829L104.437 -93.2859L255.443 57.7194L253.64 59.5225L102.634 -91.4829ZM-54.2311 65.3824L-56.0341 67.1855L94.9713 218.191L96.7743 216.388L-54.2311 65.3824ZM43.1337 -31.9822L44.9368 -33.7853L195.942 117.22L194.139 119.023L43.1337 -31.9822ZM-113.732 124.883L-115.535 126.686L35.4708 277.692L37.2739 275.889L-113.732 124.883ZM122.468 -111.316L124.271 -113.119L275.276 37.886L273.473 39.689L122.468 -111.316ZM-34.3976 45.5489L-36.2007 47.3519L114.805 198.357L116.608 196.554L-34.3976 45.5489ZM18.3418 -7.19035L20.1449 -8.99339L171.15 142.012L169.347 143.815L18.3418 -7.19035ZM-138.524 149.675L-140.327 151.478L10.6787 302.483L12.4817 300.68L-138.524 149.675ZM97.6757 -86.5245L99.4788 -88.3276L250.484 62.6778L248.681 64.4808L97.6757 -86.5245ZM-59.1893 70.3409L-60.9923 72.1439L90.0131 223.149L91.8161 221.346L-59.1893 70.3409ZM38.1751 -27.0238L39.9781 -28.8269L190.984 122.178L189.18 123.982L38.1751 -27.0238ZM-118.69 129.842L-120.493 131.645L30.5119 282.65L32.315 280.847L-118.69 129.842ZM117.509 -106.358L119.312 -108.161L270.318 42.8444L268.515 44.6474L117.509 -106.358ZM-39.3558 50.5073L-41.1589 52.3103L109.847 203.316L111.65 201.513L-39.3558 50.5073ZM28.2584 -17.107L30.0615 -18.91L181.067 132.095L179.264 133.898L28.2584 -17.107ZM-128.607 139.758L-130.41 141.561L20.5955 292.567L22.3986 290.764L-128.607 139.758ZM107.593 -96.4411L109.396 -98.2441L260.401 52.7612L258.598 54.5643L107.593 -96.4411ZM-49.2726 60.4241L-51.0757 62.2272L99.9297 213.233L101.733 211.43L-49.2726 60.4241ZM48.092 -36.9407L49.895 -38.7438L200.9 112.262L199.097 114.065L48.092 -36.9407ZM-108.773 119.925L-110.576 121.728L40.4292 272.733L42.2323 270.93L-108.773 119.925ZM127.426 -116.275L129.229 -118.078L280.235 32.9275L278.432 34.7305L127.426 -116.275ZM-29.4392 40.5904L-31.2422 42.3935L119.763 193.399L121.566 191.596L-29.4392 40.5904ZM-26.2838 37.435L-24.4807 35.632L126.525 186.637L124.722 188.44L-26.2838 37.435ZM53.0504 -41.8989L54.8534 -43.7019L205.859 107.303L204.056 109.107L53.0504 -41.8989ZM-103.815 114.966L-105.618 116.769L45.3874 267.775L47.1905 265.972L-103.815 114.966ZM-6.45034 17.6016L-4.6473 15.7985L146.358 166.804L144.555 168.607L-6.45034 17.6016ZM-163.315 174.467L-165.118 176.27L-14.113 327.275L-12.3099 325.472L-163.315 174.467ZM72.8841 -61.7323L74.6871 -63.5354L225.693 87.47L223.889 89.273L72.8841 -61.7323ZM-83.9814 95.1327L-85.7845 96.9357L65.2209 247.941L67.024 246.138L-83.9814 95.1327ZM-16.3672 27.5184L-14.5641 25.7154L136.441 176.721L134.638 178.524L-16.3672 27.5184ZM-173.232 184.384L-175.035 186.187L-24.0301 337.192L-22.227 335.389L-173.232 184.384ZM62.9672 -51.8157L64.7702 -53.6187L215.776 97.3866L213.973 99.1897L62.9672 -51.8157ZM-93.8983 105.05L-95.7013 106.853L55.3041 257.858L57.1071 256.055L-93.8983 105.05ZM3.4663 7.68494L5.26935 5.8819L156.275 156.887L154.472 158.69L3.4663 7.68494ZM-153.399 164.55L-155.202 166.353L-4.19637 317.359L-2.39331 315.556L-153.399 164.55ZM82.8007 -71.6494L84.6037 -73.4525L235.609 77.5529L233.806 79.356L82.8007 -71.6494ZM-74.0646 85.2159L-75.8676 87.019L75.1378 238.024L76.9408 236.221L-74.0646 85.2159ZM-21.3254 32.4768L-19.5223 30.6738L131.483 181.679L129.68 183.482L-21.3254 32.4768ZM-178.191 189.342L-179.994 191.145L-28.9885 342.151L-27.1855 340.348L-178.191 189.342ZM58.0086 -46.8573L59.8116 -48.6604L210.817 102.345L209.014 104.148L58.0086 -46.8573ZM-98.8565 110.008L-100.66 111.811L50.3459 262.816L52.1489 261.013L-98.8565 110.008ZM-1.49188 12.6433L0.311162 10.8403L151.317 161.846L149.514 163.649L-1.49188 12.6433ZM-158.357 169.509L-160.16 171.312L-9.15503 322.317L-7.35198 320.514L-158.357 169.509ZM77.8421 -66.691L79.6451 -68.4941L230.651 82.5113L228.847 84.3143L77.8421 -66.691ZM-79.023 90.1743L-80.826 91.9774L70.1794 242.983L71.9824 241.18L-79.023 90.1743ZM-11.4088 22.56L-9.60571 20.757L141.4 171.762L139.597 173.565L-11.4088 22.56ZM-168.274 179.425L-170.077 181.228L-19.0717 332.234L-17.2686 330.431L-168.274 179.425ZM67.9254 -56.7742L69.7284 -58.5772L220.734 92.4282L218.931 94.2312L67.9254 -56.7742ZM-88.9396 100.091L-90.7427 101.894L60.2627 252.9L62.0658 251.096L-88.9396 100.091ZM8.42476 2.72646L10.2278 0.923418L161.233 151.929L159.43 153.732L8.42476 2.72646ZM-148.441 159.592L-150.244 161.395L0.761832 312.4L2.56488 310.597L-148.441 159.592ZM87.7589 -76.6076L89.5619 -78.4107L240.567 72.5947L238.764 74.3978L87.7589 -76.6076ZM-69.1061 80.2576L-70.9092 82.0607L80.0962 233.066L81.8993 231.263L-69.1061 80.2576Z" fill="#82D9A6"/>
</g>
</svg>
