<svg width="357" height="509" viewBox="0 0 357 509" fill="none" xmlns="http://www.w3.org/2000/svg">
<g clip-path="url(#clip0_22211_11069)">
<rect width="357" height="509" fill="#EEFAED"/>
<path fill-rule="evenodd" clip-rule="evenodd" d="M52 30.166C48.8912 39.6152 43.331 46.7695 32.0768 50.0994C43.1415 53.4949 48.9594 60.5333 52 70.1227V30.166ZM-19.0441 -1C-9.5586 2.06191 -2.52261 7.74689 0.897022 18.8273C4.25557 7.86469 11.2933 2.04752 20.8687 -1H-19.0441ZM23.3802 -0.769165C14.1489 -0.0129058 2.52195 11.4569 1.76382 20.5788C1.63448 22.1425 2.34949 23.0328 3.3196 24.0004C11.2278 31.8849 19.1449 39.7604 26.9687 47.7286C28.3664 49.1521 29.7128 49.5477 31.5722 49.054C41.4026 46.4445 48.3892 38.9637 51.11 29.1053C51.7038 26.9535 51.3373 25.4436 49.6701 23.8151C41.8724 16.1986 34.7547 8.75917 27.0343 1.06258C26.0363 0.0671264 25.1982 -1.36086 23.3802 -0.769165ZM0.0556221 20.909C-0.197685 11.9211 -11.768 0.498041 -20.9338 -0.128728C-22.3817 -0.227644 -23.1515 0.461173 -23.995 1.30556C-31.9822 9.29979 -39.982 17.2904 -47.9935 25.2604C-49.1082 26.3691 -49.5978 27.3979 -49.3112 29.1055C-47.7339 38.5169 -38.5978 47.6307 -29.2255 49.1864C-27.623 49.4517 -26.4903 49.0713 -25.3343 47.9014C-17.3938 39.8622 -9.39036 31.8842 -1.39595 23.8971C-0.536324 23.0384 0.370907 22.2371 0.0556221 20.909ZM30.0614 50.9953C28.7231 50.6914 27.9434 51.6374 27.0909 52.4916C19.11 60.4922 11.1407 68.5044 3.1086 76.4528C1.9292 77.62 1.60761 78.7764 1.88158 80.3653C3.48765 89.6976 12.2887 98.199 21.7257 100.037C23.5186 100.386 24.6926 100.037 25.9511 98.7638C33.8916 90.7237 41.5734 83.2942 49.5543 75.2936C50.2945 74.5509 50.9969 73.871 51.005 72.6112C51.0607 63.8904 39.043 51.159 30.0614 50.9953ZM-21.1166 100.312C-11.8529 99.4315 -1.21315 89.3735 0.0183449 80.0286C0.242008 78.3362 -0.440655 77.3147 -1.53922 76.223C-9.46177 68.3538 -17.369 60.4683 -25.2081 52.5146C-26.4719 51.2314 -27.6881 50.8078 -29.4406 51.1423C-38.7258 52.9138 -46.9457 61.9071 -48.912 71.261C-49.3162 73.1872 -48.9694 74.465 -47.5727 75.8435C-39.6241 83.6867 -32.3554 90.9372 -24.4643 98.8389C-23.5257 99.7786 -22.6588 100.89 -21.1166 100.312ZM51.1311 23.5872C51.1311 17.2215 51.0745 9.90974 51.1671 2.59983C51.1931 0.532482 50.523 -0.195002 48.4274 -0.167125C41.1228 -0.0700075 33.8156 -0.129357 27.5269 -0.129357C35.198 7.57712 43.3119 15.7305 51.1311 23.5872ZM-49.3093 25.0426C-40.7885 16.5097 -32.7312 8.43994 -24.1718 -0.132505C-28.3962 -0.132505 -32.3934 -0.259297 -36.3799 -0.0983335C-40.5765 0.0716225 -46.0172 -1.96156 -48.6194 0.764036C-51.0033 3.26032 -49.1961 8.62518 -49.2895 12.7248C-49.3802 16.6815 -49.3093 20.6417 -49.3093 25.0426ZM-24.9225 100.416C-33.0921 92.2366 -41.1898 84.1291 -49.3028 76.0063C-49.3028 83.1678 -49.2704 90.698 -49.3261 98.2274C-49.3396 100.055 -48.4449 100.442 -46.864 100.433C-39.449 100.395 -32.033 100.416 -24.9225 100.416ZM51.129 75.3231C42.6567 83.8003 34.5976 91.8628 26.3858 100.078C27.9982 100.815 29.9465 100.374 31.7978 100.397C37.2456 100.464 42.6953 100.389 48.1432 100.438C49.91 100.453 51.2026 100.359 51.1685 97.9741C51.0616 90.5553 51.129 83.1348 51.129 75.3231ZM1.56792 24.0736C1.56792 30.9995 1.59127 40.0135 1.54996 47.5401C1.54097 49.1992 2.41587 49.5148 3.80636 49.5103C11.2124 49.4851 20.0359 49.4986 26.9021 49.4986C19.0092 41.5988 9.58928 32.102 1.56792 24.0736ZM0.263836 24.0736C-7.99915 32.3448 -17.0337 41.2517 -25.25 49.4761C-17.6823 49.4761 -9.01597 49.4734 -1.38085 49.4797C0.118324 49.4806 0.267426 48.4879 0.266525 47.3378C0.261139 39.9064 0.263836 31.5804 0.263836 24.0736ZM26.809 50.7995C19.9841 50.7995 11.0546 50.8219 3.54075 50.7815C1.91132 50.7725 1.54035 51.598 1.54573 53.0134C1.57269 60.4321 1.5583 69.0639 1.5583 75.9107C9.40899 68.0397 18.8163 58.8135 26.809 50.7995ZM-25.0641 50.7877C-16.7616 59.0735 -8.01263 67.8528 0.248566 76.097C0.248566 68.5614 0.240494 60.1544 0.254864 52.528C0.257557 50.7331 -0.979328 50.7889 -2.20184 50.7889C-9.50371 50.7871 -17.5404 50.788 -25.0641 50.7877ZM0.921814 81.6205C-2.46369 91.7576 -8.51788 97.769 -18.6995 101H20.2961C10.4953 97.8149 4.25162 91.8484 0.921814 81.6205ZM-30.5251 50.1814C-40.6412 46.7895 -46.7115 40.6522 -50 31.6256V69.7515C-46.6298 59.7628 -40.7885 53.4951 -30.5251 50.1814Z" fill="white"/>
<path fill-rule="evenodd" clip-rule="evenodd" d="M154 30.166C150.891 39.6152 145.331 46.7695 134.077 50.0994C145.141 53.4949 150.959 60.5333 154 70.1227V30.166ZM82.9559 -1C92.4414 2.06191 99.4774 7.74689 102.897 18.8273C106.256 7.86469 113.293 2.04752 122.869 -1H82.9559ZM125.38 -0.769165C116.149 -0.0129058 104.522 11.4569 103.764 20.5788C103.634 22.1425 104.349 23.0328 105.32 24.0004C113.228 31.8849 121.145 39.7604 128.969 47.7286C130.366 49.1521 131.713 49.5477 133.572 49.054C143.403 46.4445 150.389 38.9637 153.11 29.1053C153.704 26.9535 153.337 25.4436 151.67 23.8151C143.872 16.1986 136.755 8.75917 129.034 1.06258C128.036 0.0671264 127.198 -1.36086 125.38 -0.769165ZM102.056 20.909C101.802 11.9211 90.232 0.498041 81.0662 -0.128728C79.6183 -0.227644 78.8485 0.461173 78.005 1.30556C70.0178 9.29979 62.018 17.2904 54.0065 25.2604C52.8918 26.3691 52.4022 27.3979 52.6888 29.1055C54.2661 38.5169 63.4022 47.6307 72.7745 49.1864C74.377 49.4517 75.5097 49.0713 76.6657 47.9014C84.6062 39.8622 92.6096 31.8842 100.604 23.8971C101.464 23.0384 102.371 22.2371 102.056 20.909ZM132.061 50.9953C130.723 50.6914 129.943 51.6374 129.091 52.4916C121.11 60.4922 113.141 68.5044 105.109 76.4528C103.929 77.62 103.608 78.7764 103.882 80.3653C105.488 89.6976 114.289 98.199 123.726 100.037C125.519 100.386 126.693 100.037 127.951 98.7638C135.892 90.7237 143.573 83.2942 151.554 75.2936C152.294 74.5509 152.997 73.871 153.005 72.6112C153.061 63.8904 141.043 51.159 132.061 50.9953ZM80.8834 100.312C90.1471 99.4315 100.787 89.3735 102.018 80.0286C102.242 78.3362 101.559 77.3147 100.461 76.223C92.5382 68.3538 84.631 60.4683 76.7919 52.5146C75.5281 51.2314 74.3119 50.8078 72.5594 51.1423C63.2742 52.9138 55.0543 61.9071 53.088 71.261C52.6838 73.1872 53.0306 74.465 54.4273 75.8435C62.3759 83.6867 69.6446 90.9372 77.5357 98.8389C78.4743 99.7786 79.3412 100.89 80.8834 100.312ZM153.131 23.5872C153.131 17.2215 153.075 9.90974 153.167 2.59983C153.193 0.532482 152.523 -0.195002 150.427 -0.167125C143.123 -0.0700075 135.816 -0.129357 129.527 -0.129357C137.198 7.57712 145.312 15.7305 153.131 23.5872ZM52.6907 25.0426C61.2115 16.5097 69.2688 8.43994 77.8282 -0.132505C73.6038 -0.132505 69.6066 -0.259297 65.6201 -0.0983335C61.4235 0.0716225 55.9828 -1.96156 53.3806 0.764036C50.9967 3.26032 52.8039 8.62518 52.7105 12.7248C52.6198 16.6815 52.6907 20.6417 52.6907 25.0426ZM77.0775 100.416C68.9079 92.2366 60.8102 84.1291 52.6972 76.0063C52.6972 83.1678 52.7296 90.698 52.6739 98.2274C52.6604 100.055 53.5551 100.442 55.136 100.433C62.551 100.395 69.967 100.416 77.0775 100.416ZM153.129 75.3231C144.657 83.8003 136.598 91.8628 128.386 100.078C129.998 100.815 131.946 100.374 133.798 100.397C139.246 100.464 144.695 100.389 150.143 100.438C151.91 100.453 153.203 100.359 153.168 97.9741C153.062 90.5553 153.129 83.1348 153.129 75.3231ZM103.568 24.0736C103.568 30.9995 103.591 40.0135 103.55 47.5401C103.541 49.1992 104.416 49.5148 105.806 49.5103C113.212 49.4851 122.036 49.4986 128.902 49.4986C121.009 41.5988 111.589 32.102 103.568 24.0736ZM102.264 24.0736C94.0008 32.3448 84.9663 41.2517 76.75 49.4761C84.3177 49.4761 92.984 49.4734 100.619 49.4797C102.118 49.4806 102.267 48.4879 102.267 47.3378C102.261 39.9064 102.264 31.5804 102.264 24.0736ZM128.809 50.7995C121.984 50.7995 113.055 50.8219 105.541 50.7815C103.911 50.7725 103.54 51.598 103.546 53.0134C103.573 60.4321 103.558 69.0639 103.558 75.9107C111.409 68.0397 120.816 58.8135 128.809 50.7995ZM76.9359 50.7877C85.2384 59.0735 93.9874 67.8528 102.249 76.097C102.249 68.5614 102.24 60.1544 102.255 52.528C102.258 50.7331 101.021 50.7889 99.7982 50.7889C92.4963 50.7871 84.4596 50.788 76.9359 50.7877ZM102.922 81.6205C99.5363 91.7576 93.4821 97.769 83.3005 101H122.296C112.495 97.8149 106.252 91.8484 102.922 81.6205ZM71.4749 50.1814C61.3588 46.7895 55.2885 40.6522 52 31.6256V69.7515C55.3702 59.7628 61.2115 53.4951 71.4749 50.1814Z" fill="white"/>
<path fill-rule="evenodd" clip-rule="evenodd" d="M256 30.166C252.891 39.6152 247.331 46.7695 236.077 50.0994C247.141 53.4949 252.959 60.5333 256 70.1227V30.166ZM184.956 -1C194.441 2.06191 201.477 7.74689 204.897 18.8273C208.256 7.86469 215.293 2.04752 224.869 -1H184.956ZM227.38 -0.769165C218.149 -0.0129058 206.522 11.4569 205.764 20.5788C205.634 22.1425 206.349 23.0328 207.32 24.0004C215.228 31.8849 223.145 39.7604 230.969 47.7286C232.366 49.1521 233.713 49.5477 235.572 49.054C245.403 46.4445 252.389 38.9637 255.11 29.1053C255.704 26.9535 255.337 25.4436 253.67 23.8151C245.872 16.1986 238.755 8.75917 231.034 1.06258C230.036 0.0671264 229.198 -1.36086 227.38 -0.769165ZM204.056 20.909C203.802 11.9211 192.232 0.498041 183.066 -0.128728C181.618 -0.227644 180.848 0.461173 180.005 1.30556C172.018 9.29979 164.018 17.2904 156.007 25.2604C154.892 26.3691 154.402 27.3979 154.689 29.1055C156.266 38.5169 165.402 47.6307 174.775 49.1864C176.377 49.4517 177.51 49.0713 178.666 47.9014C186.606 39.8622 194.61 31.8842 202.604 23.8971C203.464 23.0384 204.371 22.2371 204.056 20.909ZM234.061 50.9953C232.723 50.6914 231.943 51.6374 231.091 52.4916C223.11 60.4922 215.141 68.5044 207.109 76.4528C205.929 77.62 205.608 78.7764 205.882 80.3653C207.488 89.6976 216.289 98.199 225.726 100.037C227.519 100.386 228.693 100.037 229.951 98.7638C237.892 90.7237 245.573 83.2942 253.554 75.2936C254.294 74.5509 254.997 73.871 255.005 72.6112C255.061 63.8904 243.043 51.159 234.061 50.9953ZM182.883 100.312C192.147 99.4315 202.787 89.3735 204.018 80.0286C204.242 78.3362 203.559 77.3147 202.461 76.223C194.538 68.3538 186.631 60.4683 178.792 52.5146C177.528 51.2314 176.312 50.8078 174.559 51.1423C165.274 52.9138 157.054 61.9071 155.088 71.261C154.684 73.1872 155.031 74.465 156.427 75.8435C164.376 83.6867 171.645 90.9372 179.536 98.8389C180.474 99.7786 181.341 100.89 182.883 100.312ZM255.131 23.5872C255.131 17.2215 255.075 9.90974 255.167 2.59983C255.193 0.532482 254.523 -0.195002 252.427 -0.167125C245.123 -0.0700075 237.816 -0.129357 231.527 -0.129357C239.198 7.57712 247.312 15.7305 255.131 23.5872ZM154.691 25.0426C163.212 16.5097 171.269 8.43994 179.828 -0.132505C175.604 -0.132505 171.607 -0.259297 167.62 -0.0983335C163.424 0.0716225 157.983 -1.96156 155.381 0.764036C152.997 3.26032 154.804 8.62518 154.711 12.7248C154.62 16.6815 154.691 20.6417 154.691 25.0426ZM179.077 100.416C170.908 92.2366 162.81 84.1291 154.697 76.0063C154.697 83.1678 154.73 90.698 154.674 98.2274C154.66 100.055 155.555 100.442 157.136 100.433C164.551 100.395 171.967 100.416 179.077 100.416ZM255.129 75.3231C246.657 83.8003 238.598 91.8628 230.386 100.078C231.998 100.815 233.946 100.374 235.798 100.397C241.246 100.464 246.695 100.389 252.143 100.438C253.91 100.453 255.203 100.359 255.168 97.9741C255.062 90.5553 255.129 83.1348 255.129 75.3231ZM205.568 24.0736C205.568 30.9995 205.591 40.0135 205.55 47.5401C205.541 49.1992 206.416 49.5148 207.806 49.5103C215.212 49.4851 224.036 49.4986 230.902 49.4986C223.009 41.5988 213.589 32.102 205.568 24.0736ZM204.264 24.0736C196.001 32.3448 186.966 41.2517 178.75 49.4761C186.318 49.4761 194.984 49.4734 202.619 49.4797C204.118 49.4806 204.267 48.4879 204.267 47.3378C204.261 39.9064 204.264 31.5804 204.264 24.0736ZM230.809 50.7995C223.984 50.7995 215.055 50.8219 207.541 50.7815C205.911 50.7725 205.54 51.598 205.546 53.0134C205.573 60.4321 205.558 69.0639 205.558 75.9107C213.409 68.0397 222.816 58.8135 230.809 50.7995ZM178.936 50.7877C187.238 59.0735 195.987 67.8528 204.249 76.097C204.249 68.5614 204.24 60.1544 204.255 52.528C204.258 50.7331 203.021 50.7889 201.798 50.7889C194.496 50.7871 186.46 50.788 178.936 50.7877ZM204.922 81.6205C201.536 91.7576 195.482 97.769 185.3 101H224.296C214.495 97.8149 208.252 91.8484 204.922 81.6205ZM173.475 50.1814C163.359 46.7895 157.288 40.6522 154 31.6256V69.7515C157.37 59.7628 163.212 53.4951 173.475 50.1814Z" fill="white"/>
<path fill-rule="evenodd" clip-rule="evenodd" d="M358 30.166C354.891 39.6152 349.331 46.7695 338.077 50.0994C349.141 53.4949 354.959 60.5333 358 70.1227V30.166ZM286.956 -1C296.441 2.06191 303.477 7.74689 306.897 18.8273C310.256 7.86469 317.293 2.04752 326.869 -1H286.956ZM329.38 -0.769165C320.149 -0.0129058 308.522 11.4569 307.764 20.5788C307.634 22.1425 308.349 23.0328 309.32 24.0004C317.228 31.8849 325.145 39.7604 332.969 47.7286C334.366 49.1521 335.713 49.5477 337.572 49.054C347.403 46.4445 354.389 38.9637 357.11 29.1053C357.704 26.9535 357.337 25.4436 355.67 23.8151C347.872 16.1986 340.755 8.75917 333.034 1.06258C332.036 0.0671264 331.198 -1.36086 329.38 -0.769165ZM306.056 20.909C305.802 11.9211 294.232 0.498041 285.066 -0.128728C283.618 -0.227644 282.848 0.461173 282.005 1.30556C274.018 9.29979 266.018 17.2904 258.007 25.2604C256.892 26.3691 256.402 27.3979 256.689 29.1055C258.266 38.5169 267.402 47.6307 276.775 49.1864C278.377 49.4517 279.51 49.0713 280.666 47.9014C288.606 39.8622 296.61 31.8842 304.604 23.8971C305.464 23.0384 306.371 22.2371 306.056 20.909ZM336.061 50.9953C334.723 50.6914 333.943 51.6374 333.091 52.4916C325.11 60.4922 317.141 68.5044 309.109 76.4528C307.929 77.62 307.608 78.7764 307.882 80.3653C309.488 89.6976 318.289 98.199 327.726 100.037C329.519 100.386 330.693 100.037 331.951 98.7638C339.892 90.7237 347.573 83.2942 355.554 75.2936C356.294 74.5509 356.997 73.871 357.005 72.6112C357.061 63.8904 345.043 51.159 336.061 50.9953ZM284.883 100.312C294.147 99.4315 304.787 89.3735 306.018 80.0286C306.242 78.3362 305.559 77.3147 304.461 76.223C296.538 68.3538 288.631 60.4683 280.792 52.5146C279.528 51.2314 278.312 50.8078 276.559 51.1423C267.274 52.9138 259.054 61.9071 257.088 71.261C256.684 73.1872 257.031 74.465 258.427 75.8435C266.376 83.6867 273.645 90.9372 281.536 98.8389C282.474 99.7786 283.341 100.89 284.883 100.312ZM357.131 23.5872C357.131 17.2215 357.075 9.90974 357.167 2.59983C357.193 0.532482 356.523 -0.195002 354.427 -0.167125C347.123 -0.0700075 339.816 -0.129357 333.527 -0.129357C341.198 7.57712 349.312 15.7305 357.131 23.5872ZM256.691 25.0426C265.212 16.5097 273.269 8.43994 281.828 -0.132505C277.604 -0.132505 273.607 -0.259297 269.62 -0.0983335C265.424 0.0716225 259.983 -1.96156 257.381 0.764036C254.997 3.26032 256.804 8.62518 256.711 12.7248C256.62 16.6815 256.691 20.6417 256.691 25.0426ZM281.077 100.416C272.908 92.2366 264.81 84.1291 256.697 76.0063C256.697 83.1678 256.73 90.698 256.674 98.2274C256.66 100.055 257.555 100.442 259.136 100.433C266.551 100.395 273.967 100.416 281.077 100.416ZM357.129 75.3231C348.657 83.8003 340.598 91.8628 332.386 100.078C333.998 100.815 335.946 100.374 337.798 100.397C343.246 100.464 348.695 100.389 354.143 100.438C355.91 100.453 357.203 100.359 357.168 97.9741C357.062 90.5553 357.129 83.1348 357.129 75.3231ZM307.568 24.0736C307.568 30.9995 307.591 40.0135 307.55 47.5401C307.541 49.1992 308.416 49.5148 309.806 49.5103C317.212 49.4851 326.036 49.4986 332.902 49.4986C325.009 41.5988 315.589 32.102 307.568 24.0736ZM306.264 24.0736C298.001 32.3448 288.966 41.2517 280.75 49.4761C288.318 49.4761 296.984 49.4734 304.619 49.4797C306.118 49.4806 306.267 48.4879 306.267 47.3378C306.261 39.9064 306.264 31.5804 306.264 24.0736ZM332.809 50.7995C325.984 50.7995 317.055 50.8219 309.541 50.7815C307.911 50.7725 307.54 51.598 307.546 53.0134C307.573 60.4321 307.558 69.0639 307.558 75.9107C315.409 68.0397 324.816 58.8135 332.809 50.7995ZM280.936 50.7877C289.238 59.0735 297.987 67.8528 306.249 76.097C306.249 68.5614 306.24 60.1544 306.255 52.528C306.258 50.7331 305.021 50.7889 303.798 50.7889C296.496 50.7871 288.46 50.788 280.936 50.7877ZM306.922 81.6205C303.536 91.7576 297.482 97.769 287.3 101H326.296C316.495 97.8149 310.252 91.8484 306.922 81.6205ZM275.475 50.1814C265.359 46.7895 259.288 40.6522 256 31.6256V69.7515C259.37 59.7628 265.212 53.4951 275.475 50.1814Z" fill="white"/>
<path fill-rule="evenodd" clip-rule="evenodd" d="M460 30.166C456.891 39.6152 451.331 46.7695 440.077 50.0994C451.141 53.4949 456.959 60.5333 460 70.1227V30.166ZM388.956 -1C398.441 2.06191 405.477 7.74689 408.897 18.8273C412.256 7.86469 419.293 2.04752 428.869 -1H388.956ZM431.38 -0.769165C422.149 -0.0129058 410.522 11.4569 409.764 20.5788C409.634 22.1425 410.349 23.0328 411.32 24.0004C419.228 31.8849 427.145 39.7604 434.969 47.7286C436.366 49.1521 437.713 49.5477 439.572 49.054C449.403 46.4445 456.389 38.9637 459.11 29.1053C459.704 26.9535 459.337 25.4436 457.67 23.8151C449.872 16.1986 442.755 8.75917 435.034 1.06258C434.036 0.0671264 433.198 -1.36086 431.38 -0.769165ZM408.056 20.909C407.802 11.9211 396.232 0.498041 387.066 -0.128728C385.618 -0.227644 384.848 0.461173 384.005 1.30556C376.018 9.29979 368.018 17.2904 360.007 25.2604C358.892 26.3691 358.402 27.3979 358.689 29.1055C360.266 38.5169 369.402 47.6307 378.775 49.1864C380.377 49.4517 381.51 49.0713 382.666 47.9014C390.606 39.8622 398.61 31.8842 406.604 23.8971C407.464 23.0384 408.371 22.2371 408.056 20.909ZM438.061 50.9953C436.723 50.6914 435.943 51.6374 435.091 52.4916C427.11 60.4922 419.141 68.5044 411.109 76.4528C409.929 77.62 409.608 78.7764 409.882 80.3653C411.488 89.6976 420.289 98.199 429.726 100.037C431.519 100.386 432.693 100.037 433.951 98.7638C441.892 90.7237 449.573 83.2942 457.554 75.2936C458.294 74.5509 458.997 73.871 459.005 72.6112C459.061 63.8904 447.043 51.159 438.061 50.9953ZM386.883 100.312C396.147 99.4315 406.787 89.3735 408.018 80.0286C408.242 78.3362 407.559 77.3147 406.461 76.223C398.538 68.3538 390.631 60.4683 382.792 52.5146C381.528 51.2314 380.312 50.8078 378.559 51.1423C369.274 52.9138 361.054 61.9071 359.088 71.261C358.684 73.1872 359.031 74.465 360.427 75.8435C368.376 83.6867 375.645 90.9372 383.536 98.8389C384.474 99.7786 385.341 100.89 386.883 100.312ZM459.131 23.5872C459.131 17.2215 459.075 9.90974 459.167 2.59983C459.193 0.532482 458.523 -0.195002 456.427 -0.167125C449.123 -0.0700075 441.816 -0.129357 435.527 -0.129357C443.198 7.57712 451.312 15.7305 459.131 23.5872ZM358.691 25.0426C367.212 16.5097 375.269 8.43994 383.828 -0.132505C379.604 -0.132505 375.607 -0.259297 371.62 -0.0983335C367.424 0.0716225 361.983 -1.96156 359.381 0.764036C356.997 3.26032 358.804 8.62518 358.711 12.7248C358.62 16.6815 358.691 20.6417 358.691 25.0426ZM383.077 100.416C374.908 92.2366 366.81 84.1291 358.697 76.0063C358.697 83.1678 358.73 90.698 358.674 98.2274C358.66 100.055 359.555 100.442 361.136 100.433C368.551 100.395 375.967 100.416 383.077 100.416ZM459.129 75.3231C450.657 83.8003 442.598 91.8628 434.386 100.078C435.998 100.815 437.946 100.374 439.798 100.397C445.246 100.464 450.695 100.389 456.143 100.438C457.91 100.453 459.203 100.359 459.168 97.9741C459.062 90.5553 459.129 83.1348 459.129 75.3231ZM409.568 24.0736C409.568 30.9995 409.591 40.0135 409.55 47.5401C409.541 49.1992 410.416 49.5148 411.806 49.5103C419.212 49.4851 428.036 49.4986 434.902 49.4986C427.009 41.5988 417.589 32.102 409.568 24.0736ZM408.264 24.0736C400.001 32.3448 390.966 41.2517 382.75 49.4761C390.318 49.4761 398.984 49.4734 406.619 49.4797C408.118 49.4806 408.267 48.4879 408.267 47.3378C408.261 39.9064 408.264 31.5804 408.264 24.0736ZM434.809 50.7995C427.984 50.7995 419.055 50.8219 411.541 50.7815C409.911 50.7725 409.54 51.598 409.546 53.0134C409.573 60.4321 409.558 69.0639 409.558 75.9107C417.409 68.0397 426.816 58.8135 434.809 50.7995ZM382.936 50.7877C391.238 59.0735 399.987 67.8528 408.249 76.097C408.249 68.5614 408.24 60.1544 408.255 52.528C408.258 50.7331 407.021 50.7889 405.798 50.7889C398.496 50.7871 390.46 50.788 382.936 50.7877ZM408.922 81.6205C405.536 91.7576 399.482 97.769 389.3 101H428.296C418.495 97.8149 412.252 91.8484 408.922 81.6205ZM377.475 50.1814C367.359 46.7895 361.288 40.6522 358 31.6256V69.7515C361.37 59.7628 367.212 53.4951 377.475 50.1814Z" fill="white"/>
<path fill-rule="evenodd" clip-rule="evenodd" d="M52 132.166C48.8912 141.615 43.331 148.77 32.0768 152.099C43.1415 155.495 48.9594 162.533 52 172.123V132.166ZM-19.0441 101C-9.5586 104.062 -2.52261 109.747 0.897022 120.827C4.25557 109.865 11.2933 104.048 20.8687 101H-19.0441ZM23.3802 101.231C14.1489 101.987 2.52195 113.457 1.76382 122.579C1.63448 124.143 2.34949 125.033 3.3196 126C11.2278 133.885 19.1449 141.76 26.9687 149.729C28.3664 151.152 29.7128 151.548 31.5722 151.054C41.4026 148.444 48.3892 140.964 51.11 131.105C51.7038 128.953 51.3373 127.444 49.6701 125.815C41.8724 118.199 34.7547 110.759 27.0343 103.063C26.0363 102.067 25.1982 100.639 23.3802 101.231ZM0.0556221 122.909C-0.197685 113.921 -11.768 102.498 -20.9338 101.871C-22.3817 101.772 -23.1515 102.461 -23.995 103.306C-31.9822 111.3 -39.982 119.29 -47.9935 127.26C-49.1082 128.369 -49.5978 129.398 -49.3112 131.106C-47.7339 140.517 -38.5978 149.631 -29.2255 151.186C-27.623 151.452 -26.4903 151.071 -25.3343 149.901C-17.3938 141.862 -9.39036 133.884 -1.39595 125.897C-0.536324 125.038 0.370907 124.237 0.0556221 122.909ZM30.0614 152.995C28.7231 152.691 27.9434 153.637 27.0909 154.492C19.11 162.492 11.1407 170.504 3.1086 178.453C1.9292 179.62 1.60761 180.776 1.88158 182.365C3.48765 191.698 12.2887 200.199 21.7257 202.037C23.5186 202.386 24.6926 202.037 25.9511 200.764C33.8916 192.724 41.5734 185.294 49.5543 177.294C50.2945 176.551 50.9969 175.871 51.005 174.611C51.0607 165.89 39.043 153.159 30.0614 152.995ZM-21.1166 202.312C-11.8529 201.431 -1.21315 191.373 0.0183449 182.029C0.242008 180.336 -0.440655 179.315 -1.53922 178.223C-9.46177 170.354 -17.369 162.468 -25.2081 154.515C-26.4719 153.231 -27.6881 152.808 -29.4406 153.142C-38.7258 154.914 -46.9457 163.907 -48.912 173.261C-49.3162 175.187 -48.9694 176.465 -47.5727 177.844C-39.6241 185.687 -32.3554 192.937 -24.4643 200.839C-23.5257 201.779 -22.6588 202.89 -21.1166 202.312ZM51.1311 125.587C51.1311 119.221 51.0745 111.91 51.1671 104.6C51.1931 102.532 50.523 101.805 48.4274 101.833C41.1228 101.93 33.8156 101.871 27.5269 101.871C35.198 109.577 43.3119 117.731 51.1311 125.587ZM-49.3093 127.043C-40.7885 118.51 -32.7312 110.44 -24.1718 101.867C-28.3962 101.867 -32.3934 101.741 -36.3799 101.902C-40.5765 102.072 -46.0172 100.038 -48.6194 102.764C-51.0033 105.26 -49.1961 110.625 -49.2895 114.725C-49.3802 118.681 -49.3093 122.642 -49.3093 127.043ZM-24.9225 202.416C-33.0921 194.237 -41.1898 186.129 -49.3028 178.006C-49.3028 185.168 -49.2704 192.698 -49.3261 200.227C-49.3396 202.055 -48.4449 202.442 -46.864 202.433C-39.449 202.395 -32.033 202.416 -24.9225 202.416ZM51.129 177.323C42.6567 185.8 34.5976 193.863 26.3858 202.078C27.9982 202.815 29.9465 202.374 31.7978 202.397C37.2456 202.464 42.6953 202.389 48.1432 202.438C49.91 202.453 51.2026 202.359 51.1685 199.974C51.0616 192.555 51.129 185.135 51.129 177.323ZM1.56792 126.074C1.56792 132.999 1.59127 142.013 1.54996 149.54C1.54097 151.199 2.41587 151.515 3.80636 151.51C11.2124 151.485 20.0359 151.499 26.9021 151.499C19.0092 143.599 9.58928 134.102 1.56792 126.074ZM0.263836 126.074C-7.99915 134.345 -17.0337 143.252 -25.25 151.476C-17.6823 151.476 -9.01597 151.473 -1.38085 151.48C0.118324 151.481 0.267426 150.488 0.266525 149.338C0.261139 141.906 0.263836 133.58 0.263836 126.074ZM26.809 152.799C19.9841 152.799 11.0546 152.822 3.54075 152.781C1.91132 152.772 1.54035 153.598 1.54573 155.013C1.57269 162.432 1.5583 171.064 1.5583 177.911C9.40899 170.04 18.8163 160.813 26.809 152.799ZM-25.0641 152.788C-16.7616 161.074 -8.01263 169.853 0.248566 178.097C0.248566 170.561 0.240494 162.154 0.254864 154.528C0.257557 152.733 -0.979328 152.789 -2.20184 152.789C-9.50371 152.787 -17.5404 152.788 -25.0641 152.788ZM0.921814 183.621C-2.46369 193.758 -8.51788 199.769 -18.6995 203H20.2961C10.4953 199.815 4.25162 193.848 0.921814 183.621ZM-30.5251 152.181C-40.6412 148.789 -46.7115 142.652 -50 133.626V171.752C-46.6298 161.763 -40.7885 155.495 -30.5251 152.181Z" fill="white"/>
<path fill-rule="evenodd" clip-rule="evenodd" d="M154 132.166C150.891 141.615 145.331 148.77 134.077 152.099C145.141 155.495 150.959 162.533 154 172.123V132.166ZM82.9559 101C92.4414 104.062 99.4774 109.747 102.897 120.827C106.256 109.865 113.293 104.048 122.869 101H82.9559ZM125.38 101.231C116.149 101.987 104.522 113.457 103.764 122.579C103.634 124.143 104.349 125.033 105.32 126C113.228 133.885 121.145 141.76 128.969 149.729C130.366 151.152 131.713 151.548 133.572 151.054C143.403 148.444 150.389 140.964 153.11 131.105C153.704 128.953 153.337 127.444 151.67 125.815C143.872 118.199 136.755 110.759 129.034 103.063C128.036 102.067 127.198 100.639 125.38 101.231ZM102.056 122.909C101.802 113.921 90.232 102.498 81.0662 101.871C79.6183 101.772 78.8485 102.461 78.005 103.306C70.0178 111.3 62.018 119.29 54.0065 127.26C52.8918 128.369 52.4022 129.398 52.6888 131.106C54.2661 140.517 63.4022 149.631 72.7745 151.186C74.377 151.452 75.5097 151.071 76.6657 149.901C84.6062 141.862 92.6096 133.884 100.604 125.897C101.464 125.038 102.371 124.237 102.056 122.909ZM132.061 152.995C130.723 152.691 129.943 153.637 129.091 154.492C121.11 162.492 113.141 170.504 105.109 178.453C103.929 179.62 103.608 180.776 103.882 182.365C105.488 191.698 114.289 200.199 123.726 202.037C125.519 202.386 126.693 202.037 127.951 200.764C135.892 192.724 143.573 185.294 151.554 177.294C152.294 176.551 152.997 175.871 153.005 174.611C153.061 165.89 141.043 153.159 132.061 152.995ZM80.8834 202.312C90.1471 201.431 100.787 191.373 102.018 182.029C102.242 180.336 101.559 179.315 100.461 178.223C92.5382 170.354 84.631 162.468 76.7919 154.515C75.5281 153.231 74.3119 152.808 72.5594 153.142C63.2742 154.914 55.0543 163.907 53.088 173.261C52.6838 175.187 53.0306 176.465 54.4273 177.844C62.3759 185.687 69.6446 192.937 77.5357 200.839C78.4743 201.779 79.3412 202.89 80.8834 202.312ZM153.131 125.587C153.131 119.221 153.075 111.91 153.167 104.6C153.193 102.532 152.523 101.805 150.427 101.833C143.123 101.93 135.816 101.871 129.527 101.871C137.198 109.577 145.312 117.731 153.131 125.587ZM52.6907 127.043C61.2115 118.51 69.2688 110.44 77.8282 101.867C73.6038 101.867 69.6066 101.741 65.6201 101.902C61.4235 102.072 55.9828 100.038 53.3806 102.764C50.9967 105.26 52.8039 110.625 52.7105 114.725C52.6198 118.681 52.6907 122.642 52.6907 127.043ZM77.0775 202.416C68.9079 194.237 60.8102 186.129 52.6972 178.006C52.6972 185.168 52.7296 192.698 52.6739 200.227C52.6604 202.055 53.5551 202.442 55.136 202.433C62.551 202.395 69.967 202.416 77.0775 202.416ZM153.129 177.323C144.657 185.8 136.598 193.863 128.386 202.078C129.998 202.815 131.946 202.374 133.798 202.397C139.246 202.464 144.695 202.389 150.143 202.438C151.91 202.453 153.203 202.359 153.168 199.974C153.062 192.555 153.129 185.135 153.129 177.323ZM103.568 126.074C103.568 132.999 103.591 142.013 103.55 149.54C103.541 151.199 104.416 151.515 105.806 151.51C113.212 151.485 122.036 151.499 128.902 151.499C121.009 143.599 111.589 134.102 103.568 126.074ZM102.264 126.074C94.0008 134.345 84.9663 143.252 76.75 151.476C84.3177 151.476 92.984 151.473 100.619 151.48C102.118 151.481 102.267 150.488 102.267 149.338C102.261 141.906 102.264 133.58 102.264 126.074ZM128.809 152.799C121.984 152.799 113.055 152.822 105.541 152.781C103.911 152.772 103.54 153.598 103.546 155.013C103.573 162.432 103.558 171.064 103.558 177.911C111.409 170.04 120.816 160.813 128.809 152.799ZM76.9359 152.788C85.2384 161.074 93.9874 169.853 102.249 178.097C102.249 170.561 102.24 162.154 102.255 154.528C102.258 152.733 101.021 152.789 99.7982 152.789C92.4963 152.787 84.4596 152.788 76.9359 152.788ZM102.922 183.621C99.5363 193.758 93.4821 199.769 83.3005 203H122.296C112.495 199.815 106.252 193.848 102.922 183.621ZM71.4749 152.181C61.3588 148.789 55.2885 142.652 52 133.626V171.752C55.3702 161.763 61.2115 155.495 71.4749 152.181Z" fill="white"/>
<path fill-rule="evenodd" clip-rule="evenodd" d="M256 132.166C252.891 141.615 247.331 148.77 236.077 152.099C247.141 155.495 252.959 162.533 256 172.123V132.166ZM184.956 101C194.441 104.062 201.477 109.747 204.897 120.827C208.256 109.865 215.293 104.048 224.869 101H184.956ZM227.38 101.231C218.149 101.987 206.522 113.457 205.764 122.579C205.634 124.143 206.349 125.033 207.32 126C215.228 133.885 223.145 141.76 230.969 149.729C232.366 151.152 233.713 151.548 235.572 151.054C245.403 148.444 252.389 140.964 255.11 131.105C255.704 128.953 255.337 127.444 253.67 125.815C245.872 118.199 238.755 110.759 231.034 103.063C230.036 102.067 229.198 100.639 227.38 101.231ZM204.056 122.909C203.802 113.921 192.232 102.498 183.066 101.871C181.618 101.772 180.848 102.461 180.005 103.306C172.018 111.3 164.018 119.29 156.007 127.26C154.892 128.369 154.402 129.398 154.689 131.106C156.266 140.517 165.402 149.631 174.775 151.186C176.377 151.452 177.51 151.071 178.666 149.901C186.606 141.862 194.61 133.884 202.604 125.897C203.464 125.038 204.371 124.237 204.056 122.909ZM234.061 152.995C232.723 152.691 231.943 153.637 231.091 154.492C223.11 162.492 215.141 170.504 207.109 178.453C205.929 179.62 205.608 180.776 205.882 182.365C207.488 191.698 216.289 200.199 225.726 202.037C227.519 202.386 228.693 202.037 229.951 200.764C237.892 192.724 245.573 185.294 253.554 177.294C254.294 176.551 254.997 175.871 255.005 174.611C255.061 165.89 243.043 153.159 234.061 152.995ZM182.883 202.312C192.147 201.431 202.787 191.373 204.018 182.029C204.242 180.336 203.559 179.315 202.461 178.223C194.538 170.354 186.631 162.468 178.792 154.515C177.528 153.231 176.312 152.808 174.559 153.142C165.274 154.914 157.054 163.907 155.088 173.261C154.684 175.187 155.031 176.465 156.427 177.844C164.376 185.687 171.645 192.937 179.536 200.839C180.474 201.779 181.341 202.89 182.883 202.312ZM255.131 125.587C255.131 119.221 255.075 111.91 255.167 104.6C255.193 102.532 254.523 101.805 252.427 101.833C245.123 101.93 237.816 101.871 231.527 101.871C239.198 109.577 247.312 117.731 255.131 125.587ZM154.691 127.043C163.212 118.51 171.269 110.44 179.828 101.867C175.604 101.867 171.607 101.741 167.62 101.902C163.424 102.072 157.983 100.038 155.381 102.764C152.997 105.26 154.804 110.625 154.711 114.725C154.62 118.681 154.691 122.642 154.691 127.043ZM179.077 202.416C170.908 194.237 162.81 186.129 154.697 178.006C154.697 185.168 154.73 192.698 154.674 200.227C154.66 202.055 155.555 202.442 157.136 202.433C164.551 202.395 171.967 202.416 179.077 202.416ZM255.129 177.323C246.657 185.8 238.598 193.863 230.386 202.078C231.998 202.815 233.946 202.374 235.798 202.397C241.246 202.464 246.695 202.389 252.143 202.438C253.91 202.453 255.203 202.359 255.168 199.974C255.062 192.555 255.129 185.135 255.129 177.323ZM205.568 126.074C205.568 132.999 205.591 142.013 205.55 149.54C205.541 151.199 206.416 151.515 207.806 151.51C215.212 151.485 224.036 151.499 230.902 151.499C223.009 143.599 213.589 134.102 205.568 126.074ZM204.264 126.074C196.001 134.345 186.966 143.252 178.75 151.476C186.318 151.476 194.984 151.473 202.619 151.48C204.118 151.481 204.267 150.488 204.267 149.338C204.261 141.906 204.264 133.58 204.264 126.074ZM230.809 152.799C223.984 152.799 215.055 152.822 207.541 152.781C205.911 152.772 205.54 153.598 205.546 155.013C205.573 162.432 205.558 171.064 205.558 177.911C213.409 170.04 222.816 160.813 230.809 152.799ZM178.936 152.788C187.238 161.074 195.987 169.853 204.249 178.097C204.249 170.561 204.24 162.154 204.255 154.528C204.258 152.733 203.021 152.789 201.798 152.789C194.496 152.787 186.46 152.788 178.936 152.788ZM204.922 183.621C201.536 193.758 195.482 199.769 185.3 203H224.296C214.495 199.815 208.252 193.848 204.922 183.621ZM173.475 152.181C163.359 148.789 157.288 142.652 154 133.626V171.752C157.37 161.763 163.212 155.495 173.475 152.181Z" fill="white"/>
<path fill-rule="evenodd" clip-rule="evenodd" d="M358 132.166C354.891 141.615 349.331 148.77 338.077 152.099C349.141 155.495 354.959 162.533 358 172.123V132.166ZM286.956 101C296.441 104.062 303.477 109.747 306.897 120.827C310.256 109.865 317.293 104.048 326.869 101H286.956ZM329.38 101.231C320.149 101.987 308.522 113.457 307.764 122.579C307.634 124.143 308.349 125.033 309.32 126C317.228 133.885 325.145 141.76 332.969 149.729C334.366 151.152 335.713 151.548 337.572 151.054C347.403 148.444 354.389 140.964 357.11 131.105C357.704 128.953 357.337 127.444 355.67 125.815C347.872 118.199 340.755 110.759 333.034 103.063C332.036 102.067 331.198 100.639 329.38 101.231ZM306.056 122.909C305.802 113.921 294.232 102.498 285.066 101.871C283.618 101.772 282.848 102.461 282.005 103.306C274.018 111.3 266.018 119.29 258.007 127.26C256.892 128.369 256.402 129.398 256.689 131.106C258.266 140.517 267.402 149.631 276.775 151.186C278.377 151.452 279.51 151.071 280.666 149.901C288.606 141.862 296.61 133.884 304.604 125.897C305.464 125.038 306.371 124.237 306.056 122.909ZM336.061 152.995C334.723 152.691 333.943 153.637 333.091 154.492C325.11 162.492 317.141 170.504 309.109 178.453C307.929 179.62 307.608 180.776 307.882 182.365C309.488 191.698 318.289 200.199 327.726 202.037C329.519 202.386 330.693 202.037 331.951 200.764C339.892 192.724 347.573 185.294 355.554 177.294C356.294 176.551 356.997 175.871 357.005 174.611C357.061 165.89 345.043 153.159 336.061 152.995ZM284.883 202.312C294.147 201.431 304.787 191.373 306.018 182.029C306.242 180.336 305.559 179.315 304.461 178.223C296.538 170.354 288.631 162.468 280.792 154.515C279.528 153.231 278.312 152.808 276.559 153.142C267.274 154.914 259.054 163.907 257.088 173.261C256.684 175.187 257.031 176.465 258.427 177.844C266.376 185.687 273.645 192.937 281.536 200.839C282.474 201.779 283.341 202.89 284.883 202.312ZM357.131 125.587C357.131 119.221 357.075 111.91 357.167 104.6C357.193 102.532 356.523 101.805 354.427 101.833C347.123 101.93 339.816 101.871 333.527 101.871C341.198 109.577 349.312 117.731 357.131 125.587ZM256.691 127.043C265.212 118.51 273.269 110.44 281.828 101.867C277.604 101.867 273.607 101.741 269.62 101.902C265.424 102.072 259.983 100.038 257.381 102.764C254.997 105.26 256.804 110.625 256.711 114.725C256.62 118.681 256.691 122.642 256.691 127.043ZM281.077 202.416C272.908 194.237 264.81 186.129 256.697 178.006C256.697 185.168 256.73 192.698 256.674 200.227C256.66 202.055 257.555 202.442 259.136 202.433C266.551 202.395 273.967 202.416 281.077 202.416ZM357.129 177.323C348.657 185.8 340.598 193.863 332.386 202.078C333.998 202.815 335.946 202.374 337.798 202.397C343.246 202.464 348.695 202.389 354.143 202.438C355.91 202.453 357.203 202.359 357.168 199.974C357.062 192.555 357.129 185.135 357.129 177.323ZM307.568 126.074C307.568 132.999 307.591 142.013 307.55 149.54C307.541 151.199 308.416 151.515 309.806 151.51C317.212 151.485 326.036 151.499 332.902 151.499C325.009 143.599 315.589 134.102 307.568 126.074ZM306.264 126.074C298.001 134.345 288.966 143.252 280.75 151.476C288.318 151.476 296.984 151.473 304.619 151.48C306.118 151.481 306.267 150.488 306.267 149.338C306.261 141.906 306.264 133.58 306.264 126.074ZM332.809 152.799C325.984 152.799 317.055 152.822 309.541 152.781C307.911 152.772 307.54 153.598 307.546 155.013C307.573 162.432 307.558 171.064 307.558 177.911C315.409 170.04 324.816 160.813 332.809 152.799ZM280.936 152.788C289.238 161.074 297.987 169.853 306.249 178.097C306.249 170.561 306.24 162.154 306.255 154.528C306.258 152.733 305.021 152.789 303.798 152.789C296.496 152.787 288.46 152.788 280.936 152.788ZM306.922 183.621C303.536 193.758 297.482 199.769 287.3 203H326.296C316.495 199.815 310.252 193.848 306.922 183.621ZM275.475 152.181C265.359 148.789 259.288 142.652 256 133.626V171.752C259.37 161.763 265.212 155.495 275.475 152.181Z" fill="white"/>
<path fill-rule="evenodd" clip-rule="evenodd" d="M460 132.166C456.891 141.615 451.331 148.77 440.077 152.099C451.141 155.495 456.959 162.533 460 172.123V132.166ZM388.956 101C398.441 104.062 405.477 109.747 408.897 120.827C412.256 109.865 419.293 104.048 428.869 101H388.956ZM431.38 101.231C422.149 101.987 410.522 113.457 409.764 122.579C409.634 124.143 410.349 125.033 411.32 126C419.228 133.885 427.145 141.76 434.969 149.729C436.366 151.152 437.713 151.548 439.572 151.054C449.403 148.444 456.389 140.964 459.11 131.105C459.704 128.953 459.337 127.444 457.67 125.815C449.872 118.199 442.755 110.759 435.034 103.063C434.036 102.067 433.198 100.639 431.38 101.231ZM408.056 122.909C407.802 113.921 396.232 102.498 387.066 101.871C385.618 101.772 384.848 102.461 384.005 103.306C376.018 111.3 368.018 119.29 360.007 127.26C358.892 128.369 358.402 129.398 358.689 131.106C360.266 140.517 369.402 149.631 378.775 151.186C380.377 151.452 381.51 151.071 382.666 149.901C390.606 141.862 398.61 133.884 406.604 125.897C407.464 125.038 408.371 124.237 408.056 122.909ZM438.061 152.995C436.723 152.691 435.943 153.637 435.091 154.492C427.11 162.492 419.141 170.504 411.109 178.453C409.929 179.62 409.608 180.776 409.882 182.365C411.488 191.698 420.289 200.199 429.726 202.037C431.519 202.386 432.693 202.037 433.951 200.764C441.892 192.724 449.573 185.294 457.554 177.294C458.294 176.551 458.997 175.871 459.005 174.611C459.061 165.89 447.043 153.159 438.061 152.995ZM386.883 202.312C396.147 201.431 406.787 191.373 408.018 182.029C408.242 180.336 407.559 179.315 406.461 178.223C398.538 170.354 390.631 162.468 382.792 154.515C381.528 153.231 380.312 152.808 378.559 153.142C369.274 154.914 361.054 163.907 359.088 173.261C358.684 175.187 359.031 176.465 360.427 177.844C368.376 185.687 375.645 192.937 383.536 200.839C384.474 201.779 385.341 202.89 386.883 202.312ZM459.131 125.587C459.131 119.221 459.075 111.91 459.167 104.6C459.193 102.532 458.523 101.805 456.427 101.833C449.123 101.93 441.816 101.871 435.527 101.871C443.198 109.577 451.312 117.731 459.131 125.587ZM358.691 127.043C367.212 118.51 375.269 110.44 383.828 101.867C379.604 101.867 375.607 101.741 371.62 101.902C367.424 102.072 361.983 100.038 359.381 102.764C356.997 105.26 358.804 110.625 358.711 114.725C358.62 118.681 358.691 122.642 358.691 127.043ZM383.077 202.416C374.908 194.237 366.81 186.129 358.697 178.006C358.697 185.168 358.73 192.698 358.674 200.227C358.66 202.055 359.555 202.442 361.136 202.433C368.551 202.395 375.967 202.416 383.077 202.416ZM459.129 177.323C450.657 185.8 442.598 193.863 434.386 202.078C435.998 202.815 437.946 202.374 439.798 202.397C445.246 202.464 450.695 202.389 456.143 202.438C457.91 202.453 459.203 202.359 459.168 199.974C459.062 192.555 459.129 185.135 459.129 177.323ZM409.568 126.074C409.568 132.999 409.591 142.013 409.55 149.54C409.541 151.199 410.416 151.515 411.806 151.51C419.212 151.485 428.036 151.499 434.902 151.499C427.009 143.599 417.589 134.102 409.568 126.074ZM408.264 126.074C400.001 134.345 390.966 143.252 382.75 151.476C390.318 151.476 398.984 151.473 406.619 151.48C408.118 151.481 408.267 150.488 408.267 149.338C408.261 141.906 408.264 133.58 408.264 126.074ZM434.809 152.799C427.984 152.799 419.055 152.822 411.541 152.781C409.911 152.772 409.54 153.598 409.546 155.013C409.573 162.432 409.558 171.064 409.558 177.911C417.409 170.04 426.816 160.813 434.809 152.799ZM382.936 152.788C391.238 161.074 399.987 169.853 408.249 178.097C408.249 170.561 408.24 162.154 408.255 154.528C408.258 152.733 407.021 152.789 405.798 152.789C398.496 152.787 390.46 152.788 382.936 152.788ZM408.922 183.621C405.536 193.758 399.482 199.769 389.3 203H428.296C418.495 199.815 412.252 193.848 408.922 183.621ZM377.475 152.181C367.359 148.789 361.288 142.652 358 133.626V171.752C361.37 161.763 367.212 155.495 377.475 152.181Z" fill="white"/>
<path fill-rule="evenodd" clip-rule="evenodd" d="M52 234.166C48.8912 243.615 43.331 250.77 32.0768 254.099C43.1415 257.495 48.9594 264.533 52 274.123V234.166ZM-19.0441 203C-9.5586 206.062 -2.52261 211.747 0.897022 222.827C4.25557 211.865 11.2933 206.048 20.8687 203H-19.0441ZM23.3802 203.231C14.1489 203.987 2.52195 215.457 1.76382 224.579C1.63448 226.143 2.34949 227.033 3.3196 228C11.2278 235.885 19.1449 243.76 26.9687 251.729C28.3664 253.152 29.7128 253.548 31.5722 253.054C41.4026 250.444 48.3892 242.964 51.11 233.105C51.7038 230.953 51.3373 229.444 49.6701 227.815C41.8724 220.199 34.7547 212.759 27.0343 205.063C26.0363 204.067 25.1982 202.639 23.3802 203.231ZM0.0556221 224.909C-0.197685 215.921 -11.768 204.498 -20.9338 203.871C-22.3817 203.772 -23.1515 204.461 -23.995 205.306C-31.9822 213.3 -39.982 221.29 -47.9935 229.26C-49.1082 230.369 -49.5978 231.398 -49.3112 233.106C-47.7339 242.517 -38.5978 251.631 -29.2255 253.186C-27.623 253.452 -26.4903 253.071 -25.3343 251.901C-17.3938 243.862 -9.39036 235.884 -1.39595 227.897C-0.536324 227.038 0.370907 226.237 0.0556221 224.909ZM30.0614 254.995C28.7231 254.691 27.9434 255.637 27.0909 256.492C19.11 264.492 11.1407 272.504 3.1086 280.453C1.9292 281.62 1.60761 282.776 1.88158 284.365C3.48765 293.698 12.2887 302.199 21.7257 304.037C23.5186 304.386 24.6926 304.037 25.9511 302.764C33.8916 294.724 41.5734 287.294 49.5543 279.294C50.2945 278.551 50.9969 277.871 51.005 276.611C51.0607 267.89 39.043 255.159 30.0614 254.995ZM-21.1166 304.312C-11.8529 303.431 -1.21315 293.373 0.0183449 284.029C0.242008 282.336 -0.440655 281.315 -1.53922 280.223C-9.46177 272.354 -17.369 264.468 -25.2081 256.515C-26.4719 255.231 -27.6881 254.808 -29.4406 255.142C-38.7258 256.914 -46.9457 265.907 -48.912 275.261C-49.3162 277.187 -48.9694 278.465 -47.5727 279.844C-39.6241 287.687 -32.3554 294.937 -24.4643 302.839C-23.5257 303.779 -22.6588 304.89 -21.1166 304.312ZM51.1311 227.587C51.1311 221.221 51.0745 213.91 51.1671 206.6C51.1931 204.532 50.523 203.805 48.4274 203.833C41.1228 203.93 33.8156 203.871 27.5269 203.871C35.198 211.577 43.3119 219.731 51.1311 227.587ZM-49.3093 229.043C-40.7885 220.51 -32.7312 212.44 -24.1718 203.867C-28.3962 203.867 -32.3934 203.741 -36.3799 203.902C-40.5765 204.072 -46.0172 202.038 -48.6194 204.764C-51.0033 207.26 -49.1961 212.625 -49.2895 216.725C-49.3802 220.681 -49.3093 224.642 -49.3093 229.043ZM-24.9225 304.416C-33.0921 296.237 -41.1898 288.129 -49.3028 280.006C-49.3028 287.168 -49.2704 294.698 -49.3261 302.227C-49.3396 304.055 -48.4449 304.442 -46.864 304.433C-39.449 304.395 -32.033 304.416 -24.9225 304.416ZM51.129 279.323C42.6567 287.8 34.5976 295.863 26.3858 304.078C27.9982 304.815 29.9465 304.374 31.7978 304.397C37.2456 304.464 42.6953 304.389 48.1432 304.438C49.91 304.453 51.2026 304.359 51.1685 301.974C51.0616 294.555 51.129 287.135 51.129 279.323ZM1.56792 228.074C1.56792 234.999 1.59127 244.013 1.54996 251.54C1.54097 253.199 2.41587 253.515 3.80636 253.51C11.2124 253.485 20.0359 253.499 26.9021 253.499C19.0092 245.599 9.58928 236.102 1.56792 228.074ZM0.263836 228.074C-7.99915 236.345 -17.0337 245.252 -25.25 253.476C-17.6823 253.476 -9.01597 253.473 -1.38085 253.48C0.118324 253.481 0.267426 252.488 0.266525 251.338C0.261139 243.906 0.263836 235.58 0.263836 228.074ZM26.809 254.799C19.9841 254.799 11.0546 254.822 3.54075 254.781C1.91132 254.772 1.54035 255.598 1.54573 257.013C1.57269 264.432 1.5583 273.064 1.5583 279.911C9.40899 272.04 18.8163 262.813 26.809 254.799ZM-25.0641 254.788C-16.7616 263.074 -8.01263 271.853 0.248566 280.097C0.248566 272.561 0.240494 264.154 0.254864 256.528C0.257557 254.733 -0.979328 254.789 -2.20184 254.789C-9.50371 254.787 -17.5404 254.788 -25.0641 254.788ZM0.921814 285.621C-2.46369 295.758 -8.51788 301.769 -18.6995 305H20.2961C10.4953 301.815 4.25162 295.848 0.921814 285.621ZM-30.5251 254.181C-40.6412 250.789 -46.7115 244.652 -50 235.626V273.752C-46.6298 263.763 -40.7885 257.495 -30.5251 254.181Z" fill="white"/>
<path fill-rule="evenodd" clip-rule="evenodd" d="M154 234.166C150.891 243.615 145.331 250.77 134.077 254.099C145.141 257.495 150.959 264.533 154 274.123V234.166ZM82.9559 203C92.4414 206.062 99.4774 211.747 102.897 222.827C106.256 211.865 113.293 206.048 122.869 203H82.9559ZM125.38 203.231C116.149 203.987 104.522 215.457 103.764 224.579C103.634 226.143 104.349 227.033 105.32 228C113.228 235.885 121.145 243.76 128.969 251.729C130.366 253.152 131.713 253.548 133.572 253.054C143.403 250.444 150.389 242.964 153.11 233.105C153.704 230.953 153.337 229.444 151.67 227.815C143.872 220.199 136.755 212.759 129.034 205.063C128.036 204.067 127.198 202.639 125.38 203.231ZM102.056 224.909C101.802 215.921 90.232 204.498 81.0662 203.871C79.6183 203.772 78.8485 204.461 78.005 205.306C70.0178 213.3 62.018 221.29 54.0065 229.26C52.8918 230.369 52.4022 231.398 52.6888 233.106C54.2661 242.517 63.4022 251.631 72.7745 253.186C74.377 253.452 75.5097 253.071 76.6657 251.901C84.6062 243.862 92.6096 235.884 100.604 227.897C101.464 227.038 102.371 226.237 102.056 224.909ZM132.061 254.995C130.723 254.691 129.943 255.637 129.091 256.492C121.11 264.492 113.141 272.504 105.109 280.453C103.929 281.62 103.608 282.776 103.882 284.365C105.488 293.698 114.289 302.199 123.726 304.037C125.519 304.386 126.693 304.037 127.951 302.764C135.892 294.724 143.573 287.294 151.554 279.294C152.294 278.551 152.997 277.871 153.005 276.611C153.061 267.89 141.043 255.159 132.061 254.995ZM80.8834 304.312C90.1471 303.431 100.787 293.373 102.018 284.029C102.242 282.336 101.559 281.315 100.461 280.223C92.5382 272.354 84.631 264.468 76.7919 256.515C75.5281 255.231 74.3119 254.808 72.5594 255.142C63.2742 256.914 55.0543 265.907 53.088 275.261C52.6838 277.187 53.0306 278.465 54.4273 279.844C62.3759 287.687 69.6446 294.937 77.5357 302.839C78.4743 303.779 79.3412 304.89 80.8834 304.312ZM153.131 227.587C153.131 221.221 153.075 213.91 153.167 206.6C153.193 204.532 152.523 203.805 150.427 203.833C143.123 203.93 135.816 203.871 129.527 203.871C137.198 211.577 145.312 219.731 153.131 227.587ZM52.6907 229.043C61.2115 220.51 69.2688 212.44 77.8282 203.867C73.6038 203.867 69.6066 203.741 65.6201 203.902C61.4235 204.072 55.9828 202.038 53.3806 204.764C50.9967 207.26 52.8039 212.625 52.7105 216.725C52.6198 220.681 52.6907 224.642 52.6907 229.043ZM77.0775 304.416C68.9079 296.237 60.8102 288.129 52.6972 280.006C52.6972 287.168 52.7296 294.698 52.6739 302.227C52.6604 304.055 53.5551 304.442 55.136 304.433C62.551 304.395 69.967 304.416 77.0775 304.416ZM153.129 279.323C144.657 287.8 136.598 295.863 128.386 304.078C129.998 304.815 131.946 304.374 133.798 304.397C139.246 304.464 144.695 304.389 150.143 304.438C151.91 304.453 153.203 304.359 153.168 301.974C153.062 294.555 153.129 287.135 153.129 279.323ZM103.568 228.074C103.568 234.999 103.591 244.013 103.55 251.54C103.541 253.199 104.416 253.515 105.806 253.51C113.212 253.485 122.036 253.499 128.902 253.499C121.009 245.599 111.589 236.102 103.568 228.074ZM102.264 228.074C94.0008 236.345 84.9663 245.252 76.75 253.476C84.3177 253.476 92.984 253.473 100.619 253.48C102.118 253.481 102.267 252.488 102.267 251.338C102.261 243.906 102.264 235.58 102.264 228.074ZM128.809 254.799C121.984 254.799 113.055 254.822 105.541 254.781C103.911 254.772 103.54 255.598 103.546 257.013C103.573 264.432 103.558 273.064 103.558 279.911C111.409 272.04 120.816 262.813 128.809 254.799ZM76.9359 254.788C85.2384 263.074 93.9874 271.853 102.249 280.097C102.249 272.561 102.24 264.154 102.255 256.528C102.258 254.733 101.021 254.789 99.7982 254.789C92.4963 254.787 84.4596 254.788 76.9359 254.788ZM102.922 285.621C99.5363 295.758 93.4821 301.769 83.3005 305H122.296C112.495 301.815 106.252 295.848 102.922 285.621ZM71.4749 254.181C61.3588 250.789 55.2885 244.652 52 235.626V273.752C55.3702 263.763 61.2115 257.495 71.4749 254.181Z" fill="white"/>
<path fill-rule="evenodd" clip-rule="evenodd" d="M256 234.166C252.891 243.615 247.331 250.77 236.077 254.099C247.141 257.495 252.959 264.533 256 274.123V234.166ZM184.956 203C194.441 206.062 201.477 211.747 204.897 222.827C208.256 211.865 215.293 206.048 224.869 203H184.956ZM227.38 203.231C218.149 203.987 206.522 215.457 205.764 224.579C205.634 226.143 206.349 227.033 207.32 228C215.228 235.885 223.145 243.76 230.969 251.729C232.366 253.152 233.713 253.548 235.572 253.054C245.403 250.444 252.389 242.964 255.11 233.105C255.704 230.953 255.337 229.444 253.67 227.815C245.872 220.199 238.755 212.759 231.034 205.063C230.036 204.067 229.198 202.639 227.38 203.231ZM204.056 224.909C203.802 215.921 192.232 204.498 183.066 203.871C181.618 203.772 180.848 204.461 180.005 205.306C172.018 213.3 164.018 221.29 156.007 229.26C154.892 230.369 154.402 231.398 154.689 233.106C156.266 242.517 165.402 251.631 174.775 253.186C176.377 253.452 177.51 253.071 178.666 251.901C186.606 243.862 194.61 235.884 202.604 227.897C203.464 227.038 204.371 226.237 204.056 224.909ZM234.061 254.995C232.723 254.691 231.943 255.637 231.091 256.492C223.11 264.492 215.141 272.504 207.109 280.453C205.929 281.62 205.608 282.776 205.882 284.365C207.488 293.698 216.289 302.199 225.726 304.037C227.519 304.386 228.693 304.037 229.951 302.764C237.892 294.724 245.573 287.294 253.554 279.294C254.294 278.551 254.997 277.871 255.005 276.611C255.061 267.89 243.043 255.159 234.061 254.995ZM182.883 304.312C192.147 303.431 202.787 293.373 204.018 284.029C204.242 282.336 203.559 281.315 202.461 280.223C194.538 272.354 186.631 264.468 178.792 256.515C177.528 255.231 176.312 254.808 174.559 255.142C165.274 256.914 157.054 265.907 155.088 275.261C154.684 277.187 155.031 278.465 156.427 279.844C164.376 287.687 171.645 294.937 179.536 302.839C180.474 303.779 181.341 304.89 182.883 304.312ZM255.131 227.587C255.131 221.221 255.075 213.91 255.167 206.6C255.193 204.532 254.523 203.805 252.427 203.833C245.123 203.93 237.816 203.871 231.527 203.871C239.198 211.577 247.312 219.731 255.131 227.587ZM154.691 229.043C163.212 220.51 171.269 212.44 179.828 203.867C175.604 203.867 171.607 203.741 167.62 203.902C163.424 204.072 157.983 202.038 155.381 204.764C152.997 207.26 154.804 212.625 154.711 216.725C154.62 220.681 154.691 224.642 154.691 229.043ZM179.077 304.416C170.908 296.237 162.81 288.129 154.697 280.006C154.697 287.168 154.73 294.698 154.674 302.227C154.66 304.055 155.555 304.442 157.136 304.433C164.551 304.395 171.967 304.416 179.077 304.416ZM255.129 279.323C246.657 287.8 238.598 295.863 230.386 304.078C231.998 304.815 233.946 304.374 235.798 304.397C241.246 304.464 246.695 304.389 252.143 304.438C253.91 304.453 255.203 304.359 255.168 301.974C255.062 294.555 255.129 287.135 255.129 279.323ZM205.568 228.074C205.568 234.999 205.591 244.013 205.55 251.54C205.541 253.199 206.416 253.515 207.806 253.51C215.212 253.485 224.036 253.499 230.902 253.499C223.009 245.599 213.589 236.102 205.568 228.074ZM204.264 228.074C196.001 236.345 186.966 245.252 178.75 253.476C186.318 253.476 194.984 253.473 202.619 253.48C204.118 253.481 204.267 252.488 204.267 251.338C204.261 243.906 204.264 235.58 204.264 228.074ZM230.809 254.799C223.984 254.799 215.055 254.822 207.541 254.781C205.911 254.772 205.54 255.598 205.546 257.013C205.573 264.432 205.558 273.064 205.558 279.911C213.409 272.04 222.816 262.813 230.809 254.799ZM178.936 254.788C187.238 263.074 195.987 271.853 204.249 280.097C204.249 272.561 204.24 264.154 204.255 256.528C204.258 254.733 203.021 254.789 201.798 254.789C194.496 254.787 186.46 254.788 178.936 254.788ZM204.922 285.621C201.536 295.758 195.482 301.769 185.3 305H224.296C214.495 301.815 208.252 295.848 204.922 285.621ZM173.475 254.181C163.359 250.789 157.288 244.652 154 235.626V273.752C157.37 263.763 163.212 257.495 173.475 254.181Z" fill="white"/>
<path fill-rule="evenodd" clip-rule="evenodd" d="M358 234.166C354.891 243.615 349.331 250.77 338.077 254.099C349.141 257.495 354.959 264.533 358 274.123V234.166ZM286.956 203C296.441 206.062 303.477 211.747 306.897 222.827C310.256 211.865 317.293 206.048 326.869 203H286.956ZM329.38 203.231C320.149 203.987 308.522 215.457 307.764 224.579C307.634 226.143 308.349 227.033 309.32 228C317.228 235.885 325.145 243.76 332.969 251.729C334.366 253.152 335.713 253.548 337.572 253.054C347.403 250.444 354.389 242.964 357.11 233.105C357.704 230.953 357.337 229.444 355.67 227.815C347.872 220.199 340.755 212.759 333.034 205.063C332.036 204.067 331.198 202.639 329.38 203.231ZM306.056 224.909C305.802 215.921 294.232 204.498 285.066 203.871C283.618 203.772 282.848 204.461 282.005 205.306C274.018 213.3 266.018 221.29 258.007 229.26C256.892 230.369 256.402 231.398 256.689 233.106C258.266 242.517 267.402 251.631 276.775 253.186C278.377 253.452 279.51 253.071 280.666 251.901C288.606 243.862 296.61 235.884 304.604 227.897C305.464 227.038 306.371 226.237 306.056 224.909ZM336.061 254.995C334.723 254.691 333.943 255.637 333.091 256.492C325.11 264.492 317.141 272.504 309.109 280.453C307.929 281.62 307.608 282.776 307.882 284.365C309.488 293.698 318.289 302.199 327.726 304.037C329.519 304.386 330.693 304.037 331.951 302.764C339.892 294.724 347.573 287.294 355.554 279.294C356.294 278.551 356.997 277.871 357.005 276.611C357.061 267.89 345.043 255.159 336.061 254.995ZM284.883 304.312C294.147 303.431 304.787 293.373 306.018 284.029C306.242 282.336 305.559 281.315 304.461 280.223C296.538 272.354 288.631 264.468 280.792 256.515C279.528 255.231 278.312 254.808 276.559 255.142C267.274 256.914 259.054 265.907 257.088 275.261C256.684 277.187 257.031 278.465 258.427 279.844C266.376 287.687 273.645 294.937 281.536 302.839C282.474 303.779 283.341 304.89 284.883 304.312ZM357.131 227.587C357.131 221.221 357.075 213.91 357.167 206.6C357.193 204.532 356.523 203.805 354.427 203.833C347.123 203.93 339.816 203.871 333.527 203.871C341.198 211.577 349.312 219.731 357.131 227.587ZM256.691 229.043C265.212 220.51 273.269 212.44 281.828 203.867C277.604 203.867 273.607 203.741 269.62 203.902C265.424 204.072 259.983 202.038 257.381 204.764C254.997 207.26 256.804 212.625 256.711 216.725C256.62 220.681 256.691 224.642 256.691 229.043ZM281.077 304.416C272.908 296.237 264.81 288.129 256.697 280.006C256.697 287.168 256.73 294.698 256.674 302.227C256.66 304.055 257.555 304.442 259.136 304.433C266.551 304.395 273.967 304.416 281.077 304.416ZM357.129 279.323C348.657 287.8 340.598 295.863 332.386 304.078C333.998 304.815 335.946 304.374 337.798 304.397C343.246 304.464 348.695 304.389 354.143 304.438C355.91 304.453 357.203 304.359 357.168 301.974C357.062 294.555 357.129 287.135 357.129 279.323ZM307.568 228.074C307.568 234.999 307.591 244.013 307.55 251.54C307.541 253.199 308.416 253.515 309.806 253.51C317.212 253.485 326.036 253.499 332.902 253.499C325.009 245.599 315.589 236.102 307.568 228.074ZM306.264 228.074C298.001 236.345 288.966 245.252 280.75 253.476C288.318 253.476 296.984 253.473 304.619 253.48C306.118 253.481 306.267 252.488 306.267 251.338C306.261 243.906 306.264 235.58 306.264 228.074ZM332.809 254.799C325.984 254.799 317.055 254.822 309.541 254.781C307.911 254.772 307.54 255.598 307.546 257.013C307.573 264.432 307.558 273.064 307.558 279.911C315.409 272.04 324.816 262.813 332.809 254.799ZM280.936 254.788C289.238 263.074 297.987 271.853 306.249 280.097C306.249 272.561 306.24 264.154 306.255 256.528C306.258 254.733 305.021 254.789 303.798 254.789C296.496 254.787 288.46 254.788 280.936 254.788ZM306.922 285.621C303.536 295.758 297.482 301.769 287.3 305H326.296C316.495 301.815 310.252 295.848 306.922 285.621ZM275.475 254.181C265.359 250.789 259.288 244.652 256 235.626V273.752C259.37 263.763 265.212 257.495 275.475 254.181Z" fill="white"/>
<path fill-rule="evenodd" clip-rule="evenodd" d="M460 234.166C456.891 243.615 451.331 250.77 440.077 254.099C451.141 257.495 456.959 264.533 460 274.123V234.166ZM388.956 203C398.441 206.062 405.477 211.747 408.897 222.827C412.256 211.865 419.293 206.048 428.869 203H388.956ZM431.38 203.231C422.149 203.987 410.522 215.457 409.764 224.579C409.634 226.143 410.349 227.033 411.32 228C419.228 235.885 427.145 243.76 434.969 251.729C436.366 253.152 437.713 253.548 439.572 253.054C449.403 250.444 456.389 242.964 459.11 233.105C459.704 230.953 459.337 229.444 457.67 227.815C449.872 220.199 442.755 212.759 435.034 205.063C434.036 204.067 433.198 202.639 431.38 203.231ZM408.056 224.909C407.802 215.921 396.232 204.498 387.066 203.871C385.618 203.772 384.848 204.461 384.005 205.306C376.018 213.3 368.018 221.29 360.007 229.26C358.892 230.369 358.402 231.398 358.689 233.106C360.266 242.517 369.402 251.631 378.775 253.186C380.377 253.452 381.51 253.071 382.666 251.901C390.606 243.862 398.61 235.884 406.604 227.897C407.464 227.038 408.371 226.237 408.056 224.909ZM438.061 254.995C436.723 254.691 435.943 255.637 435.091 256.492C427.11 264.492 419.141 272.504 411.109 280.453C409.929 281.62 409.608 282.776 409.882 284.365C411.488 293.698 420.289 302.199 429.726 304.037C431.519 304.386 432.693 304.037 433.951 302.764C441.892 294.724 449.573 287.294 457.554 279.294C458.294 278.551 458.997 277.871 459.005 276.611C459.061 267.89 447.043 255.159 438.061 254.995ZM386.883 304.312C396.147 303.431 406.787 293.373 408.018 284.029C408.242 282.336 407.559 281.315 406.461 280.223C398.538 272.354 390.631 264.468 382.792 256.515C381.528 255.231 380.312 254.808 378.559 255.142C369.274 256.914 361.054 265.907 359.088 275.261C358.684 277.187 359.031 278.465 360.427 279.844C368.376 287.687 375.645 294.937 383.536 302.839C384.474 303.779 385.341 304.89 386.883 304.312ZM459.131 227.587C459.131 221.221 459.075 213.91 459.167 206.6C459.193 204.532 458.523 203.805 456.427 203.833C449.123 203.93 441.816 203.871 435.527 203.871C443.198 211.577 451.312 219.731 459.131 227.587ZM358.691 229.043C367.212 220.51 375.269 212.44 383.828 203.867C379.604 203.867 375.607 203.741 371.62 203.902C367.424 204.072 361.983 202.038 359.381 204.764C356.997 207.26 358.804 212.625 358.711 216.725C358.62 220.681 358.691 224.642 358.691 229.043ZM383.077 304.416C374.908 296.237 366.81 288.129 358.697 280.006C358.697 287.168 358.73 294.698 358.674 302.227C358.66 304.055 359.555 304.442 361.136 304.433C368.551 304.395 375.967 304.416 383.077 304.416ZM459.129 279.323C450.657 287.8 442.598 295.863 434.386 304.078C435.998 304.815 437.946 304.374 439.798 304.397C445.246 304.464 450.695 304.389 456.143 304.438C457.91 304.453 459.203 304.359 459.168 301.974C459.062 294.555 459.129 287.135 459.129 279.323ZM409.568 228.074C409.568 234.999 409.591 244.013 409.55 251.54C409.541 253.199 410.416 253.515 411.806 253.51C419.212 253.485 428.036 253.499 434.902 253.499C427.009 245.599 417.589 236.102 409.568 228.074ZM408.264 228.074C400.001 236.345 390.966 245.252 382.75 253.476C390.318 253.476 398.984 253.473 406.619 253.48C408.118 253.481 408.267 252.488 408.267 251.338C408.261 243.906 408.264 235.58 408.264 228.074ZM434.809 254.799C427.984 254.799 419.055 254.822 411.541 254.781C409.911 254.772 409.54 255.598 409.546 257.013C409.573 264.432 409.558 273.064 409.558 279.911C417.409 272.04 426.816 262.813 434.809 254.799ZM382.936 254.788C391.238 263.074 399.987 271.853 408.249 280.097C408.249 272.561 408.24 264.154 408.255 256.528C408.258 254.733 407.021 254.789 405.798 254.789C398.496 254.787 390.46 254.788 382.936 254.788ZM408.922 285.621C405.536 295.758 399.482 301.769 389.3 305H428.296C418.495 301.815 412.252 295.848 408.922 285.621ZM377.475 254.181C367.359 250.789 361.288 244.652 358 235.626V273.752C361.37 263.763 367.212 257.495 377.475 254.181Z" fill="white"/>
<path fill-rule="evenodd" clip-rule="evenodd" d="M52 336.166C48.8912 345.615 43.331 352.77 32.0768 356.099C43.1415 359.495 48.9594 366.533 52 376.123V336.166ZM-19.0441 305C-9.5586 308.062 -2.52261 313.747 0.897022 324.827C4.25557 313.865 11.2933 308.048 20.8687 305H-19.0441ZM23.3802 305.231C14.1489 305.987 2.52195 317.457 1.76382 326.579C1.63448 328.143 2.34949 329.033 3.3196 330C11.2278 337.885 19.1449 345.76 26.9687 353.729C28.3664 355.152 29.7128 355.548 31.5722 355.054C41.4026 352.444 48.3892 344.964 51.11 335.105C51.7038 332.953 51.3373 331.444 49.6701 329.815C41.8724 322.199 34.7547 314.759 27.0343 307.063C26.0363 306.067 25.1982 304.639 23.3802 305.231ZM0.0556221 326.909C-0.197685 317.921 -11.768 306.498 -20.9338 305.871C-22.3817 305.772 -23.1515 306.461 -23.995 307.306C-31.9822 315.3 -39.982 323.29 -47.9935 331.26C-49.1082 332.369 -49.5978 333.398 -49.3112 335.106C-47.7339 344.517 -38.5978 353.631 -29.2255 355.186C-27.623 355.452 -26.4903 355.071 -25.3343 353.901C-17.3938 345.862 -9.39036 337.884 -1.39595 329.897C-0.536324 329.038 0.370907 328.237 0.0556221 326.909ZM30.0614 356.995C28.7231 356.691 27.9434 357.637 27.0909 358.492C19.11 366.492 11.1407 374.504 3.1086 382.453C1.9292 383.62 1.60761 384.776 1.88158 386.365C3.48765 395.698 12.2887 404.199 21.7257 406.037C23.5186 406.386 24.6926 406.037 25.9511 404.764C33.8916 396.724 41.5734 389.294 49.5543 381.294C50.2945 380.551 50.9969 379.871 51.005 378.611C51.0607 369.89 39.043 357.159 30.0614 356.995ZM-21.1166 406.312C-11.8529 405.431 -1.21315 395.373 0.0183449 386.029C0.242008 384.336 -0.440655 383.315 -1.53922 382.223C-9.46177 374.354 -17.369 366.468 -25.2081 358.515C-26.4719 357.231 -27.6881 356.808 -29.4406 357.142C-38.7258 358.914 -46.9457 367.907 -48.912 377.261C-49.3162 379.187 -48.9694 380.465 -47.5727 381.844C-39.6241 389.687 -32.3554 396.937 -24.4643 404.839C-23.5257 405.779 -22.6588 406.89 -21.1166 406.312ZM51.1311 329.587C51.1311 323.221 51.0745 315.91 51.1671 308.6C51.1931 306.532 50.523 305.805 48.4274 305.833C41.1228 305.93 33.8156 305.871 27.5269 305.871C35.198 313.577 43.3119 321.731 51.1311 329.587ZM-49.3093 331.043C-40.7885 322.51 -32.7312 314.44 -24.1718 305.867C-28.3962 305.867 -32.3934 305.741 -36.3799 305.902C-40.5765 306.072 -46.0172 304.038 -48.6194 306.764C-51.0033 309.26 -49.1961 314.625 -49.2895 318.725C-49.3802 322.681 -49.3093 326.642 -49.3093 331.043ZM-24.9225 406.416C-33.0921 398.237 -41.1898 390.129 -49.3028 382.006C-49.3028 389.168 -49.2704 396.698 -49.3261 404.227C-49.3396 406.055 -48.4449 406.442 -46.864 406.433C-39.449 406.395 -32.033 406.416 -24.9225 406.416ZM51.129 381.323C42.6567 389.8 34.5976 397.863 26.3858 406.078C27.9982 406.815 29.9465 406.374 31.7978 406.397C37.2456 406.464 42.6953 406.389 48.1432 406.438C49.91 406.453 51.2026 406.359 51.1685 403.974C51.0616 396.555 51.129 389.135 51.129 381.323ZM1.56792 330.074C1.56792 336.999 1.59127 346.013 1.54996 353.54C1.54097 355.199 2.41587 355.515 3.80636 355.51C11.2124 355.485 20.0359 355.499 26.9021 355.499C19.0092 347.599 9.58928 338.102 1.56792 330.074ZM0.263836 330.074C-7.99915 338.345 -17.0337 347.252 -25.25 355.476C-17.6823 355.476 -9.01597 355.473 -1.38085 355.48C0.118324 355.481 0.267426 354.488 0.266525 353.338C0.261139 345.906 0.263836 337.58 0.263836 330.074ZM26.809 356.799C19.9841 356.799 11.0546 356.822 3.54075 356.781C1.91132 356.772 1.54035 357.598 1.54573 359.013C1.57269 366.432 1.5583 375.064 1.5583 381.911C9.40899 374.04 18.8163 364.813 26.809 356.799ZM-25.0641 356.788C-16.7616 365.074 -8.01263 373.853 0.248566 382.097C0.248566 374.561 0.240494 366.154 0.254864 358.528C0.257557 356.733 -0.979328 356.789 -2.20184 356.789C-9.50371 356.787 -17.5404 356.788 -25.0641 356.788ZM0.921814 387.621C-2.46369 397.758 -8.51788 403.769 -18.6995 407H20.2961C10.4953 403.815 4.25162 397.848 0.921814 387.621ZM-30.5251 356.181C-40.6412 352.789 -46.7115 346.652 -50 337.626V375.752C-46.6298 365.763 -40.7885 359.495 -30.5251 356.181Z" fill="white"/>
<path fill-rule="evenodd" clip-rule="evenodd" d="M154 336.166C150.891 345.615 145.331 352.77 134.077 356.099C145.141 359.495 150.959 366.533 154 376.123V336.166ZM82.9559 305C92.4414 308.062 99.4774 313.747 102.897 324.827C106.256 313.865 113.293 308.048 122.869 305H82.9559ZM125.38 305.231C116.149 305.987 104.522 317.457 103.764 326.579C103.634 328.143 104.349 329.033 105.32 330C113.228 337.885 121.145 345.76 128.969 353.729C130.366 355.152 131.713 355.548 133.572 355.054C143.403 352.444 150.389 344.964 153.11 335.105C153.704 332.953 153.337 331.444 151.67 329.815C143.872 322.199 136.755 314.759 129.034 307.063C128.036 306.067 127.198 304.639 125.38 305.231ZM102.056 326.909C101.802 317.921 90.232 306.498 81.0662 305.871C79.6183 305.772 78.8485 306.461 78.005 307.306C70.0178 315.3 62.018 323.29 54.0065 331.26C52.8918 332.369 52.4022 333.398 52.6888 335.106C54.2661 344.517 63.4022 353.631 72.7745 355.186C74.377 355.452 75.5097 355.071 76.6657 353.901C84.6062 345.862 92.6096 337.884 100.604 329.897C101.464 329.038 102.371 328.237 102.056 326.909ZM132.061 356.995C130.723 356.691 129.943 357.637 129.091 358.492C121.11 366.492 113.141 374.504 105.109 382.453C103.929 383.62 103.608 384.776 103.882 386.365C105.488 395.698 114.289 404.199 123.726 406.037C125.519 406.386 126.693 406.037 127.951 404.764C135.892 396.724 143.573 389.294 151.554 381.294C152.294 380.551 152.997 379.871 153.005 378.611C153.061 369.89 141.043 357.159 132.061 356.995ZM80.8834 406.312C90.1471 405.431 100.787 395.373 102.018 386.029C102.242 384.336 101.559 383.315 100.461 382.223C92.5382 374.354 84.631 366.468 76.7919 358.515C75.5281 357.231 74.3119 356.808 72.5594 357.142C63.2742 358.914 55.0543 367.907 53.088 377.261C52.6838 379.187 53.0306 380.465 54.4273 381.844C62.3759 389.687 69.6446 396.937 77.5357 404.839C78.4743 405.779 79.3412 406.89 80.8834 406.312ZM153.131 329.587C153.131 323.221 153.075 315.91 153.167 308.6C153.193 306.532 152.523 305.805 150.427 305.833C143.123 305.93 135.816 305.871 129.527 305.871C137.198 313.577 145.312 321.731 153.131 329.587ZM52.6907 331.043C61.2115 322.51 69.2688 314.44 77.8282 305.867C73.6038 305.867 69.6066 305.741 65.6201 305.902C61.4235 306.072 55.9828 304.038 53.3806 306.764C50.9967 309.26 52.8039 314.625 52.7105 318.725C52.6198 322.681 52.6907 326.642 52.6907 331.043ZM77.0775 406.416C68.9079 398.237 60.8102 390.129 52.6972 382.006C52.6972 389.168 52.7296 396.698 52.6739 404.227C52.6604 406.055 53.5551 406.442 55.136 406.433C62.551 406.395 69.967 406.416 77.0775 406.416ZM153.129 381.323C144.657 389.8 136.598 397.863 128.386 406.078C129.998 406.815 131.946 406.374 133.798 406.397C139.246 406.464 144.695 406.389 150.143 406.438C151.91 406.453 153.203 406.359 153.168 403.974C153.062 396.555 153.129 389.135 153.129 381.323ZM103.568 330.074C103.568 336.999 103.591 346.013 103.55 353.54C103.541 355.199 104.416 355.515 105.806 355.51C113.212 355.485 122.036 355.499 128.902 355.499C121.009 347.599 111.589 338.102 103.568 330.074ZM102.264 330.074C94.0008 338.345 84.9663 347.252 76.75 355.476C84.3177 355.476 92.984 355.473 100.619 355.48C102.118 355.481 102.267 354.488 102.267 353.338C102.261 345.906 102.264 337.58 102.264 330.074ZM128.809 356.799C121.984 356.799 113.055 356.822 105.541 356.781C103.911 356.772 103.54 357.598 103.546 359.013C103.573 366.432 103.558 375.064 103.558 381.911C111.409 374.04 120.816 364.813 128.809 356.799ZM76.9359 356.788C85.2384 365.074 93.9874 373.853 102.249 382.097C102.249 374.561 102.24 366.154 102.255 358.528C102.258 356.733 101.021 356.789 99.7982 356.789C92.4963 356.787 84.4596 356.788 76.9359 356.788ZM102.922 387.621C99.5363 397.758 93.4821 403.769 83.3005 407H122.296C112.495 403.815 106.252 397.848 102.922 387.621ZM71.4749 356.181C61.3588 352.789 55.2885 346.652 52 337.626V375.752C55.3702 365.763 61.2115 359.495 71.4749 356.181Z" fill="white"/>
<path fill-rule="evenodd" clip-rule="evenodd" d="M256 336.166C252.891 345.615 247.331 352.77 236.077 356.099C247.141 359.495 252.959 366.533 256 376.123V336.166ZM184.956 305C194.441 308.062 201.477 313.747 204.897 324.827C208.256 313.865 215.293 308.048 224.869 305H184.956ZM227.38 305.231C218.149 305.987 206.522 317.457 205.764 326.579C205.634 328.143 206.349 329.033 207.32 330C215.228 337.885 223.145 345.76 230.969 353.729C232.366 355.152 233.713 355.548 235.572 355.054C245.403 352.444 252.389 344.964 255.11 335.105C255.704 332.953 255.337 331.444 253.67 329.815C245.872 322.199 238.755 314.759 231.034 307.063C230.036 306.067 229.198 304.639 227.38 305.231ZM204.056 326.909C203.802 317.921 192.232 306.498 183.066 305.871C181.618 305.772 180.848 306.461 180.005 307.306C172.018 315.3 164.018 323.29 156.007 331.26C154.892 332.369 154.402 333.398 154.689 335.106C156.266 344.517 165.402 353.631 174.775 355.186C176.377 355.452 177.51 355.071 178.666 353.901C186.606 345.862 194.61 337.884 202.604 329.897C203.464 329.038 204.371 328.237 204.056 326.909ZM234.061 356.995C232.723 356.691 231.943 357.637 231.091 358.492C223.11 366.492 215.141 374.504 207.109 382.453C205.929 383.62 205.608 384.776 205.882 386.365C207.488 395.698 216.289 404.199 225.726 406.037C227.519 406.386 228.693 406.037 229.951 404.764C237.892 396.724 245.573 389.294 253.554 381.294C254.294 380.551 254.997 379.871 255.005 378.611C255.061 369.89 243.043 357.159 234.061 356.995ZM182.883 406.312C192.147 405.431 202.787 395.373 204.018 386.029C204.242 384.336 203.559 383.315 202.461 382.223C194.538 374.354 186.631 366.468 178.792 358.515C177.528 357.231 176.312 356.808 174.559 357.142C165.274 358.914 157.054 367.907 155.088 377.261C154.684 379.187 155.031 380.465 156.427 381.844C164.376 389.687 171.645 396.937 179.536 404.839C180.474 405.779 181.341 406.89 182.883 406.312ZM255.131 329.587C255.131 323.221 255.075 315.91 255.167 308.6C255.193 306.532 254.523 305.805 252.427 305.833C245.123 305.93 237.816 305.871 231.527 305.871C239.198 313.577 247.312 321.731 255.131 329.587ZM154.691 331.043C163.212 322.51 171.269 314.44 179.828 305.867C175.604 305.867 171.607 305.741 167.62 305.902C163.424 306.072 157.983 304.038 155.381 306.764C152.997 309.26 154.804 314.625 154.711 318.725C154.62 322.681 154.691 326.642 154.691 331.043ZM179.077 406.416C170.908 398.237 162.81 390.129 154.697 382.006C154.697 389.168 154.73 396.698 154.674 404.227C154.66 406.055 155.555 406.442 157.136 406.433C164.551 406.395 171.967 406.416 179.077 406.416ZM255.129 381.323C246.657 389.8 238.598 397.863 230.386 406.078C231.998 406.815 233.946 406.374 235.798 406.397C241.246 406.464 246.695 406.389 252.143 406.438C253.91 406.453 255.203 406.359 255.168 403.974C255.062 396.555 255.129 389.135 255.129 381.323ZM205.568 330.074C205.568 336.999 205.591 346.013 205.55 353.54C205.541 355.199 206.416 355.515 207.806 355.51C215.212 355.485 224.036 355.499 230.902 355.499C223.009 347.599 213.589 338.102 205.568 330.074ZM204.264 330.074C196.001 338.345 186.966 347.252 178.75 355.476C186.318 355.476 194.984 355.473 202.619 355.48C204.118 355.481 204.267 354.488 204.267 353.338C204.261 345.906 204.264 337.58 204.264 330.074ZM230.809 356.799C223.984 356.799 215.055 356.822 207.541 356.781C205.911 356.772 205.54 357.598 205.546 359.013C205.573 366.432 205.558 375.064 205.558 381.911C213.409 374.04 222.816 364.813 230.809 356.799ZM178.936 356.788C187.238 365.074 195.987 373.853 204.249 382.097C204.249 374.561 204.24 366.154 204.255 358.528C204.258 356.733 203.021 356.789 201.798 356.789C194.496 356.787 186.46 356.788 178.936 356.788ZM204.922 387.621C201.536 397.758 195.482 403.769 185.3 407H224.296C214.495 403.815 208.252 397.848 204.922 387.621ZM173.475 356.181C163.359 352.789 157.288 346.652 154 337.626V375.752C157.37 365.763 163.212 359.495 173.475 356.181Z" fill="white"/>
<path fill-rule="evenodd" clip-rule="evenodd" d="M358 336.166C354.891 345.615 349.331 352.77 338.077 356.099C349.141 359.495 354.959 366.533 358 376.123V336.166ZM286.956 305C296.441 308.062 303.477 313.747 306.897 324.827C310.256 313.865 317.293 308.048 326.869 305H286.956ZM329.38 305.231C320.149 305.987 308.522 317.457 307.764 326.579C307.634 328.143 308.349 329.033 309.32 330C317.228 337.885 325.145 345.76 332.969 353.729C334.366 355.152 335.713 355.548 337.572 355.054C347.403 352.444 354.389 344.964 357.11 335.105C357.704 332.953 357.337 331.444 355.67 329.815C347.872 322.199 340.755 314.759 333.034 307.063C332.036 306.067 331.198 304.639 329.38 305.231ZM306.056 326.909C305.802 317.921 294.232 306.498 285.066 305.871C283.618 305.772 282.848 306.461 282.005 307.306C274.018 315.3 266.018 323.29 258.007 331.26C256.892 332.369 256.402 333.398 256.689 335.106C258.266 344.517 267.402 353.631 276.775 355.186C278.377 355.452 279.51 355.071 280.666 353.901C288.606 345.862 296.61 337.884 304.604 329.897C305.464 329.038 306.371 328.237 306.056 326.909ZM336.061 356.995C334.723 356.691 333.943 357.637 333.091 358.492C325.11 366.492 317.141 374.504 309.109 382.453C307.929 383.62 307.608 384.776 307.882 386.365C309.488 395.698 318.289 404.199 327.726 406.037C329.519 406.386 330.693 406.037 331.951 404.764C339.892 396.724 347.573 389.294 355.554 381.294C356.294 380.551 356.997 379.871 357.005 378.611C357.061 369.89 345.043 357.159 336.061 356.995ZM284.883 406.312C294.147 405.431 304.787 395.373 306.018 386.029C306.242 384.336 305.559 383.315 304.461 382.223C296.538 374.354 288.631 366.468 280.792 358.515C279.528 357.231 278.312 356.808 276.559 357.142C267.274 358.914 259.054 367.907 257.088 377.261C256.684 379.187 257.031 380.465 258.427 381.844C266.376 389.687 273.645 396.937 281.536 404.839C282.474 405.779 283.341 406.89 284.883 406.312ZM357.131 329.587C357.131 323.221 357.075 315.91 357.167 308.6C357.193 306.532 356.523 305.805 354.427 305.833C347.123 305.93 339.816 305.871 333.527 305.871C341.198 313.577 349.312 321.731 357.131 329.587ZM256.691 331.043C265.212 322.51 273.269 314.44 281.828 305.867C277.604 305.867 273.607 305.741 269.62 305.902C265.424 306.072 259.983 304.038 257.381 306.764C254.997 309.26 256.804 314.625 256.711 318.725C256.62 322.681 256.691 326.642 256.691 331.043ZM281.077 406.416C272.908 398.237 264.81 390.129 256.697 382.006C256.697 389.168 256.73 396.698 256.674 404.227C256.66 406.055 257.555 406.442 259.136 406.433C266.551 406.395 273.967 406.416 281.077 406.416ZM357.129 381.323C348.657 389.8 340.598 397.863 332.386 406.078C333.998 406.815 335.946 406.374 337.798 406.397C343.246 406.464 348.695 406.389 354.143 406.438C355.91 406.453 357.203 406.359 357.168 403.974C357.062 396.555 357.129 389.135 357.129 381.323ZM307.568 330.074C307.568 336.999 307.591 346.013 307.55 353.54C307.541 355.199 308.416 355.515 309.806 355.51C317.212 355.485 326.036 355.499 332.902 355.499C325.009 347.599 315.589 338.102 307.568 330.074ZM306.264 330.074C298.001 338.345 288.966 347.252 280.75 355.476C288.318 355.476 296.984 355.473 304.619 355.48C306.118 355.481 306.267 354.488 306.267 353.338C306.261 345.906 306.264 337.58 306.264 330.074ZM332.809 356.799C325.984 356.799 317.055 356.822 309.541 356.781C307.911 356.772 307.54 357.598 307.546 359.013C307.573 366.432 307.558 375.064 307.558 381.911C315.409 374.04 324.816 364.813 332.809 356.799ZM280.936 356.788C289.238 365.074 297.987 373.853 306.249 382.097C306.249 374.561 306.24 366.154 306.255 358.528C306.258 356.733 305.021 356.789 303.798 356.789C296.496 356.787 288.46 356.788 280.936 356.788ZM306.922 387.621C303.536 397.758 297.482 403.769 287.3 407H326.296C316.495 403.815 310.252 397.848 306.922 387.621ZM275.475 356.181C265.359 352.789 259.288 346.652 256 337.626V375.752C259.37 365.763 265.212 359.495 275.475 356.181Z" fill="white"/>
<path fill-rule="evenodd" clip-rule="evenodd" d="M460 336.166C456.891 345.615 451.331 352.77 440.077 356.099C451.141 359.495 456.959 366.533 460 376.123V336.166ZM388.956 305C398.441 308.062 405.477 313.747 408.897 324.827C412.256 313.865 419.293 308.048 428.869 305H388.956ZM431.38 305.231C422.149 305.987 410.522 317.457 409.764 326.579C409.634 328.143 410.349 329.033 411.32 330C419.228 337.885 427.145 345.76 434.969 353.729C436.366 355.152 437.713 355.548 439.572 355.054C449.403 352.444 456.389 344.964 459.11 335.105C459.704 332.953 459.337 331.444 457.67 329.815C449.872 322.199 442.755 314.759 435.034 307.063C434.036 306.067 433.198 304.639 431.38 305.231ZM408.056 326.909C407.802 317.921 396.232 306.498 387.066 305.871C385.618 305.772 384.848 306.461 384.005 307.306C376.018 315.3 368.018 323.29 360.007 331.26C358.892 332.369 358.402 333.398 358.689 335.106C360.266 344.517 369.402 353.631 378.775 355.186C380.377 355.452 381.51 355.071 382.666 353.901C390.606 345.862 398.61 337.884 406.604 329.897C407.464 329.038 408.371 328.237 408.056 326.909ZM438.061 356.995C436.723 356.691 435.943 357.637 435.091 358.492C427.11 366.492 419.141 374.504 411.109 382.453C409.929 383.62 409.608 384.776 409.882 386.365C411.488 395.698 420.289 404.199 429.726 406.037C431.519 406.386 432.693 406.037 433.951 404.764C441.892 396.724 449.573 389.294 457.554 381.294C458.294 380.551 458.997 379.871 459.005 378.611C459.061 369.89 447.043 357.159 438.061 356.995ZM386.883 406.312C396.147 405.431 406.787 395.373 408.018 386.029C408.242 384.336 407.559 383.315 406.461 382.223C398.538 374.354 390.631 366.468 382.792 358.515C381.528 357.231 380.312 356.808 378.559 357.142C369.274 358.914 361.054 367.907 359.088 377.261C358.684 379.187 359.031 380.465 360.427 381.844C368.376 389.687 375.645 396.937 383.536 404.839C384.474 405.779 385.341 406.89 386.883 406.312ZM459.131 329.587C459.131 323.221 459.075 315.91 459.167 308.6C459.193 306.532 458.523 305.805 456.427 305.833C449.123 305.93 441.816 305.871 435.527 305.871C443.198 313.577 451.312 321.731 459.131 329.587ZM358.691 331.043C367.212 322.51 375.269 314.44 383.828 305.867C379.604 305.867 375.607 305.741 371.62 305.902C367.424 306.072 361.983 304.038 359.381 306.764C356.997 309.26 358.804 314.625 358.711 318.725C358.62 322.681 358.691 326.642 358.691 331.043ZM383.077 406.416C374.908 398.237 366.81 390.129 358.697 382.006C358.697 389.168 358.73 396.698 358.674 404.227C358.66 406.055 359.555 406.442 361.136 406.433C368.551 406.395 375.967 406.416 383.077 406.416ZM459.129 381.323C450.657 389.8 442.598 397.863 434.386 406.078C435.998 406.815 437.946 406.374 439.798 406.397C445.246 406.464 450.695 406.389 456.143 406.438C457.91 406.453 459.203 406.359 459.168 403.974C459.062 396.555 459.129 389.135 459.129 381.323ZM409.568 330.074C409.568 336.999 409.591 346.013 409.55 353.54C409.541 355.199 410.416 355.515 411.806 355.51C419.212 355.485 428.036 355.499 434.902 355.499C427.009 347.599 417.589 338.102 409.568 330.074ZM408.264 330.074C400.001 338.345 390.966 347.252 382.75 355.476C390.318 355.476 398.984 355.473 406.619 355.48C408.118 355.481 408.267 354.488 408.267 353.338C408.261 345.906 408.264 337.58 408.264 330.074ZM434.809 356.799C427.984 356.799 419.055 356.822 411.541 356.781C409.911 356.772 409.54 357.598 409.546 359.013C409.573 366.432 409.558 375.064 409.558 381.911C417.409 374.04 426.816 364.813 434.809 356.799ZM382.936 356.788C391.238 365.074 399.987 373.853 408.249 382.097C408.249 374.561 408.24 366.154 408.255 358.528C408.258 356.733 407.021 356.789 405.798 356.789C398.496 356.787 390.46 356.788 382.936 356.788ZM408.922 387.621C405.536 397.758 399.482 403.769 389.3 407H428.296C418.495 403.815 412.252 397.848 408.922 387.621ZM377.475 356.181C367.359 352.789 361.288 346.652 358 337.626V375.752C361.37 365.763 367.212 359.495 377.475 356.181Z" fill="white"/>
<path fill-rule="evenodd" clip-rule="evenodd" d="M52 438.166C48.8912 447.615 43.331 454.77 32.0768 458.099C43.1415 461.495 48.9594 468.533 52 478.123V438.166ZM-19.0441 407C-9.5586 410.062 -2.52261 415.747 0.897022 426.827C4.25557 415.865 11.2933 410.048 20.8687 407H-19.0441ZM23.3802 407.231C14.1489 407.987 2.52195 419.457 1.76382 428.579C1.63448 430.143 2.34949 431.033 3.3196 432C11.2278 439.885 19.1449 447.76 26.9687 455.729C28.3664 457.152 29.7128 457.548 31.5722 457.054C41.4026 454.444 48.3892 446.964 51.11 437.105C51.7038 434.953 51.3373 433.444 49.6701 431.815C41.8724 424.199 34.7547 416.759 27.0343 409.063C26.0363 408.067 25.1982 406.639 23.3802 407.231ZM0.0556221 428.909C-0.197685 419.921 -11.768 408.498 -20.9338 407.871C-22.3817 407.772 -23.1515 408.461 -23.995 409.306C-31.9822 417.3 -39.982 425.29 -47.9935 433.26C-49.1082 434.369 -49.5978 435.398 -49.3112 437.106C-47.7339 446.517 -38.5978 455.631 -29.2255 457.186C-27.623 457.452 -26.4903 457.071 -25.3343 455.901C-17.3938 447.862 -9.39036 439.884 -1.39595 431.897C-0.536324 431.038 0.370907 430.237 0.0556221 428.909ZM30.0614 458.995C28.7231 458.691 27.9434 459.637 27.0909 460.492C19.11 468.492 11.1407 476.504 3.1086 484.453C1.9292 485.62 1.60761 486.776 1.88158 488.365C3.48765 497.698 12.2887 506.199 21.7257 508.037C23.5186 508.386 24.6926 508.037 25.9511 506.764C33.8916 498.724 41.5734 491.294 49.5543 483.294C50.2945 482.551 50.9969 481.871 51.005 480.611C51.0607 471.89 39.043 459.159 30.0614 458.995ZM-21.1166 508.312C-11.8529 507.431 -1.21315 497.373 0.0183449 488.029C0.242008 486.336 -0.440655 485.315 -1.53922 484.223C-9.46177 476.354 -17.369 468.468 -25.2081 460.515C-26.4719 459.231 -27.6881 458.808 -29.4406 459.142C-38.7258 460.914 -46.9457 469.907 -48.912 479.261C-49.3162 481.187 -48.9694 482.465 -47.5727 483.844C-39.6241 491.687 -32.3554 498.937 -24.4643 506.839C-23.5257 507.779 -22.6588 508.89 -21.1166 508.312ZM51.1311 431.587C51.1311 425.221 51.0745 417.91 51.1671 410.6C51.1931 408.532 50.523 407.805 48.4274 407.833C41.1228 407.93 33.8156 407.871 27.5269 407.871C35.198 415.577 43.3119 423.731 51.1311 431.587ZM-49.3093 433.043C-40.7885 424.51 -32.7312 416.44 -24.1718 407.867C-28.3962 407.867 -32.3934 407.741 -36.3799 407.902C-40.5765 408.072 -46.0172 406.038 -48.6194 408.764C-51.0033 411.26 -49.1961 416.625 -49.2895 420.725C-49.3802 424.681 -49.3093 428.642 -49.3093 433.043ZM-24.9225 508.416C-33.0921 500.237 -41.1898 492.129 -49.3028 484.006C-49.3028 491.168 -49.2704 498.698 -49.3261 506.227C-49.3396 508.055 -48.4449 508.442 -46.864 508.433C-39.449 508.395 -32.033 508.416 -24.9225 508.416ZM51.129 483.323C42.6567 491.8 34.5976 499.863 26.3858 508.078C27.9982 508.815 29.9465 508.374 31.7978 508.397C37.2456 508.464 42.6953 508.389 48.1432 508.438C49.91 508.453 51.2026 508.359 51.1685 505.974C51.0616 498.555 51.129 491.135 51.129 483.323ZM1.56792 432.074C1.56792 438.999 1.59127 448.013 1.54996 455.54C1.54097 457.199 2.41587 457.515 3.80636 457.51C11.2124 457.485 20.0359 457.499 26.9021 457.499C19.0092 449.599 9.58928 440.102 1.56792 432.074ZM0.263836 432.074C-7.99915 440.345 -17.0337 449.252 -25.25 457.476C-17.6823 457.476 -9.01597 457.473 -1.38085 457.48C0.118324 457.481 0.267426 456.488 0.266525 455.338C0.261139 447.906 0.263836 439.58 0.263836 432.074ZM26.809 458.799C19.9841 458.799 11.0546 458.822 3.54075 458.781C1.91132 458.772 1.54035 459.598 1.54573 461.013C1.57269 468.432 1.5583 477.064 1.5583 483.911C9.40899 476.04 18.8163 466.813 26.809 458.799ZM-25.0641 458.788C-16.7616 467.074 -8.01263 475.853 0.248566 484.097C0.248566 476.561 0.240494 468.154 0.254864 460.528C0.257557 458.733 -0.979328 458.789 -2.20184 458.789C-9.50371 458.787 -17.5404 458.788 -25.0641 458.788ZM0.921814 489.621C-2.46369 499.758 -8.51788 505.769 -18.6995 509H20.2961C10.4953 505.815 4.25162 499.848 0.921814 489.621ZM-30.5251 458.181C-40.6412 454.789 -46.7115 448.652 -50 439.626V477.752C-46.6298 467.763 -40.7885 461.495 -30.5251 458.181Z" fill="white"/>
<path fill-rule="evenodd" clip-rule="evenodd" d="M154 438.166C150.891 447.615 145.331 454.77 134.077 458.099C145.141 461.495 150.959 468.533 154 478.123V438.166ZM82.9559 407C92.4414 410.062 99.4774 415.747 102.897 426.827C106.256 415.865 113.293 410.048 122.869 407H82.9559ZM125.38 407.231C116.149 407.987 104.522 419.457 103.764 428.579C103.634 430.143 104.349 431.033 105.32 432C113.228 439.885 121.145 447.76 128.969 455.729C130.366 457.152 131.713 457.548 133.572 457.054C143.403 454.444 150.389 446.964 153.11 437.105C153.704 434.953 153.337 433.444 151.67 431.815C143.872 424.199 136.755 416.759 129.034 409.063C128.036 408.067 127.198 406.639 125.38 407.231ZM102.056 428.909C101.802 419.921 90.232 408.498 81.0662 407.871C79.6183 407.772 78.8485 408.461 78.005 409.306C70.0178 417.3 62.018 425.29 54.0065 433.26C52.8918 434.369 52.4022 435.398 52.6888 437.106C54.2661 446.517 63.4022 455.631 72.7745 457.186C74.377 457.452 75.5097 457.071 76.6657 455.901C84.6062 447.862 92.6096 439.884 100.604 431.897C101.464 431.038 102.371 430.237 102.056 428.909ZM132.061 458.995C130.723 458.691 129.943 459.637 129.091 460.492C121.11 468.492 113.141 476.504 105.109 484.453C103.929 485.62 103.608 486.776 103.882 488.365C105.488 497.698 114.289 506.199 123.726 508.037C125.519 508.386 126.693 508.037 127.951 506.764C135.892 498.724 143.573 491.294 151.554 483.294C152.294 482.551 152.997 481.871 153.005 480.611C153.061 471.89 141.043 459.159 132.061 458.995ZM80.8834 508.312C90.1471 507.431 100.787 497.373 102.018 488.029C102.242 486.336 101.559 485.315 100.461 484.223C92.5382 476.354 84.631 468.468 76.7919 460.515C75.5281 459.231 74.3119 458.808 72.5594 459.142C63.2742 460.914 55.0543 469.907 53.088 479.261C52.6838 481.187 53.0306 482.465 54.4273 483.844C62.3759 491.687 69.6446 498.937 77.5357 506.839C78.4743 507.779 79.3412 508.89 80.8834 508.312ZM153.131 431.587C153.131 425.221 153.075 417.91 153.167 410.6C153.193 408.532 152.523 407.805 150.427 407.833C143.123 407.93 135.816 407.871 129.527 407.871C137.198 415.577 145.312 423.731 153.131 431.587ZM52.6907 433.043C61.2115 424.51 69.2688 416.44 77.8282 407.867C73.6038 407.867 69.6066 407.741 65.6201 407.902C61.4235 408.072 55.9828 406.038 53.3806 408.764C50.9967 411.26 52.8039 416.625 52.7105 420.725C52.6198 424.681 52.6907 428.642 52.6907 433.043ZM77.0775 508.416C68.9079 500.237 60.8102 492.129 52.6972 484.006C52.6972 491.168 52.7296 498.698 52.6739 506.227C52.6604 508.055 53.5551 508.442 55.136 508.433C62.551 508.395 69.967 508.416 77.0775 508.416ZM153.129 483.323C144.657 491.8 136.598 499.863 128.386 508.078C129.998 508.815 131.946 508.374 133.798 508.397C139.246 508.464 144.695 508.389 150.143 508.438C151.91 508.453 153.203 508.359 153.168 505.974C153.062 498.555 153.129 491.135 153.129 483.323ZM103.568 432.074C103.568 438.999 103.591 448.013 103.55 455.54C103.541 457.199 104.416 457.515 105.806 457.51C113.212 457.485 122.036 457.499 128.902 457.499C121.009 449.599 111.589 440.102 103.568 432.074ZM102.264 432.074C94.0008 440.345 84.9663 449.252 76.75 457.476C84.3177 457.476 92.984 457.473 100.619 457.48C102.118 457.481 102.267 456.488 102.267 455.338C102.261 447.906 102.264 439.58 102.264 432.074ZM128.809 458.799C121.984 458.799 113.055 458.822 105.541 458.781C103.911 458.772 103.54 459.598 103.546 461.013C103.573 468.432 103.558 477.064 103.558 483.911C111.409 476.04 120.816 466.813 128.809 458.799ZM76.9359 458.788C85.2384 467.074 93.9874 475.853 102.249 484.097C102.249 476.561 102.24 468.154 102.255 460.528C102.258 458.733 101.021 458.789 99.7982 458.789C92.4963 458.787 84.4596 458.788 76.9359 458.788ZM102.922 489.621C99.5363 499.758 93.4821 505.769 83.3005 509H122.296C112.495 505.815 106.252 499.848 102.922 489.621ZM71.4749 458.181C61.3588 454.789 55.2885 448.652 52 439.626V477.752C55.3702 467.763 61.2115 461.495 71.4749 458.181Z" fill="white"/>
<path fill-rule="evenodd" clip-rule="evenodd" d="M256 438.166C252.891 447.615 247.331 454.77 236.077 458.099C247.141 461.495 252.959 468.533 256 478.123V438.166ZM184.956 407C194.441 410.062 201.477 415.747 204.897 426.827C208.256 415.865 215.293 410.048 224.869 407H184.956ZM227.38 407.231C218.149 407.987 206.522 419.457 205.764 428.579C205.634 430.143 206.349 431.033 207.32 432C215.228 439.885 223.145 447.76 230.969 455.729C232.366 457.152 233.713 457.548 235.572 457.054C245.403 454.444 252.389 446.964 255.11 437.105C255.704 434.953 255.337 433.444 253.67 431.815C245.872 424.199 238.755 416.759 231.034 409.063C230.036 408.067 229.198 406.639 227.38 407.231ZM204.056 428.909C203.802 419.921 192.232 408.498 183.066 407.871C181.618 407.772 180.848 408.461 180.005 409.306C172.018 417.3 164.018 425.29 156.007 433.26C154.892 434.369 154.402 435.398 154.689 437.106C156.266 446.517 165.402 455.631 174.775 457.186C176.377 457.452 177.51 457.071 178.666 455.901C186.606 447.862 194.61 439.884 202.604 431.897C203.464 431.038 204.371 430.237 204.056 428.909ZM234.061 458.995C232.723 458.691 231.943 459.637 231.091 460.492C223.11 468.492 215.141 476.504 207.109 484.453C205.929 485.62 205.608 486.776 205.882 488.365C207.488 497.698 216.289 506.199 225.726 508.037C227.519 508.386 228.693 508.037 229.951 506.764C237.892 498.724 245.573 491.294 253.554 483.294C254.294 482.551 254.997 481.871 255.005 480.611C255.061 471.89 243.043 459.159 234.061 458.995ZM182.883 508.312C192.147 507.431 202.787 497.373 204.018 488.029C204.242 486.336 203.559 485.315 202.461 484.223C194.538 476.354 186.631 468.468 178.792 460.515C177.528 459.231 176.312 458.808 174.559 459.142C165.274 460.914 157.054 469.907 155.088 479.261C154.684 481.187 155.031 482.465 156.427 483.844C164.376 491.687 171.645 498.937 179.536 506.839C180.474 507.779 181.341 508.89 182.883 508.312ZM255.131 431.587C255.131 425.221 255.075 417.91 255.167 410.6C255.193 408.532 254.523 407.805 252.427 407.833C245.123 407.93 237.816 407.871 231.527 407.871C239.198 415.577 247.312 423.731 255.131 431.587ZM154.691 433.043C163.212 424.51 171.269 416.44 179.828 407.867C175.604 407.867 171.607 407.741 167.62 407.902C163.424 408.072 157.983 406.038 155.381 408.764C152.997 411.26 154.804 416.625 154.711 420.725C154.62 424.681 154.691 428.642 154.691 433.043ZM179.077 508.416C170.908 500.237 162.81 492.129 154.697 484.006C154.697 491.168 154.73 498.698 154.674 506.227C154.66 508.055 155.555 508.442 157.136 508.433C164.551 508.395 171.967 508.416 179.077 508.416ZM255.129 483.323C246.657 491.8 238.598 499.863 230.386 508.078C231.998 508.815 233.946 508.374 235.798 508.397C241.246 508.464 246.695 508.389 252.143 508.438C253.91 508.453 255.203 508.359 255.168 505.974C255.062 498.555 255.129 491.135 255.129 483.323ZM205.568 432.074C205.568 438.999 205.591 448.013 205.55 455.54C205.541 457.199 206.416 457.515 207.806 457.51C215.212 457.485 224.036 457.499 230.902 457.499C223.009 449.599 213.589 440.102 205.568 432.074ZM204.264 432.074C196.001 440.345 186.966 449.252 178.75 457.476C186.318 457.476 194.984 457.473 202.619 457.48C204.118 457.481 204.267 456.488 204.267 455.338C204.261 447.906 204.264 439.58 204.264 432.074ZM230.809 458.799C223.984 458.799 215.055 458.822 207.541 458.781C205.911 458.772 205.54 459.598 205.546 461.013C205.573 468.432 205.558 477.064 205.558 483.911C213.409 476.04 222.816 466.813 230.809 458.799ZM178.936 458.788C187.238 467.074 195.987 475.853 204.249 484.097C204.249 476.561 204.24 468.154 204.255 460.528C204.258 458.733 203.021 458.789 201.798 458.789C194.496 458.787 186.46 458.788 178.936 458.788ZM204.922 489.621C201.536 499.758 195.482 505.769 185.3 509H224.296C214.495 505.815 208.252 499.848 204.922 489.621ZM173.475 458.181C163.359 454.789 157.288 448.652 154 439.626V477.752C157.37 467.763 163.212 461.495 173.475 458.181Z" fill="white"/>
<path fill-rule="evenodd" clip-rule="evenodd" d="M358 438.166C354.891 447.615 349.331 454.77 338.077 458.099C349.141 461.495 354.959 468.533 358 478.123V438.166ZM286.956 407C296.441 410.062 303.477 415.747 306.897 426.827C310.256 415.865 317.293 410.048 326.869 407H286.956ZM329.38 407.231C320.149 407.987 308.522 419.457 307.764 428.579C307.634 430.143 308.349 431.033 309.32 432C317.228 439.885 325.145 447.76 332.969 455.729C334.366 457.152 335.713 457.548 337.572 457.054C347.403 454.444 354.389 446.964 357.11 437.105C357.704 434.953 357.337 433.444 355.67 431.815C347.872 424.199 340.755 416.759 333.034 409.063C332.036 408.067 331.198 406.639 329.38 407.231ZM306.056 428.909C305.802 419.921 294.232 408.498 285.066 407.871C283.618 407.772 282.848 408.461 282.005 409.306C274.018 417.3 266.018 425.29 258.007 433.26C256.892 434.369 256.402 435.398 256.689 437.106C258.266 446.517 267.402 455.631 276.775 457.186C278.377 457.452 279.51 457.071 280.666 455.901C288.606 447.862 296.61 439.884 304.604 431.897C305.464 431.038 306.371 430.237 306.056 428.909ZM336.061 458.995C334.723 458.691 333.943 459.637 333.091 460.492C325.11 468.492 317.141 476.504 309.109 484.453C307.929 485.62 307.608 486.776 307.882 488.365C309.488 497.698 318.289 506.199 327.726 508.037C329.519 508.386 330.693 508.037 331.951 506.764C339.892 498.724 347.573 491.294 355.554 483.294C356.294 482.551 356.997 481.871 357.005 480.611C357.061 471.89 345.043 459.159 336.061 458.995ZM284.883 508.312C294.147 507.431 304.787 497.373 306.018 488.029C306.242 486.336 305.559 485.315 304.461 484.223C296.538 476.354 288.631 468.468 280.792 460.515C279.528 459.231 278.312 458.808 276.559 459.142C267.274 460.914 259.054 469.907 257.088 479.261C256.684 481.187 257.031 482.465 258.427 483.844C266.376 491.687 273.645 498.937 281.536 506.839C282.474 507.779 283.341 508.89 284.883 508.312ZM357.131 431.587C357.131 425.221 357.075 417.91 357.167 410.6C357.193 408.532 356.523 407.805 354.427 407.833C347.123 407.93 339.816 407.871 333.527 407.871C341.198 415.577 349.312 423.731 357.131 431.587ZM256.691 433.043C265.212 424.51 273.269 416.44 281.828 407.867C277.604 407.867 273.607 407.741 269.62 407.902C265.424 408.072 259.983 406.038 257.381 408.764C254.997 411.26 256.804 416.625 256.711 420.725C256.62 424.681 256.691 428.642 256.691 433.043ZM281.077 508.416C272.908 500.237 264.81 492.129 256.697 484.006C256.697 491.168 256.73 498.698 256.674 506.227C256.66 508.055 257.555 508.442 259.136 508.433C266.551 508.395 273.967 508.416 281.077 508.416ZM357.129 483.323C348.657 491.8 340.598 499.863 332.386 508.078C333.998 508.815 335.946 508.374 337.798 508.397C343.246 508.464 348.695 508.389 354.143 508.438C355.91 508.453 357.203 508.359 357.168 505.974C357.062 498.555 357.129 491.135 357.129 483.323ZM307.568 432.074C307.568 438.999 307.591 448.013 307.55 455.54C307.541 457.199 308.416 457.515 309.806 457.51C317.212 457.485 326.036 457.499 332.902 457.499C325.009 449.599 315.589 440.102 307.568 432.074ZM306.264 432.074C298.001 440.345 288.966 449.252 280.75 457.476C288.318 457.476 296.984 457.473 304.619 457.48C306.118 457.481 306.267 456.488 306.267 455.338C306.261 447.906 306.264 439.58 306.264 432.074ZM332.809 458.799C325.984 458.799 317.055 458.822 309.541 458.781C307.911 458.772 307.54 459.598 307.546 461.013C307.573 468.432 307.558 477.064 307.558 483.911C315.409 476.04 324.816 466.813 332.809 458.799ZM280.936 458.788C289.238 467.074 297.987 475.853 306.249 484.097C306.249 476.561 306.24 468.154 306.255 460.528C306.258 458.733 305.021 458.789 303.798 458.789C296.496 458.787 288.46 458.788 280.936 458.788ZM306.922 489.621C303.536 499.758 297.482 505.769 287.3 509H326.296C316.495 505.815 310.252 499.848 306.922 489.621ZM275.475 458.181C265.359 454.789 259.288 448.652 256 439.626V477.752C259.37 467.763 265.212 461.495 275.475 458.181Z" fill="white"/>
<path fill-rule="evenodd" clip-rule="evenodd" d="M460 438.166C456.891 447.615 451.331 454.77 440.077 458.099C451.141 461.495 456.959 468.533 460 478.123V438.166ZM388.956 407C398.441 410.062 405.477 415.747 408.897 426.827C412.256 415.865 419.293 410.048 428.869 407H388.956ZM431.38 407.231C422.149 407.987 410.522 419.457 409.764 428.579C409.634 430.143 410.349 431.033 411.32 432C419.228 439.885 427.145 447.76 434.969 455.729C436.366 457.152 437.713 457.548 439.572 457.054C449.403 454.444 456.389 446.964 459.11 437.105C459.704 434.953 459.337 433.444 457.67 431.815C449.872 424.199 442.755 416.759 435.034 409.063C434.036 408.067 433.198 406.639 431.38 407.231ZM408.056 428.909C407.802 419.921 396.232 408.498 387.066 407.871C385.618 407.772 384.848 408.461 384.005 409.306C376.018 417.3 368.018 425.29 360.007 433.26C358.892 434.369 358.402 435.398 358.689 437.106C360.266 446.517 369.402 455.631 378.775 457.186C380.377 457.452 381.51 457.071 382.666 455.901C390.606 447.862 398.61 439.884 406.604 431.897C407.464 431.038 408.371 430.237 408.056 428.909ZM438.061 458.995C436.723 458.691 435.943 459.637 435.091 460.492C427.11 468.492 419.141 476.504 411.109 484.453C409.929 485.62 409.608 486.776 409.882 488.365C411.488 497.698 420.289 506.199 429.726 508.037C431.519 508.386 432.693 508.037 433.951 506.764C441.892 498.724 449.573 491.294 457.554 483.294C458.294 482.551 458.997 481.871 459.005 480.611C459.061 471.89 447.043 459.159 438.061 458.995ZM386.883 508.312C396.147 507.431 406.787 497.373 408.018 488.029C408.242 486.336 407.559 485.315 406.461 484.223C398.538 476.354 390.631 468.468 382.792 460.515C381.528 459.231 380.312 458.808 378.559 459.142C369.274 460.914 361.054 469.907 359.088 479.261C358.684 481.187 359.031 482.465 360.427 483.844C368.376 491.687 375.645 498.937 383.536 506.839C384.474 507.779 385.341 508.89 386.883 508.312ZM459.131 431.587C459.131 425.221 459.075 417.91 459.167 410.6C459.193 408.532 458.523 407.805 456.427 407.833C449.123 407.93 441.816 407.871 435.527 407.871C443.198 415.577 451.312 423.731 459.131 431.587ZM358.691 433.043C367.212 424.51 375.269 416.44 383.828 407.867C379.604 407.867 375.607 407.741 371.62 407.902C367.424 408.072 361.983 406.038 359.381 408.764C356.997 411.26 358.804 416.625 358.711 420.725C358.62 424.681 358.691 428.642 358.691 433.043ZM383.077 508.416C374.908 500.237 366.81 492.129 358.697 484.006C358.697 491.168 358.73 498.698 358.674 506.227C358.66 508.055 359.555 508.442 361.136 508.433C368.551 508.395 375.967 508.416 383.077 508.416ZM459.129 483.323C450.657 491.8 442.598 499.863 434.386 508.078C435.998 508.815 437.946 508.374 439.798 508.397C445.246 508.464 450.695 508.389 456.143 508.438C457.91 508.453 459.203 508.359 459.168 505.974C459.062 498.555 459.129 491.135 459.129 483.323ZM409.568 432.074C409.568 438.999 409.591 448.013 409.55 455.54C409.541 457.199 410.416 457.515 411.806 457.51C419.212 457.485 428.036 457.499 434.902 457.499C427.009 449.599 417.589 440.102 409.568 432.074ZM408.264 432.074C400.001 440.345 390.966 449.252 382.75 457.476C390.318 457.476 398.984 457.473 406.619 457.48C408.118 457.481 408.267 456.488 408.267 455.338C408.261 447.906 408.264 439.58 408.264 432.074ZM434.809 458.799C427.984 458.799 419.055 458.822 411.541 458.781C409.911 458.772 409.54 459.598 409.546 461.013C409.573 468.432 409.558 477.064 409.558 483.911C417.409 476.04 426.816 466.813 434.809 458.799ZM382.936 458.788C391.238 467.074 399.987 475.853 408.249 484.097C408.249 476.561 408.24 468.154 408.255 460.528C408.258 458.733 407.021 458.789 405.798 458.789C398.496 458.787 390.46 458.788 382.936 458.788ZM408.922 489.621C405.536 499.758 399.482 505.769 389.3 509H428.296C418.495 505.815 412.252 499.848 408.922 489.621ZM377.475 458.181C367.359 454.789 361.288 448.652 358 439.626V477.752C361.37 467.763 367.212 461.495 377.475 458.181Z" fill="white"/>
</g>
<defs>
<clipPath id="clip0_22211_11069">
<rect width="357" height="509" fill="white"/>
</clipPath>
</defs>
</svg>
