<svg width="29" height="29" viewBox="0 0 29 29" fill="none" xmlns="http://www.w3.org/2000/svg">
<path d="M12.7998 25.4493C19.8689 25.4493 25.5996 19.7523 25.5996 12.7246C25.5996 5.69702 19.8689 0 12.7998 0C5.73066 0 0 5.69702 0 12.7246C0 19.7523 5.73066 25.4493 12.7998 25.4493Z" fill="#294CFF"/>
<g style="mix-blend-mode:multiply">
<path fill-rule="evenodd" clip-rule="evenodd" d="M15.0384 12.5567C14.5758 12.4111 14.0786 12.263 13.6054 12.2856C12.7179 12.3282 12.1115 13.1733 12.2452 14.051C12.2756 14.2505 12.3364 14.4473 12.4008 14.6394L16.7729 27.766C17.1048 28.808 18.1313 29.195 18.9162 28.908C19.9513 28.5295 20.9886 28.1001 21.9304 27.5364C25.2749 25.5352 27.5658 22.6558 28.8693 18.9996C29.2368 17.9687 28.8167 17.1197 27.7676 16.7715L15.0384 12.5567Z" fill="#37CC3A"/>
</g>
</svg>
