<svg width="40" height="40" viewBox="0 0 40 40" fill="none" xmlns="http://www.w3.org/2000/svg">
<g clip-path="url(#clip0_20635_8366)">
<g style="mix-blend-mode:multiply">
<path fill-rule="evenodd" clip-rule="evenodd" d="M29.3074 31.4621C30.9577 31.4621 31.7828 30.006 31.7828 27.0938L31.7828 18.7988L31.7828 10.6205C31.7828 9.51596 30.8874 8.62053 29.7828 8.62053C29.2499 8.62053 28.7391 8.83318 28.3636 9.21128L9.65358 28.0529C8.87527 28.8367 8.87971 30.103 9.66349 30.8813C10.0382 31.2534 10.5447 31.4621 11.0727 31.4621L26.8191 31.4621C26.8277 31.4621 27.6571 31.4621 29.3074 31.4621Z" fill="#0F35F5"/>
</g>
<g style="mix-blend-mode:multiply">
<path fill-rule="evenodd" clip-rule="evenodd" d="M23.4109 26.4871C24.739 26.4871 25.403 25.3153 25.403 22.9716L25.403 12.1939L25.403 10.6622C25.403 9.55766 24.5076 8.66223 23.403 8.66223C22.8701 8.66223 22.3593 8.87487 21.9838 9.25298L8.25547 23.0779C7.47717 23.8616 7.4816 25.128 8.26538 25.9063C8.64005 26.2783 9.14663 26.4871 9.67463 26.4871L21.4084 26.4871C21.4154 26.4871 22.0829 26.4871 23.4109 26.4871Z" fill="#37CC3A"/>
</g>
</g>
<defs>
<clipPath id="clip0_20635_8366">
<rect width="25" height="24" fill="white" transform="translate(7.5 8)"/>
</clipPath>
</defs>
</svg>
