<svg width="537" height="292" viewBox="0 0 537 292" fill="none" xmlns="http://www.w3.org/2000/svg">
<path opacity="0.3" d="M529.899 0.157227H7.10083C3.17915 0.157227 0 3.32943 0 7.24255V284.456C0 288.369 3.17915 291.541 7.10083 291.541H529.899C533.821 291.541 537 288.369 537 284.456V7.24255C537 3.32943 533.821 0.157227 529.899 0.157227Z" fill="#3E4352"/>
<g opacity="0.6">
<path fill-rule="evenodd" clip-rule="evenodd" d="M405.635 148.949H407.765V151.148H405.635V148.949ZM405.635 215.796H407.765V217.994H405.635V215.796ZM405.635 182.372H407.765V184.571H405.635V182.372ZM405.635 249.219H407.765V251.418H405.635V249.219ZM405.635 165.661H407.765V167.86H405.635V165.661ZM405.635 232.507H407.765V234.706H405.635V232.507ZM405.635 199.084H407.765V201.283H405.635V199.084ZM405.635 265.93H407.765V268.129H405.635V265.93ZM405.635 157.305H407.765V159.504H405.635V157.305ZM405.635 224.151H407.765V226.35H405.635V224.151ZM405.635 190.728H407.765V192.927H405.635V190.728ZM405.635 257.575H407.765V259.773H405.635V257.575ZM405.635 174.017H407.765V176.215H405.635V174.017ZM405.635 240.863H407.765V243.062H405.635V240.863ZM405.635 207.44H407.765V209.639H405.635V207.44ZM405.635 274.286H407.765V276.485H405.635V274.286ZM472.738 148.949H474.868V151.148H472.738V148.949ZM472.738 215.796H474.868V217.994H472.738V215.796ZM472.738 182.372H474.868V184.571H472.738V182.372ZM472.738 249.219H474.868V251.418H472.738V249.219ZM472.738 165.661H474.868V167.86H472.738V165.661ZM472.738 232.507H474.868V234.706H472.738V232.507ZM472.738 199.084H474.868V201.283H472.738V199.084ZM472.738 265.93H474.868V268.129H472.738V265.93ZM472.738 157.305H474.868V159.504H472.738V157.305ZM472.738 224.151H474.868V226.35H472.738V224.151ZM472.738 190.728H474.868V192.927H472.738V190.728ZM472.738 257.575H474.868V259.773H472.738V257.575ZM472.738 174.017H474.868V176.215H472.738V174.017ZM472.738 240.863H474.868V243.062H472.738V240.863ZM472.738 207.44H474.868V209.639H472.738V207.44ZM472.738 274.286H474.868V276.485H472.738V274.286ZM438.654 148.949H440.784V151.148H438.654V148.949ZM438.654 215.796H440.784V217.994H438.654V215.796ZM438.654 182.372H440.784V184.571H438.654V182.372ZM438.654 249.219H440.784V251.418H438.654V249.219ZM438.654 165.661H440.784V167.86H438.654V165.661ZM438.654 232.507H440.784V234.706H438.654V232.507ZM438.654 199.084H440.784V201.283H438.654V199.084ZM438.654 265.93H440.784V268.129H438.654V265.93ZM438.654 157.305H440.784V159.504H438.654V157.305ZM438.654 224.151H440.784V226.35H438.654V224.151ZM438.654 190.728H440.784V192.927H438.654V190.728ZM438.654 257.575H440.784V259.773H438.654V257.575ZM438.654 174.017H440.784V176.215H438.654V174.017ZM438.654 240.863H440.784V243.062H438.654V240.863ZM438.654 207.44H440.784V209.639H438.654V207.44ZM438.654 274.286H440.784V276.485H438.654V274.286ZM505.756 148.949H507.887V151.148H505.756V148.949ZM505.756 215.796H507.887V217.994H505.756V215.796ZM505.756 182.372H507.887V184.571H505.756V182.372ZM505.756 249.219H507.887V251.418H505.756V249.219ZM505.756 165.661H507.887V167.86H505.756V165.661ZM505.756 232.507H507.887V234.706H505.756V232.507ZM505.756 199.084H507.887V201.283H505.756V199.084ZM505.756 265.93H507.887V268.129H505.756V265.93ZM505.756 157.305H507.887V159.504H505.756V157.305ZM505.756 224.151H507.887V226.35H505.756V224.151ZM505.756 190.728H507.887V192.927H505.756V190.728ZM505.756 257.575H507.887V259.773H505.756V257.575ZM505.756 174.017H507.887V176.215H505.756V174.017ZM505.756 240.863H507.887V243.062H505.756V240.863ZM505.756 207.44H507.887V209.639H505.756V207.44ZM505.756 274.286H507.887V276.485H505.756V274.286ZM422.677 148.949H424.807V151.148H422.677V148.949ZM422.677 215.796H424.807V217.994H422.677V215.796ZM422.677 182.372H424.807V184.571H422.677V182.372ZM422.677 249.219H424.807V251.418H422.677V249.219ZM422.677 165.661H424.807V167.86H422.677V165.661ZM422.677 232.507H424.807V234.706H422.677V232.507ZM422.677 199.084H424.807V201.283H422.677V199.084ZM422.677 265.93H424.807V268.129H422.677V265.93ZM422.677 157.305H424.807V159.504H422.677V157.305ZM422.677 224.151H424.807V226.35H422.677V224.151ZM422.677 190.728H424.807V192.927H422.677V190.728ZM422.677 257.575H424.807V259.773H422.677V257.575ZM422.677 174.017H424.807V176.215H422.677V174.017ZM422.677 240.863H424.807V243.062H422.677V240.863ZM422.677 207.44H424.807V209.639H422.677V207.44ZM422.677 274.286H424.807V276.485H422.677V274.286ZM489.78 148.949H491.91V151.148H489.78V148.949ZM489.78 215.796H491.91V217.994H489.78V215.796ZM489.78 182.372H491.91V184.571H489.78V182.372ZM489.78 249.219H491.91V251.418H489.78V249.219ZM489.78 165.661H491.91V167.86H489.78V165.661ZM489.78 232.507H491.91V234.706H489.78V232.507ZM489.78 199.084H491.91V201.283H489.78V199.084ZM489.78 265.93H491.91V268.129H489.78V265.93ZM489.78 157.305H491.91V159.504H489.78V157.305ZM489.78 224.151H491.91V226.35H489.78V224.151ZM489.78 190.728H491.91V192.927H489.78V190.728ZM489.78 257.575H491.91V259.773H489.78V257.575ZM489.78 174.017H491.91V176.215H489.78V174.017ZM489.78 240.863H491.91V243.062H489.78V240.863ZM489.78 207.44H491.91V209.639H489.78V207.44ZM489.78 274.286H491.91V276.485H489.78V274.286ZM455.696 148.949H457.826V151.148H455.696V148.949ZM455.696 215.796H457.826V217.994H455.696V215.796ZM455.696 182.372H457.826V184.571H455.696V182.372ZM455.696 249.219H457.826V251.418H455.696V249.219ZM455.696 165.661H457.826V167.86H455.696V165.661ZM455.696 232.507H457.826V234.706H455.696V232.507ZM455.696 199.084H457.826V201.283H455.696V199.084ZM455.696 265.93H457.826V268.129H455.696V265.93ZM455.696 157.305H457.826V159.504H455.696V157.305ZM455.696 224.151H457.826V226.35H455.696V224.151ZM455.696 190.728H457.826V192.927H455.696V190.728ZM455.696 257.575H457.826V259.773H455.696V257.575ZM455.696 174.017H457.826V176.215H455.696V174.017ZM455.696 240.863H457.826V243.062H455.696V240.863ZM455.696 207.44H457.826V209.639H455.696V207.44ZM455.696 274.286H457.826V276.485H455.696V274.286ZM522.798 148.949H524.929V151.148H522.798V148.949ZM522.798 215.796H524.929V217.994H522.798V215.796ZM522.798 182.372H524.929V184.571H522.798V182.372ZM522.798 249.219H524.929V251.418H522.798V249.219ZM522.798 165.661H524.929V167.86H522.798V165.661ZM522.798 232.507H524.929V234.706H522.798V232.507ZM522.798 199.084H524.929V201.283H522.798V199.084ZM522.798 265.93H524.929V268.129H522.798V265.93ZM522.798 157.305H524.929V159.504H522.798V157.305ZM522.798 224.151H524.929V226.35H522.798V224.151ZM522.798 190.728H524.929V192.927H522.798V190.728ZM522.798 257.575H524.929V259.773H522.798V257.575ZM522.798 174.017H524.929V176.215H522.798V174.017ZM522.798 240.863H524.929V243.062H522.798V240.863ZM522.798 207.44H524.929V209.639H522.798V207.44ZM522.798 274.286H524.929V276.485H522.798V274.286ZM414.156 148.949H416.286V151.148H414.156V148.949ZM414.156 215.796H416.286V217.994H414.156V215.796ZM414.156 182.372H416.286V184.571H414.156V182.372ZM414.156 249.219H416.286V251.418H414.156V249.219ZM414.156 165.661H416.286V167.86H414.156V165.661ZM414.156 232.507H416.286V234.706H414.156V232.507ZM414.156 199.084H416.286V201.283H414.156V199.084ZM414.156 265.93H416.286V268.129H414.156V265.93ZM414.156 157.305H416.286V159.504H414.156V157.305ZM414.156 224.151H416.286V226.35H414.156V224.151ZM414.156 190.728H416.286V192.927H414.156V190.728ZM414.156 257.575H416.286V259.773H414.156V257.575ZM414.156 174.017H416.286V176.215H414.156V174.017ZM414.156 240.863H416.286V243.062H414.156V240.863ZM414.156 207.44H416.286V209.639H414.156V207.44ZM414.156 274.286H416.286V276.485H414.156V274.286ZM481.259 148.949H483.389V151.148H481.259V148.949ZM481.259 215.796H483.389V217.994H481.259V215.796ZM481.259 182.372H483.389V184.571H481.259V182.372ZM481.259 249.219H483.389V251.418H481.259V249.219ZM481.259 165.661H483.389V167.86H481.259V165.661ZM481.259 232.507H483.389V234.706H481.259V232.507ZM481.259 199.084H483.389V201.283H481.259V199.084ZM481.259 265.93H483.389V268.129H481.259V265.93ZM481.259 157.305H483.389V159.504H481.259V157.305ZM481.259 224.151H483.389V226.35H481.259V224.151ZM481.259 190.728H483.389V192.927H481.259V190.728ZM481.259 257.575H483.389V259.773H481.259V257.575ZM481.259 174.017H483.389V176.215H481.259V174.017ZM481.259 240.863H483.389V243.062H481.259V240.863ZM481.259 207.44H483.389V209.639H481.259V207.44ZM481.259 274.286H483.389V276.485H481.259V274.286ZM447.175 148.949H449.305V151.148H447.175V148.949ZM447.175 215.796H449.305V217.994H447.175V215.796ZM447.175 182.372H449.305V184.571H447.175V182.372ZM447.175 249.219H449.305V251.418H447.175V249.219ZM447.175 165.661H449.305V167.86H447.175V165.661ZM447.175 232.507H449.305V234.706H447.175V232.507ZM447.175 199.084H449.305V201.283H447.175V199.084ZM447.175 265.93H449.305V268.129H447.175V265.93ZM447.175 157.305H449.305V159.504H447.175V157.305ZM447.175 224.151H449.305V226.35H447.175V224.151ZM447.175 190.728H449.305V192.927H447.175V190.728ZM447.175 257.575H449.305V259.773H447.175V257.575ZM447.175 174.017H449.305V176.215H447.175V174.017ZM447.175 240.863H449.305V243.062H447.175V240.863ZM447.175 207.44H449.305V209.639H447.175V207.44ZM447.175 274.286H449.305V276.485H447.175V274.286ZM514.277 148.949H516.408V151.148H514.277V148.949ZM514.277 215.796H516.408V217.994H514.277V215.796ZM514.277 182.372H516.408V184.571H514.277V182.372ZM514.277 249.219H516.408V251.418H514.277V249.219ZM514.277 165.661H516.408V167.86H514.277V165.661ZM514.277 232.507H516.408V234.706H514.277V232.507ZM514.277 199.084H516.408V201.283H514.277V199.084ZM514.277 265.93H516.408V268.129H514.277V265.93ZM514.277 157.305H516.408V159.504H514.277V157.305ZM514.277 224.151H516.408V226.35H514.277V224.151ZM514.277 190.728H516.408V192.927H514.277V190.728ZM514.277 257.575H516.408V259.773H514.277V257.575ZM514.277 174.017H516.408V176.215H514.277V174.017ZM514.277 240.863H516.408V243.062H514.277V240.863ZM514.277 207.44H516.408V209.639H514.277V207.44ZM514.277 274.286H516.408V276.485H514.277V274.286ZM431.198 148.949H433.328V151.148H431.198V148.949ZM431.198 215.796H433.328V217.994H431.198V215.796ZM431.198 182.372H433.328V184.571H431.198V182.372ZM431.198 249.219H433.328V251.418H431.198V249.219ZM431.198 165.661H433.328V167.86H431.198V165.661ZM431.198 232.507H433.328V234.706H431.198V232.507ZM431.198 199.084H433.328V201.283H431.198V199.084ZM431.198 265.93H433.328V268.129H431.198V265.93ZM431.198 157.305H433.328V159.504H431.198V157.305ZM431.198 224.151H433.328V226.35H431.198V224.151ZM431.198 190.728H433.328V192.927H431.198V190.728ZM431.198 257.575H433.328V259.773H431.198V257.575ZM431.198 174.017H433.328V176.215H431.198V174.017ZM431.198 240.863H433.328V243.062H431.198V240.863ZM431.198 207.44H433.328V209.639H431.198V207.44ZM431.198 274.286H433.328V276.485H431.198V274.286ZM498.301 148.949H500.431V151.148H498.301V148.949ZM498.301 215.796H500.431V217.994H498.301V215.796ZM498.301 182.372H500.431V184.571H498.301V182.372ZM498.301 249.219H500.431V251.418H498.301V249.219ZM498.301 165.661H500.431V167.86H498.301V165.661ZM498.301 232.507H500.431V234.706H498.301V232.507ZM498.301 199.084H500.431V201.283H498.301V199.084ZM498.301 265.93H500.431V268.129H498.301V265.93ZM498.301 157.305H500.431V159.504H498.301V157.305ZM498.301 224.151H500.431V226.35H498.301V224.151ZM498.301 190.728H500.431V192.927H498.301V190.728ZM498.301 257.575H500.431V259.773H498.301V257.575ZM498.301 174.017H500.431V176.215H498.301V174.017ZM498.301 240.863H500.431V243.062H498.301V240.863ZM498.301 207.44H500.431V209.639H498.301V207.44ZM498.301 274.286H500.431V276.485H498.301V274.286ZM464.217 148.949H466.347V151.148H464.217V148.949ZM464.217 215.796H466.347V217.994H464.217V215.796ZM464.217 182.372H466.347V184.571H464.217V182.372ZM464.217 249.219H466.347V251.418H464.217V249.219ZM464.217 165.661H466.347V167.86H464.217V165.661ZM464.217 232.507H466.347V234.706H464.217V232.507ZM464.217 199.084H466.347V201.283H464.217V199.084ZM464.217 265.93H466.347V268.129H464.217V265.93ZM464.217 157.305H466.347V159.504H464.217V157.305ZM464.217 224.151H466.347V226.35H464.217V224.151ZM464.217 190.728H466.347V192.927H464.217V190.728ZM464.217 257.575H466.347V259.773H464.217V257.575ZM464.217 174.017H466.347V176.215H464.217V174.017ZM464.217 240.863H466.347V243.062H464.217V240.863ZM464.217 207.44H466.347V209.639H464.217V207.44ZM464.217 274.286H466.347V276.485H464.217V274.286Z" fill="#0BCD0F"/>
<path fill-rule="evenodd" clip-rule="evenodd" d="M136.691 148.949H138.821V151.148H136.691V148.949ZM136.691 215.796H138.821V217.994H136.691V215.796ZM136.691 182.372H138.821V184.571H136.691V182.372ZM136.691 249.219H138.821V251.418H136.691V249.219ZM136.691 165.661H138.821V167.86H136.691V165.661ZM136.691 232.507H138.821V234.706H136.691V232.507ZM136.691 199.084H138.821V201.283H136.691V199.084ZM136.691 265.93H138.821V268.129H136.691V265.93ZM136.691 157.305H138.821V159.504H136.691V157.305ZM136.691 224.151H138.821V226.35H136.691V224.151ZM136.691 190.728H138.821V192.927H136.691V190.728ZM136.691 257.575H138.821V259.773H136.691V257.575ZM136.691 174.017H138.821V176.215H136.691V174.017ZM136.691 240.863H138.821V243.062H136.691V240.863ZM136.691 207.44H138.821V209.639H136.691V207.44ZM136.691 274.286H138.821V276.485H136.691V274.286ZM203.794 148.949H205.924V151.148H203.794V148.949ZM203.794 215.796H205.924V217.994H203.794V215.796ZM203.794 182.372H205.924V184.571H203.794V182.372ZM203.794 249.219H205.924V251.418H203.794V249.219ZM203.794 165.661H205.924V167.86H203.794V165.661ZM203.794 232.507H205.924V234.706H203.794V232.507ZM203.794 199.084H205.924V201.283H203.794V199.084ZM203.794 265.93H205.924V268.129H203.794V265.93ZM203.794 157.305H205.924V159.504H203.794V157.305ZM203.794 224.151H205.924V226.35H203.794V224.151ZM203.794 190.728H205.924V192.927H203.794V190.728ZM203.794 257.575H205.924V259.773H203.794V257.575ZM203.794 174.017H205.924V176.215H203.794V174.017ZM203.794 240.863H205.924V243.062H203.794V240.863ZM203.794 207.44H205.924V209.639H203.794V207.44ZM203.794 274.286H205.924V276.485H203.794V274.286ZM169.71 148.949H171.84V151.148H169.71V148.949ZM169.71 215.796H171.84V217.994H169.71V215.796ZM169.71 182.372H171.84V184.571H169.71V182.372ZM169.71 249.219H171.84V251.418H169.71V249.219ZM169.71 165.661H171.84V167.86H169.71V165.661ZM169.71 232.507H171.84V234.706H169.71V232.507ZM169.71 199.084H171.84V201.283H169.71V199.084ZM169.71 265.93H171.84V268.129H169.71V265.93ZM169.71 157.305H171.84V159.504H169.71V157.305ZM169.71 224.151H171.84V226.35H169.71V224.151ZM169.71 190.728H171.84V192.927H169.71V190.728ZM169.71 257.575H171.84V259.773H169.71V257.575ZM169.71 174.017H171.84V176.215H169.71V174.017ZM169.71 240.863H171.84V243.062H169.71V240.863ZM169.71 207.44H171.84V209.639H169.71V207.44ZM169.71 274.286H171.84V276.485H169.71V274.286ZM236.812 148.949H238.943V151.148H236.812V148.949ZM236.812 215.796H238.943V217.994H236.812V215.796ZM236.812 182.372H238.943V184.571H236.812V182.372ZM236.812 249.219H238.943V251.418H236.812V249.219ZM236.812 165.661H238.943V167.86H236.812V165.661ZM236.812 232.507H238.943V234.706H236.812V232.507ZM236.812 199.084H238.943V201.283H236.812V199.084ZM236.812 265.93H238.943V268.129H236.812V265.93ZM236.812 157.305H238.943V159.504H236.812V157.305ZM236.812 224.151H238.943V226.35H236.812V224.151ZM236.812 190.728H238.943V192.927H236.812V190.728ZM236.812 257.575H238.943V259.773H236.812V257.575ZM236.812 174.017H238.943V176.215H236.812V174.017ZM236.812 240.863H238.943V243.062H236.812V240.863ZM236.812 207.44H238.943V209.639H236.812V207.44ZM236.812 274.286H238.943V276.485H236.812V274.286ZM153.733 148.949H155.863V151.148H153.733V148.949ZM153.733 215.796H155.863V217.994H153.733V215.796ZM153.733 182.372H155.863V184.571H153.733V182.372ZM153.733 249.219H155.863V251.418H153.733V249.219ZM153.733 165.661H155.863V167.86H153.733V165.661ZM153.733 232.507H155.863V234.706H153.733V232.507ZM153.733 199.084H155.863V201.283H153.733V199.084ZM153.733 265.93H155.863V268.129H153.733V265.93ZM153.733 157.305H155.863V159.504H153.733V157.305ZM153.733 224.151H155.863V226.35H153.733V224.151ZM153.733 190.728H155.863V192.927H153.733V190.728ZM153.733 257.575H155.863V259.773H153.733V257.575ZM153.733 174.017H155.863V176.215H153.733V174.017ZM153.733 240.863H155.863V243.062H153.733V240.863ZM153.733 207.44H155.863V209.639H153.733V207.44ZM153.733 274.286H155.863V276.485H153.733V274.286ZM220.836 148.949H222.966V151.148H220.836V148.949ZM220.836 215.796H222.966V217.994H220.836V215.796ZM220.836 182.372H222.966V184.571H220.836V182.372ZM220.836 249.219H222.966V251.418H220.836V249.219ZM220.836 165.661H222.966V167.86H220.836V165.661ZM220.836 232.507H222.966V234.706H220.836V232.507ZM220.836 199.084H222.966V201.283H220.836V199.084ZM220.836 265.93H222.966V268.129H220.836V265.93ZM220.836 157.305H222.966V159.504H220.836V157.305ZM220.836 224.151H222.966V226.35H220.836V224.151ZM220.836 190.728H222.966V192.927H220.836V190.728ZM220.836 257.575H222.966V259.773H220.836V257.575ZM220.836 174.017H222.966V176.215H220.836V174.017ZM220.836 240.863H222.966V243.062H220.836V240.863ZM220.836 207.44H222.966V209.639H220.836V207.44ZM220.836 274.286H222.966V276.485H220.836V274.286ZM186.752 148.949H188.882V151.148H186.752V148.949ZM186.752 215.796H188.882V217.994H186.752V215.796ZM186.752 182.372H188.882V184.571H186.752V182.372ZM186.752 249.219H188.882V251.418H186.752V249.219ZM186.752 165.661H188.882V167.86H186.752V165.661ZM186.752 232.507H188.882V234.706H186.752V232.507ZM186.752 199.084H188.882V201.283H186.752V199.084ZM186.752 265.93H188.882V268.129H186.752V265.93ZM186.752 157.305H188.882V159.504H186.752V157.305ZM186.752 224.151H188.882V226.35H186.752V224.151ZM186.752 190.728H188.882V192.927H186.752V190.728ZM186.752 257.575H188.882V259.773H186.752V257.575ZM186.752 174.017H188.882V176.215H186.752V174.017ZM186.752 240.863H188.882V243.062H186.752V240.863ZM186.752 207.44H188.882V209.639H186.752V207.44ZM186.752 274.286H188.882V276.485H186.752V274.286ZM253.854 148.949H255.985V151.148H253.854V148.949ZM253.854 215.796H255.985V217.994H253.854V215.796ZM253.854 182.372H255.985V184.571H253.854V182.372ZM253.854 249.219H255.985V251.418H253.854V249.219ZM253.854 165.661H255.985V167.86H253.854V165.661ZM253.854 232.507H255.985V234.706H253.854V232.507ZM253.854 199.084H255.985V201.283H253.854V199.084ZM253.854 265.93H255.985V268.129H253.854V265.93ZM253.854 157.305H255.985V159.504H253.854V157.305ZM253.854 224.151H255.985V226.35H253.854V224.151ZM253.854 190.728H255.985V192.927H253.854V190.728ZM253.854 257.575H255.985V259.773H253.854V257.575ZM253.854 174.017H255.985V176.215H253.854V174.017ZM253.854 240.863H255.985V243.062H253.854V240.863ZM253.854 207.44H255.985V209.639H253.854V207.44ZM253.854 274.286H255.985V276.485H253.854V274.286ZM145.212 148.949H147.342V151.148H145.212V148.949ZM145.212 215.796H147.342V217.994H145.212V215.796ZM145.212 182.372H147.342V184.571H145.212V182.372ZM145.212 249.219H147.342V251.418H145.212V249.219ZM145.212 165.661H147.342V167.86H145.212V165.661ZM145.212 232.507H147.342V234.706H145.212V232.507ZM145.212 199.084H147.342V201.283H145.212V199.084ZM145.212 265.93H147.342V268.129H145.212V265.93ZM145.212 157.305H147.342V159.504H145.212V157.305ZM145.212 224.151H147.342V226.35H145.212V224.151ZM145.212 190.728H147.342V192.927H145.212V190.728ZM145.212 257.575H147.342V259.773H145.212V257.575ZM145.212 174.017H147.342V176.215H145.212V174.017ZM145.212 240.863H147.342V243.062H145.212V240.863ZM145.212 207.44H147.342V209.639H145.212V207.44ZM145.212 274.286H147.342V276.485H145.212V274.286ZM212.315 148.949H214.445V151.148H212.315V148.949ZM212.315 215.796H214.445V217.994H212.315V215.796ZM212.315 182.372H214.445V184.571H212.315V182.372ZM212.315 249.219H214.445V251.418H212.315V249.219ZM212.315 165.661H214.445V167.86H212.315V165.661ZM212.315 232.507H214.445V234.706H212.315V232.507ZM212.315 199.084H214.445V201.283H212.315V199.084ZM212.315 265.93H214.445V268.129H212.315V265.93ZM212.315 157.305H214.445V159.504H212.315V157.305ZM212.315 224.151H214.445V226.35H212.315V224.151ZM212.315 190.728H214.445V192.927H212.315V190.728ZM212.315 257.575H214.445V259.773H212.315V257.575ZM212.315 174.017H214.445V176.215H212.315V174.017ZM212.315 240.863H214.445V243.062H212.315V240.863ZM212.315 207.44H214.445V209.639H212.315V207.44ZM212.315 274.286H214.445V276.485H212.315V274.286ZM178.231 148.949H180.361V151.148H178.231V148.949ZM178.231 215.796H180.361V217.994H178.231V215.796ZM178.231 182.372H180.361V184.571H178.231V182.372ZM178.231 249.219H180.361V251.418H178.231V249.219ZM178.231 165.661H180.361V167.86H178.231V165.661ZM178.231 232.507H180.361V234.706H178.231V232.507ZM178.231 199.084H180.361V201.283H178.231V199.084ZM178.231 265.93H180.361V268.129H178.231V265.93ZM178.231 157.305H180.361V159.504H178.231V157.305ZM178.231 224.151H180.361V226.35H178.231V224.151ZM178.231 190.728H180.361V192.927H178.231V190.728ZM178.231 257.575H180.361V259.773H178.231V257.575ZM178.231 174.017H180.361V176.215H178.231V174.017ZM178.231 240.863H180.361V243.062H178.231V240.863ZM178.231 207.44H180.361V209.639H178.231V207.44ZM178.231 274.286H180.361V276.485H178.231V274.286ZM245.333 148.949H247.464V151.148H245.333V148.949ZM245.333 215.796H247.464V217.994H245.333V215.796ZM245.333 182.372H247.464V184.571H245.333V182.372ZM245.333 249.219H247.464V251.418H245.333V249.219ZM245.333 165.661H247.464V167.86H245.333V165.661ZM245.333 232.507H247.464V234.706H245.333V232.507ZM245.333 199.084H247.464V201.283H245.333V199.084ZM245.333 265.93H247.464V268.129H245.333V265.93ZM245.333 157.305H247.464V159.504H245.333V157.305ZM245.333 224.151H247.464V226.35H245.333V224.151ZM245.333 190.728H247.464V192.927H245.333V190.728ZM245.333 257.575H247.464V259.773H245.333V257.575ZM245.333 174.017H247.464V176.215H245.333V174.017ZM245.333 240.863H247.464V243.062H245.333V240.863ZM245.333 207.44H247.464V209.639H245.333V207.44ZM245.333 274.286H247.464V276.485H245.333V274.286ZM162.254 148.949H164.384V151.148H162.254V148.949ZM162.254 215.796H164.384V217.994H162.254V215.796ZM162.254 182.372H164.384V184.571H162.254V182.372ZM162.254 249.219H164.384V251.418H162.254V249.219ZM162.254 165.661H164.384V167.86H162.254V165.661ZM162.254 232.507H164.384V234.706H162.254V232.507ZM162.254 199.084H164.384V201.283H162.254V199.084ZM162.254 265.93H164.384V268.129H162.254V265.93ZM162.254 157.305H164.384V159.504H162.254V157.305ZM162.254 224.151H164.384V226.35H162.254V224.151ZM162.254 190.728H164.384V192.927H162.254V190.728ZM162.254 257.575H164.384V259.773H162.254V257.575ZM162.254 174.017H164.384V176.215H162.254V174.017ZM162.254 240.863H164.384V243.062H162.254V240.863ZM162.254 207.44H164.384V209.639H162.254V207.44ZM162.254 274.286H164.384V276.485H162.254V274.286ZM229.357 148.949H231.487V151.148H229.357V148.949ZM229.357 215.796H231.487V217.994H229.357V215.796ZM229.357 182.372H231.487V184.571H229.357V182.372ZM229.357 249.219H231.487V251.418H229.357V249.219ZM229.357 165.661H231.487V167.86H229.357V165.661ZM229.357 232.507H231.487V234.706H229.357V232.507ZM229.357 199.084H231.487V201.283H229.357V199.084ZM229.357 265.93H231.487V268.129H229.357V265.93ZM229.357 157.305H231.487V159.504H229.357V157.305ZM229.357 224.151H231.487V226.35H229.357V224.151ZM229.357 190.728H231.487V192.927H229.357V190.728ZM229.357 257.575H231.487V259.773H229.357V257.575ZM229.357 174.017H231.487V176.215H229.357V174.017ZM229.357 240.863H231.487V243.062H229.357V240.863ZM229.357 207.44H231.487V209.639H229.357V207.44ZM229.357 274.286H231.487V276.485H229.357V274.286ZM195.273 148.949H197.403V151.148H195.273V148.949ZM195.273 215.796H197.403V217.994H195.273V215.796ZM195.273 182.372H197.403V184.571H195.273V182.372ZM195.273 249.219H197.403V251.418H195.273V249.219ZM195.273 165.661H197.403V167.86H195.273V165.661ZM195.273 232.507H197.403V234.706H195.273V232.507ZM195.273 199.084H197.403V201.283H195.273V199.084ZM195.273 265.93H197.403V268.129H195.273V265.93ZM195.273 157.305H197.403V159.504H195.273V157.305ZM195.273 224.151H197.403V226.35H195.273V224.151ZM195.273 190.728H197.403V192.927H195.273V190.728ZM195.273 257.575H197.403V259.773H195.273V257.575ZM195.273 174.017H197.403V176.215H195.273V174.017ZM195.273 240.863H197.403V243.062H195.273V240.863ZM195.273 207.44H197.403V209.639H195.273V207.44ZM195.273 274.286H197.403V276.485H195.273V274.286ZM262.375 148.949H264.506V151.148H262.375V148.949ZM262.375 215.796H264.506V217.994H262.375V215.796ZM262.375 182.372H264.506V184.571H262.375V182.372ZM262.375 249.219H264.506V251.418H262.375V249.219ZM262.375 165.661H264.506V167.86H262.375V165.661ZM262.375 232.507H264.506V234.706H262.375V232.507ZM262.375 199.084H264.506V201.283H262.375V199.084ZM262.375 265.93H264.506V268.129H262.375V265.93ZM262.375 157.305H264.506V159.504H262.375V157.305ZM262.375 224.151H264.506V226.35H262.375V224.151ZM262.375 190.728H264.506V192.927H262.375V190.728ZM262.375 257.575H264.506V259.773H262.375V257.575ZM262.375 174.017H264.506V176.215H262.375V174.017ZM262.375 240.863H264.506V243.062H262.375V240.863ZM262.375 207.44H264.506V209.639H262.375V207.44ZM262.375 274.286H264.506V276.485H262.375V274.286Z" fill="#0BCD0F"/>
<path fill-rule="evenodd" clip-rule="evenodd" d="M405.635 14.3271H407.765V16.526H405.635V14.3271ZM405.635 81.1735H407.765V83.3724H405.635V81.1735ZM405.635 47.7503H407.765V49.9492H405.635V47.7503ZM405.635 114.597H407.765V116.796H405.635V114.597ZM405.635 31.0387H407.765V33.2376H405.635V31.0387ZM405.635 97.8851H407.765V100.084H405.635V97.8851ZM405.635 64.4619H407.765V66.6608H405.635V64.4619ZM405.635 131.308H407.765V133.507H405.635V131.308ZM405.635 22.6829H407.765V24.8818H405.635V22.6829ZM405.635 89.5293H407.765V91.7282H405.635V89.5293ZM405.635 56.1061H407.765V58.305H405.635V56.1061ZM405.635 122.952H407.765V125.151H405.635V122.952ZM405.635 39.3945H407.765V41.5934H405.635V39.3945ZM405.635 106.241H407.765V108.44H405.635V106.241ZM405.635 72.8177H407.765V75.0166H405.635V72.8177ZM405.635 139.664H407.765V141.863H405.635V139.664ZM472.738 14.3271H474.868V16.526H472.738V14.3271ZM472.738 81.1735H474.868V83.3724H472.738V81.1735ZM472.738 47.7503H474.868V49.9492H472.738V47.7503ZM472.738 114.597H474.868V116.796H472.738V114.597ZM472.738 31.0387H474.868V33.2376H472.738V31.0387ZM472.738 97.8851H474.868V100.084H472.738V97.8851ZM472.738 64.4619H474.868V66.6608H472.738V64.4619ZM472.738 131.308H474.868V133.507H472.738V131.308ZM472.738 22.6829H474.868V24.8818H472.738V22.6829ZM472.738 89.5293H474.868V91.7282H472.738V89.5293ZM472.738 56.1061H474.868V58.305H472.738V56.1061ZM472.738 122.952H474.868V125.151H472.738V122.952ZM472.738 39.3945H474.868V41.5934H472.738V39.3945ZM472.738 106.241H474.868V108.44H472.738V106.241ZM472.738 72.8177H474.868V75.0166H472.738V72.8177ZM472.738 139.664H474.868V141.863H472.738V139.664ZM438.654 14.3271H440.784V16.526H438.654V14.3271ZM438.654 81.1735H440.784V83.3724H438.654V81.1735ZM438.654 47.7503H440.784V49.9492H438.654V47.7503ZM438.654 114.597H440.784V116.796H438.654V114.597ZM438.654 31.0387H440.784V33.2376H438.654V31.0387ZM438.654 97.8851H440.784V100.084H438.654V97.8851ZM438.654 64.4619H440.784V66.6608H438.654V64.4619ZM438.654 131.308H440.784V133.507H438.654V131.308ZM438.654 22.6829H440.784V24.8818H438.654V22.6829ZM438.654 89.5293H440.784V91.7282H438.654V89.5293ZM438.654 56.1061H440.784V58.305H438.654V56.1061ZM438.654 122.952H440.784V125.151H438.654V122.952ZM438.654 39.3945H440.784V41.5934H438.654V39.3945ZM438.654 106.241H440.784V108.44H438.654V106.241ZM438.654 72.8177H440.784V75.0166H438.654V72.8177ZM438.654 139.664H440.784V141.863H438.654V139.664ZM505.756 14.3271H507.887V16.526H505.756V14.3271ZM505.756 81.1735H507.887V83.3724H505.756V81.1735ZM505.756 47.7503H507.887V49.9492H505.756V47.7503ZM505.756 114.597H507.887V116.796H505.756V114.597ZM505.756 31.0387H507.887V33.2376H505.756V31.0387ZM505.756 97.8851H507.887V100.084H505.756V97.8851ZM505.756 64.4619H507.887V66.6608H505.756V64.4619ZM505.756 131.308H507.887V133.507H505.756V131.308ZM505.756 22.6829H507.887V24.8818H505.756V22.6829ZM505.756 89.5293H507.887V91.7282H505.756V89.5293ZM505.756 56.1061H507.887V58.305H505.756V56.1061ZM505.756 122.952H507.887V125.151H505.756V122.952ZM505.756 39.3945H507.887V41.5934H505.756V39.3945ZM505.756 106.241H507.887V108.44H505.756V106.241ZM505.756 72.8177H507.887V75.0166H505.756V72.8177ZM505.756 139.664H507.887V141.863H505.756V139.664ZM422.677 14.3271H424.807V16.526H422.677V14.3271ZM422.677 81.1735H424.807V83.3724H422.677V81.1735ZM422.677 47.7503H424.807V49.9492H422.677V47.7503ZM422.677 114.597H424.807V116.796H422.677V114.597ZM422.677 31.0387H424.807V33.2376H422.677V31.0387ZM422.677 97.8851H424.807V100.084H422.677V97.8851ZM422.677 64.4619H424.807V66.6608H422.677V64.4619ZM422.677 131.308H424.807V133.507H422.677V131.308ZM422.677 22.6829H424.807V24.8818H422.677V22.6829ZM422.677 89.5293H424.807V91.7282H422.677V89.5293ZM422.677 56.1061H424.807V58.305H422.677V56.1061ZM422.677 122.952H424.807V125.151H422.677V122.952ZM422.677 39.3945H424.807V41.5934H422.677V39.3945ZM422.677 106.241H424.807V108.44H422.677V106.241ZM422.677 72.8177H424.807V75.0166H422.677V72.8177ZM422.677 139.664H424.807V141.863H422.677V139.664ZM489.78 14.3271H491.91V16.526H489.78V14.3271ZM489.78 81.1735H491.91V83.3724H489.78V81.1735ZM489.78 47.7503H491.91V49.9492H489.78V47.7503ZM489.78 114.597H491.91V116.796H489.78V114.597ZM489.78 31.0387H491.91V33.2376H489.78V31.0387ZM489.78 97.8851H491.91V100.084H489.78V97.8851ZM489.78 64.4619H491.91V66.6608H489.78V64.4619ZM489.78 131.308H491.91V133.507H489.78V131.308ZM489.78 22.6829H491.91V24.8818H489.78V22.6829ZM489.78 89.5293H491.91V91.7282H489.78V89.5293ZM489.78 56.1061H491.91V58.305H489.78V56.1061ZM489.78 122.952H491.91V125.151H489.78V122.952ZM489.78 39.3945H491.91V41.5934H489.78V39.3945ZM489.78 106.241H491.91V108.44H489.78V106.241ZM489.78 72.8177H491.91V75.0166H489.78V72.8177ZM489.78 139.664H491.91V141.863H489.78V139.664ZM455.696 14.3271H457.826V16.526H455.696V14.3271ZM455.696 81.1735H457.826V83.3724H455.696V81.1735ZM455.696 47.7503H457.826V49.9492H455.696V47.7503ZM455.696 114.597H457.826V116.796H455.696V114.597ZM455.696 31.0387H457.826V33.2376H455.696V31.0387ZM455.696 97.8851H457.826V100.084H455.696V97.8851ZM455.696 64.4619H457.826V66.6608H455.696V64.4619ZM455.696 131.308H457.826V133.507H455.696V131.308ZM455.696 22.6829H457.826V24.8818H455.696V22.6829ZM455.696 89.5293H457.826V91.7282H455.696V89.5293ZM455.696 56.1061H457.826V58.305H455.696V56.1061ZM455.696 122.952H457.826V125.151H455.696V122.952ZM455.696 39.3945H457.826V41.5934H455.696V39.3945ZM455.696 106.241H457.826V108.44H455.696V106.241ZM455.696 72.8177H457.826V75.0166H455.696V72.8177ZM455.696 139.664H457.826V141.863H455.696V139.664ZM522.798 14.3271H524.929V16.526H522.798V14.3271ZM522.798 81.1735H524.929V83.3724H522.798V81.1735ZM522.798 47.7503H524.929V49.9492H522.798V47.7503ZM522.798 114.597H524.929V116.796H522.798V114.597ZM522.798 31.0387H524.929V33.2376H522.798V31.0387ZM522.798 97.8851H524.929V100.084H522.798V97.8851ZM522.798 64.4619H524.929V66.6608H522.798V64.4619ZM522.798 131.308H524.929V133.507H522.798V131.308ZM522.798 22.6829H524.929V24.8818H522.798V22.6829ZM522.798 89.5293H524.929V91.7282H522.798V89.5293ZM522.798 56.1061H524.929V58.305H522.798V56.1061ZM522.798 122.952H524.929V125.151H522.798V122.952ZM522.798 39.3945H524.929V41.5934H522.798V39.3945ZM522.798 106.241H524.929V108.44H522.798V106.241ZM522.798 72.8177H524.929V75.0166H522.798V72.8177ZM522.798 139.664H524.929V141.863H522.798V139.664ZM414.156 14.3271H416.286V16.526H414.156V14.3271ZM414.156 81.1735H416.286V83.3724H414.156V81.1735ZM414.156 47.7503H416.286V49.9492H414.156V47.7503ZM414.156 114.597H416.286V116.796H414.156V114.597ZM414.156 31.0387H416.286V33.2376H414.156V31.0387ZM414.156 97.8851H416.286V100.084H414.156V97.8851ZM414.156 64.4619H416.286V66.6608H414.156V64.4619ZM414.156 131.308H416.286V133.507H414.156V131.308ZM414.156 22.6829H416.286V24.8818H414.156V22.6829ZM414.156 89.5293H416.286V91.7282H414.156V89.5293ZM414.156 56.1061H416.286V58.305H414.156V56.1061ZM414.156 122.952H416.286V125.151H414.156V122.952ZM414.156 39.3945H416.286V41.5934H414.156V39.3945ZM414.156 106.241H416.286V108.44H414.156V106.241ZM414.156 72.8177H416.286V75.0166H414.156V72.8177ZM414.156 139.664H416.286V141.863H414.156V139.664ZM481.259 14.3271H483.389V16.526H481.259V14.3271ZM481.259 81.1735H483.389V83.3724H481.259V81.1735ZM481.259 47.7503H483.389V49.9492H481.259V47.7503ZM481.259 114.597H483.389V116.796H481.259V114.597ZM481.259 31.0387H483.389V33.2376H481.259V31.0387ZM481.259 97.8851H483.389V100.084H481.259V97.8851ZM481.259 64.4619H483.389V66.6608H481.259V64.4619ZM481.259 131.308H483.389V133.507H481.259V131.308ZM481.259 22.6829H483.389V24.8818H481.259V22.6829ZM481.259 89.5293H483.389V91.7282H481.259V89.5293ZM481.259 56.1061H483.389V58.305H481.259V56.1061ZM481.259 122.952H483.389V125.151H481.259V122.952ZM481.259 39.3945H483.389V41.5934H481.259V39.3945ZM481.259 106.241H483.389V108.44H481.259V106.241ZM481.259 72.8177H483.389V75.0166H481.259V72.8177ZM481.259 139.664H483.389V141.863H481.259V139.664ZM447.175 14.3271H449.305V16.526H447.175V14.3271ZM447.175 81.1735H449.305V83.3724H447.175V81.1735ZM447.175 47.7503H449.305V49.9492H447.175V47.7503ZM447.175 114.597H449.305V116.796H447.175V114.597ZM447.175 31.0387H449.305V33.2376H447.175V31.0387ZM447.175 97.8851H449.305V100.084H447.175V97.8851ZM447.175 64.4619H449.305V66.6608H447.175V64.4619ZM447.175 131.308H449.305V133.507H447.175V131.308ZM447.175 22.6829H449.305V24.8818H447.175V22.6829ZM447.175 89.5293H449.305V91.7282H447.175V89.5293ZM447.175 56.1061H449.305V58.305H447.175V56.1061ZM447.175 122.952H449.305V125.151H447.175V122.952ZM447.175 39.3945H449.305V41.5934H447.175V39.3945ZM447.175 106.241H449.305V108.44H447.175V106.241ZM447.175 72.8177H449.305V75.0166H447.175V72.8177ZM447.175 139.664H449.305V141.863H447.175V139.664ZM514.277 14.3271H516.408V16.526H514.277V14.3271ZM514.277 81.1735H516.408V83.3724H514.277V81.1735ZM514.277 47.7503H516.408V49.9492H514.277V47.7503ZM514.277 114.597H516.408V116.796H514.277V114.597ZM514.277 31.0387H516.408V33.2376H514.277V31.0387ZM514.277 97.8851H516.408V100.084H514.277V97.8851ZM514.277 64.4619H516.408V66.6608H514.277V64.4619ZM514.277 131.308H516.408V133.507H514.277V131.308ZM514.277 22.6829H516.408V24.8818H514.277V22.6829ZM514.277 89.5293H516.408V91.7282H514.277V89.5293ZM514.277 56.1061H516.408V58.305H514.277V56.1061ZM514.277 122.952H516.408V125.151H514.277V122.952ZM514.277 39.3945H516.408V41.5934H514.277V39.3945ZM514.277 106.241H516.408V108.44H514.277V106.241ZM514.277 72.8177H516.408V75.0166H514.277V72.8177ZM514.277 139.664H516.408V141.863H514.277V139.664ZM431.198 14.3271H433.328V16.526H431.198V14.3271ZM431.198 81.1735H433.328V83.3724H431.198V81.1735ZM431.198 47.7503H433.328V49.9492H431.198V47.7503ZM431.198 114.597H433.328V116.796H431.198V114.597ZM431.198 31.0387H433.328V33.2376H431.198V31.0387ZM431.198 97.8851H433.328V100.084H431.198V97.8851ZM431.198 64.4619H433.328V66.6608H431.198V64.4619ZM431.198 131.308H433.328V133.507H431.198V131.308ZM431.198 22.6829H433.328V24.8818H431.198V22.6829ZM431.198 89.5293H433.328V91.7282H431.198V89.5293ZM431.198 56.1061H433.328V58.305H431.198V56.1061ZM431.198 122.952H433.328V125.151H431.198V122.952ZM431.198 39.3945H433.328V41.5934H431.198V39.3945ZM431.198 106.241H433.328V108.44H431.198V106.241ZM431.198 72.8177H433.328V75.0166H431.198V72.8177ZM431.198 139.664H433.328V141.863H431.198V139.664ZM498.301 14.3271H500.431V16.526H498.301V14.3271ZM498.301 81.1735H500.431V83.3724H498.301V81.1735ZM498.301 47.7503H500.431V49.9492H498.301V47.7503ZM498.301 114.597H500.431V116.796H498.301V114.597ZM498.301 31.0387H500.431V33.2376H498.301V31.0387ZM498.301 97.8851H500.431V100.084H498.301V97.8851ZM498.301 64.4619H500.431V66.6608H498.301V64.4619ZM498.301 131.308H500.431V133.507H498.301V131.308ZM498.301 22.6829H500.431V24.8818H498.301V22.6829ZM498.301 89.5293H500.431V91.7282H498.301V89.5293ZM498.301 56.1061H500.431V58.305H498.301V56.1061ZM498.301 122.952H500.431V125.151H498.301V122.952ZM498.301 39.3945H500.431V41.5934H498.301V39.3945ZM498.301 106.241H500.431V108.44H498.301V106.241ZM498.301 72.8177H500.431V75.0166H498.301V72.8177ZM498.301 139.664H500.431V141.863H498.301V139.664ZM464.217 14.3271H466.347V16.526H464.217V14.3271ZM464.217 81.1735H466.347V83.3724H464.217V81.1735ZM464.217 47.7503H466.347V49.9492H464.217V47.7503ZM464.217 114.597H466.347V116.796H464.217V114.597ZM464.217 31.0387H466.347V33.2376H464.217V31.0387ZM464.217 97.8851H466.347V100.084H464.217V97.8851ZM464.217 64.4619H466.347V66.6608H464.217V64.4619ZM464.217 131.308H466.347V133.507H464.217V131.308ZM464.217 22.6829H466.347V24.8818H464.217V22.6829ZM464.217 89.5293H466.347V91.7282H464.217V89.5293ZM464.217 56.1061H466.347V58.305H464.217V56.1061ZM464.217 122.952H466.347V125.151H464.217V122.952ZM464.217 39.3945H466.347V41.5934H464.217V39.3945ZM464.217 106.241H466.347V108.44H464.217V106.241ZM464.217 72.8177H466.347V75.0166H464.217V72.8177ZM464.217 139.664H466.347V141.863H464.217V139.664Z" fill="#0BCD0F"/>
<path fill-rule="evenodd" clip-rule="evenodd" d="M136.691 14.3271H138.821V16.526H136.691V14.3271ZM136.691 81.1735H138.821V83.3724H136.691V81.1735ZM136.691 47.7503H138.821V49.9492H136.691V47.7503ZM136.691 114.597H138.821V116.796H136.691V114.597ZM136.691 31.0387H138.821V33.2376H136.691V31.0387ZM136.691 97.8851H138.821V100.084H136.691V97.8851ZM136.691 64.4619H138.821V66.6608H136.691V64.4619ZM136.691 131.308H138.821V133.507H136.691V131.308ZM136.691 22.6829H138.821V24.8818H136.691V22.6829ZM136.691 89.5293H138.821V91.7282H136.691V89.5293ZM136.691 56.1061H138.821V58.305H136.691V56.1061ZM136.691 122.952H138.821V125.151H136.691V122.952ZM136.691 39.3945H138.821V41.5934H136.691V39.3945ZM136.691 106.241H138.821V108.44H136.691V106.241ZM136.691 72.8177H138.821V75.0166H136.691V72.8177ZM136.691 139.664H138.821V141.863H136.691V139.664ZM203.794 14.3271H205.924V16.526H203.794V14.3271ZM203.794 81.1735H205.924V83.3724H203.794V81.1735ZM203.794 47.7503H205.924V49.9492H203.794V47.7503ZM203.794 114.597H205.924V116.796H203.794V114.597ZM203.794 31.0387H205.924V33.2376H203.794V31.0387ZM203.794 97.8851H205.924V100.084H203.794V97.8851ZM203.794 64.4619H205.924V66.6608H203.794V64.4619ZM203.794 131.308H205.924V133.507H203.794V131.308ZM203.794 22.6829H205.924V24.8818H203.794V22.6829ZM203.794 89.5293H205.924V91.7282H203.794V89.5293ZM203.794 56.1061H205.924V58.305H203.794V56.1061ZM203.794 122.952H205.924V125.151H203.794V122.952ZM203.794 39.3945H205.924V41.5934H203.794V39.3945ZM203.794 106.241H205.924V108.44H203.794V106.241ZM203.794 72.8177H205.924V75.0166H203.794V72.8177ZM203.794 139.664H205.924V141.863H203.794V139.664ZM169.71 14.3271H171.84V16.526H169.71V14.3271ZM169.71 81.1735H171.84V83.3724H169.71V81.1735ZM169.71 47.7503H171.84V49.9492H169.71V47.7503ZM169.71 114.597H171.84V116.796H169.71V114.597ZM169.71 31.0387H171.84V33.2376H169.71V31.0387ZM169.71 97.8851H171.84V100.084H169.71V97.8851ZM169.71 64.4619H171.84V66.6608H169.71V64.4619ZM169.71 131.308H171.84V133.507H169.71V131.308ZM169.71 22.6829H171.84V24.8818H169.71V22.6829ZM169.71 89.5293H171.84V91.7282H169.71V89.5293ZM169.71 56.1061H171.84V58.305H169.71V56.1061ZM169.71 122.952H171.84V125.151H169.71V122.952ZM169.71 39.3945H171.84V41.5934H169.71V39.3945ZM169.71 106.241H171.84V108.44H169.71V106.241ZM169.71 72.8177H171.84V75.0166H169.71V72.8177ZM169.71 139.664H171.84V141.863H169.71V139.664ZM236.812 14.3271H238.943V16.526H236.812V14.3271ZM236.812 81.1735H238.943V83.3724H236.812V81.1735ZM236.812 47.7503H238.943V49.9492H236.812V47.7503ZM236.812 114.597H238.943V116.796H236.812V114.597ZM236.812 31.0387H238.943V33.2376H236.812V31.0387ZM236.812 97.8851H238.943V100.084H236.812V97.8851ZM236.812 64.4619H238.943V66.6608H236.812V64.4619ZM236.812 131.308H238.943V133.507H236.812V131.308ZM236.812 22.6829H238.943V24.8818H236.812V22.6829ZM236.812 89.5293H238.943V91.7282H236.812V89.5293ZM236.812 56.1061H238.943V58.305H236.812V56.1061ZM236.812 122.952H238.943V125.151H236.812V122.952ZM236.812 39.3945H238.943V41.5934H236.812V39.3945ZM236.812 106.241H238.943V108.44H236.812V106.241ZM236.812 72.8177H238.943V75.0166H236.812V72.8177ZM236.812 139.664H238.943V141.863H236.812V139.664ZM153.733 14.3271H155.863V16.526H153.733V14.3271ZM153.733 81.1735H155.863V83.3724H153.733V81.1735ZM153.733 47.7503H155.863V49.9492H153.733V47.7503ZM153.733 114.597H155.863V116.796H153.733V114.597ZM153.733 31.0387H155.863V33.2376H153.733V31.0387ZM153.733 97.8851H155.863V100.084H153.733V97.8851ZM153.733 64.4619H155.863V66.6608H153.733V64.4619ZM153.733 131.308H155.863V133.507H153.733V131.308ZM153.733 22.6829H155.863V24.8818H153.733V22.6829ZM153.733 89.5293H155.863V91.7282H153.733V89.5293ZM153.733 56.1061H155.863V58.305H153.733V56.1061ZM153.733 122.952H155.863V125.151H153.733V122.952ZM153.733 39.3945H155.863V41.5934H153.733V39.3945ZM153.733 106.241H155.863V108.44H153.733V106.241ZM153.733 72.8177H155.863V75.0166H153.733V72.8177ZM153.733 139.664H155.863V141.863H153.733V139.664ZM220.836 14.3271H222.966V16.526H220.836V14.3271ZM220.836 81.1735H222.966V83.3724H220.836V81.1735ZM220.836 47.7503H222.966V49.9492H220.836V47.7503ZM220.836 114.597H222.966V116.796H220.836V114.597ZM220.836 31.0387H222.966V33.2376H220.836V31.0387ZM220.836 97.8851H222.966V100.084H220.836V97.8851ZM220.836 64.4619H222.966V66.6608H220.836V64.4619ZM220.836 131.308H222.966V133.507H220.836V131.308ZM220.836 22.6829H222.966V24.8818H220.836V22.6829ZM220.836 89.5293H222.966V91.7282H220.836V89.5293ZM220.836 56.1061H222.966V58.305H220.836V56.1061ZM220.836 122.952H222.966V125.151H220.836V122.952ZM220.836 39.3945H222.966V41.5934H220.836V39.3945ZM220.836 106.241H222.966V108.44H220.836V106.241ZM220.836 72.8177H222.966V75.0166H220.836V72.8177ZM220.836 139.664H222.966V141.863H220.836V139.664ZM186.752 14.3271H188.882V16.526H186.752V14.3271ZM186.752 81.1735H188.882V83.3724H186.752V81.1735ZM186.752 47.7503H188.882V49.9492H186.752V47.7503ZM186.752 114.597H188.882V116.796H186.752V114.597ZM186.752 31.0387H188.882V33.2376H186.752V31.0387ZM186.752 97.8851H188.882V100.084H186.752V97.8851ZM186.752 64.4619H188.882V66.6608H186.752V64.4619ZM186.752 131.308H188.882V133.507H186.752V131.308ZM186.752 22.6829H188.882V24.8818H186.752V22.6829ZM186.752 89.5293H188.882V91.7282H186.752V89.5293ZM186.752 56.1061H188.882V58.305H186.752V56.1061ZM186.752 122.952H188.882V125.151H186.752V122.952ZM186.752 39.3945H188.882V41.5934H186.752V39.3945ZM186.752 106.241H188.882V108.44H186.752V106.241ZM186.752 72.8177H188.882V75.0166H186.752V72.8177ZM186.752 139.664H188.882V141.863H186.752V139.664ZM253.854 14.3271H255.985V16.526H253.854V14.3271ZM253.854 81.1735H255.985V83.3724H253.854V81.1735ZM253.854 47.7503H255.985V49.9492H253.854V47.7503ZM253.854 114.597H255.985V116.796H253.854V114.597ZM253.854 31.0387H255.985V33.2376H253.854V31.0387ZM253.854 97.8851H255.985V100.084H253.854V97.8851ZM253.854 64.4619H255.985V66.6608H253.854V64.4619ZM253.854 131.308H255.985V133.507H253.854V131.308ZM253.854 22.6829H255.985V24.8818H253.854V22.6829ZM253.854 89.5293H255.985V91.7282H253.854V89.5293ZM253.854 56.1061H255.985V58.305H253.854V56.1061ZM253.854 122.952H255.985V125.151H253.854V122.952ZM253.854 39.3945H255.985V41.5934H253.854V39.3945ZM253.854 106.241H255.985V108.44H253.854V106.241ZM253.854 72.8177H255.985V75.0166H253.854V72.8177ZM253.854 139.664H255.985V141.863H253.854V139.664ZM145.212 14.3271H147.342V16.526H145.212V14.3271ZM145.212 81.1735H147.342V83.3724H145.212V81.1735ZM145.212 47.7503H147.342V49.9492H145.212V47.7503ZM145.212 114.597H147.342V116.796H145.212V114.597ZM145.212 31.0387H147.342V33.2376H145.212V31.0387ZM145.212 97.8851H147.342V100.084H145.212V97.8851ZM145.212 64.4619H147.342V66.6608H145.212V64.4619ZM145.212 131.308H147.342V133.507H145.212V131.308ZM145.212 22.6829H147.342V24.8818H145.212V22.6829ZM145.212 89.5293H147.342V91.7282H145.212V89.5293ZM145.212 56.1061H147.342V58.305H145.212V56.1061ZM145.212 122.952H147.342V125.151H145.212V122.952ZM145.212 39.3945H147.342V41.5934H145.212V39.3945ZM145.212 106.241H147.342V108.44H145.212V106.241ZM145.212 72.8177H147.342V75.0166H145.212V72.8177ZM145.212 139.664H147.342V141.863H145.212V139.664ZM212.315 14.3271H214.445V16.526H212.315V14.3271ZM212.315 81.1735H214.445V83.3724H212.315V81.1735ZM212.315 47.7503H214.445V49.9492H212.315V47.7503ZM212.315 114.597H214.445V116.796H212.315V114.597ZM212.315 31.0387H214.445V33.2376H212.315V31.0387ZM212.315 97.8851H214.445V100.084H212.315V97.8851ZM212.315 64.4619H214.445V66.6608H212.315V64.4619ZM212.315 131.308H214.445V133.507H212.315V131.308ZM212.315 22.6829H214.445V24.8818H212.315V22.6829ZM212.315 89.5293H214.445V91.7282H212.315V89.5293ZM212.315 56.1061H214.445V58.305H212.315V56.1061ZM212.315 122.952H214.445V125.151H212.315V122.952ZM212.315 39.3945H214.445V41.5934H212.315V39.3945ZM212.315 106.241H214.445V108.44H212.315V106.241ZM212.315 72.8177H214.445V75.0166H212.315V72.8177ZM212.315 139.664H214.445V141.863H212.315V139.664ZM178.231 14.3271H180.361V16.526H178.231V14.3271ZM178.231 81.1735H180.361V83.3724H178.231V81.1735ZM178.231 47.7503H180.361V49.9492H178.231V47.7503ZM178.231 114.597H180.361V116.796H178.231V114.597ZM178.231 31.0387H180.361V33.2376H178.231V31.0387ZM178.231 97.8851H180.361V100.084H178.231V97.8851ZM178.231 64.4619H180.361V66.6608H178.231V64.4619ZM178.231 131.308H180.361V133.507H178.231V131.308ZM178.231 22.6829H180.361V24.8818H178.231V22.6829ZM178.231 89.5293H180.361V91.7282H178.231V89.5293ZM178.231 56.1061H180.361V58.305H178.231V56.1061ZM178.231 122.952H180.361V125.151H178.231V122.952ZM178.231 39.3945H180.361V41.5934H178.231V39.3945ZM178.231 106.241H180.361V108.44H178.231V106.241ZM178.231 72.8177H180.361V75.0166H178.231V72.8177ZM178.231 139.664H180.361V141.863H178.231V139.664ZM245.333 14.3271H247.464V16.526H245.333V14.3271ZM245.333 81.1735H247.464V83.3724H245.333V81.1735ZM245.333 47.7503H247.464V49.9492H245.333V47.7503ZM245.333 114.597H247.464V116.796H245.333V114.597ZM245.333 31.0387H247.464V33.2376H245.333V31.0387ZM245.333 97.8851H247.464V100.084H245.333V97.8851ZM245.333 64.4619H247.464V66.6608H245.333V64.4619ZM245.333 131.308H247.464V133.507H245.333V131.308ZM245.333 22.6829H247.464V24.8818H245.333V22.6829ZM245.333 89.5293H247.464V91.7282H245.333V89.5293ZM245.333 56.1061H247.464V58.305H245.333V56.1061ZM245.333 122.952H247.464V125.151H245.333V122.952ZM245.333 39.3945H247.464V41.5934H245.333V39.3945ZM245.333 106.241H247.464V108.44H245.333V106.241ZM245.333 72.8177H247.464V75.0166H245.333V72.8177ZM245.333 139.664H247.464V141.863H245.333V139.664ZM162.254 14.3271H164.384V16.526H162.254V14.3271ZM162.254 81.1735H164.384V83.3724H162.254V81.1735ZM162.254 47.7503H164.384V49.9492H162.254V47.7503ZM162.254 114.597H164.384V116.796H162.254V114.597ZM162.254 31.0387H164.384V33.2376H162.254V31.0387ZM162.254 97.8851H164.384V100.084H162.254V97.8851ZM162.254 64.4619H164.384V66.6608H162.254V64.4619ZM162.254 131.308H164.384V133.507H162.254V131.308ZM162.254 22.6829H164.384V24.8818H162.254V22.6829ZM162.254 89.5293H164.384V91.7282H162.254V89.5293ZM162.254 56.1061H164.384V58.305H162.254V56.1061ZM162.254 122.952H164.384V125.151H162.254V122.952ZM162.254 39.3945H164.384V41.5934H162.254V39.3945ZM162.254 106.241H164.384V108.44H162.254V106.241ZM162.254 72.8177H164.384V75.0166H162.254V72.8177ZM162.254 139.664H164.384V141.863H162.254V139.664ZM229.357 14.3271H231.487V16.526H229.357V14.3271ZM229.357 81.1735H231.487V83.3724H229.357V81.1735ZM229.357 47.7503H231.487V49.9492H229.357V47.7503ZM229.357 114.597H231.487V116.796H229.357V114.597ZM229.357 31.0387H231.487V33.2376H229.357V31.0387ZM229.357 97.8851H231.487V100.084H229.357V97.8851ZM229.357 64.4619H231.487V66.6608H229.357V64.4619ZM229.357 131.308H231.487V133.507H229.357V131.308ZM229.357 22.6829H231.487V24.8818H229.357V22.6829ZM229.357 89.5293H231.487V91.7282H229.357V89.5293ZM229.357 56.1061H231.487V58.305H229.357V56.1061ZM229.357 122.952H231.487V125.151H229.357V122.952ZM229.357 39.3945H231.487V41.5934H229.357V39.3945ZM229.357 106.241H231.487V108.44H229.357V106.241ZM229.357 72.8177H231.487V75.0166H229.357V72.8177ZM229.357 139.664H231.487V141.863H229.357V139.664ZM195.273 14.3271H197.403V16.526H195.273V14.3271ZM195.273 81.1735H197.403V83.3724H195.273V81.1735ZM195.273 47.7503H197.403V49.9492H195.273V47.7503ZM195.273 114.597H197.403V116.796H195.273V114.597ZM195.273 31.0387H197.403V33.2376H195.273V31.0387ZM195.273 97.8851H197.403V100.084H195.273V97.8851ZM195.273 64.4619H197.403V66.6608H195.273V64.4619ZM195.273 131.308H197.403V133.507H195.273V131.308ZM195.273 22.6829H197.403V24.8818H195.273V22.6829ZM195.273 89.5293H197.403V91.7282H195.273V89.5293ZM195.273 56.1061H197.403V58.305H195.273V56.1061ZM195.273 122.952H197.403V125.151H195.273V122.952ZM195.273 39.3945H197.403V41.5934H195.273V39.3945ZM195.273 106.241H197.403V108.44H195.273V106.241ZM195.273 72.8177H197.403V75.0166H195.273V72.8177ZM195.273 139.664H197.403V141.863H195.273V139.664ZM262.375 14.3271H264.506V16.526H262.375V14.3271ZM262.375 81.1735H264.506V83.3724H262.375V81.1735ZM262.375 47.7503H264.506V49.9492H262.375V47.7503ZM262.375 114.597H264.506V116.796H262.375V114.597ZM262.375 31.0387H264.506V33.2376H262.375V31.0387ZM262.375 97.8851H264.506V100.084H262.375V97.8851ZM262.375 64.4619H264.506V66.6608H262.375V64.4619ZM262.375 131.308H264.506V133.507H262.375V131.308ZM262.375 22.6829H264.506V24.8818H262.375V22.6829ZM262.375 89.5293H264.506V91.7282H262.375V89.5293ZM262.375 56.1061H264.506V58.305H262.375V56.1061ZM262.375 122.952H264.506V125.151H262.375V122.952ZM262.375 39.3945H264.506V41.5934H262.375V39.3945ZM262.375 106.241H264.506V108.44H262.375V106.241ZM262.375 72.8177H264.506V75.0166H262.375V72.8177ZM262.375 139.664H264.506V141.863H262.375V139.664Z" fill="#0BCD0F"/>
<path fill-rule="evenodd" clip-rule="evenodd" d="M271.606 148.949H273.737V151.148H271.606V148.949ZM271.606 215.796H273.737V217.994H271.606V215.796ZM271.606 182.372H273.737V184.571H271.606V182.372ZM271.606 249.219H273.737V251.418H271.606V249.219ZM271.606 165.661H273.737V167.86H271.606V165.661ZM271.606 232.507H273.737V234.706H271.606V232.507ZM271.606 199.084H273.737V201.283H271.606V199.084ZM271.606 265.93H273.737V268.129H271.606V265.93ZM271.606 157.305H273.737V159.504H271.606V157.305ZM271.606 224.151H273.737V226.35H271.606V224.151ZM271.606 190.728H273.737V192.927H271.606V190.728ZM271.606 257.575H273.737V259.773H271.606V257.575ZM271.606 174.017H273.737V176.215H271.606V174.017ZM271.606 240.863H273.737V243.062H271.606V240.863ZM271.606 207.44H273.737V209.639H271.606V207.44ZM271.606 274.286H273.737V276.485H271.606V274.286ZM338.709 148.949H340.84V151.148H338.709V148.949ZM338.709 215.796H340.84V217.994H338.709V215.796ZM338.709 182.372H340.84V184.571H338.709V182.372ZM338.709 249.219H340.84V251.418H338.709V249.219ZM338.709 165.661H340.84V167.86H338.709V165.661ZM338.709 232.507H340.84V234.706H338.709V232.507ZM338.709 199.084H340.84V201.283H338.709V199.084ZM338.709 265.93H340.84V268.129H338.709V265.93ZM338.709 157.305H340.84V159.504H338.709V157.305ZM338.709 224.151H340.84V226.35H338.709V224.151ZM338.709 190.728H340.84V192.927H338.709V190.728ZM338.709 257.575H340.84V259.773H338.709V257.575ZM338.709 174.017H340.84V176.215H338.709V174.017ZM338.709 240.863H340.84V243.062H338.709V240.863ZM338.709 207.44H340.84V209.639H338.709V207.44ZM338.709 274.286H340.84V276.485H338.709V274.286ZM304.625 148.949H306.756V151.148H304.625V148.949ZM304.625 215.796H306.756V217.994H304.625V215.796ZM304.625 182.372H306.756V184.571H304.625V182.372ZM304.625 249.219H306.756V251.418H304.625V249.219ZM304.625 165.661H306.756V167.86H304.625V165.661ZM304.625 232.507H306.756V234.706H304.625V232.507ZM304.625 199.084H306.756V201.283H304.625V199.084ZM304.625 265.93H306.756V268.129H304.625V265.93ZM304.625 157.305H306.756V159.504H304.625V157.305ZM304.625 224.151H306.756V226.35H304.625V224.151ZM304.625 190.728H306.756V192.927H304.625V190.728ZM304.625 257.575H306.756V259.773H304.625V257.575ZM304.625 174.017H306.756V176.215H304.625V174.017ZM304.625 240.863H306.756V243.062H304.625V240.863ZM304.625 207.44H306.756V209.639H304.625V207.44ZM304.625 274.286H306.756V276.485H304.625V274.286ZM371.728 148.949H373.858V151.148H371.728V148.949ZM371.728 215.796H373.858V217.994H371.728V215.796ZM371.728 182.372H373.858V184.571H371.728V182.372ZM371.728 249.219H373.858V251.418H371.728V249.219ZM371.728 165.661H373.858V167.86H371.728V165.661ZM371.728 232.507H373.858V234.706H371.728V232.507ZM371.728 199.084H373.858V201.283H371.728V199.084ZM371.728 265.93H373.858V268.129H371.728V265.93ZM371.728 157.305H373.858V159.504H371.728V157.305ZM371.728 224.151H373.858V226.35H371.728V224.151ZM371.728 190.728H373.858V192.927H371.728V190.728ZM371.728 257.575H373.858V259.773H371.728V257.575ZM371.728 174.017H373.858V176.215H371.728V174.017ZM371.728 240.863H373.858V243.062H371.728V240.863ZM371.728 207.44H373.858V209.639H371.728V207.44ZM371.728 274.286H373.858V276.485H371.728V274.286ZM288.648 148.949H290.779V151.148H288.648V148.949ZM288.648 215.796H290.779V217.994H288.648V215.796ZM288.648 182.372H290.779V184.571H288.648V182.372ZM288.648 249.219H290.779V251.418H288.648V249.219ZM288.648 165.661H290.779V167.86H288.648V165.661ZM288.648 232.507H290.779V234.706H288.648V232.507ZM288.648 199.084H290.779V201.283H288.648V199.084ZM288.648 265.93H290.779V268.129H288.648V265.93ZM288.648 157.305H290.779V159.504H288.648V157.305ZM288.648 224.151H290.779V226.35H288.648V224.151ZM288.648 190.728H290.779V192.927H288.648V190.728ZM288.648 257.575H290.779V259.773H288.648V257.575ZM288.648 174.017H290.779V176.215H288.648V174.017ZM288.648 240.863H290.779V243.062H288.648V240.863ZM288.648 207.44H290.779V209.639H288.648V207.44ZM288.648 274.286H290.779V276.485H288.648V274.286ZM355.751 148.949H357.882V151.148H355.751V148.949ZM355.751 215.796H357.882V217.994H355.751V215.796ZM355.751 182.372H357.882V184.571H355.751V182.372ZM355.751 249.219H357.882V251.418H355.751V249.219ZM355.751 165.661H357.882V167.86H355.751V165.661ZM355.751 232.507H357.882V234.706H355.751V232.507ZM355.751 199.084H357.882V201.283H355.751V199.084ZM355.751 265.93H357.882V268.129H355.751V265.93ZM355.751 157.305H357.882V159.504H355.751V157.305ZM355.751 224.151H357.882V226.35H355.751V224.151ZM355.751 190.728H357.882V192.927H355.751V190.728ZM355.751 257.575H357.882V259.773H355.751V257.575ZM355.751 174.017H357.882V176.215H355.751V174.017ZM355.751 240.863H357.882V243.062H355.751V240.863ZM355.751 207.44H357.882V209.639H355.751V207.44ZM355.751 274.286H357.882V276.485H355.751V274.286ZM321.667 148.949H323.798V151.148H321.667V148.949ZM321.667 215.796H323.798V217.994H321.667V215.796ZM321.667 182.372H323.798V184.571H321.667V182.372ZM321.667 249.219H323.798V251.418H321.667V249.219ZM321.667 165.661H323.798V167.86H321.667V165.661ZM321.667 232.507H323.798V234.706H321.667V232.507ZM321.667 199.084H323.798V201.283H321.667V199.084ZM321.667 265.93H323.798V268.129H321.667V265.93ZM321.667 157.305H323.798V159.504H321.667V157.305ZM321.667 224.151H323.798V226.35H321.667V224.151ZM321.667 190.728H323.798V192.927H321.667V190.728ZM321.667 257.575H323.798V259.773H321.667V257.575ZM321.667 174.017H323.798V176.215H321.667V174.017ZM321.667 240.863H323.798V243.062H321.667V240.863ZM321.667 207.44H323.798V209.639H321.667V207.44ZM321.667 274.286H323.798V276.485H321.667V274.286ZM388.77 148.949H390.9V151.148H388.77V148.949ZM388.77 215.796H390.9V217.994H388.77V215.796ZM388.77 182.372H390.9V184.571H388.77V182.372ZM388.77 249.219H390.9V251.418H388.77V249.219ZM388.77 165.661H390.9V167.86H388.77V165.661ZM388.77 232.507H390.9V234.706H388.77V232.507ZM388.77 199.084H390.9V201.283H388.77V199.084ZM388.77 265.93H390.9V268.129H388.77V265.93ZM388.77 157.305H390.9V159.504H388.77V157.305ZM388.77 224.151H390.9V226.35H388.77V224.151ZM388.77 190.728H390.9V192.927H388.77V190.728ZM388.77 257.575H390.9V259.773H388.77V257.575ZM388.77 174.017H390.9V176.215H388.77V174.017ZM388.77 240.863H390.9V243.062H388.77V240.863ZM388.77 207.44H390.9V209.639H388.77V207.44ZM388.77 274.286H390.9V276.485H388.77V274.286ZM280.127 148.949H282.258V151.148H280.127V148.949ZM280.127 215.796H282.258V217.994H280.127V215.796ZM280.127 182.372H282.258V184.571H280.127V182.372ZM280.127 249.219H282.258V251.418H280.127V249.219ZM280.127 165.661H282.258V167.86H280.127V165.661ZM280.127 232.507H282.258V234.706H280.127V232.507ZM280.127 199.084H282.258V201.283H280.127V199.084ZM280.127 265.93H282.258V268.129H280.127V265.93ZM280.127 157.305H282.258V159.504H280.127V157.305ZM280.127 224.151H282.258V226.35H280.127V224.151ZM280.127 190.728H282.258V192.927H280.127V190.728ZM280.127 257.575H282.258V259.773H280.127V257.575ZM280.127 174.017H282.258V176.215H280.127V174.017ZM280.127 240.863H282.258V243.062H280.127V240.863ZM280.127 207.44H282.258V209.639H280.127V207.44ZM280.127 274.286H282.258V276.485H280.127V274.286ZM347.23 148.949H349.361V151.148H347.23V148.949ZM347.23 215.796H349.361V217.994H347.23V215.796ZM347.23 182.372H349.361V184.571H347.23V182.372ZM347.23 249.219H349.361V251.418H347.23V249.219ZM347.23 165.661H349.361V167.86H347.23V165.661ZM347.23 232.507H349.361V234.706H347.23V232.507ZM347.23 199.084H349.361V201.283H347.23V199.084ZM347.23 265.93H349.361V268.129H347.23V265.93ZM347.23 157.305H349.361V159.504H347.23V157.305ZM347.23 224.151H349.361V226.35H347.23V224.151ZM347.23 190.728H349.361V192.927H347.23V190.728ZM347.23 257.575H349.361V259.773H347.23V257.575ZM347.23 174.017H349.361V176.215H347.23V174.017ZM347.23 240.863H349.361V243.062H347.23V240.863ZM347.23 207.44H349.361V209.639H347.23V207.44ZM347.23 274.286H349.361V276.485H347.23V274.286ZM313.146 148.949H315.277V151.148H313.146V148.949ZM313.146 215.796H315.277V217.994H313.146V215.796ZM313.146 182.372H315.277V184.571H313.146V182.372ZM313.146 249.219H315.277V251.418H313.146V249.219ZM313.146 165.661H315.277V167.86H313.146V165.661ZM313.146 232.507H315.277V234.706H313.146V232.507ZM313.146 199.084H315.277V201.283H313.146V199.084ZM313.146 265.93H315.277V268.129H313.146V265.93ZM313.146 157.305H315.277V159.504H313.146V157.305ZM313.146 224.151H315.277V226.35H313.146V224.151ZM313.146 190.728H315.277V192.927H313.146V190.728ZM313.146 257.575H315.277V259.773H313.146V257.575ZM313.146 174.017H315.277V176.215H313.146V174.017ZM313.146 240.863H315.277V243.062H313.146V240.863ZM313.146 207.44H315.277V209.639H313.146V207.44ZM313.146 274.286H315.277V276.485H313.146V274.286ZM380.249 148.949H382.379V151.148H380.249V148.949ZM380.249 215.796H382.379V217.994H380.249V215.796ZM380.249 182.372H382.379V184.571H380.249V182.372ZM380.249 249.219H382.379V251.418H380.249V249.219ZM380.249 165.661H382.379V167.86H380.249V165.661ZM380.249 232.507H382.379V234.706H380.249V232.507ZM380.249 199.084H382.379V201.283H380.249V199.084ZM380.249 265.93H382.379V268.129H380.249V265.93ZM380.249 157.305H382.379V159.504H380.249V157.305ZM380.249 224.151H382.379V226.35H380.249V224.151ZM380.249 190.728H382.379V192.927H380.249V190.728ZM380.249 257.575H382.379V259.773H380.249V257.575ZM380.249 174.017H382.379V176.215H380.249V174.017ZM380.249 240.863H382.379V243.062H380.249V240.863ZM380.249 207.44H382.379V209.639H380.249V207.44ZM380.249 274.286H382.379V276.485H380.249V274.286ZM297.169 148.949H299.3V151.148H297.169V148.949ZM297.169 215.796H299.3V217.994H297.169V215.796ZM297.169 182.372H299.3V184.571H297.169V182.372ZM297.169 249.219H299.3V251.418H297.169V249.219ZM297.169 165.661H299.3V167.86H297.169V165.661ZM297.169 232.507H299.3V234.706H297.169V232.507ZM297.169 199.084H299.3V201.283H297.169V199.084ZM297.169 265.93H299.3V268.129H297.169V265.93ZM297.169 157.305H299.3V159.504H297.169V157.305ZM297.169 224.151H299.3V226.35H297.169V224.151ZM297.169 190.728H299.3V192.927H297.169V190.728ZM297.169 257.575H299.3V259.773H297.169V257.575ZM297.169 174.017H299.3V176.215H297.169V174.017ZM297.169 240.863H299.3V243.062H297.169V240.863ZM297.169 207.44H299.3V209.639H297.169V207.44ZM297.169 274.286H299.3V276.485H297.169V274.286ZM364.272 148.949H366.403V151.148H364.272V148.949ZM364.272 215.796H366.403V217.994H364.272V215.796ZM364.272 182.372H366.403V184.571H364.272V182.372ZM364.272 249.219H366.403V251.418H364.272V249.219ZM364.272 165.661H366.403V167.86H364.272V165.661ZM364.272 232.507H366.403V234.706H364.272V232.507ZM364.272 199.084H366.403V201.283H364.272V199.084ZM364.272 265.93H366.403V268.129H364.272V265.93ZM364.272 157.305H366.403V159.504H364.272V157.305ZM364.272 224.151H366.403V226.35H364.272V224.151ZM364.272 190.728H366.403V192.927H364.272V190.728ZM364.272 257.575H366.403V259.773H364.272V257.575ZM364.272 174.017H366.403V176.215H364.272V174.017ZM364.272 240.863H366.403V243.062H364.272V240.863ZM364.272 207.44H366.403V209.639H364.272V207.44ZM364.272 274.286H366.403V276.485H364.272V274.286ZM330.188 148.949H332.319V151.148H330.188V148.949ZM330.188 215.796H332.319V217.994H330.188V215.796ZM330.188 182.372H332.319V184.571H330.188V182.372ZM330.188 249.219H332.319V251.418H330.188V249.219ZM330.188 165.661H332.319V167.86H330.188V165.661ZM330.188 232.507H332.319V234.706H330.188V232.507ZM330.188 199.084H332.319V201.283H330.188V199.084ZM330.188 265.93H332.319V268.129H330.188V265.93ZM330.188 157.305H332.319V159.504H330.188V157.305ZM330.188 224.151H332.319V226.35H330.188V224.151ZM330.188 190.728H332.319V192.927H330.188V190.728ZM330.188 257.575H332.319V259.773H330.188V257.575ZM330.188 174.017H332.319V176.215H330.188V174.017ZM330.188 240.863H332.319V243.062H330.188V240.863ZM330.188 207.44H332.319V209.639H330.188V207.44ZM330.188 274.286H332.319V276.485H330.188V274.286ZM397.291 148.949H399.421V151.148H397.291V148.949ZM397.291 215.796H399.421V217.994H397.291V215.796ZM397.291 182.372H399.421V184.571H397.291V182.372ZM397.291 249.219H399.421V251.418H397.291V249.219ZM397.291 165.661H399.421V167.86H397.291V165.661ZM397.291 232.507H399.421V234.706H397.291V232.507ZM397.291 199.084H399.421V201.283H397.291V199.084ZM397.291 265.93H399.421V268.129H397.291V265.93ZM397.291 157.305H399.421V159.504H397.291V157.305ZM397.291 224.151H399.421V226.35H397.291V224.151ZM397.291 190.728H399.421V192.927H397.291V190.728ZM397.291 257.575H399.421V259.773H397.291V257.575ZM397.291 174.017H399.421V176.215H397.291V174.017ZM397.291 240.863H399.421V243.062H397.291V240.863ZM397.291 207.44H399.421V209.639H397.291V207.44ZM397.291 274.286H399.421V276.485H397.291V274.286Z" fill="#0BCD0F"/>
<path fill-rule="evenodd" clip-rule="evenodd" d="M69.7655 148.949H71.8958V151.148H69.7655V148.949ZM69.7655 215.796H71.8958V217.994H69.7655V215.796ZM69.7655 182.372H71.8958V184.571H69.7655V182.372ZM69.7655 249.219H71.8958V251.418H69.7655V249.219ZM69.7655 165.661H71.8958V167.86H69.7655V165.661ZM69.7655 232.507H71.8958V234.706H69.7655V232.507ZM69.7655 199.084H71.8958V201.283H69.7655V199.084ZM69.7655 265.93H71.8958V268.129H69.7655V265.93ZM69.7655 157.305H71.8958V159.504H69.7655V157.305ZM69.7655 224.151H71.8958V226.35H69.7655V224.151ZM69.7655 190.728H71.8958V192.927H69.7655V190.728ZM69.7655 257.575H71.8958V259.773H69.7655V257.575ZM69.7655 174.017H71.8958V176.215H69.7655V174.017ZM69.7655 240.863H71.8958V243.062H69.7655V240.863ZM69.7655 207.44H71.8958V209.639H69.7655V207.44ZM69.7655 274.286H71.8958V276.485H69.7655V274.286ZM35.6816 148.949H37.8118V151.148H35.6816V148.949ZM35.6816 215.796H37.8118V217.994H35.6816V215.796ZM35.6816 182.372H37.8118V184.571H35.6816V182.372ZM35.6816 249.219H37.8118V251.418H35.6816V249.219ZM35.6816 165.661H37.8118V167.86H35.6816V165.661ZM35.6816 232.507H37.8118V234.706H35.6816V232.507ZM35.6816 199.084H37.8118V201.283H35.6816V199.084ZM35.6816 265.93H37.8118V268.129H35.6816V265.93ZM35.6816 157.305H37.8118V159.504H35.6816V157.305ZM35.6816 224.151H37.8118V226.35H35.6816V224.151ZM35.6816 190.728H37.8118V192.927H35.6816V190.728ZM35.6816 257.575H37.8118V259.773H35.6816V257.575ZM35.6816 174.017H37.8118V176.215H35.6816V174.017ZM35.6816 240.863H37.8118V243.062H35.6816V240.863ZM35.6816 207.44H37.8118V209.639H35.6816V207.44ZM35.6816 274.286H37.8118V276.485H35.6816V274.286ZM102.784 148.949H104.915V151.148H102.784V148.949ZM102.784 215.796H104.915V217.994H102.784V215.796ZM102.784 182.372H104.915V184.571H102.784V182.372ZM102.784 249.219H104.915V251.418H102.784V249.219ZM102.784 165.661H104.915V167.86H102.784V165.661ZM102.784 232.507H104.915V234.706H102.784V232.507ZM102.784 199.084H104.915V201.283H102.784V199.084ZM102.784 265.93H104.915V268.129H102.784V265.93ZM102.784 157.305H104.915V159.504H102.784V157.305ZM102.784 224.151H104.915V226.35H102.784V224.151ZM102.784 190.728H104.915V192.927H102.784V190.728ZM102.784 257.575H104.915V259.773H102.784V257.575ZM102.784 174.017H104.915V176.215H102.784V174.017ZM102.784 240.863H104.915V243.062H102.784V240.863ZM102.784 207.44H104.915V209.639H102.784V207.44ZM102.784 274.286H104.915V276.485H102.784V274.286ZM19.7047 148.949H21.835V151.148H19.7047V148.949ZM19.7047 215.796H21.835V217.994H19.7047V215.796ZM19.7047 182.372H21.835V184.571H19.7047V182.372ZM19.7047 249.219H21.835V251.418H19.7047V249.219ZM19.7047 165.661H21.835V167.86H19.7047V165.661ZM19.7047 232.507H21.835V234.706H19.7047V232.507ZM19.7047 199.084H21.835V201.283H19.7047V199.084ZM19.7047 265.93H21.835V268.129H19.7047V265.93ZM19.7047 157.305H21.835V159.504H19.7047V157.305ZM19.7047 224.151H21.835V226.35H19.7047V224.151ZM19.7047 190.728H21.835V192.927H19.7047V190.728ZM19.7047 257.575H21.835V259.773H19.7047V257.575ZM19.7047 174.017H21.835V176.215H19.7047V174.017ZM19.7047 240.863H21.835V243.062H19.7047V240.863ZM19.7047 207.44H21.835V209.639H19.7047V207.44ZM19.7047 274.286H21.835V276.485H19.7047V274.286ZM86.8075 148.949H88.9378V151.148H86.8075V148.949ZM86.8075 215.796H88.9378V217.994H86.8075V215.796ZM86.8075 182.372H88.9378V184.571H86.8075V182.372ZM86.8075 249.219H88.9378V251.418H86.8075V249.219ZM86.8075 165.661H88.9378V167.86H86.8075V165.661ZM86.8075 232.507H88.9378V234.706H86.8075V232.507ZM86.8075 199.084H88.9378V201.283H86.8075V199.084ZM86.8075 265.93H88.9378V268.129H86.8075V265.93ZM86.8075 157.305H88.9378V159.504H86.8075V157.305ZM86.8075 224.151H88.9378V226.35H86.8075V224.151ZM86.8075 190.728H88.9378V192.927H86.8075V190.728ZM86.8075 257.575H88.9378V259.773H86.8075V257.575ZM86.8075 174.017H88.9378V176.215H86.8075V174.017ZM86.8075 240.863H88.9378V243.062H86.8075V240.863ZM86.8075 207.44H88.9378V209.639H86.8075V207.44ZM86.8075 274.286H88.9378V276.485H86.8075V274.286ZM52.7236 148.949H54.8538V151.148H52.7236V148.949ZM52.7236 215.796H54.8538V217.994H52.7236V215.796ZM52.7236 182.372H54.8538V184.571H52.7236V182.372ZM52.7236 249.219H54.8538V251.418H52.7236V249.219ZM52.7236 165.661H54.8538V167.86H52.7236V165.661ZM52.7236 232.507H54.8538V234.706H52.7236V232.507ZM52.7236 199.084H54.8538V201.283H52.7236V199.084ZM52.7236 265.93H54.8538V268.129H52.7236V265.93ZM52.7236 157.305H54.8538V159.504H52.7236V157.305ZM52.7236 224.151H54.8538V226.35H52.7236V224.151ZM52.7236 190.728H54.8538V192.927H52.7236V190.728ZM52.7236 257.575H54.8538V259.773H52.7236V257.575ZM52.7236 174.017H54.8538V176.215H52.7236V174.017ZM52.7236 240.863H54.8538V243.062H52.7236V240.863ZM52.7236 207.44H54.8538V209.639H52.7236V207.44ZM52.7236 274.286H54.8538V276.485H52.7236V274.286ZM119.826 148.949H121.957V151.148H119.826V148.949ZM119.826 215.796H121.957V217.994H119.826V215.796ZM119.826 182.372H121.957V184.571H119.826V182.372ZM119.826 249.219H121.957V251.418H119.826V249.219ZM119.826 165.661H121.957V167.86H119.826V165.661ZM119.826 232.507H121.957V234.706H119.826V232.507ZM119.826 199.084H121.957V201.283H119.826V199.084ZM119.826 265.93H121.957V268.129H119.826V265.93ZM119.826 157.305H121.957V159.504H119.826V157.305ZM119.826 224.151H121.957V226.35H119.826V224.151ZM119.826 190.728H121.957V192.927H119.826V190.728ZM119.826 257.575H121.957V259.773H119.826V257.575ZM119.826 174.017H121.957V176.215H119.826V174.017ZM119.826 240.863H121.957V243.062H119.826V240.863ZM119.826 207.44H121.957V209.639H119.826V207.44ZM119.826 274.286H121.957V276.485H119.826V274.286ZM11.1837 148.949H13.314V151.148H11.1837V148.949ZM11.1837 215.796H13.314V217.994H11.1837V215.796ZM11.1837 182.372H13.314V184.571H11.1837V182.372ZM11.1837 249.219H13.314V251.418H11.1837V249.219ZM11.1837 165.661H13.314V167.86H11.1837V165.661ZM11.1837 232.507H13.314V234.706H11.1837V232.507ZM11.1837 199.084H13.314V201.283H11.1837V199.084ZM11.1837 265.93H13.314V268.129H11.1837V265.93ZM11.1837 157.305H13.314V159.504H11.1837V157.305ZM11.1837 224.151H13.314V226.35H11.1837V224.151ZM11.1837 190.728H13.314V192.927H11.1837V190.728ZM11.1837 257.575H13.314V259.773H11.1837V257.575ZM11.1837 174.017H13.314V176.215H11.1837V174.017ZM11.1837 240.863H13.314V243.062H11.1837V240.863ZM11.1837 207.44H13.314V209.639H11.1837V207.44ZM11.1837 274.286H13.314V276.485H11.1837V274.286ZM78.2865 148.949H80.4168V151.148H78.2865V148.949ZM78.2865 215.796H80.4168V217.994H78.2865V215.796ZM78.2865 182.372H80.4168V184.571H78.2865V182.372ZM78.2865 249.219H80.4168V251.418H78.2865V249.219ZM78.2865 165.661H80.4168V167.86H78.2865V165.661ZM78.2865 232.507H80.4168V234.706H78.2865V232.507ZM78.2865 199.084H80.4168V201.283H78.2865V199.084ZM78.2865 265.93H80.4168V268.129H78.2865V265.93ZM78.2865 157.305H80.4168V159.504H78.2865V157.305ZM78.2865 224.151H80.4168V226.35H78.2865V224.151ZM78.2865 190.728H80.4168V192.927H78.2865V190.728ZM78.2865 257.575H80.4168V259.773H78.2865V257.575ZM78.2865 174.017H80.4168V176.215H78.2865V174.017ZM78.2865 240.863H80.4168V243.062H78.2865V240.863ZM78.2865 207.44H80.4168V209.639H78.2865V207.44ZM78.2865 274.286H80.4168V276.485H78.2865V274.286ZM44.2026 148.949H46.3328V151.148H44.2026V148.949ZM44.2026 215.796H46.3328V217.994H44.2026V215.796ZM44.2026 182.372H46.3328V184.571H44.2026V182.372ZM44.2026 249.219H46.3328V251.418H44.2026V249.219ZM44.2026 165.661H46.3328V167.86H44.2026V165.661ZM44.2026 232.507H46.3328V234.706H44.2026V232.507ZM44.2026 199.084H46.3328V201.283H44.2026V199.084ZM44.2026 265.93H46.3328V268.129H44.2026V265.93ZM44.2026 157.305H46.3328V159.504H44.2026V157.305ZM44.2026 224.151H46.3328V226.35H44.2026V224.151ZM44.2026 190.728H46.3328V192.927H44.2026V190.728ZM44.2026 257.575H46.3328V259.773H44.2026V257.575ZM44.2026 174.017H46.3328V176.215H44.2026V174.017ZM44.2026 240.863H46.3328V243.062H44.2026V240.863ZM44.2026 207.44H46.3328V209.639H44.2026V207.44ZM44.2026 274.286H46.3328V276.485H44.2026V274.286ZM111.305 148.949H113.436V151.148H111.305V148.949ZM111.305 215.796H113.436V217.994H111.305V215.796ZM111.305 182.372H113.436V184.571H111.305V182.372ZM111.305 249.219H113.436V251.418H111.305V249.219ZM111.305 165.661H113.436V167.86H111.305V165.661ZM111.305 232.507H113.436V234.706H111.305V232.507ZM111.305 199.084H113.436V201.283H111.305V199.084ZM111.305 265.93H113.436V268.129H111.305V265.93ZM111.305 157.305H113.436V159.504H111.305V157.305ZM111.305 224.151H113.436V226.35H111.305V224.151ZM111.305 190.728H113.436V192.927H111.305V190.728ZM111.305 257.575H113.436V259.773H111.305V257.575ZM111.305 174.017H113.436V176.215H111.305V174.017ZM111.305 240.863H113.436V243.062H111.305V240.863ZM111.305 207.44H113.436V209.639H111.305V207.44ZM111.305 274.286H113.436V276.485H111.305V274.286ZM28.2257 148.949H30.3559V151.148H28.2257V148.949ZM28.2257 215.796H30.3559V217.994H28.2257V215.796ZM28.2257 182.372H30.3559V184.571H28.2257V182.372ZM28.2257 249.219H30.3559V251.418H28.2257V249.219ZM28.2257 165.661H30.3559V167.86H28.2257V165.661ZM28.2257 232.507H30.3559V234.706H28.2257V232.507ZM28.2257 199.084H30.3559V201.283H28.2257V199.084ZM28.2257 265.93H30.3559V268.129H28.2257V265.93ZM28.2257 157.305H30.3559V159.504H28.2257V157.305ZM28.2257 224.151H30.3559V226.35H28.2257V224.151ZM28.2257 190.728H30.3559V192.927H28.2257V190.728ZM28.2257 257.575H30.3559V259.773H28.2257V257.575ZM28.2257 174.017H30.3559V176.215H28.2257V174.017ZM28.2257 240.863H30.3559V243.062H28.2257V240.863ZM28.2257 207.44H30.3559V209.639H28.2257V207.44ZM28.2257 274.286H30.3559V276.485H28.2257V274.286ZM95.3285 148.949H97.4588V151.148H95.3285V148.949ZM95.3285 215.796H97.4588V217.994H95.3285V215.796ZM95.3285 182.372H97.4588V184.571H95.3285V182.372ZM95.3285 249.219H97.4588V251.418H95.3285V249.219ZM95.3285 165.661H97.4588V167.86H95.3285V165.661ZM95.3285 232.507H97.4588V234.706H95.3285V232.507ZM95.3285 199.084H97.4588V201.283H95.3285V199.084ZM95.3285 265.93H97.4588V268.129H95.3285V265.93ZM95.3285 157.305H97.4588V159.504H95.3285V157.305ZM95.3285 224.151H97.4588V226.35H95.3285V224.151ZM95.3285 190.728H97.4588V192.927H95.3285V190.728ZM95.3285 257.575H97.4588V259.773H95.3285V257.575ZM95.3285 174.017H97.4588V176.215H95.3285V174.017ZM95.3285 240.863H97.4588V243.062H95.3285V240.863ZM95.3285 207.44H97.4588V209.639H95.3285V207.44ZM95.3285 274.286H97.4588V276.485H95.3285V274.286ZM61.2445 148.949H63.3748V151.148H61.2445V148.949ZM61.2445 215.796H63.3748V217.994H61.2445V215.796ZM61.2445 182.372H63.3748V184.571H61.2445V182.372ZM61.2445 249.219H63.3748V251.418H61.2445V249.219ZM61.2445 165.661H63.3748V167.86H61.2445V165.661ZM61.2445 232.507H63.3748V234.706H61.2445V232.507ZM61.2445 199.084H63.3748V201.283H61.2445V199.084ZM61.2445 265.93H63.3748V268.129H61.2445V265.93ZM61.2445 157.305H63.3748V159.504H61.2445V157.305ZM61.2445 224.151H63.3748V226.35H61.2445V224.151ZM61.2445 190.728H63.3748V192.927H61.2445V190.728ZM61.2445 257.575H63.3748V259.773H61.2445V257.575ZM61.2445 174.017H63.3748V176.215H61.2445V174.017ZM61.2445 240.863H63.3748V243.062H61.2445V240.863ZM61.2445 207.44H63.3748V209.639H61.2445V207.44ZM61.2445 274.286H63.3748V276.485H61.2445V274.286ZM128.347 148.949H130.478V151.148H128.347V148.949ZM128.347 215.796H130.478V217.994H128.347V215.796ZM128.347 182.372H130.478V184.571H128.347V182.372ZM128.347 249.219H130.478V251.418H128.347V249.219ZM128.347 165.661H130.478V167.86H128.347V165.661ZM128.347 232.507H130.478V234.706H128.347V232.507ZM128.347 199.084H130.478V201.283H128.347V199.084ZM128.347 265.93H130.478V268.129H128.347V265.93ZM128.347 157.305H130.478V159.504H128.347V157.305ZM128.347 224.151H130.478V226.35H128.347V224.151ZM128.347 190.728H130.478V192.927H128.347V190.728ZM128.347 257.575H130.478V259.773H128.347V257.575ZM128.347 174.017H130.478V176.215H128.347V174.017ZM128.347 240.863H130.478V243.062H128.347V240.863ZM128.347 207.44H130.478V209.639H128.347V207.44ZM128.347 274.286H130.478V276.485H128.347V274.286Z" fill="#0BCD0F"/>
<path fill-rule="evenodd" clip-rule="evenodd" d="M271.606 14.3271H273.737V16.526H271.606V14.3271ZM271.606 81.1735H273.737V83.3724H271.606V81.1735ZM271.606 47.7503H273.737V49.9492H271.606V47.7503ZM271.606 114.597H273.737V116.796H271.606V114.597ZM271.606 31.0387H273.737V33.2376H271.606V31.0387ZM271.606 97.8851H273.737V100.084H271.606V97.8851ZM271.606 64.4619H273.737V66.6608H271.606V64.4619ZM271.606 131.308H273.737V133.507H271.606V131.308ZM271.606 22.6829H273.737V24.8818H271.606V22.6829ZM271.606 89.5293H273.737V91.7282H271.606V89.5293ZM271.606 56.1061H273.737V58.305H271.606V56.1061ZM271.606 122.952H273.737V125.151H271.606V122.952ZM271.606 39.3945H273.737V41.5934H271.606V39.3945ZM271.606 106.241H273.737V108.44H271.606V106.241ZM271.606 72.8177H273.737V75.0166H271.606V72.8177ZM271.606 139.664H273.737V141.863H271.606V139.664ZM338.709 14.3271H340.84V16.526H338.709V14.3271ZM338.709 81.1735H340.84V83.3724H338.709V81.1735ZM338.709 47.7503H340.84V49.9492H338.709V47.7503ZM338.709 114.597H340.84V116.796H338.709V114.597ZM338.709 31.0387H340.84V33.2376H338.709V31.0387ZM338.709 97.8851H340.84V100.084H338.709V97.8851ZM338.709 64.4619H340.84V66.6608H338.709V64.4619ZM338.709 131.308H340.84V133.507H338.709V131.308ZM338.709 22.6829H340.84V24.8818H338.709V22.6829ZM338.709 89.5293H340.84V91.7282H338.709V89.5293ZM338.709 56.1061H340.84V58.305H338.709V56.1061ZM338.709 122.952H340.84V125.151H338.709V122.952ZM338.709 39.3945H340.84V41.5934H338.709V39.3945ZM338.709 106.241H340.84V108.44H338.709V106.241ZM338.709 72.8177H340.84V75.0166H338.709V72.8177ZM338.709 139.664H340.84V141.863H338.709V139.664ZM304.625 14.3271H306.756V16.526H304.625V14.3271ZM304.625 81.1735H306.756V83.3724H304.625V81.1735ZM304.625 47.7503H306.756V49.9492H304.625V47.7503ZM304.625 114.597H306.756V116.796H304.625V114.597ZM304.625 31.0387H306.756V33.2376H304.625V31.0387ZM304.625 97.8851H306.756V100.084H304.625V97.8851ZM304.625 64.4619H306.756V66.6608H304.625V64.4619ZM304.625 131.308H306.756V133.507H304.625V131.308ZM304.625 22.6829H306.756V24.8818H304.625V22.6829ZM304.625 89.5293H306.756V91.7282H304.625V89.5293ZM304.625 56.1061H306.756V58.305H304.625V56.1061ZM304.625 122.952H306.756V125.151H304.625V122.952ZM304.625 39.3945H306.756V41.5934H304.625V39.3945ZM304.625 106.241H306.756V108.44H304.625V106.241ZM304.625 72.8177H306.756V75.0166H304.625V72.8177ZM304.625 139.664H306.756V141.863H304.625V139.664ZM371.728 14.3271H373.858V16.526H371.728V14.3271ZM371.728 81.1735H373.858V83.3724H371.728V81.1735ZM371.728 47.7503H373.858V49.9492H371.728V47.7503ZM371.728 114.597H373.858V116.796H371.728V114.597ZM371.728 31.0387H373.858V33.2376H371.728V31.0387ZM371.728 97.8851H373.858V100.084H371.728V97.8851ZM371.728 64.4619H373.858V66.6608H371.728V64.4619ZM371.728 131.308H373.858V133.507H371.728V131.308ZM371.728 22.6829H373.858V24.8818H371.728V22.6829ZM371.728 89.5293H373.858V91.7282H371.728V89.5293ZM371.728 56.1061H373.858V58.305H371.728V56.1061ZM371.728 122.952H373.858V125.151H371.728V122.952ZM371.728 39.3945H373.858V41.5934H371.728V39.3945ZM371.728 106.241H373.858V108.44H371.728V106.241ZM371.728 72.8177H373.858V75.0166H371.728V72.8177ZM371.728 139.664H373.858V141.863H371.728V139.664ZM288.648 14.3271H290.779V16.526H288.648V14.3271ZM288.648 81.1735H290.779V83.3724H288.648V81.1735ZM288.648 47.7503H290.779V49.9492H288.648V47.7503ZM288.648 114.597H290.779V116.796H288.648V114.597ZM288.648 31.0387H290.779V33.2376H288.648V31.0387ZM288.648 97.8851H290.779V100.084H288.648V97.8851ZM288.648 64.4619H290.779V66.6608H288.648V64.4619ZM288.648 131.308H290.779V133.507H288.648V131.308ZM288.648 22.6829H290.779V24.8818H288.648V22.6829ZM288.648 89.5293H290.779V91.7282H288.648V89.5293ZM288.648 56.1061H290.779V58.305H288.648V56.1061ZM288.648 122.952H290.779V125.151H288.648V122.952ZM288.648 39.3945H290.779V41.5934H288.648V39.3945ZM288.648 106.241H290.779V108.44H288.648V106.241ZM288.648 72.8177H290.779V75.0166H288.648V72.8177ZM288.648 139.664H290.779V141.863H288.648V139.664ZM355.751 14.3271H357.882V16.526H355.751V14.3271ZM355.751 81.1735H357.882V83.3724H355.751V81.1735ZM355.751 47.7503H357.882V49.9492H355.751V47.7503ZM355.751 114.597H357.882V116.796H355.751V114.597ZM355.751 31.0387H357.882V33.2376H355.751V31.0387ZM355.751 97.8851H357.882V100.084H355.751V97.8851ZM355.751 64.4619H357.882V66.6608H355.751V64.4619ZM355.751 131.308H357.882V133.507H355.751V131.308ZM355.751 22.6829H357.882V24.8818H355.751V22.6829ZM355.751 89.5293H357.882V91.7282H355.751V89.5293ZM355.751 56.1061H357.882V58.305H355.751V56.1061ZM355.751 122.952H357.882V125.151H355.751V122.952ZM355.751 39.3945H357.882V41.5934H355.751V39.3945ZM355.751 106.241H357.882V108.44H355.751V106.241ZM355.751 72.8177H357.882V75.0166H355.751V72.8177ZM355.751 139.664H357.882V141.863H355.751V139.664ZM321.667 14.3271H323.798V16.526H321.667V14.3271ZM321.667 81.1735H323.798V83.3724H321.667V81.1735ZM321.667 47.7503H323.798V49.9492H321.667V47.7503ZM321.667 114.597H323.798V116.796H321.667V114.597ZM321.667 31.0387H323.798V33.2376H321.667V31.0387ZM321.667 97.8851H323.798V100.084H321.667V97.8851ZM321.667 64.4619H323.798V66.6608H321.667V64.4619ZM321.667 131.308H323.798V133.507H321.667V131.308ZM321.667 22.6829H323.798V24.8818H321.667V22.6829ZM321.667 89.5293H323.798V91.7282H321.667V89.5293ZM321.667 56.1061H323.798V58.305H321.667V56.1061ZM321.667 122.952H323.798V125.151H321.667V122.952ZM321.667 39.3945H323.798V41.5934H321.667V39.3945ZM321.667 106.241H323.798V108.44H321.667V106.241ZM321.667 72.8177H323.798V75.0166H321.667V72.8177ZM321.667 139.664H323.798V141.863H321.667V139.664ZM388.77 14.3271H390.9V16.526H388.77V14.3271ZM388.77 81.1735H390.9V83.3724H388.77V81.1735ZM388.77 47.7503H390.9V49.9492H388.77V47.7503ZM388.77 114.597H390.9V116.796H388.77V114.597ZM388.77 31.0387H390.9V33.2376H388.77V31.0387ZM388.77 97.8851H390.9V100.084H388.77V97.8851ZM388.77 64.4619H390.9V66.6608H388.77V64.4619ZM388.77 131.308H390.9V133.507H388.77V131.308ZM388.77 22.6829H390.9V24.8818H388.77V22.6829ZM388.77 89.5293H390.9V91.7282H388.77V89.5293ZM388.77 56.1061H390.9V58.305H388.77V56.1061ZM388.77 122.952H390.9V125.151H388.77V122.952ZM388.77 39.3945H390.9V41.5934H388.77V39.3945ZM388.77 106.241H390.9V108.44H388.77V106.241ZM388.77 72.8177H390.9V75.0166H388.77V72.8177ZM388.77 139.664H390.9V141.863H388.77V139.664ZM280.127 14.3271H282.258V16.526H280.127V14.3271ZM280.127 81.1735H282.258V83.3724H280.127V81.1735ZM280.127 47.7503H282.258V49.9492H280.127V47.7503ZM280.127 114.597H282.258V116.796H280.127V114.597ZM280.127 31.0387H282.258V33.2376H280.127V31.0387ZM280.127 97.8851H282.258V100.084H280.127V97.8851ZM280.127 64.4619H282.258V66.6608H280.127V64.4619ZM280.127 131.308H282.258V133.507H280.127V131.308ZM280.127 22.6829H282.258V24.8818H280.127V22.6829ZM280.127 89.5293H282.258V91.7282H280.127V89.5293ZM280.127 56.1061H282.258V58.305H280.127V56.1061ZM280.127 122.952H282.258V125.151H280.127V122.952ZM280.127 39.3945H282.258V41.5934H280.127V39.3945ZM280.127 106.241H282.258V108.44H280.127V106.241ZM280.127 72.8177H282.258V75.0166H280.127V72.8177ZM280.127 139.664H282.258V141.863H280.127V139.664ZM347.23 14.3271H349.361V16.526H347.23V14.3271ZM347.23 81.1735H349.361V83.3724H347.23V81.1735ZM347.23 47.7503H349.361V49.9492H347.23V47.7503ZM347.23 114.597H349.361V116.796H347.23V114.597ZM347.23 31.0387H349.361V33.2376H347.23V31.0387ZM347.23 97.8851H349.361V100.084H347.23V97.8851ZM347.23 64.4619H349.361V66.6608H347.23V64.4619ZM347.23 131.308H349.361V133.507H347.23V131.308ZM347.23 22.6829H349.361V24.8818H347.23V22.6829ZM347.23 89.5293H349.361V91.7282H347.23V89.5293ZM347.23 56.1061H349.361V58.305H347.23V56.1061ZM347.23 122.952H349.361V125.151H347.23V122.952ZM347.23 39.3945H349.361V41.5934H347.23V39.3945ZM347.23 106.241H349.361V108.44H347.23V106.241ZM347.23 72.8177H349.361V75.0166H347.23V72.8177ZM347.23 139.664H349.361V141.863H347.23V139.664ZM313.146 14.3271H315.277V16.526H313.146V14.3271ZM313.146 81.1735H315.277V83.3724H313.146V81.1735ZM313.146 47.7503H315.277V49.9492H313.146V47.7503ZM313.146 114.597H315.277V116.796H313.146V114.597ZM313.146 31.0387H315.277V33.2376H313.146V31.0387ZM313.146 97.8851H315.277V100.084H313.146V97.8851ZM313.146 64.4619H315.277V66.6608H313.146V64.4619ZM313.146 131.308H315.277V133.507H313.146V131.308ZM313.146 22.6829H315.277V24.8818H313.146V22.6829ZM313.146 89.5293H315.277V91.7282H313.146V89.5293ZM313.146 56.1061H315.277V58.305H313.146V56.1061ZM313.146 122.952H315.277V125.151H313.146V122.952ZM313.146 39.3945H315.277V41.5934H313.146V39.3945ZM313.146 106.241H315.277V108.44H313.146V106.241ZM313.146 72.8177H315.277V75.0166H313.146V72.8177ZM313.146 139.664H315.277V141.863H313.146V139.664ZM380.249 14.3271H382.379V16.526H380.249V14.3271ZM380.249 81.1735H382.379V83.3724H380.249V81.1735ZM380.249 47.7503H382.379V49.9492H380.249V47.7503ZM380.249 114.597H382.379V116.796H380.249V114.597ZM380.249 31.0387H382.379V33.2376H380.249V31.0387ZM380.249 97.8851H382.379V100.084H380.249V97.8851ZM380.249 64.4619H382.379V66.6608H380.249V64.4619ZM380.249 131.308H382.379V133.507H380.249V131.308ZM380.249 22.6829H382.379V24.8818H380.249V22.6829ZM380.249 89.5293H382.379V91.7282H380.249V89.5293ZM380.249 56.1061H382.379V58.305H380.249V56.1061ZM380.249 122.952H382.379V125.151H380.249V122.952ZM380.249 39.3945H382.379V41.5934H380.249V39.3945ZM380.249 106.241H382.379V108.44H380.249V106.241ZM380.249 72.8177H382.379V75.0166H380.249V72.8177ZM380.249 139.664H382.379V141.863H380.249V139.664ZM297.169 14.3271H299.3V16.526H297.169V14.3271ZM297.169 81.1735H299.3V83.3724H297.169V81.1735ZM297.169 47.7503H299.3V49.9492H297.169V47.7503ZM297.169 114.597H299.3V116.796H297.169V114.597ZM297.169 31.0387H299.3V33.2376H297.169V31.0387ZM297.169 97.8851H299.3V100.084H297.169V97.8851ZM297.169 64.4619H299.3V66.6608H297.169V64.4619ZM297.169 131.308H299.3V133.507H297.169V131.308ZM297.169 22.6829H299.3V24.8818H297.169V22.6829ZM297.169 89.5293H299.3V91.7282H297.169V89.5293ZM297.169 56.1061H299.3V58.305H297.169V56.1061ZM297.169 122.952H299.3V125.151H297.169V122.952ZM297.169 39.3945H299.3V41.5934H297.169V39.3945ZM297.169 106.241H299.3V108.44H297.169V106.241ZM297.169 72.8177H299.3V75.0166H297.169V72.8177ZM297.169 139.664H299.3V141.863H297.169V139.664ZM364.272 14.3271H366.403V16.526H364.272V14.3271ZM364.272 81.1735H366.403V83.3724H364.272V81.1735ZM364.272 47.7503H366.403V49.9492H364.272V47.7503ZM364.272 114.597H366.403V116.796H364.272V114.597ZM364.272 31.0387H366.403V33.2376H364.272V31.0387ZM364.272 97.8851H366.403V100.084H364.272V97.8851ZM364.272 64.4619H366.403V66.6608H364.272V64.4619ZM364.272 131.308H366.403V133.507H364.272V131.308ZM364.272 22.6829H366.403V24.8818H364.272V22.6829ZM364.272 89.5293H366.403V91.7282H364.272V89.5293ZM364.272 56.1061H366.403V58.305H364.272V56.1061ZM364.272 122.952H366.403V125.151H364.272V122.952ZM364.272 39.3945H366.403V41.5934H364.272V39.3945ZM364.272 106.241H366.403V108.44H364.272V106.241ZM364.272 72.8177H366.403V75.0166H364.272V72.8177ZM364.272 139.664H366.403V141.863H364.272V139.664ZM330.188 14.3271H332.319V16.526H330.188V14.3271ZM330.188 81.1735H332.319V83.3724H330.188V81.1735ZM330.188 47.7503H332.319V49.9492H330.188V47.7503ZM330.188 114.597H332.319V116.796H330.188V114.597ZM330.188 31.0387H332.319V33.2376H330.188V31.0387ZM330.188 97.8851H332.319V100.084H330.188V97.8851ZM330.188 64.4619H332.319V66.6608H330.188V64.4619ZM330.188 131.308H332.319V133.507H330.188V131.308ZM330.188 22.6829H332.319V24.8818H330.188V22.6829ZM330.188 89.5293H332.319V91.7282H330.188V89.5293ZM330.188 56.1061H332.319V58.305H330.188V56.1061ZM330.188 122.952H332.319V125.151H330.188V122.952ZM330.188 39.3945H332.319V41.5934H330.188V39.3945ZM330.188 106.241H332.319V108.44H330.188V106.241ZM330.188 72.8177H332.319V75.0166H330.188V72.8177ZM330.188 139.664H332.319V141.863H330.188V139.664ZM397.291 14.3271H399.421V16.526H397.291V14.3271ZM397.291 81.1735H399.421V83.3724H397.291V81.1735ZM397.291 47.7503H399.421V49.9492H397.291V47.7503ZM397.291 114.597H399.421V116.796H397.291V114.597ZM397.291 31.0387H399.421V33.2376H397.291V31.0387ZM397.291 97.8851H399.421V100.084H397.291V97.8851ZM397.291 64.4619H399.421V66.6608H397.291V64.4619ZM397.291 131.308H399.421V133.507H397.291V131.308ZM397.291 22.6829H399.421V24.8818H397.291V22.6829ZM397.291 89.5293H399.421V91.7282H397.291V89.5293ZM397.291 56.1061H399.421V58.305H397.291V56.1061ZM397.291 122.952H399.421V125.151H397.291V122.952ZM397.291 39.3945H399.421V41.5934H397.291V39.3945ZM397.291 106.241H399.421V108.44H397.291V106.241ZM397.291 72.8177H399.421V75.0166H397.291V72.8177ZM397.291 139.664H399.421V141.863H397.291V139.664Z" fill="#0BCD0F"/>
<path fill-rule="evenodd" clip-rule="evenodd" d="M69.7655 14.3271H71.8958V16.526H69.7655V14.3271ZM69.7655 81.1735H71.8958V83.3724H69.7655V81.1735ZM69.7655 47.7503H71.8958V49.9492H69.7655V47.7503ZM69.7655 114.597H71.8958V116.796H69.7655V114.597ZM69.7655 31.0387H71.8958V33.2376H69.7655V31.0387ZM69.7655 97.8851H71.8958V100.084H69.7655V97.8851ZM69.7655 64.4619H71.8958V66.6608H69.7655V64.4619ZM69.7655 131.308H71.8958V133.507H69.7655V131.308ZM69.7655 22.6829H71.8958V24.8818H69.7655V22.6829ZM69.7655 89.5293H71.8958V91.7282H69.7655V89.5293ZM69.7655 56.1061H71.8958V58.305H69.7655V56.1061ZM69.7655 122.952H71.8958V125.151H69.7655V122.952ZM69.7655 39.3945H71.8958V41.5934H69.7655V39.3945ZM69.7655 106.241H71.8958V108.44H69.7655V106.241ZM69.7655 72.8177H71.8958V75.0166H69.7655V72.8177ZM69.7655 139.664H71.8958V141.863H69.7655V139.664ZM35.6816 14.3271H37.8118V16.526H35.6816V14.3271ZM35.6816 81.1735H37.8118V83.3724H35.6816V81.1735ZM35.6816 47.7503H37.8118V49.9492H35.6816V47.7503ZM35.6816 114.597H37.8118V116.796H35.6816V114.597ZM35.6816 31.0387H37.8118V33.2376H35.6816V31.0387ZM35.6816 97.8851H37.8118V100.084H35.6816V97.8851ZM35.6816 64.4619H37.8118V66.6608H35.6816V64.4619ZM35.6816 131.308H37.8118V133.507H35.6816V131.308ZM35.6816 22.6829H37.8118V24.8818H35.6816V22.6829ZM35.6816 89.5293H37.8118V91.7282H35.6816V89.5293ZM35.6816 56.1061H37.8118V58.305H35.6816V56.1061ZM35.6816 122.952H37.8118V125.151H35.6816V122.952ZM35.6816 39.3945H37.8118V41.5934H35.6816V39.3945ZM35.6816 106.241H37.8118V108.44H35.6816V106.241ZM35.6816 72.8177H37.8118V75.0166H35.6816V72.8177ZM35.6816 139.664H37.8118V141.863H35.6816V139.664ZM102.784 14.3271H104.915V16.526H102.784V14.3271ZM102.784 81.1735H104.915V83.3724H102.784V81.1735ZM102.784 47.7503H104.915V49.9492H102.784V47.7503ZM102.784 114.597H104.915V116.796H102.784V114.597ZM102.784 31.0387H104.915V33.2376H102.784V31.0387ZM102.784 97.8851H104.915V100.084H102.784V97.8851ZM102.784 64.4619H104.915V66.6608H102.784V64.4619ZM102.784 131.308H104.915V133.507H102.784V131.308ZM102.784 22.6829H104.915V24.8818H102.784V22.6829ZM102.784 89.5293H104.915V91.7282H102.784V89.5293ZM102.784 56.1061H104.915V58.305H102.784V56.1061ZM102.784 122.952H104.915V125.151H102.784V122.952ZM102.784 39.3945H104.915V41.5934H102.784V39.3945ZM102.784 106.241H104.915V108.44H102.784V106.241ZM102.784 72.8177H104.915V75.0166H102.784V72.8177ZM102.784 139.664H104.915V141.863H102.784V139.664ZM19.7047 14.3271H21.835V16.526H19.7047V14.3271ZM19.7047 81.1735H21.835V83.3724H19.7047V81.1735ZM19.7047 47.7503H21.835V49.9492H19.7047V47.7503ZM19.7047 114.597H21.835V116.796H19.7047V114.597ZM19.7047 31.0387H21.835V33.2376H19.7047V31.0387ZM19.7047 97.8851H21.835V100.084H19.7047V97.8851ZM19.7047 64.4619H21.835V66.6608H19.7047V64.4619ZM19.7047 131.308H21.835V133.507H19.7047V131.308ZM19.7047 22.6829H21.835V24.8818H19.7047V22.6829ZM19.7047 89.5293H21.835V91.7282H19.7047V89.5293ZM19.7047 56.1061H21.835V58.305H19.7047V56.1061ZM19.7047 122.952H21.835V125.151H19.7047V122.952ZM19.7047 39.3945H21.835V41.5934H19.7047V39.3945ZM19.7047 106.241H21.835V108.44H19.7047V106.241ZM19.7047 72.8177H21.835V75.0166H19.7047V72.8177ZM19.7047 139.664H21.835V141.863H19.7047V139.664ZM86.8075 14.3271H88.9378V16.526H86.8075V14.3271ZM86.8075 81.1735H88.9378V83.3724H86.8075V81.1735ZM86.8075 47.7503H88.9378V49.9492H86.8075V47.7503ZM86.8075 114.597H88.9378V116.796H86.8075V114.597ZM86.8075 31.0387H88.9378V33.2376H86.8075V31.0387ZM86.8075 97.8851H88.9378V100.084H86.8075V97.8851ZM86.8075 64.4619H88.9378V66.6608H86.8075V64.4619ZM86.8075 131.308H88.9378V133.507H86.8075V131.308ZM86.8075 22.6829H88.9378V24.8818H86.8075V22.6829ZM86.8075 89.5293H88.9378V91.7282H86.8075V89.5293ZM86.8075 56.1061H88.9378V58.305H86.8075V56.1061ZM86.8075 122.952H88.9378V125.151H86.8075V122.952ZM86.8075 39.3945H88.9378V41.5934H86.8075V39.3945ZM86.8075 106.241H88.9378V108.44H86.8075V106.241ZM86.8075 72.8177H88.9378V75.0166H86.8075V72.8177ZM86.8075 139.664H88.9378V141.863H86.8075V139.664ZM52.7236 14.3271H54.8538V16.526H52.7236V14.3271ZM52.7236 81.1735H54.8538V83.3724H52.7236V81.1735ZM52.7236 47.7503H54.8538V49.9492H52.7236V47.7503ZM52.7236 114.597H54.8538V116.796H52.7236V114.597ZM52.7236 31.0387H54.8538V33.2376H52.7236V31.0387ZM52.7236 97.8851H54.8538V100.084H52.7236V97.8851ZM52.7236 64.4619H54.8538V66.6608H52.7236V64.4619ZM52.7236 131.308H54.8538V133.507H52.7236V131.308ZM52.7236 22.6829H54.8538V24.8818H52.7236V22.6829ZM52.7236 89.5293H54.8538V91.7282H52.7236V89.5293ZM52.7236 56.1061H54.8538V58.305H52.7236V56.1061ZM52.7236 122.952H54.8538V125.151H52.7236V122.952ZM52.7236 39.3945H54.8538V41.5934H52.7236V39.3945ZM52.7236 106.241H54.8538V108.44H52.7236V106.241ZM52.7236 72.8177H54.8538V75.0166H52.7236V72.8177ZM52.7236 139.664H54.8538V141.863H52.7236V139.664ZM119.826 14.3271H121.957V16.526H119.826V14.3271ZM119.826 81.1735H121.957V83.3724H119.826V81.1735ZM119.826 47.7503H121.957V49.9492H119.826V47.7503ZM119.826 114.597H121.957V116.796H119.826V114.597ZM119.826 31.0387H121.957V33.2376H119.826V31.0387ZM119.826 97.8851H121.957V100.084H119.826V97.8851ZM119.826 64.4619H121.957V66.6608H119.826V64.4619ZM119.826 131.308H121.957V133.507H119.826V131.308ZM119.826 22.6829H121.957V24.8818H119.826V22.6829ZM119.826 89.5293H121.957V91.7282H119.826V89.5293ZM119.826 56.1061H121.957V58.305H119.826V56.1061ZM119.826 122.952H121.957V125.151H119.826V122.952ZM119.826 39.3945H121.957V41.5934H119.826V39.3945ZM119.826 106.241H121.957V108.44H119.826V106.241ZM119.826 72.8177H121.957V75.0166H119.826V72.8177ZM119.826 139.664H121.957V141.863H119.826V139.664ZM11.1837 14.3271H13.314V16.526H11.1837V14.3271ZM11.1837 81.1735H13.314V83.3724H11.1837V81.1735ZM11.1837 47.7503H13.314V49.9492H11.1837V47.7503ZM11.1837 114.597H13.314V116.796H11.1837V114.597ZM11.1837 31.0387H13.314V33.2376H11.1837V31.0387ZM11.1837 97.8851H13.314V100.084H11.1837V97.8851ZM11.1837 64.4619H13.314V66.6608H11.1837V64.4619ZM11.1837 131.308H13.314V133.507H11.1837V131.308ZM11.1837 22.6829H13.314V24.8818H11.1837V22.6829ZM11.1837 89.5293H13.314V91.7282H11.1837V89.5293ZM11.1837 56.1061H13.314V58.305H11.1837V56.1061ZM11.1837 122.952H13.314V125.151H11.1837V122.952ZM11.1837 39.3945H13.314V41.5934H11.1837V39.3945ZM11.1837 106.241H13.314V108.44H11.1837V106.241ZM11.1837 72.8177H13.314V75.0166H11.1837V72.8177ZM11.1837 139.664H13.314V141.863H11.1837V139.664ZM78.2865 14.3271H80.4168V16.526H78.2865V14.3271ZM78.2865 81.1735H80.4168V83.3724H78.2865V81.1735ZM78.2865 47.7503H80.4168V49.9492H78.2865V47.7503ZM78.2865 114.597H80.4168V116.796H78.2865V114.597ZM78.2865 31.0387H80.4168V33.2376H78.2865V31.0387ZM78.2865 97.8851H80.4168V100.084H78.2865V97.8851ZM78.2865 64.4619H80.4168V66.6608H78.2865V64.4619ZM78.2865 131.308H80.4168V133.507H78.2865V131.308ZM78.2865 22.6829H80.4168V24.8818H78.2865V22.6829ZM78.2865 89.5293H80.4168V91.7282H78.2865V89.5293ZM78.2865 56.1061H80.4168V58.305H78.2865V56.1061ZM78.2865 122.952H80.4168V125.151H78.2865V122.952ZM78.2865 39.3945H80.4168V41.5934H78.2865V39.3945ZM78.2865 106.241H80.4168V108.44H78.2865V106.241ZM78.2865 72.8177H80.4168V75.0166H78.2865V72.8177ZM78.2865 139.664H80.4168V141.863H78.2865V139.664ZM44.2026 14.3271H46.3328V16.526H44.2026V14.3271ZM44.2026 81.1735H46.3328V83.3724H44.2026V81.1735ZM44.2026 47.7503H46.3328V49.9492H44.2026V47.7503ZM44.2026 114.597H46.3328V116.796H44.2026V114.597ZM44.2026 31.0387H46.3328V33.2376H44.2026V31.0387ZM44.2026 97.8851H46.3328V100.084H44.2026V97.8851ZM44.2026 64.4619H46.3328V66.6608H44.2026V64.4619ZM44.2026 131.308H46.3328V133.507H44.2026V131.308ZM44.2026 22.6829H46.3328V24.8818H44.2026V22.6829ZM44.2026 89.5293H46.3328V91.7282H44.2026V89.5293ZM44.2026 56.1061H46.3328V58.305H44.2026V56.1061ZM44.2026 122.952H46.3328V125.151H44.2026V122.952ZM44.2026 39.3945H46.3328V41.5934H44.2026V39.3945ZM44.2026 106.241H46.3328V108.44H44.2026V106.241ZM44.2026 72.8177H46.3328V75.0166H44.2026V72.8177ZM44.2026 139.664H46.3328V141.863H44.2026V139.664ZM111.305 14.3271H113.436V16.526H111.305V14.3271ZM111.305 81.1735H113.436V83.3724H111.305V81.1735ZM111.305 47.7503H113.436V49.9492H111.305V47.7503ZM111.305 114.597H113.436V116.796H111.305V114.597ZM111.305 31.0387H113.436V33.2376H111.305V31.0387ZM111.305 97.8851H113.436V100.084H111.305V97.8851ZM111.305 64.4619H113.436V66.6608H111.305V64.4619ZM111.305 131.308H113.436V133.507H111.305V131.308ZM111.305 22.6829H113.436V24.8818H111.305V22.6829ZM111.305 89.5293H113.436V91.7282H111.305V89.5293ZM111.305 56.1061H113.436V58.305H111.305V56.1061ZM111.305 122.952H113.436V125.151H111.305V122.952ZM111.305 39.3945H113.436V41.5934H111.305V39.3945ZM111.305 106.241H113.436V108.44H111.305V106.241ZM111.305 72.8177H113.436V75.0166H111.305V72.8177ZM111.305 139.664H113.436V141.863H111.305V139.664ZM28.2257 14.3271H30.3559V16.526H28.2257V14.3271ZM28.2257 81.1735H30.3559V83.3724H28.2257V81.1735ZM28.2257 47.7503H30.3559V49.9492H28.2257V47.7503ZM28.2257 114.597H30.3559V116.796H28.2257V114.597ZM28.2257 31.0387H30.3559V33.2376H28.2257V31.0387ZM28.2257 97.8851H30.3559V100.084H28.2257V97.8851ZM28.2257 64.4619H30.3559V66.6608H28.2257V64.4619ZM28.2257 131.308H30.3559V133.507H28.2257V131.308ZM28.2257 22.6829H30.3559V24.8818H28.2257V22.6829ZM28.2257 89.5293H30.3559V91.7282H28.2257V89.5293ZM28.2257 56.1061H30.3559V58.305H28.2257V56.1061ZM28.2257 122.952H30.3559V125.151H28.2257V122.952ZM28.2257 39.3945H30.3559V41.5934H28.2257V39.3945ZM28.2257 106.241H30.3559V108.44H28.2257V106.241ZM28.2257 72.8177H30.3559V75.0166H28.2257V72.8177ZM28.2257 139.664H30.3559V141.863H28.2257V139.664ZM95.3285 14.3271H97.4588V16.526H95.3285V14.3271ZM95.3285 81.1735H97.4588V83.3724H95.3285V81.1735ZM95.3285 47.7503H97.4588V49.9492H95.3285V47.7503ZM95.3285 114.597H97.4588V116.796H95.3285V114.597ZM95.3285 31.0387H97.4588V33.2376H95.3285V31.0387ZM95.3285 97.8851H97.4588V100.084H95.3285V97.8851ZM95.3285 64.4619H97.4588V66.6608H95.3285V64.4619ZM95.3285 131.308H97.4588V133.507H95.3285V131.308ZM95.3285 22.6829H97.4588V24.8818H95.3285V22.6829ZM95.3285 89.5293H97.4588V91.7282H95.3285V89.5293ZM95.3285 56.1061H97.4588V58.305H95.3285V56.1061ZM95.3285 122.952H97.4588V125.151H95.3285V122.952ZM95.3285 39.3945H97.4588V41.5934H95.3285V39.3945ZM95.3285 106.241H97.4588V108.44H95.3285V106.241ZM95.3285 72.8177H97.4588V75.0166H95.3285V72.8177ZM95.3285 139.664H97.4588V141.863H95.3285V139.664ZM61.2445 14.3271H63.3748V16.526H61.2445V14.3271ZM61.2445 81.1735H63.3748V83.3724H61.2445V81.1735ZM61.2445 47.7503H63.3748V49.9492H61.2445V47.7503ZM61.2445 114.597H63.3748V116.796H61.2445V114.597ZM61.2445 31.0387H63.3748V33.2376H61.2445V31.0387ZM61.2445 97.8851H63.3748V100.084H61.2445V97.8851ZM61.2445 64.4619H63.3748V66.6608H61.2445V64.4619ZM61.2445 131.308H63.3748V133.507H61.2445V131.308ZM61.2445 22.6829H63.3748V24.8818H61.2445V22.6829ZM61.2445 89.5293H63.3748V91.7282H61.2445V89.5293ZM61.2445 56.1061H63.3748V58.305H61.2445V56.1061ZM61.2445 122.952H63.3748V125.151H61.2445V122.952ZM61.2445 39.3945H63.3748V41.5934H61.2445V39.3945ZM61.2445 106.241H63.3748V108.44H61.2445V106.241ZM61.2445 72.8177H63.3748V75.0166H61.2445V72.8177ZM61.2445 139.664H63.3748V141.863H61.2445V139.664ZM128.347 14.3271H130.478V16.526H128.347V14.3271ZM128.347 81.1735H130.478V83.3724H128.347V81.1735ZM128.347 47.7503H130.478V49.9492H128.347V47.7503ZM128.347 114.597H130.478V116.796H128.347V114.597ZM128.347 31.0387H130.478V33.2376H128.347V31.0387ZM128.347 97.8851H130.478V100.084H128.347V97.8851ZM128.347 64.4619H130.478V66.6608H128.347V64.4619ZM128.347 131.308H130.478V133.507H128.347V131.308ZM128.347 22.6829H130.478V24.8818H128.347V22.6829ZM128.347 89.5293H130.478V91.7282H128.347V89.5293ZM128.347 56.1061H130.478V58.305H128.347V56.1061ZM128.347 122.952H130.478V125.151H128.347V122.952ZM128.347 39.3945H130.478V41.5934H128.347V39.3945ZM128.347 106.241H130.478V108.44H128.347V106.241ZM128.347 72.8177H130.478V75.0166H128.347V72.8177ZM128.347 139.664H130.478V141.863H128.347V139.664Z" fill="#0BCD0F"/>
</g>
</svg>
