<svg width="85" height="84" viewBox="0 0 85 84" fill="none" xmlns="http://www.w3.org/2000/svg">
<path fill-rule="evenodd" clip-rule="evenodd" d="M59.6415 15.9126C58.191 15.9126 56.7391 15.9512 55.2902 15.9038C53.0231 15.8296 51.6792 13.9743 52.3913 11.9236C52.8064 10.7279 53.7173 10.1224 54.9517 9.97429C55.9442 9.85512 56.0414 9.76219 56.1922 8.75583C56.4657 6.93055 57.4596 6.05487 59.2992 6.008C60.4348 5.97908 61.5947 5.97373 62.3353 7.00687C62.696 7.51005 62.9451 8.14339 63.0694 8.75369C63.2646 9.71212 63.3364 9.8586 64.3238 9.97295C65.7205 10.1347 66.8031 11.0768 67.0004 12.3025C67.238 13.7786 66.6544 15.0728 65.4131 15.588C64.8946 15.8036 64.2925 15.8834 63.7247 15.9019C62.3647 15.9453 61.0026 15.9158 59.6415 15.9158V15.9126ZM59.5922 13.905V13.9071C61.0181 13.9071 62.444 13.9071 63.8699 13.9071C63.9146 13.9071 63.9591 13.9071 64.0035 13.9042C64.7049 13.8559 65.0636 13.5424 65.0786 12.9653C65.0933 12.3882 64.7529 12.0374 64.0844 11.9407C62.1127 11.6563 61.3971 10.9531 61.1301 8.94462C61.0508 8.34959 60.7406 8.05716 60.198 7.99851C59.8033 7.95566 59.3962 7.97093 58.9998 8.01163C58.4893 8.06412 58.2282 8.38574 58.1559 8.89374C57.8608 10.9675 57.2201 11.6145 55.1049 11.9455C54.6522 12.0165 54.363 12.2171 54.2567 12.6611C54.085 13.3779 54.4916 13.8843 55.3146 13.8983C56.7402 13.9224 58.1663 13.905 59.5922 13.905Z" fill="black"/>
<path fill-rule="evenodd" clip-rule="evenodd" d="M26.8648 15.0204V16.9603C25.9041 16.9603 24.9758 16.959 24.0475 16.9609C23.007 16.9627 22.9519 17.0192 22.9495 18.0535C22.9457 19.8233 22.3005 20.6069 20.5581 20.9207C20.1628 20.992 19.9576 21.1711 19.9804 21.5848C19.9914 21.7846 19.9927 21.9865 19.9793 22.1863C19.9421 22.7393 20.2067 22.9321 20.7423 22.9254C22.2804 22.9067 23.8185 22.919 25.3569 22.919C25.5101 22.919 25.6633 22.919 25.8671 22.919V24.8613C25.6949 24.875 25.5056 24.9025 25.3159 24.9028C23.7778 24.9066 22.2397 24.9127 20.7016 24.9028C19.0063 24.8918 18.0122 23.8951 18.0004 22.1887C17.9974 21.7463 18.0095 21.2922 18.1038 20.8631C18.3432 19.7754 19.0749 19.1142 20.1874 19.0106C20.7863 18.9546 21.023 18.7026 20.9681 18.1167C20.9432 17.8521 20.9569 17.5813 20.977 17.3152C21.0704 16.0766 21.955 15.108 23.1924 15.0357C24.3895 14.9655 25.5942 15.0204 26.8648 15.0204Z" fill="black"/>
<path fill-rule="evenodd" clip-rule="evenodd" d="M28.4951 77.377C28.7912 77.6986 29.2187 77.7297 29.5292 77.7288C36.45 77.7054 43.3711 77.7066 50.2922 77.7273C50.5765 77.7282 50.9968 77.7101 51.3006 77.4156C51.6098 77.1161 51.6355 76.6919 51.635 76.3926C51.6224 68.7615 51.5759 57.3159 51.4955 42.0562C51.4955 41.0656 51.497 40.0741 51.4985 39.0821C51.5018 36.9003 51.5051 34.716 51.4925 32.5333C51.4816 30.6579 51.4758 28.781 51.4701 26.9033L51.47 26.9023L51.47 26.9014V26.9012C51.4503 20.508 51.4306 14.1038 51.2096 7.70433C51.1873 7.05707 51.0954 6.42437 50.6526 5.99939C50.2117 5.5763 49.5745 5.50529 48.9208 5.50349C47.2315 5.49884 45.5418 5.49984 43.8532 5.50084C43.1426 5.50126 42.4322 5.50169 41.7221 5.50169C40.6801 5.50169 39.638 5.50151 38.5958 5.50133L38.5956 5.50133C36.0642 5.50089 33.5324 5.50046 31.0008 5.50259C30.3117 5.50317 29.643 5.56124 29.1884 5.99195C28.7297 6.42644 28.6465 7.08898 28.6215 7.76542L28.5935 8.49066C28.5597 9.34684 28.5255 10.2132 28.5158 11.0777C28.2998 30.2624 28.2585 49.4481 28.2173 68.6304C28.2117 71.2137 28.2062 73.7971 28.2002 76.3802C28.1996 76.6533 28.2129 77.0706 28.4951 77.377ZM48.0926 38.4956C48.0907 39.5213 48.0888 40.5469 48.0888 41.5725C48.1518 55.5208 48.1889 66.0779 48.1999 73.2437C48.2007 73.8195 48.1077 74.0028 47.5449 73.9999C42.135 73.9729 37.7639 73.9729 32.3539 73.9999C31.7901 74.0028 31.6981 73.818 31.7 73.2429C31.7203 67.1955 31.7339 61.2008 31.7474 55.2269C31.7784 41.4784 31.8092 27.84 31.9225 13.9228C31.9294 13.0794 31.9544 12.3906 31.9796 11.6961C32.003 11.0505 32.0266 10.4001 32.036 9.61619C32.0417 9.13898 32.2012 9.00453 32.6136 9.00539C37.8506 9.01659 42.0488 9.02234 47.2855 8.99993C47.8513 8.99758 47.854 9.32029 47.8573 9.71096C47.8577 9.75049 47.858 9.79072 47.8589 9.83137C47.9896 15.6216 48.021 21.0696 48.0534 26.705C48.063 28.3605 48.0726 30.0323 48.0849 31.7336C48.1011 33.9875 48.0969 36.2416 48.0926 38.4956Z" fill="#1C1E26"/>
<path fill-rule="evenodd" clip-rule="evenodd" d="M47.0493 41.5802C47.0493 38.3878 47.0666 35.1951 47.0459 32.0027C46.9985 24.7092 46.996 17.9745 46.8479 10.6822C46.839 10.2515 46.8913 9.8703 46.3453 9.87282C41.7561 9.89463 38.077 9.88904 33.4875 9.87813C33.1261 9.87729 32.9863 10.0082 32.9813 10.4727C32.9642 12.0567 32.8934 13.0809 32.8818 14.6649C32.7394 34.0991 32.7457 52.9747 32.6868 72.4094C32.6852 72.9693 32.7658 73.1491 33.2599 73.1463C38.0009 73.12 41.8316 73.12 46.5727 73.1463C47.0659 73.1491 47.1474 72.9707 47.1467 72.4102C47.137 65.4348 47.1045 55.1581 47.0493 41.5802Z" fill="#DFE4EB"/>
<path fill-rule="evenodd" clip-rule="evenodd" d="M40.2758 13.5916C38.5084 13.56 37.0663 13.6979 35.6286 13.9281C35.2109 13.995 35.1266 14.218 35.1933 14.6068C35.692 17.5128 36.169 20.4265 36.9661 23.2592C37.4119 24.8434 37.8458 26.4511 38.8395 27.7858C39.4879 28.6566 40.268 28.6608 40.9252 27.7823C41.6407 26.8259 42.0625 25.7081 42.4288 24.5678C43.4806 21.2918 43.9883 17.8863 44.4969 14.4817C44.5559 14.0872 44.3572 13.984 44.0402 13.9257C42.69 13.6768 41.3303 13.5829 40.2758 13.5916Z" fill="white"/>
<path fill-rule="evenodd" clip-rule="evenodd" d="M39.6983 12.03C41.7784 12.0906 43.807 12.2474 45.7791 12.8434C46.1986 12.97 46.4379 13.1614 46.3679 13.6509C45.7594 17.9062 45.0514 22.1418 43.7584 26.2536C43.2726 27.7983 42.7211 29.3254 41.6839 30.6124C41.3687 31.0035 41.0254 31.3817 40.5362 31.5495C39.9577 31.7478 39.3988 31.7014 38.8891 31.3144C37.7178 30.4248 37.1632 29.1343 36.6463 27.832C35.4009 24.695 34.7525 21.4023 34.1409 18.0995C33.8724 16.6501 33.7269 15.1838 33.4822 13.7322C33.3937 13.2069 33.5668 12.9503 34.0491 12.7962C35.4709 12.3426 36.9333 12.1613 38.4162 12.0976C38.8559 12.0786 39.2954 12.0514 39.6983 12.03ZM40.3079 13.384C38.4497 13.3529 36.9337 13.4883 35.4222 13.7145C34.983 13.7802 34.8944 13.9993 34.9645 14.3813C35.4888 17.2362 35.9902 20.0986 36.8283 22.8815C37.297 24.4378 37.7531 26.0173 38.7979 27.3285C39.4796 28.184 40.2997 28.1881 40.9907 27.3251C41.7429 26.3855 42.1864 25.2873 42.5714 24.1671C43.6772 20.9487 44.211 17.6031 44.7457 14.2584C44.8078 13.8708 44.5989 13.7694 44.2656 13.7121C42.8461 13.4676 41.4165 13.3753 40.3079 13.384Z" fill="#1C1E26" stroke="#1C1E26"/>
</svg>
