<svg width="164" height="278" viewBox="0 0 164 278" fill="none" xmlns="http://www.w3.org/2000/svg">
<mask id="mask0_21921_30789" style="mask-type:alpha" maskUnits="userSpaceOnUse" x="0" y="0" width="173" height="278">
<path d="M0.277405 39.807L172.5 39.8071C172.5 39.8071 172.5 -82.5001 172.5 102.5C172.5 287.5 69.0909 277.807 0.277405 277.807L0.277405 39.807Z" fill="#D9D9D9"/>
</mask>
<g mask="url(#mask0_21921_30789)">
<path opacity="0.4" fill-rule="evenodd" clip-rule="evenodd" d="M-287.761 303.465L-290.59 306.293L-53.7089 543.174L-50.8805 540.345L-287.761 303.465ZM-225.536 241.239L-228.364 244.068L8.5165 480.948L11.3449 478.12L-225.536 241.239ZM23.3657 -7.66244L20.5373 -4.83401L257.418 232.047L260.247 229.218L23.3657 -7.66244ZM144.988 -129.285L147.817 -132.113L384.697 104.768L381.869 107.596L144.988 -129.285ZM-101.085 116.788L-103.913 119.617L132.967 356.498L135.796 353.669L-101.085 116.788ZM51.65 -35.9467L54.4784 -38.7751L291.359 198.106L288.531 200.934L51.65 -35.9467ZM-194.423 210.126L-197.252 212.955L39.6292 449.836L42.4576 447.007L-194.423 210.126ZM176.101 -160.397L178.929 -163.226L415.81 73.6548L412.982 76.4833L176.101 -160.397ZM-69.9723 85.6757L-72.8008 88.5041L164.08 325.385L166.908 322.556L-69.9723 85.6757ZM36.0937 -20.3904L38.9221 -23.2188L275.803 213.662L272.974 216.49L36.0937 -20.3904ZM-209.979 225.683L-212.808 228.511L24.0729 465.392L26.9013 462.564L-209.979 225.683ZM160.544 -144.841L163.373 -147.67L400.254 89.2112L397.425 92.0396L160.544 -144.841ZM-85.5287 101.232L-88.3571 104.06L148.524 340.941L151.352 338.113L-85.5287 101.232ZM67.2064 -51.5031L70.0348 -54.3315L306.916 182.549L304.087 185.378L67.2064 -51.5031ZM-178.867 194.57L-181.695 197.399L55.1855 434.279L58.014 431.451L-178.867 194.57ZM191.657 -175.954L194.486 -178.782L431.366 58.0985L428.538 60.9269L191.657 -175.954ZM-54.416 70.1193L-57.2444 72.9477L179.636 309.829L182.465 307L-54.416 70.1193ZM28.3155 -12.6122L31.1439 -15.4406L268.025 221.44L265.196 224.269L28.3155 -12.6122ZM-217.758 233.461L-220.586 236.289L16.2947 473.17L19.1231 470.342L-217.758 233.461ZM152.766 -137.063L155.595 -139.891L392.475 96.9894L389.647 99.8178L152.766 -137.063ZM-93.3069 109.01L-96.1353 111.839L140.745 348.719L143.574 345.891L-93.3069 109.01ZM59.4282 -43.7249L62.2566 -46.5533L299.137 190.327L296.309 193.156L59.4282 -43.7249ZM-186.645 202.348L-189.473 205.177L47.4074 442.057L50.2358 439.229L-186.645 202.348ZM183.879 -168.176L186.707 -171.004L423.588 65.8767L420.76 68.7051L183.879 -168.176ZM-62.1942 77.8975L-65.0226 80.7259L171.858 317.607L174.687 314.778L-62.1942 77.8975ZM43.8718 -28.1685L46.7003 -30.997L283.581 205.884L280.753 208.712L43.8718 -28.1685ZM-202.201 217.905L-205.03 220.733L31.851 457.614L34.6795 454.785L-202.201 217.905ZM168.323 -152.619L171.151 -155.448L408.032 81.433L405.203 84.2614L168.323 -152.619ZM-77.7505 93.4538L-80.579 96.2823L156.302 333.163L159.13 330.335L-77.7505 93.4538ZM74.9845 -59.2812L77.813 -62.1097L314.694 174.771L311.865 177.6L74.9845 -59.2812ZM-171.089 186.792L-173.917 189.62L62.9637 426.501L65.7922 423.673L-171.089 186.792ZM199.435 -183.732L202.264 -186.56L439.145 50.3203L436.316 53.1487L199.435 -183.732ZM-46.6378 62.3411L-49.4663 65.1696L187.415 302.05L190.243 299.222L-46.6378 62.3411ZM-41.6881 57.3914L-38.8597 54.563L198.021 291.444L195.193 294.272L-41.6881 57.3914ZM82.7627 -67.0594L85.5911 -69.8878L322.472 166.993L319.643 169.821L82.7627 -67.0594ZM-163.31 179.014L-166.139 181.842L70.7419 418.723L73.5703 415.895L-163.31 179.014ZM-10.5754 26.2787L-7.74695 23.4503L229.134 260.331L226.305 263.159L-10.5754 26.2787ZM-256.649 272.352L-259.477 275.18L-22.5962 512.061L-19.7678 509.233L-256.649 272.352ZM113.875 -98.1721L116.704 -101.001L353.585 135.88L350.756 138.709L113.875 -98.1721ZM-132.198 147.901L-135.026 150.729L101.855 387.61L104.683 384.782L-132.198 147.901ZM-26.1317 41.835L-23.3033 39.0066L213.577 275.887L210.749 278.716L-26.1317 41.835ZM-272.205 287.908L-275.033 290.737L-38.1525 527.617L-35.3241 524.789L-272.205 287.908ZM98.3191 -82.6158L101.147 -85.4442L338.028 151.437L335.2 154.265L98.3191 -82.6158ZM-147.754 163.457L-150.583 166.286L86.2982 403.167L89.1267 400.338L-147.754 163.457ZM4.98097 10.7223L7.8094 7.89391L244.69 244.775L241.862 247.603L4.98097 10.7223ZM-241.092 256.795L-243.921 259.624L-7.03985 496.505L-4.21142 493.676L-241.092 256.795ZM129.432 -113.728L132.26 -116.557L369.141 120.324L366.313 123.152L129.432 -113.728ZM-116.641 132.345L-119.47 135.173L117.411 372.054L120.239 369.225L-116.641 132.345ZM-33.9099 49.6132L-31.0815 46.7848L205.799 283.666L202.971 286.494L-33.9099 49.6132ZM-279.983 295.686L-282.811 298.515L-45.9307 535.396L-43.1023 532.567L-279.983 295.686ZM90.5409 -74.8376L93.3693 -77.666L330.25 159.215L327.422 162.043L90.5409 -74.8376ZM-155.532 171.236L-158.361 174.064L78.5201 410.945L81.3485 408.116L-155.532 171.236ZM-2.79721 18.5005L0.0312214 15.6721L236.912 252.553L234.084 255.381L-2.79721 18.5005ZM-248.87 264.574L-251.699 267.402L-14.818 504.283L-11.9896 501.454L-248.87 264.574ZM121.654 -105.95L124.482 -108.779L361.363 128.102L358.534 130.93L121.654 -105.95ZM-124.42 140.123L-127.248 142.951L109.633 379.832L112.461 377.004L-124.42 140.123ZM-18.3536 34.0569L-15.5251 31.2284L221.356 268.109L218.527 270.938L-18.3536 34.0569ZM-264.427 280.13L-267.255 282.958L-30.3744 519.839L-27.5459 517.011L-264.427 280.13ZM106.097 -90.3939L108.926 -93.2224L345.806 143.658L342.978 146.487L106.097 -90.3939ZM-139.976 155.679L-142.804 158.508L94.0764 395.388L96.9048 392.56L-139.976 155.679ZM12.7591 2.94416L15.5876 0.115738L252.468 236.997L249.64 239.825L12.7591 2.94416ZM-233.314 249.017L-236.142 251.846L0.738328 488.727L3.56676 485.898L-233.314 249.017ZM137.21 -121.507L140.038 -124.335L376.919 112.546L374.091 115.374L137.21 -121.507ZM-108.863 124.567L-111.692 127.395L125.189 364.276L128.018 361.447L-108.863 124.567Z" fill="#617BFF"/>
</g>
</svg>
