<svg width="263" height="343" viewBox="0 0 263 343" fill="none" xmlns="http://www.w3.org/2000/svg">
<mask id="mask0_21921_30717" style="mask-type:alpha" maskUnits="userSpaceOnUse" x="0" y="0" width="264" height="343">
<path d="M0.000366211 0H212.533L263 49V343H131.5L0.000366211 204.647V0Z" fill="#D9D9D9"/>
</mask>
<g mask="url(#mask0_21921_30717)">
<path opacity="0.4" fill-rule="evenodd" clip-rule="evenodd" d="M-287.761 263.465L-290.59 266.293L-53.7089 503.174L-50.8805 500.346L-287.761 263.465ZM-225.536 201.239L-228.364 204.068L8.5165 440.949L11.3449 438.12L-225.536 201.239ZM23.3657 -47.6622L20.5373 -44.8338L257.418 192.047L260.247 189.219L23.3657 -47.6622ZM144.988 -169.285L147.817 -172.113L384.697 64.7678L381.869 67.5962L144.988 -169.285ZM-101.085 76.7886L-103.913 79.617L132.967 316.498L135.796 313.669L-101.085 76.7886ZM51.65 -75.9465L54.4784 -78.7749L291.359 158.106L288.531 160.934L51.65 -75.9465ZM-194.423 170.127L-197.252 172.955L39.6292 409.836L42.4576 407.007L-194.423 170.127ZM176.101 -200.397L178.929 -203.226L415.81 33.6551L412.982 36.4835L176.101 -200.397ZM-69.9723 45.6759L-72.8008 48.5043L164.08 285.385L166.908 282.557L-69.9723 45.6759ZM36.0937 -60.3901L38.9221 -63.2185L275.803 173.662L272.974 176.491L36.0937 -60.3901ZM-209.979 185.683L-212.808 188.511L24.0729 425.392L26.9013 422.564L-209.979 185.683ZM160.544 -184.841L163.373 -187.669L400.254 49.2114L397.425 52.0399L160.544 -184.841ZM-85.5287 61.2322L-88.3571 64.0607L148.524 300.941L151.352 298.113L-85.5287 61.2322ZM67.2064 -91.5028L70.0348 -94.3312L306.916 142.55L304.087 145.378L67.2064 -91.5028ZM-178.867 154.57L-181.695 157.399L55.1855 394.28L58.014 391.451L-178.867 154.57ZM191.657 -215.954L194.486 -218.782L431.366 18.0987L428.538 20.9272L191.657 -215.954ZM-54.416 30.1196L-57.2444 32.948L179.636 269.829L182.465 267L-54.416 30.1196ZM28.3155 -52.6119L31.1439 -55.4404L268.025 181.44L265.196 184.269L28.3155 -52.6119ZM-217.758 193.461L-220.586 196.29L16.2947 433.17L19.1231 430.342L-217.758 193.461ZM152.766 -177.063L155.595 -179.891L392.475 56.9896L389.647 59.818L152.766 -177.063ZM-93.3069 69.0104L-96.1353 71.8389L140.745 308.72L143.574 305.891L-93.3069 69.0104ZM59.4282 -83.7246L62.2566 -86.5531L299.137 150.328L296.309 153.156L59.4282 -83.7246ZM-186.645 162.349L-189.473 165.177L47.4074 402.058L50.2358 399.229L-186.645 162.349ZM183.879 -208.175L186.707 -211.004L423.588 25.8769L420.76 28.7053L183.879 -208.175ZM-62.1942 37.8977L-65.0226 40.7262L171.858 277.607L174.687 274.778L-62.1942 37.8977ZM43.8718 -68.1683L46.7003 -70.9967L283.581 165.884L280.753 168.712L43.8718 -68.1683ZM-202.201 177.905L-205.03 180.733L31.851 417.614L34.6795 414.786L-202.201 177.905ZM168.323 -192.619L171.151 -195.448L408.032 41.4333L405.203 44.2617L168.323 -192.619ZM-77.7505 53.4541L-80.579 56.2825L156.302 293.163L159.13 290.335L-77.7505 53.4541ZM74.9845 -99.281L77.813 -102.109L314.694 134.771L311.865 137.6L74.9845 -99.281ZM-171.089 146.792L-173.917 149.621L62.9637 386.501L65.7922 383.673L-171.089 146.792ZM199.435 -223.732L202.264 -226.56L439.145 10.3206L436.316 13.149L199.435 -223.732ZM-46.6378 22.3414L-49.4663 25.1698L187.415 262.051L190.243 259.222L-46.6378 22.3414ZM-41.6881 17.3916L-38.8597 14.5632L198.021 251.444L195.193 254.272L-41.6881 17.3916ZM82.7627 -107.059L85.5911 -109.888L322.472 126.993L319.643 129.822L82.7627 -107.059ZM-163.31 139.014L-166.139 141.842L70.7419 378.723L73.5703 375.895L-163.31 139.014ZM-10.5754 -13.7211L-7.74695 -16.5495L229.134 220.331L226.305 223.16L-10.5754 -13.7211ZM-256.649 232.352L-259.477 235.181L-22.5962 472.061L-19.7678 469.233L-256.649 232.352ZM113.875 -138.172L116.704 -141L353.585 95.8805L350.756 98.7089L113.875 -138.172ZM-132.198 107.901L-135.026 110.73L101.855 347.61L104.683 344.782L-132.198 107.901ZM-26.1317 1.83528L-23.3033 -0.993146L213.577 235.888L210.749 238.716L-26.1317 1.83528ZM-272.205 247.908L-275.033 250.737L-38.1525 487.618L-35.3241 484.789L-272.205 247.908ZM98.3191 -122.616L101.147 -125.444L338.028 111.437L335.2 114.265L98.3191 -122.616ZM-147.754 123.458L-150.583 126.286L86.2982 363.167L89.1267 360.338L-147.754 123.458ZM4.98097 -29.2774L7.8094 -32.1058L244.69 204.775L241.862 207.603L4.98097 -29.2774ZM-241.092 216.796L-243.921 219.624L-7.03985 456.505L-4.21142 453.677L-241.092 216.796ZM129.432 -153.728L132.26 -156.557L369.141 80.3241L366.313 83.1526L129.432 -153.728ZM-116.641 92.3449L-119.47 95.1734L117.411 332.054L120.239 329.226L-116.641 92.3449ZM-33.9099 9.61346L-31.0815 6.78503L205.799 243.666L202.971 246.494L-33.9099 9.61346ZM-279.983 255.687L-282.811 258.515L-45.9307 495.396L-43.1023 492.567L-279.983 255.687ZM90.5409 -114.837L93.3693 -117.666L330.25 119.215L327.422 122.043L90.5409 -114.837ZM-155.532 131.236L-158.361 134.064L78.5201 370.945L81.3485 368.117L-155.532 131.236ZM-2.79721 -21.4992L0.0312214 -24.3277L236.912 212.553L234.084 215.382L-2.79721 -21.4992ZM-248.87 224.574L-251.699 227.402L-14.818 464.283L-11.9896 461.455L-248.87 224.574ZM121.654 -145.95L124.482 -148.778L361.363 88.1023L358.534 90.9307L121.654 -145.95ZM-124.42 100.123L-127.248 102.952L109.633 339.832L112.461 337.004L-124.42 100.123ZM-18.3536 -5.94289L-15.5251 -8.77132L221.356 228.109L218.527 230.938L-18.3536 -5.94289ZM-264.427 240.13L-267.255 242.959L-30.3744 479.839L-27.5459 477.011L-264.427 240.13ZM106.097 -130.394L108.926 -133.222L345.806 103.659L342.978 106.487L106.097 -130.394ZM-139.976 115.679L-142.804 118.508L94.0764 355.389L96.9048 352.56L-139.976 115.679ZM12.7591 -37.0556L15.5876 -39.884L252.468 196.997L249.64 199.825L12.7591 -37.0556ZM-233.314 209.018L-236.142 211.846L0.738328 448.727L3.56676 445.898L-233.314 209.018ZM137.21 -161.506L140.038 -164.335L376.919 72.546L374.091 75.3744L137.21 -161.506ZM-108.863 84.5668L-111.692 87.3952L125.189 324.276L128.018 321.448L-108.863 84.5668Z" fill="#617BFF"/>
</g>
</svg>
