<svg width="43" height="30" viewBox="0 0 43 30" fill="none" xmlns="http://www.w3.org/2000/svg">
<path fill-rule="evenodd" clip-rule="evenodd" d="M24.9208 8.02979C27.8801 8.02979 30.2157 9.02323 31.9278 11.0101C33.64 12.9971 34.496 15.6603 34.496 19C34.496 22.4243 33.64 25.1087 31.9278 27.0533C30.2157 28.998 27.8801 29.9703 24.9208 29.9703C23.4835 29.9703 22.0884 29.6004 20.7356 28.8605C19.3829 28.1207 18.2203 26.8842 17.248 25.151C16.2757 26.8842 15.1131 28.1207 13.7603 28.8605C12.4076 29.6004 11.0125 29.9703 9.57518 29.9703C6.61595 29.9703 4.2803 28.998 2.56818 27.0533C0.85605 25.1087 0 22.4243 0 19C0 15.6603 0.85605 12.9971 2.56818 11.0101C4.2803 9.02323 6.61595 8.02979 9.57518 8.02979C11.0125 8.02979 12.4076 8.41025 13.7603 9.1712C15.1131 9.93214 16.2757 11.1792 17.248 12.9125C18.2203 11.1792 19.3829 9.93214 20.7356 9.1712C22.0884 8.41025 23.4835 8.02979 24.9208 8.02979ZM9.95564 24.39C11.0125 24.39 12.006 23.9567 12.936 23.0901C13.866 22.2234 14.6058 20.839 15.1554 18.9366C14.6058 17.1188 13.866 15.7766 12.936 14.91C12.006 14.0433 11.0125 13.61 9.95564 13.61C8.6874 13.61 7.6834 14.1173 6.94359 15.1319C6.20378 16.1465 5.83388 17.4359 5.83388 19C5.83388 20.5642 6.19321 21.8535 6.91188 22.8681C7.63055 23.8827 8.64513 24.39 9.95564 24.39ZM24.5404 24.39C25.8509 24.39 26.8654 23.8827 27.5841 22.8681C28.3028 21.8535 28.6621 20.5642 28.6621 19C28.6621 17.4359 28.2922 16.1465 27.5524 15.1319C26.8126 14.1173 25.8086 13.61 24.5404 13.61C23.4835 13.61 22.49 14.0433 21.56 14.91C20.63 15.7766 19.8902 17.1188 19.3406 18.9366C19.8902 20.839 20.63 22.2234 21.56 23.0901C22.49 23.9567 23.4835 24.39 24.5404 24.39Z" fill="#E9ECF0"/>
</svg>
