<svg width="85" height="84" viewBox="0 0 85 84" fill="none" xmlns="http://www.w3.org/2000/svg">
<path fill-rule="evenodd" clip-rule="evenodd" d="M31.0881 49.6181C31.0789 49.7121 31.07 49.8065 31.061 49.9005C31.6784 50.2932 32.3157 50.6587 32.9101 51.0839C35.2464 52.7552 37.0906 54.8356 37.2722 57.8086C37.5189 61.8542 39.3992 64.9697 42.4425 67.4265C45.1477 69.6106 48.1886 70.0925 51.4097 68.5215C53.1098 67.6918 54.4547 66.4068 55.6616 64.9947C59.3346 60.6968 61.2176 55.5699 62.4472 50.1592C62.4977 49.9384 62.2602 49.5569 62.0471 49.3901C61.2876 48.7956 60.3415 48.382 59.7238 47.6765C58.7945 46.6144 58.0824 45.3639 57.2776 44.1931C55.4639 46.226 53.6489 48.4825 52.5586 51.2234C52.3198 51.824 51.8997 52.2807 51.3105 52.1836C50.862 52.1098 50.3537 51.7088 50.0967 51.3099C49.6008 50.5411 49.2638 49.6704 48.8355 48.7891C46.8543 50.5271 45.1721 52.4109 43.947 54.6592C43.4215 55.6232 43.2156 56.6668 43.4253 57.7945C43.716 59.3591 44.3303 60.705 45.5729 61.7592C46.2373 62.3229 46.2878 63.1289 45.8083 63.6509C45.356 64.1442 44.6055 64.1835 44.0183 63.7449C41.1284 61.5859 40.008 57.0439 41.554 53.8046C42.474 51.8766 43.7767 50.2334 45.2829 48.7355C45.6072 48.4128 45.9171 48.0757 46.2339 47.7452C46.1906 47.6761 46.1477 47.6071 46.1048 47.538C45.2589 47.6351 44.3766 47.6115 43.576 47.8556C42.1923 48.2777 40.8494 48.8411 39.5104 49.3952C38.8916 49.6509 38.3673 49.7733 37.7475 49.3511C37.3367 49.0712 36.7735 48.7936 36.3137 48.8425C34.5638 49.0288 32.8287 49.3484 31.0881 49.6181Z" fill="#FEFFED"/>
<path fill-rule="evenodd" clip-rule="evenodd" d="M51.2902 47.9124C51.6983 47.3049 52.0531 46.76 52.4241 46.2264C54.8483 42.7397 57.8823 39.7988 60.8779 36.8197C62.5361 35.1707 64.1147 33.4417 65.7644 31.7834C66.4926 31.0515 66.6467 30.2441 66.3814 29.2948C65.8152 27.2674 65.275 25.2321 64.6878 23.2104C64.333 21.9887 64.0169 21.8359 62.9078 22.0512C62.4037 23.7693 62.0581 25.4546 61.4205 27.0223C59.7262 31.1842 56.6084 34.1592 52.9605 36.6454C51.9938 37.3044 50.9889 37.9143 50.0696 38.6328C49.7329 38.896 49.3808 39.4177 49.3973 39.8067C49.5147 42.5855 50.2302 45.2402 51.2902 47.9124Z" fill="#FEFFED"/>
<path fill-rule="evenodd" clip-rule="evenodd" d="M40.1041 29.0253C40.0767 29.108 40.0492 29.1904 40.0218 29.2731C40.3732 29.4522 40.7747 29.8443 41.0685 29.7763C43.2861 29.2618 45.4814 28.6523 47.6859 28.0811C49.71 27.5567 51.6074 26.8563 52.8106 24.9656C53.2214 24.3199 53.9499 24.2392 54.5429 24.6265C55.1452 25.0196 55.2794 25.7276 54.847 26.4256C54.0628 27.6914 53.0275 28.7518 51.6482 29.2977C50.0405 29.9335 48.3733 30.4685 46.6852 30.8363C45.702 31.0507 45.2394 31.4455 45.1763 32.402C44.9419 35.9465 44.6989 39.4903 44.4649 43.0349C44.4635 43.0598 44.5394 43.0896 44.5768 43.1152C44.6042 43.0991 44.6396 43.0909 44.6464 43.0725C44.7157 42.8858 44.782 42.6982 44.8458 42.5095C45.8904 39.4227 47.5126 36.7871 50.5298 35.2232C50.9588 35.0006 51.3583 34.7166 51.7533 34.4356C56.5004 31.0589 60.0701 26.9664 60.2218 20.7545C60.2482 19.6756 60.7342 19.2634 61.8447 19.3779C63.7826 19.5779 65.7095 19.8842 67.7597 20.1621C67.3228 19.6134 66.9282 18.9619 66.388 18.4679C64.5355 16.7731 62.1831 16.1198 59.7976 15.8829C56.8227 15.5872 53.814 15.6313 50.8202 15.5192C49.1959 15.4584 47.8634 15.9687 46.898 17.3392C45.8451 18.8337 44.3084 19.5075 42.5465 19.7761C41.2589 19.9727 39.9761 20.2004 38.6587 20.4195C38.682 20.9333 38.7009 21.3483 38.7232 21.8453C40.3632 21.8453 41.9292 21.8344 43.4947 21.8491C44.5541 21.859 45.5473 22.061 46.2202 22.9963C47.4402 24.6928 46.7305 26.7698 44.6427 27.5147C43.1413 28.05 41.6179 28.5241 40.1041 29.0253Z" fill="#FEFFED"/>
<path fill-rule="evenodd" clip-rule="evenodd" d="M17.8629 36.8684C16.9323 39.5495 16.5913 42.3434 16.5503 45.1748C16.5452 45.542 17.1141 45.8361 17.0628 46.1982C17.008 46.5873 17.5817 48.0503 20.1488 48.0503C22.5858 48.0503 23.3661 46.6227 23.3671 46.1982C23.3818 38.7765 25.4759 32.2694 30.9066 26.7686C30.9889 26.6852 29.8144 26.665 30.0081 26.4238C23.3442 27.492 19.9707 30.7972 17.8629 36.8684Z" fill="#DBE5FF"/>
<path fill-rule="evenodd" clip-rule="evenodd" d="M65.0732 50.5377C64.51 52.426 64.0042 54.2893 63.3978 56.1199C62.1332 59.9382 60.29 63.4595 57.6822 66.5453C56.0494 68.4777 54.1774 70.15 51.7902 71.1229C48.4292 72.4926 45.1436 72.2226 42.1164 70.2768C38.44 67.9133 36.0457 64.5578 35.0103 60.292C34.897 59.8261 34.8576 59.3342 34.848 58.8529C34.7937 56.1151 33.281 54.2661 31.0754 52.9343C29.8143 52.173 28.4237 51.6172 27.0706 51.0159C26.457 50.7435 25.9292 50.4474 25.922 49.7008C25.9151 48.9467 26.4203 48.6405 27.0665 48.406C29.8918 47.3804 32.7364 46.4267 35.778 46.343C36.5635 46.3211 37.3823 46.4161 38.1339 46.6342C38.6716 46.7904 39.0955 46.8301 39.5749 46.5505C39.893 46.3648 40.2376 46.171 40.5927 46.1105C41.5931 45.9399 41.8354 45.3762 41.8591 44.4078C41.9383 41.1928 42.1127 37.9799 42.2911 34.7683C42.3423 33.8412 42.5293 32.922 42.6621 31.9409C42.472 31.996 42.3563 32.0069 42.2637 32.0592C39.4839 33.619 37.2842 30.4218 37.3535 28.1417C37.3744 27.4464 37.8425 27.1025 38.4688 26.9009C40.1267 26.3676 41.7842 25.8306 43.4287 25.2576C43.7307 25.1524 43.9706 24.8703 44.239 24.67C43.9099 24.5736 43.5839 24.4078 43.251 24.3938C42.3381 24.3552 41.4181 24.3289 40.5087 24.3989C39.9184 24.4444 39.3134 24.5996 38.7664 24.8276C37.9592 25.164 37.1071 24.9599 36.7437 24.1593C36.0017 22.5246 36.022 20.7772 36.1462 19.0434C36.1918 18.4031 36.7595 18.1518 37.3796 18.0527C39.043 17.7861 40.6978 17.4647 42.3642 17.222C43.4442 17.0648 44.3231 16.6088 44.96 15.7378C46.3897 13.7825 48.308 12.9132 50.7267 13.0068C53.6935 13.1213 56.6819 12.9969 59.6249 13.3093C62.7595 13.6426 65.8186 14.4552 68.2387 16.7103C70.0139 18.3648 70.7154 20.4131 70.4432 22.8073C70.365 23.4958 70.1594 24.0988 69.4079 24.322C68.6683 24.5415 68.2239 24.1224 67.8382 23.5809C67.7771 23.4951 67.6803 23.435 67.4192 23.2015C67.7308 24.3552 67.9971 25.2911 68.2349 26.2343C68.4641 27.1443 68.6312 28.0706 68.8849 28.9734C69.3519 30.6375 68.9442 32.0702 67.7815 33.2997C67.3845 33.7195 67.2678 34.1571 67.3975 34.6941C67.8042 36.3777 68.0853 38.1029 68.6395 39.7369C69.7352 42.967 69.7531 46.2178 69.1505 49.5121C68.9281 50.727 68.4906 51.0104 67.2283 50.8959C66.8591 50.8628 66.4909 50.8084 66.125 50.7472C65.7647 50.6867 65.4075 50.605 65.0732 50.5377ZM64.9672 36.3045C63.5543 37.7132 62.2876 39.1445 60.8415 40.3645C59.6949 41.3316 59.5814 42.3674 60.0786 43.6007C60.3302 44.2239 60.6229 44.8645 61.0412 45.3817C62.4973 47.1808 64.542 47.8655 66.6834 48.2634C67.7798 44.0574 66.044 40.316 64.9672 36.3045ZM51.2902 47.9123C51.6983 47.3049 52.0531 46.76 52.4241 46.2264C54.8483 42.7396 57.8823 39.7988 60.8779 36.8197C62.5361 35.1706 64.1147 33.4416 65.7644 31.7833C66.4926 31.0515 66.6467 30.2441 66.3814 29.2948C65.8151 27.2673 65.275 25.232 64.6878 23.2104C64.333 21.9886 64.0169 21.8358 62.9078 22.0512C62.4036 23.7693 62.0581 25.4545 61.4204 27.0222C59.7262 31.1841 56.6084 34.1591 52.9605 36.6453C51.9937 37.3044 50.9889 37.9142 50.0695 38.6328C49.7329 38.896 49.3808 39.4176 49.3973 39.8067C49.5146 42.5855 50.2302 45.2402 51.2902 47.9123ZM40.1041 29.0254C40.0766 29.1081 40.0491 29.1905 40.0217 29.2732C40.3731 29.4524 40.7746 29.8444 41.0684 29.7764C43.286 29.2619 45.4813 28.6524 47.6858 28.0812C49.7099 27.5569 51.6073 26.8564 52.8105 24.9657C53.2213 24.32 53.9498 24.2393 54.5428 24.6266C55.1451 25.0197 55.2793 25.7277 54.8469 26.4257C54.0627 27.6915 53.0274 28.7519 51.6482 29.2978C50.0404 29.9337 48.3732 30.4686 46.6851 30.8365C45.7019 31.0508 45.2393 31.4456 45.1762 32.4021C44.9418 35.9466 44.6988 39.4905 44.4648 43.035C44.4634 43.0599 44.5393 43.0897 44.5767 43.1153C44.6041 43.0992 44.6395 43.091 44.6463 43.0726C44.7157 42.8859 44.7819 42.6983 44.8457 42.5096C45.8903 39.4228 47.5125 36.7872 50.5297 35.2233C50.9587 35.0007 51.3582 34.7167 51.7532 34.4357C56.5003 31.059 60.07 26.9665 60.2217 20.7546C60.2481 19.6758 60.7341 19.2635 61.8446 19.378C63.7825 19.578 65.7094 19.8843 67.7596 20.1622C67.3227 19.6135 66.9281 18.962 66.3879 18.468C64.5354 16.7732 62.183 16.1199 59.7976 15.8831C56.8226 15.5874 53.8139 15.6315 50.8201 15.5193C49.1958 15.4585 47.8633 15.9689 46.8979 17.3393C45.845 18.8338 44.3083 19.5076 42.5464 19.7763C41.2588 19.9728 39.9761 20.2005 38.6586 20.4196C38.6819 20.9334 38.7008 21.3484 38.7231 21.8454C40.3632 21.8454 41.9291 21.8345 43.4946 21.8492C44.554 21.8591 45.5472 22.0611 46.2201 22.9964C47.4401 24.6929 46.7304 26.7699 44.6426 27.5148C43.1412 28.0501 41.6178 28.5243 40.1041 29.0254ZM31.0881 49.6181C31.0789 49.7121 31.0699 49.8065 31.061 49.9005C31.6784 50.2932 32.3157 50.6587 32.9101 51.0839C35.2464 52.7552 37.0906 54.8356 37.2722 57.8086C37.5189 61.8542 39.3992 64.9698 42.4425 67.4266C45.1477 69.6106 48.1886 70.0926 51.4096 68.5215C53.1097 67.6918 54.4546 66.4069 55.6616 64.9947C59.3346 60.6968 61.2176 55.5699 62.4472 50.1592C62.4977 49.9384 62.2602 49.5569 62.0471 49.3901C61.2876 48.7957 60.3415 48.382 59.7238 47.6765C58.7945 46.6144 58.0824 45.3639 57.2776 44.1931C55.4639 46.226 53.6489 48.4825 52.5586 51.2234C52.3198 51.824 51.8997 52.2807 51.3105 52.1836C50.8619 52.1098 50.3537 51.7088 50.0967 51.3099C49.6008 50.5411 49.2638 49.6704 48.8355 48.7892C46.8543 50.5271 45.1721 52.4109 43.9469 54.6592C43.4215 55.6232 43.2156 56.6668 43.4253 57.7946C43.716 59.3592 44.3303 60.705 45.5729 61.7592C46.2373 62.3229 46.2877 63.129 45.8083 63.6509C45.356 64.1442 44.6055 64.1835 44.0183 63.745C41.1284 61.5859 40.008 57.0439 41.554 53.8046C42.474 51.8766 43.7767 50.2334 45.2829 48.7355C45.6072 48.4128 45.9171 48.0757 46.2339 47.7452C46.1906 47.6761 46.1477 47.6071 46.1048 47.538C45.2589 47.6351 44.3766 47.6115 43.576 47.8556C42.1923 48.2778 40.8494 48.8411 39.5104 49.3952C38.8916 49.6509 38.3672 49.7733 37.7475 49.3511C37.3367 49.0712 36.7735 48.7936 36.3137 48.8425C34.5638 49.0288 32.8287 49.3484 31.0881 49.6181ZM47.6227 41.6587C47.4138 41.6431 47.2039 41.6264 46.995 41.6108C46.5554 42.9319 46.1157 44.253 45.6082 45.779C46.8582 45.9558 47.6801 46.0723 48.8163 46.2325C48.3735 44.537 47.9986 43.0983 47.6227 41.6587ZM55.2224 16.4167C57.079 16.506 58.7434 17.8699 59.0917 19.6577C59.5217 21.866 57.5461 23.8155 55.0282 23.5759C54.3806 23.5143 53.7101 23.2286 53.1452 22.8888C52.4884 22.4936 52.4026 21.7522 52.7903 21.1792C53.1823 20.5998 53.846 20.4593 54.5251 20.8162C54.6758 20.8952 54.8367 21.0787 54.9644 21.0558C55.4517 20.9693 55.9507 20.8675 56.393 20.6603C56.5196 20.6012 56.5931 20.057 56.4761 19.9264C56.1579 19.5709 55.7609 19.2195 55.324 19.0591C55.033 18.9525 54.6188 19.1716 54.2615 19.253C53.5145 19.4235 52.9067 19.133 52.6579 18.4804C52.4201 17.8562 52.7063 17.1684 53.4214 16.8909C53.9963 16.6676 54.6202 16.5702 55.2224 16.4167ZM30.2873 27.0911C24.0898 28.0845 20.2322 31.5525 18.272 37.1986C17.4065 39.692 17.0894 42.2903 17.0513 44.9235C17.0465 45.265 17.0537 45.6099 17.006 45.9466C16.8962 46.726 16.3986 47.1581 15.6903 47.1277C14.9878 47.0976 14.4905 46.6118 14.5001 45.8318C14.5146 44.6374 14.5516 43.4389 14.6686 42.251C15.0715 38.1694 16.1426 34.3169 18.6773 30.9809C21.549 27.2015 25.4468 25.2079 30.0762 24.5711C31.5375 24.3701 33.0358 24.4186 34.5176 24.392C35.2575 24.3786 35.9068 24.6282 36.0279 25.4681C36.1384 26.2335 35.6563 26.6379 35.0135 26.9653C31.5625 28.7231 29.3428 31.5867 27.8758 35.0683C26.6359 38.0115 26.07 41.1099 25.9725 44.2969C25.955 44.8654 25.9344 45.4373 25.8579 45.9996C25.7491 46.7992 25.2711 47.1923 24.5288 47.1188C23.7899 47.046 23.3891 46.6122 23.3908 45.8752C23.4045 38.9731 24.9183 32.6009 29.9688 27.4853C30.0453 27.4077 30.1071 27.3154 30.2873 27.0911Z" fill="black" stroke="black" stroke-width="0.5"/>
</svg>
