<svg width="40" height="41" viewBox="0 0 40 41" fill="none" xmlns="http://www.w3.org/2000/svg">
<g clip-path="url(#clip0_20653_9204)">
<g style="mix-blend-mode:darken">
<path fill-rule="evenodd" clip-rule="evenodd" d="M28.2747 29.1205C27.0314 32.7875 23.5395 35.464 19.3991 35.4677C15.2809 35.4714 11.8068 32.8447 10.5033 29.1443C9.11211 25.1952 10.5862 20.0383 15.1589 17.667C15.5056 17.4406 17.4721 16.753 19.7343 16.7729C21.8568 16.7916 23.437 17.5488 23.6201 17.6687C28.3178 20.1934 29.601 25.209 28.2747 29.1205Z" fill="#37CC3A"/>
</g>
<g style="mix-blend-mode:multiply">
<path fill-rule="evenodd" clip-rule="evenodd" d="M23.5374 27.5411C22.9566 29.2543 21.3253 30.5046 19.391 30.5063C17.4671 30.5081 15.8441 29.2809 15.2351 27.5522C14.5852 25.7073 15.2739 23.2982 17.4101 22.1904C17.572 22.0846 18.4907 21.7633 19.5476 21.7727C20.5392 21.7814 21.2774 22.1352 21.3629 22.1912C23.5575 23.3706 24.157 25.7138 23.5374 27.5411Z" fill="#37CC3A"/>
</g>
<g style="mix-blend-mode:hard-light">
<path fill-rule="evenodd" clip-rule="evenodd" d="M15.5136 19.7988C15.0472 19.5968 14.6114 19.4063 14.1741 19.2191C12.7977 18.63 11.4254 18.0316 10.0425 17.4582C9.32084 17.1589 8.99621 16.6534 9.00003 15.8708C9.01435 12.8839 9.00386 9.89689 9.00698 6.90984C9.00797 5.89909 9.52333 5.38869 10.5349 5.38855C16.6742 5.38741 22.8134 5.38741 28.9527 5.38855C29.9632 5.38869 30.4776 5.8998 30.4786 6.91211C30.4817 9.89901 30.4712 12.8861 30.4854 15.873C30.4892 16.656 30.1614 17.158 29.441 17.4592C27.734 18.1726 26.0368 18.9095 24.3358 19.6374C24.229 19.6831 24.1239 19.7329 23.9748 19.8005C20.0241 21.3152 19.1808 21.3152 15.5136 19.7988Z" fill="#0321B9"/>
</g>
</g>
<defs>
<clipPath id="clip0_20653_9204">
<rect width="22" height="31" fill="white" transform="translate(9 5.3877)"/>
</clipPath>
</defs>
</svg>
