<svg width="73" height="72" viewBox="0 0 73 72" fill="none" xmlns="http://www.w3.org/2000/svg">
<path fill-rule="evenodd" clip-rule="evenodd" d="M36.486 13.0001C49.1551 12.9605 59.4685 23.3032 59.4679 35.9544C59.4671 48.6286 49.1851 58.9138 36.4978 58.9295C23.8888 58.945 13.5457 48.643 13.5295 35.9869C13.5136 23.3854 23.7823 12.9786 36.486 13.0001Z" fill="#39BD3D" stroke="#39BD3D" stroke-width="2"/>
<path fill-rule="evenodd" clip-rule="evenodd" d="M36.5019 26.4033C41.7484 26.4032 46.0888 30.5944 46.0665 35.9831C46.0443 41.3563 41.8193 45.5248 36.5002 45.5283C31.0598 45.5322 26.919 41.14 26.9432 35.943C26.9678 30.635 31.2182 26.4005 36.5019 26.4033Z" fill="#BCF0B4"/>
<path fill-rule="evenodd" clip-rule="evenodd" d="M24.7177 42.4676C22.7254 43.0803 21.3064 44.3598 20.4242 46.3225C20.2994 46.1332 20.1854 45.9752 20.0864 45.8081C18.0986 42.4551 17.167 38.8299 17.3815 34.9374C17.614 30.7226 19.103 26.9817 21.7955 23.7289C22.5255 22.8471 23.9645 22.5845 25.0626 23.0889C26.1697 23.5974 26.847 24.825 26.7169 25.9895C26.632 26.748 26.2501 27.3446 25.8054 27.9172C24.547 29.5377 23.7495 31.3709 23.3604 33.3717C22.7885 36.3123 23.1668 39.1432 24.4702 41.8459C24.5543 42.02 24.6361 42.1953 24.7164 42.3711C24.7254 42.3909 24.7177 42.4184 24.7177 42.4676Z" fill="#E9FCE3"/>
<path fill-rule="evenodd" clip-rule="evenodd" d="M30.3642 24.0444C29.7778 21.9848 28.5535 20.504 26.5533 19.562C27.4451 19.1218 28.2538 18.6505 29.114 18.3096C35.4144 15.8126 41.4305 16.4183 47.1379 20.0548C47.8093 20.4826 48.43 20.9974 49.0403 21.5123C50.5653 22.7985 50.2322 25.3241 48.4253 26.1762C47.2075 26.7505 46.0844 26.4916 45.0749 25.669C43.4804 24.3698 41.7033 23.446 39.6997 22.9618C36.6561 22.2261 33.714 22.5272 30.8654 23.8113C30.7134 23.8799 30.5629 23.952 30.3642 24.0444Z" fill="#E9FCE3"/>
<path fill-rule="evenodd" clip-rule="evenodd" d="M48.5758 30.1708C50.6286 29.662 52.1478 28.477 53.2071 26.5032C53.6757 27.5655 54.1573 28.5025 54.5109 29.4856C55.8154 33.1132 56.0078 36.8155 55.0846 40.5597C54.3853 43.3952 53.0922 45.9423 51.2154 48.1845C50.4873 49.0545 49.0841 49.3271 47.9892 48.8383C46.8283 48.3197 46.1457 47.1324 46.2838 45.9417C46.3614 45.2723 46.6508 44.7108 47.0548 44.2002C48.608 42.2372 49.5068 39.9968 49.8028 37.5283C50.0975 35.0702 49.7276 32.6955 48.693 30.4352C48.6562 30.3548 48.6213 30.2736 48.5758 30.1708Z" fill="#E9FCE3"/>
<path fill-rule="evenodd" clip-rule="evenodd" d="M42.65 47.9211C43.2076 49.9425 44.4666 51.3951 46.4321 52.3731C45.5346 52.8129 44.7124 53.2876 43.8392 53.6322C37.5618 56.1088 31.5681 55.4958 25.8856 51.8815C25.287 51.5008 24.6914 51.0327 24.2703 50.4728C23.4217 49.345 23.6065 47.8685 24.588 46.873C25.5386 45.9089 27.0192 45.7331 28.1658 46.5018C29.3895 47.3222 30.6228 48.109 32.0312 48.5877C35.4463 49.7484 38.797 49.6 42.0901 48.1308C42.243 48.0627 42.3942 47.99 42.5473 47.9224C42.5678 47.9132 42.596 47.9211 42.65 47.9211Z" fill="#E9FCE3"/>
</svg>
