<svg width="73" height="72" viewBox="0 0 73 72" fill="none" xmlns="http://www.w3.org/2000/svg">
<path fill-rule="evenodd" clip-rule="evenodd" d="M49.6363 11.0111C52.5794 11.0111 55.5225 11.0088 58.4656 11.012C60.04 11.0136 60.9464 11.9248 60.9471 13.5067C60.9491 19.393 60.9418 25.2794 60.9551 31.1657C60.9567 31.9237 60.7088 32.5308 60.1789 33.0604C51.2166 42.0173 42.2594 50.9799 33.2964 59.9361C32.1533 61.0783 30.8659 61.0723 29.7218 59.9274C23.8049 54.0063 17.8922 48.0813 11.9819 42.1535C10.8737 41.0421 10.8744 39.7868 11.9805 38.6799C20.9111 29.745 29.8461 20.8148 38.7737 11.8769C39.3771 11.2726 40.0567 10.9918 40.9214 11.0003C43.8262 11.0285 46.7312 11.0111 49.6363 11.0111Z" fill="#39BD3D" stroke="#39BD3D"/>
<path fill-rule="evenodd" clip-rule="evenodd" d="M56.4104 15.5841C56.164 15.5682 56.0138 15.5501 55.8636 15.5501C51.2198 15.5485 46.5757 15.5428 41.9322 15.5641C41.6698 15.5653 41.3473 15.727 41.1558 15.9176C35.3746 21.6767 29.6065 27.449 23.8368 33.2199C23.704 33.3527 23.5792 33.4939 23.4792 33.6008C28.4491 38.5701 33.3925 43.513 38.3549 48.4749C38.4413 48.3974 38.5585 48.3022 38.665 48.1958C44.4764 42.3861 50.2895 36.5781 56.0858 30.7531C56.2815 30.5568 56.3957 30.1905 56.3968 29.9027C56.4161 25.3545 56.4104 20.8061 56.4104 16.2579V15.5841Z" fill="#E9FCE3"/>
<path fill-rule="evenodd" clip-rule="evenodd" d="M45.4591 34.751C40.9373 34.791 37.2713 31.173 37.2072 26.6067C37.1436 22.084 40.8457 18.3473 45.4033 18.3334C49.9321 18.3198 53.6098 21.9805 53.6236 26.516C53.6378 31.0445 50.0032 34.7105 45.4591 34.751Z" fill="#39BD3D" stroke="#39BD3D" stroke-width="1.5"/>
<path fill-rule="evenodd" clip-rule="evenodd" d="M45.288 31.6277C48.1273 31.6646 50.5239 29.3421 50.5624 26.5159C50.6003 23.717 48.2074 21.287 45.4018 21.277C42.639 21.267 40.2545 23.5926 40.2118 26.3388C40.1675 29.2114 42.4514 31.5908 45.288 31.6277Z" fill="#BCF0B4"/>
<path fill-rule="evenodd" clip-rule="evenodd" d="M34.9426 51.7019C29.9985 46.781 25.0368 41.8427 20.0882 36.9175C18.9779 38.0289 17.8047 39.2033 16.6554 40.3539C21.5951 45.2934 26.5499 50.2478 31.5125 55.2104C32.6492 54.0475 33.81 52.8601 34.9426 51.7019Z" fill="#E9FCE3"/>
</svg>
