<svg width="123" height="114" viewBox="0 0 123 114" fill="none" xmlns="http://www.w3.org/2000/svg">
<path opacity="0.5" fill-rule="evenodd" clip-rule="evenodd" d="M-69.6414 6.18945L-67.8642 7.96658L91.9413 -151.839L90.1642 -153.616L-69.6414 6.18945ZM47.6489 123.48L49.426 125.257L209.232 -34.5487L207.454 -36.3259L47.6489 123.48ZM-10.9962 64.8346L-9.2191 66.6117L150.586 -93.1939L148.809 -94.971L-10.9962 64.8346ZM106.294 182.125L108.071 183.902L267.877 24.0964L266.1 22.3193L106.294 182.125ZM-40.3188 35.512L-38.5417 37.2891L121.264 -122.516L119.487 -124.294L-40.3188 35.512ZM76.9715 152.802L78.7486 154.579L238.554 -5.22616L236.777 -7.0033L76.9715 152.802ZM18.3263 94.1572L20.1035 95.9343L179.909 -63.8713L178.132 -65.6484L18.3263 94.1572ZM135.617 211.447L137.394 213.225L297.199 53.419L295.422 51.6419L135.617 211.447ZM-54.9801 20.8507L-53.2029 22.6279L106.603 -137.178L104.826 -138.955L-54.9801 20.8507ZM62.3102 138.141L64.0873 139.918L223.893 -19.8874L222.116 -21.6646L62.3102 138.141ZM3.66506 79.4959L5.44219 81.273L165.248 -78.5326L163.471 -80.3097L3.66506 79.4959ZM120.955 196.786L122.732 198.563L282.538 38.7577L280.761 36.9806L120.955 196.786ZM-25.6575 50.1733L-23.8804 51.9504L135.925 -107.855L134.148 -109.632L-25.6575 50.1733ZM91.6328 167.464L93.4099 169.241L253.215 9.43512L251.438 7.65799L91.6328 167.464ZM32.9876 108.818L34.7648 110.596L194.57 -49.21L192.793 -50.9871L32.9876 108.818ZM150.278 226.109L152.055 227.886L311.861 68.0803L310.083 66.3031L150.278 226.109ZM-64.7543 11.0765L-62.9771 12.8537L96.8284 -146.952L95.0513 -148.729L-64.7543 11.0765ZM52.536 128.367L54.3131 130.144L214.119 -29.6616L212.342 -31.4388L52.536 128.367ZM-6.10913 69.7217L-4.332 71.4988L155.474 -88.3068L153.696 -90.0839L-6.10913 69.7217ZM111.181 187.012L112.958 188.789L272.764 28.9835L270.987 27.2064L111.181 187.012ZM-35.4317 40.3991L-33.6546 42.1762L126.151 -117.629L124.374 -119.406L-35.4317 40.3991ZM81.8586 157.689L83.6357 159.467L243.441 -0.339071L241.664 -2.1162L81.8586 157.689ZM23.2134 99.0442L24.9906 100.821L184.796 -58.9842L183.019 -60.7613L23.2134 99.0442ZM140.504 216.335L142.281 218.112L302.086 58.3061L300.309 56.5289L140.504 216.335ZM-50.093 25.7378L-48.3159 27.515L111.49 -132.291L109.713 -134.068L-50.093 25.7378ZM67.1973 143.028L68.9744 144.805L228.78 -15.0004L227.003 -16.7775L67.1973 143.028ZM8.55216 84.383L10.3293 86.1601L170.135 -73.6455L168.358 -75.4226L8.55216 84.383ZM125.842 201.673L127.62 203.45L287.425 43.6448L285.648 41.8676L125.842 201.673ZM-20.7704 55.0604L-18.9933 56.8375L140.812 -102.968L139.035 -104.745L-20.7704 55.0604ZM96.5199 172.351L98.297 174.128L258.103 14.3222L256.325 12.5451L96.5199 172.351ZM37.8747 113.706L39.6518 115.483L199.457 -44.3229L197.68 -46.1L37.8747 113.706ZM155.165 230.996L156.942 232.773L316.748 72.9674L314.971 71.1902L155.165 230.996ZM-59.8672 15.9636L-58.09 17.7408L101.716 -142.065L99.9384 -143.842L-59.8672 15.9636ZM57.4231 133.254L59.2002 135.031L219.006 -24.7746L217.229 -26.5517L57.4231 133.254ZM-1.22203 74.6088L0.555093 76.3859L160.361 -83.4197L158.584 -85.1968L-1.22203 74.6088ZM116.068 191.899L117.845 193.676L277.651 33.8706L275.874 32.0935L116.068 191.899ZM-30.5446 45.2862L-28.7675 47.0633L131.038 -112.742L129.261 -114.519L-30.5446 45.2862ZM86.7457 162.576L88.5228 164.354L248.328 4.54802L246.551 2.7709L86.7457 162.576ZM28.1005 103.931L29.8777 105.708L189.683 -54.0971L187.906 -55.8742L28.1005 103.931ZM145.391 221.222L147.168 222.999L306.974 63.1932L305.196 61.416L145.391 221.222ZM-45.2059 30.6249L-43.4288 32.402L116.377 -127.404L114.6 -129.181L-45.2059 30.6249ZM72.0844 147.915L73.8615 149.692L233.667 -10.1133L231.89 -11.8904L72.0844 147.915ZM13.4392 89.2701L15.2164 91.0472L175.022 -68.7584L173.245 -70.5355L13.4392 89.2701ZM130.73 206.56L132.507 208.337L292.312 48.5319L290.535 46.7548L130.73 206.56ZM-15.8833 59.9475L-14.1062 61.7246L145.699 -98.081L143.922 -99.8581L-15.8833 59.9475ZM101.407 177.238L103.184 179.015L262.99 19.2093L261.213 17.4322L101.407 177.238ZM42.7618 118.593L44.5389 120.37L204.345 -39.4358L202.567 -41.213L42.7618 118.593ZM160.052 235.883L161.829 237.66L321.635 77.8545L319.858 76.0773L160.052 235.883Z" fill="#294CFF"/>
</svg>
