<svg width="308" height="180" viewBox="0 0 308 180" fill="none" xmlns="http://www.w3.org/2000/svg">
<path opacity="0.5" fill-rule="evenodd" clip-rule="evenodd" d="M-109.006 10.6226L-106.214 13.4152L144.909 -237.707L142.116 -240.5L-109.006 10.6226ZM75.3069 194.936L78.0996 197.728L329.222 -53.3942L326.43 -56.1868L75.3069 194.936ZM-16.8497 102.779L-14.057 105.572L237.066 -145.551L234.273 -148.343L-16.8497 102.779ZM167.464 287.092L170.256 289.885L421.379 38.7624L418.586 35.9698L167.464 287.092ZM-62.928 56.7009L-60.1353 59.4935L190.987 -191.629L188.195 -194.422L-62.928 56.7009ZM121.385 241.014L124.178 243.807L375.3 -7.31587L372.508 -10.1085L121.385 241.014ZM29.2286 148.857L32.0213 151.65L283.144 -99.4725L280.351 -102.265L29.2286 148.857ZM213.542 333.171L216.334 335.963L467.457 84.8407L464.664 82.0481L213.542 333.171ZM-85.9671 33.6617L-83.1745 36.4543L167.948 -214.668L165.155 -217.461L-85.9671 33.6617ZM98.3461 217.975L101.139 220.768L352.261 -30.355L349.469 -33.1476L98.3461 217.975ZM6.18949 125.818L8.98212 128.611L260.105 -122.512L257.312 -125.304L6.18949 125.818ZM190.503 310.132L193.295 312.924L444.418 61.8016L441.625 59.009L190.503 310.132ZM-39.8888 79.74L-37.0962 82.5326L214.026 -168.59L211.234 -171.383L-39.8888 79.74ZM144.424 264.053L147.217 266.846L398.34 15.7233L395.547 12.9306L144.424 264.053ZM52.2678 171.897L55.0604 174.689L306.183 -76.4333L303.39 -79.2259L52.2678 171.897ZM236.581 356.21L239.374 359.002L490.496 107.88L487.704 105.087L236.581 356.21ZM-101.327 18.3023L-98.5339 21.0949L152.589 -230.028L149.796 -232.82L-101.327 18.3023ZM82.9867 202.615L85.7793 205.408L336.902 -45.7145L334.109 -48.5071L82.9867 202.615ZM-9.16994 110.459L-6.37732 113.251L244.745 -137.871L241.953 -140.664L-9.16994 110.459ZM175.143 294.772L177.936 297.565L429.058 46.4422L426.266 43.6495L175.143 294.772ZM-55.2482 64.3806L-52.4556 67.1732L198.667 -183.949L195.874 -186.742L-55.2482 64.3806ZM129.065 248.694L131.858 251.486L382.98 0.363835L380.188 -2.42879L129.065 248.694ZM36.9084 156.537L39.701 159.33L290.824 -91.7928L288.031 -94.5854L36.9084 156.537ZM221.222 340.85L224.014 343.643L475.137 92.5204L472.344 89.7278L221.222 340.85ZM-78.2874 41.3414L-75.4948 44.1341L175.628 -206.989L172.835 -209.781L-78.2874 41.3414ZM106.026 225.655L108.818 228.447L359.941 -22.6753L357.148 -25.4679L106.026 225.655ZM13.8692 133.498L16.6618 136.291L267.784 -114.832L264.992 -117.625L13.8692 133.498ZM198.182 317.811L200.975 320.604L452.098 69.4813L449.305 66.6887L198.182 317.811ZM-32.2091 87.4197L-29.4165 90.2123L221.706 -160.91L218.913 -163.703L-32.2091 87.4197ZM152.104 271.733L154.897 274.526L406.019 23.403L403.227 20.6104L152.104 271.733ZM59.9475 179.576L62.7401 182.369L313.863 -68.7536L311.07 -71.5462L59.9475 179.576ZM244.261 363.89L247.053 366.682L498.176 115.56L495.383 112.767L244.261 363.89ZM-93.6468 25.982L-90.8542 28.7746L160.268 -222.348L157.476 -225.141L-93.6468 25.982ZM90.6664 210.295L93.459 213.088L344.582 -38.0348L341.789 -40.8274L90.6664 210.295ZM-1.49023 118.139L1.3024 120.931L252.425 -130.191L249.632 -132.984L-1.49023 118.139ZM182.823 302.452L185.616 305.244L436.738 54.1219L433.946 51.3292L182.823 302.452ZM-47.5685 72.0603L-44.7759 74.8529L206.347 -176.27L203.554 -179.062L-47.5685 72.0603ZM136.745 256.373L139.537 259.166L390.66 8.04354L387.867 5.25094L136.745 256.373ZM44.5881 164.217L47.3807 167.01L298.503 -84.113L295.711 -86.9057L44.5881 164.217ZM228.901 348.53L231.694 351.323L482.816 100.2L480.024 97.4075L228.901 348.53ZM-70.6077 49.0211L-67.8151 51.8138L183.308 -199.309L180.515 -202.101L-70.6077 49.0211ZM113.706 233.334L116.498 236.127L367.621 -14.9956L364.828 -17.7882L113.706 233.334ZM21.5489 141.178L24.3415 143.97L275.464 -107.152L272.671 -109.945L21.5489 141.178ZM205.862 325.491L208.655 328.284L459.777 77.161L456.985 74.3684L205.862 325.491ZM-24.5294 95.0994L-21.7367 97.8921L229.386 -153.23L226.593 -156.023L-24.5294 95.0994ZM159.784 279.413L162.576 282.205L413.699 31.0827L410.906 28.2901L159.784 279.413ZM67.6272 187.256L70.4198 190.049L321.542 -61.0739L318.75 -63.8665L67.6272 187.256ZM251.94 371.569L254.733 374.362L505.856 123.239L503.063 120.447L251.94 371.569Z" fill="#294CFF"/>
</svg>
