<svg width="84" height="84" viewBox="0 0 84 84" fill="none" xmlns="http://www.w3.org/2000/svg">
<path fill-rule="evenodd" clip-rule="evenodd" d="M27.7103 9.36055C27.3727 9.86202 26.7456 9.53776 26.4111 9.07397C25.6499 8.01878 25.4666 6.8576 25.9706 5.64983C26.6912 3.92291 28.0013 2.78097 29.7299 2.13186C30.7402 1.75279 31.2519 2.20916 31.3029 3.26806C31.3349 3.93743 31.5095 4.63076 31.7687 5.25118C32.2187 6.32899 32.67 7.37979 32.2497 8.56696C32.0276 9.19515 31.6671 9.73658 30.8998 9.49962C30.755 9.45488 30.4726 9.06587 30.2581 8.94546C29.8717 8.72852 29.5853 8.65467 29.1418 8.65354C28.5425 8.65202 28.1195 8.75281 27.7103 9.36055Z" fill="#FFEBB0"/>
<path fill-rule="evenodd" clip-rule="evenodd" d="M29.9937 75.0517C30.262 74.9896 30.7093 74.8195 30.7181 74.677C30.7515 74.1508 30.8298 73.4348 30.5368 73.1186C29.8337 72.3594 29.6082 71.5682 29.7142 70.5849C29.8195 69.608 29.8654 68.6237 29.9177 67.6414C29.9522 67.0018 30.1236 66.381 29.3439 65.9108C28.8136 65.5911 29.1083 64.9626 29.3753 64.4684C31.0708 61.3305 32.7569 58.1876 34.4457 55.0457C35.0705 53.8831 32.7484 54.1177 32.6502 55.8288C32.6016 56.6774 32.2404 57.097 31.5842 57.0348C30.8041 56.9613 30.6644 56.4077 30.6914 55.7596C30.7933 53.317 30.8902 50.8738 31.0101 48.432C31.0425 47.7754 30.9986 47.2053 30.5672 46.6254C29.8627 45.6786 29.8813 44.596 30.2739 43.4919C30.4561 42.9798 30.5962 42.4279 30.6182 41.8889C30.6684 40.6531 30.6597 39.4132 30.6128 38.1771C30.603 37.9216 30.3819 37.5513 30.1581 37.4456C27.8175 36.3398 27.4188 34.7236 29.0003 32.6885C29.1214 32.5329 32.9226 30.0435 33.5552 29.0355C34.3812 27.7184 34.7717 27.6694 35.8398 28.7645C36.0126 28.942 39.7487 30.7344 42.979 33.4284C43.7972 33.9884 44.6688 34.463 45.3922 35.1044C46.9972 36.5272 47.7878 38.3888 47.6497 40.514C47.5522 42.0185 48.3255 46.14 47.7145 46.3132V48.9079C48.0062 48.6281 47.7007 52.221 47.6906 52.4867C47.6578 53.3295 47.7186 54.1785 47.6396 55.0156C47.5852 55.5905 47.512 56.271 47.1782 56.6899C46.4257 57.634 46.526 58.6288 46.602 59.7012C46.9317 64.3547 44.0899 64.0087 44.1409 64.4684C47.0671 64.8694 28.4663 75.4058 29.9937 75.0517Z" fill="#FCE6CA"/>
<path fill-rule="evenodd" clip-rule="evenodd" d="M27.4886 79.9142C27.4886 79.2563 27.4775 78.7254 27.4906 78.1951C27.5298 76.6133 28.5826 75.3509 30.11 74.9968C30.3784 74.9346 30.8257 74.7645 30.8344 74.6221C30.8679 74.0958 30.9462 73.3799 30.6532 73.0636C29.95 72.3044 29.7246 71.5132 29.8306 70.5299C29.9359 69.553 29.9818 68.5687 30.0341 67.5865C30.0685 66.9468 30.24 66.326 29.4603 65.8558C28.93 65.5362 29.2246 64.9076 29.4917 64.4135C31.1872 61.2756 32.8733 58.1326 34.562 54.9907C35.1868 53.8282 35.8039 52.6612 36.4361 51.5024C36.8544 50.7365 37.3593 50.5026 37.9122 50.8381C38.6005 51.2553 38.5107 51.817 38.1762 52.4364C36.3608 55.7971 34.5968 59.1861 32.7261 62.5151C32.158 63.526 32.2562 64.5721 32.1519 65.6121C31.9777 67.3451 31.8836 69.0862 31.7742 70.8249C31.7614 71.0302 31.8187 71.388 31.9224 71.4201C32.1181 71.4805 32.4125 71.418 32.5944 71.2982C34.8695 69.7971 37.1311 68.2751 39.3998 66.7635C39.5392 66.6703 39.7073 66.62 40.0169 66.48C39.4154 66.1009 39.0842 65.9071 38.7683 65.6908C37.894 65.0913 37.5723 64.2015 37.8464 63.1912C39.0808 58.6393 40.3139 54.0871 41.548 49.5352C41.5993 49.3455 41.6479 49.1547 41.7094 48.9681C41.9062 48.373 42.3278 48.0557 42.933 48.2319C43.5207 48.403 43.7657 48.8641 43.598 49.4899C43.0387 51.5784 42.4783 53.6661 41.9214 55.7552C41.549 57.151 41.1821 58.5482 40.8128 59.9446L40.9981 60.0634C42.4294 58.7703 43.9129 57.5284 45.2591 56.1522C45.6503 55.7522 45.7971 54.9691 45.8029 54.3591C45.8461 49.6901 45.8454 45.0207 45.8184 40.3517C45.8052 38.081 44.7173 36.4651 42.6518 35.5017C39.9143 34.2251 37.3408 32.6882 35.1149 30.6795C34.1843 31.4629 33.2962 32.2619 32.3511 32.986C31.8437 33.3752 31.2105 33.5976 30.689 33.9716C30.4483 34.1444 30.2157 34.4979 30.2106 34.7736C30.2069 34.9853 30.5482 35.2233 30.7693 35.4106C30.8895 35.5125 31.0761 35.5419 31.2368 35.5898C32.7477 36.0398 32.747 36.0388 32.7484 37.6584C32.7494 38.5863 32.7527 39.5142 32.7605 40.4425C32.7608 40.4844 32.8128 40.5259 32.8932 40.6457C34.0891 39.4477 35.2719 38.2606 36.4571 37.0761C36.6559 36.8776 36.8449 36.5579 37.0727 36.5238C37.493 36.4614 38.0317 36.4287 38.3511 36.64C38.7919 36.9323 38.77 37.4896 38.3892 37.9024C37.8559 38.481 37.2844 39.0244 36.7278 39.5814C35.3755 40.934 34 42.2649 32.6852 43.653C32.349 44.0081 32.2032 44.5438 31.9703 44.9964C32.0695 45.0575 32.1688 45.119 32.268 45.18C32.9263 44.5495 33.5858 43.92 34.243 43.2881C34.8763 42.6791 35.5288 42.5701 35.9187 43.0582C36.4088 43.6719 36.2113 44.2639 35.6425 44.6643C33.5517 46.1377 32.773 48.0823 33.0079 50.6447C33.1629 52.3328 32.8648 54.0628 32.7666 55.7738C32.718 56.6224 32.3568 57.042 31.7006 56.9799C30.9205 56.9063 30.7808 56.3527 30.8078 55.7046C30.9097 53.2621 31.0066 50.8189 31.1264 48.377C31.1588 47.7205 31.1149 47.1503 30.6836 46.5704C29.9791 45.6236 29.9976 44.5411 30.3902 43.4369C30.5725 42.9249 30.7126 42.373 30.7345 41.8339C30.7848 40.5981 30.776 39.3583 30.7291 38.1222C30.7193 37.8666 30.4982 37.4963 30.2744 37.3907C27.9338 36.2849 27.5352 34.6687 29.1166 32.6336C29.2378 32.4779 29.2793 32.1681 29.2165 31.976C27.9764 28.1812 28.1576 24.2612 28.1644 20.3561C28.1654 19.6671 28.449 19.1713 29.1862 19.1939C29.8731 19.2148 30.1283 19.7046 30.1333 20.353C30.1482 22.2646 30.0814 24.1822 30.215 26.0854C30.3382 27.839 30.6798 29.577 30.9502 31.5001C32.2063 30.7817 33.039 29.9885 33.6716 28.9806C34.4976 27.6634 34.8881 27.6145 35.9561 28.7095C36.129 28.8871 36.3166 29.0501 36.588 29.3043V25.8332C36.4331 25.8049 36.1917 25.8329 36.0797 25.7255C35.7975 25.4548 35.3556 25.1031 35.3816 24.8212C35.4133 24.4813 35.8019 24.0195 36.1414 23.893C37.1035 23.5352 37.3161 23.0116 36.6798 22.2072C36.4706 21.9433 36.1414 21.6931 36.0959 21.4008C36.0354 21.0133 36.0655 20.3905 36.3004 20.2339C36.5985 20.0347 37.2118 20.0655 37.5595 20.2464C37.9504 20.4496 38.1968 20.9309 38.4803 21.2614C39.5045 21.146 39.8113 20.5863 39.679 19.6557C39.5902 19.0295 39.9335 18.5951 40.556 18.536C41.2493 18.4702 41.547 18.9441 41.6486 19.5669C41.6621 19.6496 41.6773 19.738 41.6621 19.8184C41.4987 20.6828 41.9028 21.1203 42.8095 21.2519C43.0451 20.9741 43.3124 20.6552 43.5835 20.3399C43.9916 19.8653 44.4925 19.7363 44.9971 20.1198C45.5517 20.5414 45.5035 21.0734 45.0923 21.5936C44.9181 21.8143 44.7619 22.0536 44.5624 22.2487C44.216 22.587 44.0631 22.9785 44.403 23.3519C44.6052 23.574 44.9526 23.6979 45.2581 23.7833C45.549 23.8643 45.9497 23.7296 46.159 23.8838C46.4776 24.1191 46.8797 24.5336 46.8618 24.8503C46.8439 25.1652 46.4024 25.5726 46.0537 25.7205C45.6992 25.8707 45.2314 25.7536 44.7649 25.7536C44.27 28.3615 45.5244 31.309 43.0954 33.3735C43.9136 33.9335 44.7852 34.4081 45.5085 35.0494C47.1136 36.4722 47.9041 38.3338 47.7661 40.459C47.6685 41.9635 48.2069 43.1291 49.1055 44.219C49.494 44.6903 49.9524 45.2465 49.4208 45.7647C49.09 46.0874 48.4419 46.085 47.8309 46.2582V48.853C48.1225 48.5731 48.3382 48.3855 48.532 48.1775C50.103 46.4908 51.6672 44.7976 53.2388 43.1112C53.922 42.378 54.3706 42.3429 55.1085 42.9593C56.425 44.0587 57.7435 45.1561 59.0474 46.27C60.6103 47.605 60.796 49.5163 59.4312 51.0265C57.6037 53.0494 55.7337 55.0356 53.8356 56.9924C52.692 58.1714 51.015 58.2774 49.7614 57.366C49.2213 56.9731 48.9087 56.4844 49.3398 55.8653C49.7303 55.3043 50.2646 55.3168 50.8135 55.6975C51.4403 56.1326 52.0165 56.0614 52.5421 55.5007C54.3497 53.5736 56.1661 51.655 57.9686 49.7228C58.482 49.1723 58.5715 48.5218 57.996 48.0003C56.8132 46.9289 55.5696 45.924 54.3099 44.857C52.1711 47.1581 50.0814 49.3937 48.0169 51.6523C47.8542 51.8302 47.8171 52.166 47.8069 52.4317C47.7742 53.2746 47.8349 54.1235 47.756 54.9606C47.7016 55.5355 47.6284 56.216 47.2945 56.6349C46.5421 57.579 46.6424 58.5738 46.7183 59.6462C47.0481 64.2997 47.332 68.9566 47.6371 73.6118C47.6628 74.0027 47.7212 74.3912 47.7722 74.8509C50.6984 75.252 51.3468 77.256 51.1207 79.9142C52.1377 79.9142 53.0829 79.9041 54.0277 79.9203C54.3308 79.9254 54.7139 79.9017 54.9154 80.0675C55.1838 80.2886 55.4775 80.696 55.4511 80.9961C55.4252 81.2931 55.0596 81.633 54.7585 81.8099C54.5222 81.9483 54.157 81.8801 53.8488 81.8805C44.454 81.8828 35.0592 81.8825 25.6645 81.8822C24.4668 81.8822 24.0223 81.627 24.0007 80.9309C23.9787 80.219 24.4854 79.9156 25.7016 79.9142C26.2599 79.9136 26.8179 79.9142 27.4886 79.9142ZM38.718 24.5917C39.9868 23.9865 41.2513 24.0023 42.5222 24.5644C42.4729 23.4882 41.7195 22.7483 40.7102 22.7095C39.6544 22.6687 38.8176 23.4268 38.718 24.5917ZM38.6464 29.3458C38.3801 30.4168 38.7862 31.1963 39.9065 31.8612C40.8436 32.4175 42.3058 32.0006 42.4847 30.8344C42.6481 29.7714 42.6599 28.6572 42.5425 27.5868C42.4324 26.5833 41.4603 25.9817 40.4486 26.0658C39.4785 26.1461 38.7396 26.8665 38.6528 27.8612C38.6144 28.3058 38.6464 28.7568 38.6464 29.3458ZM39.6226 63.8376C39.9112 64.0422 40.0837 64.1782 40.269 64.2936C42.2083 65.499 42.2545 67.206 40.3717 68.4729C38.1576 69.9628 35.9727 71.5001 33.7016 72.8975C32.8422 73.4261 32.849 74.0405 32.9188 74.8793C34.9448 74.8793 36.909 74.8729 38.8733 74.8823C39.784 74.8867 40.2542 75.2401 40.2613 75.8811C40.2684 76.537 39.813 76.8742 38.8986 76.8752C36.2839 76.8779 33.6692 76.8695 31.0549 76.8796C30.0162 76.884 29.4832 77.3768 29.411 78.3919C29.3762 78.8827 29.4049 79.3779 29.4049 79.8693H49.147C49.147 79.4406 49.1511 79.0538 49.1463 78.6666C49.1305 77.3532 48.6684 76.8844 47.3769 76.8773C46.5053 76.8722 45.6338 76.8766 44.7622 76.8752C44.1347 76.8742 43.7144 76.5765 43.6793 75.9433C43.6409 75.2496 44.0935 74.9387 44.7359 74.8874C45.0569 74.8614 45.3816 74.8827 45.7597 74.8827C45.4117 69.6931 45.0731 64.6383 44.7224 59.4042C42.96 60.9363 41.3377 62.3466 39.6226 63.8376ZM31.6525 18.3472C31.6525 17.6185 31.6468 16.8893 31.6542 16.1609C31.661 15.526 31.9924 15.1233 32.6223 15.1253C33.2508 15.1277 33.5489 15.5351 33.5951 16.1653C33.8348 19.4358 34.0876 22.7057 34.3378 25.9756C34.3881 26.6342 34.1373 27.1071 33.4534 27.1709C32.8181 27.2303 32.4643 26.8387 32.3982 26.2227C32.1177 23.6029 31.8486 20.9818 31.5752 18.3611C31.6009 18.3564 31.6269 18.352 31.6525 18.3472ZM29.2503 4.68781C27.7934 5.65895 27.5402 6.55447 28.078 8.15312C28.191 8.48966 27.9848 9.10468 27.7104 9.36055C27.2793 9.76257 26.7456 9.53776 26.4111 9.07397C25.6499 8.01878 25.4666 6.8576 25.9706 5.64983C26.6913 3.92291 28.0013 2.78097 29.7299 2.13186C30.7402 1.75279 31.252 2.20916 31.3029 3.26806C31.335 3.93743 31.5095 4.63076 31.7688 5.25118C32.2187 6.32899 32.67 7.37979 32.2498 8.56696C32.0277 9.19515 31.6672 9.73658 30.8999 9.49962C30.1418 9.26536 30.1941 8.68612 30.3132 7.99346C30.4047 7.46148 30.2336 6.85084 30.0567 6.31582C29.8751 5.76696 29.545 5.26705 29.2503 4.68781ZM29.1681 12.9433C28.4674 12.9433 27.7666 12.9402 27.0662 12.9443C26.4029 12.948 25.9594 12.6506 25.954 11.9687C25.9486 11.3287 26.3749 11.0091 26.9943 11.0037C28.4515 10.9909 29.9091 10.9902 31.3663 11.0071C31.9843 11.0145 32.407 11.3416 32.4016 11.9792C32.3965 12.6138 31.9769 12.9277 31.3541 12.9379C30.6257 12.9497 29.8969 12.9406 29.1681 12.9406C29.1681 12.9416 29.1681 12.9422 29.1681 12.9433ZM28.1973 15.8783C28.1973 15.5421 28.0802 15.1388 28.2254 14.8853C28.4336 14.521 28.8282 14.0346 29.1513 14.0292C29.4726 14.0235 30.0127 14.5025 30.0856 14.8475C30.226 15.5138 30.2105 16.2608 30.0495 16.9234C29.9654 17.2708 29.4652 17.6978 29.101 17.7538C28.5524 17.8385 28.1909 17.4051 28.1683 16.8039C28.1568 16.4961 28.1663 16.1869 28.1663 15.8783C28.1767 15.8783 28.1869 15.8783 28.1973 15.8783ZM36.7837 41.6061C36.7594 40.6994 37.3926 40.0483 38.0053 40.0624C38.6051 40.0766 38.9376 40.4165 38.9825 40.9968C39.0254 41.5494 38.2747 42.3649 37.7508 42.2373C37.3444 42.1381 37.0065 41.7597 36.7837 41.6061Z" fill="black" stroke="black" stroke-width="0.6"/>
<path fill-rule="evenodd" clip-rule="evenodd" d="M39.6226 63.8377C39.9113 64.0423 40.0837 64.1783 40.2691 64.2937C42.2083 65.4991 42.2545 67.2062 40.3717 68.473C38.1577 69.9629 35.9727 71.5002 33.7016 72.8976C32.8422 73.4262 32.849 74.0406 32.9188 74.8794C34.9448 74.8794 36.9091 74.873 38.8733 74.8824C39.784 74.8868 40.2542 75.2402 40.2613 75.8813C40.2684 76.5371 39.813 76.8743 38.8986 76.8754C36.2839 76.8781 33.6692 76.8696 31.0549 76.8797C30.0162 76.8841 29.4832 77.377 29.411 78.392C29.3762 78.8828 29.4049 79.378 29.4049 79.8694H49.147C49.147 79.4408 49.1511 79.0539 49.1464 78.6667C49.1305 77.3533 48.6684 76.8845 47.3769 76.8774C46.5053 76.8723 45.6338 76.8767 44.7622 76.8754C44.1347 76.8743 43.7145 76.5766 43.6794 75.9434C43.6409 75.2497 44.0935 74.9388 44.7359 74.8875C45.0569 74.8615 45.3816 74.8828 45.7597 74.8828C45.4117 69.6932 45.0731 64.6384 44.7224 59.4043C42.96 60.9364 41.3378 62.3467 39.6226 63.8377Z" fill="#EDD8BE"/>
</svg>
