<svg width="76" height="56" viewBox="0 0 76 56" fill="none" xmlns="http://www.w3.org/2000/svg">
<g clip-path="url(#clip0_20645_9031)">
<g style="mix-blend-mode:darken">
<path fill-rule="evenodd" clip-rule="evenodd" d="M56.9238 34.6895C56.2287 33.8078 55.4253 33.4314 54.3052 33.4475C51.1621 33.4933 48.0179 33.4636 44.8741 33.4632C44.5585 33.4632 38.7334 33.5076 37.8925 33.4632C36.9992 33.4161 32.0727 32.0862 32.4561 26.9122C32.4767 26.634 32.4606 16.8009 32.4599 16.5807C32.4546 14.8634 32.4434 13.1458 32.4627 11.4285C32.4962 8.41674 34.6884 6.11478 37.7124 6.04209C40.7961 5.96801 43.883 6.01449 46.9685 6.01344C53.6926 6.01134 60.4167 6.0068 67.1409 6.01553C69.98 6.01938 71.9681 7.3865 72.7076 9.86669C72.8795 10.4423 72.9403 11.0703 72.9424 11.6741C72.9603 17.0301 72.9697 22.3864 72.9473 27.7424C72.9354 30.5937 71.222 32.9034 68.6656 33.3476C67.4198 33.5639 66.1138 33.4545 64.8347 33.4597C61.8653 33.4716 61.6 33.7288 61.5997 36.7C61.5997 37.7956 61.5997 38.8908 61.5997 39.9864C61.5186 40.0109 61.4372 40.035 61.3558 40.0595C59.874 38.273 58.3601 36.5117 56.9238 34.6895Z" fill="#37CC3A"/>
</g>
<g style="mix-blend-mode:overlay">
<path fill-rule="evenodd" clip-rule="evenodd" d="M50.9926 19.5546C50.9677 19.4855 50.9444 19.4149 50.9225 19.3426C50.7113 18.6433 50.6057 17.7475 50.6057 16.6549C50.6057 15.6789 50.6822 14.8595 50.8351 14.1967C50.9881 13.5339 51.243 12.9986 51.5999 12.5907C51.9568 12.1828 52.4339 11.8878 53.0311 11.7058C53.6284 11.5237 54.3567 11.4326 55.2162 11.4326C55.7115 11.4326 56.1849 11.4508 56.6365 11.4872C57.0881 11.5237 57.5396 11.5783 57.9912 11.6511C58.4428 11.724 58.8944 11.8259 59.346 11.957L58.8871 15.2565C58.2316 15.1254 57.6635 15.0307 57.1827 14.9724C56.702 14.9142 56.2067 14.885 55.6969 14.885C55.2744 14.885 54.903 14.8959 54.5825 14.9178C54.262 14.9396 53.9707 14.9724 53.7085 15.0161V18.5082C55.0092 18.2341 56.6261 18.0971 58.5593 18.0971V20.9814C56.3888 20.9814 54.7755 21.1671 53.7194 21.5385C52.6633 21.91 52.1352 22.4963 52.1352 23.2975V25.6137C52.4411 25.6574 52.8345 25.6938 53.3152 25.723C53.7959 25.7521 54.2475 25.7667 54.6699 25.7667C55.3691 25.7667 56.0392 25.7266 56.6802 25.6465C57.3211 25.5664 58.0058 25.4389 58.7341 25.2641L59.1056 28.5635C58.3772 28.782 57.5651 28.9496 56.6692 29.0661C55.7734 29.1826 54.8374 29.2409 53.8614 29.2409C52.9437 29.2409 52.1789 29.1462 51.5671 28.9569C50.9553 28.7675 50.4637 28.4616 50.0922 28.0391C49.7207 27.6167 49.4512 27.0522 49.2837 26.3457C49.1162 25.6392 49.0324 24.7688 49.0324 23.7345C49.0324 22.3798 49.3529 21.2909 49.9939 20.4679C50.261 20.1248 50.5939 19.8204 50.9926 19.5546Z" fill="#CEF0CC"/>
</g>
<g style="mix-blend-mode:hard-light">
<path fill-rule="evenodd" clip-rule="evenodd" d="M11.3721 51.8995C11.3721 50.0387 11.377 48.3631 11.3701 46.6876C11.3664 45.8103 11.4049 44.9265 11.3125 44.0577C11.1722 42.7357 10.5171 42.1552 9.18291 42.0923C8.10454 42.0416 7.02332 42.0408 5.94373 42.0262C2.48967 41.9796 0.102239 39.0368 0.0612926 35.8653C-0.0238425 29.316 -0.0185723 22.7634 0.0665629 16.2141C0.110347 12.861 2.91981 10.2587 6.34264 10.2043C9.1444 10.1597 11.9478 10.1926 14.7503 10.1926C23.1913 10.1922 31.6343 10.3033 40.0724 10.148C44.6336 10.0641 47.1925 13.4995 47.1232 17.2304C47.0113 23.2381 47.092 29.2499 47.0936 35.2596C47.094 37.945 46.0643 40.1156 43.6229 41.3172C42.5826 41.8292 41.3008 42.0141 40.1206 42.0461C36.7128 42.1393 33.2997 42.0331 29.891 42.1118C29.0247 42.1316 28.0744 42.3834 27.3208 42.8087C22.4445 45.5585 17.6129 48.3879 12.7635 51.1856C12.3686 51.4138 11.9514 51.6035 11.3721 51.8995Z" fill="#0F35F5"/>
</g>
<g style="mix-blend-mode:color-dodge">
<path fill-rule="evenodd" clip-rule="evenodd" d="M32.9011 35.2591C31.587 35.2591 30.3572 35.2705 29.1284 35.2429C28.993 35.2399 28.7939 35.0371 28.7413 34.8861C28.3947 33.8924 28.0698 32.8905 27.7619 31.8839C27.6826 31.6247 27.5749 31.5259 27.2972 31.5274C25.2176 31.5382 23.138 31.5332 20.9933 31.5332C20.7062 32.3836 20.4135 33.2419 20.1262 34.1023C19.7395 35.2591 19.7412 35.2597 18.5234 35.2597C17.6406 35.2597 16.7575 35.2597 15.8108 35.2597C15.8786 35.0423 15.9273 34.8653 15.9885 34.6926C17.9988 29.0378 20.0151 23.385 22.0113 17.7251C22.1582 17.3082 22.3546 17.1788 22.7858 17.189C24.0323 17.2188 25.2796 17.1996 26.552 17.1996C28.6622 23.2017 30.7661 29.1867 32.9011 35.2591ZM24.4414 21.575C24.4017 21.569 24.362 21.563 24.3224 21.5569C23.5686 23.8416 22.8145 26.1261 22.0515 28.4387H26.5903C25.8633 26.1166 25.1525 23.8458 24.4414 21.575Z" fill="#CFD6FF"/>
</g>
</g>
<defs>
<clipPath id="clip0_20645_9031">
<rect width="73" height="46" fill="white" transform="translate(0 6)"/>
</clipPath>
</defs>
</svg>
