<svg width="76" height="56" viewBox="0 0 76 56" fill="none" xmlns="http://www.w3.org/2000/svg">
<g clip-path="url(#clip0_21704_12099)">
<g style="mix-blend-mode:darken">
<path fill-rule="evenodd" clip-rule="evenodd" d="M37.0269 30.9147C35.7664 30.9053 34.6007 30.5182 33.6213 29.6999C32.3016 28.5972 31.8018 27.1403 32.07 25.479C32.3469 23.7642 33.2569 22.4469 34.8916 21.7163C35.1219 21.6133 35.371 21.545 35.6175 21.4873C36.3517 21.3156 36.6858 20.9673 36.7379 20.2141C36.7901 19.4588 36.8871 18.7242 37.2103 18.0245C38.0432 16.2208 40.3985 15.2999 42.2239 16.0818C42.3052 16.1166 42.3856 16.1537 42.4671 16.1884C43.1938 16.4986 43.7849 16.2805 44.165 15.5897C45.2097 13.6908 46.7916 12.5076 48.9273 12.1122C52.1781 11.5105 55.4042 13.3788 56.4891 16.5153C56.7207 17.1848 56.8367 17.9086 56.9044 18.6171C56.9941 19.5566 57.1794 19.8605 58.0804 20.1417C60.3261 20.8425 61.8637 22.812 61.9918 25.1519C62.1582 28.1896 59.7673 30.8112 56.7228 30.9292C56.6233 30.9331 56.5238 30.94 56.4242 30.94C53.2355 30.9405 50.0468 30.9405 46.8582 30.9405C46.8582 30.9346 46.8582 30.9288 46.8582 30.923C43.5811 30.923 40.3038 30.9393 37.0269 30.9147Z" fill="#37CC3A"/>
</g>
<g style="mix-blend-mode:hard-light">
<path fill-rule="evenodd" clip-rule="evenodd" d="M14.0431 44.2635C12.0262 44.2484 10.1611 43.6291 8.59406 42.3198C6.48253 40.5555 5.68287 38.2245 6.11193 35.5663C6.55503 32.8227 8.01105 30.715 10.6265 29.546C10.995 29.3812 11.3936 29.2719 11.788 29.1797C12.9628 28.905 13.4973 28.3477 13.5806 27.1425C13.6642 25.934 13.8194 24.7587 14.3365 23.6392C15.6692 20.7533 19.4377 19.2799 22.3582 20.5309C22.4883 20.5866 22.617 20.6459 22.7473 20.7014C23.9101 21.1977 24.8559 20.8488 25.464 19.7436C27.1356 16.7053 29.6666 14.8121 33.0836 14.1795C38.2849 13.2168 43.4467 16.206 45.1825 21.2245C45.5531 22.2957 45.7387 23.4538 45.847 24.5873C45.9905 26.0905 46.2871 26.5768 47.7287 27.0267C51.3217 28.148 53.7819 31.2993 53.9869 35.0431C54.2531 39.9034 50.4276 44.0979 45.5565 44.2867C45.3973 44.2929 45.238 44.3039 45.0788 44.3039C39.9767 44.3048 34.8749 44.3048 29.7731 44.3048C29.7731 44.2954 29.7731 44.2861 29.7731 44.2767C24.5297 44.2767 19.2861 44.3029 14.0431 44.2635Z" fill="#0F35F5"/>
</g>
</g>
<defs>
<clipPath id="clip0_21704_12099">
<rect width="56" height="33" fill="white" transform="translate(6 12)"/>
</clipPath>
</defs>
</svg>
