<svg width="32" height="32" viewBox="0 0 32 32" fill="none" xmlns="http://www.w3.org/2000/svg">
<path fill-rule="evenodd" clip-rule="evenodd" d="M25.8972 16.2289C26.548 16.414 26.9275 16.8213 26.9875 17.4265C27.0425 17.98 26.7235 18.464 26.1374 18.7557C26.0343 18.8072 26.0343 18.8072 25.9305 18.8598L25.8872 18.8817C25.4324 19.1122 25.2201 19.213 24.9472 19.3184C22.8397 20.132 20.7676 20.0471 18.8054 19.0408C18.3295 18.7967 17.9716 18.5606 17.2002 18.0105L17.1778 17.9945C16.8997 17.7962 16.763 17.6999 16.6013 17.5898C16.569 17.5678 16.569 17.5678 16.5369 17.5459L16.4925 17.5155C15.9704 17.1592 15.7091 17.0138 15.369 16.9243C14.3971 16.6682 13.5254 16.8265 12.7286 17.4101C12.3453 17.6908 12.0265 17.9304 11.7266 18.1651C11.7171 18.1725 11.7045 18.1917 11.7048 18.1547C11.6992 18.9234 11.6983 19.5348 11.6989 20.9411C11.699 21.1362 11.699 21.2157 11.699 21.3171C11.7075 21.317 11.7162 21.317 11.7253 21.3169C12.0655 21.314 12.2116 21.3142 12.3992 21.3204C13.8439 21.3681 14.9011 22.0289 15.463 23.2978C15.6353 23.687 15.7161 24.122 15.7596 24.7188C15.7871 25.0947 15.7899 25.4376 15.7794 26.0369C15.7784 26.0943 15.7784 26.0943 15.7773 26.1517C15.7733 26.375 15.7717 26.4733 15.7706 26.5963C15.7627 27.4666 15.2332 27.9971 14.3671 27.9981C11.643 28.0007 8.99381 28.0007 6.40025 27.9978C5.55227 27.9969 5.01089 27.4589 5.00349 26.6123C4.99882 26.0682 4.99907 25.5393 5.00284 24.7266C5.01162 22.8109 6.45311 21.353 8.37119 21.3198C8.55722 21.3165 8.7009 21.3164 9.04687 21.3179C9.06056 21.318 9.07307 21.318 9.08461 21.3181V21.2324C9.08461 20.3458 9.08479 19.6366 9.08531 18.0408C9.0859 16.2287 9.08608 15.4233 9.08598 14.4166C9.08573 11.7817 9.08305 9.65173 9.07654 7.60177C9.07436 6.94632 9.31022 6.47319 9.83532 6.12226C10.0428 5.98361 10.21 5.8621 10.5722 5.59144L10.5959 5.57377C11.2538 5.08219 11.571 4.86563 11.9906 4.65072C13.8441 3.70146 15.7395 3.79496 17.5443 4.90376C17.8494 5.09123 18.0841 5.25279 18.6015 5.62238L18.6049 5.62481C19.1345 6.00307 19.3735 6.16698 19.6783 6.35137C20.9961 7.14862 22.3917 7.27837 23.8455 6.74029C24.088 6.65049 24.2809 6.56252 24.7123 6.35292L24.7211 6.34867C24.8944 6.26446 24.9723 6.22704 25.0711 6.18089C25.6247 5.92276 26.2315 6.00197 26.6161 6.40194C27.0464 6.84947 27.1228 7.44803 26.8056 8.00144C25.4725 10.3267 23.7648 12.0227 21.5657 13.0819C22.8446 14.7187 24.2105 15.749 25.8972 16.2289ZM13.1715 25.3239C13.1798 24.962 13.179 24.8131 13.1615 24.6299C13.1201 24.195 12.844 23.9309 12.4344 23.9268C11.1271 23.9139 9.77538 23.9141 8.34904 23.9266C7.98703 23.9298 7.69005 24.1687 7.64588 24.4842C7.6165 24.6936 7.61486 24.8702 7.62849 25.2829C7.62979 25.3223 7.63091 25.3573 7.63188 25.3891H13.17C13.1705 25.3688 13.171 25.3472 13.1715 25.3239ZM17.3109 14.9594C17.7311 15.1924 18.0499 15.4105 18.7343 15.9111L18.7597 15.9297C18.9914 16.0992 19.1082 16.1838 19.2443 16.2799C20.0792 16.8688 20.9624 17.1903 21.9149 17.2349C21.9827 17.238 22.0458 17.2393 22.1175 17.2386C20.5982 16.1504 19.3782 14.7723 18.455 13.1093C18.1957 12.6421 18.1921 12.1747 18.4697 11.729C18.6728 11.4028 18.9486 11.2452 19.405 11.1136C20.3219 10.8493 21.1596 10.4164 21.92 9.81708C21.9696 9.77805 21.997 9.75562 22.0741 9.69141C22.0812 9.6855 22.0894 9.67854 22.0986 9.67066C20.8353 9.66774 19.6588 9.36022 18.5971 8.74192C18.1048 8.45518 17.7235 8.19716 16.9019 7.61343L16.8654 7.58753C16.634 7.4231 16.5123 7.33707 16.3738 7.2405C15.3449 6.52321 14.2872 6.41835 13.2059 6.94218C12.9447 7.06872 12.739 7.20943 12.3017 7.54192L12.2861 7.55381C12.0418 7.73956 11.9276 7.82395 11.7824 7.92243C11.7077 7.97311 11.6934 8.00151 11.6938 8.10494C11.6984 9.57839 11.6992 10.757 11.699 13.4088C11.6989 14.171 11.6989 14.568 11.699 14.9775C13.5516 13.9374 15.4461 13.9255 17.3109 14.9594Z" fill="#252833"/>
<path d="M17.3109 14.9595C17.7311 15.1925 18.0499 15.4106 18.7343 15.9112L18.7597 15.9298C18.9914 16.0993 19.1082 16.1839 19.2443 16.28C20.0791 16.869 20.9624 17.1905 21.9149 17.235C21.9827 17.2381 22.0458 17.2394 22.1175 17.2387C20.5982 16.1506 19.3782 14.7725 18.455 13.1094C18.1957 12.6422 18.1921 12.1749 18.4697 11.7291C18.6728 11.4029 18.9486 11.2453 19.405 11.1137C20.3219 10.8494 21.1596 10.4166 21.92 9.81721C21.9695 9.77817 21.997 9.75574 22.0741 9.69153C22.0812 9.68562 22.0894 9.67866 22.0986 9.67079C20.8353 9.66786 19.6588 9.36034 18.5971 8.74204C18.1047 8.4553 17.7235 8.19728 16.9019 7.61356L16.8654 7.58766C16.634 7.42322 16.5123 7.33719 16.3738 7.24062C15.3449 6.52333 14.2872 6.41847 13.2059 6.9423C12.9447 7.06884 12.739 7.20956 12.3017 7.54204L12.2861 7.55393C12.0418 7.73968 11.9276 7.82407 11.7824 7.92255C11.7077 7.97323 11.6934 8.00163 11.6938 8.10507C11.6984 9.57852 11.6992 10.7572 11.699 13.4089C11.6989 14.1711 11.6989 14.5681 11.699 14.9776C13.5516 13.9375 15.4461 13.9256 17.3109 14.9595Z" fill="#E9ECF0"/>
</svg>
