<svg xmlns="http://www.w3.org/2000/svg" width="40" height="40" viewBox="0 0 40 40" fill="none">
<path fill-rule="evenodd" clip-rule="evenodd" d="M32.3715 20.2862C33.185 20.5175 33.6594 21.0267 33.7344 21.7831C33.8031 22.475 33.4043 23.08 32.6718 23.4446C32.5429 23.5091 32.5429 23.5091 32.4131 23.5748L32.3589 23.6022C31.7905 23.8902 31.5252 24.0163 31.184 24.148C28.5496 25.165 25.9595 25.0588 23.5068 23.801C22.9119 23.4959 22.4645 23.2008 21.5003 22.5131L21.4723 22.4932C21.1246 22.2452 20.9538 22.1249 20.7516 21.9872C20.7112 21.9597 20.7112 21.9597 20.6711 21.9323L20.6156 21.8944C19.9629 21.449 19.6363 21.2673 19.2113 21.1554C17.9964 20.8352 16.9068 21.0331 15.9108 21.7626C15.4317 22.1134 15.0332 22.413 14.6582 22.7064C14.6464 22.7156 14.6306 22.7396 14.631 22.6934C14.624 23.6543 14.6229 24.4185 14.6236 26.1764C14.6237 26.4202 14.6238 26.5197 14.6238 26.6464C14.6344 26.6463 14.6453 26.6462 14.6566 26.6461C15.0819 26.6425 15.2645 26.6428 15.4989 26.6505C17.3049 26.7101 18.6263 27.5361 19.3287 29.1223C19.5441 29.6088 19.6451 30.1525 19.6995 30.8984C19.7338 31.3683 19.7374 31.797 19.7243 32.5461C19.723 32.6179 19.723 32.6179 19.7217 32.6896C19.7166 32.9687 19.7147 33.0917 19.7133 33.2454C19.7034 34.3333 19.0415 34.9964 17.9589 34.9976C14.5538 35.0009 11.2423 35.0008 8.00031 34.9973C6.94033 34.9961 6.26361 34.3237 6.25437 33.2654C6.24853 32.5852 6.24884 31.9241 6.25355 30.9082C6.26453 28.5136 8.06639 26.6912 10.464 26.6497C10.6965 26.6456 10.8761 26.6455 11.3086 26.6474C11.3257 26.6475 11.3413 26.6475 11.3558 26.6476V26.5405C11.3558 25.4322 11.356 24.5457 11.3566 22.551C11.3574 20.2859 11.3576 19.2791 11.3575 18.0208C11.3572 14.7271 11.3538 12.0647 11.3457 9.50221C11.3429 8.6829 11.6378 8.09148 12.2942 7.65282C12.5535 7.47951 12.7625 7.32763 13.2153 6.9893L13.2448 6.96722C14.0672 6.35274 14.4637 6.08204 14.9882 5.81339C17.3051 4.62683 19.6744 4.7437 21.9304 6.1297C22.3117 6.36403 22.6051 6.56599 23.2519 7.02798L23.2562 7.03102C23.9181 7.50384 24.2169 7.70873 24.5979 7.93921C26.2452 8.93578 27.9896 9.09796 29.8068 8.42536C30.11 8.31311 30.3511 8.20315 30.8904 7.94115L30.9013 7.93584C31.118 7.83057 31.2153 7.78379 31.3389 7.72611C32.0308 7.40345 32.7894 7.50247 33.2701 8.00243C33.808 8.56184 33.9035 9.31004 33.5069 10.0018C31.8406 12.9084 29.706 15.0284 26.9572 16.3524C28.5558 18.3984 30.2631 19.6862 32.3715 20.2862ZM16.4653 31.6547C16.4757 31.2023 16.4746 31.0161 16.4528 30.7872C16.401 30.2435 16.0559 29.9134 15.5439 29.9084C13.9097 29.8921 12.2201 29.8925 10.4372 29.9081C9.98468 29.9121 9.61345 30.2107 9.55824 30.605C9.52152 30.8668 9.51946 31.0875 9.5365 31.6034C9.53813 31.6527 9.53953 31.6965 9.54074 31.7361H16.4634C16.464 31.7109 16.4646 31.6838 16.4653 31.6547ZM21.6382 18.6991C22.1635 18.9904 22.5619 19.2631 23.4174 19.8888L23.4491 19.912C23.7387 20.1239 23.8848 20.2297 24.055 20.3498C25.0985 21.086 26.2026 21.4879 27.3932 21.5435C27.4779 21.5475 27.5568 21.549 27.6464 21.5481C25.7473 20.188 24.2224 18.4653 23.0683 16.3866C22.7442 15.8025 22.7397 15.2184 23.0867 14.6611C23.3405 14.2534 23.6854 14.0564 24.2558 13.8919C25.402 13.5615 26.449 13.0205 27.3996 12.2713C27.4615 12.2225 27.4958 12.1944 27.5922 12.1142C27.601 12.1068 27.6113 12.0981 27.6228 12.0883C26.0437 12.0846 24.573 11.7002 23.2459 10.9273C22.6305 10.5689 22.1539 10.2464 21.1269 9.51671L21.0813 9.48434C20.792 9.27879 20.6399 9.17126 20.4668 9.05055C19.1806 8.15393 17.8585 8.02286 16.5069 8.67765C16.1804 8.83582 15.9233 9.01171 15.3767 9.42731L15.3571 9.44218C15.0518 9.67437 14.909 9.77986 14.7275 9.90295C14.6342 9.9663 14.6164 10.0018 14.6168 10.1311C14.6225 11.9729 14.6236 13.4462 14.6233 16.7609C14.6232 17.7137 14.6232 18.2099 14.6233 18.7217C16.939 17.4216 19.3072 17.4068 21.6382 18.6991Z" fill="#B1C2C9"/>
<path d="M21.6381 18.6992C22.1634 18.9905 22.5618 19.2632 23.4173 19.8889L23.449 19.9121C23.7387 20.124 23.8847 20.2298 24.0549 20.3499C25.0984 21.0861 26.2025 21.488 27.3931 21.5436C27.4779 21.5476 27.5567 21.5491 27.6463 21.5482C25.7473 20.1881 24.2223 18.4655 23.0682 16.3867C22.7441 15.8026 22.7396 15.2185 23.0866 14.6612C23.3404 14.2535 23.6853 14.0565 24.2557 13.892C25.4019 13.5616 26.4489 13.0206 27.3995 12.2714C27.4614 12.2226 27.4957 12.1946 27.5921 12.1143C27.6009 12.1069 27.6112 12.0982 27.6227 12.0884C26.0436 12.0847 24.573 11.7003 23.2459 10.9274C22.6304 10.569 22.1538 10.2465 21.1268 9.51682L21.0813 9.48445C20.7919 9.2789 20.6398 9.17137 20.4667 9.05066C19.1806 8.15404 17.8584 8.02297 16.5069 8.67775C16.1803 8.83593 15.9232 9.01182 15.3766 9.42742L15.357 9.44229C15.0517 9.67448 14.909 9.77997 14.7274 9.90306C14.6341 9.96641 14.6163 10.0019 14.6167 10.1312C14.6224 11.973 14.6235 13.4463 14.6232 16.7611C14.6231 17.7138 14.6231 18.21 14.6232 18.7218C16.9389 17.4217 19.3071 17.4069 21.6381 18.6992Z" fill="transparent"/>
</svg>