<svg width="52" height="52" viewBox="0 0 52 52" fill="none" xmlns="http://www.w3.org/2000/svg">
<rect x="5" y="6" width="42" height="40" rx="10" fill="#0BCD0F"/>
<path d="M12.604 33L18.544 20.31H21.244L27.22 33H23.89L22.36 29.508L23.638 30.426H16.186L17.446 29.508L15.934 33H12.604ZM19.876 23.73L17.77 28.752L17.266 27.906H22.54L22.09 28.752L19.966 23.73H19.876ZM33.8596 33.198C32.4796 33.198 31.2856 32.928 30.2776 32.388C29.2816 31.848 28.5076 31.086 27.9556 30.102C27.4156 29.118 27.1456 27.966 27.1456 26.646C27.1456 25.326 27.4156 24.18 27.9556 23.208C28.5076 22.224 29.2816 21.462 30.2776 20.922C31.2856 20.382 32.4796 20.112 33.8596 20.112C34.7356 20.112 35.5336 20.232 36.2536 20.472C36.9736 20.7 37.5796 21.03 38.0716 21.462L37.0816 24.072C36.5296 23.676 36.0196 23.4 35.5516 23.244C35.0956 23.076 34.5736 22.992 33.9856 22.992C32.9056 22.992 32.0716 23.31 31.4836 23.946C30.9076 24.57 30.6196 25.47 30.6196 26.646C30.6196 27.834 30.9076 28.746 31.4836 29.382C32.0716 30.006 32.9056 30.318 33.9856 30.318C34.5736 30.318 35.0956 30.24 35.5516 30.084C36.0196 29.916 36.5296 29.634 37.0816 29.238L38.0716 31.848C37.5796 32.28 36.9736 32.616 36.2536 32.856C35.5336 33.084 34.7356 33.198 33.8596 33.198Z" fill="#CBFCDE"/>
</svg>
