<svg width="48" height="48" viewBox="0 0 48 48" fill="none" xmlns="http://www.w3.org/2000/svg">
<rect width="48" height="48" rx="24" fill="#EBEDFA"/>
<path fill-rule="evenodd" clip-rule="evenodd" d="M24.0007 17.5681C24.05 17.4609 24.0987 17.3518 24.1479 17.2418L24.1479 17.2418C24.2598 16.9913 24.3738 16.7362 24.5006 16.4876C24.5343 16.4216 24.5678 16.3554 24.6013 16.2892C24.805 15.8868 25.0094 15.4831 25.254 15.1067C25.8669 14.1639 27.0077 13.7824 28.0811 14.1222C29.1157 14.4497 29.8308 15.4304 29.8139 16.5274C29.8006 17.3918 29.4642 18.117 28.7136 18.5636C28.2226 18.8557 27.7085 19.1092 27.1945 19.3627C26.9717 19.4726 26.7488 19.5826 26.5278 19.6956L26.5096 19.7048C26.4501 19.7349 26.3895 19.7654 26.3331 19.8327H26.5686L28.262 19.8326C29.5793 19.8325 30.8965 19.8324 32.2138 19.8329C33.2918 19.8333 33.9889 20.5228 33.9972 21.598C34.0009 22.0856 34.001 22.5731 33.9972 23.0607C33.9887 24.1373 33.2941 24.8253 32.2144 24.8254C26.7367 24.8262 21.259 24.8263 15.7814 24.8254C14.7029 24.8252 14.0092 24.1346 14.0021 23.0569C13.999 22.577 13.9997 22.097 14.0019 21.617C14.0071 20.5262 14.7013 19.8332 15.7892 19.8328C17.0113 19.8323 18.2334 19.8322 19.4555 19.8321L21.5945 19.8319C21.6034 19.8319 21.6123 19.8306 21.6343 19.8274L21.6343 19.8274L21.6343 19.8274C21.6495 19.8252 21.671 19.8222 21.7031 19.818C21.6609 19.7983 21.6242 19.7815 21.5912 19.7664L21.5912 19.7664C21.5286 19.7378 21.4792 19.7152 21.4309 19.6903C21.2039 19.5732 20.9746 19.4597 20.7452 19.3462C20.2177 19.0851 19.6901 18.824 19.19 18.518C18.3319 17.9929 17.9696 16.8992 18.2279 15.888C18.4832 14.8887 19.3453 14.1216 20.3365 14.027C21.4173 13.9237 22.2728 14.314 22.8128 15.2659C23.1052 15.7813 23.3703 16.3121 23.6375 16.8473C23.7573 17.087 23.8775 17.3277 24.0007 17.5681ZM25.5004 18.2398L25.5855 18.3202C25.794 18.2147 26.0031 18.1102 26.2121 18.0056C26.728 17.7477 27.2438 17.4898 27.7519 17.2174C28.073 17.0452 28.2085 16.6887 28.1382 16.3619C28.0602 15.9995 27.8368 15.77 27.4776 15.6866C27.1418 15.6087 26.785 15.7391 26.6146 16.0555C26.3388 16.5673 26.0785 17.0874 25.8182 17.6075L25.8181 17.6076C25.7125 17.8185 25.607 18.0294 25.5004 18.2398ZM22.4053 18.2887L22.4667 18.2373C22.3578 18.0242 22.2501 17.8105 22.1424 17.5967L22.1423 17.5966C21.8762 17.0684 21.61 16.5402 21.3259 16.0218C21.1546 15.709 20.7638 15.5997 20.4258 15.704C20.0913 15.8072 19.8826 16.0315 19.828 16.3807C19.7735 16.7289 19.8847 17.0313 20.1908 17.2024C20.6105 17.4369 21.0425 17.6496 21.4744 17.8621L21.4747 17.8623C21.5736 17.9109 21.6725 17.9596 21.7712 18.0085C21.913 18.0788 22.059 18.1407 22.205 18.2027C22.2719 18.2311 22.3388 18.2595 22.4053 18.2887ZM15.6812 26.5071H22.3269C22.3282 26.5359 22.3298 26.5638 22.3314 26.5912C22.3347 26.6481 22.3378 26.7024 22.3378 26.7568C22.3379 27.3341 22.3378 27.9114 22.3378 28.4887V28.4895C22.3375 30.2346 22.3372 31.9799 22.3433 33.725C22.3441 33.9487 22.278 34.0013 22.0617 34C21.1905 33.9947 20.3193 33.995 19.4481 33.9953C18.781 33.9955 18.1138 33.9957 17.4466 33.9935C16.5361 33.9904 15.8671 33.4614 15.7007 32.6259C15.68 32.5223 15.6746 32.4142 15.6745 32.3081C15.673 30.5239 15.6732 28.7398 15.6734 26.9556V26.9552L15.6734 26.6878C15.6734 26.6537 15.6753 26.6195 15.6775 26.5786L15.6775 26.5785C15.6787 26.5569 15.68 26.5335 15.6812 26.5071ZM32.326 26.7564V26.5154H25.6734C25.6718 26.5359 25.6699 26.5545 25.6681 26.5719C25.6646 26.6064 25.6616 26.636 25.6616 26.6656C25.6615 27.2447 25.6615 27.8238 25.6616 28.4029C25.6616 30.1999 25.6617 31.9967 25.6571 33.7936C25.6566 33.9836 25.7406 33.9979 25.8916 33.9975C26.6477 33.9957 27.4038 33.9958 28.1598 33.9959C28.9497 33.9961 29.7396 33.9962 30.5295 33.9941C31.6346 33.9912 32.325 33.2957 32.3257 32.1938C32.3264 30.9182 32.3262 29.6426 32.3261 28.367C32.326 27.8301 32.326 27.2933 32.326 26.7564Z" fill="#525C75"/>
</svg>
