<svg width="48" height="49" viewBox="0 0 48 49" fill="none" xmlns="http://www.w3.org/2000/svg">
<rect y="0.5" width="48" height="48" rx="24" fill="#EBEDFA"/>
<mask id="path-2-inside-1_22781_22668" fill="white">
<path fill-rule="evenodd" clip-rule="evenodd" d="M26.3257 19.2041C26.2805 22.0677 24.0992 24.4218 21.1241 24.4226C17.9937 24.4234 15.9597 21.8018 15.9418 19.2462C15.9235 16.6407 17.991 13.9954 21.1375 14C24.0682 14.0043 26.2714 16.322 26.3257 19.2041ZM24.7627 19.2131C24.7633 17.2097 23.137 15.5527 21.1582 15.5546C19.1742 15.5564 17.4955 17.0873 17.4946 19.2096C17.4938 21.337 19.177 22.8583 21.127 22.8672C23.1315 22.8764 24.7622 21.2292 24.7627 19.2131ZM21.1269 22.295L21.0719 22.2951C21.0353 22.2952 20.9987 22.2953 20.9621 22.295C20.919 22.2946 20.8795 22.2948 20.8431 22.2949H20.843C20.4899 22.2962 20.4395 22.2964 20.4692 21.8283C20.4781 21.6868 20.4078 21.6113 20.2893 21.5519C20.0903 21.4522 19.9184 21.3121 19.7466 21.1721L19.6853 21.1222C19.5519 21.0141 19.5266 20.9179 19.6623 20.7854C19.8657 20.5868 20.0597 20.3779 20.2492 20.1658C20.364 20.0375 20.4675 20.0198 20.5965 20.1423C20.717 20.257 20.8574 20.3453 21.0148 20.4014C21.2231 20.4757 21.471 20.393 21.5012 20.2274C21.5411 20.0082 21.371 19.9574 21.2193 19.9121L21.2015 19.9068C21.0971 19.8753 20.991 19.8501 20.8848 19.8249C20.7683 19.7972 20.6518 19.7696 20.5377 19.7337C19.8808 19.5271 19.4675 19.0805 19.3952 18.3928C19.3259 17.7336 19.6519 17.2361 20.2029 16.905C20.403 16.7847 20.5051 16.6632 20.4706 16.4298C20.4368 16.2011 20.5469 16.1156 20.7704 16.1262C21.0171 16.1379 21.2652 16.1372 21.5119 16.1262C21.7202 16.1169 21.8349 16.1943 21.8068 16.4101C21.7708 16.6872 21.8924 16.8329 22.1298 16.9723C22.838 17.388 22.8309 17.4065 22.2666 17.9845L22.2473 18.0042C21.8795 18.3808 21.8792 18.3806 21.4341 18.1141L21.4289 18.111C21.2608 18.0104 21.0854 17.9242 20.8888 18.0438C20.6804 18.1706 20.6845 18.348 20.9028 18.461C21.0368 18.5304 21.1831 18.5592 21.3294 18.5879C21.39 18.5998 21.4506 18.6117 21.5104 18.6265C22.1482 18.7847 22.6359 19.1179 22.8172 19.7875C22.9976 20.4537 22.694 21.1483 22.0547 21.522C21.8845 21.6216 21.8013 21.7269 21.8047 21.931C21.8106 22.2905 21.7965 22.2932 21.429 22.295C21.3703 22.2952 21.3116 22.2951 21.2528 22.295H21.2528L21.1269 22.295ZM37.1188 31.8871C37.1191 31.4681 37.1195 31.0492 37.1195 30.6302C37.1195 30.2156 37.1195 29.801 37.1195 29.3864C37.1195 28.1427 37.1196 26.8989 37.1193 25.6551C37.1191 25.2618 37.1175 25.2596 36.7164 25.2595C35.1819 25.2589 33.6474 25.2591 32.113 25.2593L31.6016 25.2593C31.5623 25.2594 31.5229 25.2603 31.4836 25.2611C31.4588 25.2617 31.434 25.2622 31.4092 25.2626C31.2643 25.2645 31.1918 25.3313 31.1945 25.4838C31.1963 25.5827 31.195 25.6816 31.1938 25.7805C31.192 25.9213 31.1902 26.062 31.1971 26.2023C31.2072 26.407 31.1323 26.4861 30.9262 26.4693C30.4315 26.4289 29.9455 26.3377 29.4675 26.2108C28.0839 25.8434 26.695 25.6782 25.2922 26.092C23.7083 26.5592 22.0951 26.8987 20.4811 27.2373C19.4305 27.4578 18.8854 28.1432 18.8749 29.228C18.8716 29.5633 18.8704 29.5665 18.5686 29.451C17.2083 28.9301 15.9387 28.2237 14.6697 27.5176L14.6284 27.4947C14.1237 27.2138 13.6011 27.1075 13.0407 27.2423C12.0222 27.4872 11.3619 28.133 11.0873 29.1361C10.8249 30.0947 11.1687 30.8639 11.9253 31.4773C12.6974 32.1033 13.5174 32.6595 14.354 33.1912C14.7897 33.468 15.2292 33.7389 15.6686 34.0098C16.2917 34.3939 16.9148 34.7779 17.527 35.1789C18.7389 35.9724 20.085 36.0188 21.449 35.9325C22.6242 35.8582 23.7852 35.6643 24.946 35.4705C25.2665 35.417 25.5871 35.3635 25.9079 35.3125C27.41 35.0737 28.9134 34.8529 30.4416 34.8958C30.8962 34.9085 31.083 34.8971 31.156 34.9827C31.229 35.0682 31.1883 35.2508 31.188 35.6514C31.1878 35.9259 31.2873 35.997 31.5407 35.9961C33.2823 35.9899 35.0239 35.9897 36.7654 36C37.0418 36.0016 37.1268 35.9109 37.125 35.6328C37.1167 34.3843 37.1177 33.1357 37.1188 31.8871ZM31.1942 30.1266C31.1942 30.327 31.1943 30.5274 31.1943 30.7278C31.1943 30.9428 31.194 31.1578 31.1937 31.3728C31.193 31.9502 31.1922 32.5276 31.1969 33.1048C31.1985 33.3021 31.154 33.3864 30.9308 33.3617C30.1073 33.2709 29.284 33.3314 28.4625 33.4061C27.2853 33.5132 26.12 33.704 24.9547 33.8947C24.0599 34.0411 23.1652 34.1876 22.2652 34.2961C21.2574 34.4176 20.2417 34.52 19.2339 34.2609C19.0012 34.2011 18.7774 34.1206 18.5738 33.9932C18.1372 33.7202 17.6982 33.4512 17.2592 33.1822C16.1331 32.4921 15.0071 31.8021 13.9234 31.045C13.7364 30.9144 13.5559 30.7746 13.3754 30.6347C13.222 30.5159 13.0686 30.397 12.9112 30.2839C12.6141 30.0702 12.4865 29.7916 12.6048 29.4457C12.7281 29.0848 12.9825 28.8392 13.3712 28.7688C13.5566 28.7352 13.7273 28.7717 13.8985 28.8661L13.9189 28.8773C15.2859 29.6314 16.653 30.3855 18.1154 30.9454C18.9307 31.2575 19.7697 31.4868 20.6132 31.7034C21.0316 31.8109 21.4329 31.7244 21.8331 31.6381C21.9419 31.6147 22.0507 31.5912 22.1597 31.5717C22.8134 31.4546 23.4655 31.3287 24.1177 31.2028C24.4187 31.1447 24.7197 31.0866 25.0209 31.0294L25.0242 31.0288C25.4127 30.955 25.4138 30.9548 25.3446 30.5716C25.3257 30.467 25.3052 30.3628 25.2847 30.2585C25.2484 30.0737 25.2121 29.889 25.1847 29.7029C25.153 29.4869 25.0558 29.4353 24.8458 29.4765C24.0595 29.6311 23.2721 29.78 22.4846 29.9289C22.1113 29.9995 21.7379 30.0701 21.3647 30.1413C21.1048 30.1909 20.8492 30.2272 20.667 29.9697C20.4557 29.6709 20.3497 29.3472 20.4673 28.9822C20.5075 28.8577 20.6084 28.7953 20.7341 28.7699C22.4583 28.4209 24.1693 28.0181 25.8682 27.5578C26.8077 27.3031 27.758 27.3967 28.6965 27.627C29.453 27.8127 30.2133 27.983 30.9922 28.0402C31.1957 28.0551 31.1954 28.1751 31.1951 28.3204L31.1951 28.3231C31.1939 28.9243 31.194 29.5255 31.1942 30.1266ZM32.7212 31.5251C32.721 31.2265 32.7207 30.928 32.7207 30.6294C32.7207 30.3185 32.7211 30.0077 32.7216 29.6968C32.7228 28.8561 32.7241 28.0155 32.7157 27.1748C32.7131 26.919 32.7731 26.8162 33.049 26.8229C33.7818 26.8404 34.5154 26.8367 35.2485 26.8244C35.4903 26.8203 35.5658 26.9051 35.5651 27.1441C35.5587 29.4656 35.5587 31.787 35.565 34.1085C35.5655 34.3443 35.4965 34.4346 35.2514 34.4304C34.5001 34.4176 33.7483 34.4191 32.9969 34.4298C32.7757 34.433 32.7155 34.3512 32.717 34.1392C32.7228 33.2679 32.722 32.3965 32.7212 31.5251Z"/>
</mask>
<path fill-rule="evenodd" clip-rule="evenodd" d="M26.3257 19.2041C26.2805 22.0677 24.0992 24.4218 21.1241 24.4226C17.9937 24.4234 15.9597 21.8018 15.9418 19.2462C15.9235 16.6407 17.991 13.9954 21.1375 14C24.0682 14.0043 26.2714 16.322 26.3257 19.2041ZM24.7627 19.2131C24.7633 17.2097 23.137 15.5527 21.1582 15.5546C19.1742 15.5564 17.4955 17.0873 17.4946 19.2096C17.4938 21.337 19.177 22.8583 21.127 22.8672C23.1315 22.8764 24.7622 21.2292 24.7627 19.2131ZM21.1269 22.295L21.0719 22.2951C21.0353 22.2952 20.9987 22.2953 20.9621 22.295C20.919 22.2946 20.8795 22.2948 20.8431 22.2949H20.843C20.4899 22.2962 20.4395 22.2964 20.4692 21.8283C20.4781 21.6868 20.4078 21.6113 20.2893 21.5519C20.0903 21.4522 19.9184 21.3121 19.7466 21.1721L19.6853 21.1222C19.5519 21.0141 19.5266 20.9179 19.6623 20.7854C19.8657 20.5868 20.0597 20.3779 20.2492 20.1658C20.364 20.0375 20.4675 20.0198 20.5965 20.1423C20.717 20.257 20.8574 20.3453 21.0148 20.4014C21.2231 20.4757 21.471 20.393 21.5012 20.2274C21.5411 20.0082 21.371 19.9574 21.2193 19.9121L21.2015 19.9068C21.0971 19.8753 20.991 19.8501 20.8848 19.8249C20.7683 19.7972 20.6518 19.7696 20.5377 19.7337C19.8808 19.5271 19.4675 19.0805 19.3952 18.3928C19.3259 17.7336 19.6519 17.2361 20.2029 16.905C20.403 16.7847 20.5051 16.6632 20.4706 16.4298C20.4368 16.2011 20.5469 16.1156 20.7704 16.1262C21.0171 16.1379 21.2652 16.1372 21.5119 16.1262C21.7202 16.1169 21.8349 16.1943 21.8068 16.4101C21.7708 16.6872 21.8924 16.8329 22.1298 16.9723C22.838 17.388 22.8309 17.4065 22.2666 17.9845L22.2473 18.0042C21.8795 18.3808 21.8792 18.3806 21.4341 18.1141L21.4289 18.111C21.2608 18.0104 21.0854 17.9242 20.8888 18.0438C20.6804 18.1706 20.6845 18.348 20.9028 18.461C21.0368 18.5304 21.1831 18.5592 21.3294 18.5879C21.39 18.5998 21.4506 18.6117 21.5104 18.6265C22.1482 18.7847 22.6359 19.1179 22.8172 19.7875C22.9976 20.4537 22.694 21.1483 22.0547 21.522C21.8845 21.6216 21.8013 21.7269 21.8047 21.931C21.8106 22.2905 21.7965 22.2932 21.429 22.295C21.3703 22.2952 21.3116 22.2951 21.2528 22.295H21.2528L21.1269 22.295ZM37.1188 31.8871C37.1191 31.4681 37.1195 31.0492 37.1195 30.6302C37.1195 30.2156 37.1195 29.801 37.1195 29.3864C37.1195 28.1427 37.1196 26.8989 37.1193 25.6551C37.1191 25.2618 37.1175 25.2596 36.7164 25.2595C35.1819 25.2589 33.6474 25.2591 32.113 25.2593L31.6016 25.2593C31.5623 25.2594 31.5229 25.2603 31.4836 25.2611C31.4588 25.2617 31.434 25.2622 31.4092 25.2626C31.2643 25.2645 31.1918 25.3313 31.1945 25.4838C31.1963 25.5827 31.195 25.6816 31.1938 25.7805C31.192 25.9213 31.1902 26.062 31.1971 26.2023C31.2072 26.407 31.1323 26.4861 30.9262 26.4693C30.4315 26.4289 29.9455 26.3377 29.4675 26.2108C28.0839 25.8434 26.695 25.6782 25.2922 26.092C23.7083 26.5592 22.0951 26.8987 20.4811 27.2373C19.4305 27.4578 18.8854 28.1432 18.8749 29.228C18.8716 29.5633 18.8704 29.5665 18.5686 29.451C17.2083 28.9301 15.9387 28.2237 14.6697 27.5176L14.6284 27.4947C14.1237 27.2138 13.6011 27.1075 13.0407 27.2423C12.0222 27.4872 11.3619 28.133 11.0873 29.1361C10.8249 30.0947 11.1687 30.8639 11.9253 31.4773C12.6974 32.1033 13.5174 32.6595 14.354 33.1912C14.7897 33.468 15.2292 33.7389 15.6686 34.0098C16.2917 34.3939 16.9148 34.7779 17.527 35.1789C18.7389 35.9724 20.085 36.0188 21.449 35.9325C22.6242 35.8582 23.7852 35.6643 24.946 35.4705C25.2665 35.417 25.5871 35.3635 25.9079 35.3125C27.41 35.0737 28.9134 34.8529 30.4416 34.8958C30.8962 34.9085 31.083 34.8971 31.156 34.9827C31.229 35.0682 31.1883 35.2508 31.188 35.6514C31.1878 35.9259 31.2873 35.997 31.5407 35.9961C33.2823 35.9899 35.0239 35.9897 36.7654 36C37.0418 36.0016 37.1268 35.9109 37.125 35.6328C37.1167 34.3843 37.1177 33.1357 37.1188 31.8871ZM31.1942 30.1266C31.1942 30.327 31.1943 30.5274 31.1943 30.7278C31.1943 30.9428 31.194 31.1578 31.1937 31.3728C31.193 31.9502 31.1922 32.5276 31.1969 33.1048C31.1985 33.3021 31.154 33.3864 30.9308 33.3617C30.1073 33.2709 29.284 33.3314 28.4625 33.4061C27.2853 33.5132 26.12 33.704 24.9547 33.8947C24.0599 34.0411 23.1652 34.1876 22.2652 34.2961C21.2574 34.4176 20.2417 34.52 19.2339 34.2609C19.0012 34.2011 18.7774 34.1206 18.5738 33.9932C18.1372 33.7202 17.6982 33.4512 17.2592 33.1822C16.1331 32.4921 15.0071 31.8021 13.9234 31.045C13.7364 30.9144 13.5559 30.7746 13.3754 30.6347C13.222 30.5159 13.0686 30.397 12.9112 30.2839C12.6141 30.0702 12.4865 29.7916 12.6048 29.4457C12.7281 29.0848 12.9825 28.8392 13.3712 28.7688C13.5566 28.7352 13.7273 28.7717 13.8985 28.8661L13.9189 28.8773C15.2859 29.6314 16.653 30.3855 18.1154 30.9454C18.9307 31.2575 19.7697 31.4868 20.6132 31.7034C21.0316 31.8109 21.4329 31.7244 21.8331 31.6381C21.9419 31.6147 22.0507 31.5912 22.1597 31.5717C22.8134 31.4546 23.4655 31.3287 24.1177 31.2028C24.4187 31.1447 24.7197 31.0866 25.0209 31.0294L25.0242 31.0288C25.4127 30.955 25.4138 30.9548 25.3446 30.5716C25.3257 30.467 25.3052 30.3628 25.2847 30.2585C25.2484 30.0737 25.2121 29.889 25.1847 29.7029C25.153 29.4869 25.0558 29.4353 24.8458 29.4765C24.0595 29.6311 23.2721 29.78 22.4846 29.9289C22.1113 29.9995 21.7379 30.0701 21.3647 30.1413C21.1048 30.1909 20.8492 30.2272 20.667 29.9697C20.4557 29.6709 20.3497 29.3472 20.4673 28.9822C20.5075 28.8577 20.6084 28.7953 20.7341 28.7699C22.4583 28.4209 24.1693 28.0181 25.8682 27.5578C26.8077 27.3031 27.758 27.3967 28.6965 27.627C29.453 27.8127 30.2133 27.983 30.9922 28.0402C31.1957 28.0551 31.1954 28.1751 31.1951 28.3204L31.1951 28.3231C31.1939 28.9243 31.194 29.5255 31.1942 30.1266ZM32.7212 31.5251C32.721 31.2265 32.7207 30.928 32.7207 30.6294C32.7207 30.3185 32.7211 30.0077 32.7216 29.6968C32.7228 28.8561 32.7241 28.0155 32.7157 27.1748C32.7131 26.919 32.7731 26.8162 33.049 26.8229C33.7818 26.8404 34.5154 26.8367 35.2485 26.8244C35.4903 26.8203 35.5658 26.9051 35.5651 27.1441C35.5587 29.4656 35.5587 31.787 35.565 34.1085C35.5655 34.3443 35.4965 34.4346 35.2514 34.4304C34.5001 34.4176 33.7483 34.4191 32.9969 34.4298C32.7757 34.433 32.7155 34.3512 32.717 34.1392C32.7228 33.2679 32.722 32.3965 32.7212 31.5251Z" fill="#525C75"/>
<path d="M21.1241 24.4226L21.1244 25.4226H21.1244L21.1241 24.4226ZM26.3257 19.2041L27.3256 19.2199L27.3259 19.2026L27.3255 19.1853L26.3257 19.2041ZM15.9418 19.2462L14.9418 19.2532V19.2533L15.9418 19.2462ZM21.1375 14L21.1361 15H21.1361L21.1375 14ZM21.1582 15.5546L21.1592 16.5546H21.1592L21.1582 15.5546ZM24.7627 19.2131L23.7627 19.2128V19.2128L24.7627 19.2131ZM17.4946 19.2096L16.4946 19.2092V19.2092L17.4946 19.2096ZM21.127 22.8672L21.1224 23.8672H21.1224L21.127 22.8672ZM21.0719 22.2951L21.0702 21.2951L21.0693 21.2951L21.0719 22.2951ZM21.1269 22.295L21.1273 21.295L21.1251 21.295L21.1269 22.295ZM20.9621 22.295L20.9539 23.295L20.954 23.295L20.9621 22.295ZM20.8431 22.2949V23.2949L20.8468 23.2949L20.8431 22.2949ZM20.843 22.2949V21.2949L20.8393 21.2949L20.843 22.2949ZM20.4692 21.8283L21.4672 21.8915L21.4672 21.8912L20.4692 21.8283ZM20.2893 21.5519L20.7373 20.6579L20.7372 20.6578L20.2893 21.5519ZM19.7466 21.1721L20.3784 20.3969L20.3776 20.3963L19.7466 21.1721ZM19.6853 21.1222L20.3162 20.3464L20.3148 20.3452L19.6853 21.1222ZM19.6623 20.7854L18.9637 20.0699L18.9636 20.07L19.6623 20.7854ZM20.2492 20.1658L19.5036 19.4994L19.5036 19.4995L20.2492 20.1658ZM20.5965 20.1423L21.2856 19.4177L21.2853 19.4174L20.5965 20.1423ZM21.0148 20.4014L21.3507 19.4595L21.3504 19.4594L21.0148 20.4014ZM21.5012 20.2274L22.485 20.4066L22.485 20.4065L21.5012 20.2274ZM21.2193 19.9121L20.9325 20.8701L20.9332 20.8703L21.2193 19.9121ZM21.2015 19.9068L20.9131 20.8643L20.9147 20.8647L21.2015 19.9068ZM20.8848 19.8249L21.1159 18.852L21.1159 18.852L20.8848 19.8249ZM20.5377 19.7337L20.8378 18.7798L20.8377 18.7797L20.5377 19.7337ZM19.3952 18.3928L20.3898 18.2882L20.3898 18.2882L19.3952 18.3928ZM20.2029 16.905L20.718 17.7622L20.7181 17.762L20.2029 16.905ZM20.4706 16.4298L19.4813 16.5759L19.4814 16.5763L20.4706 16.4298ZM20.7704 16.1262L20.8179 15.1273L20.8179 15.1273L20.7704 16.1262ZM21.5119 16.1262L21.4674 15.1272L21.4672 15.1272L21.5119 16.1262ZM21.8068 16.4101L20.8151 16.2813L20.8151 16.2814L21.8068 16.4101ZM22.1298 16.9723L21.6234 17.8346L21.6236 17.8348L22.1298 16.9723ZM22.2666 17.9845L22.9814 18.6838L22.9821 18.6831L22.2666 17.9845ZM22.2473 18.0042L21.5325 17.3049L21.5319 17.3055L22.2473 18.0042ZM21.4341 18.1141L20.9203 18.9721L20.9204 18.9721L21.4341 18.1141ZM21.4289 18.111L21.9426 17.2531L21.9425 17.253L21.4289 18.111ZM20.8888 18.0438L20.3693 17.1893L20.3688 17.1896L20.8888 18.0438ZM20.9028 18.461L20.443 19.349L20.443 19.3491L20.9028 18.461ZM21.3294 18.5879L21.1366 19.5691L21.1366 19.5691L21.3294 18.5879ZM21.5104 18.6265L21.751 17.6559L21.751 17.6559L21.5104 18.6265ZM22.8172 19.7875L23.7825 19.5263L23.7825 19.5262L22.8172 19.7875ZM22.0547 21.522L21.55 20.6587L21.5499 20.6588L22.0547 21.522ZM21.8047 21.931L22.8046 21.9144L22.8046 21.9142L21.8047 21.931ZM21.429 22.295L21.4323 23.295L21.4338 23.295L21.429 22.295ZM21.2528 22.295L21.254 21.295H21.2528V22.295ZM21.2528 22.295L21.2524 23.295H21.2528V22.295ZM37.1188 31.8871L36.1188 31.8862V31.8862L37.1188 31.8871ZM37.1195 29.3864L36.1195 29.3864V29.3864L37.1195 29.3864ZM37.1193 25.6551L38.1193 25.6549V25.6548L37.1193 25.6551ZM36.7164 25.2595L36.716 26.2595H36.7161L36.7164 25.2595ZM32.113 25.2593L32.1131 26.2593H32.1131L32.113 25.2593ZM31.6016 25.2593L31.6014 24.2593L31.5999 24.2593L31.6016 25.2593ZM31.4836 25.2611L31.5054 26.2609H31.5054L31.4836 25.2611ZM31.4092 25.2626L31.4229 26.2625L31.4229 26.2625L31.4092 25.2626ZM31.1945 25.4838L32.1943 25.4659L32.1943 25.4658L31.1945 25.4838ZM31.1938 25.7805L30.1939 25.7679V25.7679L31.1938 25.7805ZM31.1971 26.2023L32.1959 26.1534L32.1959 26.1531L31.1971 26.2023ZM30.9262 26.4693L30.8446 27.466L30.8449 27.466L30.9262 26.4693ZM29.4675 26.2108L29.7242 25.2443L29.7241 25.2443L29.4675 26.2108ZM25.2922 26.092L25.5751 27.0512L25.5751 27.0512L25.2922 26.092ZM20.4811 27.2373L20.2758 26.2586L20.2757 26.2587L20.4811 27.2373ZM18.8749 29.228L19.8748 29.2379L19.8748 29.2378L18.8749 29.228ZM18.5686 29.451L18.9262 28.5171L18.9262 28.5171L18.5686 29.451ZM14.6697 27.5176L15.1559 26.6438L15.1559 26.6438L14.6697 27.5176ZM14.6284 27.4947L14.1421 28.3684L14.1422 28.3685L14.6284 27.4947ZM13.0407 27.2423L13.2745 28.2146L13.2745 28.2146L13.0407 27.2423ZM11.0873 29.1361L10.1227 28.8721L10.1227 28.8721L11.0873 29.1361ZM11.9253 31.4773L12.5551 30.7005L12.555 30.7005L11.9253 31.4773ZM14.354 33.1912L13.8176 34.0352L13.8177 34.0352L14.354 33.1912ZM15.6686 34.0098L15.1439 34.8611L15.1439 34.8611L15.6686 34.0098ZM17.527 35.1789L16.9791 36.0154L16.9792 36.0155L17.527 35.1789ZM21.449 35.9325L21.5122 36.9305L21.5122 36.9305L21.449 35.9325ZM24.946 35.4705L24.7813 34.4842H24.7813L24.946 35.4705ZM25.9079 35.3125L25.7509 34.3249L25.7509 34.3249L25.9079 35.3125ZM30.4416 34.8958L30.4136 35.8954L30.4137 35.8954L30.4416 34.8958ZM31.156 34.9827L31.9167 34.3336L31.9167 34.3336L31.156 34.9827ZM31.188 35.6514L30.188 35.6506V35.6506L31.188 35.6514ZM31.5407 35.9961L31.5442 36.9961H31.5443L31.5407 35.9961ZM36.7654 36L36.7714 35H36.7713L36.7654 36ZM37.125 35.6328L36.125 35.6395V35.6396L37.125 35.6328ZM31.1942 30.1266L32.1942 30.1264V30.1264L31.1942 30.1266ZM31.1937 31.3728L30.1937 31.3715V31.3715L31.1937 31.3728ZM31.1969 33.1048L32.1969 33.097L32.1969 33.0966L31.1969 33.1048ZM30.9308 33.3617L31.0406 32.3677L31.0404 32.3677L30.9308 33.3617ZM28.4625 33.4061L28.5531 34.402L28.5531 34.402L28.4625 33.4061ZM24.9547 33.8947L24.7932 32.9078H24.7932L24.9547 33.8947ZM22.2652 34.2961L22.3849 35.2889L22.3849 35.2889L22.2652 34.2961ZM19.2339 34.2609L18.9849 35.2295L18.9849 35.2295L19.2339 34.2609ZM18.5738 33.9932L19.1041 33.1454L19.104 33.1454L18.5738 33.9932ZM17.2592 33.1822L17.7816 32.3295H17.7816L17.2592 33.1822ZM13.9234 31.045L14.4961 30.2253L14.496 30.2252L13.9234 31.045ZM13.3754 30.6347L12.7629 31.4252L12.7629 31.4252L13.3754 30.6347ZM12.9112 30.2839L12.3273 31.0957L12.3273 31.0957L12.9112 30.2839ZM12.6048 29.4457L13.551 29.7692L13.551 29.7691L12.6048 29.4457ZM13.3712 28.7688L13.5495 29.7528L13.5496 29.7527L13.3712 28.7688ZM13.8985 28.8661L14.3816 27.9905L14.3815 27.9905L13.8985 28.8661ZM13.9189 28.8773L13.4359 29.7529L13.4359 29.753L13.9189 28.8773ZM18.1154 30.9454L18.473 30.0115L18.4729 30.0115L18.1154 30.9454ZM20.6132 31.7034L20.862 30.7348L20.862 30.7348L20.6132 31.7034ZM21.8331 31.6381L22.0438 32.6157H22.0438L21.8331 31.6381ZM22.1597 31.5717L22.336 32.556L22.336 32.556L22.1597 31.5717ZM24.1177 31.2028L24.3072 32.1847L24.3072 32.1847L24.1177 31.2028ZM25.0209 31.0294L25.2076 32.0118L25.2078 32.0118L25.0209 31.0294ZM25.0242 31.0288L24.8376 30.0463L24.8373 30.0464L25.0242 31.0288ZM25.3446 30.5716L26.3286 30.3938L26.3286 30.3938L25.3446 30.5716ZM25.2847 30.2585L24.3035 30.4513H24.3035L25.2847 30.2585ZM25.1847 29.7029L24.1953 29.848L24.1953 29.8483L25.1847 29.7029ZM24.8458 29.4765L24.653 28.4953L24.6529 28.4953L24.8458 29.4765ZM22.4846 29.9289L22.6704 30.9115H22.6704L22.4846 29.9289ZM21.3647 30.1413L21.5519 31.1236L21.5521 31.1236L21.3647 30.1413ZM20.667 29.9697L19.8506 30.5472L19.8506 30.5472L20.667 29.9697ZM20.4673 28.9822L19.5156 28.6753L19.5155 28.6755L20.4673 28.9822ZM20.7341 28.7699L20.9324 29.75L20.9325 29.75L20.7341 28.7699ZM25.8682 27.5578L26.1297 28.523L26.1298 28.523L25.8682 27.5578ZM28.6965 27.627L28.4581 28.5982L28.4581 28.5982L28.6965 27.627ZM30.9922 28.0402L31.0654 27.0428L31.0654 27.0428L30.9922 28.0402ZM31.1951 28.3204L30.1951 28.3181V28.3183L31.1951 28.3204ZM31.1951 28.3231L30.1951 28.321V28.3212L31.1951 28.3231ZM32.7207 30.6294H33.7207V30.6293L32.7207 30.6294ZM32.7212 31.5251L31.7212 31.5259L32.7212 31.5251ZM32.7216 29.6968L31.7216 29.6953V29.6953L32.7216 29.6968ZM32.7157 27.1748L31.7157 27.1847V27.1849L32.7157 27.1748ZM33.049 26.8229L33.025 27.8226L33.025 27.8226L33.049 26.8229ZM35.2485 26.8244L35.2652 27.8243L35.2654 27.8243L35.2485 26.8244ZM35.5651 27.1441L34.5651 27.1413V27.1414L35.5651 27.1441ZM35.565 34.1085L36.565 34.1061L36.565 34.1058L35.565 34.1085ZM35.2514 34.4304L35.2686 33.4305L35.2683 33.4305L35.2514 34.4304ZM32.9969 34.4298L32.9826 33.4299L32.9824 33.4299L32.9969 34.4298ZM32.717 34.1392L33.717 34.1459V34.1459L32.717 34.1392ZM21.1244 25.4226C24.6833 25.4217 27.2723 22.5908 27.3256 19.2199L25.3258 19.1883C25.2886 21.5446 23.5151 23.422 21.1239 23.4226L21.1244 25.4226ZM14.9418 19.2533C14.963 22.2772 17.3664 25.4235 21.1244 25.4226L21.1239 23.4226C18.621 23.4232 16.9564 21.3264 16.9418 19.2392L14.9418 19.2533ZM21.139 13C17.3651 12.9944 14.9202 16.1667 14.9418 19.2532L16.9418 19.2392C16.9269 17.1147 18.617 14.9963 21.1361 15L21.139 13ZM27.3255 19.1853C27.2615 15.7917 24.6463 13.0052 21.139 13L21.1361 15C23.4901 15.0035 25.2812 16.8523 25.3259 19.223L27.3255 19.1853ZM21.1592 16.5546C22.5694 16.5532 23.7631 17.7463 23.7627 19.2128L25.7627 19.2133C25.7634 16.673 23.7045 14.5521 21.1573 14.5546L21.1592 16.5546ZM18.4946 19.2101C18.4953 17.6678 19.6982 16.556 21.1592 16.5546L21.1573 14.5546C18.6502 14.5569 16.4958 16.5069 16.4946 19.2092L18.4946 19.2101ZM21.1316 21.8673C19.7028 21.8607 18.494 20.7578 18.4946 19.2101L16.4946 19.2092C16.4935 21.9162 18.6512 23.8559 21.1224 23.8672L21.1316 21.8673ZM23.7627 19.2128C23.7623 20.6858 22.5713 21.8739 21.1316 21.8673L21.1224 23.8672C23.6916 23.879 25.762 21.7726 25.7627 19.2133L23.7627 19.2128ZM21.0737 23.2951L21.1287 23.295L21.1251 21.295L21.0702 21.2951L21.0737 23.2951ZM20.954 23.295C20.9969 23.2953 21.0389 23.2952 21.0746 23.2951L21.0693 21.2951C21.0317 21.2952 21.0004 21.2953 20.9701 21.295L20.954 23.295ZM20.8468 23.2949C20.8837 23.2948 20.9176 23.2947 20.9539 23.295L20.9702 21.295C20.9204 21.2946 20.8753 21.2948 20.8394 21.2949L20.8468 23.2949ZM20.843 23.2949H20.8431V21.2949H20.843V23.2949ZM19.4712 21.7652C19.4637 21.8832 19.4557 22.0399 19.4696 22.1908C19.4826 22.3315 19.527 22.6403 19.7728 22.9105C20.0329 23.1965 20.3529 23.2603 20.5007 23.2798C20.6372 23.2978 20.7858 23.2951 20.8468 23.2949L20.8393 21.2949C20.7237 21.2954 20.7335 21.2932 20.7622 21.297C20.8021 21.3023 21.0452 21.3371 21.2523 21.5648C21.445 21.7767 21.4603 21.9979 21.4612 22.007C21.463 22.0263 21.4598 22.0076 21.4672 21.8915L19.4712 21.7652ZM19.8412 22.4459C19.8319 22.4412 19.7154 22.3843 19.6119 22.2387C19.4903 22.0676 19.4635 21.8862 19.4711 21.7655L21.4672 21.8912C21.4837 21.6289 21.4262 21.339 21.2421 21.0799C21.076 20.8463 20.8652 20.7219 20.7373 20.6579L19.8412 22.4459ZM19.1148 21.9472C19.2722 22.0755 19.5275 22.2887 19.8413 22.4459L20.7372 20.6578C20.653 20.6156 20.5647 20.5487 20.3784 20.3969L19.1148 21.9472ZM19.0543 21.898L19.1156 21.9479L20.3776 20.3963L20.3162 20.3464L19.0543 21.898ZM18.9636 20.07C18.8171 20.2131 18.5217 20.5595 18.5791 21.0738C18.6312 21.5412 18.9465 21.8107 19.0557 21.8991L20.3148 20.3452C20.3201 20.3495 20.3657 20.3861 20.4167 20.4566C20.4713 20.5322 20.546 20.6663 20.5667 20.8521C20.612 21.2582 20.3718 21.4903 20.3609 21.5009L18.9636 20.07ZM19.5036 19.4995C19.3218 19.7029 19.1445 19.8934 18.9637 20.0699L20.3608 21.501C20.5869 21.2803 20.7976 21.0529 20.9948 20.8322L19.5036 19.4995ZM21.2853 19.4174C21.1232 19.2634 20.7934 19.0214 20.3264 19.0641C19.8914 19.1039 19.6195 19.3698 19.5036 19.4994L20.9948 20.8323C20.9937 20.8336 20.831 21.0263 20.5086 21.0558C20.1543 21.0882 19.9408 20.8987 19.9076 20.8672L21.2853 19.4174ZM21.3504 19.4594C21.3312 19.4526 21.3099 19.4408 21.2856 19.4177L19.9073 20.8669C20.1242 21.0732 20.3836 21.2381 20.6791 21.3434L21.3504 19.4594ZM20.5173 20.0483C20.5902 19.6483 20.8918 19.4964 20.9948 19.4604C21.1173 19.4176 21.2382 19.4194 21.3507 19.4595L20.6789 21.3433C20.9997 21.4577 21.3488 21.4553 21.6548 21.3484C21.9414 21.2482 22.382 20.9722 22.485 20.4066L20.5173 20.0483ZM20.9332 20.8703C20.9789 20.8839 20.9751 20.8835 20.9638 20.879C20.9516 20.8742 20.8834 20.847 20.8026 20.7816C20.7118 20.708 20.6099 20.5894 20.5514 20.4223C20.4948 20.2605 20.5036 20.1238 20.5173 20.0484L22.485 20.4065C22.5187 20.2215 22.5212 19.9961 22.4392 19.7617C22.3553 19.522 22.2089 19.3468 22.0615 19.2275C21.821 19.0326 21.5287 18.9609 21.5054 18.9539L20.9332 20.8703ZM20.9147 20.8647L20.9325 20.8701L21.5061 18.9541L21.4882 18.9488L20.9147 20.8647ZM20.6538 20.7979C20.7648 20.8242 20.842 20.8429 20.9131 20.8643L21.4898 18.9492C21.3523 18.9078 21.2172 18.876 21.1159 18.852L20.6538 20.7979ZM20.2376 20.6876C20.3916 20.736 20.5431 20.7716 20.6538 20.7979L21.1159 18.852C20.9935 18.8229 20.912 18.8031 20.8378 18.7798L20.2376 20.6876ZM18.4007 18.4973C18.4561 19.0239 18.65 19.5062 18.9929 19.9002C19.3314 20.2891 19.7699 20.5405 20.2377 20.6876L20.8377 18.7797C20.6486 18.7203 20.552 18.6451 20.5016 18.5872C20.4555 18.5343 20.4067 18.4494 20.3898 18.2882L18.4007 18.4973ZM19.6879 16.0478C18.8835 16.5312 18.2819 17.367 18.4007 18.4973L20.3898 18.2882C20.3761 18.1583 20.4013 18.0805 20.4349 18.0217C20.4738 17.9535 20.555 17.8601 20.718 17.7622L19.6879 16.0478ZM19.4814 16.5763C19.4778 16.5521 19.4725 16.4953 19.4856 16.4179C19.4996 16.3361 19.5301 16.255 19.5747 16.183C19.6548 16.0539 19.7434 16.0144 19.6877 16.048L20.7181 17.762C20.8625 17.6753 21.1023 17.5149 21.2748 17.2366C21.4707 16.9204 21.504 16.5818 21.4598 16.2834L19.4814 16.5763ZM20.8179 15.1273C20.6234 15.1181 20.1893 15.1271 19.8355 15.4631C19.4416 15.8371 19.4434 16.3191 19.4813 16.5759L21.4599 16.2837C21.464 16.3118 21.504 16.6368 21.2126 16.9134C21.0837 17.0359 20.9479 17.0873 20.8626 17.1082C20.7819 17.128 20.7284 17.1253 20.7229 17.125L20.8179 15.1273ZM21.4672 15.1272C21.2484 15.137 21.0312 15.1374 20.8179 15.1273L20.7229 17.125C21.003 17.1384 21.282 17.1375 21.5567 17.1252L21.4672 15.1272ZM22.7985 16.539C22.8347 16.2599 22.8096 15.7869 22.4097 15.4339C22.0636 15.1285 21.6548 15.1188 21.4674 15.1272L21.5565 17.1252C21.5482 17.1256 21.497 17.1276 21.4206 17.1097C21.3413 17.091 21.2127 17.045 21.0863 16.9335C20.7887 16.6709 20.8069 16.3446 20.8151 16.2813L22.7985 16.539ZM22.6363 16.1101C22.5674 16.0696 22.6413 16.0974 22.7126 16.211C22.7523 16.2741 22.7795 16.3449 22.7923 16.4149C22.8044 16.4809 22.8001 16.5262 22.7985 16.5389L20.8151 16.2814C20.7738 16.5995 20.8151 16.9501 21.0189 17.2747C21.2014 17.5652 21.4548 17.7356 21.6234 17.8346L22.6363 16.1101ZM22.9821 18.6831C23.1071 18.5551 23.2621 18.3979 23.375 18.2513C23.4667 18.1322 23.7289 17.7803 23.6676 17.2928C23.6058 16.8018 23.2614 16.5259 23.1385 16.4316C22.9886 16.3164 22.7958 16.2037 22.636 16.1099L21.6236 17.8348C21.7127 17.887 21.7795 17.9267 21.8334 17.9602C21.8887 17.9947 21.9128 18.012 21.9201 18.0176C21.9307 18.0257 21.8902 17.9972 21.8403 17.9323C21.7837 17.8587 21.7064 17.7265 21.6832 17.5423C21.6601 17.3587 21.7021 17.2126 21.7374 17.1295C21.7686 17.0559 21.7995 17.0193 21.7907 17.0307C21.7844 17.0389 21.7651 17.0622 21.7204 17.1101C21.6767 17.1569 21.623 17.2122 21.551 17.2859L22.9821 18.6831ZM22.9622 18.7035L22.9814 18.6838L21.5517 17.2852L21.5325 17.3049L22.9622 18.7035ZM20.9204 18.9721C21.0123 19.0271 21.1493 19.1107 21.2776 19.17C21.4142 19.2332 21.6754 19.3356 22.0034 19.2914C22.3289 19.2474 22.5531 19.0813 22.6668 18.9869C22.775 18.8969 22.8861 18.7814 22.9628 18.7029L21.5319 17.3055C21.484 17.3546 21.4511 17.3881 21.4235 17.4154C21.3955 17.4429 21.3865 17.4504 21.3886 17.4486C21.3904 17.4471 21.4217 17.4208 21.477 17.3914C21.5377 17.3592 21.6257 17.3242 21.736 17.3093C21.8466 17.2944 21.9419 17.3048 22.0113 17.3205C22.0744 17.3349 22.1133 17.353 22.1168 17.3546C22.1208 17.3565 22.1114 17.3523 22.0781 17.3333C22.0453 17.3145 22.0059 17.291 21.9477 17.2561L20.9204 18.9721ZM20.9152 18.969L20.9203 18.9721L21.9478 17.2562L21.9426 17.2531L20.9152 18.969ZM21.4083 18.8982C21.3523 18.9323 21.2759 18.9641 21.184 18.9782C21.0935 18.992 21.0156 18.9846 20.9599 18.9726C20.9079 18.9615 20.8771 18.9469 20.8745 18.9456C20.8728 18.9448 20.882 18.9492 20.9153 18.969L21.9425 17.253C21.7914 17.1625 21.1157 16.7355 20.3693 17.1893L21.4083 18.8982ZM21.3625 17.573C21.3994 17.5921 21.7216 17.7766 21.7353 18.2272C21.7489 18.674 21.4431 18.877 21.4087 18.898L20.3688 17.1896C20.126 17.3374 19.7182 17.6925 19.7362 18.2879C19.7544 18.8872 20.1878 19.2169 20.443 19.349L21.3625 17.573ZM21.5222 17.6067C21.4431 17.5911 21.4051 17.5832 21.3737 17.5747C21.3469 17.5674 21.3481 17.5655 21.3625 17.573L20.443 19.3491C20.7247 19.4949 21.0136 19.545 21.1366 19.5691L21.5222 17.6067ZM21.751 17.6559C21.6635 17.6342 21.5787 17.6178 21.5222 17.6067L21.1366 19.5691C21.2013 19.5819 21.2378 19.5892 21.2698 19.5972L21.751 17.6559ZM23.7825 19.5262C23.476 18.3944 22.6124 17.8695 21.751 17.6559L21.2697 19.5972C21.4928 19.6525 21.6213 19.7223 21.6951 19.7837C21.7563 19.8347 21.8133 19.906 21.852 20.0489L23.7825 19.5262ZM22.5594 22.3853C23.5519 21.8051 24.0915 20.6679 23.7825 19.5263L21.852 20.0488C21.9036 20.2395 21.8361 20.4914 21.55 20.6587L22.5594 22.3853ZM22.8046 21.9142C22.8053 21.9588 22.7954 22.0896 22.7039 22.231C22.624 22.3543 22.5359 22.3991 22.5595 22.3853L21.5499 20.6588C21.4033 20.7445 21.1885 20.8917 21.0253 21.1437C20.8504 21.4136 20.8007 21.6991 20.8048 21.9477L22.8046 21.9142ZM21.4338 23.295C21.5044 23.2946 21.6381 23.2952 21.7585 23.2813C21.8705 23.2683 22.1767 23.2252 22.4421 22.9755C22.7204 22.7137 22.7762 22.3958 22.7927 22.261C22.809 22.1282 22.8058 21.9875 22.8046 21.9144L20.8048 21.9475C20.8066 22.0542 20.8038 22.0486 20.8076 22.0175C20.8117 21.9844 20.8421 21.7347 21.0717 21.5188C21.2884 21.3149 21.5224 21.2953 21.5286 21.2946C21.5431 21.2929 21.5373 21.2945 21.4242 21.295L21.4338 23.295ZM21.2516 23.295C21.31 23.2951 21.371 23.2952 21.4323 23.295L21.4257 21.295C21.3696 21.2952 21.3131 21.2951 21.254 21.295L21.2516 23.295ZM21.2528 23.295H21.2528V21.295H21.2528V23.295ZM21.1264 23.295L21.2524 23.295L21.2532 21.295L21.1273 21.295L21.1264 23.295ZM36.1195 30.6302C36.1195 31.0487 36.1191 31.4672 36.1188 31.8862L38.1188 31.8879C38.1191 31.469 38.1195 31.0497 38.1195 30.6302H36.1195ZM36.1195 29.3864C36.1195 29.801 36.1195 30.2156 36.1195 30.6302H38.1195C38.1195 30.2156 38.1195 29.801 38.1195 29.3864L36.1195 29.3864ZM36.1193 25.6554C36.1196 26.899 36.1195 28.1426 36.1195 29.3864L38.1195 29.3864C38.1195 28.1427 38.1196 26.8988 38.1193 25.6549L36.1193 25.6554ZM36.7161 26.2595C36.839 26.2595 36.8487 26.2611 36.8366 26.2597C36.8324 26.2593 36.5876 26.2397 36.367 26.0228C36.143 25.8025 36.1206 25.5532 36.1193 25.5426C36.1175 25.5273 36.1192 25.5332 36.1193 25.6554L38.1193 25.6548C38.1192 25.5803 38.1207 25.4385 38.106 25.3122C38.0919 25.1905 38.044 24.8669 37.7694 24.5969C37.4982 24.3302 37.1777 24.2855 37.0604 24.2723C36.9352 24.2582 36.7942 24.2595 36.7166 24.2595L36.7161 26.2595ZM32.1131 26.2593C33.6476 26.2591 35.1819 26.2589 36.716 26.2595L36.7167 24.2595C35.182 24.2589 33.6472 24.2591 32.1129 24.2593L32.1131 26.2593ZM31.6017 26.2593L32.1131 26.2593L32.1129 24.2593L31.6014 24.2593L31.6017 26.2593ZM31.5054 26.2609C31.5464 26.26 31.5757 26.2594 31.6033 26.2593L31.5999 24.2593C31.5488 24.2594 31.4995 24.2605 31.4618 24.2614L31.5054 26.2609ZM31.4229 26.2625C31.4524 26.2621 31.4813 26.2614 31.5054 26.2609L31.4619 24.2614C31.4363 24.2619 31.4155 24.2624 31.3954 24.2626L31.4229 26.2625ZM32.1943 25.4658C32.1956 25.5342 32.1839 25.7928 31.9547 26.0227C31.731 26.2471 31.4807 26.2617 31.4229 26.2625L31.3954 24.2626C31.1927 24.2654 30.8337 24.3144 30.5382 24.6108C30.2373 24.9127 30.1907 25.281 30.1947 25.5019L32.1943 25.4658ZM32.1937 25.7932C32.1949 25.6968 32.1964 25.5826 32.1943 25.4659L30.1947 25.5017C30.1961 25.5828 30.1951 25.6664 30.1939 25.7679L32.1937 25.7932ZM32.1959 26.1531C32.1908 26.0488 32.1919 25.9391 32.1937 25.7931L30.1939 25.7679C30.1921 25.9035 30.1897 26.0751 30.1984 26.2515L32.1959 26.1531ZM30.8449 27.466C31.0317 27.4813 31.4868 27.4895 31.8503 27.1255C32.2046 26.7707 32.2044 26.3262 32.1959 26.1534L30.1983 26.2511C30.1981 26.2461 30.1946 26.1848 30.2169 26.0942C30.2412 25.9952 30.3003 25.8473 30.4352 25.7122C30.5715 25.5757 30.7236 25.5141 30.8324 25.489C30.9309 25.4663 30.9985 25.4719 31.0074 25.4726L30.8449 27.466ZM29.2108 27.1773C29.7364 27.3169 30.2815 27.4199 30.8446 27.466L31.0077 25.4727C30.5816 25.4378 30.1547 25.3586 29.7242 25.2443L29.2108 27.1773ZM25.5751 27.0512C26.7262 26.7116 27.9079 26.8314 29.2109 27.1773L29.7241 25.2443C28.2598 24.8555 26.6637 24.6448 25.0093 25.1329L25.5751 27.0512ZM20.6864 28.216C22.2945 27.8787 23.9467 27.5315 25.5751 27.0512L25.0093 25.1329C23.47 25.5869 21.8957 25.9188 20.2758 26.2586L20.6864 28.216ZM19.8748 29.2378C19.8785 28.8605 19.9723 28.6533 20.0674 28.5351C20.1604 28.4194 20.3338 28.29 20.6865 28.216L20.2757 26.2587C19.5778 26.4051 18.9534 26.7287 18.5086 27.282C18.0658 27.8328 17.8818 28.5108 17.8749 29.2183L19.8748 29.2378ZM18.211 30.3848C18.2639 30.4051 18.3854 30.4532 18.4995 30.4818C18.5566 30.4962 19.0063 30.6229 19.4261 30.3142C19.8227 30.0225 19.8562 29.5809 19.8614 29.5357C19.8743 29.4249 19.8742 29.2985 19.8748 29.2379L17.8749 29.2182C17.8739 29.3252 17.8725 29.3249 17.8747 29.3054C17.8763 29.2915 17.8848 29.2169 17.9217 29.1202C17.9615 29.0158 18.051 28.8429 18.2412 28.7029C18.436 28.5597 18.6369 28.5239 18.7677 28.52C18.8846 28.5166 18.9681 28.5374 18.9871 28.5422C19.016 28.5495 19.0242 28.5546 18.9262 28.5171L18.211 30.3848ZM14.1835 28.3915C15.4421 29.0918 16.7732 29.8343 18.211 30.3848L18.9262 28.5171C17.6434 28.0259 16.4353 27.3556 15.1559 26.6438L14.1835 28.3915ZM14.1422 28.3685L14.1835 28.3915L15.1559 26.6438L15.1146 26.6208L14.1422 28.3685ZM13.2745 28.2146C13.5478 28.1488 13.8144 28.1861 14.1421 28.3684L15.1147 26.6209C14.4331 26.2415 13.6544 26.0662 12.8068 26.27L13.2745 28.2146ZM12.0518 29.4002C12.2306 28.7469 12.6123 28.3738 13.2745 28.2146L12.8068 26.27C11.4321 26.6006 10.4931 27.5192 10.1227 28.8721L12.0518 29.4002ZM12.555 30.7005C12.2755 30.4739 12.1285 30.264 12.0589 30.0809C11.9937 29.9093 11.9709 29.6957 12.0518 29.4002L10.1227 28.8721C9.94125 29.5351 9.9591 30.1854 10.1893 30.7913C10.4152 31.3858 10.8184 31.8673 11.2955 32.2541L12.555 30.7005ZM14.8904 32.3472C14.0688 31.825 13.2848 31.2921 12.5551 30.7005L11.2955 32.254C12.1101 32.9144 12.966 33.4939 13.8176 34.0352L14.8904 32.3472ZM16.1933 33.1585C15.7529 32.887 15.3193 32.6197 14.8903 32.3471L13.8177 34.0352C14.2601 34.3163 14.7054 34.5908 15.1439 34.8611L16.1933 33.1585ZM18.0749 34.3423C17.4493 33.9326 16.8145 33.5414 16.1933 33.1585L15.1439 34.8611C15.7689 35.2463 16.3803 35.6233 16.9791 36.0154L18.0749 34.3423ZM21.3859 34.9345C20.0627 35.0182 19 34.9481 18.0748 34.3423L16.9792 36.0155C18.4778 36.9968 20.1074 37.0193 21.5122 36.9305L21.3859 34.9345ZM24.7813 34.4842C23.6121 34.6794 22.5015 34.8639 21.3859 34.9345L21.5122 36.9305C22.7469 36.8524 23.9584 36.6492 25.1106 36.4569L24.7813 34.4842ZM25.7509 34.3249C25.4256 34.3766 25.1012 34.4307 24.7813 34.4842L25.1106 36.4569C25.4319 36.4032 25.7485 36.3504 26.0649 36.3001L25.7509 34.3249ZM30.4697 33.8962C28.8372 33.8504 27.2491 34.0867 25.7509 34.3249L26.0648 36.3001C27.5709 36.0607 28.9896 35.8554 30.4136 35.8954L30.4697 33.8962ZM31.9167 34.3336C31.744 34.1311 31.5375 34.032 31.3823 33.9823C31.2402 33.9369 31.1076 33.9223 31.0253 33.9154C30.876 33.9029 30.6513 33.9013 30.4696 33.8962L30.4137 35.8954C30.5259 35.8985 30.6406 35.9007 30.7099 35.9024C30.7921 35.9044 30.8343 35.9064 30.8585 35.9084C30.8688 35.9093 30.8659 35.9094 30.8541 35.9074C30.8428 35.9056 30.8133 35.9002 30.7728 35.8872C30.6873 35.8599 30.5315 35.7914 30.3953 35.6317L31.9167 34.3336ZM32.188 35.6522C32.1881 35.5691 32.1902 35.4959 32.1928 35.4263C32.195 35.3657 32.1987 35.2796 32.1995 35.2091C32.2001 35.1413 32.1998 35.0202 32.1757 34.8877C32.1497 34.745 32.0865 34.5325 31.9167 34.3336L30.3953 35.6317C30.262 35.4755 30.2211 35.3179 30.208 35.2461C30.2016 35.2105 30.2001 35.1861 30.1997 35.1798C30.1994 35.1731 30.1997 35.1744 30.1996 35.1887C30.1994 35.2028 30.1989 35.222 30.1979 35.2512C30.1967 35.2852 30.1957 35.3078 30.1941 35.3536C30.1912 35.4336 30.1881 35.5334 30.188 35.6506L32.188 35.6522ZM31.5372 34.9961C31.5122 34.9962 31.5478 34.9933 31.6128 35.009C31.6861 35.0266 31.8179 35.073 31.9461 35.1909C32.2128 35.4362 32.188 35.723 32.188 35.6522L30.188 35.6506C30.1878 35.8543 30.2126 36.3139 30.5924 36.6631C30.9508 36.9927 31.389 36.9966 31.5442 36.9961L31.5372 34.9961ZM36.7713 35C35.0258 34.9897 33.2809 34.9899 31.5372 34.9961L31.5443 36.9961C33.2836 36.9899 35.022 36.9897 36.7595 36.9999L36.7713 35ZM36.125 35.6396C36.1252 35.6665 36.1219 35.6303 36.1389 35.5627C36.1584 35.4858 36.2087 35.3517 36.3322 35.2246C36.4569 35.0962 36.5932 35.0398 36.6783 35.0168C36.7523 34.9969 36.7945 35.0001 36.7714 35L36.7594 36.9999C36.9462 37.0011 37.408 36.9875 37.7669 36.618C38.1178 36.2567 38.1261 35.8028 38.1249 35.6261L36.125 35.6396ZM36.1188 31.8862C36.1177 33.1342 36.1166 34.3866 36.125 35.6395L38.1249 35.6262C38.1167 34.382 38.1177 33.1372 38.1188 31.8879L36.1188 31.8862ZM32.1943 30.7278C32.1943 30.5273 32.1942 30.3268 32.1942 30.1264L30.1942 30.1269C30.1942 30.3273 30.1943 30.5276 30.1943 30.7278H32.1943ZM32.1937 31.3741C32.194 31.1593 32.1943 30.9436 32.1943 30.7278H30.1943C30.1943 30.9421 30.194 31.1564 30.1937 31.3715L32.1937 31.3741ZM32.1969 33.0966C32.1922 32.5249 32.193 31.9523 32.1937 31.3741L30.1937 31.3715C30.193 31.9481 30.1922 32.5302 30.197 33.113L32.1969 33.0966ZM30.821 34.3556C30.9905 34.3744 31.5031 34.412 31.8876 33.9897C32.2166 33.6284 32.1975 33.1776 32.1969 33.097L30.197 33.1126C30.1971 33.1341 30.1945 33.0934 30.2089 33.0252C30.2243 32.9522 30.27 32.7957 30.4087 32.6433C30.5571 32.4803 30.7327 32.4082 30.8599 32.3813C30.9182 32.369 30.9643 32.3663 30.9918 32.3659C31.0196 32.3655 31.037 32.3673 31.0406 32.3677L30.821 34.3556ZM28.5531 34.402C29.3746 34.3273 30.108 34.277 30.8212 34.3557L31.0404 32.3677C30.1066 32.2648 29.1934 32.3355 28.3718 32.4103L28.5531 34.402ZM25.1162 34.8815C26.2874 34.6899 27.4175 34.5053 28.5531 34.402L28.3719 32.4103C27.1532 32.5211 25.9526 32.7181 24.7932 32.9078L25.1162 34.8815ZM22.3849 35.2889C23.3094 35.1774 24.2249 35.0274 25.1162 34.8815L24.7932 32.9078C23.8949 33.0548 23.021 33.1977 22.1454 33.3033L22.3849 35.2889ZM18.9849 35.2295C20.1975 35.5412 21.389 35.409 22.3849 35.2889L22.1455 33.3033C21.1258 33.4263 20.2859 33.4989 19.4829 33.2924L18.9849 35.2295ZM18.0434 34.841C18.3651 35.0423 18.6958 35.1551 18.9849 35.2295L19.4829 33.2924C19.3066 33.2471 19.1897 33.199 19.1041 33.1454L18.0434 34.841ZM16.7367 34.0348C17.1764 34.3042 17.6115 34.5709 18.0435 34.8411L19.104 33.1454C18.663 32.8696 18.22 32.5981 17.7816 32.3295L16.7367 34.0348ZM13.3507 31.8648C14.4631 32.6419 15.6149 33.3474 16.7367 34.0348L17.7816 32.3295C16.6513 31.6369 15.5511 30.9623 14.4961 30.2253L13.3507 31.8648ZM12.7629 31.4252C12.9402 31.5626 13.1402 31.7177 13.3508 31.8648L14.496 30.2252C14.3327 30.1111 14.1716 29.9866 13.9878 29.8442L12.7629 31.4252ZM12.3273 31.0957C12.4678 31.1968 12.6072 31.3046 12.7629 31.4252L13.9878 29.8442C13.8367 29.7272 13.6693 29.5973 13.495 29.472L12.3273 31.0957ZM11.6586 29.1221C11.533 29.4893 11.52 29.8903 11.6701 30.2766C11.8139 30.6464 12.0715 30.9117 12.3273 31.0957L13.4951 29.472C13.4538 29.4424 13.4991 29.4615 13.5343 29.5521C13.5521 29.5979 13.561 29.6469 13.561 29.6928C13.561 29.7372 13.5527 29.7641 13.551 29.7692L11.6586 29.1221ZM13.1929 27.7848C12.4109 27.9265 11.8866 28.4549 11.6585 29.1222L13.551 29.7691C13.5591 29.7455 13.5658 29.7341 13.5675 29.7314C13.5689 29.7291 13.5665 29.7334 13.5589 29.7402C13.5554 29.7435 13.5514 29.7466 13.5473 29.7493C13.5432 29.7521 13.5396 29.754 13.5372 29.7552C13.5317 29.7578 13.5344 29.7555 13.5495 29.7528L13.1929 27.7848ZM14.3815 27.9905C14.0436 27.8041 13.6407 27.7036 13.1928 27.7848L13.5496 29.7527C13.5226 29.7576 13.4873 29.7583 13.4519 29.7515C13.4191 29.7452 13.4056 29.7363 13.4155 29.7417L14.3815 27.9905ZM14.4019 28.0017L14.3816 27.9905L13.4155 29.7417L13.4359 29.7529L14.4019 28.0017ZM18.4729 30.0115C17.0861 29.4805 15.7791 28.7614 14.4019 28.0017L13.4359 29.753C14.7928 30.5014 16.22 31.2905 17.7579 31.8793L18.4729 30.0115ZM20.862 30.7348C20.0234 30.5195 19.2314 30.3019 18.473 30.0115L17.7578 31.8792C18.6299 32.2132 19.5159 32.4541 20.3645 32.672L20.862 30.7348ZM21.6224 30.6606C21.1869 30.7544 21.0163 30.7745 20.862 30.7348L20.3645 32.672C21.047 32.8473 21.6788 32.6943 22.0438 32.6157L21.6224 30.6606ZM21.9834 30.5874C21.8542 30.6105 21.7283 30.6377 21.6224 30.6606L22.0438 32.6157C22.1556 32.5916 22.2471 32.5719 22.336 32.556L21.9834 30.5874ZM23.9282 30.221C23.2749 30.347 22.6293 30.4716 21.9833 30.5874L22.336 32.556C22.9974 32.4375 23.6561 32.3104 24.3072 32.1847L23.9282 30.221ZM24.8342 30.047C24.5314 30.1045 24.229 30.1629 23.9282 30.221L24.3072 32.1847C24.6085 32.1266 24.9081 32.0687 25.2076 32.0118L24.8342 30.047ZM24.8373 30.0464L24.834 30.047L25.2078 32.0118L25.2111 32.0112L24.8373 30.0464ZM24.3605 30.7494C24.3821 30.8689 24.3814 30.8744 24.3804 30.8588C24.3797 30.8478 24.3571 30.5984 24.5379 30.3412C24.7155 30.0885 24.9524 30.0247 24.9558 30.0237C24.9668 30.0203 24.9582 30.0234 24.8376 30.0463L25.2108 32.0112C25.2844 31.9972 25.4217 31.9726 25.5399 31.9365C25.6506 31.9027 25.9564 31.8011 26.1742 31.4912C26.3951 31.1769 26.3841 30.8509 26.3763 30.7298C26.3681 30.6041 26.3417 30.4659 26.3286 30.3938L24.3605 30.7494ZM24.3035 30.4513C24.3242 30.5569 24.3432 30.6536 24.3605 30.7494L26.3286 30.3938C26.3082 30.2804 26.2862 30.1687 26.2659 30.0656L24.3035 30.4513ZM24.1953 29.8483C24.2268 30.0622 24.2679 30.2705 24.3035 30.4513L26.2659 30.0656C26.2288 29.8769 26.1973 29.7158 26.1741 29.5574L24.1953 29.8483ZM25.0386 30.4577C25.0386 30.4578 25.0363 30.4582 25.032 30.4588C25.0277 30.4595 25.0208 30.4604 25.0116 30.4613C24.994 30.4629 24.9627 30.4648 24.9213 30.4622C24.8366 30.457 24.6942 30.4319 24.5446 30.3365C24.3904 30.2382 24.2983 30.1099 24.2491 30.0088C24.2052 29.919 24.1961 29.8533 24.1953 29.848L26.1741 29.5577C26.1452 29.3604 26.0483 28.9232 25.6196 28.65C25.221 28.3959 24.8068 28.4651 24.653 28.4953L25.0386 30.4577ZM22.6704 30.9115C23.4573 30.7627 24.2483 30.6131 25.0388 30.4577L24.6529 28.4953C23.8707 28.6491 23.0869 28.7973 22.2988 28.9463L22.6704 30.9115ZM21.5521 31.1236C21.9244 31.0526 22.2969 30.9821 22.6704 30.9115L22.2988 28.9463C21.9256 29.0169 21.5514 29.0877 21.1773 29.159L21.5521 31.1236ZM19.8506 30.5472C20.1087 30.912 20.4687 31.1072 20.8462 31.1608C21.1528 31.2043 21.4382 31.1453 21.5519 31.1236L21.1774 29.159C21.1151 29.1709 21.0877 29.175 21.0719 29.1766C21.0576 29.178 21.0814 29.1741 21.1272 29.1806C21.1783 29.1878 21.2518 29.2074 21.329 29.2536C21.4069 29.3 21.4567 29.3545 21.4834 29.3922L19.8506 30.5472ZM19.5155 28.6755C19.2689 29.441 19.5288 30.0923 19.8506 30.5472L21.4834 29.3922C21.4282 29.3141 21.4183 29.2765 21.4177 29.2738C21.4177 29.2738 21.4188 29.279 21.4185 29.2867C21.4182 29.2946 21.4168 29.2961 21.4191 29.2889L19.5155 28.6755ZM20.5359 27.7897C20.1981 27.8581 19.7051 28.0876 19.5156 28.6753L21.4191 29.2891C21.3744 29.4276 21.2844 29.5524 21.1671 29.64C21.062 29.7185 20.9686 29.7427 20.9324 29.75L20.5359 27.7897ZM25.6066 26.5926C23.9293 27.0471 22.2393 27.4449 20.5357 27.7898L20.9325 29.75C22.6772 29.3969 24.4093 28.9892 26.1297 28.523L25.6066 26.5926ZM28.9348 26.6558C27.9133 26.4051 26.7749 26.2759 25.6066 26.5926L26.1298 28.523C26.8405 28.3303 27.6027 28.3882 28.4581 28.5982L28.9348 26.6558ZM31.0654 27.0428C30.3765 26.9923 29.686 26.8402 28.9348 26.6558L28.4581 28.5982C29.2199 28.7852 30.0502 28.9737 30.919 29.0375L31.0654 27.0428ZM32.1951 28.3228C32.1951 28.2983 32.1962 28.2113 32.1874 28.1206C32.1783 28.0269 32.1535 27.8601 32.0623 27.6798C31.8228 27.2066 31.3731 27.0654 31.0654 27.0428L30.9189 29.0375C30.8796 29.0346 30.7659 29.0215 30.6301 28.9473C30.4764 28.8632 30.3539 28.7333 30.2778 28.583C30.2119 28.4527 30.1997 28.3442 30.1968 28.3143C30.1942 28.2874 30.1952 28.27 30.1951 28.3181L32.1951 28.3228ZM32.1951 28.3253L32.1951 28.3226L30.1951 28.3183L30.1951 28.321L32.1951 28.3253ZM32.1942 30.1264C32.194 29.5251 32.1939 28.925 32.1951 28.3251L30.1951 28.3212C30.1939 28.9237 30.194 29.5259 30.1942 30.1269L32.1942 30.1264ZM31.7207 30.6294C31.7207 30.9285 31.721 31.2275 31.7212 31.5259L33.7212 31.5242C33.721 31.2256 33.7207 30.9275 33.7207 30.6294H31.7207ZM31.7216 29.6953C31.7211 30.006 31.7207 30.3177 31.7207 30.6295L33.7207 30.6293C33.7207 30.3194 33.7211 30.0093 33.7216 29.6983L31.7216 29.6953ZM31.7157 27.1849C31.7241 28.0188 31.7228 28.8537 31.7216 29.6953L33.7216 29.6983C33.7228 28.8585 33.7241 28.0122 33.7156 27.1648L31.7157 27.1849ZM33.0731 25.8232C32.8692 25.8183 32.3796 25.8323 32.0216 26.2462C31.7046 26.6127 31.7144 27.0571 31.7157 27.1847L33.7156 27.165C33.7153 27.1313 33.7185 27.1595 33.7064 27.2169C33.6931 27.2805 33.6531 27.4172 33.5342 27.5546C33.2746 27.8548 32.9529 27.8208 33.025 27.8226L33.0731 25.8232ZM35.2317 25.8246C34.5058 25.8367 33.787 25.8403 33.073 25.8232L33.025 27.8226C33.7766 27.8406 34.525 27.8367 35.2652 27.8243L35.2317 25.8246ZM36.5651 27.1469C36.5655 26.9826 36.5552 26.5473 36.2157 26.1971C35.8644 25.8346 35.4163 25.8214 35.2315 25.8246L35.2654 27.8243C35.3224 27.8233 35.033 27.8505 34.7797 27.5891C34.6558 27.4613 34.6032 27.3259 34.5819 27.2438C34.5629 27.1703 34.5651 27.1261 34.5651 27.1413L36.5651 27.1469ZM36.565 34.1058C36.5587 31.7861 36.5587 29.4665 36.5651 27.1469L34.5651 27.1414C34.5587 29.4646 34.5587 31.7879 34.565 34.1112L36.565 34.1058ZM35.2343 35.4302C35.4285 35.4335 35.8838 35.4162 36.2333 35.0397C36.56 34.6878 36.5653 34.2573 36.565 34.1061L34.565 34.1108C34.565 34.1292 34.5627 34.089 34.5796 34.0201C34.5984 33.9435 34.6468 33.8091 34.7674 33.6791C34.8916 33.5454 35.0323 33.4808 35.1322 33.4526C35.1787 33.4395 35.2151 33.4344 35.2361 33.4323C35.247 33.4313 35.2553 33.4308 35.2605 33.4306C35.2656 33.4305 35.2685 33.4305 35.2686 33.4305L35.2343 35.4302ZM33.0111 35.4297C33.7545 35.4191 34.4956 35.4177 35.2345 35.4302L35.2683 33.4305C34.5046 33.4176 33.7422 33.4191 32.9826 33.4299L33.0111 35.4297ZM31.717 34.1324C31.7161 34.2676 31.7162 34.6904 32.035 35.0395C32.3788 35.416 32.8294 35.4323 33.0114 35.4297L32.9824 33.4299C32.9849 33.4299 32.9997 33.4297 33.0236 33.4322C33.0473 33.4346 33.0864 33.4403 33.1354 33.4543C33.2406 33.4845 33.3855 33.5524 33.5119 33.6909C33.6344 33.8251 33.683 33.9636 33.7019 34.0433C33.7191 34.1154 33.7169 34.1597 33.717 34.1459L31.717 34.1324ZM31.7212 31.5259C31.722 32.398 31.7228 33.2656 31.717 34.1325L33.717 34.1459C33.7228 33.2701 33.722 32.395 33.7212 31.5242L31.7212 31.5259Z" fill="#525C75" mask="url(#path-2-inside-1_22781_22668)"/>
</svg>
