<svg width="49" height="48" viewBox="0 0 49 48" fill="none" xmlns="http://www.w3.org/2000/svg">
<rect x="0.182861" width="48" height="48" rx="24" fill="#EBEDFA"/>
<path fill-rule="evenodd" clip-rule="evenodd" d="M32.6294 16.9403L33.545 17.9006C33.5164 17.9266 33.4914 17.9499 33.4684 17.9713C33.4249 18.0117 33.389 18.0451 33.3513 18.0763C32.6667 18.6397 31.9819 19.203 31.2972 19.7663L31.2949 19.7682L31.2903 19.772L31.281 19.7796L31.2801 19.7804C28.8157 21.8077 26.3513 23.835 23.8916 25.8681C23.6871 26.0372 23.5656 26.0132 23.3701 25.8649C21.3611 24.3416 19.3468 22.8252 17.3325 21.3088L17.3325 21.3088L16.5278 20.703C16.0069 20.3108 15.7297 20.3383 15.3051 20.8285C14.2733 22.0192 13.2438 23.2118 12.215 24.4052C11.9253 24.7413 11.93 25.1116 12.2193 25.353C12.4981 25.5854 12.8514 25.5368 13.1345 25.2162C13.3861 24.9312 13.6348 24.6433 13.8835 24.3555L13.8835 24.3555L13.8836 24.3554L13.8836 24.3553L13.8836 24.3553L13.8837 24.3553L13.8837 24.3552L13.8837 24.3552L13.8837 24.3552L13.8838 24.3552L13.8838 24.3551L13.8838 24.3551L13.8838 24.3551L13.8839 24.355L13.8839 24.355L13.8839 24.355L13.884 24.3549C13.9974 24.2236 14.1109 24.0922 14.2246 23.9612L16.0262 21.8857C16.0607 21.9103 16.0933 21.9333 16.1244 21.9553L16.1245 21.9553L16.1245 21.9553L16.1246 21.9554L16.1246 21.9554C16.1892 22.001 16.2478 22.0424 16.3051 22.0855L19.02 24.1267L19.0263 24.1315L19.0335 24.1369C20.3989 25.1635 21.7643 26.1902 23.13 27.2165C23.5524 27.534 23.8012 27.5289 24.2043 27.1974C25.7077 25.961 27.2111 24.7244 28.7144 23.4878L28.7346 23.4712C30.3964 22.1043 32.0581 20.7375 33.72 19.3708C33.8734 19.2446 34.028 19.12 34.1859 18.9928L34.186 18.9928C34.2587 18.9341 34.3322 18.8749 34.4065 18.8148L35.3871 19.7709L36.49 16L32.6294 16.9403ZM34.7616 20.0952H34.1806V32.8491H34.7616V20.0952ZM32.638 21.1939H33.2073V32.8506H32.638V21.1939ZM31.1044 32.8514H31.6527V22.2375H31.1044V32.8514ZM30.1474 32.8577H29.5493V23.5354C29.5612 23.532 29.5732 23.5279 29.5855 23.5237C29.6125 23.5145 29.6403 23.505 29.6686 23.5033C30.1471 23.4744 30.1474 23.4751 30.1474 23.9627V32.4421V32.8577ZM15.6487 32.8569H16.2147V22.9659H15.6487V32.8569ZM17.1988 23.522H17.7636V32.847H17.1988V23.522ZM28.5835 24.4525H28.0049V32.849H28.5835V24.4525ZM14.6815 32.8487H14.0974V24.4517H14.6815V32.8487ZM18.7104 32.8512H19.3115V24.7669C18.7105 24.6781 18.7104 24.6781 18.7104 25.2217V32.4531V32.8512ZM20.2799 26.3844H20.8561V32.8519H20.2799V26.3844ZM12.5665 32.8546H13.1288V25.9914H12.5665V32.8546ZM26.4683 25.984H27.0226V32.8434H26.4683V25.984ZM24.9072 32.8504H25.4811V27.485H24.9072V32.8504ZM21.8389 27.4744H22.3932V32.8403H21.8389V27.4744ZM23.3653 32.8537H23.9433V28.0757H23.3653V32.8537Z" fill="#525C75"/>
</svg>
