<svg width="48" height="48" viewBox="0 0 48 48" fill="none" xmlns="http://www.w3.org/2000/svg">
<rect width="48" height="48" rx="24" fill="#EBEDFA"/>
<path d="M32.9893 24.3094C32.9893 27.5017 32.9715 30.6942 32.9999 33.8863C33.0088 34.8792 32.2576 35.5811 31.3193 35.5771C26.4337 35.5561 21.5479 35.5677 16.6621 35.5671C15.6466 35.567 15.0026 34.9289 15.0024 33.918C15.0013 29.0484 15.0028 24.1789 15 19.3093C14.9998 18.9661 15.108 18.6924 15.3571 18.4443C17.0847 16.723 18.8043 14.9935 20.5209 13.2613C20.7006 13.0802 20.8988 12.9995 21.1472 13C24.5664 13.0073 27.9854 13.0082 31.4046 13.021C32.3832 13.0247 32.9737 13.6377 32.9739 14.6109C32.9745 17.8437 32.9742 21.0766 32.9742 24.3094C32.9792 24.3094 32.9843 24.3094 32.9893 24.3094ZM31.126 33.7108C31.126 27.4189 31.126 21.1532 31.126 14.8805C28.1231 14.8805 25.1382 14.8805 22.1302 14.8805C22.1302 14.9836 22.1299 15.0712 22.1303 15.159C22.1347 16.2283 22.1404 17.2977 22.1437 18.367C22.1471 19.4752 21.4858 20.1422 20.3829 20.1433C19.2973 20.1444 18.2117 20.1433 17.1262 20.1441C17.04 20.1442 16.954 20.1514 16.863 20.1555C16.863 24.685 16.863 29.1926 16.863 33.7108C21.6228 33.7108 26.3669 33.7108 31.126 33.7108Z" fill="#525C75"/>
<path d="M23.9873 23.8454C25.397 23.8454 26.8067 23.8418 28.2163 23.8471C28.8824 23.8495 29.3184 24.4699 29.0861 25.0678C28.9508 25.4161 28.6291 25.6396 28.2347 25.6433C27.6677 25.6486 27.1006 25.6449 26.5334 25.6449C24.2812 25.6449 22.029 25.646 19.7768 25.6441C19.1328 25.6435 18.7032 25.1437 18.8305 24.5526C18.9214 24.1304 19.2979 23.8469 19.7826 23.8462C21.1842 23.8441 22.5857 23.8453 23.9873 23.8454Z" fill="#525C75"/>
<path d="M25.0172 29.7379C23.9486 29.7379 22.8799 29.7474 21.8113 29.7344C21.1635 29.7265 20.747 29.0882 20.9941 28.5041C21.1478 28.1406 21.4375 27.9453 21.8293 27.9443C23.9666 27.9388 26.104 27.9375 28.2412 27.9446C28.777 27.9463 29.1449 28.3214 29.1448 28.8217C29.1446 29.3509 28.7698 29.7337 28.2232 29.7373C27.1546 29.7442 26.086 29.7393 25.0173 29.7393C25.0172 29.7387 25.0172 29.7384 25.0172 29.7379Z" fill="#525C75"/>
</svg>
