<svg width="48" height="48" viewBox="0 0 48 48" fill="none" xmlns="http://www.w3.org/2000/svg">
<rect width="48" height="48" rx="24" fill="#EBEDFA"/>
<path d="M26.8637 21.1345C26.9804 21.1345 27.0638 21.1345 27.1472 21.1345C28.6002 21.1345 30.0532 21.1318 31.5061 21.1378C31.6982 21.1386 31.8986 21.1566 32.0804 21.2138C32.623 21.3844 32.9901 21.8885 32.9941 22.4622C33.0012 23.4872 33.0028 24.5123 32.9938 25.5372C32.9876 26.2371 32.4588 26.7904 31.7587 26.8538C31.6555 26.8632 31.5515 26.865 31.4478 26.8651C30.0143 26.8658 28.5807 26.8656 27.1473 26.8656C27.0639 26.8656 26.9805 26.8656 26.8637 26.8656C26.8637 26.962 26.8637 27.0431 26.8637 27.1242C26.8637 28.6033 26.866 30.0824 26.8626 31.5616C26.861 32.294 26.4423 32.8331 25.7723 32.9727C25.6593 32.9962 25.5404 32.998 25.4243 32.9983C24.4772 33.0002 23.5302 33.0006 22.5832 32.999C21.701 32.9975 21.1377 32.4362 21.1359 31.551C21.1329 30.0849 21.135 28.6186 21.135 27.1525C21.135 27.0687 21.135 26.985 21.135 26.8656C21.0414 26.8656 20.9605 26.8656 20.8798 26.8656C19.4073 26.8656 17.9349 26.867 16.4625 26.8649C15.7777 26.8639 15.2676 26.5299 15.0778 25.9448C15.025 25.7819 15.0059 25.602 15.0046 25.4296C14.9979 24.476 15 23.5223 15.0018 22.5686C15.0036 21.7102 15.564 21.1408 16.4247 21.1362C17.5922 21.1298 18.7599 21.1345 19.9275 21.1345C20.3214 21.1345 20.7152 21.1345 21.135 21.1345C21.135 21.03 21.135 20.9479 21.135 20.8658C21.135 19.3867 21.1326 17.9075 21.1362 16.4284C21.138 15.7078 21.555 15.1708 22.2165 15.029C22.3293 15.0049 22.4482 15.0021 22.5643 15.0018C23.5178 14.9998 24.4713 14.9993 25.4248 15.0011C26.2942 15.0026 26.8599 15.5641 26.8624 16.4384C26.8666 17.911 26.8637 19.3836 26.8637 20.8563C26.8637 20.9393 26.8637 21.0222 26.8637 21.1345Z" fill="#525C75"/>
</svg>
