<svg xmlns="http://www.w3.org/2000/svg" width="40" height="40" viewBox="0 0 40 40" fill="none">
<path fill-rule="evenodd" clip-rule="evenodd" d="M26.1314 11.1613C26.495 11.1628 26.7978 11.1623 27.4366 11.1599L27.4597 11.1598C28.981 11.154 29.6582 11.1585 30.5067 11.1909C32.3638 11.262 33.9365 12.8959 33.9917 14.7728C33.9979 14.9859 33.9996 15.1882 33.9992 15.5107C33.9992 15.563 33.9992 15.563 33.9991 15.615C33.9989 15.7079 33.9989 15.7079 33.9989 15.8004C33.9991 17.3799 33.9991 17.3799 33.9994 18.9595C34.0004 24.2625 34.0003 26.6195 33.9981 29.5658C33.9966 31.5672 32.7126 33.1306 30.8024 33.4446C30.5833 33.4806 30.3916 33.4893 30.0491 33.4895C28.3624 33.49 27.0131 33.4897 23.9773 33.4886C23.6621 33.4885 23.6621 33.4885 23.3469 33.4884C16.9991 33.486 13.7111 33.488 9.9446 33.4998C8.01865 33.5058 6.38647 32.2239 6.0509 30.3147C6.01338 30.1008 6.00286 29.9006 6.00269 29.5876C5.99936 22.5044 5.99894 19.1268 6.00245 15.0754C6.00405 13.1469 7.2266 11.602 9.05032 11.2391C9.33236 11.1829 9.59882 11.1664 10.0223 11.1642C10.8231 11.16 11.4633 11.1595 12.9035 11.1606C13.4107 11.161 13.4207 11.161 13.9082 11.1612C13.9087 11.1432 13.9092 11.1253 13.91 11.1063C13.9184 10.8925 13.9211 10.7189 13.9243 10.3256C13.9318 9.40012 13.9522 8.98192 14.0417 8.46543C14.3309 6.79597 15.855 5.54311 17.5779 5.51699C18.9738 5.49595 20.4165 5.49534 22.248 5.51027C24.4191 5.52789 26.0517 7.15524 26.0891 9.33208C26.0953 9.69459 26.0956 9.98343 26.0929 10.6319C26.0918 10.8904 26.0913 11.0226 26.0912 11.1612C26.1033 11.1612 26.1166 11.1613 26.1314 11.1613ZM22.9721 11.1424C22.9721 11.0892 22.9721 11.025 22.9721 10.9351C22.9723 10.2308 22.9723 9.9201 22.9719 9.5312C22.9714 8.83642 22.7429 8.60766 22.0465 8.60659C20.8081 8.60453 19.5165 8.60487 17.9595 8.60719C17.8307 8.60741 17.7138 8.61529 17.6072 8.63166C17.2945 8.67965 17.074 8.88933 17.0615 9.13182C17.0377 9.59571 17.036 9.96871 17.0453 10.8277C17.0467 10.9527 17.0477 11.0544 17.0485 11.1424H22.9721ZM21.3103 24.692V22.2139H18.7354V24.692H21.3103ZM30.8974 18.3249C30.8986 16.7468 30.8986 16.0455 30.8964 15.169C30.8947 14.5061 30.6449 14.2591 29.9737 14.259C23.3223 14.2584 16.6709 14.2584 10.0196 14.259C9.35007 14.2591 9.10013 14.5069 9.09854 15.1707C9.09608 16.1579 9.09621 16.9478 9.09806 18.7255C9.09825 18.9063 9.09829 18.9492 9.09841 19.0644H30.8968C30.897 18.7559 30.8971 18.7117 30.8974 18.3249ZM9.09784 23.8089C9.09587 26.6849 9.09614 27.9629 9.10077 29.5602C9.10246 30.1414 9.36297 30.3921 9.97591 30.3923C17.6031 30.3949 23.9431 30.394 30.0212 30.3887C30.201 30.3886 30.3691 30.3598 30.4928 30.3068C30.7796 30.1839 30.8979 29.9531 30.8978 29.5301C30.8976 28.5933 30.8975 27.8438 30.8974 26.1575L30.8974 25.7828C30.8973 24.1807 30.8972 23.2115 30.8969 22.2104L23.8182 22.2104C23.8183 22.5582 23.8183 22.588 23.8187 22.9912C23.8189 23.2873 23.8189 23.2873 23.8191 23.5836C23.8194 24.165 23.8189 24.613 23.8171 25.0486C23.813 26.0453 23.193 26.7053 22.2127 26.7169C20.7357 26.7345 19.2582 26.7345 17.7812 26.7169C16.8126 26.7053 16.1848 26.0516 16.179 25.0778C16.1759 24.5657 16.1753 24.0694 16.1762 23.301C16.1764 23.1508 16.1764 23.1508 16.1766 23.0006C16.1772 22.5926 16.1772 22.5621 16.1774 22.2109H9.09876C9.09845 22.9142 9.0984 22.9817 9.09784 23.8089Z" fill="#B1C2C9"/>
<path d="M30.8974 18.3249C30.8986 16.7468 30.8986 16.0455 30.8964 15.169C30.8947 14.5061 30.6449 14.2591 29.9737 14.259C23.3223 14.2584 16.6709 14.2584 10.0196 14.259C9.35007 14.2591 9.10013 14.5069 9.09854 15.1707C9.09608 16.1579 9.09621 16.9478 9.09806 18.7255C9.09825 18.9063 9.09829 18.9492 9.09841 19.0644H30.8968C30.897 18.7559 30.8971 18.7117 30.8974 18.3249Z" fill="transparent"/>
<path d="M9.09784 23.8089C9.09587 26.6849 9.09614 27.9629 9.10077 29.5602C9.10246 30.1414 9.36297 30.3921 9.97591 30.3923C17.6031 30.3949 23.9431 30.394 30.0212 30.3887C30.201 30.3886 30.3691 30.3598 30.4928 30.3068C30.7796 30.1839 30.8979 29.9531 30.8978 29.5301C30.8976 28.5933 30.8975 27.8438 30.8974 26.1575L30.8974 25.7828C30.8973 24.1807 30.8972 23.2115 30.8969 22.2104L23.8182 22.2104C23.8183 22.5582 23.8183 22.588 23.8187 22.9912C23.8189 23.2873 23.8189 23.2873 23.8191 23.5836C23.8194 24.165 23.8189 24.613 23.8171 25.0486C23.813 26.0453 23.193 26.7053 22.2127 26.7169C20.7357 26.7345 19.2582 26.7345 17.7812 26.7169C16.8126 26.7053 16.1848 26.0516 16.179 25.0778C16.1759 24.5657 16.1753 24.0694 16.1762 23.301C16.1764 23.1508 16.1764 23.1508 16.1766 23.0006C16.1772 22.5926 16.1772 22.5621 16.1774 22.2109H9.09876C9.09845 22.9142 9.0984 22.9817 9.09784 23.8089Z" fill="transparent"/>
</svg>