<svg width="32" height="32" viewBox="0 0 32 32" fill="none" xmlns="http://www.w3.org/2000/svg">
<path fill-rule="evenodd" clip-rule="evenodd" d="M20.9635 8.74946C21.2579 8.75071 21.5029 8.75029 22.0201 8.74831L22.0388 8.74824C23.2704 8.74352 23.8185 8.74717 24.5054 8.7734C26.0087 8.83094 27.2819 10.1537 27.3266 11.6731C27.3316 11.8456 27.333 12.0093 27.3327 12.2704C27.3326 12.3127 27.3326 12.3127 27.3326 12.3549C27.3325 12.4301 27.3325 12.4301 27.3324 12.5049C27.3326 13.7836 27.3326 13.7836 27.3328 15.0623C27.3336 19.3552 27.3336 21.2632 27.3318 23.6483C27.3306 25.2685 26.2912 26.5342 24.7448 26.7883C24.5674 26.8175 24.4122 26.8245 24.135 26.8247C22.7696 26.8251 21.6773 26.8248 19.2197 26.8239C18.9645 26.8238 18.9645 26.8238 18.7094 26.8237C13.5707 26.8219 10.909 26.8234 7.8599 26.833C6.3008 26.8378 4.97951 25.8001 4.70786 24.2546C4.67749 24.0815 4.66897 23.9194 4.66883 23.666C4.66614 17.932 4.6658 15.1978 4.66864 11.9181C4.66993 10.3568 5.65962 9.10624 7.13596 8.81245C7.36428 8.76696 7.57999 8.75357 7.92284 8.75178C8.57104 8.7484 9.08932 8.74802 10.2552 8.74892C10.6658 8.74924 10.6739 8.74925 11.0685 8.74935C11.0689 8.73483 11.0694 8.72033 11.07 8.70497C11.0768 8.53185 11.079 8.39131 11.0816 8.07291C11.0876 7.32374 11.1042 6.9852 11.1766 6.56709C11.4107 5.21562 12.6445 4.2014 14.0393 4.18026C15.1693 4.16322 16.3372 4.16273 17.8198 4.17482C19.5774 4.18908 20.899 5.50646 20.9293 7.26866C20.9343 7.56213 20.9346 7.79595 20.9323 8.32092C20.9314 8.53017 20.931 8.63715 20.931 8.74938C20.9408 8.7494 20.9516 8.74943 20.9635 8.74946ZM18.4058 8.73361C18.4058 8.6905 18.4058 8.63853 18.4058 8.56578C18.406 7.99563 18.406 7.74411 18.4057 7.42929C18.4052 6.86685 18.2203 6.68166 17.6565 6.68079C16.654 6.67912 15.6084 6.6794 14.348 6.68127C14.2437 6.68145 14.1491 6.68783 14.0628 6.70109C13.8097 6.73994 13.6311 6.90968 13.6211 7.10598C13.6018 7.48151 13.6004 7.78346 13.6079 8.47886C13.609 8.58001 13.6099 8.66233 13.6105 8.73361H18.4058ZM17.06 19.7029V17.6968H14.9755V19.7029H17.06ZM24.8238 14.5491C24.8248 13.2716 24.8248 12.7038 24.823 11.9943C24.8216 11.4577 24.6194 11.2577 24.076 11.2576C18.6916 11.2572 13.3071 11.2572 7.92274 11.2576C7.38073 11.2577 7.1784 11.4583 7.17711 11.9957C7.17512 12.7948 7.17522 13.4343 7.17672 14.8734C7.17687 15.0197 7.17691 15.0545 7.177 15.1478H24.8233C24.8235 14.898 24.8235 14.8622 24.8238 14.5491ZM7.17638 18.9874C7.17479 21.3155 7.17501 22.3501 7.17875 23.6432C7.18012 24.1136 7.39102 24.3166 7.88721 24.3168C14.0616 24.3189 19.194 24.3182 24.1144 24.3139C24.2599 24.3138 24.3959 24.2904 24.4961 24.2475C24.7283 24.1481 24.824 23.9612 24.824 23.6188C24.8238 22.8604 24.8237 22.2537 24.8237 20.8886L24.8236 20.5853C24.8236 19.2884 24.8235 18.5037 24.8232 17.6934L19.0928 17.6934C19.0929 17.9749 19.093 17.999 19.0932 18.3254C19.0935 18.5651 19.0935 18.5651 19.0936 18.8049C19.0939 19.2756 19.0934 19.6382 19.0919 19.9909C19.0887 20.7978 18.5868 21.3321 17.7931 21.3414C16.5975 21.3557 15.4014 21.3557 14.2058 21.3414C13.4216 21.3321 12.9135 20.8028 12.9087 20.0145C12.9062 19.6 12.9058 19.1983 12.9065 18.5762C12.9067 18.4546 12.9067 18.4546 12.9068 18.333C12.9073 18.0028 12.9073 17.9781 12.9074 17.6937H7.17713C7.17688 18.2631 7.17684 18.3177 7.17638 18.9874Z" fill="#252833"/>
<path d="M24.8238 14.5491C24.8248 13.2716 24.8248 12.7039 24.823 11.9944C24.8216 11.4577 24.6194 11.2578 24.076 11.2577C18.6916 11.2572 13.3071 11.2572 7.92273 11.2577C7.38072 11.2578 7.17839 11.4583 7.1771 11.9957C7.17511 12.7949 7.17521 13.4343 7.17671 14.8735C7.17687 15.0198 7.1769 15.0545 7.177 15.1478H24.8233C24.8235 14.898 24.8235 14.8622 24.8238 14.5491Z" fill="#E9ECF0"/>
<path d="M7.17638 18.9874C7.17479 21.3155 7.17501 22.3501 7.17875 23.6432C7.18012 24.1136 7.39102 24.3166 7.88721 24.3168C14.0616 24.3189 19.194 24.3182 24.1144 24.3139C24.2599 24.3138 24.3959 24.2904 24.4961 24.2475C24.7283 24.1481 24.824 23.9612 24.824 23.6188C24.8238 22.8604 24.8237 22.2537 24.8237 20.8886L24.8236 20.5853C24.8236 19.2884 24.8235 18.5037 24.8232 17.6934L19.0928 17.6934C19.0929 17.9749 19.093 17.999 19.0932 18.3254C19.0935 18.5651 19.0935 18.5651 19.0936 18.8049C19.0939 19.2756 19.0934 19.6382 19.0919 19.9909C19.0887 20.7978 18.5868 21.3321 17.7931 21.3414C16.5975 21.3557 15.4014 21.3557 14.2058 21.3414C13.4216 21.3321 12.9135 20.8028 12.9087 20.0145C12.9062 19.6 12.9058 19.1983 12.9065 18.5762C12.9067 18.4546 12.9067 18.4546 12.9068 18.333C12.9073 18.0028 12.9073 17.9781 12.9074 17.6937H7.17713C7.17688 18.2631 7.17684 18.3177 7.17638 18.9874Z" fill="#FAFBFC"/>
</svg>
