<svg xmlns="http://www.w3.org/2000/svg" width="40" height="40" viewBox="0 0 40 40" fill="none">
<path fill-rule="evenodd" clip-rule="evenodd" d="M7.37305 30.9541H30.952V28.6287H7.37305V30.9541Z" fill="transparent"/>
<path fill-rule="evenodd" clip-rule="evenodd" d="M30.9733 15.585C30.9733 15.1142 30.9587 14.6775 30.9791 14.2422C30.99 14.0107 30.9056 13.8962 30.7065 13.788C26.9415 11.7425 23.1802 9.69042 19.4217 7.63332C19.2363 7.53197 19.096 7.52585 18.9087 7.63007C17.8303 8.23056 16.7445 8.81808 15.6607 9.40908C12.9737 10.8744 10.286 12.3385 7.60137 13.8082C7.50425 13.8614 7.3696 13.965 7.36586 14.0501C7.34367 14.5554 7.35489 15.0621 7.35489 15.585H30.9733Z" fill="transparent"/>
<path fill-rule="evenodd" clip-rule="evenodd" d="M8.51808 26.2533V17.9666C7.78113 17.9666 7.05702 17.9703 6.33291 17.9637C6.15886 17.9621 5.97759 17.9506 5.81264 17.9005C5.31083 17.7478 5.01136 17.362 5.00699 16.8395C4.99665 15.6331 5.00251 14.4268 5.003 13.2203C5.00313 12.6858 5.31569 12.3634 5.75068 12.1258C8.20228 10.7866 10.654 9.44772 13.1056 8.10844C14.8556 7.1526 16.611 6.20686 18.3517 5.23454C18.9064 4.92475 19.4026 4.92088 19.9622 5.22868C24.1484 7.52992 28.3422 9.81768 32.5373 12.1028C33.0723 12.3941 33.3481 12.7944 33.3327 13.4257C33.3069 14.4963 33.3276 15.568 33.325 16.6391C33.3229 17.518 32.8762 17.964 32.0031 17.9664C31.2968 17.9686 30.5905 17.9703 29.8841 17.9737C29.8659 17.9737 29.8477 17.99 29.8134 18.0065V26.2535C30.5773 26.2535 31.3233 26.2363 32.0679 26.263C32.3258 26.2722 32.6089 26.3409 32.8288 26.4704C33.1563 26.6634 33.3223 26.9973 33.3226 27.3905C33.3242 28.992 33.331 30.5936 33.3194 32.1951C33.3148 32.8431 32.8364 33.302 32.1905 33.3265C32.0971 33.33 32.0034 33.3297 31.9101 33.3297C23.402 33.3299 14.8941 33.3296 6.38602 33.3305C6.0509 33.3305 5.725 33.3267 5.4461 33.0882C5.15972 32.8433 4.99976 32.5518 5.00051 32.1698C5.00325 30.5787 4.99502 28.9874 5.0055 27.3962C5.00986 26.7248 5.47752 26.2691 6.15388 26.2574C6.81852 26.2458 7.48353 26.2538 8.14842 26.2533C8.26051 26.2533 8.37271 26.2533 8.51808 26.2533ZM25.094 26.2288H27.3939V17.9834H25.094V26.2288ZM10.9298 26.2363H13.2315V17.9834H10.9298V26.2363ZM20.3655 26.2278H22.6817V17.9769H20.3655V26.2278ZM15.6323 26.235H17.953V17.9907H15.6323V26.235ZM7.37307 30.9541H30.9521V28.6287H7.37307V30.9541ZM30.9731 15.585C30.9731 15.1141 30.9585 14.6774 30.979 14.2422C30.9898 14.0106 30.9054 13.8962 30.7063 13.788C26.9414 11.7425 23.1801 9.69037 19.4215 7.63327C19.2361 7.53192 19.0958 7.5258 18.9086 7.63003C17.8301 8.23052 16.7444 8.81803 15.6606 9.40903C12.9736 10.8744 10.2858 12.3385 7.6012 13.8082C7.50408 13.8614 7.36943 13.965 7.36569 14.0501C7.3435 14.5553 7.35472 15.0621 7.35472 15.585H30.9731ZM19.1496 13.2356C18.4904 13.2304 17.9739 12.7008 17.9798 12.0358C17.9854 11.3904 18.5411 10.8574 19.1934 10.8719C19.8306 10.886 20.355 11.4278 20.3466 12.0634C20.3378 12.7283 19.8142 13.2409 19.1496 13.2356Z" fill="#B1C2C9"/>
</svg>