<svg width="24" height="24" viewBox="0 0 24 24" fill="none" xmlns="http://www.w3.org/2000/svg">
<path fill-rule="evenodd" clip-rule="evenodd" d="M4.42383 18.5725H18.5712V17.1772H4.42383V18.5725Z" fill="#E9ECF0"/>
<path fill-rule="evenodd" clip-rule="evenodd" d="M18.5839 9.35098C18.5839 9.06849 18.5751 8.80645 18.5874 8.54531C18.5939 8.40639 18.5432 8.33771 18.4238 8.27279C16.1648 7.04549 13.908 5.81423 11.6529 4.57997C11.5417 4.51916 11.4575 4.51549 11.3452 4.57802C10.6981 4.93831 10.0466 5.29082 9.39633 5.64542C7.78414 6.52463 6.1715 7.40309 4.56072 8.28492C4.50245 8.31682 4.42166 8.37898 4.41942 8.43005C4.4061 8.73321 4.41283 9.03726 4.41283 9.35098H18.5839Z" fill="#E9ECF0"/>
<path fill-rule="evenodd" clip-rule="evenodd" d="M5.11085 15.752V10.7799C4.66868 10.7799 4.23421 10.7822 3.79975 10.7782C3.69532 10.7772 3.58655 10.7704 3.48759 10.7403C3.1865 10.6487 3.00681 10.4172 3.0042 10.1037C2.99799 9.37988 3.0015 8.65607 3.0018 7.93218C3.00188 7.6115 3.18941 7.41806 3.45041 7.27547C4.92137 6.47198 6.39241 5.66863 7.86337 4.86507C8.91333 4.29156 9.96658 3.72412 11.011 3.14073C11.3438 2.95485 11.6415 2.95253 11.9773 3.13721C14.4891 4.51795 17.0053 5.89061 19.5224 7.26169C19.8434 7.43648 20.0088 7.67666 19.9996 8.05545C19.9842 8.69778 19.9966 9.34078 19.995 9.98349C19.9937 10.5108 19.7257 10.7784 19.2018 10.7799C18.7781 10.7811 18.3543 10.7822 17.9305 10.7842C17.9195 10.7842 17.9086 10.794 17.888 10.8039V15.7521C18.3464 15.7521 18.794 15.7418 19.2407 15.7578C19.3955 15.7633 19.5653 15.8045 19.6973 15.8823C19.8938 15.998 19.9934 16.1984 19.9936 16.4343C19.9945 17.3952 19.9986 18.3562 19.9916 19.3171C19.9889 19.7058 19.7018 19.9812 19.3143 19.9959C19.2582 19.998 19.2021 19.9978 19.146 19.9978C14.0412 19.9979 8.93645 19.9978 3.83161 19.9983C3.63054 19.9983 3.435 19.996 3.26766 19.8529C3.09583 19.706 2.99986 19.531 3.00031 19.3019C3.00195 18.3472 2.99701 17.3924 3.0033 16.4377C3.00592 16.0349 3.28651 15.7615 3.69233 15.7544C4.09111 15.7475 4.49012 15.7523 4.88905 15.752C4.9563 15.752 5.02363 15.752 5.11085 15.752ZM15.0564 15.7373H16.4363V10.79H15.0564V15.7373ZM6.55786 15.7418H7.93891V10.79H6.55786V15.7418ZM12.2193 15.7367H13.609V10.7861H12.2193V15.7367ZM9.37941 15.741H10.7718V10.7944H9.37941V15.741ZM4.42384 18.5725H18.5712V17.1772H4.42384V18.5725ZM18.5839 9.35098C18.5839 9.06849 18.5751 8.80645 18.5874 8.54531C18.5939 8.40639 18.5432 8.33772 18.4238 8.27279C16.1648 7.04549 13.908 5.81423 11.6529 4.57997C11.5417 4.51916 11.4575 4.51549 11.3452 4.57802C10.6981 4.93831 10.0466 5.29082 9.39633 5.64542C7.78414 6.52463 6.1715 7.40309 4.56072 8.28492C4.50245 8.31682 4.42166 8.37898 4.41942 8.43005C4.4061 8.73321 4.41283 9.03726 4.41283 9.35098H18.5839ZM11.4898 7.94139C11.0943 7.93824 10.7844 7.62048 10.7879 7.22147C10.7912 6.83421 11.1246 6.51443 11.516 6.52312C11.8983 6.53158 12.213 6.85668 12.208 7.23802C12.2027 7.63696 11.8885 7.94453 11.4898 7.94139Z" fill="#252833"/>
</svg>
