<svg width="64" height="64" viewBox="0 0 64 64" fill="none" xmlns="http://www.w3.org/2000/svg">
<rect x="9.13159" y="23" width="39" height="25" rx="4" fill="#294CFF"/>
<ellipse cx="28.6316" cy="35.5" rx="7.5" ry="6.5" fill="#F2F4FF"/>
<path fill-rule="evenodd" clip-rule="evenodd" d="M58.4461 26.1156C58.2987 26.3404 58.0997 26.4662 57.8475 26.514C57.4475 26.5896 57.0478 26.6673 56.6474 26.7404C55.4819 26.9535 54.7169 28.2509 55.0987 29.3736C55.2298 29.759 55.3692 30.1416 55.5039 30.5258C55.6402 30.9142 55.5563 31.2458 55.2421 31.5151C54.3268 32.299 53.3032 32.8945 52.1758 33.3051C51.829 33.4314 51.5026 33.341 51.2531 33.051C50.9845 32.7387 50.7103 32.4303 50.4587 32.1043C49.7485 31.1846 48.1356 31.2314 47.4749 32.0795C47.232 32.3913 46.9642 32.6832 46.7118 32.9875C46.3696 33.3997 46.0683 33.4827 45.5775 33.3025C44.5341 32.9191 43.586 32.3721 42.7322 31.6602C42.3295 31.3243 42.2498 31.0226 42.4348 30.5214C42.5767 30.137 42.7075 29.7485 42.8529 29.3654C43.2265 28.3807 42.4687 27.0211 41.3915 26.8458C40.9639 26.7761 40.5376 26.6981 40.112 26.6179C39.7275 26.5454 39.4896 26.3033 39.4249 25.9262C39.2271 24.773 39.2234 23.618 39.4358 22.4609C39.5254 21.9725 39.7448 21.7594 40.2326 21.6613C40.7359 21.5601 41.2554 21.4978 41.7335 21.3213C42.7197 20.9574 43.2272 19.7615 42.8714 18.7727C42.736 18.3964 42.6041 18.0188 42.4743 17.6404C42.3521 17.2843 42.4366 16.9536 42.7221 16.7042C43.6417 15.9009 44.6786 15.2994 45.821 14.8879C46.1722 14.7613 46.482 14.8538 46.7257 15.1367C46.9899 15.4435 47.2687 15.7396 47.5082 16.065C48.1835 16.9828 49.8607 17.0411 50.6216 15.9965C50.8537 15.6777 51.125 15.387 51.3857 15.0899C51.6292 14.8124 51.9325 14.7334 52.2773 14.8517C53.4195 15.2433 54.4463 15.8359 55.3568 16.6289C55.639 16.8747 55.7174 17.1824 55.5928 17.54C55.4415 17.9744 55.2894 18.4087 55.1305 18.8404C54.7632 19.8381 55.5368 21.1578 56.5452 21.334C56.9649 21.4073 57.3838 21.4847 57.8028 21.5616C58.2865 21.6503 58.4958 21.874 58.5772 22.3653C58.7639 23.4918 58.7567 24.6185 58.5483 25.7456C58.5251 25.8709 58.4807 25.9924 58.4461 26.1156Z" fill="#37CC3A" style="mix-blend-mode:multiply"/>
</svg>
