<svg width="52" height="53" viewBox="0 0 52 53" fill="none" xmlns="http://www.w3.org/2000/svg">
<g clip-path="url(#clip0_23294_1473)">
<rect x="5.13159" y="16.6025" width="39" height="25" rx="4" fill="#294CFF"/>
<ellipse cx="24.6316" cy="29.1025" rx="7.5" ry="6.5" fill="#F2F4FF"/>
<g style="mix-blend-mode:color-dodge">
<path fill-rule="evenodd" clip-rule="evenodd" d="M50.4461 21.7181C50.2987 21.943 50.0997 22.0687 49.8475 22.1165C49.4475 22.1921 49.0478 22.2698 48.6474 22.3429C47.4819 22.556 46.7169 23.8535 47.0987 24.9761C47.2298 25.3616 47.3692 25.7442 47.5039 26.1283C47.6402 26.5167 47.5563 26.8484 47.2421 27.1176C46.3268 27.9015 45.3032 28.4971 44.1758 28.9076C43.829 29.0339 43.5026 28.9435 43.2531 28.6535C42.9845 28.3412 42.7103 28.0328 42.4587 27.7069C41.7485 26.7871 40.1356 26.834 39.4749 27.682C39.232 27.9938 38.9642 28.2858 38.7118 28.59C38.3696 29.0022 38.0683 29.0853 37.5775 28.905C36.5341 28.5216 35.586 27.9747 34.7322 27.2627C34.3295 26.9269 34.2498 26.6251 34.4348 26.124C34.5767 25.7396 34.7075 25.351 34.8529 24.968C35.2265 23.9832 34.4687 22.6236 33.3915 22.4483C32.9639 22.3787 32.5376 22.3006 32.112 22.2204C31.7275 22.1479 31.4896 21.9058 31.4249 21.5288C31.2271 20.3755 31.2234 19.2205 31.4358 18.0634C31.5254 17.5751 31.7448 17.362 32.2326 17.2638C32.7359 17.1627 33.2554 17.1003 33.7335 16.9238C34.7197 16.56 35.2272 15.364 34.8714 14.3752C34.736 13.999 34.6041 13.6214 34.4743 13.243C34.3521 12.8868 34.4366 12.5562 34.7221 12.3067C35.6417 11.5035 36.6786 10.9019 37.821 10.4904C38.1722 10.3639 38.482 10.4563 38.7257 10.7393C38.9899 11.046 39.2687 11.3421 39.5082 11.6676C40.1835 12.5853 41.8607 12.6437 42.6216 11.599C42.8537 11.2803 43.125 10.9896 43.3857 10.6925C43.6292 10.4149 43.9325 10.336 44.2773 10.4542C45.4195 10.8458 46.4463 11.4385 47.3568 12.2315C47.639 12.4772 47.7174 12.7849 47.5928 13.1425C47.4415 13.5769 47.2894 14.0112 47.1305 14.4429C46.7632 15.4406 47.5368 16.7604 48.5452 16.9365C48.9649 17.0098 49.3838 17.0873 49.8028 17.1642C50.2865 17.2529 50.4958 17.4765 50.5772 17.9678C50.7639 19.0944 50.7567 20.221 50.5483 21.3482C50.5251 21.4734 50.4807 21.5949 50.4461 21.7181Z" fill="#37CC3A" style="mix-blend-mode:multiply"/>
</g>
</g>
<defs>
<clipPath id="clip0_23294_1473">
<rect width="52" height="52" fill="white" transform="translate(0 0.602539)"/>
</clipPath>
</defs>
</svg>
