<svg xmlns="http://www.w3.org/2000/svg" width="40" height="40" viewBox="0 0 40 40" fill="none">
<path fill-rule="evenodd" clip-rule="evenodd" d="M7.94654 33.9869L7.81947 34C6.55362 34.0005 5.69613 32.8536 6.10141 31.6979C6.14192 31.5827 6.19076 31.4683 6.24693 31.3558C10.9297 21.9817 14.713 14.4097 18.3559 7.12108C18.8173 6.19791 19.6476 5.79477 20.5688 6.1013C21.0846 6.27296 21.3898 6.61988 21.6667 7.17346C22.9414 9.72319 23.9765 11.7951 26.2453 16.3372L26.3906 16.6281C27.3351 18.5191 27.3351 18.5191 28.2797 20.4101C28.7059 21.2632 28.7059 21.2632 29.1321 22.1163L29.1889 22.2301C31.4543 26.7651 32.4717 28.7997 33.7387 31.3269C34.0774 32.0023 34.1074 32.6331 33.707 33.2317C33.2692 33.8863 32.5738 34.1346 31.7918 33.9249C30.4957 33.5776 29.4529 33.2946 27.1345 32.6628L26.9256 32.6059C26.7906 32.5691 26.7906 32.5691 26.6556 32.5323C26.1486 32.3942 25.7547 32.2867 24.8542 32.0407L24.7539 32.0133C22.4355 31.38 21.3991 31.098 20.1076 30.7511C20.043 30.7337 19.9531 30.7334 19.894 30.7495C17.6109 31.3701 15.7777 31.8712 11.6802 32.9931L11.4757 33.0491C9.94509 33.4682 9.27783 33.6508 8.41456 33.8869C8.3957 33.892 8.3957 33.892 8.37708 33.8969C8.23945 33.9327 7.82452 34.0123 7.94654 33.9869ZM19.9993 11.6173C18.1612 15.2915 17.9766 15.6604 15.8062 19.999L15.7979 20.0155C13.4583 24.6923 12.3514 26.9049 11.0234 29.5595C13.1465 28.9819 16.9332 27.9517 18.2342 27.5977L18.2548 27.5921C18.2548 26.9362 18.2548 26.8954 18.2547 26.1625C18.2544 23.199 18.2548 21.8818 18.2572 20.2353C18.2575 19.9682 18.2786 19.7437 18.3358 19.5249C18.564 18.6528 19.4773 18.1116 20.3571 18.3097C21.2472 18.5102 21.7396 19.1888 21.7403 20.1566C21.7411 21.6868 21.7412 22.911 21.741 25.6652C21.7409 26.6434 21.7409 26.6785 21.7409 27.5891C23.8916 28.174 25.61 28.6413 28.9734 29.5561C26.1345 23.8813 23.2041 18.0237 19.9993 11.6173Z" fill="#B1C2C9"/>
<path d="M19.9993 11.6174C18.1612 15.2916 17.9766 15.6605 15.8062 19.9991L15.7979 20.0156C13.4583 24.6924 12.3514 26.905 11.0234 29.5596C13.1465 28.982 16.9332 27.9518 18.2342 27.5978L18.2548 27.5922C18.2548 26.9363 18.2548 26.8955 18.2547 26.1626C18.2544 23.1991 18.2548 21.882 18.2572 20.2354C18.2575 19.9683 18.2786 19.7438 18.3358 19.5251C18.564 18.6529 19.4773 18.1117 20.3571 18.3098C21.2472 18.5103 21.7396 19.1889 21.7403 20.1567C21.7411 21.6869 21.7412 22.9111 21.741 25.6653C21.7409 26.6435 21.7409 26.6786 21.7409 27.5892C23.8916 28.1741 25.61 28.6414 28.9734 29.5562C26.1345 23.8814 23.2041 18.0238 19.9993 11.6174Z" fill="transparent"/>
</svg>