<svg width="64" height="64" viewBox="0 0 64 64" fill="none" xmlns="http://www.w3.org/2000/svg">
<path fill-rule="evenodd" clip-rule="evenodd" d="M12.8755 50.4067C11.7709 50.4067 10.8755 49.5113 10.8755 48.4067L10.8755 16.2312C10.8755 15.1267 11.7709 14.2312 12.8755 14.2312H36.6532C37.7577 14.2312 38.6532 15.1267 38.6532 16.2312V48.4067C38.6532 49.5113 37.7577 50.4067 36.6532 50.4067H12.8755Z" fill="#47CC4A"/>
<rect opacity="0.2" x="17.2019" y="30.4785" width="4.46512" height="16.9141" transform="rotate(-90 17.2019 30.4785)" fill="#3570E6"/>
<rect opacity="0.2" x="17.2019" y="37.1763" width="4.46512" height="16.9141" transform="rotate(-90 17.2019 37.1763)" fill="#3570E6"/>
<rect opacity="0.2" x="17.2019" y="43.874" width="4.46512" height="16.9141" transform="rotate(-90 17.2019 43.874)" fill="#3570E6"/>
<path fill-rule="evenodd" clip-rule="evenodd" d="M52.4515 18.1721C53.4767 18.6461 53.9062 19.8743 53.4 20.8838L38.8641 49.8738C38.3801 50.8392 37.2171 51.2459 36.2369 50.7927L14.686 40.828C13.6609 40.354 13.2313 39.1258 13.7375 38.1162L28.2734 9.12626C28.7574 8.1609 29.9204 7.75414 30.9006 8.20737L52.4515 18.1721Z" fill="#1236E6" style="mix-blend-mode:hard-light"/>
<path fill-rule="evenodd" clip-rule="evenodd" d="M22.3901 37.3344C23.1449 37.0874 23.861 36.8422 24.582 36.6213C25.036 36.4823 25.497 36.3552 25.9646 36.4034C26.5732 36.4659 26.8106 36.8721 26.5895 37.4948C26.5078 37.7251 26.3799 37.9408 26.2675 38.1604C26.1732 38.3446 26.0576 38.5189 25.9752 38.7076C25.8434 39.0098 25.9469 39.2125 26.2338 39.2971C26.8029 39.465 27.3919 39.4614 27.9897 39.4146C28.6337 39.3643 29.2788 39.3091 29.921 39.2968C30.2317 39.2909 30.5396 39.3678 30.8437 39.4274C31.0615 39.4702 31.1367 39.6708 31.0358 39.8899C30.949 40.0782 30.8593 40.2655 30.7619 40.4484C30.6791 40.6042 30.5536 40.7002 30.3875 40.6499C29.8618 40.4907 29.3154 40.5518 28.7708 40.6096C28.0523 40.6859 27.3299 40.8068 26.6216 40.7075C26.2373 40.6536 25.8421 40.575 25.4984 40.4108C24.6657 40.0132 24.4848 39.1864 24.8584 38.266C24.9157 38.1249 24.9915 37.9909 25.0664 37.8377C25.0064 37.8534 24.9476 37.864 24.8912 37.8843C23.2717 38.4632 21.6522 39.0418 20.0335 39.6242C19.7505 39.7259 19.4917 39.7446 19.2912 39.499C19.1127 39.2804 19.1124 38.9712 19.2917 38.7212C19.3494 38.6408 19.4204 38.5691 19.4914 38.5005C20.6794 37.3522 21.8681 36.2049 23.0574 35.0582C23.1785 34.9414 23.2896 34.8242 23.3023 34.6403C23.3209 34.3721 23.119 34.1686 22.846 34.2082C22.4688 34.2629 22.0924 34.3327 21.7156 34.3948C21.3808 34.4499 21.2827 34.3681 21.2552 34.0134C21.2431 33.8579 21.2257 33.7028 21.2227 33.5463C21.2195 33.3817 21.2803 33.2206 21.4449 33.1901C22.0049 33.0869 22.5708 32.9408 23.1269 32.9334C23.7741 32.9247 24.2158 33.3218 24.4216 33.958C24.6195 34.5697 24.5203 35.1752 24.0667 35.6742C23.5817 36.2077 23.0464 36.6902 22.533 37.1949C22.492 37.2351 22.4509 37.275 22.3901 37.3344Z" fill="#DEEAFC"/>
<path fill-rule="evenodd" clip-rule="evenodd" d="M43.7498 28.4667L27.5284 20.6224L29.5019 16.6106L45.7233 24.4549L43.7498 28.4667Z" fill="#0925AF"/>
<path fill-rule="evenodd" clip-rule="evenodd" d="M33.6294 32.0197L24.3195 27.5342L26.2897 23.5207L35.5996 28.0062L33.6294 32.0197Z" fill="#0925AF"/>
</svg>
