<svg width="32" height="32" viewBox="0 0 32 32" fill="none" xmlns="http://www.w3.org/2000/svg">
<path fill-rule="evenodd" clip-rule="evenodd" d="M6.24246 27.3216L6.13959 27.3322C5.11486 27.3327 4.4207 26.4043 4.74878 25.4688C4.78158 25.3756 4.82111 25.283 4.86659 25.1919C8.6574 17.6042 11.7201 11.4751 14.6691 5.57541C15.0426 4.82816 15.7147 4.50185 16.4605 4.74996C16.878 4.88891 17.1251 5.16972 17.3493 5.61782C18.3811 7.68166 19.2191 9.35875 21.0557 13.0353L21.1733 13.2708C21.938 14.8014 21.938 14.8014 22.7027 16.332C23.0477 17.0226 23.0477 17.0226 23.3927 17.7131L23.4387 17.8052C25.2726 21.476 26.0961 23.123 27.1219 25.1685C27.396 25.7152 27.4203 26.2258 27.0962 26.7103C26.7418 27.2402 26.1788 27.4412 25.5458 27.2715C24.4965 26.9903 23.6524 26.7613 21.7755 26.2499L21.6065 26.2038C21.4971 26.174 21.4971 26.174 21.3878 26.1442C20.9774 26.0324 20.6586 25.9454 19.9296 25.7463L19.8484 25.7241C17.9716 25.2115 17.1326 24.9833 16.0872 24.7025C16.0348 24.6884 15.9621 24.6882 15.9142 24.7011C14.066 25.2035 12.5819 25.6091 9.26494 26.5172L9.09938 26.5625C7.86033 26.9017 7.32017 27.0496 6.62133 27.2407C6.60606 27.2448 6.60606 27.2448 6.59099 27.2488C6.47958 27.2778 6.14368 27.3422 6.24246 27.3216ZM15.9991 9.21479C14.5111 12.1888 14.3618 12.4874 12.6047 15.9992L12.598 16.0126C10.704 19.7981 9.808 21.5891 8.73297 23.7379C10.4516 23.2703 13.5171 22.4364 14.5703 22.1499L14.5869 22.1454C14.5869 21.6145 14.5869 21.5815 14.5869 20.9882C14.5866 18.5895 14.5869 17.5233 14.5889 16.1905C14.5891 15.9743 14.6062 15.7926 14.6525 15.6155C14.8372 14.9096 15.5766 14.4715 16.2888 14.6318C17.0093 14.7941 17.408 15.3434 17.4085 16.1268C17.4092 17.3654 17.4093 18.3563 17.4091 20.5857C17.409 21.3775 17.409 21.4059 17.409 22.1429C19.15 22.6164 20.5411 22.9947 23.2639 23.7351C20.9657 19.1417 18.5935 14.4004 15.9991 9.21479Z" fill="#252833"/>
<path d="M15.9991 9.21484C14.5111 12.1889 14.3618 12.4875 12.6047 15.9993L12.598 16.0126C10.704 19.7982 9.808 21.5892 8.73297 23.7379C10.4516 23.2704 13.5171 22.4365 14.5703 22.15L14.5869 22.1454C14.5869 21.6145 14.5869 21.5815 14.5869 20.9883C14.5866 18.5895 14.5869 17.5233 14.5889 16.1906C14.5891 15.9744 14.6062 15.7926 14.6525 15.6156C14.8372 14.9096 15.5766 14.4715 16.2888 14.6319C17.0093 14.7942 17.408 15.3435 17.4085 16.1269C17.4092 17.3655 17.4093 18.3563 17.4091 20.5857C17.409 21.3776 17.409 21.406 17.409 22.143C19.15 22.6164 20.5411 22.9947 23.2639 23.7352C20.9657 19.1418 18.5935 14.4004 15.9991 9.21484Z" fill="#E9ECF0"/>
</svg>
