<svg width="25" height="24" viewBox="0 0 25 24" fill="none" xmlns="http://www.w3.org/2000/svg">
<path fill-rule="evenodd" clip-rule="evenodd" d="M16.6601 8.33091C16.8749 8.11466 17.137 8 17.4287 8C17.7205 8 17.9825 8.11466 18.1965 8.33005C18.3974 8.53226 18.5 8.79036 18.5 9.08336C18.5 9.37636 18.3974 9.63446 18.1973 9.83586L11.5376 16.5814L11.4628 16.656C11.2612 16.8814 10.9961 17 10.6928 17C10.3895 17 10.1245 16.8814 9.92759 16.6612L6.80348 13.2997C6.60257 13.0975 6.5 12.8394 6.5 12.5464C6.5 12.2534 6.60257 11.9953 6.80348 11.7931C7.01748 11.5777 7.27949 11.463 7.57127 11.463C7.86304 11.463 8.12506 11.5777 8.35004 11.8046L10.6926 14.3778L16.6601 8.33091Z" fill="white"/>
</svg>
