<svg width="16" height="16" viewBox="0 0 16 16" fill="none" xmlns="http://www.w3.org/2000/svg">
<g clip-path="url(#clip0_22902_7671)">
<circle cx="8" cy="8" r="8" fill="#294CFF"/>
<path fill-rule="evenodd" clip-rule="evenodd" d="M10.08 6.16546C10.1875 6.05733 10.3185 6 10.4644 6C10.6103 6 10.7413 6.05733 10.8483 6.16502C10.9487 6.26613 11 6.39518 11 6.54168C11 6.68818 10.9487 6.81723 10.8487 6.91793L7.5188 10.2907L7.48138 10.328C7.38058 10.4407 7.24806 10.5 7.0964 10.5C6.94475 10.5 6.81223 10.4407 6.71379 10.3306L5.15174 8.64984C5.05129 8.54874 5 8.41969 5 8.27319C5 8.12668 5.05129 7.99763 5.15174 7.89653C5.25874 7.78884 5.38975 7.73151 5.53563 7.73151C5.68152 7.73151 5.81253 7.78884 5.92502 7.90231L7.09631 9.18892L10.08 6.16546Z" fill="#101114"/>
</g>
<defs>
<clipPath id="clip0_22902_7671">
<rect width="16" height="16" fill="white"/>
</clipPath>
</defs>
</svg>
