<svg xmlns="http://www.w3.org/2000/svg" width="16" height="16" viewBox="0 0 16 16" fill="none">
    <path fill-rule="evenodd" clip-rule="evenodd" d="M12.0954 4.33384C12.3102 4.11759 12.5723 4.00293 12.864 4.00293C13.1558 4.00293 13.4178 4.11759 13.6318 4.33298C13.8327 4.53519 13.9353 4.79329 13.9353 5.08629C13.9353 5.37929 13.8327 5.63739 13.6326 5.83879L6.9729 12.5843L6.89806 12.6589C6.69647 12.8844 6.43142 13.0029 6.12811 13.0029C5.8248 13.0029 5.55975 12.8844 5.36289 12.6641L2.23878 9.30261C2.03788 9.10041 1.9353 8.84231 1.9353 8.5493C1.9353 8.2563 2.03788 7.9982 2.23878 7.79599C2.45278 7.5806 2.71479 7.46594 3.00657 7.46594C3.29834 7.46594 3.56036 7.5806 3.78534 7.80754L6.12792 10.3808L12.0954 4.33384Z" fill="#294CFF"/>
</svg>