<svg xmlns="http://www.w3.org/2000/svg" width="12" height="12" viewBox="0 0 12 12" fill="none">
<g clip-path="url(#clip0_20947_8927)">
<circle cx="6" cy="6" r="6" fill="#294CFF"/>
<path fill-rule="evenodd" clip-rule="evenodd" d="M7.56003 4.62409C7.6406 4.543 7.73886 4.5 7.84828 4.5C7.95769 4.5 8.05595 4.543 8.1362 4.62377C8.21153 4.6996 8.25 4.79638 8.25 4.90626C8.25 5.01614 8.21153 5.11292 8.1365 5.18845L5.6391 7.71802L5.61104 7.746C5.53544 7.83054 5.43605 7.875 5.3223 7.875C5.20856 7.875 5.10917 7.83054 5.03535 7.74794L3.8638 6.48738C3.78847 6.41155 3.75 6.31477 3.75 6.20489C3.75 6.09501 3.78847 5.99823 3.8638 5.9224C3.94405 5.84163 4.04231 5.79863 4.15172 5.79863C4.26114 5.79863 4.3594 5.84163 4.44376 5.92673L5.32223 6.89169L7.56003 4.62409Z" fill="white"/>
</g>
<defs>
<clipPath id="clip0_20947_8927">
<rect width="12" height="12" fill="white"/>
</clipPath>
</defs>
</svg>