<svg width="49" height="48" viewBox="0 0 49 48" fill="none" xmlns="http://www.w3.org/2000/svg">
<rect x="0.182861" width="48" height="48" rx="24" fill="#EBEDFA"/>
<path fill-rule="evenodd" clip-rule="evenodd" d="M17.7465 15.989C15.932 18.1698 15.1349 20.7294 15.0024 23.5281C15.0024 23.5786 15.0018 23.6292 15.0012 23.6797C14.9999 23.7906 14.9986 23.9014 15.0035 24.012C15.0195 24.3699 15.3605 24.5682 15.6783 24.4066C15.8801 24.3039 15.9103 24.1163 15.9224 23.9152C15.9316 23.7628 15.9389 23.6102 15.9462 23.4576C15.9651 23.0622 15.9839 22.6667 16.0361 22.2757C16.3135 20.1972 17.0365 18.2958 18.3738 16.659C19.4444 15.3485 20.7649 14.4081 22.446 14.0528C22.7248 13.9938 23.0115 13.9716 23.2981 13.9494C23.438 13.9385 23.5779 13.9277 23.7169 13.9126C24.0237 13.8792 24.1781 13.7072 24.1639 13.4209C24.1507 13.1522 23.9783 12.9833 23.6802 13.0013L23.5316 13.0101C23.1307 13.0335 22.7271 13.0571 22.3361 13.136C20.4558 13.5155 18.9567 14.5345 17.7465 15.989ZM31.3431 25.9058L30.6034 25.7715C30.5778 25.8947 30.5538 26.0184 30.5299 26.1422C30.4777 26.4112 30.4255 26.6807 30.3566 26.9458C29.8996 28.7029 29.1169 30.2845 27.7836 31.5488C25.311 33.8935 21.8618 33.8266 19.4738 31.3942C19.2257 31.1415 18.9997 30.8664 18.775 30.5921C18.5773 30.3505 18.5936 30.0379 18.7943 29.878C18.9916 29.7207 19.3056 29.7802 19.4952 30.0237C20.1035 30.8048 20.8164 31.4686 21.7235 31.8797C23.5794 32.7207 25.3014 32.4231 26.8501 31.151C28.2299 30.0177 28.9869 28.4894 29.4338 26.7928C29.5165 26.4789 29.5789 26.1596 29.6412 25.841L29.6412 25.841L29.6412 25.841L29.6412 25.841L29.6412 25.841L29.6412 25.841L29.6412 25.8409L29.6412 25.8409L29.6412 25.8409L29.6412 25.8409L29.6412 25.8409L29.6412 25.8409L29.6413 25.8407L29.6413 25.8406L29.6413 25.8405L29.6413 25.8404L29.6413 25.8403L29.6414 25.8402L29.6414 25.8401L29.6414 25.84L29.6414 25.8399L29.6414 25.8398L29.6415 25.8397C29.6699 25.6941 29.6983 25.5487 29.7287 25.4039L29.0408 24.9809C29.0253 25.0721 29.0111 25.1607 28.9972 25.2474C28.9677 25.4309 28.9395 25.6061 28.904 25.7798C28.5859 27.332 27.9514 28.7215 26.7802 29.8233C26.0056 30.5521 25.0969 31.0064 24.0243 31.0956C23.8885 31.107 23.7484 31.1168 23.6149 31.0965C23.3799 31.0606 23.2384 30.8663 23.2487 30.6292C23.259 30.3885 23.413 30.2065 23.6545 30.1985C25.3804 30.1409 26.4762 29.1532 27.2669 27.7365C27.856 26.6812 28.1151 25.5311 28.1429 24.3277C28.145 24.2333 28.1018 24.1226 28.0454 24.0443C27.2279 22.9078 26.8711 21.6563 27.0612 20.2566C27.0783 20.1303 27.0365 19.9676 26.9638 19.862C26.3271 18.9379 25.5204 18.2354 24.3933 17.9821C24.1997 17.9386 23.999 17.9232 23.7997 17.9078L23.7997 17.9078H23.7997L23.7226 17.9018C23.422 17.878 23.2434 17.7077 23.2482 17.4331C23.2529 17.1578 23.4363 16.9789 23.7385 16.9826C24.9818 16.9976 26.0155 17.4988 26.891 18.359C26.9768 18.4434 27.0586 18.5319 27.1404 18.6203L27.158 18.6394C27.2176 18.7038 27.276 18.7693 27.3354 18.8358L27.4148 18.9246C27.4565 18.8507 27.4982 18.7785 27.5393 18.7073L27.5393 18.7073L27.5394 18.7072L27.5394 18.7072C27.6481 18.5188 27.7529 18.3372 27.8452 18.1496C27.8768 18.0854 27.8616 17.9605 27.8172 17.902C27.1958 17.0847 26.4285 16.4473 25.4777 16.0428C25.4617 16.036 25.4456 16.0294 25.4294 16.0227C25.3859 16.0048 25.3423 15.9869 25.3006 15.9655C25.0651 15.8449 24.9586 15.6056 25.0388 15.3819C25.1208 15.1532 25.3787 15.0188 25.634 15.1045C25.8848 15.1887 26.1316 15.2929 26.3668 15.4142C27.1234 15.8045 27.74 16.37 28.3024 16.9997C28.3612 17.0655 28.4198 17.1316 28.4752 17.1942L28.5464 17.2744C28.6592 17.198 28.7682 17.1201 28.8759 17.0431C29.1049 16.8794 29.3275 16.7203 29.566 16.5905C31.3107 15.6415 33.0606 15.6643 34.7214 16.7472C36.3887 17.8344 37.1419 19.4378 36.978 21.4215C36.7858 23.7468 34.9062 25.6289 32.5695 25.8955C32.3691 25.9183 32.2737 25.9652 32.236 26.1969C31.8593 28.5075 30.9794 30.5931 29.3836 32.3346C28.0485 33.7917 26.4297 34.7392 24.4357 34.966C24.2039 34.9923 23.9689 34.9987 23.7354 35.0002C23.441 35.0019 23.2647 34.8409 23.249 34.5752C23.233 34.3029 23.4032 34.1188 23.7037 34.0866C23.8404 34.0719 23.9779 34.0611 24.1153 34.0502C24.4044 34.0274 24.6934 34.0047 24.9751 33.9462C26.4033 33.6501 27.5766 32.8984 28.584 31.863C30.1477 30.2556 31.1084 27.8899 31.3431 25.9058ZM36.0823 20.9395C36.0892 18.6905 34.2693 16.8554 32.0203 16.8436C29.7785 16.8318 27.9462 18.6558 27.9332 20.9124C27.9204 23.1557 29.7525 25.0041 31.9941 25.0094C34.2407 25.0145 36.0754 23.1881 36.0823 20.9395ZM19.9655 24.1241C19.9935 22.6937 20.2966 21.4664 21.1486 20.4286C22.2239 19.1187 23.8639 18.7691 25.2469 19.5368C25.7061 19.7916 26.0799 20.1431 26.3855 20.5673C26.5395 20.7812 26.5249 21.0398 26.3615 21.2096C26.1961 21.3814 25.9399 21.4086 25.7227 21.25C25.6087 21.1668 25.5124 21.0573 25.4177 20.9494L25.3831 20.9102C24.8528 20.3103 24.2181 19.9399 23.3893 20.0299C22.6864 20.1062 22.1619 20.5014 21.7493 21.0442C21.0057 22.0225 20.7746 23.1503 20.8519 24.3531C20.9022 25.1364 21.1087 25.8773 21.5276 26.5487C21.8966 27.1401 22.3724 27.6135 23.0592 27.8124C23.7431 28.0103 24.3721 27.8578 24.9252 27.4227C25.7633 26.7634 26.1662 25.8571 26.3375 24.8327C26.3709 24.6328 26.3835 24.4294 26.3961 24.226C26.401 24.1474 26.4059 24.0687 26.4119 23.9903C26.438 23.6549 26.5901 23.4955 26.884 23.5005C27.1745 23.5056 27.3314 23.6788 27.328 24.013C27.316 25.1587 27.0225 26.2148 26.4086 27.1966C25.8916 28.0237 25.1905 28.5649 24.2523 28.7826C23.2701 29.0106 22.3948 28.738 21.645 28.0894C20.7045 27.2758 20.2451 26.1993 20.0512 24.9964C20.0137 24.7638 19.9964 24.528 19.9822 24.3339C19.9765 24.2564 19.9713 24.1855 19.9655 24.1241ZM16.6983 23.58C16.8268 21.0789 17.5339 18.7938 19.2316 16.8932C20.256 15.7464 21.5067 14.98 23.0593 14.7783C23.2743 14.7505 23.4932 14.742 23.7103 14.7427C23.9893 14.7436 24.1539 14.9069 24.1645 15.1691C24.1753 15.4372 24.0346 15.6114 23.76 15.6484C23.6286 15.6661 23.496 15.6779 23.3634 15.6898C23.1261 15.711 22.8891 15.7321 22.6599 15.787C21.3749 16.0952 20.3828 16.8573 19.5828 17.8798C18.4378 19.3435 17.861 21.0321 17.675 22.8652C17.6477 23.1334 17.6377 23.4034 17.6277 23.6733L17.6277 23.6733L17.6277 23.6734L17.6277 23.6734L17.6277 23.6734L17.6277 23.6735L17.6277 23.6735L17.6277 23.6735L17.6277 23.6736L17.6277 23.6736C17.6249 23.75 17.622 23.8265 17.6188 23.9029C17.6032 24.2708 17.4488 24.4569 17.153 24.4534C16.8606 24.45 16.6972 24.249 16.6983 23.8945C16.6985 23.8245 16.6985 23.7547 16.6984 23.6848L16.6983 23.58ZM22.9881 25.2959C22.7076 24.9093 22.6005 24.4698 22.6031 23.9985L22.5407 23.9801C22.5727 23.8702 22.6002 23.7581 22.6277 23.6461C22.6882 23.3998 22.7486 23.1535 22.8568 22.9304C23.2479 22.1244 23.9391 22.0478 24.5292 22.7122C24.7097 22.9155 24.9337 22.9527 25.1228 22.8109C25.3059 22.6736 25.3698 22.3672 25.2246 22.1799C24.6454 21.4331 23.626 20.9552 22.6217 21.7297C21.3488 22.7113 21.2627 24.9768 22.4446 26.1135C23.2857 26.9226 24.5394 26.8153 25.2336 25.8749C25.3891 25.6643 25.3746 25.3716 25.2008 25.2153C25.0252 25.0574 24.7365 25.0814 24.5464 25.2711C24.5251 25.2924 24.5053 25.3151 24.4856 25.3379L24.4856 25.3379L24.4855 25.338L24.4855 25.338L24.4855 25.338L24.4855 25.338L24.4854 25.3381L24.4854 25.3381L24.4854 25.3381C24.4682 25.3579 24.451 25.3777 24.4328 25.3966C23.9702 25.8749 23.3791 25.8347 22.9881 25.2959ZM18.3488 24.2177C18.3608 23.0457 18.4804 22.1216 18.7734 21.2269C18.8196 21.0858 18.931 20.9481 19.048 20.8528C19.1777 20.7474 19.3535 20.6811 19.5134 20.8153C19.6731 20.9493 19.7329 21.1165 19.6775 21.3329C19.6605 21.3987 19.6434 21.4646 19.6263 21.5306L19.6262 21.5308C19.5261 21.9164 19.4257 22.3029 19.3625 22.6948C19.1644 23.9224 19.2584 25.135 19.614 26.3269L19.6306 26.3815C19.6462 26.4326 19.6618 26.4837 19.6749 26.5354C19.7458 26.8138 19.622 27.0494 19.3654 27.1274C19.1245 27.2007 18.8705 27.0797 18.7964 26.8128C18.6675 26.3483 18.5421 25.8799 18.464 25.4052C18.4072 25.06 18.3835 24.7092 18.3661 24.4516L18.3661 24.4516C18.3599 24.3605 18.3545 24.2812 18.3488 24.2177ZM17.1789 25.1099C16.9733 25.1408 16.7941 25.3694 16.7924 25.6425C16.7967 25.67 16.8013 25.7005 16.8063 25.7333C16.8187 25.816 16.8334 25.913 16.8503 26.0096C17.0387 27.0944 17.3575 28.1382 17.8382 29.1303C17.9675 29.3974 18.2932 29.5234 18.5292 29.4078C18.7646 29.2925 18.7994 29.0481 18.6846 28.7415C18.4142 28.0196 18.1527 27.2936 17.9178 26.5596C17.8519 26.3537 17.8144 26.1389 17.7769 25.9239C17.752 25.781 17.727 25.638 17.6937 25.4975C17.6346 25.2486 17.39 25.0781 17.1789 25.1099ZM20.8569 29.0355L20.857 29.0355C20.9342 29.0683 20.996 29.0945 21.0445 29.1361C21.5017 29.5275 22.0086 29.8277 22.5782 30.0257C22.8077 30.1054 22.9042 30.3024 22.8489 30.5236C22.7892 30.7628 22.5527 30.9518 22.3313 30.896C21.5808 30.7069 20.9287 30.3338 20.4125 29.7563C20.3237 29.657 20.2963 29.4237 20.3494 29.2982C20.3892 29.2039 20.4908 29.1356 20.5926 29.0671C20.6372 29.0371 20.6818 29.0071 20.7214 28.9748C20.771 28.999 20.816 29.0181 20.8568 29.0354L20.8568 29.0354L20.8569 29.0355ZM22.3674 17.9941C22.5649 17.9181 22.671 17.7635 22.6771 17.5696C22.6745 17.2545 22.3497 17.0568 22.0379 17.1763C21.4234 17.412 20.8722 17.7562 20.3876 18.2018C20.1845 18.3887 20.1756 18.6588 20.3483 18.847C20.5278 19.0426 20.7869 19.0632 20.9924 18.8683C21.3951 18.4863 21.8494 18.1934 22.3674 17.9941ZM24.7149 23.9799C24.7115 24.262 24.5635 24.4318 24.3036 24.4516C24.0236 24.4729 23.8427 24.3325 23.8096 24.0443C23.788 23.8564 23.7614 23.7231 23.5237 23.6793C23.3116 23.6401 23.2344 23.4338 23.2526 23.2224C23.2699 23.0211 23.3713 22.8732 23.5821 22.8263C23.8382 22.7693 24.0623 22.851 24.2575 23.0078C24.566 23.2553 24.7048 23.5888 24.7149 23.9799ZM20.2289 28.9461C20.4208 28.8695 20.522 28.7298 20.5324 28.5177C20.5306 28.507 20.5296 28.4954 20.5286 28.4834L20.5286 28.4834C20.5264 28.4563 20.5241 28.4276 20.511 28.405C20.4635 28.3229 20.417 28.24 20.3704 28.157L20.3704 28.157C20.236 27.9176 20.1015 27.678 19.9432 27.4555C19.8259 27.2908 19.6217 27.2923 19.4383 27.3955C19.2471 27.503 19.1362 27.6781 19.222 27.8774C19.364 28.2071 19.5376 28.5266 19.7298 28.8302C19.8385 29.0019 20.0345 29.0237 20.2289 28.9461ZM20.4787 19.5523L20.4786 19.5523L20.4786 19.5523C20.4551 19.6246 20.4376 19.6785 20.41 19.7267C20.3212 19.8812 20.2276 20.033 20.1339 20.1847L20.1339 20.1848C20.0967 20.2449 20.0596 20.3051 20.0228 20.3654C19.8985 20.5691 19.6779 20.6462 19.4587 20.5625C19.2526 20.4838 19.1302 20.277 19.2246 20.0504C19.353 19.7423 19.5154 19.4431 19.702 19.1663C19.8175 18.9949 20.0431 18.9446 20.2227 19.0568C20.3154 19.1147 20.3827 19.2132 20.4455 19.3053L20.4455 19.3053C20.4723 19.3445 20.4982 19.3825 20.525 19.4157C20.506 19.468 20.4915 19.5129 20.4787 19.5523ZM31.809 21.2646L31.5414 21.5325C31.4169 21.4062 31.2948 21.2816 31.1741 21.1584C30.8891 20.8676 30.612 20.5847 30.3304 20.3063C30.1174 20.0959 29.8546 20.098 29.6665 20.2919C29.4836 20.4805 29.4826 20.732 29.6847 20.9375C30.1931 21.4547 30.706 21.9676 31.223 22.4764C31.4244 22.6748 31.6701 22.6818 31.8677 22.4863C32.4908 21.8697 33.11 21.2491 33.7292 20.6285C33.9297 20.4275 34.1303 20.2265 34.3309 20.0257C34.3536 20.003 34.374 19.9776 34.3925 19.9513C34.5235 19.7658 34.5076 19.538 34.3535 19.3771C34.1944 19.211 33.9458 19.1847 33.7604 19.3221C33.7059 19.3624 33.6579 19.4119 33.61 19.4611C33.5958 19.4756 33.5817 19.4901 33.5675 19.5044C32.9874 20.0846 32.4076 20.6652 31.809 21.2646Z" fill="#525C75"/>
<path d="M15.0024 23.5281L14.8024 23.5186V23.5281H15.0024ZM17.7465 15.989L17.5927 15.8611L17.5927 15.8611L17.7465 15.989ZM15.0012 23.6797L14.8012 23.6774V23.6774L15.0012 23.6797ZM15.0035 24.012L14.8037 24.0209L14.8037 24.0209L15.0035 24.012ZM15.6783 24.4066L15.5876 24.2283L15.5876 24.2283L15.6783 24.4066ZM15.9224 23.9152L15.7228 23.9031L15.7228 23.9032L15.9224 23.9152ZM15.9462 23.4576L15.7464 23.4481L15.9462 23.4576ZM16.0361 22.2757L16.2344 22.3021L16.2344 22.3021L16.0361 22.2757ZM18.3738 16.659L18.5286 16.7855L18.5286 16.7855L18.3738 16.659ZM22.446 14.0528L22.4873 14.2485L22.4873 14.2485L22.446 14.0528ZM23.2981 13.9494L23.2827 13.75L23.2981 13.9494ZM23.7169 13.9126L23.7385 14.1114L23.7386 14.1114L23.7169 13.9126ZM24.1639 13.4209L23.9642 13.4308L23.9642 13.4308L24.1639 13.4209ZM23.6802 13.0013L23.692 13.201L23.6923 13.2009L23.6802 13.0013ZM23.5316 13.0101L23.5433 13.2098L23.5434 13.2097L23.5316 13.0101ZM22.3361 13.136L22.3756 13.3321L22.3756 13.3321L22.3361 13.136ZM30.6034 25.7715L30.6391 25.5747L30.4472 25.5399L30.4076 25.7309L30.6034 25.7715ZM31.3431 25.9058L31.5417 25.9293L31.5638 25.7426L31.3788 25.7091L31.3431 25.9058ZM30.5299 26.1422L30.7262 26.1802V26.1802L30.5299 26.1422ZM30.3566 26.9458L30.163 26.8955L30.163 26.8955L30.3566 26.9458ZM27.7836 31.5488L27.9212 31.694H27.9212L27.7836 31.5488ZM19.4738 31.3942L19.6165 31.2541L19.6165 31.2541L19.4738 31.3942ZM18.775 30.5921L18.6203 30.7188L18.6203 30.7188L18.775 30.5921ZM18.7943 29.878L18.6697 29.7216L18.6697 29.7216L18.7943 29.878ZM19.4952 30.0237L19.3374 30.1466L19.3374 30.1466L19.4952 30.0237ZM21.7235 31.8797L21.8061 31.6975H21.8061L21.7235 31.8797ZM26.8501 31.151L26.9771 31.3056L26.8501 31.151ZM29.4338 26.7928L29.2404 26.7418L29.2404 26.7419L29.4338 26.7928ZM29.6412 25.841L29.4469 25.7924L29.4449 25.8026L29.6412 25.841ZM29.6412 25.8409L29.8356 25.8895L29.8378 25.8777L29.6412 25.8409ZM29.6413 25.8407L29.4453 25.8004L29.4447 25.8038L29.6413 25.8407ZM29.6415 25.8397L29.8374 25.8801L29.8377 25.8781L29.6415 25.8397ZM29.7287 25.4039L29.9244 25.4449L29.9533 25.3072L29.8335 25.2335L29.7287 25.4039ZM29.0408 24.9809L29.1455 24.8105L28.8931 24.6553L28.8436 24.9475L29.0408 24.9809ZM28.9972 25.2474L28.7997 25.2157L28.9972 25.2474ZM28.904 25.7798L29.0999 25.82L29.0999 25.82L28.904 25.7798ZM26.7802 29.8233L26.9172 29.969H26.9173L26.7802 29.8233ZM24.0243 31.0956L24.0077 30.8963L24.0077 30.8963L24.0243 31.0956ZM23.6149 31.0965L23.5847 31.2942L23.5848 31.2942L23.6149 31.0965ZM23.2487 30.6292L23.4485 30.6378L23.4485 30.6378L23.2487 30.6292ZM23.6545 30.1985L23.6612 30.3984H23.6612L23.6545 30.1985ZM27.2669 27.7365L27.0923 27.639L27.0923 27.639L27.2669 27.7365ZM28.1429 24.3277L28.3428 24.3323L28.3428 24.3322L28.1429 24.3277ZM28.0454 24.0443L27.883 24.1611L27.8831 24.1612L28.0454 24.0443ZM27.0612 20.2566L27.2594 20.2835L27.2594 20.2835L27.0612 20.2566ZM26.9638 19.862L27.1285 19.7485L27.1285 19.7485L26.9638 19.862ZM24.3933 17.9821L24.4371 17.787L24.4371 17.787L24.3933 17.9821ZM23.7997 17.9078L23.8151 17.7084L23.8139 17.7083L23.7997 17.9078ZM23.7997 17.9078L23.8139 17.7083L23.8068 17.7078H23.7997V17.9078ZM23.7997 17.9078L23.7841 18.1072L23.7919 18.1078H23.7997V17.9078ZM23.7226 17.9018L23.7068 18.1012L23.7071 18.1012L23.7226 17.9018ZM23.2482 17.4331L23.4481 17.4366L23.4481 17.4366L23.2482 17.4331ZM23.7385 16.9826L23.736 17.1826H23.7361L23.7385 16.9826ZM26.891 18.359L27.0312 18.2164L27.0311 18.2164L26.891 18.359ZM27.1404 18.6203L26.9935 18.7561L26.9935 18.7561L27.1404 18.6203ZM27.158 18.6394L27.0112 18.7752L27.0112 18.7752L27.158 18.6394ZM27.3354 18.8358L27.1862 18.969L27.1863 18.9692L27.3354 18.8358ZM27.4148 18.9246L27.2657 19.0579L27.4516 19.2658L27.5889 19.023L27.4148 18.9246ZM27.5393 18.7073L27.3726 18.5961L27.3661 18.6073L27.5393 18.7073ZM27.5393 18.7073L27.706 18.8184L27.7117 18.8087L27.5393 18.7073ZM27.5394 18.7072L27.7119 18.8087L27.7155 18.802L27.5394 18.7072ZM27.5394 18.7072L27.3661 18.6071L27.3633 18.6124L27.5394 18.7072ZM27.8452 18.1496L28.0247 18.2378L28.0247 18.2378L27.8452 18.1496ZM27.8172 17.902L27.9764 17.781L27.9764 17.781L27.8172 17.902ZM25.4777 16.0428L25.556 15.8588L25.5559 15.8587L25.4777 16.0428ZM25.4294 16.0227L25.3533 16.2077V16.2077L25.4294 16.0227ZM25.3006 15.9655L25.2094 16.1435L25.2096 16.1436L25.3006 15.9655ZM25.0388 15.3819L25.227 15.4494V15.4494L25.0388 15.3819ZM25.634 15.1045L25.6977 14.9149L25.6977 14.9149L25.634 15.1045ZM26.3668 15.4142L26.2751 15.5919L26.2751 15.5919L26.3668 15.4142ZM28.3024 16.9997L28.4516 16.8665L28.4516 16.8664L28.3024 16.9997ZM28.4752 17.1942L28.3256 17.3268L28.3256 17.3269L28.4752 17.1942ZM28.5464 17.2744L28.3968 17.4071L28.5133 17.5384L28.6586 17.44L28.5464 17.2744ZM28.8759 17.0431L28.7596 16.8804V16.8804L28.8759 17.0431ZM29.566 16.5905L29.4705 16.4148L29.4705 16.4148L29.566 16.5905ZM34.7214 16.7472L34.8306 16.5797L34.8306 16.5797L34.7214 16.7472ZM36.978 21.4215L37.1773 21.438V21.438L36.978 21.4215ZM32.5695 25.8955L32.5922 26.0942L32.5922 26.0942L32.5695 25.8955ZM32.236 26.1969L32.4334 26.2291L32.4334 26.2291L32.236 26.1969ZM29.3836 32.3346L29.2362 32.1995V32.1995L29.3836 32.3346ZM24.4357 34.966L24.4583 35.1647L24.4583 35.1647L24.4357 34.966ZM23.7354 35.0002L23.7366 35.2002H23.7366L23.7354 35.0002ZM23.249 34.5752L23.0494 34.587V34.587L23.249 34.5752ZM23.7037 34.0866L23.7251 34.2854L23.7251 34.2854L23.7037 34.0866ZM24.1153 34.0502L24.131 34.2496H24.131L24.1153 34.0502ZM24.9751 33.9462L24.9345 33.7504H24.9345L24.9751 33.9462ZM28.584 31.863L28.7273 32.0025L28.7273 32.0025L28.584 31.863ZM32.0203 16.8436L32.0192 17.0436H32.0192L32.0203 16.8436ZM36.0823 20.9395L35.8823 20.9389L36.0823 20.9395ZM27.9332 20.9124L27.7332 20.9113V20.9113L27.9332 20.9124ZM31.9941 25.0094L31.9936 25.2094L31.9937 25.2094L31.9941 25.0094ZM21.1486 20.4286L21.3032 20.5555L21.3032 20.5555L21.1486 20.4286ZM19.9655 24.1241L19.7655 24.1202L19.7653 24.1316L19.7664 24.1429L19.9655 24.1241ZM25.2469 19.5368L25.1498 19.7116L25.1498 19.7116L25.2469 19.5368ZM26.3855 20.5673L26.2232 20.6842L26.2232 20.6842L26.3855 20.5673ZM26.3615 21.2096L26.2174 21.0709L26.2174 21.0709L26.3615 21.2096ZM25.7227 21.25L25.8406 21.0884L25.8406 21.0884L25.7227 21.25ZM25.4177 20.9494L25.568 20.8174L25.5678 20.8173L25.4177 20.9494ZM25.3831 20.9102L25.5332 20.778L25.533 20.7777L25.3831 20.9102ZM23.3893 20.0299L23.3677 19.831H23.3677L23.3893 20.0299ZM21.7493 21.0442L21.9085 21.1652L21.9086 21.1652L21.7493 21.0442ZM20.8519 24.3531L20.6523 24.366L20.6523 24.366L20.8519 24.3531ZM21.5276 26.5487L21.6973 26.4428L21.6973 26.4428L21.5276 26.5487ZM23.0592 27.8124L23.0036 28.0045L23.0036 28.0045L23.0592 27.8124ZM24.9252 27.4227L25.0489 27.5799L25.0489 27.5799L24.9252 27.4227ZM26.3375 24.8327L26.1402 24.7997L26.1402 24.7997L26.3375 24.8327ZM26.3961 24.226L26.5957 24.2384V24.2384L26.3961 24.226ZM26.4119 23.9903L26.2125 23.9748L26.2125 23.9748L26.4119 23.9903ZM26.884 23.5005L26.8875 23.3006L26.8875 23.3006L26.884 23.5005ZM27.328 24.013L27.128 24.0109V24.011L27.328 24.013ZM26.4086 27.1966L26.2391 27.0905L26.239 27.0906L26.4086 27.1966ZM24.2523 28.7826L24.2071 28.5878L24.2071 28.5878L24.2523 28.7826ZM21.645 28.0894L21.7759 27.9381L21.7759 27.9381L21.645 28.0894ZM20.0512 24.9964L19.8537 25.0281L19.8537 25.0282L20.0512 24.9964ZM19.9822 24.3339L19.7827 24.3485L19.9822 24.3339ZM19.2316 16.8932L19.0825 16.7599L19.0825 16.7599L19.2316 16.8932ZM16.6983 23.58L16.4983 23.5697L16.4983 23.5801L16.6983 23.58ZM23.0593 14.7783L23.0336 14.58L23.0335 14.58L23.0593 14.7783ZM23.7103 14.7427L23.7109 14.5427H23.7109L23.7103 14.7427ZM24.1645 15.1691L23.9646 15.1771L23.9647 15.1772L24.1645 15.1691ZM23.76 15.6484L23.7333 15.4502L23.7332 15.4502L23.76 15.6484ZM23.3634 15.6898L23.3812 15.889L23.3634 15.6898ZM22.6599 15.787L22.6133 15.5925L22.6132 15.5926L22.6599 15.787ZM19.5828 17.8798L19.4253 17.7565L19.4253 17.7565L19.5828 17.8798ZM17.675 22.8652L17.8739 22.8854L17.8739 22.8854L17.675 22.8652ZM17.6277 23.6733L17.8275 23.6824L17.8276 23.6807L17.6277 23.6733ZM17.6277 23.6736L17.4279 23.6645L17.4278 23.6662L17.6277 23.6736ZM17.6188 23.9029L17.8186 23.9114L17.8186 23.9113L17.6188 23.9029ZM17.153 24.4534L17.1554 24.2534H17.1553L17.153 24.4534ZM16.6983 23.8945L16.8983 23.8951L16.8983 23.895L16.6983 23.8945ZM16.6984 23.6848L16.4984 23.6849V23.685L16.6984 23.6848ZM22.6031 23.9985L22.8031 23.9995L22.8039 23.8492L22.6597 23.8066L22.6031 23.9985ZM22.9881 25.2959L22.8262 25.4134L22.8262 25.4134L22.9881 25.2959ZM22.5407 23.9801L22.3487 23.9241L22.2929 24.1155L22.4841 24.1719L22.5407 23.9801ZM22.6277 23.6461L22.822 23.6937V23.6937L22.6277 23.6461ZM22.8568 22.9304L22.6769 22.8431L22.6769 22.8431L22.8568 22.9304ZM24.5292 22.7122L24.6788 22.5794L24.6788 22.5794L24.5292 22.7122ZM25.1228 22.8109L25.2428 22.9709L25.2428 22.9709L25.1228 22.8109ZM25.2246 22.1799L25.3826 22.0573L25.3826 22.0573L25.2246 22.1799ZM22.6217 21.7297L22.7439 21.8881L22.7439 21.8881L22.6217 21.7297ZM22.4446 26.1135L22.5832 25.9693L22.5832 25.9693L22.4446 26.1135ZM25.2336 25.8749L25.3945 25.9937L25.3945 25.9937L25.2336 25.8749ZM25.2008 25.2153L25.3345 25.0666L25.3345 25.0666L25.2008 25.2153ZM24.5464 25.2711L24.4051 25.1296L24.4051 25.1296L24.5464 25.2711ZM24.4856 25.3379L24.6351 25.4708L24.6366 25.469L24.4856 25.3379ZM24.4854 25.3381L24.3359 25.2052L24.3343 25.207L24.4854 25.3381ZM24.4328 25.3966L24.2892 25.2574L24.289 25.2575L24.4328 25.3966ZM18.7734 21.2269L18.9635 21.2892L18.9635 21.2891L18.7734 21.2269ZM18.3488 24.2177L18.1488 24.2157L18.1487 24.2258L18.1496 24.2358L18.3488 24.2177ZM19.048 20.8528L18.9218 20.6977L18.9218 20.6977L19.048 20.8528ZM19.5134 20.8153L19.3849 20.9685L19.3849 20.9686L19.5134 20.8153ZM19.6775 21.3329L19.8712 21.3826L19.8712 21.3825L19.6775 21.3329ZM19.6263 21.5306L19.8198 21.5811L19.8199 21.5808L19.6263 21.5306ZM19.6262 21.5308L19.4327 21.4803L19.4327 21.4806L19.6262 21.5308ZM19.3625 22.6948L19.5599 22.7267L19.5599 22.7267L19.3625 22.6948ZM19.614 26.3269L19.4224 26.3841L19.4226 26.385L19.614 26.3269ZM19.6306 26.3815L19.4392 26.4395L19.4393 26.4399L19.6306 26.3815ZM19.6749 26.5354L19.4811 26.5847L19.4811 26.5848L19.6749 26.5354ZM19.3654 27.1274L19.3072 26.9361L19.3072 26.9361L19.3654 27.1274ZM18.7964 26.8128L18.6037 26.8663L18.6037 26.8663L18.7964 26.8128ZM18.464 25.4052L18.2667 25.4377L18.2667 25.4377L18.464 25.4052ZM18.3661 24.4516L18.5656 24.4381L18.5655 24.4366L18.3661 24.4516ZM18.3661 24.4516L18.1665 24.4651L18.1666 24.4665L18.3661 24.4516ZM16.7924 25.6425L16.5924 25.6413L16.5923 25.6574L16.5948 25.6734L16.7924 25.6425ZM17.1789 25.1099L17.2086 25.3077L17.2087 25.3077L17.1789 25.1099ZM16.8063 25.7333L16.6085 25.7631L16.8063 25.7333ZM16.8503 26.0096L17.0474 25.9753L17.0473 25.975L16.8503 26.0096ZM17.8382 29.1303L18.0182 29.0431L18.0182 29.0431L17.8382 29.1303ZM18.5292 29.4078L18.4412 29.2282L18.4412 29.2282L18.5292 29.4078ZM18.6846 28.7415L18.8719 28.6714L18.8719 28.6714L18.6846 28.7415ZM17.9178 26.5596L17.7273 26.6206L17.7273 26.6206L17.9178 26.5596ZM17.7769 25.9239L17.5799 25.9583L17.7769 25.9239ZM17.6937 25.4975L17.8883 25.4513L17.8883 25.4513L17.6937 25.4975ZM20.857 29.0355L20.9352 28.8514L20.9313 28.8498L20.857 29.0355ZM20.8569 29.0355L20.7789 29.2197L20.7826 29.2212L20.8569 29.0355ZM21.0445 29.1361L21.1746 28.9842L21.1746 28.9841L21.0445 29.1361ZM22.5782 30.0257L22.5125 30.2146L22.5126 30.2146L22.5782 30.0257ZM22.8489 30.5236L22.6549 30.4751L22.6549 30.4752L22.8489 30.5236ZM22.3313 30.896L22.3802 30.702H22.3802L22.3313 30.896ZM20.4125 29.7563L20.2634 29.8896L20.2634 29.8896L20.4125 29.7563ZM20.3494 29.2982L20.1652 29.2203L20.1652 29.2203L20.3494 29.2982ZM20.5926 29.0671L20.481 28.9012L20.481 28.9012L20.5926 29.0671ZM20.7214 28.9748L20.8089 28.795L20.6939 28.7391L20.5949 28.8199L20.7214 28.9748ZM20.8568 29.0354L20.942 28.8543L20.9349 28.8513L20.8568 29.0354ZM20.8568 29.0354L20.7716 29.2165L20.7788 29.2196L20.8568 29.0354ZM22.6771 17.5696L22.8771 17.5758L22.877 17.568L22.6771 17.5696ZM22.3674 17.9941L22.4392 18.1808L22.4393 18.1808L22.3674 17.9941ZM22.0379 17.1763L21.9664 16.9896L21.9663 16.9896L22.0379 17.1763ZM20.3876 18.2018L20.523 18.3491L20.523 18.3491L20.3876 18.2018ZM20.3483 18.847L20.4957 18.7118L20.4956 18.7118L20.3483 18.847ZM20.9924 18.8683L20.8547 18.7232L20.8547 18.7232L20.9924 18.8683ZM24.3036 24.4516L24.2884 24.2521L24.2884 24.2521L24.3036 24.4516ZM24.7149 23.9799L24.915 23.9823L24.9148 23.9747L24.7149 23.9799ZM23.8096 24.0443L24.0083 24.0214L24.0083 24.0214L23.8096 24.0443ZM23.5237 23.6793L23.56 23.4826L23.56 23.4826L23.5237 23.6793ZM23.2526 23.2224L23.0533 23.2052L23.0533 23.2052L23.2526 23.2224ZM23.5821 22.8263L23.5387 22.6311L23.5387 22.6311L23.5821 22.8263ZM24.2575 23.0078L24.1323 23.1637L24.1323 23.1638L24.2575 23.0078ZM20.5324 28.5177L20.7322 28.5274L20.7333 28.5053L20.7295 28.4836L20.5324 28.5177ZM20.2289 28.9461L20.303 29.1319L20.303 29.1318L20.2289 28.9461ZM20.5286 28.4834L20.728 28.4672L20.7277 28.4635L20.5286 28.4834ZM20.5286 28.4834L20.3293 28.4996L20.3296 28.5033L20.5286 28.4834ZM20.511 28.405L20.3379 28.5052L20.338 28.5054L20.511 28.405ZM20.3704 28.157L20.1913 28.2466L20.196 28.2549L20.3704 28.157ZM20.3704 28.157L20.5495 28.0675L20.5448 28.0591L20.3704 28.157ZM19.9432 27.4555L20.1061 27.3395V27.3395L19.9432 27.4555ZM19.4383 27.3955L19.5363 27.5698L19.5364 27.5698L19.4383 27.3955ZM19.222 27.8774L19.4057 27.7983L19.4057 27.7982L19.222 27.8774ZM19.7298 28.8302L19.5608 28.9372L19.5608 28.9372L19.7298 28.8302ZM20.4786 19.5523L20.6685 19.6156L20.6702 19.6098L20.4786 19.5523ZM20.4787 19.5523L20.2884 19.4904L20.2871 19.4948L20.4787 19.5523ZM20.4786 19.5523L20.2889 19.4891L20.2884 19.4905L20.4786 19.5523ZM20.41 19.7267L20.5834 19.8262L20.5834 19.8262L20.41 19.7267ZM20.1339 20.1847L19.9637 20.0797L19.9636 20.0799L20.1339 20.1847ZM20.1339 20.1848L20.3041 20.2898L20.3042 20.2896L20.1339 20.1848ZM20.0228 20.3654L20.1935 20.4696L20.1935 20.4696L20.0228 20.3654ZM19.4587 20.5625L19.3873 20.7493L19.3874 20.7494L19.4587 20.5625ZM19.2246 20.0504L19.04 19.9735L19.04 19.9735L19.2246 20.0504ZM19.702 19.1663L19.8679 19.2781L19.8679 19.2781L19.702 19.1663ZM20.2227 19.0568L20.3287 18.8872L20.3287 18.8872L20.2227 19.0568ZM20.4455 19.3053L20.6119 19.1943L20.6107 19.1925L20.4455 19.3053ZM20.4455 19.3053L20.2791 19.4162L20.2803 19.4181L20.4455 19.3053ZM20.525 19.4157L20.713 19.4838L20.7514 19.3779L20.6807 19.2902L20.525 19.4157ZM31.5414 21.5325L31.3989 21.6729L31.5404 21.8165L31.6829 21.6739L31.5414 21.5325ZM31.809 21.2646L31.9505 21.4059V21.4059L31.809 21.2646ZM31.1741 21.1584L31.317 21.0184L31.1741 21.1584ZM30.3304 20.3063L30.471 20.1641L30.4709 20.1641L30.3304 20.3063ZM29.6665 20.2919L29.5229 20.1526L29.5229 20.1527L29.6665 20.2919ZM29.6847 20.9375L29.8273 20.7973L29.8273 20.7972L29.6847 20.9375ZM31.223 22.4764L31.3633 22.3339L31.3633 22.3339L31.223 22.4764ZM31.8677 22.4863L32.0084 22.6285L32.0084 22.6285L31.8677 22.4863ZM33.7292 20.6285L33.5876 20.4872L33.7292 20.6285ZM34.3309 20.0257L34.1895 19.8843L34.1894 19.8843L34.3309 20.0257ZM34.3925 19.9513L34.2291 19.836L34.229 19.8361L34.3925 19.9513ZM34.3535 19.3771L34.4979 19.2387L34.4979 19.2387L34.3535 19.3771ZM33.7604 19.3221L33.8795 19.4828L33.8795 19.4827L33.7604 19.3221ZM33.61 19.4611L33.4666 19.3217L33.4666 19.3217L33.61 19.4611ZM33.5675 19.5044L33.4261 19.363L33.426 19.363L33.5675 19.5044ZM15.2021 23.5376C15.3331 20.7725 16.1193 18.2574 17.9002 16.117L17.5927 15.8611C15.7448 18.0822 14.9367 20.6863 14.8026 23.5186L15.2021 23.5376ZM15.2012 23.682C15.2017 23.6317 15.2024 23.58 15.2024 23.5281H14.8024C14.8024 23.5773 14.8018 23.6266 14.8012 23.6774L15.2012 23.682ZM15.2033 24.0031C15.1987 23.8991 15.1999 23.7938 15.2012 23.682L14.8012 23.6774C14.7999 23.7873 14.7985 23.9038 14.8037 24.0209L15.2033 24.0031ZM15.5876 24.2283C15.4866 24.2797 15.3941 24.2697 15.3285 24.2314C15.2629 24.1931 15.2084 24.1174 15.2033 24.0031L14.8037 24.0209C14.8146 24.2646 14.9385 24.4669 15.1269 24.5769C15.3152 24.6867 15.5522 24.6951 15.7689 24.5848L15.5876 24.2283ZM15.7228 23.9032C15.7169 24.0018 15.7072 24.0706 15.6861 24.1229C15.6684 24.1665 15.6422 24.2005 15.5876 24.2283L15.7689 24.5848C16.0783 24.4275 16.1099 24.1291 16.1221 23.9272L15.7228 23.9032ZM15.7464 23.4481C15.7391 23.6009 15.7319 23.7523 15.7228 23.9031L16.1221 23.9272C16.1314 23.7734 16.1387 23.6196 16.146 23.4671L15.7464 23.4481ZM15.8379 22.2492C15.7844 22.65 15.7652 23.0541 15.7464 23.4481L16.146 23.4671C16.1649 23.0703 16.1835 22.6833 16.2344 22.3021L15.8379 22.2492ZM18.2189 16.5325C16.8544 18.2025 16.1193 20.1403 15.8379 22.2492L16.2344 22.3021C16.5077 20.254 17.2185 18.3891 18.5286 16.7855L18.2189 16.5325ZM22.4046 13.8571C20.6698 14.2238 19.3119 15.1947 18.2189 16.5325L18.5286 16.7855C19.5769 15.5024 20.86 14.5924 22.4873 14.2485L22.4046 13.8571ZM23.2827 13.75C22.9983 13.772 22.6985 13.795 22.4046 13.8571L22.4873 14.2485C22.7512 14.1927 23.0246 14.1712 23.3136 14.1488L23.2827 13.75ZM23.6953 13.7138C23.5599 13.7285 23.4231 13.7391 23.2827 13.75L23.3136 14.1488C23.453 14.138 23.5959 14.1269 23.7385 14.1114L23.6953 13.7138ZM23.9642 13.4308C23.9694 13.5357 23.9433 13.5934 23.9126 13.6273C23.8802 13.6629 23.8171 13.7005 23.6953 13.7138L23.7386 14.1114C23.9234 14.0913 24.0909 14.0261 24.209 13.8959C24.3286 13.7638 24.3727 13.5924 24.3637 13.4111L23.9642 13.4308ZM23.6923 13.2009C23.8012 13.1944 23.8621 13.2226 23.8954 13.2525C23.929 13.2826 23.9596 13.3369 23.9642 13.4308L24.3637 13.4111C24.3551 13.2362 24.2929 13.0717 24.1625 12.9547C24.0317 12.8374 23.8573 12.7902 23.6682 12.8017L23.6923 13.2009ZM23.5434 13.2097L23.692 13.201L23.6684 12.8017L23.5198 12.8104L23.5434 13.2097ZM22.3756 13.3321C22.7505 13.2564 23.1399 13.2333 23.5433 13.2098L23.5199 12.8104C23.1216 12.8337 22.7037 12.8578 22.2965 12.94L22.3756 13.3321ZM17.9002 16.117C19.0866 14.6911 20.5476 13.701 22.3756 13.3321L22.2965 12.94C20.364 13.33 18.8268 14.3779 17.5927 15.8611L17.9002 16.117ZM30.5676 25.9683L31.3074 26.1026L31.3788 25.7091L30.6391 25.5747L30.5676 25.9683ZM30.7262 26.1802C30.7502 26.0562 30.7739 25.9338 30.7992 25.8122L30.4076 25.7309C30.3817 25.8555 30.3575 25.9805 30.3335 26.1041L30.7262 26.1802ZM30.5501 26.9962C30.621 26.7239 30.6743 26.4482 30.7262 26.1802L30.3335 26.1041C30.2812 26.3742 30.2301 26.6375 30.163 26.8955L30.5501 26.9962ZM27.9212 31.694C29.2884 30.3974 30.0864 28.7791 30.5501 26.9962L30.163 26.8955C29.7128 28.6266 28.9453 30.1716 27.6459 31.4037L27.9212 31.694ZM19.3311 31.5343C21.7953 34.0444 25.3692 34.1139 27.9212 31.694L27.6459 31.4037C25.2529 33.673 21.9283 33.6089 19.6165 31.2541L19.3311 31.5343ZM18.6203 30.7188C18.8442 30.9922 19.0757 31.2742 19.3311 31.5343L19.6165 31.2541C19.3758 31.0089 19.1552 30.7406 18.9298 30.4654L18.6203 30.7188ZM18.6697 29.7216C18.3614 29.9673 18.3697 30.4126 18.6203 30.7188L18.9298 30.4654C18.785 30.2884 18.8258 30.1086 18.919 30.0344L18.6697 29.7216ZM19.653 29.9008C19.4147 29.5949 18.9772 29.4764 18.6697 29.7216L18.919 30.0344C19.0061 29.9649 19.1965 29.9656 19.3374 30.1466L19.653 29.9008ZM21.8061 31.6975C20.9379 31.304 20.2489 30.666 19.653 29.9008L19.3374 30.1466C19.9581 30.9436 20.6949 31.6331 21.641 32.0618L21.8061 31.6975ZM26.7232 30.9965C25.9712 31.6141 25.1862 31.988 24.3724 32.11C23.5593 32.2318 22.7037 32.1043 21.8061 31.6975L21.641 32.0618C22.5993 32.4961 23.5326 32.6403 24.4316 32.5056C25.3299 32.371 26.1803 31.96 26.9771 31.3056L26.7232 30.9965ZM29.2404 26.7419C28.8 28.4137 28.0597 29.8987 26.7232 30.9965L26.9771 31.3056C28.4001 30.1367 29.1737 28.5651 29.6272 26.8437L29.2404 26.7419ZM29.4449 25.8026C29.3824 26.1223 29.3212 26.4352 29.2404 26.7418L29.6272 26.8438C29.7118 26.5225 29.7754 26.1969 29.8375 25.8794L29.4449 25.8026ZM29.4472 25.7925L29.4472 25.7925L29.8352 25.8895L29.8352 25.8895L29.4472 25.7925ZM29.4472 25.7925L29.4472 25.7925L29.8352 25.8895L29.8352 25.8895L29.4472 25.7925ZM29.4472 25.7925L29.4472 25.7925L29.8352 25.8895L29.8352 25.8895L29.4472 25.7925ZM29.4472 25.7925L29.4472 25.7925L29.8352 25.8895L29.8352 25.8895L29.4472 25.7925ZM29.4472 25.7924L29.4472 25.7925L29.8352 25.8895L29.8352 25.8895L29.4472 25.7924ZM29.4472 25.7924L29.4472 25.7924L29.8352 25.8895L29.8352 25.8895L29.4472 25.7924ZM29.4472 25.7924L29.4472 25.7924L29.8352 25.8895L29.8352 25.8894L29.4472 25.7924ZM29.4472 25.7924L29.4472 25.7924L29.8352 25.8894L29.8352 25.8894L29.4472 25.7924ZM29.4472 25.7924L29.4472 25.7924L29.8352 25.8894L29.8352 25.8894L29.4472 25.7924ZM29.4472 25.7924L29.4472 25.7924L29.8352 25.8894L29.8352 25.8894L29.4472 25.7924ZM29.4472 25.7924L29.4472 25.7924L29.8352 25.8894L29.8352 25.8894L29.4472 25.7924ZM29.4447 25.8038L29.4446 25.804L29.8378 25.8777L29.8378 25.8776L29.4447 25.8038ZM29.4454 25.8003L29.4454 25.8004L29.8371 25.881L29.8372 25.8809L29.4454 25.8003ZM29.4454 25.8002L29.4454 25.8003L29.8372 25.8809L29.8372 25.8808L29.4454 25.8002ZM29.4454 25.8001L29.4454 25.8002L29.8372 25.8808L29.8372 25.8807L29.4454 25.8001ZM29.4454 25.8L29.4454 25.8001L29.8372 25.8807L29.8372 25.8806L29.4454 25.8ZM29.4455 25.7999L29.4454 25.8L29.8372 25.8806L29.8372 25.8805L29.4455 25.7999ZM29.4455 25.7998L29.4455 25.7999L29.8372 25.8805L29.8373 25.8805L29.4455 25.7998ZM29.4455 25.7997L29.4455 25.7998L29.8373 25.8805L29.8373 25.8804L29.4455 25.7997ZM29.4455 25.7996L29.4455 25.7997L29.8373 25.8804L29.8373 25.8803L29.4455 25.7996ZM29.4455 25.7995L29.4455 25.7996L29.8373 25.8803L29.8373 25.8802L29.4455 25.7995ZM29.4456 25.7994L29.4455 25.7995L29.8373 25.8802L29.8373 25.8801L29.4456 25.7994ZM29.533 25.3629C29.5023 25.5092 29.4736 25.656 29.4452 25.8014L29.8377 25.8781C29.8662 25.7323 29.8944 25.5881 29.9244 25.4449L29.533 25.3629ZM28.936 25.1513L29.6239 25.5743L29.8335 25.2335L29.1455 24.8105L28.936 25.1513ZM29.1946 25.2792C29.2086 25.1923 29.2227 25.1045 29.238 25.0143L28.8436 24.9475C28.828 25.0396 28.8136 25.1291 28.7997 25.2157L29.1946 25.2792ZM29.0999 25.82C29.1365 25.6414 29.1653 25.4619 29.1946 25.2792L28.7997 25.2157C28.7701 25.3999 28.7426 25.5709 28.708 25.7397L29.0999 25.82ZM26.9173 29.969C28.1259 28.8318 28.7759 27.4012 29.0999 25.82L28.708 25.7397C28.3959 27.2629 27.7768 28.6111 26.6432 29.6777L26.9173 29.969ZM24.0409 31.2949C25.1643 31.2015 26.1143 30.7245 26.9172 29.969L26.6432 29.6777C25.897 30.3797 25.0294 30.8114 24.0077 30.8963L24.0409 31.2949ZM23.5848 31.2942C23.7447 31.3186 23.9071 31.3061 24.0409 31.2949L24.0077 30.8963C23.8698 30.9078 23.752 30.9151 23.6451 30.8988L23.5848 31.2942ZM23.0488 30.6205C23.0347 30.9475 23.2373 31.2411 23.5847 31.2942L23.6452 30.8988C23.5226 30.8801 23.4421 30.7851 23.4485 30.6378L23.0488 30.6205ZM23.6479 29.9986C23.4754 30.0044 23.325 30.0738 23.2173 30.1917C23.1112 30.3078 23.0557 30.4603 23.0488 30.6206L23.4485 30.6378C23.4519 30.5574 23.4787 30.4986 23.5125 30.4615C23.5448 30.4263 23.5921 30.4007 23.6612 30.3984L23.6479 29.9986ZM27.0923 27.639C26.3221 29.0189 25.2796 29.9441 23.6479 29.9986L23.6612 30.3984C25.4811 30.3376 26.6302 29.2875 27.4416 27.834L27.0923 27.639ZM27.9429 24.3231C27.9157 25.5002 27.6627 26.6173 27.0923 27.639L27.4416 27.834C28.0493 26.7452 28.3144 25.5619 28.3428 24.3323L27.9429 24.3231ZM27.8831 24.1612C27.9214 24.2144 27.9438 24.2833 27.9429 24.3232L28.3428 24.3322C28.3462 24.1833 28.2822 24.0308 28.2076 23.9273L27.8831 24.1612ZM26.863 20.2297C26.6655 21.6845 27.0384 22.9868 27.883 24.1611L28.2077 23.9275C27.4175 22.8289 27.0768 21.6281 27.2594 20.2835L26.863 20.2297ZM26.7991 19.9755C26.8453 20.0426 26.873 20.1557 26.863 20.2297L27.2594 20.2835C27.2836 20.105 27.2277 19.8926 27.1285 19.7485L26.7991 19.9755ZM24.3494 18.1773C25.4123 18.4161 26.1807 19.078 26.7991 19.9755L27.1285 19.7485C26.4734 18.7978 25.6285 18.0547 24.4371 17.787L24.3494 18.1773ZM23.7843 18.1072C23.9862 18.1228 24.1723 18.1375 24.3495 18.1773L24.4371 17.787C24.227 17.7398 24.0118 17.7236 23.8151 17.7084L23.7843 18.1072ZM23.7854 18.1073L23.7854 18.1073L23.8139 17.7083L23.8139 17.7083L23.7854 18.1073ZM23.7997 18.1078H23.7997V17.7078H23.7997V18.1078ZM23.7071 18.1012L23.7841 18.1072L23.8152 17.7084L23.7381 17.7024L23.7071 18.1012ZM23.0482 17.4297C23.045 17.6135 23.1044 17.7806 23.231 17.9044C23.3548 18.0256 23.5236 18.0867 23.7068 18.1012L23.7384 17.7025C23.621 17.6932 23.5502 17.6572 23.5108 17.6186C23.4741 17.5827 23.4466 17.5273 23.4481 17.4366L23.0482 17.4297ZM23.7409 16.7826C23.5498 16.7803 23.3748 16.8361 23.2453 16.9571C23.115 17.0788 23.0513 17.2473 23.0482 17.4297L23.4481 17.4366C23.4497 17.3437 23.4801 17.2851 23.5183 17.2494C23.5572 17.2131 23.6249 17.1813 23.736 17.1826L23.7409 16.7826ZM27.0311 18.2164C26.1247 17.3256 25.0433 16.7984 23.7409 16.7826L23.7361 17.1826C24.9202 17.1969 25.9064 17.6719 26.7508 18.5017L27.0311 18.2164ZM27.2872 18.4845C27.206 18.3967 27.121 18.3047 27.0312 18.2164L26.7507 18.5016C26.8326 18.5821 26.9112 18.6671 26.9935 18.7561L27.2872 18.4845ZM27.3048 18.5036L27.2872 18.4845L26.9935 18.7561L27.0112 18.7752L27.3048 18.5036ZM27.4847 18.7027C27.4255 18.6364 27.3658 18.5695 27.3048 18.5035L27.0112 18.7752C27.0694 18.838 27.1266 18.9022 27.1862 18.969L27.4847 18.7027ZM27.5639 18.7913L27.4845 18.7025L27.1863 18.9692L27.2657 19.0579L27.5639 18.7913ZM27.3661 18.6073C27.3251 18.6784 27.283 18.7514 27.2407 18.8261L27.5889 19.023C27.6301 18.9501 27.6714 18.8786 27.7125 18.8073L27.3661 18.6073ZM27.3729 18.5963L27.3729 18.5964L27.7057 18.8182L27.7057 18.8182L27.3729 18.5963ZM27.367 18.6058L27.3669 18.6059L27.7117 18.8087L27.7118 18.8086L27.367 18.6058ZM27.3633 18.6124L27.3633 18.6124L27.7155 18.802L27.7155 18.802L27.3633 18.6124ZM27.6658 18.0613C27.5769 18.242 27.4755 18.4178 27.3662 18.6072L27.7126 18.8072C27.8208 18.6198 27.929 18.4325 28.0247 18.2378L27.6658 18.0613ZM27.6579 18.023C27.6564 18.021 27.6553 18.0194 27.6547 18.0184C27.6541 18.0174 27.6538 18.0169 27.6538 18.0169C27.6538 18.0169 27.654 18.0172 27.6543 18.018C27.6546 18.0188 27.6551 18.0198 27.6556 18.0213C27.6577 18.0274 27.6598 18.0364 27.661 18.0467C27.6622 18.0572 27.6621 18.0656 27.6616 18.0707C27.6613 18.0731 27.6611 18.0736 27.6614 18.0725C27.6616 18.0715 27.6628 18.0674 27.6658 18.0613L28.0247 18.2378C28.0644 18.157 28.0659 18.0658 28.0584 18.0006C28.0506 17.9341 28.0282 17.8492 27.9764 17.781L27.6579 18.023ZM25.3994 16.2268C26.3144 16.6161 27.0549 17.2299 27.6579 18.0231L27.9764 17.781C27.3366 16.9395 26.5425 16.2785 25.556 15.8588L25.3994 16.2268ZM25.3533 16.2077C25.3696 16.2144 25.3846 16.2206 25.3995 16.2269L25.5559 15.8587C25.5387 15.8514 25.5215 15.8443 25.5056 15.8378L25.3533 16.2077ZM25.2096 16.1436C25.2598 16.1693 25.3111 16.1903 25.3533 16.2077L25.5056 15.8378C25.4608 15.8193 25.4249 15.8044 25.3916 15.7874L25.2096 16.1436ZM24.8505 15.3144C24.7313 15.647 24.8988 15.9845 25.2094 16.1435L25.3917 15.7875C25.2314 15.7054 25.186 15.5641 25.227 15.4494L24.8505 15.3144ZM25.6977 14.9149C25.3397 14.7947 24.9695 14.9827 24.8505 15.3144L25.227 15.4494C25.2721 15.3237 25.4177 15.2428 25.5704 15.2941L25.6977 14.9149ZM26.4585 15.2365C26.2142 15.1104 25.958 15.0024 25.6977 14.9149L25.5703 15.2941C25.8116 15.3751 26.049 15.4753 26.2751 15.5919L26.4585 15.2365ZM28.4516 16.8664C27.8812 16.2278 27.2457 15.6425 26.4585 15.2364L26.2751 15.5919C27.0012 15.9664 27.5988 16.5122 28.1533 17.1329L28.4516 16.8664ZM28.6249 17.0615C28.5694 16.9989 28.5107 16.9326 28.4516 16.8665L28.1532 17.1329C28.2117 17.1984 28.2701 17.2642 28.3256 17.3268L28.6249 17.0615ZM28.696 17.1417L28.6249 17.0615L28.3256 17.3269L28.3968 17.4071L28.696 17.1417ZM28.7596 16.8804C28.6516 16.9576 28.5446 17.0341 28.4343 17.1088L28.6586 17.44C28.7738 17.362 28.8849 17.2826 28.9922 17.2058L28.7596 16.8804ZM29.4705 16.4148C29.2193 16.5515 28.9868 16.718 28.7596 16.8804L28.9922 17.2058C29.223 17.0408 29.4357 16.8891 29.6616 16.7662L29.4705 16.4148ZM34.8306 16.5797C33.1047 15.4543 31.2759 15.4327 29.4705 16.4148L29.6616 16.7662C31.3455 15.8502 33.0165 15.8743 34.6121 16.9147L34.8306 16.5797ZM37.1773 21.438C37.3471 19.3836 36.5616 17.7084 34.8306 16.5797L34.6121 16.9147C36.2158 17.9605 36.9367 19.492 36.7787 21.4051L37.1773 21.438ZM32.5922 26.0942C35.0202 25.8172 36.977 23.8618 37.1773 21.438L36.7787 21.405C36.5946 23.6317 34.7922 25.4406 32.5468 25.6968L32.5922 26.0942ZM32.4334 26.2291C32.441 26.1822 32.45 26.155 32.4572 26.1397C32.4634 26.1263 32.4674 26.1234 32.4678 26.1231C32.4728 26.1191 32.4945 26.1053 32.5922 26.0942L32.5469 25.6968C32.4442 25.7085 32.3179 25.7296 32.2157 25.8126C32.1065 25.9012 32.0608 26.0286 32.0386 26.1648L32.4334 26.2291ZM29.5311 32.4697C31.1578 30.6945 32.0517 28.5707 32.4334 26.2291L32.0386 26.1648C31.667 28.4442 30.801 30.4918 29.2362 32.1995L29.5311 32.4697ZM24.4583 35.1647C26.5078 34.9316 28.1689 33.9563 29.5311 32.4697L29.2362 32.1995C27.928 33.6271 26.3516 34.5468 24.4131 34.7673L24.4583 35.1647ZM23.7366 35.2002C23.9723 35.1987 24.2157 35.1923 24.4583 35.1647L24.4131 34.7673C24.1921 34.7924 23.9656 34.7987 23.7341 34.8002L23.7366 35.2002ZM23.0494 34.587C23.0598 34.7627 23.1255 34.923 23.2552 35.0378C23.3837 35.1514 23.5532 35.2012 23.7366 35.2002L23.7342 34.8002C23.6232 34.8008 23.5574 34.7711 23.5202 34.7381C23.4843 34.7064 23.454 34.6534 23.4487 34.5634L23.0494 34.587ZM23.6824 33.8877C23.4968 33.9076 23.3298 33.977 23.2111 34.1048C23.0906 34.2345 23.0386 34.4047 23.0494 34.587L23.4487 34.5634C23.4434 34.4735 23.4685 34.4154 23.5042 34.377C23.5418 34.3365 23.6101 34.2978 23.7251 34.2854L23.6824 33.8877ZM24.0996 33.8508C23.9626 33.8616 23.8223 33.8727 23.6824 33.8877L23.7251 34.2854C23.8585 34.2711 23.9931 34.2605 24.131 34.2496L24.0996 33.8508ZM24.9345 33.7504C24.6672 33.8058 24.3908 33.8279 24.0996 33.8508L24.131 34.2496C24.4179 34.227 24.7196 34.2035 25.0157 34.1421L24.9345 33.7504ZM28.4406 31.7235C27.4542 32.7374 26.315 33.4642 24.9345 33.7504L25.0157 34.1421C26.4916 33.836 27.6989 33.0595 28.7273 32.0025L28.4406 31.7235ZM31.1445 25.8823C30.9141 27.8298 29.9691 30.1524 28.4406 31.7235L28.7273 32.0025C30.3264 30.3588 31.3027 27.95 31.5417 25.9293L31.1445 25.8823ZM32.0192 17.0436C34.158 17.0548 35.8888 18.8002 35.8823 20.9389L36.2823 20.9402C36.2895 18.5808 34.3806 16.656 32.0213 16.6436L32.0192 17.0436ZM28.1332 20.9136C28.1456 18.7662 29.8891 17.0323 32.0192 17.0436L32.0213 16.6436C29.6679 16.6312 27.7469 18.5455 27.7332 20.9113L28.1332 20.9136ZM31.9946 24.8094C29.8638 24.8043 28.121 23.0462 28.1332 20.9136L27.7332 20.9113C27.7197 23.2651 29.6412 25.2038 31.9936 25.2094L31.9946 24.8094ZM35.8823 20.9389C35.8757 23.0772 34.1306 24.8143 31.9946 24.8094L31.9937 25.2094C34.3508 25.2148 36.2751 23.2989 36.2823 20.9402L35.8823 20.9389ZM20.9941 20.3017C20.1037 21.3862 19.794 22.6633 19.7655 24.1202L20.1655 24.128C20.1929 22.724 20.4896 21.5466 21.3032 20.5555L20.9941 20.3017ZM25.3439 19.3619C23.8691 18.5432 22.1251 18.9239 20.9941 20.3017L21.3032 20.5555C22.3228 19.3135 23.8587 18.9949 25.1498 19.7116L25.3439 19.3619ZM26.5478 20.4504C26.2273 20.0054 25.8321 19.6328 25.3439 19.3619L25.1498 19.7116C25.5801 19.9505 25.9326 20.2807 26.2232 20.6842L26.5478 20.4504ZM26.5056 21.3483C26.7427 21.102 26.7525 20.7346 26.5478 20.4504L26.2232 20.6842C26.3266 20.8277 26.3071 20.9777 26.2174 21.0709L26.5056 21.3483ZM25.6047 21.4115C25.8994 21.6267 26.268 21.595 26.5056 21.3483L26.2174 21.0709C26.1242 21.1677 25.9804 21.1905 25.8406 21.0884L25.6047 21.4115ZM25.2675 21.0815C25.3594 21.1861 25.47 21.3132 25.6048 21.4115L25.8406 21.0884C25.7475 21.0205 25.6655 20.9284 25.568 20.8174L25.2675 21.0815ZM25.233 21.0423L25.2676 21.0816L25.5678 20.8173L25.5332 20.778L25.233 21.0423ZM23.4109 20.2287C24.1544 20.148 24.73 20.4734 25.2333 21.0426L25.533 20.7777C24.9756 20.1472 24.2817 19.7318 23.3677 19.831L23.4109 20.2287ZM21.9086 21.1652C22.2997 20.6506 22.7793 20.2973 23.4109 20.2287L23.3677 19.831C22.5934 19.9151 22.0241 20.3522 21.5901 20.9232L21.9086 21.1652ZM21.0515 24.3403C20.9765 23.1723 21.2012 22.0958 21.9085 21.1652L21.5901 20.9232C20.8103 21.9491 20.5728 23.1282 20.6523 24.366L21.0515 24.3403ZM21.6973 26.4428C21.2985 25.8038 21.1001 25.096 21.0515 24.3403L20.6523 24.366C20.7044 25.1768 20.9188 25.9508 21.3579 26.6546L21.6973 26.4428ZM23.1148 27.6203C22.4918 27.4399 22.051 27.0098 21.6973 26.4428L21.3579 26.6546C21.7422 27.2705 22.2529 27.7871 23.0036 28.0045L23.1148 27.6203ZM24.8016 27.2655C24.2939 27.6649 23.7307 27.7985 23.1148 27.6203L23.0036 28.0045C23.7554 28.2221 24.4503 28.0508 25.0489 27.5799L24.8016 27.2655ZM26.1402 24.7997C25.9743 25.7919 25.5888 26.6462 24.8016 27.2655L25.0489 27.5799C25.9378 26.8806 26.3581 25.9222 26.5347 24.8657L26.1402 24.7997ZM26.1965 24.2137C26.1838 24.4188 26.1717 24.6118 26.1402 24.7997L26.5347 24.8657C26.5702 24.6538 26.5832 24.4399 26.5957 24.2384L26.1965 24.2137ZM26.2125 23.9748C26.2063 24.055 26.2014 24.1353 26.1965 24.2137L26.5957 24.2384C26.6006 24.1595 26.6054 24.0824 26.6113 24.0057L26.2125 23.9748ZM26.8875 23.3006C26.7033 23.2974 26.531 23.3464 26.4034 23.4791C26.2803 23.6071 26.2274 23.7838 26.2125 23.9748L26.6113 24.0058C26.6225 23.8614 26.6587 23.7907 26.6917 23.7564C26.72 23.7269 26.7708 23.6986 26.8806 23.7005L26.8875 23.3006ZM27.5279 24.0151C27.53 23.8194 27.4856 23.6373 27.3666 23.5015C27.2446 23.3622 27.0724 23.3038 26.8875 23.3006L26.8806 23.7005C26.9862 23.7023 27.0377 23.733 27.0658 23.7652C27.0971 23.8008 27.1294 23.8724 27.128 24.0109L27.5279 24.0151ZM26.5782 27.3026C27.2124 26.2883 27.5157 25.1959 27.5279 24.0151L27.128 24.011C27.1164 25.1215 26.8325 26.1414 26.2391 27.0905L26.5782 27.3026ZM24.2975 28.9775C25.2928 28.7465 26.0363 28.1696 26.5782 27.3026L26.239 27.0906C25.747 27.8778 25.0883 28.3834 24.2071 28.5878L24.2975 28.9775ZM21.5142 28.2406C22.3058 28.9255 23.2451 29.2217 24.2976 28.9775L24.2071 28.5878C23.2951 28.7995 22.4838 28.5505 21.7759 27.9381L21.5142 28.2406ZM19.8537 25.0282C20.0527 26.2622 20.5279 27.3875 21.5142 28.2406L21.7759 27.9381C20.8811 27.1641 20.4376 26.1364 20.2486 24.9645L19.8537 25.0282ZM19.7827 24.3485C19.7969 24.5416 19.8147 24.7858 19.8537 25.0281L20.2486 24.9646C20.2128 24.7419 20.196 24.5145 20.1817 24.3193L19.7827 24.3485ZM19.7664 24.1429C19.7719 24.2018 19.777 24.2704 19.7827 24.3485L20.1817 24.3193C20.176 24.2423 20.1706 24.1692 20.1646 24.1053L19.7664 24.1429ZM19.0825 16.7599C17.3466 18.7033 16.6287 21.0362 16.4986 23.5698L16.8981 23.5903C17.0249 21.1217 17.7211 18.8844 19.3808 17.0264L19.0825 16.7599ZM23.0335 14.58C21.425 14.7889 20.1328 15.5841 19.0825 16.7599L19.3808 17.0264C20.3792 15.9086 21.5883 15.171 23.085 14.9767L23.0335 14.58ZM23.7109 14.5427C23.4886 14.542 23.2603 14.5506 23.0336 14.58L23.085 14.9767C23.2883 14.9503 23.4978 14.942 23.7097 14.9427L23.7109 14.5427ZM24.3643 15.1611C24.3574 14.9894 24.2985 14.8298 24.176 14.7131C24.0537 14.5966 23.8895 14.5433 23.7109 14.5427L23.7097 14.9427C23.8101 14.943 23.8677 14.9718 23.9001 15.0027C23.9323 15.0334 23.961 15.0865 23.9646 15.1771L24.3643 15.1611ZM23.7867 15.8466C23.9608 15.8231 24.1153 15.7525 24.2229 15.6235C24.3303 15.4948 24.3712 15.3316 24.3643 15.161L23.9647 15.1772C23.9686 15.2747 23.9446 15.3326 23.9157 15.3673C23.887 15.4017 23.8338 15.4366 23.7333 15.4502L23.7867 15.8466ZM23.3812 15.889C23.513 15.8772 23.6501 15.865 23.7867 15.8466L23.7332 15.4502C23.6071 15.4672 23.4789 15.4787 23.3456 15.4906L23.3812 15.889ZM22.7065 15.9815C22.919 15.9306 23.1413 15.9104 23.3812 15.889L23.3456 15.4906C23.1109 15.5115 22.8591 15.5336 22.6133 15.5925L22.7065 15.9815ZM19.7403 18.003C20.5199 17.0066 21.476 16.2766 22.7065 15.9815L22.6132 15.5926C21.2738 15.9138 20.2456 16.7081 19.4253 17.7565L19.7403 18.003ZM17.8739 22.8854C18.057 21.0824 18.6229 19.4316 19.7403 18.003L19.4253 17.7565C18.2528 19.2555 17.6651 20.9819 17.476 22.845L17.8739 22.8854ZM17.8276 23.6807C17.8376 23.4098 17.8475 23.1462 17.8739 22.8854L17.476 22.845C17.448 23.1207 17.4378 23.3971 17.4278 23.6659L17.8276 23.6807ZM17.8275 23.6824L17.8275 23.6824L17.4279 23.6642L17.4279 23.6643L17.8275 23.6824ZM17.8275 23.6824L17.8275 23.6824L17.4279 23.6643L17.4279 23.6643L17.8275 23.6824ZM17.8275 23.6825L17.8275 23.6824L17.4279 23.6643L17.4279 23.6643L17.8275 23.6825ZM17.8275 23.6825L17.8275 23.6825L17.4279 23.6643L17.4279 23.6643L17.8275 23.6825ZM17.8275 23.6825L17.8275 23.6825L17.4279 23.6643L17.4279 23.6644L17.8275 23.6825ZM17.8275 23.6826L17.8275 23.6825L17.4279 23.6644L17.4279 23.6644L17.8275 23.6826ZM17.8275 23.6826L17.8275 23.6826L17.4279 23.6644L17.4279 23.6644L17.8275 23.6826ZM17.8275 23.6826L17.8275 23.6826L17.4279 23.6644L17.4279 23.6645L17.8275 23.6826ZM17.8275 23.6827L17.8275 23.6826L17.4279 23.6645L17.4279 23.6645L17.8275 23.6827ZM17.8186 23.9113C17.8219 23.8343 17.8247 23.7574 17.8276 23.681L17.4278 23.6662C17.425 23.7427 17.4222 23.8187 17.419 23.8944L17.8186 23.9113ZM17.1506 24.6534C17.344 24.6557 17.5195 24.594 17.644 24.4462C17.7617 24.3064 17.8099 24.117 17.8186 23.9114L17.419 23.8944C17.4121 24.0567 17.3753 24.1443 17.338 24.1886C17.3073 24.225 17.2578 24.2546 17.1554 24.2534L17.1506 24.6534ZM16.4983 23.8938C16.4977 24.0987 16.5441 24.2888 16.6604 24.4318C16.7814 24.5805 16.9557 24.6512 17.1507 24.6534L17.1553 24.2534C17.0579 24.2523 17.0043 24.2207 16.9707 24.1794C16.9325 24.1324 16.8978 24.0447 16.8983 23.8951L16.4983 23.8938ZM16.4984 23.685C16.4985 23.7549 16.4985 23.8244 16.4983 23.8939L16.8983 23.895C16.8985 23.8247 16.8985 23.7544 16.8984 23.6846L16.4984 23.685ZM16.4983 23.5801L16.4984 23.6849L16.8984 23.6847L16.8983 23.5799L16.4983 23.5801ZM22.4031 23.9974C22.4004 24.5009 22.5153 24.9848 22.8262 25.4134L23.15 25.1785C22.9 24.8339 22.8007 24.4387 22.8031 23.9995L22.4031 23.9974ZM22.4841 24.1719L22.5465 24.1903L22.6597 23.8066L22.5973 23.7882L22.4841 24.1719ZM22.4335 23.5984C22.4058 23.7112 22.3793 23.8191 22.3487 23.9241L22.7327 24.036C22.7661 23.9213 22.7946 23.8051 22.822 23.6937L22.4335 23.5984ZM22.6769 22.8431C22.5578 23.0886 22.493 23.356 22.4335 23.5984L22.822 23.6937C22.8834 23.4436 22.9394 23.2184 23.0368 23.0177L22.6769 22.8431ZM24.6788 22.5794C24.3586 22.2189 23.9781 22.0235 23.5936 22.0714C23.2074 22.1196 22.8898 22.4042 22.6769 22.8431L23.0368 23.0177C23.2149 22.6506 23.4385 22.4939 23.6431 22.4684C23.8496 22.4426 24.1097 22.5411 24.3797 22.845L24.6788 22.5794ZM25.0028 22.6509C24.9477 22.6922 24.8988 22.7008 24.8556 22.6937C24.8089 22.6859 24.7464 22.6557 24.6788 22.5794L24.3797 22.845C24.4925 22.9721 24.6322 23.062 24.79 23.0882C24.9512 23.115 25.1089 23.0714 25.2428 22.9709L25.0028 22.6509ZM25.0665 22.3024C25.0973 22.3421 25.113 22.4049 25.0999 22.4793C25.0866 22.5544 25.0478 22.6172 25.0028 22.6509L25.2428 22.9709C25.3809 22.8673 25.4656 22.7083 25.4938 22.5489C25.522 22.389 25.4971 22.205 25.3826 22.0573L25.0665 22.3024ZM22.7439 21.8881C23.1989 21.5371 23.6418 21.4779 24.0329 21.5781C24.4325 21.6805 24.797 21.9549 25.0665 22.3025L25.3826 22.0573C25.073 21.6581 24.6382 21.3202 24.1322 21.1906C23.6177 21.0588 23.0488 21.1478 22.4996 21.5713L22.7439 21.8881ZM22.5832 25.9693C22.0415 25.4484 21.7813 24.6576 21.8124 23.8713C21.8436 23.0847 22.1648 22.3346 22.7439 21.8881L22.4996 21.5713C21.8058 22.1063 21.4474 22.9798 21.4128 23.8555C21.3781 24.7316 21.6657 25.6419 22.3059 26.2576L22.5832 25.9693ZM25.0727 25.7562C24.45 26.5996 23.3371 26.6945 22.5832 25.9693L22.3059 26.2576C23.2344 27.1507 24.6288 27.0309 25.3945 25.9937L25.0727 25.7562ZM25.067 25.364C25.1508 25.4394 25.1783 25.613 25.0727 25.7562L25.3945 25.9937C25.5998 25.7156 25.5983 25.3038 25.3345 25.0666L25.067 25.364ZM24.6876 25.4127C24.8182 25.2824 24.986 25.2911 25.067 25.364L25.3345 25.0666C25.0645 24.8237 24.6548 24.8805 24.4051 25.1296L24.6876 25.4127ZM24.6366 25.469C24.6572 25.4453 24.6723 25.428 24.6876 25.4127L24.4051 25.1296C24.3779 25.1567 24.3535 25.185 24.3345 25.2068L24.6366 25.469ZM24.635 25.4708L24.6351 25.4708L24.3361 25.205L24.3361 25.2051L24.635 25.4708ZM24.635 25.4708L24.635 25.4708L24.3361 25.2051L24.3361 25.2051L24.635 25.4708ZM24.635 25.4708L24.635 25.4708L24.3361 25.2051L24.336 25.2051L24.635 25.4708ZM24.635 25.4709L24.635 25.4708L24.336 25.2051L24.336 25.2051L24.635 25.4709ZM24.6349 25.4709L24.635 25.4709L24.336 25.2051L24.336 25.2052L24.6349 25.4709ZM24.6349 25.4709L24.6349 25.4709L24.336 25.2052L24.336 25.2052L24.6349 25.4709ZM24.6349 25.471L24.6349 25.4709L24.336 25.2052L24.3359 25.2052L24.6349 25.471ZM24.6349 25.471L24.6349 25.471L24.3359 25.2052L24.3359 25.2052L24.6349 25.471ZM24.5764 25.5357C24.5991 25.5123 24.6199 25.4883 24.6365 25.4692L24.3343 25.207C24.3165 25.2276 24.3029 25.2432 24.2892 25.2574L24.5764 25.5357ZM22.8262 25.4134C23.0486 25.7198 23.344 25.9046 23.6698 25.9272C23.9954 25.9497 24.3136 25.8075 24.5766 25.5356L24.289 25.2575C24.0893 25.464 23.8807 25.5408 23.6974 25.5281C23.5142 25.5155 23.3186 25.4108 23.15 25.1785L22.8262 25.4134ZM18.5834 21.1647C18.282 22.0848 18.1609 23.0305 18.1488 24.2157L18.5488 24.2198C18.5606 23.0608 18.6787 22.1585 18.9635 21.2892L18.5834 21.1647ZM18.9218 20.6977C18.7852 20.8089 18.645 20.9764 18.5834 21.1647L18.9635 21.2891C18.9942 21.1953 19.0767 21.0873 19.1743 21.0079L18.9218 20.6977ZM19.642 20.6621C19.5161 20.5565 19.3731 20.5248 19.2374 20.5468C19.1105 20.5673 19.0023 20.6322 18.9218 20.6977L19.1742 21.008C19.2234 20.968 19.2679 20.947 19.3013 20.9416C19.3259 20.9376 19.3509 20.94 19.3849 20.9685L19.642 20.6621ZM19.8712 21.3825C19.9065 21.2449 19.9082 21.1094 19.8662 20.981C19.8243 20.8529 19.7442 20.7478 19.642 20.6621L19.3849 20.9686C19.4424 21.0168 19.472 21.0623 19.486 21.1053C19.5 21.1482 19.5039 21.2045 19.4837 21.2832L19.8712 21.3825ZM19.8199 21.5808C19.837 21.515 19.8542 21.4488 19.8712 21.3826L19.4837 21.2831C19.4669 21.3487 19.4499 21.4143 19.4327 21.4803L19.8199 21.5808ZM19.8198 21.5813L19.8198 21.5811L19.4328 21.4801L19.4327 21.4803L19.8198 21.5813ZM19.5599 22.7267C19.6214 22.3456 19.7193 21.9682 19.8198 21.5811L19.4327 21.4806C19.3329 21.8646 19.23 22.2602 19.1651 22.663L19.5599 22.7267ZM19.8057 26.2698C19.4582 25.1051 19.3669 23.9228 19.5599 22.7267L19.1651 22.663C18.9619 23.9219 19.0586 25.165 19.4224 26.3841L19.8057 26.2698ZM19.822 26.3235L19.8054 26.2689L19.4226 26.385L19.4392 26.4395L19.822 26.3235ZM19.8688 26.4862C19.8543 26.4291 19.8372 26.3734 19.8219 26.3231L19.4393 26.4399C19.4551 26.4918 19.4693 26.5384 19.4811 26.5847L19.8688 26.4862ZM19.4236 27.3188C19.5989 27.2654 19.7391 27.154 19.8201 26.9993C19.9006 26.8457 19.9144 26.6655 19.8688 26.4861L19.4811 26.5848C19.5063 26.6837 19.4937 26.7604 19.4658 26.8138C19.4385 26.8659 19.3885 26.9113 19.3072 26.9361L19.4236 27.3188ZM18.6037 26.8663C18.7094 27.2471 19.0809 27.4231 19.4236 27.3188L19.3072 26.9361C19.1681 26.9784 19.0315 26.9122 18.9891 26.7593L18.6037 26.8663ZM18.2667 25.4377C18.3467 25.9242 18.4748 26.4019 18.6037 26.8663L18.9891 26.7593C18.8602 26.2948 18.7375 25.8357 18.6613 25.3727L18.2667 25.4377ZM18.1665 24.4651C18.1839 24.7217 18.2081 25.0816 18.2667 25.4377L18.6613 25.3727C18.6063 25.0383 18.5831 24.6967 18.5656 24.4381L18.1665 24.4651ZM18.1666 24.4665L18.1666 24.4666L18.5655 24.4366L18.5655 24.4366L18.1666 24.4665ZM18.1496 24.2358C18.1551 24.2964 18.1603 24.3732 18.1665 24.4651L18.5656 24.4381C18.5595 24.3479 18.554 24.2659 18.548 24.1996L18.1496 24.2358ZM16.9924 25.6438C16.9937 25.4418 17.1253 25.3202 17.2086 25.3077L17.1492 24.9121C16.8213 24.9614 16.5946 25.2971 16.5924 25.6413L16.9924 25.6438ZM17.004 25.7034C16.9991 25.6708 16.9944 25.6397 16.99 25.6116L16.5948 25.6734C16.599 25.7002 16.6035 25.7302 16.6085 25.7631L17.004 25.7034ZM17.0473 25.975C17.0308 25.8812 17.0165 25.7865 17.004 25.7034L16.6085 25.7631C16.6209 25.8456 16.6359 25.9448 16.6533 26.0441L17.0473 25.975ZM18.0182 29.0431C17.5465 28.0696 17.2329 27.0438 17.0474 25.9753L16.6533 26.0438C16.8445 27.1449 17.1686 28.2069 17.6582 29.2175L18.0182 29.0431ZM18.4412 29.2282C18.3199 29.2876 18.1069 29.2264 18.0182 29.0431L17.6582 29.2174C17.8281 29.5684 18.2666 29.7592 18.6172 29.5874L18.4412 29.2282ZM18.4973 28.8117C18.5477 28.9463 18.5555 29.0431 18.5424 29.1055C18.5316 29.1571 18.5052 29.1968 18.4412 29.2282L18.6172 29.5874C18.7886 29.5034 18.8972 29.3633 18.934 29.1873C18.9685 29.0221 18.9363 28.8434 18.8719 28.6714L18.4973 28.8117ZM17.7273 26.6206C17.9637 27.3589 18.2263 28.0883 18.4973 28.8117L18.8719 28.6714C18.602 27.9509 18.3418 27.2282 18.1082 26.4986L17.7273 26.6206ZM17.5799 25.9583C17.617 26.1709 17.6565 26.3994 17.7273 26.6206L18.1082 26.4986C18.0472 26.308 18.0118 26.107 17.9739 25.8896L17.5799 25.9583ZM17.4991 25.5436C17.5308 25.6773 17.5548 25.8144 17.5799 25.9583L17.9739 25.8896C17.9492 25.7477 17.9233 25.5987 17.8883 25.4513L17.4991 25.5436ZM17.2087 25.3077C17.3031 25.2935 17.4607 25.3817 17.4991 25.5436L17.8883 25.4513C17.8086 25.1154 17.4769 24.8628 17.1492 24.9121L17.2087 25.3077ZM20.9313 28.8498L20.9312 28.8498L20.7826 29.2212L20.7827 29.2212L20.9313 28.8498ZM21.1746 28.9841C21.0979 28.9185 21.0046 28.8809 20.9351 28.8514L20.7788 29.2196C20.8638 29.2557 20.894 29.2705 20.9145 29.2881L21.1746 28.9841ZM22.6438 29.8367C22.0995 29.6476 21.6142 29.3605 21.1746 28.9842L20.9145 29.288C21.3892 29.6945 21.9177 30.0079 22.5125 30.2146L22.6438 29.8367ZM23.0429 30.5721C23.0807 30.4209 23.0693 30.2648 22.9972 30.1281C22.9246 29.9908 22.7999 29.891 22.6438 29.8367L22.5126 30.2146C22.5859 30.2401 22.6243 30.2786 22.6435 30.315C22.6631 30.3522 22.6724 30.4051 22.6549 30.4751L23.0429 30.5721ZM22.2824 31.0899C22.4648 31.1358 22.64 31.0778 22.7702 30.9808C22.9003 30.884 23.0015 30.7379 23.0429 30.5721L22.6549 30.4752C22.6366 30.5485 22.5897 30.6165 22.5313 30.66C22.473 30.7034 22.4192 30.7119 22.3802 30.702L22.2824 31.0899ZM20.2634 29.8896C20.8084 30.4994 21.4966 30.892 22.2824 31.0899L22.3802 30.702C21.665 30.5219 21.0489 30.1683 20.5616 29.6231L20.2634 29.8896ZM20.1652 29.2203C20.1199 29.3273 20.1155 29.4562 20.1294 29.563C20.1432 29.6679 20.1807 29.797 20.2634 29.8896L20.5616 29.6231C20.5617 29.6231 20.5612 29.6226 20.5601 29.6211C20.5591 29.6197 20.5578 29.6176 20.5561 29.6147C20.5528 29.6088 20.5489 29.6007 20.5449 29.5901C20.5368 29.5685 20.53 29.5413 20.5261 29.5111C20.5174 29.4451 20.5258 29.3946 20.5336 29.3761L20.1652 29.2203ZM20.481 28.9012C20.4323 28.9339 20.3707 28.975 20.3166 29.022C20.2621 29.0693 20.2018 29.1337 20.1652 29.2203L20.5336 29.3761C20.5368 29.3684 20.5472 29.3515 20.5789 29.324C20.611 29.2961 20.651 29.2689 20.7042 29.2331L20.481 28.9012ZM20.5949 28.8199C20.5638 28.8453 20.5271 28.8701 20.481 28.9012L20.7042 29.2331C20.7472 29.2042 20.7998 29.169 20.8478 29.1298L20.5949 28.8199ZM20.9349 28.8513C20.894 28.8339 20.8533 28.8166 20.8089 28.795L20.6338 29.1547C20.6887 29.1814 20.7381 29.2023 20.7786 29.2195L20.9349 28.8513ZM20.9419 28.8545L20.9419 28.8545L20.7716 29.2164L20.7716 29.2164L20.9419 28.8545ZM20.9349 28.8513L20.9348 28.8513L20.7788 29.2196L20.7789 29.2196L20.9349 28.8513ZM22.4771 17.5634C22.4737 17.6752 22.4196 17.7597 22.2956 17.8075L22.4393 18.1808C22.7102 18.0765 22.8684 17.8519 22.877 17.5758L22.4771 17.5634ZM22.1095 17.3631C22.3125 17.2853 22.4758 17.4179 22.4771 17.5712L22.877 17.568C22.8732 17.091 22.3869 16.8283 21.9664 16.9896L22.1095 17.3631ZM20.523 18.3491C20.9894 17.9202 21.519 17.5896 22.1096 17.363L21.9663 16.9896C21.3278 17.2345 20.7551 17.5922 20.2522 18.0546L20.523 18.3491ZM20.4956 18.7118C20.4002 18.6078 20.3982 18.4638 20.523 18.3491L20.2522 18.0546C19.9707 18.3135 19.951 18.7099 20.201 18.9823L20.4956 18.7118ZM20.8547 18.7232C20.7862 18.7883 20.7215 18.8067 20.6699 18.8043C20.6172 18.8019 20.5551 18.7765 20.4957 18.7118L20.201 18.9822C20.321 19.1131 20.4783 19.1959 20.6513 19.2039C20.8255 19.212 20.9931 19.1433 21.13 19.0134L20.8547 18.7232ZM22.2956 17.8075C21.752 18.0166 21.2756 18.324 20.8547 18.7232L21.13 19.0134C21.5147 18.6485 21.9469 18.3702 22.4392 18.1808L22.2956 17.8075ZM24.3188 24.651C24.4904 24.6379 24.6453 24.5727 24.7562 24.4455C24.8654 24.3202 24.9128 24.1568 24.9149 23.9823L24.5149 23.9775C24.5136 24.085 24.4853 24.1476 24.4547 24.1827C24.4257 24.2159 24.3766 24.2454 24.2884 24.2521L24.3188 24.651ZM23.6109 24.0671C23.6318 24.2485 23.7028 24.4096 23.838 24.5193C23.9725 24.6285 24.1431 24.6644 24.3188 24.651L24.2884 24.2521C24.1841 24.2601 24.1242 24.2364 24.0901 24.2087C24.0565 24.1815 24.0206 24.1283 24.0083 24.0214L23.6109 24.0671ZM23.4874 23.8759C23.5693 23.8911 23.5775 23.9128 23.5783 23.914C23.5822 23.9203 23.5883 23.9331 23.5945 23.9596C23.6009 23.987 23.6056 24.0204 23.6109 24.0671L24.0083 24.0214C23.9983 23.9341 23.984 23.8081 23.9171 23.7015C23.8397 23.5781 23.7158 23.5113 23.56 23.4826L23.4874 23.8759ZM23.0533 23.2052C23.042 23.3374 23.0587 23.4826 23.1247 23.6084C23.1942 23.7407 23.3157 23.8443 23.4874 23.8759L23.56 23.4826C23.5195 23.4751 23.4964 23.4559 23.4789 23.4224C23.4578 23.3824 23.445 23.3188 23.4519 23.2395L23.0533 23.2052ZM23.5387 22.6311C23.3942 22.6632 23.2738 22.7339 23.188 22.8423C23.1039 22.9485 23.0644 23.0763 23.0533 23.2052L23.4519 23.2395C23.4581 23.1672 23.478 23.1204 23.5016 23.0906C23.5235 23.063 23.5592 23.0363 23.6255 23.0215L23.5387 22.6311ZM24.3828 22.8518C24.1538 22.6679 23.8692 22.5576 23.5387 22.6311L23.6255 23.0215C23.8072 22.9811 23.9709 23.034 24.1323 23.1637L24.3828 22.8518ZM24.9148 23.9747C24.9035 23.5345 24.7441 23.1418 24.3827 22.8518L24.1323 23.1638C24.3879 23.3688 24.5062 23.6431 24.515 23.985L24.9148 23.9747ZM20.3326 28.5079C20.3289 28.5838 20.31 28.6328 20.2858 28.6666C20.2617 28.7005 20.2224 28.7333 20.1547 28.7603L20.303 29.1318C20.4272 29.0823 20.5345 29.007 20.6116 28.8987C20.6887 28.7906 20.7255 28.6636 20.7322 28.5274L20.3326 28.5079ZM20.3293 28.4997C20.3301 28.5095 20.3317 28.5306 20.3353 28.5518L20.7295 28.4836C20.7296 28.4844 20.7295 28.4837 20.7292 28.4806C20.7288 28.4773 20.7285 28.4736 20.728 28.4672L20.3293 28.4997ZM20.3296 28.5033L20.3296 28.5033L20.7277 28.4635L20.7277 28.4635L20.3296 28.5033ZM20.338 28.5054C20.3334 28.4974 20.3307 28.4906 20.3292 28.4862C20.3278 28.4819 20.3273 28.4793 20.3273 28.4792C20.3273 28.4792 20.3275 28.4805 20.3279 28.4842C20.3284 28.4881 20.3287 28.4925 20.3293 28.4996L20.728 28.4672C20.7267 28.4514 20.724 28.3737 20.684 28.3047L20.338 28.5054ZM20.196 28.2549C20.2424 28.3377 20.2896 28.4217 20.3379 28.5052L20.6842 28.3049C20.6374 28.224 20.5915 28.1423 20.5448 28.0591L20.196 28.2549ZM20.1915 28.2465L20.1915 28.2465L20.5493 28.0676L20.5493 28.0676L20.1915 28.2465ZM19.7802 27.5715C19.9313 27.7838 20.0607 28.0139 20.196 28.2549L20.5448 28.0591C20.4113 27.8213 20.2717 27.5722 20.1061 27.3395L19.7802 27.5715ZM19.5364 27.5698C19.603 27.5323 19.6601 27.5212 19.6991 27.5244C19.7319 27.5271 19.7574 27.5395 19.7802 27.5715L20.1061 27.3395C20.0117 27.2069 19.8765 27.1376 19.732 27.1257C19.5937 27.1143 19.4571 27.1555 19.3403 27.2212L19.5364 27.5698ZM19.4057 27.7982C19.3862 27.7528 19.3905 27.7208 19.4053 27.6912C19.4233 27.655 19.4643 27.6103 19.5363 27.5698L19.3403 27.2211C19.2211 27.2882 19.111 27.3847 19.0473 27.5128C18.9802 27.6474 18.972 27.8026 19.0384 27.9565L19.4057 27.7982ZM19.8987 28.7232C19.7113 28.427 19.5429 28.1169 19.4057 27.7983L19.0383 27.9564C19.1851 28.2973 19.3639 28.6261 19.5608 28.9372L19.8987 28.7232ZM20.1548 28.7603C20.0831 28.7889 20.0254 28.7932 19.9861 28.7854C19.952 28.7787 19.9233 28.7619 19.8987 28.7232L19.5608 28.9372C19.645 29.0702 19.7686 29.1501 19.9083 29.1778C20.0427 29.2044 20.1803 29.1808 20.303 29.1319L20.1548 28.7603ZM20.6702 19.6098L20.6702 19.6098L20.2871 19.4948L20.2871 19.4948L20.6702 19.6098ZM20.6684 19.6156L20.6684 19.6155L20.2889 19.4891L20.2889 19.4891L20.6684 19.6156ZM20.5834 19.8262C20.6234 19.7566 20.6471 19.6812 20.6688 19.6141L20.2884 19.4905C20.2632 19.568 20.2518 19.6005 20.2365 19.6271L20.5834 19.8262ZM20.3041 20.2898C20.3975 20.1385 20.4928 19.984 20.5834 19.8262L20.2365 19.6271C20.1496 19.7784 20.0577 19.9275 19.9637 20.0797L20.3041 20.2898ZM20.3042 20.2896L20.3042 20.2895L19.9636 20.0799L19.9636 20.0799L20.3042 20.2896ZM20.1935 20.4696C20.23 20.4098 20.2669 20.35 20.3041 20.2898L19.9637 20.0797C19.9266 20.1398 19.8892 20.2004 19.8521 20.2612L20.1935 20.4696ZM19.3874 20.7494C19.6989 20.8683 20.0202 20.7535 20.1935 20.4696L19.8521 20.2612C19.7767 20.3847 19.6569 20.4241 19.53 20.3757L19.3874 20.7494ZM19.04 19.9735C18.9712 20.1387 18.9787 20.3075 19.0498 20.4508C19.1192 20.5908 19.2429 20.6942 19.3873 20.7493L19.5301 20.3757C19.4684 20.3521 19.4278 20.3127 19.4081 20.273C19.39 20.2366 19.3836 20.1888 19.4092 20.1273L19.04 19.9735ZM19.5362 19.0546C19.3425 19.3419 19.1736 19.6527 19.04 19.9735L19.4092 20.1273C19.5323 19.8318 19.6884 19.5443 19.8679 19.2781L19.5362 19.0546ZM20.3287 18.8872C20.0573 18.7176 19.7116 18.7942 19.5362 19.0546L19.8679 19.2781C19.9234 19.1956 20.029 19.1716 20.1167 19.2264L20.3287 18.8872ZM20.6107 19.1925C20.5534 19.1086 20.4635 18.9714 20.3287 18.8872L20.1167 19.2264C20.1673 19.258 20.2119 19.3179 20.2803 19.418L20.6107 19.1925ZM20.6119 19.1943L20.6119 19.1943L20.2791 19.4162L20.2791 19.4162L20.6119 19.1943ZM20.6807 19.2902C20.6598 19.2643 20.6385 19.2332 20.6107 19.1925L20.2803 19.4181C20.306 19.4557 20.3366 19.5007 20.3693 19.5413L20.6807 19.2902ZM20.6688 19.6141C20.6817 19.5747 20.6953 19.5327 20.713 19.4838L20.3369 19.3476C20.3167 19.4034 20.3013 19.4511 20.2885 19.4904L20.6688 19.6141ZM31.6829 21.6739L31.9505 21.4059L31.6675 21.1233L31.3999 21.3912L31.6829 21.6739ZM31.0313 21.2984C31.152 21.4215 31.2743 21.5464 31.3989 21.6729L31.6839 21.3922C31.5596 21.2661 31.4377 21.1416 31.317 21.0184L31.0313 21.2984ZM30.1898 20.4486C30.47 20.7257 30.7461 21.0073 31.0313 21.2984L31.317 21.0184C31.0322 20.7278 30.7539 20.4438 30.471 20.1641L30.1898 20.4486ZM29.81 20.4312C29.8708 20.3685 29.9325 20.3468 29.9864 20.3475C30.0414 20.3482 30.113 20.3727 30.1898 20.4486L30.4709 20.1641C30.3348 20.0295 30.1685 19.9499 29.9917 19.9475C29.814 19.9452 29.6502 20.0215 29.5229 20.1526L29.81 20.4312ZM29.8273 20.7972C29.7553 20.724 29.7322 20.6565 29.7312 20.6045C29.7302 20.553 29.7502 20.4928 29.81 20.4312L29.5229 20.1527C29.3998 20.2796 29.3279 20.4394 29.3312 20.6122C29.3346 20.7844 29.412 20.9454 29.5421 21.0777L29.8273 20.7972ZM31.3633 22.3339C30.8471 21.8259 30.3349 21.3137 29.8273 20.7973L29.542 21.0777C30.0512 21.5957 30.565 22.1094 31.0827 22.619L31.3633 22.3339ZM31.727 22.3442C31.6594 22.4111 31.5985 22.43 31.5506 22.4291C31.5013 22.4282 31.436 22.4056 31.3633 22.3339L31.0827 22.619C31.2114 22.7457 31.3697 22.8257 31.543 22.829C31.7176 22.8324 31.8784 22.7571 32.0084 22.6285L31.727 22.3442ZM33.5876 20.4872C32.9684 21.1079 32.3496 21.728 31.727 22.3442L32.0084 22.6285C32.632 22.0113 33.2517 21.3903 33.8708 20.7697L33.5876 20.4872ZM34.1894 19.8843C33.9887 20.0852 33.7881 20.2863 33.5876 20.4872L33.8708 20.7697C34.0713 20.5688 34.2718 20.3678 34.4724 20.1671L34.1894 19.8843ZM34.229 19.8361C34.2151 19.8558 34.2019 19.8718 34.1895 19.8843L34.4723 20.1671C34.5052 20.1343 34.5329 20.0993 34.556 20.0665L34.229 19.8361ZM34.209 19.5154C34.2955 19.6057 34.3061 19.7269 34.2291 19.836L34.5559 20.0667C34.7408 19.8047 34.7197 19.4703 34.4979 19.2387L34.209 19.5154ZM33.8795 19.4827C33.9806 19.4078 34.1168 19.4191 34.209 19.5154L34.4979 19.2387C34.272 19.0029 33.9109 18.9616 33.6414 19.1614L33.8795 19.4827ZM33.7533 19.6006C33.8033 19.5492 33.8402 19.5119 33.8795 19.4828L33.6414 19.1614C33.5716 19.213 33.5125 19.2745 33.4666 19.3217L33.7533 19.6006ZM33.7089 19.6458C33.7243 19.6304 33.7394 19.6149 33.7533 19.6006L33.4666 19.3217C33.4523 19.3364 33.4392 19.3499 33.4261 19.363L33.7089 19.6458ZM31.9505 21.4059C32.5491 20.8065 33.1288 20.226 33.7089 19.6458L33.426 19.363C32.8459 19.9433 32.2661 20.5239 31.6675 21.1233L31.9505 21.4059Z" fill="#525C75"/>
</svg>
