<svg width="49" height="48" viewBox="0 0 49 48" fill="none" xmlns="http://www.w3.org/2000/svg">
<rect x="0.182861" width="48" height="48" rx="24" fill="#EBEDFA"/>
<path fill-rule="evenodd" clip-rule="evenodd" d="M26.5124 16.9695C26.3646 16.9259 26.2169 16.8822 26.0693 16.838L26.0692 16.8385C26.0632 16.862 26.0571 16.8855 26.0513 16.9092C25.6733 16.8921 25.3546 17.0068 25.0798 17.2792C24.8479 17.5091 24.6046 17.7274 24.3612 17.9456L24.3611 17.9457L24.361 17.9458L24.3609 17.9459C24.2487 18.0465 24.1364 18.1472 24.0253 18.249L22.9564 19.2287C22.2419 19.8838 21.5274 20.5388 20.8121 21.1931C20.6144 21.374 20.4638 21.5675 20.4896 21.8612C20.5409 22.4442 21.0928 23.0296 21.6725 23.1193C22.4021 23.2322 23.0518 23.051 23.6372 22.6145L23.7502 22.5302L23.7502 22.5302L23.7502 22.5301L23.7503 22.5301L23.7503 22.5301C24.223 22.1776 24.6956 21.8252 25.1644 21.4676C26.1072 20.7483 27.121 20.7713 27.9656 21.5982C28.9928 22.6038 30.0067 23.623 31.0205 24.6423L31.0206 24.6424C31.4452 25.0693 31.8699 25.4962 32.2955 25.9221C32.6313 26.2581 32.8499 26.272 33.2285 25.9862C34.7685 24.824 36.3086 23.6618 37.8497 22.5011C38.3291 22.14 38.3699 21.9836 38.1157 21.4443C37.3359 19.7907 36.5562 18.1371 35.778 16.4827C35.5195 15.9333 35.2938 15.8746 34.7809 16.1966C34.0993 16.6244 33.4108 17.0415 32.7196 17.4537C31.6507 18.0911 30.5082 18.1961 29.3257 17.865C28.9494 17.7597 28.5793 17.6327 28.2091 17.5057C27.9785 17.4266 27.7477 17.3474 27.5155 17.2735C27.1826 17.1674 26.8475 17.0685 26.5124 16.9695ZM21.0024 26.501C22.2651 26.2194 23.1007 26.9354 23.2395 28.0409C23.284 28.0357 23.3264 28.0302 23.3673 28.0248C23.4527 28.0136 23.5317 28.0033 23.611 27.9984C24.4773 27.943 25.197 28.4836 25.3608 29.3344C25.4723 29.9133 25.2974 30.4169 24.8818 30.8335C24.5575 31.1586 24.2314 31.4819 23.8983 31.8121L23.898 31.8124L23.8976 31.8127C23.7491 31.9599 23.5992 32.1085 23.4475 32.2593C23.8614 32.485 24.2487 32.4998 24.6315 32.3481C25.1785 32.1313 25.456 31.6938 25.5336 31.1196C26.463 31.5362 27.5964 31.0597 27.6262 29.7115C28.8552 30.428 30.0178 29.4995 29.8886 28.3282C29.8982 28.3302 29.9078 28.3318 29.9172 28.3334L29.9172 28.3334C29.9371 28.3368 29.9564 28.3401 29.9745 28.3466C30.723 28.6179 31.373 28.4294 31.7565 27.8291C32.1288 27.2462 32.0201 26.5443 31.4666 25.9899C30.1652 24.6867 28.8638 23.3836 27.5593 22.0835C26.924 21.4504 26.1544 21.4357 25.484 22.0198C24.7613 22.6494 23.998 23.2242 23.1099 23.6035C21.8821 24.1279 20.7234 23.7972 20.0119 22.7365C19.5588 22.0611 19.6327 21.4228 20.2242 20.8653C21.3758 19.7795 22.526 18.6922 23.6761 17.6047C23.7104 17.5723 23.7419 17.5368 23.7871 17.4859C23.8136 17.456 23.8448 17.4209 23.884 17.3779C23.7943 17.3532 23.7112 17.3266 23.6323 17.3013C23.473 17.2503 23.3307 17.2047 23.1854 17.1913C21.9531 17.0778 20.7549 17.3135 19.6079 17.7118C18.0273 18.2608 16.5612 18.1177 15.1522 17.2422L15.0734 17.1932L15.0734 17.1932C14.5422 16.8631 14.011 16.533 13.4857 16.1936C12.9946 15.8763 12.748 15.9382 12.502 16.4612L12.5004 16.4648L12.4983 16.4692L12.4976 16.4707C11.7121 18.1405 10.9267 19.8103 10.1411 21.4802C9.90786 21.9758 9.94716 22.1438 10.3845 22.4683C11.7032 23.4464 13.0228 24.4232 14.3427 25.3997C14.3783 25.426 14.4162 25.4491 14.4588 25.4751C14.4802 25.4881 14.5028 25.5019 14.5269 25.5172C14.6821 25.3612 14.836 25.206 14.989 25.0516C15.3386 24.699 15.6842 24.3503 16.0329 24.0048C16.507 23.5352 17.0776 23.3917 17.7083 23.5906C18.3387 23.7895 18.7219 24.2318 18.8395 24.8914C18.8498 24.9494 18.8622 25.0072 18.8745 25.0644C18.8803 25.0914 18.8861 25.1183 18.8916 25.145C19.9406 25.0249 20.6465 25.3844 21.0024 26.501ZM17.5723 29.6282C17.1287 29.5631 16.8146 29.3734 16.6371 29.0014C16.4551 28.6202 16.4756 28.2227 16.7691 27.913C17.392 27.2559 18.0306 26.6122 18.6896 25.9913C19.0841 25.6197 19.6917 25.6733 20.0664 26.0555C20.4331 26.4294 20.4843 27.0229 20.121 27.4103C19.5018 28.0707 18.8569 28.7082 18.1984 29.3297C18.0888 29.433 17.9348 29.4894 17.7808 29.5457L17.7807 29.5457C17.7098 29.5717 17.6389 29.5976 17.5723 29.6282ZM18.1813 25.4285L18.1813 25.4285C18.2023 25.3788 18.2207 25.3352 18.238 25.3024C18.2174 24.7316 18.0222 24.4182 17.6366 24.2343C17.2491 24.0495 16.8264 24.116 16.5064 24.429C15.9014 25.0206 15.3024 25.6184 14.7109 26.2235C14.295 26.649 14.3015 27.2654 14.707 27.6695C15.1028 28.0638 15.7351 28.0672 16.156 27.6566C16.7545 27.0727 17.3528 26.4875 17.9234 25.8769C18.0486 25.743 18.1245 25.5632 18.1813 25.4285ZM19.9007 30.8938C19.348 30.8776 19.0294 30.6845 18.8515 30.2959C18.6739 29.9077 18.7143 29.5205 19.009 29.2121C19.621 28.5719 20.2474 27.9445 20.8865 27.3313C21.282 26.9517 21.876 26.9764 22.2648 27.3479C22.6536 27.7195 22.7197 28.3256 22.349 28.7224C21.7244 29.3912 21.0705 30.0339 20.4052 30.6624C20.2931 30.7683 20.1292 30.8193 20.0093 30.8566L20.0093 30.8566C19.9657 30.8702 19.928 30.8819 19.9007 30.8938ZM21.0357 31.8652C21.2146 32.2376 21.5237 32.4296 21.9663 32.498C22.033 32.4679 22.1041 32.4425 22.1752 32.417C22.3298 32.3616 22.4844 32.3063 22.594 32.2031C23.2526 31.5822 23.8972 30.9446 24.5166 30.2847C24.8834 29.8937 24.8264 29.2751 24.4491 28.9063C24.0768 28.5427 23.4794 28.4947 23.0936 28.8576C22.4343 29.4779 21.7956 30.1213 21.1735 30.7788C20.8824 31.0863 20.8508 31.4802 21.0357 31.8652Z" fill="#525C75"/>
</svg>
