<svg width="49" height="48" viewBox="0 0 49 48" fill="none" xmlns="http://www.w3.org/2000/svg">
<rect x="0.182861" width="48" height="48" rx="24" fill="#EBEDFA"/>
<path fill-rule="evenodd" clip-rule="evenodd" d="M29.3263 18.5989C29.3143 20.5973 30.9324 22.2285 32.9377 22.2398C34.9457 22.2511 36.5789 20.642 36.5904 18.6405C36.6019 16.6389 34.9874 15.0114 32.9792 15.0001C30.9726 14.9887 29.3384 16.5989 29.3263 18.5989ZM18.4084 33.1105H30.5443C30.5443 32.8619 30.5449 32.6154 30.5455 32.3703C30.5468 31.8296 30.5481 31.296 30.5429 30.7625C30.5296 29.3911 29.5519 28.3195 28.1819 28.2982C25.719 28.2599 23.2546 28.2662 20.7914 28.2987C19.6881 28.3132 18.7057 29.0685 18.5497 30.099C18.4464 30.7822 18.4374 31.4796 18.4284 32.1811V32.1811C18.4244 32.4904 18.4204 32.8005 18.4084 33.1105ZM16.0581 15.0002C18.0663 15.0152 19.6785 16.6468 19.6622 18.6475C19.646 20.6495 18.0102 22.2551 16.0023 22.2398C13.9967 22.2245 12.3822 20.5904 12.3981 18.5918C12.414 16.5921 14.0515 14.9852 16.0581 15.0002ZM24.4906 19.8348C22.4792 19.8365 20.8712 21.4475 20.8732 23.4592C20.8752 25.4685 22.4906 27.0828 24.4969 27.0805C26.5055 27.0782 28.1154 25.4639 28.1145 23.4528C28.1136 21.4409 26.5032 19.8333 24.4906 19.8348ZM19.0554 23.5001C19.0554 23.7034 19.0558 23.9063 19.0561 24.1087V24.1088C19.0572 24.7662 19.0582 25.4194 19.0479 26.0725C19.0462 26.179 18.9644 26.31 18.8802 26.3852C18.2237 26.9721 17.5609 27.5519 16.8908 28.1233C16.7931 28.2066 16.6477 28.2794 16.5239 28.28C14.6003 28.2881 12.6768 28.2862 10.7531 28.2843H10.753L10.1673 28.2837C10.134 28.2837 10.1007 28.2748 10.0699 28.2667L10.0698 28.2667C10.0564 28.2631 10.0435 28.2597 10.0313 28.2572C10.0313 27.959 10.0234 27.6614 10.0155 27.365C9.99787 26.6974 9.98034 26.0354 10.0533 25.3836C10.1724 24.32 11.1814 23.48 12.2777 23.4644C13.8778 23.4415 15.4783 23.447 17.0788 23.4525C17.6993 23.4546 18.3197 23.4567 18.9401 23.4572C18.954 23.4572 18.9679 23.4633 18.9926 23.4741L18.9926 23.4741C19.0083 23.481 19.0283 23.4898 19.0554 23.5001ZM31.2266 23.4527C30.7973 23.4527 30.3662 23.4528 29.9328 23.4528C29.9328 23.6672 29.9325 23.8792 29.9321 24.0895C29.931 24.7691 29.9299 25.4297 29.9408 26.0903C29.9426 26.1945 30.0362 26.3198 30.122 26.3964C30.7599 26.9656 31.399 27.5343 32.0567 28.0803C32.1973 28.1968 32.4147 28.2773 32.5973 28.2785C34.1728 28.2894 35.7483 28.2886 37.3237 28.2877C37.7522 28.2875 38.1806 28.2872 38.6091 28.2872H38.9877C38.9877 28.0028 38.9909 27.7239 38.994 27.449C39.0008 26.8421 39.0074 26.2544 38.9796 25.6682C38.9294 24.6035 38.1199 23.7215 37.0704 23.5113L37.0638 23.51C36.9288 23.4829 36.7909 23.4554 36.6543 23.4552C34.8561 23.4524 33.0578 23.4525 31.2266 23.4527Z" fill="#525C75"/>
</svg>
