<svg width="64" height="64" viewBox="0 0 64 64" fill="none" xmlns="http://www.w3.org/2000/svg">
<rect x="13.6658" y="33.4756" width="34.456" height="17.8906" rx="8.9453" fill="#294CFF"/>
<path fill-rule="evenodd" clip-rule="evenodd" d="M19.6293 11.1166C19.6293 8.99423 21.7729 7.54295 23.7434 8.33119L37.6219 13.8826C38.7609 14.3382 39.5077 15.4413 39.5077 16.668V30.5396H19.6293L19.6293 11.1166Z" fill="#294CFF"/>
<path fill-rule="evenodd" clip-rule="evenodd" d="M38.4844 40.1465C39.7604 40.144 40.8 41.1864 40.7883 42.4568C40.7768 43.7309 39.7139 44.7789 38.4559 44.7566C37.2168 44.7346 36.2088 43.7139 36.1948 42.4673C36.1809 41.1868 37.2048 40.149 38.4844 40.1465Z" fill="#F2F4FF"/>
<path fill-rule="evenodd" clip-rule="evenodd" d="M26.1754 42.446C26.1754 43.7443 25.1512 44.7788 23.8778 44.767C22.6012 44.7549 21.6012 43.7117 21.6174 42.4091C21.6332 41.132 22.609 40.1543 23.8759 40.1465C25.1798 40.1382 26.1754 41.1341 26.1754 42.446Z" fill="#F2F4FF"/>
<path fill-rule="evenodd" clip-rule="evenodd" d="M31.2214 40.1466C32.513 40.1574 33.501 41.1879 33.4731 42.4953C33.4461 43.754 32.4371 44.7596 31.1976 44.7634C29.9242 44.7671 28.9006 43.727 28.9059 42.4339C28.9109 41.1323 29.9199 40.1357 31.2214 40.1466Z" fill="#F2F4FF"/>
<path fill-rule="evenodd" clip-rule="evenodd" d="M45.2238 40.6017C45.2238 40.3248 45.2238 40.0859 45.2238 39.8468C45.2238 36.8389 45.2187 33.831 45.2265 30.8231C45.2299 29.5916 45.7578 28.9079 46.8081 28.7437C47.6619 28.6102 48.2201 29.0615 48.6722 29.713C51.871 34.3211 55.0707 38.9288 58.2702 43.5364C59.3522 45.0943 60.4357 46.6511 61.5168 48.2097C61.8853 48.741 62.1261 49.3067 61.9301 49.9694C61.6616 50.8762 61.0492 51.2937 59.941 51.2975C57.6396 51.305 55.3382 51.3 53.0368 51.3C51.1393 51.3 49.2418 51.3031 47.3442 51.2987C45.9095 51.2956 45.2323 50.6216 45.2258 49.1822C45.2183 47.5696 45.2241 45.9568 45.2241 44.2674L45.2238 40.6017Z" fill="#37CC3A" style="mix-blend-mode:multiply"/>
</svg>
