<svg width="52" height="53" viewBox="0 0 52 53" fill="none" xmlns="http://www.w3.org/2000/svg">
<g style="mix-blend-mode:color-dodge">
<rect x="1.66577" y="28.0784" width="34.456" height="17.8906" rx="8.9453" fill="#294CFF"/>
</g>
<g style="mix-blend-mode:color-dodge">
<path fill-rule="evenodd" clip-rule="evenodd" d="M7.62933 5.71916C7.62933 3.59677 9.77291 2.14549 11.7435 2.93373L25.6219 8.48511C26.7609 8.9407 27.5078 10.0438 27.5078 11.2705V25.1422H7.62933L7.62933 5.71916Z" fill="#294CFF"/>
</g>
<path fill-rule="evenodd" clip-rule="evenodd" d="M26.4844 34.749C27.7603 34.7466 28.8 35.789 28.7882 37.0594C28.7768 38.3334 27.7139 39.3815 26.4559 39.3592C25.2168 39.3372 24.2087 38.3164 24.1948 37.0699C24.1809 35.7893 25.2047 34.7515 26.4844 34.749Z" fill="#F2F4FF"/>
<path fill-rule="evenodd" clip-rule="evenodd" d="M14.1754 37.0486C14.1754 38.3468 13.1512 39.3813 11.8777 39.3695C10.6012 39.3574 9.60118 38.3143 9.61732 37.0116C9.63315 35.7345 10.6089 34.7568 11.8759 34.7491C13.1797 34.7407 14.1754 35.7367 14.1754 37.0486Z" fill="#F2F4FF"/>
<path fill-rule="evenodd" clip-rule="evenodd" d="M19.2214 34.7491C20.513 34.76 21.501 35.7904 21.4731 37.0978C21.4461 38.3566 20.4371 39.3622 19.1976 39.3659C17.9242 39.3696 16.9006 38.3296 16.9059 37.0364C16.9109 35.7349 17.9199 34.7383 19.2214 34.7491Z" fill="#F2F4FF"/>
<g style="mix-blend-mode:color-dodge">
<path fill-rule="evenodd" clip-rule="evenodd" d="M33.2238 35.2042C33.2238 34.9273 33.2238 34.6884 33.2238 34.4493C33.2238 31.4414 33.2187 28.4336 33.2265 25.4257C33.2299 24.1942 33.7578 23.5105 34.8081 23.3462C35.6619 23.2127 36.2201 23.6641 36.6722 24.3156C39.871 28.9237 43.0707 33.5313 46.2702 38.139C47.3522 39.6968 48.4357 41.2537 49.5168 42.8123C49.8853 43.3436 50.1261 43.9093 49.9301 44.5719C49.6616 45.4788 49.0492 45.8962 47.941 45.9001C45.6396 45.9076 43.3382 45.9025 41.0368 45.9025C39.1393 45.9025 37.2418 45.9056 35.3442 45.9013C33.9095 45.8981 33.2323 45.2241 33.2258 43.7848C33.2183 42.1722 33.2241 40.5593 33.2241 38.8699L33.2238 35.2042Z" fill="#37CC3A" style="mix-blend-mode:multiply"/>
</g>
</svg>
