<svg width="52" height="53" viewBox="0 0 52 53" fill="none" xmlns="http://www.w3.org/2000/svg">
<g style="mix-blend-mode:color-dodge">
<path fill-rule="evenodd" clip-rule="evenodd" d="M25.6777 10.1436C35.3078 10.1431 43.0971 17.9248 43.1131 27.5619C43.1291 37.2056 35.3267 45.0148 25.6767 45.0132C16.0254 45.0117 8.22456 37.2015 8.24344 27.5588C8.26232 17.9139 16.0405 10.1442 25.6777 10.1436Z" fill="#294CFF"/>
</g>
<g style="mix-blend-mode:color-dodge">
<path fill-rule="evenodd" clip-rule="evenodd" d="M19.5262 29.93C19.1461 29.1212 19.3107 28.4601 20.0279 27.9027C22.6813 25.8408 25.3368 23.7817 27.9915 21.7217C28.1631 21.5885 28.3367 21.4577 28.5064 21.3222C29.0373 20.8987 29.6221 20.7891 30.2197 21.1253C30.8021 21.4531 31.009 21.9977 30.9422 22.657C30.7972 24.0934 30.6582 25.5306 30.5166 26.9675C30.3075 29.0909 30.0994 31.2145 29.8885 33.3378C29.7913 34.3148 29.2914 34.7808 28.3116 34.8815C26.4882 35.0686 24.7783 34.7172 23.1976 33.8766C21.5445 32.9271 20.3223 31.6246 19.5262 29.93Z" fill="#37CC3A" style="mix-blend-mode:multiply"/>
</g>
<g style="mix-blend-mode:color-dodge">
<circle cx="35.7566" cy="11.1919" r="8" fill="#37CC3A" style="mix-blend-mode:multiply"/>
</g>
</svg>
