<svg width="64" height="64" viewBox="0 0 64 64" fill="none" xmlns="http://www.w3.org/2000/svg">
<path fill-rule="evenodd" clip-rule="evenodd" d="M31.6777 15.541C41.3078 15.5406 49.0971 23.3222 49.1131 32.9593C49.1291 42.6031 41.3267 50.4122 31.6767 50.4107C22.0254 50.4092 14.2246 42.5989 14.2434 32.9563C14.2623 23.3113 22.0405 15.5416 31.6777 15.541Z" fill="#294CFF"/>
<path fill-rule="evenodd" clip-rule="evenodd" d="M25.5263 35.3275C25.1462 34.5186 25.3107 33.8576 26.028 33.3002C28.6814 31.2382 31.3369 29.1792 33.9916 27.1192C34.1632 26.9859 34.3367 26.8552 34.5065 26.7197C35.0373 26.2961 35.6221 26.1866 36.2198 26.5228C36.8022 26.8505 37.0091 27.3952 36.9423 28.0545C36.7973 29.4909 36.6583 30.928 36.5167 32.3649C36.3076 34.4884 36.0995 36.6119 35.8886 38.7353C35.7914 39.7122 35.2914 40.1782 34.3117 40.2789C32.4883 40.4661 30.7784 40.1147 29.1976 39.2741C27.5446 38.3246 26.3224 37.0221 25.5263 35.3275Z" fill="#F2F4FF"/>
<circle cx="41.7566" cy="16.5894" r="8" fill="#37CC3A" style="mix-blend-mode:multiply"/>
</svg>
