<svg width="48" height="48" viewBox="0 0 48 48" fill="none" xmlns="http://www.w3.org/2000/svg">
<rect width="48" height="48" rx="24" fill="#EBEDFA"/>
<path fill-rule="evenodd" clip-rule="evenodd" d="M18.3747 14.7188V14.7188C18.374 14.471 18.3733 14.2232 18.3761 13.9755C18.3822 13.4243 18.7654 13.0201 19.2946 13.0006C19.8037 12.9819 20.258 13.3885 20.2713 13.9232C20.2905 14.6962 20.2921 15.4705 20.2697 16.2434C20.2544 16.7723 19.8195 17.1536 19.3044 17.1461C18.8035 17.1389 18.3911 16.7237 18.3779 16.1983C18.3713 15.9339 18.373 15.6692 18.3746 15.4046L18.3746 15.4044C18.3753 15.2863 18.3761 15.1683 18.3761 15.0503H18.3753C18.3753 14.9398 18.375 14.8293 18.3747 14.7188ZM29.626 15.4267C29.6256 15.3137 29.6252 15.2007 29.6252 15.0877C29.6252 14.9732 29.6256 14.8586 29.626 14.7441C29.6269 14.4845 29.6279 14.225 29.624 13.9655C29.6161 13.4265 29.2132 13.0132 28.692 13.0008C28.1732 12.9883 27.7397 13.3872 27.7279 13.9295C27.7115 14.6936 27.7112 15.4585 27.728 16.2226C27.7401 16.769 28.1609 17.153 28.6926 17.1462C29.2109 17.1396 29.6168 16.7244 29.6242 16.1855C29.6277 15.9327 29.6268 15.6797 29.626 15.4267ZM17.4499 15.4666C17.4505 15.3424 17.451 15.2165 17.451 15.088L17.1753 15.0879H17.1752H17.1751C16.9923 15.0878 16.8223 15.0877 16.6524 15.0881C14.5867 15.0937 13.0032 16.6759 13.002 18.7445C12.9995 22.801 12.9992 26.8574 13.0022 30.9139C13.0038 32.9909 14.5963 34.584 16.67 34.5849C21.5491 34.5869 26.4282 34.5864 31.3074 34.5828C31.5503 34.5826 31.7976 34.5646 32.0356 34.5181C33.8021 34.1728 34.997 32.7181 34.9983 30.91C35.0013 26.8534 35 22.797 34.9972 18.7405C34.9971 18.5297 34.9847 18.3159 34.9488 18.1086C34.6147 16.1829 32.8855 14.7775 30.5286 15.1255L30.5288 15.4466C30.5289 15.6798 30.529 15.9139 30.5285 16.1479C30.5273 16.8292 30.2761 17.3924 29.7009 17.7724C29.087 18.1781 28.4283 18.2135 27.7779 17.8724C27.1339 17.5348 26.8047 16.9782 26.7858 16.2494C26.779 15.9881 26.7807 15.7265 26.7825 15.4632V15.4631C26.7832 15.3438 26.784 15.2242 26.784 15.1041H21.2016C21.2016 15.1356 21.2019 15.1654 21.2023 15.1941V15.1941V15.1941C21.2029 15.2526 21.2035 15.3064 21.2011 15.3601C21.1952 15.4948 21.1946 15.6306 21.194 15.7664C21.1926 16.0726 21.1912 16.3788 21.1291 16.6722C20.9278 17.6232 20.0487 18.1889 19.0513 18.0731C18.1668 17.9703 17.4689 17.1803 17.4522 16.2554C17.4475 15.9952 17.4487 15.735 17.4499 15.4666ZM14.8834 21.7689L14.8834 21.7689C14.8851 21.7481 14.8869 21.7249 14.8887 21.6984H33.1231V21.9615L33.1233 24.4364C33.1235 26.5679 33.1237 28.6994 33.1224 30.831C33.1217 31.782 32.6052 32.473 31.7536 32.6599C31.5965 32.6944 31.4304 32.6984 31.2684 32.6985C26.4143 32.7004 21.56 32.701 16.7059 32.6993C15.6078 32.6991 14.8842 32.0032 14.8808 30.9107C14.8739 28.7065 14.8753 26.5022 14.8767 24.2979V24.2978C14.8772 23.4886 14.8777 22.6795 14.8778 21.8703C14.8778 21.8391 14.8803 21.808 14.8834 21.7689ZM22.0826 30.4529C21.718 30.6412 21.3331 30.3979 21.3591 29.9907C21.3903 29.8199 21.4213 29.6477 21.4524 29.4744C21.5331 29.0248 21.6151 28.5684 21.7071 28.1138C21.7509 27.8975 21.7065 27.7441 21.5428 27.5942C21.2899 27.3625 21.0421 27.1252 20.7943 26.8878C20.6187 26.7197 20.4432 26.5516 20.2658 26.3855C20.0927 26.2233 19.9877 26.0458 20.066 25.8022C20.1397 25.5729 20.3235 25.5103 20.538 25.4824C20.7721 25.452 21.0059 25.4196 21.2397 25.3872C21.6022 25.3369 21.9647 25.2866 22.328 25.2438C22.5298 25.22 22.6427 25.1342 22.7262 24.9485C22.8737 24.6205 23.029 24.2959 23.1843 23.9714C23.2887 23.7532 23.3931 23.5351 23.4951 23.3159C23.5881 23.1161 23.717 22.9709 23.9504 22.9695C24.1897 22.9682 24.336 23.1043 24.4363 23.3134C24.544 23.538 24.654 23.7615 24.7639 23.9851C24.9232 24.3086 25.0824 24.6322 25.2345 24.9591C25.3165 25.1355 25.4279 25.2169 25.6183 25.2407C25.9635 25.2838 26.308 25.332 26.6526 25.3803C26.9283 25.4189 27.2041 25.4575 27.4801 25.4935C27.697 25.5218 27.8452 25.6244 27.9117 25.8325C27.9795 26.0449 27.897 26.2126 27.7429 26.3566C27.6032 26.4872 27.464 26.6184 27.3248 26.7496C27.0137 27.0428 26.7026 27.336 26.3858 27.6228C26.2402 27.7547 26.2041 27.89 26.2407 28.0767C26.3105 28.4336 26.3756 28.7916 26.4406 29.1495C26.4875 29.4076 26.5344 29.6657 26.5831 29.9235C26.6216 30.1273 26.573 30.2977 26.4099 30.4235C26.2374 30.5565 26.053 30.5549 25.8618 30.4508C25.6548 30.338 25.4471 30.2265 25.2394 30.1151C24.9026 29.9343 24.5657 29.7536 24.232 29.5672C24.0583 29.4702 23.917 29.4602 23.7363 29.5625C23.1916 29.871 22.6388 30.1657 22.0826 30.4529Z" fill="#525C75"/>
</svg>
