<svg width="48" height="48" viewBox="0 0 48 48" fill="none" xmlns="http://www.w3.org/2000/svg">
<rect width="48" height="48" rx="24" fill="#EBEDFA"/>
<path fill-rule="evenodd" clip-rule="evenodd" d="M25.2414 33.1178C25.4572 33.3406 25.6742 33.5646 25.8935 33.7899C25.9202 33.7527 25.9414 33.7245 25.9586 33.7017C25.9867 33.6644 26.0042 33.6412 26.0176 33.616C26.2776 33.1257 26.538 32.6357 26.7984 32.1456C27.5739 30.6862 28.3495 29.2267 29.1147 27.7618C29.4357 27.1475 29.5592 26.477 29.4481 25.7872C29.2873 24.7891 29.115 23.7928 28.9427 22.7966C28.8856 22.4667 28.8286 22.1368 28.772 21.8068C28.6246 20.9479 28.4761 20.0891 28.3242 19.2311C28.2147 18.6132 27.7016 18.1867 27.1008 18.2064C26.5085 18.2257 26.0326 18.67 26.0027 19.3097C25.9549 20.3345 25.91 21.3626 25.94 22.3871C25.9569 22.9635 26.0166 23.5384 26.0764 24.1136C26.1128 24.4642 26.1493 24.815 26.176 25.1661C26.2075 25.5789 25.9185 25.9037 25.544 25.9324C25.1633 25.9615 24.8363 25.6906 24.7845 25.285C24.5223 23.2326 24.3853 21.1764 24.6023 19.1091C24.7228 17.9608 25.5851 17.0307 26.7299 16.8494C26.919 16.8195 26.9769 16.7434 27.0065 16.5601C27.211 15.2922 27.4277 14.0262 27.6444 12.7603L27.656 12.6927C27.7795 11.9719 27.4419 11.3273 26.8093 11.0911C26.1642 10.8503 25.4747 11.0958 25.1129 11.722C23.3978 14.6906 21.6831 17.6594 19.9822 20.6359C19.5188 21.4467 19.3746 22.331 19.5877 23.2478C20.0016 25.0296 20.431 26.8078 20.863 28.5854C20.8924 28.707 20.9787 28.8283 21.0693 28.9193C21.5009 29.3528 21.9351 29.7839 22.3692 30.2149C22.85 30.6924 23.3308 31.1698 23.8083 31.6505C24.288 32.1336 24.7617 32.6226 25.2414 33.1178ZM25.0641 34.8956L20.2719 30.1024C20.0749 30.2989 19.8773 30.495 19.6797 30.6911C19.1701 31.1971 18.6602 31.7033 18.1589 32.2178C17.9196 32.4633 17.9581 32.8065 18.2239 33.0731C19.5098 34.363 20.7976 35.6512 22.0881 36.9366C22.386 37.2333 22.7056 37.2335 23.008 36.9427C23.205 36.7532 23.3975 36.5591 23.5901 36.365C23.6842 36.2702 23.7782 36.1755 23.8727 36.0812C24.1477 35.8072 24.4229 35.5335 24.6923 35.2655C24.8177 35.1408 24.9418 35.0173 25.0641 34.8956Z" fill="#525C75"/>
</svg>
