<svg width="52" height="52" viewBox="0 0 52 52" fill="none" xmlns="http://www.w3.org/2000/svg">
<rect x="5" y="6" width="42" height="40" rx="10" fill="#39A96B"/>
<path d="M13.67 33V20.31H17V25.206H22.112V20.31H25.442V33H22.112V27.924H17V33H13.67ZM27.5852 33V20.31H33.5792C35.0432 20.31 36.1712 20.658 36.9632 21.354C37.7672 22.05 38.1692 23.016 38.1692 24.252C38.1692 25.08 37.9892 25.788 37.6292 26.376C37.2692 26.952 36.7472 27.402 36.0632 27.726C35.3792 28.038 34.5632 28.194 33.6152 28.194L33.7772 27.744H34.6772C35.2052 27.744 35.6732 27.888 36.0812 28.176C36.4892 28.464 36.8252 28.866 37.0892 29.382L39.0152 33H35.3792L33.3092 28.95C33.1772 28.686 32.9792 28.506 32.7152 28.41C32.4632 28.314 32.1752 28.266 31.8512 28.266H30.9152V33H27.5852ZM30.9152 25.908H33.0032C33.6512 25.908 34.1432 25.782 34.4792 25.53C34.8152 25.266 34.9832 24.876 34.9832 24.36C34.9832 23.856 34.8152 23.478 34.4792 23.226C34.1432 22.974 33.6512 22.848 33.0032 22.848H30.9152V25.908Z" fill="#252832"/>
</svg>
