<svg width="48" height="49" viewBox="0 0 48 49" fill="none" xmlns="http://www.w3.org/2000/svg">
<rect y="0.5" width="48" height="48" rx="24" fill="#EBEDFA"/>
<path d="M14.0017 21.3605C13.9903 20.0539 14.1315 18.8518 14.3869 17.6607C14.426 17.4785 14.4974 17.4177 14.6776 17.4399C15.242 17.5094 15.8104 17.5083 16.3761 17.4833C19.1543 17.3604 21.7443 16.6153 24.0913 15.0978C24.2949 14.9661 24.4265 14.9677 24.628 15.1007C26.3406 16.2304 28.2286 16.9123 30.2415 17.2697C31.305 17.4585 32.3761 17.5187 33.4539 17.4832C33.6714 17.476 33.889 17.4588 34.1057 17.438C34.2332 17.4258 34.2884 17.4792 34.3148 17.5996C34.6611 19.1784 34.7816 20.7722 34.6788 22.387C34.5774 23.9785 34.2841 25.5294 33.7561 27.0332C33.0877 28.9365 32.1165 30.6646 30.7021 32.117C29.2693 33.5882 27.577 34.6017 25.5169 34.9096C23.7467 35.1742 22.0712 34.8532 20.501 34.0069C18.32 32.8314 16.8205 31.0162 15.7229 28.8364C14.8605 27.1238 14.3519 25.3054 14.1271 23.4039C14.0435 22.6957 13.9897 21.9864 14.0017 21.3605ZM24.374 25.146C24.374 25.306 24.374 25.4661 24.374 25.6262C24.374 27.8886 24.3752 30.151 24.3716 32.4134C24.3713 32.5831 24.3859 32.6884 24.602 32.6746C25.6115 32.6102 26.5651 32.3632 27.4427 31.8479C28.8226 31.0375 29.8038 29.855 30.5366 28.4612C31.9228 25.8242 32.4866 23.0051 32.3341 20.0354C32.3259 19.8777 32.2727 19.8247 32.1179 19.8109C31.6336 19.7676 31.1491 19.7202 30.6674 19.6535C28.5408 19.3588 26.5068 18.7638 24.6014 17.7584C24.376 17.6394 24.3742 17.6413 24.3741 17.9004C24.3739 20.3156 24.374 22.7307 24.374 25.146Z" fill="#525C75"/>
</svg>
