<svg width="24" height="24" viewBox="0 0 24 24" fill="none" xmlns="http://www.w3.org/2000/svg">
<path fill-rule="evenodd" clip-rule="evenodd" d="M8.63784 8.23265C8.89689 6.99565 9.36976 5.85182 10.0471 4.78613C8.10521 5.34279 6.60829 6.47536 5.54721 8.23265H8.63784ZM10.0292 19.2321C9.74195 18.6593 9.43284 18.1203 9.19692 17.5508C8.95879 16.9761 8.7933 16.371 8.59394 15.7729H5.55005C6.60908 17.526 8.1052 18.6558 10.0292 19.2321ZM11.9829 20.9999C7.02604 21.0181 2.98795 16.977 3.00003 11.9893C3.01211 6.98501 7.03725 2.98302 12.0272 3.00005C17.0339 3.01709 21.0248 7.04784 20.9999 12.0625C20.9753 17.0247 16.9489 21.0155 11.9829 20.9999ZM18.4364 8.23585C17.6644 6.70589 15.0924 4.74828 13.9377 4.80644C14.6355 5.85985 15.1026 7.00573 15.3618 8.23585H18.4364ZM15.3585 15.7656C15.1025 17.0129 14.6234 18.1504 13.9236 19.2213C15.5591 18.915 18.1077 16.9412 18.4143 15.7656H15.3585ZM11.9895 4.80542C11.0862 5.79568 10.486 6.92809 10.1854 8.22841H13.8063C13.6155 7.13356 12.7408 5.4822 11.9895 4.80542ZM10.1797 15.7651C10.4962 17.0763 11.0903 18.2141 12.0003 19.2046C12.9116 18.2077 13.5099 17.0733 13.8163 15.7651H10.1797ZM8.39783 9.75732H4.86457C4.40782 11.2561 4.40726 12.7501 4.86402 14.2394H8.39798C8.21655 12.7401 8.21852 11.2531 8.39783 9.75732ZM19.1303 14.2431C19.592 12.7442 19.5923 11.2504 19.1307 9.76099H15.5959C15.7757 11.2603 15.7738 12.7471 15.5967 14.2431H19.1303ZM14.0966 9.76123H9.90009C9.71715 11.2627 9.7136 12.7509 9.90262 14.2436H14.0959C14.2833 12.7455 14.2831 11.2557 14.0966 9.76123Z" fill="#DFE7EB"/>
</svg>
