<svg xmlns="http://www.w3.org/2000/svg" width="24" height="24" viewBox="0 0 24 24" fill="none">
<g clip-path="url(#clip0_20300_173721)">
<g filter="url(#filter0_d_20300_173721)">
<path fill-rule="evenodd" clip-rule="evenodd" d="M11.9829 20.9999C7.02604 21.0181 2.98795 16.977 3.00003 11.9893C3.01211 6.98501 7.03725 2.98302 12.0272 3.00005C17.0339 3.01709 21.0248 7.04784 20.9999 12.0625C20.9753 17.0247 16.9489 21.0155 11.9829 20.9999Z" fill="#1E212A"/>
<path d="M2.50003 11.9881C2.48728 17.2508 6.74784 21.5181 11.9829 21.4999C17.2236 21.5156 21.474 17.3028 21.4999 12.065C21.5261 6.77463 17.3128 2.51804 12.0289 2.50006C6.76209 2.48208 2.51277 6.708 2.50003 11.9881Z" stroke="white"/>
</g>
<path d="M13.4956 7.97865H10.5064C10.7941 6.93158 11.2911 6.00126 12.0014 5.1699C12.2977 5.4918 12.6131 5.96063 12.8873 6.47753C13.1569 6.98576 13.376 7.52046 13.4956 7.97865Z" fill="#617BFF" stroke="#4261FF" stroke-width="0.5"/>
<path d="M6.00394 7.98265C6.88851 6.67828 8.04751 5.77125 9.49165 5.2318C9.01286 6.09646 8.65958 7.01126 8.43678 7.98265H6.00394Z" fill="#617BFF" stroke="#4261FF" stroke-width="0.5"/>
<path d="M15.5627 7.98585C15.331 6.97983 14.9604 6.02853 14.4385 5.13744C14.5812 5.18237 14.7396 5.2458 14.9111 5.32803C15.3078 5.51825 15.7472 5.79544 16.179 6.12446C16.9057 6.6781 17.5856 7.35874 18.0006 7.98585H15.5627Z" fill="#617BFF" stroke="#4261FF" stroke-width="0.5"/>
<path d="M5.05106 13.9894C4.67827 12.6655 4.67868 11.3398 5.05192 10.0073H8.1181C7.97821 11.3354 7.97676 12.6581 8.118 13.9894H5.05106Z" fill="#617BFF" stroke="#4261FF" stroke-width="0.5"/>
<path d="M15.876 13.9933C16.0142 12.6651 16.0156 11.3425 15.8756 10.0112H18.9442C19.3211 11.3353 19.3209 12.6607 18.9435 13.9933H15.876Z" fill="#617BFF" stroke="#4261FF" stroke-width="0.5"/>
<path d="M10.1243 13.9936C9.97334 12.6682 9.97588 11.3452 10.1227 10.0112H13.8745C14.0238 11.3388 14.0239 12.663 13.8739 13.9936H10.1243Z" fill="#617BFF" stroke="#4261FF" stroke-width="0.5"/>
<mask id="path-9-inside-1_20300_173721" fill="white">
<path fill-rule="evenodd" clip-rule="evenodd" d="M10.0292 19.2321C9.74195 18.6593 9.43284 18.1203 9.19692 17.5508C8.95879 16.9761 8.7933 16.371 8.59394 15.7729H5.55005C6.60908 17.526 8.1052 18.6558 10.0292 19.2321Z"/>
</mask>
<path fill-rule="evenodd" clip-rule="evenodd" d="M10.0292 19.2321C9.74195 18.6593 9.43284 18.1203 9.19692 17.5508C8.95879 16.9761 8.7933 16.371 8.59394 15.7729H5.55005C6.60908 17.526 8.1052 18.6558 10.0292 19.2321Z" fill="#617BFF"/>
<path d="M9.19692 17.5508L9.65885 17.3595L9.65884 17.3595L9.19692 17.5508ZM8.59394 15.7729L9.06828 15.6148L8.95432 15.2729H8.59394V15.7729ZM5.55005 15.7729V15.2729H4.66383L5.12208 16.0315L5.55005 15.7729ZM10.4761 19.008C10.1717 18.4009 9.88593 17.9076 9.65885 17.3595L8.73499 17.7422C8.97975 18.333 9.31218 18.9177 9.58223 19.4563L10.4761 19.008ZM9.65884 17.3595C9.42944 16.8058 9.27955 16.2487 9.06828 15.6148L8.11959 15.9311C8.30705 16.4934 8.48814 17.1465 8.735 17.7422L9.65884 17.3595ZM8.59394 15.2729H5.55005V16.2729H8.59394V15.2729ZM5.12208 16.0315C6.24687 17.8934 7.84577 19.1 9.8857 19.7111L10.1727 18.7532C8.36464 18.2115 6.97129 17.1586 5.97802 15.5144L5.12208 16.0315Z" fill="#4261FF" mask="url(#path-9-inside-1_20300_173721)"/>
<path d="M18.0412 16.0156C17.9452 16.1903 17.8052 16.3859 17.6243 16.5948C17.3299 16.9347 16.9444 17.29 16.5146 17.6215C15.859 18.1271 15.1219 18.5611 14.4721 18.8042C14.973 17.9288 15.3365 17.0059 15.5603 16.0156H18.0412Z" fill="#617BFF" stroke="#4261FF" stroke-width="0.5"/>
<path d="M13.4946 16.0151C13.2043 17.0644 12.7108 17.9937 12 18.8274C11.2918 17.999 10.8006 17.0678 10.5036 16.0151H13.4946Z" fill="#617BFF" stroke="#4261FF" stroke-width="0.5"/>
</g>
<defs>
<filter id="filter0_d_20300_173721" x="0" y="1" width="24" height="24" filterUnits="userSpaceOnUse" color-interpolation-filters="sRGB">
<feFlood flood-opacity="0" result="BackgroundImageFix"/>
<feColorMatrix in="SourceAlpha" type="matrix" values="0 0 0 0 0 0 0 0 0 0 0 0 0 0 0 0 0 0 127 0" result="hardAlpha"/>
<feOffset dy="1"/>
<feGaussianBlur stdDeviation="1"/>
<feComposite in2="hardAlpha" operator="out"/>
<feColorMatrix type="matrix" values="0 0 0 0 0 0 0 0 0 0 0 0 0 0 0 0 0 0 0.25 0"/>
<feBlend mode="normal" in2="BackgroundImageFix" result="effect1_dropShadow_20300_173721"/>
<feBlend mode="normal" in="SourceGraphic" in2="effect1_dropShadow_20300_173721" result="shape"/>
</filter>
<clipPath id="clip0_20300_173721">
<rect width="24" height="24" fill="white"/>
</clipPath>
</defs>
</svg>