<svg xmlns="http://www.w3.org/2000/svg" width="24" height="24" viewBox="0 0 24 24" fill="none">
    <path fill-rule="evenodd" clip-rule="evenodd" d="M8.63784 8.23255C8.89689 6.99555 9.36975 5.85173 10.0471 4.78603C8.1052 5.34269 6.60829 6.47526 5.54721 8.23255H8.63784ZM10.0292 19.232C9.74195 18.6592 9.43284 18.1202 9.19692 17.5507C8.95879 16.976 8.7933 16.3709 8.59394 15.7728H5.55005C6.60908 17.5258 8.1052 18.6556 10.0292 19.232ZM11.9829 20.9999C7.02604 21.0181 2.98795 16.977 3.00003 11.9893C3.01211 6.98501 7.03725 2.98302 12.0272 3.00005C17.0339 3.01709 21.0248 7.04784 20.9999 12.0625C20.9753 17.0247 16.9489 21.0155 11.9829 20.9999ZM18.4364 8.2358C17.6644 6.70585 15.0924 4.74824 13.9376 4.8064C14.6355 5.85981 15.1026 7.00569 15.3618 8.2358H18.4364ZM15.3585 15.7657C15.1025 17.013 14.6234 18.1505 13.9236 19.2214C15.5591 18.9151 18.1077 16.9413 18.4143 15.7657H15.3585ZM11.9895 4.80545C11.0862 5.7957 10.486 6.92811 10.1854 8.22843H13.8063C13.6155 7.13358 12.7408 5.48223 11.9895 4.80545ZM10.1798 15.7652C10.4962 17.0764 11.0904 18.2142 12.0003 19.2047C12.9116 18.2078 13.5099 17.0734 13.8163 15.7652H10.1798ZM8.39781 9.75728H4.86456C4.4078 11.256 4.40725 12.7501 4.86401 14.2394H8.39797C8.21653 12.74 8.21851 11.2531 8.39781 9.75728ZM19.1303 14.2432C19.592 12.7443 19.5923 11.2505 19.1307 9.76108H15.5959C15.7757 11.2604 15.7737 12.7472 15.5967 14.2432H19.1303ZM14.0966 9.76124H9.9001C9.71716 11.2628 9.7136 12.7509 9.90262 14.2436H14.0959C14.2833 12.7455 14.2831 11.2557 14.0966 9.76124Z" fill="#C7CEDB"/>
    </svg>