<svg xmlns="http://www.w3.org/2000/svg" width="25" height="24" viewBox="0 0 25 24" fill="none">
    <g clip-path="url(#clip0_20723_1013)">
    <path fill-rule="evenodd" clip-rule="evenodd" d="M12.4829 20.9999C7.52604 21.0181 3.48795 16.977 3.50003 11.9893C3.51211 6.98501 7.53725 2.98302 12.5272 3.00005C17.5339 3.01709 21.5248 7.04784 21.4999 12.0625C21.4753 17.0247 17.4489 21.0155 12.4829 20.9999Z" fill="#6C7C83"/>
    <path fill-rule="evenodd" clip-rule="evenodd" d="M12.4895 4.80566C11.5862 5.79592 10.986 6.92833 10.6854 8.22865H14.3063C14.1155 7.1338 13.2408 5.48245 12.4895 4.80566Z" fill="#131519"/>
    <path fill-rule="evenodd" clip-rule="evenodd" d="M9.13787 8.23265C9.39692 6.99565 9.86979 5.85182 10.5471 4.78613C8.60524 5.34279 7.10832 6.47536 6.04724 8.23265H9.13787Z" fill="#131519"/>
    <path fill-rule="evenodd" clip-rule="evenodd" d="M18.9364 8.23585C18.1645 6.70589 15.5924 4.74828 14.4377 4.80644C15.1356 5.85985 15.6027 7.00573 15.8619 8.23585H18.9364Z" fill="#131519"/>
    <path fill-rule="evenodd" clip-rule="evenodd" d="M8.89783 9.75732H5.36457C4.90782 11.2561 4.90726 12.7501 5.36402 14.2394H8.89798C8.71655 12.7401 8.71852 11.2531 8.89783 9.75732Z" fill="#131519"/>
    <path fill-rule="evenodd" clip-rule="evenodd" d="M19.6303 14.2433C20.092 12.7444 20.0923 11.2506 19.6307 9.76123H16.0959C16.2757 11.2605 16.2738 12.7474 16.0967 14.2433H19.6303Z" fill="#131519"/>
    <path fill-rule="evenodd" clip-rule="evenodd" d="M14.5966 9.76123H10.4001C10.2172 11.2627 10.2136 12.7509 10.4026 14.2436H14.596C14.7833 12.7455 14.7832 11.2557 14.5966 9.76123Z" fill="#131519"/>
    <path fill-rule="evenodd" clip-rule="evenodd" d="M10.5292 19.2321C10.2419 18.6593 9.93284 18.1203 9.69692 17.5508C9.45879 16.9761 9.2933 16.371 9.09394 15.7729H6.05005C7.10908 17.526 8.6052 18.6558 10.5292 19.2321Z" fill="#131519"/>
    <path fill-rule="evenodd" clip-rule="evenodd" d="M15.8585 15.7656C15.6025 17.0129 15.1234 18.1504 14.4236 19.2213C16.0591 18.915 18.6077 16.9412 18.9143 15.7656H15.8585Z" fill="#131519"/>
    <path fill-rule="evenodd" clip-rule="evenodd" d="M10.6797 15.7651C10.9962 17.0763 11.5903 18.2141 12.5003 19.2046C13.4116 18.2077 14.0099 17.0733 14.3163 15.7651H10.6797Z" fill="#131519"/>
    </g>
    <defs>
    <clipPath id="clip0_20723_1013">
    <rect width="24" height="24" fill="white" transform="translate(0.5)"/>
    </clipPath>
    </defs>
</svg>