<svg width="48" height="48" viewBox="0 0 48 48" fill="none" xmlns="http://www.w3.org/2000/svg">
<path fill-rule="evenodd" clip-rule="evenodd" d="M24 48C37.2548 48 48 37.2548 48 24C48 10.7452 37.2548 0 24 0C10.7452 0 0 10.7452 0 24C0 27.6854 0.830673 31.1768 2.315 34.2971C3.21833 36.1961 4.36374 37.9576 5.71135 39.5418C6.28799 40.2197 6.90165 40.8651 7.5492 41.475C8.26666 42.1506 9.02572 42.7826 9.82214 43.3666C13.7946 46.2797 18.6964 48 24 48Z" fill="#2448FF"/>
<path fill-rule="evenodd" clip-rule="evenodd" d="M15.8018 30.3044C15.8023 28.0802 15.7939 25.8561 15.8037 23.6325C15.8279 17.9506 21.9258 13.9877 27.117 16.2746C30.6333 17.824 32.3668 20.7372 32.1763 24.7777C32.0307 27.8588 29.7143 30.7927 26.4457 31.797C25.3287 32.1405 24.1021 32.2068 22.9214 32.2374C21.7249 32.2685 21.6933 32.0866 21.7111 29.3559C21.7165 28.4786 21.6943 27.671 22.9559 27.7437C24.5947 27.8386 26.0765 27.4689 27.0459 25.9866C27.9803 24.5567 27.9166 22.9623 26.9062 21.6065C26.0542 20.4633 24.4639 19.936 23.0413 20.3249C21.5018 20.7465 20.3651 21.9757 20.333 23.6152C20.2584 27.4437 20.2797 31.2751 20.3453 35.1041C20.3512 35.457 20.8996 36.0283 21.2807 36.1118C25.8603 37.1176 29.9122 35.9645 33.0944 32.5567C39.6365 25.5512 36.4602 15.0117 28.0276 12.1663C20.5906 9.65702 13.4142 14.4266 11.928 21.2383C11.5252 23.0834 11.5129 24.9017 11.9112 26.7423C12.0534 27.3997 12.3333 27.798 13.0598 27.7382C13.937 27.6656 14.207 28.147 14.204 28.9442C14.1917 32.6827 14.5426 32.1865 11.0544 32.3012C9.65946 32.3471 8.94176 31.9255 8.38993 30.5792C4.50779 21.1118 9.34652 10.2699 19.2476 7.72845C29.7666 5.02836 38.5175 10.5907 40.7224 20.8405C42.7926 30.465 35.4854 39.9279 25.6949 40.7988C22.7067 41.0647 19.8981 40.5873 17.1424 39.5049C16.1942 39.1327 15.7361 38.5767 15.7756 37.4695C15.8605 35.0838 15.8013 32.6931 15.8018 30.3044Z" fill="#CCDDFF"/>
</svg>
