<svg width="134" height="40" viewBox="0 0 134 40" fill="none" xmlns="http://www.w3.org/2000/svg">
<path fill-rule="evenodd" clip-rule="evenodd" d="M20 40C31.0457 40 40 31.0457 40 20C40 8.95431 31.0457 0 20 0C8.95431 0 0 8.95431 0 20C0 23.0712 0.692228 25.9806 1.92917 28.5809C2.68194 30.1634 3.63645 31.6313 4.75946 32.9515C5.23999 33.5164 5.75137 34.0543 6.291 34.5625C6.88888 35.1255 7.52144 35.6522 8.18512 36.1389C11.4955 38.5664 15.5803 40 20 40Z" fill="#2448FF"/>
<path fill-rule="evenodd" clip-rule="evenodd" d="M13.1686 25.2536C13.169 23.4001 13.162 21.5467 13.1702 19.6937C13.1904 14.9587 18.272 11.6563 22.5979 13.5621C25.5282 14.8533 26.9728 17.2809 26.814 20.648C26.6927 23.2156 24.7623 25.6605 22.0385 26.4975C21.1077 26.7837 20.0855 26.8389 19.1016 26.8644C18.1045 26.8904 18.0782 26.7388 18.093 24.4632C18.0975 23.7321 18.079 23.0591 19.1304 23.1197C20.496 23.1987 21.7308 22.8907 22.5387 21.6554C23.3173 20.4639 23.2643 19.1352 22.4223 18.0054C21.7123 17.0527 20.387 16.6132 19.2016 16.9374C17.9186 17.2887 16.9713 18.3131 16.9446 19.6793C16.8825 22.8696 16.9002 26.0625 16.9549 29.2533C16.9598 29.5474 17.4168 30.0235 17.7343 30.0931C21.5507 30.9313 24.9273 29.9704 27.5791 27.1305C33.0309 21.2926 30.384 12.5097 23.3568 10.1386C17.1593 8.04746 11.179 12.0221 9.94047 17.6985C9.60482 19.2361 9.59454 20.7514 9.92648 22.2852C10.0449 22.833 10.2782 23.165 10.8836 23.1151C11.6146 23.0546 11.8396 23.4557 11.8371 24.1201C11.8268 27.2355 12.1193 26.822 9.21241 26.9176C8.04999 26.9559 7.45192 26.6045 6.99205 25.4826C3.75694 17.5931 7.78921 8.55819 16.0401 6.44032C24.8059 4.19024 32.0984 8.82549 33.9358 17.367C35.6609 25.3874 29.5716 33.2732 21.4129 33.999C18.9227 34.2205 16.5822 33.8227 14.2858 32.9207C13.4956 32.6105 13.1139 32.1472 13.1468 31.2246C13.2175 29.2364 13.1682 27.2442 13.1686 25.2536Z" fill="#CCDDFF"/>
<path fill-rule="evenodd" clip-rule="evenodd" d="M55.1345 22.593L53.3855 20.0001H55.1274C55.8043 20.0001 56.3149 19.8533 56.6589 19.5597C57.0029 19.266 57.175 18.8478 57.175 18.3048C57.175 17.7619 57.0029 17.3408 56.6589 17.0416C56.3149 16.7424 55.8043 16.5929 55.1274 16.5929H53.2962V19.8676L53.2952 19.8662V22.9271H53.2962V25.6346H50V14H55.3271C56.3815 14 57.297 14.1745 58.0739 14.5236C58.8508 14.8726 59.4501 15.3712 59.8718 16.0194C60.2936 16.6677 60.5044 17.4294 60.5044 18.3048C60.5044 19.1802 60.2936 19.9392 59.8718 20.5819C59.4501 21.2245 58.8508 21.7204 58.0739 22.0694C57.297 22.4185 56.3815 22.593 55.3271 22.593H55.1345ZM65.0472 22.9271V25.6346H61.751V14H67.0781C68.1325 14 69.048 14.1745 69.8249 14.5236C70.6018 14.8726 71.2011 15.3712 71.6228 16.0194C72.0446 16.6677 72.2554 17.4294 72.2554 18.3048C72.2554 19.1469 72.0584 19.881 71.6644 20.5071C71.2705 21.1331 70.7072 21.6234 69.9748 21.978L72.4885 25.6346H68.9593L67.1077 22.9271H67.1108L65.1365 20.0001H66.8784C67.5554 20.0001 68.0659 19.8533 68.4099 19.5597C68.754 19.266 68.926 18.8478 68.926 18.3048C68.926 17.7619 68.754 17.3408 68.4099 17.0416C68.0659 16.7424 67.5554 16.5929 66.8784 16.5929H65.0472V19.8676L65.0462 19.8662V22.9271H65.0472ZM126.25 22.9271V25.6346H122.954V14H128.281C129.336 14 130.251 14.1745 131.028 14.5236C131.805 14.8726 132.404 15.3712 132.826 16.0194C133.248 16.6677 133.459 17.4294 133.459 18.3048C133.459 19.1469 133.262 19.881 132.868 20.5071C132.474 21.1331 131.91 21.6234 131.178 21.978L133.692 25.6346H130.162L128.311 22.9271H128.314L126.34 20.0001H128.082C128.759 20.0001 129.269 19.8533 129.613 19.5597C129.957 19.266 130.129 18.8478 130.129 18.3048C130.129 17.7619 129.957 17.3408 129.613 17.0416C129.269 16.7424 128.759 16.5929 128.082 16.5929H126.25V19.8676L126.249 19.8662V22.9271H126.25ZM92.1518 26.1C90.931 26.1 89.8351 25.8424 88.864 25.3271C87.8929 24.8119 87.1299 24.0944 86.575 23.1747C86.0201 22.255 85.7426 21.2135 85.7426 20.05C85.7426 18.8865 86.0201 17.845 86.575 16.9253C87.1299 16.0056 87.8929 15.2881 88.864 14.7729C89.8351 14.2576 90.931 14 92.1518 14C93.2173 14 94.1772 14.1884 95.0318 14.5651C95.658 14.8412 96.2067 15.2065 96.678 15.661C96.5655 15.8291 96.0279 16.6383 95.0651 18.0887C94.3104 17.1801 93.3948 16.7258 92.3183 16.7258C91.6857 16.7258 91.1225 16.8643 90.6286 17.1413C90.1347 17.4184 89.7519 17.8089 89.48 18.3131C89.208 18.8173 89.0721 19.3962 89.0721 20.05C89.0721 20.7038 89.208 21.2827 89.48 21.7869C89.7519 22.291 90.1347 22.6816 90.6286 22.9587C91.1225 23.2357 91.6857 23.3742 92.3183 23.3742C93.3948 23.3742 94.3104 22.9199 95.0651 22.0113C96.1542 23.6163 96.6971 24.4204 96.694 24.4235C96.2191 24.8852 95.6651 25.2557 95.0318 25.5349C94.1772 25.9116 93.2173 26.1 92.1518 26.1ZM78.8879 16.9333C76.5377 16.9333 75.9501 18.8658 75.9501 19.8665C75.9501 20.8672 76.5377 22.7997 78.8879 22.7997C81.2381 22.7997 81.8256 20.8394 81.8256 19.8665C81.8256 18.8936 81.2381 16.9333 78.8879 16.9333ZM78.8879 14.0002C82.6959 14.0002 84.7634 16.8701 84.7634 19.8665C84.7634 22.8629 82.6959 25.7328 78.8879 25.7328C75.0785 25.7328 73.0124 22.8811 73.0124 19.8665C73.0124 16.8519 75.0785 14.0002 78.8879 14.0002ZM102.88 16.9333C100.529 16.9333 99.9418 18.8658 99.9418 19.8665C99.9418 20.8672 100.529 22.7997 102.88 22.7997C105.23 22.7997 105.817 20.8394 105.817 19.8665C105.817 18.8936 105.23 16.9333 102.88 16.9333ZM102.88 14.0002C106.688 14.0002 108.755 16.8701 108.755 19.8665C108.755 22.8629 106.688 25.7328 102.88 25.7328C99.0701 25.7328 97.004 22.8811 97.004 19.8665C97.004 16.8519 99.0701 14.0002 102.88 14.0002ZM115.61 16.9333C113.26 16.9333 112.672 18.8658 112.672 19.8665C112.672 20.8672 113.26 22.7997 115.61 22.7997C117.96 22.7997 118.548 20.8394 118.548 19.8665C118.548 18.8936 117.96 16.9333 115.61 16.9333ZM115.61 14.0002C119.418 14.0002 121.485 16.8701 121.485 19.8665C121.485 22.8629 119.418 25.7328 115.61 25.7328C111.8 25.7328 109.734 22.8811 109.734 19.8665C109.734 16.8519 111.8 14.0002 115.61 14.0002Z" fill="#DBE7FF"/>
</svg>
