<svg width="24" height="24" viewBox="0 0 24 24" fill="none" xmlns="http://www.w3.org/2000/svg">
<path fill-rule="evenodd" clip-rule="evenodd" d="M10.9515 14.836C10.9514 15.0401 10.9514 15.0602 10.9513 15.301C10.951 15.8825 10.951 16.1409 10.9517 16.4637C10.9535 17.3602 10.6769 18.1418 10.1095 18.7869C9.24454 19.7708 8.13094 20.1604 6.84737 19.9291C5.17744 19.628 4.02106 18.2333 4.01454 16.5173C4.01256 16.0062 4.01256 16.0062 4.01049 15.4951C4.00702 14.6398 4.00555 14.2596 4.004 13.7843C3.99537 11.1448 3.99993 9.26985 4.02535 7.40398C4.04899 5.67031 5.38922 4.19598 7.12901 4.01928C9.08757 3.82036 10.788 5.27217 10.9351 7.23606C11.097 7.23616 11.2417 7.23594 11.5306 7.2353L11.541 7.23527C12.3164 7.23354 12.6618 7.23435 13.0934 7.2413C13.1008 7.26328 13.0888 7.26199 13.0928 7.22797C13.2564 5.83609 13.9711 4.82683 15.2208 4.26681C16.5476 3.67237 18.2623 4.10253 19.1883 5.24578C19.7164 5.89776 19.9904 6.62095 19.9912 7.41839C19.9918 8.04564 19.9928 8.54749 19.9954 9.67675C19.9961 9.96982 19.9961 9.96982 19.9968 10.2629C20.0033 13.1784 20.0007 14.8489 19.9808 16.6668C19.9578 18.7643 17.9464 20.3491 15.8732 19.9323C14.2024 19.5963 13.069 18.2111 13.0555 16.4889C13.0527 16.1299 13.0525 15.8457 13.0539 15.1918C13.0542 15.0386 13.0544 14.9291 13.0545 14.836H10.9515ZM13.0451 13.0468V9.01884H10.955V13.0468H13.0451ZM7.47312 18.221C8.39837 18.2251 9.16152 17.4679 9.16868 16.5373C9.17597 15.5964 8.42453 14.8344 7.48531 14.83C6.54642 14.8256 5.78121 15.5817 5.7769 16.5174C5.77273 17.4462 6.5396 18.2169 7.47312 18.221ZM14.8311 16.5173C14.8285 17.4557 15.588 18.2207 16.5222 18.2216C17.4525 18.2225 18.2226 17.4533 18.2233 16.5223C18.2239 15.5955 17.4662 14.8358 16.535 14.8305C15.5938 14.8251 14.8336 15.5778 14.8311 16.5173ZM18.2246 7.53082C18.2246 7.16524 18.1212 6.82683 17.914 6.50386C17.4638 5.80215 16.3746 5.56616 15.6811 6.02114C15.109 6.39642 14.8319 6.9284 14.8313 7.63324C14.8304 8.56466 14.8301 9.53653 14.8302 10.7031C14.8303 11.2513 14.8304 11.6899 14.8307 12.6767C14.8308 13.1169 14.8308 13.2037 14.8309 13.5045C15.9599 12.8997 17.0938 12.9012 18.2246 13.508C18.2248 11.5793 18.2248 9.59607 18.2246 7.53082ZM9.17094 11.9936L9.17099 11.9588C9.17434 9.66852 9.17314 8.65083 9.16158 7.37925C9.1512 6.23824 7.84539 5.43257 6.81224 5.92786C6.11854 6.26045 5.77999 6.83807 5.77758 7.65246C5.77476 8.57485 5.77384 9.53087 5.7742 10.7301C5.77433 11.1492 5.77453 11.4845 5.77506 12.239C5.77549 12.8386 5.77571 13.1837 5.77584 13.5077C6.90405 12.9006 8.03846 12.8999 9.16933 13.5065C9.16942 13.1129 9.16991 12.6968 9.17094 11.9936Z" fill="#252833"/>
<path d="M7.47312 18.2212C8.39837 18.2253 9.16152 17.468 9.16868 16.5375C9.17597 15.5965 8.42453 14.8345 7.48532 14.8301C6.54642 14.8257 5.78121 15.5818 5.7769 16.5175C5.77273 17.4463 6.5396 18.217 7.47312 18.2212Z" fill="#F7F9FA"/>
<path d="M14.8311 16.5174C14.8286 17.4559 15.588 18.2208 16.5222 18.2218C17.4525 18.2227 18.2226 17.4534 18.2233 16.5225C18.2239 15.5957 17.4662 14.8359 16.535 14.8306C15.5938 14.8252 14.8336 15.578 14.8311 16.5174Z" fill="#F7F9FA"/>
<path d="M18.2247 7.53074C18.2246 7.16516 18.1212 6.82675 17.914 6.50377C17.4638 5.80207 16.3746 5.56607 15.6811 6.02105C15.109 6.39634 14.8319 6.92831 14.8313 7.63316C14.8304 8.56458 14.8301 9.53644 14.8302 10.703C14.8303 11.2512 14.8304 11.6898 14.8307 12.6766C14.8308 13.1169 14.8308 13.2036 14.8309 13.5044C15.9599 12.8997 17.0938 12.9011 18.2246 13.5079C18.2249 11.5792 18.2249 9.59598 18.2247 7.53074Z" fill="#F0F3F5"/>
<path d="M9.17095 11.9935L9.171 11.9587C9.17435 9.66837 9.17315 8.65069 9.16159 7.37911C9.15122 6.2381 7.84541 5.43242 6.81225 5.92772C6.11855 6.2603 5.78 6.83793 5.77759 7.65231C5.77477 8.5747 5.77385 9.53073 5.77421 10.7299C5.77434 11.149 5.77454 11.4843 5.77508 12.2388C5.7755 12.8385 5.77572 13.1836 5.77585 13.5076C6.90406 12.9004 8.03848 12.8997 9.16934 13.5064C9.16943 13.1128 9.16992 12.6967 9.17095 11.9935Z" fill="#F0F3F5"/>
</svg>
