<svg xmlns="http://www.w3.org/2000/svg" width="40" height="40" viewBox="0 0 40 40" fill="none">
<path fill-rule="evenodd" clip-rule="evenodd" d="M18.2523 24.7266C18.2522 25.0668 18.2522 25.1002 18.252 25.5016C18.2515 26.4708 18.2515 26.9014 18.2526 27.4395C18.2556 28.9336 17.7946 30.2362 16.8491 31.3115C15.4074 32.9513 13.5514 33.6006 11.4121 33.2151C8.6289 32.7133 6.70161 30.3888 6.69074 27.5288C6.68744 26.677 6.68744 26.677 6.68399 25.8251C6.6782 24.3997 6.67575 23.7659 6.67317 22.9738C6.65879 18.5746 6.66638 15.4497 6.70875 12.3399C6.74815 9.45048 8.98187 6.99325 11.8815 6.69877C15.1458 6.36723 17.9799 8.78691 18.225 12.0601C18.4949 12.0602 18.7361 12.0599 19.2174 12.0588L19.2348 12.0587C20.5272 12.0559 21.1029 12.0572 21.8222 12.0688C21.8345 12.1054 21.8144 12.1033 21.8211 12.0466C22.0938 9.72678 23.285 8.04468 25.3679 7.11132C27.5792 6.12058 30.437 6.83752 31.9804 8.74293C32.8605 9.82955 33.3172 11.0349 33.3185 12.3639C33.3195 13.4094 33.3211 14.2458 33.3256 16.1279C33.3267 16.6163 33.3267 16.6163 33.3278 17.1048C33.3387 21.964 33.3344 24.7482 33.3012 27.7779C33.2629 31.2737 29.9105 33.9151 26.4551 33.2204C23.6704 32.6604 21.7815 30.3519 21.759 27.4815C21.7543 26.8832 21.7541 26.4095 21.7563 25.3196C21.7568 25.0643 21.7571 24.8818 21.7573 24.7266H18.2523ZM21.7417 21.7446V15.0314H18.2581V21.7446H21.7417ZM12.455 30.3684C13.9971 30.3752 15.269 29.1131 15.281 27.5622C15.2931 25.9939 14.0407 24.724 12.4754 24.7166C10.9105 24.7093 9.63518 25.9695 9.62801 27.529C9.62106 29.0769 10.8992 30.3614 12.455 30.3684ZM24.7184 27.5288C24.7141 29.0928 25.9798 30.3678 27.5368 30.3694C29.0873 30.3708 30.3709 29.0887 30.372 27.5372C30.373 25.9925 29.1101 24.7262 27.5581 24.7174C25.9896 24.7084 24.7225 25.963 24.7184 27.5288ZM30.3743 12.5513C30.3742 11.942 30.2018 11.378 29.8565 10.8397C29.1061 9.67022 27.2908 9.27689 26.135 10.0352C25.1815 10.6607 24.7197 11.5473 24.7187 12.722C24.7172 14.2744 24.7167 15.8942 24.7169 17.8385C24.717 18.7522 24.7171 19.4831 24.7176 21.1278C24.7178 21.8615 24.7179 22.0061 24.718 22.5074C26.5996 21.4995 28.4895 21.502 30.3742 22.5133C30.3746 19.2988 30.3746 15.9934 30.3743 12.5513ZM15.2847 19.9893L15.2848 19.9313C15.2904 16.1142 15.2884 14.418 15.2691 12.2987C15.2518 10.397 13.0755 9.05424 11.3536 9.87973C10.1974 10.434 9.63316 11.3967 9.62913 12.7541C9.62443 14.2914 9.62291 15.8847 9.62351 17.8834C9.62371 18.5819 9.62405 19.1408 9.62494 20.3983C9.62565 21.3977 9.62602 21.9728 9.62624 22.5128C11.5066 21.5009 13.3973 21.4998 15.2821 22.5108C15.2822 21.8548 15.283 21.1613 15.2847 19.9893Z" fill="#B1C2C9"/>
<path d="M12.455 30.3683C13.9971 30.3752 15.269 29.113 15.2809 27.5622C15.2931 25.9939 14.0407 24.7239 12.4753 24.7166C10.9105 24.7093 9.63513 25.9695 9.62796 27.5289C9.62101 29.0769 10.8991 30.3614 12.455 30.3683Z" fill="transparent"/>
<path d="M24.7183 27.5287C24.714 29.0928 25.9797 30.3677 27.5367 30.3693C29.0872 30.3708 30.3708 29.0887 30.3719 27.5372C30.3729 25.9925 29.11 24.7262 27.558 24.7173C25.9895 24.7084 24.7225 25.963 24.7183 27.5287Z" fill="transparent"/>
<path d="M30.3742 12.5513C30.3741 11.9421 30.2017 11.378 29.8564 10.8397C29.1061 9.67023 27.2908 9.27691 26.135 10.0352C25.1815 10.6607 24.7197 11.5473 24.7187 12.722C24.7172 14.2744 24.7166 15.8942 24.7168 17.8385C24.7169 18.7522 24.7171 19.4831 24.7176 21.1278C24.7178 21.8615 24.7178 22.0061 24.718 22.5074C26.5996 21.4995 28.4895 21.502 30.3742 22.5133C30.3746 19.2988 30.3746 15.9934 30.3742 12.5513Z" fill="transparent"/>
<path d="M15.2849 19.9894L15.285 19.9314C15.2906 16.1142 15.2886 14.4181 15.2693 12.2988C15.252 10.3971 13.0756 9.05428 11.3537 9.87978C10.1976 10.4341 9.63331 11.3968 9.62929 12.7541C9.62458 14.2914 9.62306 15.8848 9.62366 17.8834C9.62387 18.582 9.62421 19.1408 9.62509 20.3983C9.6258 21.3977 9.62617 21.9729 9.62639 22.5129C11.5067 21.501 13.3974 21.4998 15.2822 22.5109C15.2824 21.8548 15.2832 21.1614 15.2849 19.9894Z" fill="transparent"/>
</svg>