<svg width="48" height="48" viewBox="0 0 48 48" fill="none" xmlns="http://www.w3.org/2000/svg">
<rect width="48" height="48" rx="24" fill="#EBEDFA"/>
<path fill-rule="evenodd" clip-rule="evenodd" d="M28.1195 15.283L28.1194 14.9648V14.9648C28.1194 14.7526 28.1193 14.5405 28.1195 14.3283C28.1199 13.5797 28.6613 13.0197 29.4029 13.0007C30.2533 12.9788 30.8529 13.4847 30.8725 14.2695C30.8897 14.9558 30.8905 15.6433 30.8723 16.3296C30.8517 17.106 30.2577 17.6117 29.4239 17.5942C28.6617 17.5782 28.1194 17.0248 28.1194 16.2629L28.1195 15.283ZM14.8384 24.2176V23.1499L14.8383 21.2783C14.8382 19.7809 14.8381 18.2836 14.8386 16.7862C14.839 15.6007 15.6011 14.8425 16.7906 14.8418C16.909 14.8418 17.0274 14.8424 17.1458 14.8431H17.1458H17.1458H17.1458C17.413 14.8445 17.6802 14.846 17.9472 14.8393C18.1871 14.8334 18.2747 14.9371 18.2733 15.171C18.2727 15.2645 18.2711 15.3582 18.2695 15.452V15.452V15.452V15.452C18.2636 15.7952 18.2577 16.1394 18.3029 16.4762C18.4194 17.3441 19.0618 17.9538 19.9314 18.025C20.3098 18.056 20.7093 18.046 21.076 17.9577C21.8521 17.7709 22.3766 17.0539 22.3896 16.2544C22.3955 15.8856 22.3934 15.5166 22.3904 15.1477C22.3887 14.9407 22.4762 14.84 22.6914 14.8404C24.175 14.8434 25.6585 14.8431 27.1421 14.8407C27.3434 14.8404 27.431 14.9308 27.4323 15.1296C27.433 15.2484 27.4318 15.3674 27.4305 15.4864V15.4865V15.4865V15.4866C27.4271 15.8043 27.4237 16.1222 27.459 16.4355C27.5578 17.3115 28.2032 17.9471 29.0775 18.0229C29.4558 18.0557 29.8553 18.0476 30.2225 17.9615C31.0038 17.7785 31.5298 17.0724 31.5487 16.2699C31.5539 16.0482 31.553 15.8265 31.5521 15.6047C31.5516 15.4743 31.551 15.3439 31.5517 15.2135C31.5533 14.8989 31.6076 14.8433 31.9135 14.8421C32.3074 14.8407 32.7014 14.841 33.0953 14.8419C34.1968 14.8445 34.985 15.6152 34.9951 16.7176C35.0017 17.4444 35.0002 18.1713 34.9987 18.8982C34.998 19.211 34.9974 19.5237 34.9974 19.8365L34.9975 22.6528V22.667C34.9976 25.2114 34.9978 27.7558 34.9969 30.3002C34.9966 31.2264 34.5068 31.9281 33.6871 32.1697C33.5205 32.2188 33.3421 32.2511 33.169 32.2514C30.6933 32.2556 28.2176 32.2552 25.7418 32.2548L24.4436 32.2546C24.4223 32.2546 24.401 32.2528 24.3734 32.2505C24.3579 32.2492 24.3404 32.2478 24.3199 32.2464C24.3466 32.172 24.3722 32.0979 24.3977 32.0244C24.4683 31.8205 24.5375 31.6205 24.6242 31.4283C24.6321 31.4107 24.6457 31.3592 24.665 31.286L24.665 31.286C24.7078 31.1241 24.7787 30.8555 24.879 30.6099C25.7925 30.6055 26.7061 30.6058 27.6197 30.6061L28.3239 30.6063L29.6154 30.6064H29.6226C30.4746 30.6065 31.1988 30.6065 32.2676 30.6061C32.9858 30.6058 33.3372 30.2583 33.3374 29.5464C33.3381 26.3688 33.3379 23.9244 33.3375 20.7467C33.3375 20.3685 33.3041 20.3367 32.9149 20.3367C27.0896 20.3366 22.7309 20.3366 16.9056 20.3367C16.5293 20.3367 16.4861 20.3797 16.486 20.7533C16.486 20.9713 16.4857 21.1763 16.4855 21.3746V21.3746C16.4847 22.0074 16.484 22.5709 16.4895 23.2667C15.9636 23.6134 15.7381 23.7228 15.5949 23.7924L15.5709 23.804C15.4047 23.8849 15.2451 23.9791 15.0727 24.0808L15.0727 24.0808L15.0727 24.0808L15.0726 24.0808C14.9975 24.1251 14.92 24.1709 14.8384 24.2176ZM13 29.4932C13.0059 25.6468 16.8959 22.9822 20.4817 24.3666C20.7545 24.4719 20.9763 24.6213 21.0311 24.93C21.1285 25.4788 20.6358 25.8708 20.0935 25.7028C19.6961 25.5796 19.291 25.4542 18.8803 25.4054C16.7955 25.1581 14.7774 26.703 14.4431 28.778C14.0071 31.4841 16.1068 33.7917 18.84 33.6104C21.2054 33.4535 23.0019 31.1329 22.5625 28.8032L22.5525 28.7514L22.5525 28.7514C22.5318 28.645 22.5107 28.5371 22.5141 28.4307C22.5249 28.0883 22.7963 27.8109 23.1329 27.7793C23.4968 27.7452 23.8039 27.9803 23.8845 28.3738C24.0432 29.1475 24.0472 29.9222 23.8675 30.6936C23.2209 33.4707 20.6993 35.2674 17.8713 34.9678C15.1259 34.6772 12.9958 32.2832 13 29.4932ZM18.4916 29.3832L18.4916 29.3832C18.4755 29.4119 18.4589 29.4416 18.4401 29.4713L18.1265 29.1413C17.8919 28.8943 17.678 28.6689 17.4627 28.4448C17.1463 28.115 16.7348 28.0804 16.4398 28.3555C16.1323 28.6424 16.1439 29.0509 16.4745 29.3986C16.7558 29.6945 17.0385 29.989 17.3211 30.2835C17.4736 30.4423 17.626 30.6011 17.7782 30.7601C18.2079 31.2091 18.5549 31.212 18.9926 30.7651C20.3633 29.3657 21.7331 27.9655 23.1028 26.5654L23.104 26.5642L23.1052 26.563L23.1063 26.5618C23.2001 26.466 23.2941 26.3703 23.388 26.2747C23.6757 25.9819 23.9634 25.6891 24.2454 25.3908C24.4855 25.1368 24.5112 24.8114 24.3351 24.5368C24.1748 24.2865 23.8528 24.1573 23.566 24.2652C23.4241 24.3186 23.2907 24.4237 23.1825 24.534C21.6508 26.0944 20.1236 27.6594 18.5979 29.2259C18.5555 29.2694 18.5247 29.3243 18.4916 29.3832ZM18.96 14.9427C18.96 15.0534 18.9601 15.1641 18.9601 15.2747C18.96 15.3704 18.9599 15.4661 18.9598 15.5618C18.9596 15.801 18.9594 16.0403 18.9602 16.2796C18.9626 17.0375 19.5105 17.5833 20.2791 17.5946C21.1105 17.6069 21.6951 17.092 21.7093 16.3133C21.7217 15.6353 21.7224 14.9567 21.7089 14.2786C21.6935 13.5003 21.1103 12.9901 20.2752 13.0009C19.511 13.0109 18.9623 13.5611 18.9603 14.3202C18.9597 14.5277 18.9598 14.7352 18.96 14.9427Z" fill="#525C75"/>
</svg>
