<svg width="49" height="48" viewBox="0 0 49 48" fill="none" xmlns="http://www.w3.org/2000/svg">
<rect x="0.182861" width="48" height="48" rx="24" fill="#EBEDFA"/>
<path d="M23.99 14C29.4653 13.9971 33.9839 18.4982 34 23.9711C34.016 29.4633 29.4674 34.0139 23.9763 33.9986C18.5057 33.9836 13.9966 29.4599 14 23.9901C14.0034 18.5187 18.5191 14.0029 23.99 14ZM26.4715 20.984C26.4818 20.9671 26.5659 20.8646 26.6141 20.747C27.1902 19.3395 27.0873 19.0917 25.597 18.8167C24.9567 18.6986 24.6867 18.4671 24.7355 17.8031C24.7898 17.0636 24.1998 17.2218 23.764 17.1891C23.3145 17.1556 22.9299 17.2494 23.0098 17.806C23.1171 18.5525 22.762 18.8528 22.1108 19.1413C20.0113 20.0717 19.7803 22.7187 21.6608 24.0365C22.1211 24.359 22.6716 24.5514 23.1756 24.813C23.6401 25.0543 24.1452 25.2488 24.5483 25.5697C25.204 26.092 25.0716 26.9769 24.2773 27.2327C23.7585 27.3996 23.1514 27.4223 22.607 27.3447C21.9967 27.2577 21.4127 26.9848 20.7639 26.7757C20.6102 27.2414 20.4616 27.673 20.326 28.1086C20.2079 28.4885 20.3419 28.7543 20.7249 28.8737C21.2261 29.0298 21.7222 29.2207 22.2355 29.3127C22.7148 29.3987 22.8962 29.6094 22.8959 30.0937C22.8959 30.3128 23.0269 30.6269 23.2001 30.7352C23.9905 31.2296 24.7579 30.8006 24.7505 29.8886C24.7468 29.4359 24.8125 29.0942 25.3142 28.9138C26.6065 28.449 27.405 27.5591 27.4461 26.1369C27.4873 24.7128 26.7125 23.8005 25.4842 23.217C24.8515 22.9164 24.2009 22.6533 23.5716 22.3459C23.1485 22.1391 22.7211 21.8694 22.8616 21.3036C22.9987 20.752 23.468 20.5318 23.9797 20.5825C24.774 20.6608 25.5591 20.8316 26.4715 20.984Z" fill="#525C75"/>
</svg>
