<svg width="43" height="40" viewBox="0 0 43 40" fill="none" xmlns="http://www.w3.org/2000/svg">
<rect x="0.5" width="42" height="40" rx="10" fill="#294CFF"/>
<path d="M8.17 27V14.31H14.398C15.862 14.31 16.966 14.67 17.71 15.39C18.454 16.098 18.826 17.064 18.826 18.288C18.826 19.5 18.454 20.466 17.71 21.186C16.966 21.906 15.862 22.266 14.398 22.266H11.5V27H8.17ZM11.5 19.71H13.966C14.53 19.71 14.95 19.59 15.226 19.35C15.502 19.098 15.64 18.744 15.64 18.288C15.64 17.832 15.502 17.478 15.226 17.226C14.95 16.974 14.53 16.848 13.966 16.848H11.5V19.71ZM20.3287 27V14.31H23.2087L27.3667 23.616H26.7727L30.9127 14.31H33.8107V27H30.8047V19.224H31.5787L27.9787 27H26.1067L22.4887 19.224H23.3167V27H20.3287Z" fill="#40D1FF"/>
</svg>
