<svg width="52" height="53" viewBox="0 0 52 53" fill="none" xmlns="http://www.w3.org/2000/svg">
<g style="mix-blend-mode:color-dodge">
<path fill-rule="evenodd" clip-rule="evenodd" d="M44.035 24.1319C44.0065 24.624 43.8007 25.0062 43.4351 25.3132C42.8552 25.8 42.2776 26.2898 41.6946 26.7731C39.998 28.1798 39.972 30.9415 41.6483 32.3741C42.2239 32.866 42.8103 33.3458 43.3906 33.8322C43.9773 34.3241 44.1524 34.9275 43.8939 35.6432C43.1409 37.7271 42.0347 39.6111 40.5855 41.2967C40.1396 41.8152 39.5236 41.9708 38.8449 41.7391C38.1143 41.4894 37.3783 41.251 36.6625 40.9641C34.6424 40.1548 32.0613 41.7079 31.7827 43.6602C31.6805 44.3779 31.519 45.0871 31.394 45.8017C31.2244 46.7698 30.8121 47.178 29.844 47.3417C27.7855 47.6895 25.7284 47.6901 23.6698 47.3423C22.6988 47.1783 22.2855 46.7722 22.1156 45.8069C21.9855 45.0663 21.8332 44.3294 21.7098 43.5879C21.3925 41.6817 18.8816 40.2176 16.9637 40.9267C16.2023 41.2081 15.4352 41.475 14.6671 41.7378C13.9731 41.9753 13.3586 41.8088 12.899 41.2694C11.4933 39.6195 10.402 37.7889 9.66033 35.7568C9.34735 34.8992 9.50408 34.3598 10.2058 33.7566C10.9299 33.1346 11.7169 32.5593 12.3292 31.8407C13.5924 30.3589 13.2945 27.9946 11.7863 26.7506C11.2124 26.2773 10.6429 25.7986 10.076 25.3167C9.54255 24.8632 9.36931 24.2607 9.5996 23.6029C10.3416 21.4843 11.4639 19.5786 12.9365 17.8778C13.3892 17.3549 13.9804 17.2176 14.6429 17.4435C15.361 17.6884 16.093 17.903 16.7887 18.2002C18.7501 19.0384 21.5347 17.5934 21.7914 15.237C21.8698 14.5181 22.038 13.8078 22.1832 13.097C22.3188 12.433 22.7382 12.0296 23.4105 11.9012C25.6374 11.476 27.8656 11.4757 30.0927 11.9001C30.7829 12.0317 31.1996 12.4484 31.3329 13.1305C31.4948 13.959 31.6553 14.788 31.8023 15.6192C32.142 17.5402 34.6412 18.9266 36.448 18.2818C37.1999 18.0135 37.9545 17.7524 38.7087 17.4904C39.5794 17.1878 40.1302 17.3511 40.7242 18.0566C42.0867 19.6743 43.1337 21.4699 43.8537 23.4508C43.9337 23.6709 43.9755 23.9046 44.035 24.1319Z" fill="#294CFF"/>
</g>
<path fill-rule="evenodd" clip-rule="evenodd" d="M32.7495 29.7833C32.7541 33.0671 30.0036 35.7933 26.6814 35.7977C23.3612 35.8023 20.6051 33.0819 20.6006 29.7958C20.5959 26.5119 23.3464 23.7859 26.6687 23.7813C29.9887 23.7768 32.745 26.4973 32.7495 29.7833Z" fill="#191B22"/>
<g style="mix-blend-mode:color-dodge">
<path fill-rule="evenodd" clip-rule="evenodd" d="M45.0543 15.6547C44.9059 15.8787 44.7055 16.0039 44.4516 16.0515C44.0489 16.1268 43.6465 16.2041 43.2433 16.277C42.07 16.4891 41.2997 17.7812 41.6841 18.8991C41.8161 19.2829 41.9564 19.664 42.0921 20.0465C42.2293 20.4333 42.1449 20.7635 41.8285 21.0316C40.907 21.8122 39.8765 22.4053 38.7414 22.8141C38.3922 22.9399 38.0636 22.8499 37.8124 22.5611C37.542 22.2501 37.2659 21.943 37.0127 21.6184C36.2976 20.7025 34.6737 20.7492 34.0085 21.5937C33.764 21.9041 33.4944 22.1949 33.2402 22.4979C32.8958 22.9083 32.5924 22.991 32.0983 22.8116C31.0478 22.4298 30.0933 21.8851 29.2336 21.1761C28.8282 20.8417 28.748 20.5412 28.9342 20.0422C29.0771 19.6594 29.2088 19.2724 29.3551 18.891C29.7312 17.9104 28.9683 16.5565 27.8838 16.3819C27.4533 16.3125 27.0241 16.2348 26.5956 16.1549C26.2085 16.0828 25.969 15.8417 25.9039 15.4662C25.7048 14.3178 25.701 13.1676 25.9148 12.0154C26.0051 11.5291 26.2259 11.3169 26.7171 11.2191C27.2237 11.1184 27.7468 11.0563 28.2282 10.8806C29.2211 10.5182 29.732 9.32728 29.3738 8.34263C29.2375 7.96797 29.1047 7.59193 28.974 7.21512C28.851 6.86048 28.936 6.53121 29.2235 6.28283C30.1494 5.48294 31.1932 4.88393 32.3434 4.47412C32.697 4.34811 33.0089 4.44018 33.2543 4.72193C33.5202 5.02737 33.8009 5.32226 34.0421 5.64635C34.7219 6.56022 36.4105 6.61834 37.1766 5.57806C37.4103 5.26065 37.6834 4.97116 37.9459 4.67534C38.1911 4.39895 38.4964 4.32033 38.8436 4.43805C39.9935 4.82802 41.0273 5.41819 41.944 6.20788C42.2281 6.45262 42.307 6.75901 42.1816 7.11513C42.0293 7.5477 41.8762 7.98015 41.7161 8.41004C41.3464 9.40355 42.1252 10.7178 43.1404 10.8932C43.563 10.9662 43.9847 11.0433 44.4066 11.1199C44.8936 11.2082 45.1043 11.4309 45.1862 11.9202C45.3742 13.042 45.367 14.1639 45.1572 15.2864C45.1338 15.4111 45.0891 15.5321 45.0543 15.6547Z" fill="#37CC3A" style="mix-blend-mode:multiply"/>
</g>
</svg>
