<svg width="64" height="64" viewBox="0 0 64 64" fill="none" xmlns="http://www.w3.org/2000/svg">
<path fill-rule="evenodd" clip-rule="evenodd" d="M46.6791 42.9429C46.774 46.385 44.0367 49.1001 40.5178 49.0744C38.5639 49.0602 23.4799 49.0617 21.6512 49.0607C18.0155 49.0584 15.5049 46.5532 15.5026 42.9246C15.4987 36.6432 15.4997 30.3619 15.5022 24.0805C15.5036 20.4667 17.9612 17.9313 21.5687 17.9145C23.2272 17.9068 38.5298 17.9054 40.641 17.9147C43.7475 17.9284 46.1127 19.9134 46.5907 22.8202C46.6596 23.2391 46.6571 23.6725 46.658 24.0994C46.6631 27.2315 46.6606 30.3636 46.6606 33.4957C46.6606 36.6448 46.5923 39.796 46.6791 42.9429Z" fill="#294CFF" style="mix-blend-mode:darken"/>
<path fill-rule="evenodd" clip-rule="evenodd" d="M21.4575 28.957L27.0245 25.5528L32.5213 28.957V17.8932H21.4575V28.957Z" fill="#F2F4FF"/>
<path fill-rule="evenodd" clip-rule="evenodd" d="M55.1191 18.5628C54.9052 18.7764 54.7351 18.9464 54.3511 19.3302L54.3376 19.3436C53.0829 20.5977 52.5184 21.1604 51.8148 21.8568C51.7691 21.9021 51.7632 21.9197 51.7716 21.9847C51.9244 23.1695 52.0461 24.122 52.3166 26.2479C52.3573 26.5677 52.3573 26.5677 52.398 26.8874C52.4102 26.9829 52.4194 27.0594 52.4398 27.23C52.4551 27.3576 52.4551 27.3576 52.4706 27.4844C52.5194 27.8795 52.3686 28.2212 52.0478 28.4494C51.707 28.6919 51.3152 28.7161 50.9504 28.5082C50.5402 28.2745 50.1916 28.0751 49.4871 27.6713L49.4262 27.6363C49.1724 27.4909 49.1724 27.4909 48.9187 27.3455C48.6025 27.1645 48.6025 27.1645 48.2862 26.9836L48.2695 26.9741C47.231 26.3801 46.7589 26.1091 46.1784 25.7719C46.1365 25.7476 46.1481 25.7475 46.1052 25.7724C45.2517 26.2665 44.561 26.6645 43.0334 27.5431L42.9776 27.5752C42.2533 27.9918 41.898 28.1963 41.4788 28.4378C41.0784 28.6685 40.7202 28.7188 40.3495 28.5218C39.9774 28.3241 39.76 27.9177 39.8121 27.5047C39.842 27.268 39.842 27.268 39.8719 27.0312C39.8952 26.8465 39.8952 26.8465 39.9185 26.6618C40.1878 24.5274 40.3389 23.3374 40.5084 22.0255C40.5205 21.9316 40.5081 21.8951 40.4413 21.8289C39.6148 21.0119 38.955 20.3537 37.4793 18.8771L37.4728 18.8707C37.3119 18.7097 37.3119 18.7097 37.1509 18.5486C36.745 18.1425 36.6641 17.6727 36.9333 17.2125C37.0807 16.9605 37.3034 16.8214 37.6219 16.7303C37.9535 16.6356 38.2185 16.5598 38.8152 16.389L38.8423 16.3813C40.5806 15.8838 41.375 15.6572 42.3527 15.3806C42.4176 15.3623 42.4413 15.3437 42.4744 15.2852C42.821 14.6724 43.1004 14.1802 43.7246 13.0826L43.7355 13.0633C44.4388 11.8266 44.7581 11.2641 45.1502 10.5697C45.3815 10.16 45.7071 9.92668 46.1391 9.92578C46.5715 9.92499 46.8999 10.1572 47.1313 10.5655C48.0296 12.1511 48.929 13.7255 49.8297 15.2889C49.8469 15.3188 49.9009 15.3607 49.936 15.371C50.9376 15.663 51.7402 15.8939 53.5456 16.411L53.555 16.4137C54.1084 16.5721 54.3537 16.6424 54.6617 16.7308C55.1927 16.8831 55.4927 17.2415 55.4988 17.7561C55.5143 18.062 55.3807 18.3016 55.1191 18.5628Z" fill="#37CC3A" style="mix-blend-mode:multiply"/>
</svg>
