<svg width="52" height="53" viewBox="0 0 52 53" fill="none" xmlns="http://www.w3.org/2000/svg">
<g style="mix-blend-mode:color-dodge">
<path fill-rule="evenodd" clip-rule="evenodd" d="M40.6791 37.5452C40.774 40.9873 38.0367 43.7024 34.5178 43.6767C32.5639 43.6625 17.4799 43.664 15.6512 43.6629C12.0155 43.6607 9.50486 41.1555 9.5026 37.5269C9.49869 31.2455 9.49972 24.9642 9.50219 18.6828C9.50363 15.0689 11.9612 12.5336 15.5687 12.5168C17.2272 12.5091 32.5298 12.5077 34.641 12.517C37.7475 12.5307 40.1127 14.5157 40.5907 17.4225C40.6596 17.8413 40.6571 18.2748 40.658 18.7017C40.6631 21.8338 40.6606 24.9659 40.6606 28.098C40.6606 31.2471 40.5923 34.3983 40.6791 37.5452Z" fill="#294CFF" style="mix-blend-mode:darken"/>
</g>
<g style="mix-blend-mode:screen">
<path fill-rule="evenodd" clip-rule="evenodd" d="M15.4575 23.5593L21.0245 20.1551L26.5213 23.5593V12.4955H15.4575V23.5593Z" fill="#294CFF"/>
</g>
<g style="mix-blend-mode:color-dodge">
<path fill-rule="evenodd" clip-rule="evenodd" d="M49.1191 13.1651C48.9052 13.3787 48.7351 13.5487 48.3511 13.9325L48.3376 13.9459C47.0829 15.2 46.5184 15.7627 45.8148 16.4591C45.7691 16.5044 45.7632 16.522 45.7716 16.587C45.9244 17.7718 46.0461 18.7243 46.3166 20.8502C46.3573 21.17 46.3573 21.17 46.398 21.4897C46.4102 21.5852 46.4194 21.6616 46.4398 21.8323C46.4551 21.9599 46.4551 21.9599 46.4706 22.0867C46.5194 22.4818 46.3686 22.8235 46.0478 23.0517C45.707 23.2942 45.3152 23.3184 44.9504 23.1105C44.5402 22.8768 44.1916 22.6773 43.4871 22.2736L43.4262 22.2386C43.1724 22.0932 43.1724 22.0932 42.9187 21.9478C42.6025 21.7668 42.6025 21.7668 42.2862 21.5859L42.2695 21.5764C41.231 20.9824 40.7589 20.7114 40.1784 20.3742C40.1365 20.3499 40.1481 20.3498 40.1052 20.3747C39.2517 20.8688 38.561 21.2668 37.0334 22.1454L36.9776 22.1775C36.2533 22.5941 35.898 22.7986 35.4788 23.0401C35.0784 23.2708 34.7202 23.3211 34.3495 23.1241C33.9774 22.9264 33.76 22.52 33.8121 22.107C33.842 21.8703 33.842 21.8703 33.8719 21.6335C33.8952 21.4488 33.8952 21.4488 33.9185 21.2641C34.1878 19.1297 34.3389 17.9397 34.5084 16.6278C34.5205 16.5339 34.5081 16.4974 34.4413 16.4312C33.6148 15.6142 32.955 14.956 31.4793 13.4794L31.4728 13.473C31.3119 13.312 31.3119 13.312 31.1509 13.1509C30.745 12.7448 30.6641 12.275 30.9333 11.8147C31.0807 11.5628 31.3034 11.4237 31.6219 11.3326C31.9535 11.2379 32.2185 11.1621 32.8152 10.9913L32.8423 10.9836C34.5806 10.4861 35.375 10.2595 36.3527 9.98289C36.4176 9.96456 36.4413 9.94595 36.4744 9.88748C36.821 9.27466 37.1004 8.78247 37.7246 7.68492L37.7355 7.66563C38.4388 6.42887 38.7581 5.86639 39.1502 5.17195C39.3815 4.76232 39.7071 4.52897 40.1391 4.52808C40.5715 4.52728 40.8999 4.7595 41.1313 5.16784C42.0296 6.75343 42.929 8.32784 43.8297 9.89122C43.8469 9.92105 43.9009 9.96303 43.936 9.97325C44.9376 10.2653 45.7402 10.4962 47.5456 11.0133L47.555 11.016C48.1084 11.1744 48.3537 11.2447 48.6617 11.3331C49.1927 11.4854 49.4927 11.8438 49.4988 12.3584C49.5143 12.6643 49.3807 12.9039 49.1191 13.1651Z" fill="#37CC3A" style="mix-blend-mode:multiply"/>
</g>
</svg>
