<svg width="64" height="64" viewBox="0 0 64 64" fill="none" xmlns="http://www.w3.org/2000/svg">
<path fill-rule="evenodd" clip-rule="evenodd" d="M50.035 29.5288C50.0065 30.021 49.8007 30.4032 49.4351 30.7102C48.8552 31.197 48.2776 31.6868 47.6946 32.1701C45.998 33.5768 45.972 36.3385 47.6483 37.7711C48.2239 38.263 48.8103 38.7428 49.3906 39.2292C49.9773 39.7211 50.1524 40.3245 49.8939 41.0402C49.1409 43.1241 48.0347 45.0081 46.5855 46.6937C46.1396 47.2122 45.5236 47.3678 44.8449 47.1361C44.1143 46.8864 43.3783 46.648 42.6625 46.3611C40.6424 45.5518 38.0613 47.1048 37.7827 49.0572C37.6805 49.7749 37.519 50.4841 37.394 51.1986C37.2244 52.1668 36.8121 52.5749 35.844 52.7387C33.7855 53.0865 31.7284 53.0871 29.6698 52.7393C28.6988 52.5753 28.2855 52.1692 28.1156 51.2039C27.9855 50.4633 27.8332 49.7264 27.7098 48.9849C27.3925 47.0787 24.8816 45.6145 22.9637 46.3237C22.2023 46.6051 21.4352 46.872 20.6671 47.1348C19.9731 47.3722 19.3586 47.2058 18.899 46.6664C17.4933 45.0165 16.402 43.1859 15.6603 41.1538C15.3474 40.2961 15.5041 39.7567 16.2058 39.1536C16.9299 38.5316 17.7169 37.9562 18.3292 37.2377C19.5924 35.7558 19.2945 33.3915 17.7863 32.1476C17.2124 31.6743 16.6429 31.1956 16.076 30.7137C15.5425 30.2602 15.3693 29.6577 15.5996 28.9999C16.3416 26.8813 17.4639 24.9756 18.9365 23.2748C19.3892 22.7518 19.9804 22.6146 20.6429 22.8404C21.361 23.0853 22.093 23.3 22.7887 23.5972C24.7501 24.4354 27.5347 22.9904 27.7914 20.634C27.8698 19.915 28.038 19.2048 28.1832 18.494C28.3188 17.83 28.7382 17.4266 29.4105 17.2982C31.6374 16.8729 33.8656 16.8726 36.0927 17.2971C36.7829 17.4287 37.1996 17.8454 37.3329 18.5274C37.4948 19.356 37.6553 20.185 37.8023 21.0162C38.142 22.9371 40.6412 24.3236 42.448 23.6788C43.1999 23.4104 43.9545 23.1494 44.7087 22.8874C45.5794 22.5848 46.1302 22.748 46.7242 23.4536C48.0867 25.0713 49.1337 26.8669 49.8537 28.8477C49.9337 29.0679 49.9755 29.3015 50.035 29.5288Z" fill="#294CFF"/>
<path fill-rule="evenodd" clip-rule="evenodd" d="M38.7495 35.1808C38.7541 38.4646 36.0036 41.1908 32.6814 41.1952C29.3612 41.1998 26.6051 38.4793 26.6006 35.1933C26.5959 31.9093 29.3464 29.1833 32.6687 29.1787C35.9887 29.1743 38.745 31.8947 38.7495 35.1808Z" fill="#F2F4FF"/>
<path fill-rule="evenodd" clip-rule="evenodd" d="M51.0545 21.0522C50.9062 21.2761 50.7058 21.4014 50.4519 21.4489C50.0492 21.5242 49.6467 21.6016 49.2436 21.6744C48.0702 21.8866 47.3 23.1786 47.6843 24.2965C47.8164 24.6804 47.9567 25.0614 48.0924 25.444C48.2295 25.8307 48.1451 26.161 47.8287 26.4291C46.9072 27.2097 45.8767 27.8028 44.7416 28.2116C44.3924 28.3374 44.0639 28.2474 43.8126 27.9586C43.5422 27.6476 43.2662 27.3404 43.0129 27.0159C42.2978 26.1 40.674 26.1466 40.0088 26.9911C39.7643 27.3016 39.4946 27.5924 39.2405 27.8953C38.896 28.3058 38.5926 28.3885 38.0985 28.209C37.048 27.8272 36.0935 27.2825 35.2339 26.5736C34.8284 26.2391 34.7482 25.9386 34.9344 25.4396C35.0773 25.0568 35.209 24.6699 35.3554 24.2885C35.7315 23.3078 34.9686 21.954 33.884 21.7794C33.4536 21.71 33.0244 21.6323 32.5959 21.5524C32.2087 21.4802 31.9693 21.2391 31.9041 20.8637C31.705 19.7152 31.7013 18.5651 31.9151 17.4128C32.0053 16.9265 32.2261 16.7143 32.7173 16.6166C33.224 16.5159 33.7471 16.4538 34.2284 16.278C35.2213 15.9157 35.7322 14.7247 35.374 13.7401C35.2377 13.3654 35.1049 12.9894 34.9742 12.6126C34.8512 12.2579 34.9363 11.9287 35.2237 11.6803C36.1496 10.8804 37.1935 10.2814 38.3436 9.87158C38.6972 9.74557 39.0092 9.83764 39.2545 10.1194C39.5205 10.4248 39.8012 10.7197 40.0423 11.0438C40.7222 11.9577 42.4108 12.0158 43.1768 10.9755C43.4106 10.6581 43.6836 10.3686 43.9461 10.0728C44.1913 9.79641 44.4967 9.71779 44.8438 9.83551C45.9937 10.2255 47.0276 10.8157 47.9443 11.6053C48.2284 11.8501 48.3073 12.1565 48.1819 12.5126C48.0295 12.9452 47.8764 13.3776 47.7164 13.8075C47.3466 14.801 48.1254 16.1152 49.1407 16.2906C49.5632 16.3636 49.985 16.4408 50.4068 16.5173C50.8938 16.6057 51.1045 16.8284 51.1865 17.3176C51.3744 18.4395 51.3672 19.5614 51.1574 20.6838C51.1341 20.8086 51.0893 20.9295 51.0545 21.0522Z" fill="#37CC3A" style="mix-blend-mode:multiply"/>
</svg>
