<svg width="52" height="53" viewBox="0 0 52 53" fill="none" xmlns="http://www.w3.org/2000/svg">
<g clip-path="url(#clip0_23339_1041)">
<g style="mix-blend-mode:color-dodge">
<path fill-rule="evenodd" clip-rule="evenodd" d="M29.5503 38.3901C28.8661 38.1871 28.0528 37.965 27.253 37.7027C26.6119 37.4925 25.985 37.2394 25.3562 36.9946C24.7527 36.7596 24.1571 36.7463 23.5463 36.9755C22.7933 37.258 22.0399 37.5448 21.2713 37.7815C20.6699 37.9667 20.051 38.1615 19.4292 38.2061C17.9595 38.3115 16.7974 37.6949 16.0753 36.4508C15.5224 35.4977 15.0779 34.4804 14.6392 33.4692C14.3027 32.6937 13.7628 32.1726 12.9859 31.8338C12.0524 31.4266 11.1174 31.0151 10.2182 30.5414C9.02005 29.9103 8.27224 28.9191 8.24417 27.5629C8.23082 26.917 8.39543 26.2482 8.58948 25.6223C8.84852 24.7875 9.20181 23.9794 9.53846 23.1692C9.81465 22.5046 9.80668 21.8545 9.55232 21.1897C9.22883 20.3444 8.89824 19.501 8.60872 18.6445C7.83422 16.3534 8.59711 14.6236 10.8314 13.5944C11.6393 13.2222 12.4587 12.872 13.2836 12.5372C13.9741 12.2573 14.4547 11.7986 14.7553 11.1283C15.1318 10.2888 15.5061 9.44537 15.946 8.63741C16.2135 8.14572 16.545 7.65962 16.949 7.27244C18.0264 6.23984 19.3446 6.09749 20.728 6.52472C21.6606 6.81264 22.5732 7.16928 23.4768 7.53797C24.2972 7.87255 25.0875 7.87374 25.9083 7.54951C26.7093 7.23308 27.5212 6.93921 28.3409 6.67267C30.5989 5.93869 32.3456 6.65519 33.3952 8.75346C33.8005 9.56362 34.1592 10.3969 34.5204 11.2274C34.8229 11.923 35.3003 12.4252 36.018 12.7289C36.851 13.0815 37.6737 13.4592 38.4889 13.8499C39.6075 14.3859 40.4735 15.1536 40.7937 16.3903C41.0265 17.2904 40.8633 18.1569 40.5456 19.0042C40.2131 19.8909 39.8643 20.7718 39.5169 21.6531C39.3102 22.1775 39.3095 22.7003 39.5041 23.2252C39.8237 24.087 40.1543 24.9451 40.4653 25.8099C40.8751 26.9501 41.0118 28.0911 40.4042 29.216C39.9208 30.1106 39.1211 30.6498 38.2136 31.0581C37.3628 31.4408 36.5054 31.8095 35.6482 32.1785C35.0944 32.4169 34.6991 32.8031 34.4489 33.3414C34.1025 34.0861 33.7501 34.8281 33.3966 35.5695C32.8527 36.7104 32.1697 37.7262 30.8541 38.1233C30.4863 38.2343 30.098 38.2805 29.5503 38.3901Z" fill="#294CFF"/>
</g>
<g style="mix-blend-mode:color-dodge">
<path fill-rule="evenodd" clip-rule="evenodd" d="M40.0104 18.9461C39.6192 18.8301 39.1543 18.7032 38.6972 18.5532C38.3307 18.4331 37.9724 18.2884 37.613 18.1484C37.268 18.0141 36.9275 18.0065 36.5784 18.1376C36.148 18.2991 35.7173 18.463 35.278 18.5982C34.9342 18.7042 34.5804 18.8155 34.225 18.841C33.3849 18.9012 32.7207 18.5488 32.3079 17.8376C31.9918 17.2928 31.7378 16.7113 31.487 16.1333C31.2947 15.69 30.9861 15.3922 30.542 15.1985C30.0083 14.9657 29.4739 14.7305 28.9599 14.4598C28.275 14.099 27.8476 13.5324 27.8315 12.7572C27.8239 12.388 27.918 12.0057 28.0289 11.6479C28.177 11.1707 28.3789 10.7088 28.5714 10.2457C28.7292 9.86583 28.7247 9.49419 28.5793 9.11421C28.3944 8.63104 28.2054 8.14893 28.0399 7.65936C27.5972 6.34969 28.0333 5.36094 29.3104 4.77264C29.7722 4.55985 30.2406 4.35968 30.7121 4.16833C31.1068 4.00831 31.3815 3.74616 31.5534 3.36298C31.7686 2.8831 31.9825 2.401 32.234 1.93916C32.3869 1.6581 32.5764 1.38024 32.8073 1.15893C33.4232 0.568684 34.1767 0.487315 34.9674 0.73152C35.5005 0.896101 36.0222 1.09996 36.5387 1.31071C37.0076 1.50196 37.4594 1.50264 37.9285 1.3173C38.3864 1.13643 38.8505 0.968451 39.319 0.816089C40.6097 0.396538 41.6082 0.8061 42.2082 2.0055C42.4398 2.46859 42.6448 2.94488 42.8513 3.41962C43.0243 3.81725 43.2971 4.10432 43.7073 4.27792C44.1835 4.47946 44.6538 4.69534 45.1198 4.91869C45.7592 5.22507 46.2542 5.66392 46.4372 6.37083C46.5703 6.88533 46.477 7.38063 46.2954 7.86496C46.1053 8.3718 45.9059 8.87534 45.7074 9.37907C45.5892 9.67885 45.5888 9.97766 45.7 10.2777C45.8828 10.7703 46.0717 11.2608 46.2495 11.7552C46.4838 12.4069 46.5619 13.0591 46.2146 13.7021C45.9382 14.2135 45.4812 14.5217 44.9624 14.7551C44.4761 14.9739 43.9859 15.1846 43.496 15.3956C43.1795 15.5318 42.9534 15.7526 42.8104 16.0603C42.6125 16.4859 42.411 16.9101 42.209 17.3339C41.8981 17.986 41.5077 18.5666 40.7556 18.7937C40.5454 18.8571 40.3234 18.8835 40.0104 18.9461Z" fill="#37CC3A" style="mix-blend-mode:multiply"/>
</g>
<path fill-rule="evenodd" clip-rule="evenodd" d="M30.6018 40.8676C31.1926 40.6897 31.7876 40.5629 32.3412 40.3337C33.9131 39.6827 34.9643 38.4715 35.7081 36.9679C36.0683 36.2395 36.4017 35.4966 36.7183 34.7476C36.8711 34.3858 37.105 34.1543 37.459 34.0082C38.0056 33.7828 38.5382 33.522 39.0889 33.3082C39.2096 33.2613 39.434 33.2944 39.5217 33.3818C41.0523 34.9068 42.5788 36.4365 44.085 37.9864C44.8588 38.7825 44.4901 39.9697 43.4094 40.2086C42.059 40.507 40.7056 40.7937 39.3491 41.0631C39.0891 41.1146 38.9998 41.22 38.9499 41.4739C38.6857 42.8161 38.3948 44.1527 38.1224 45.4933C38.0157 46.0178 37.7608 46.4267 37.2445 46.5871C36.7051 46.7546 36.2352 46.6024 35.8285 46.1878C34.1522 44.48 32.4649 42.783 30.7829 41.0809C30.7144 41.0118 30.6564 40.9324 30.6018 40.8676Z" fill="#294CFF"/>
<path fill-rule="evenodd" clip-rule="evenodd" d="M19.2686 41.9673C17.574 43.6787 15.8746 45.385 14.1879 47.1042C13.7722 47.5278 13.3006 47.7118 12.7387 47.5362C12.2021 47.3686 11.9602 46.9427 11.8538 46.4004C11.5931 45.0727 11.3032 43.7508 11.0424 42.4231C10.9932 42.1729 10.9069 42.062 10.6441 42.0098C9.3006 41.7434 7.96334 41.4449 6.62209 41.1668C6.09675 41.0578 5.71695 40.7775 5.56067 40.2556C5.4049 39.7353 5.55599 39.2801 5.93475 38.898C7.46641 37.3521 9.00051 35.8087 10.5249 34.2555C10.695 34.0823 10.8392 34.0181 11.0431 34.1644C11.0546 34.1726 11.0702 34.1747 11.0833 34.1807C12.8489 34.9776 12.8517 34.9765 13.6128 36.7972C14.0354 37.8081 14.5156 38.7843 15.2473 39.6097C16.2851 40.7806 17.571 41.4482 19.1487 41.6461C19.3034 41.6655 19.3783 41.8565 19.2686 41.9673Z" fill="#294CFF"/>
<g style="mix-blend-mode:color-dodge">
<path fill-rule="evenodd" clip-rule="evenodd" d="M31.816 21.672C31.6499 21.8408 31.5178 21.9752 31.2196 22.2785L31.2091 22.2892C30.2346 23.2805 29.7963 23.7254 29.2498 24.2758C29.2143 24.3117 29.2098 24.3256 29.2163 24.377C29.335 25.3136 29.4294 26.0666 29.6396 27.7471C29.6712 27.9999 29.6712 27.9999 29.7028 28.2526C29.7122 28.3281 29.7194 28.3886 29.7352 28.5235C29.7471 28.6243 29.7471 28.6243 29.7591 28.7246C29.797 29.0369 29.6799 29.307 29.4308 29.4874C29.1661 29.6791 28.8618 29.6982 28.5785 29.5339C28.2599 29.3492 27.9892 29.1915 27.4421 28.8723L27.3948 28.8447C27.1977 28.7297 27.1977 28.7297 27.0006 28.6148C26.7551 28.4717 26.7551 28.4717 26.5094 28.3287L26.4965 28.3212C25.6899 27.8516 25.3233 27.6374 24.8724 27.3708C24.8399 27.3516 24.8489 27.3516 24.8156 27.3712C24.1528 27.7618 23.6164 28.0764 22.43 28.771L22.3867 28.7964C21.8241 29.1257 21.5482 29.2873 21.2227 29.4782C20.9117 29.6607 20.6335 29.7004 20.3456 29.5447C20.0566 29.3884 19.8878 29.0671 19.9282 28.7406C19.9514 28.5535 19.9514 28.5535 19.9746 28.3663C19.9927 28.2203 19.9927 28.2203 20.0108 28.0743C20.22 26.387 20.3374 25.4463 20.469 24.4093C20.4784 24.335 20.4688 24.3061 20.4169 24.2538C19.775 23.6079 19.2626 23.0876 18.1165 21.9204L18.1115 21.9153C17.9865 21.788 17.9865 21.788 17.8615 21.6607C17.5463 21.3397 17.4834 20.9683 17.6925 20.6045C17.8069 20.4053 17.9799 20.2954 18.2273 20.2233C18.4848 20.1484 18.6906 20.0885 19.154 19.9535L19.175 19.9474C20.5251 19.5542 21.142 19.375 21.9013 19.1563C21.9517 19.1419 21.9701 19.1271 21.9958 19.0809C22.265 18.5965 22.482 18.2074 22.9668 17.3398L22.9753 17.3245C23.5215 16.3468 23.7694 15.9022 24.0739 15.3532C24.2536 15.0294 24.5064 14.8449 24.8419 14.8442C25.1778 14.8436 25.4328 15.0272 25.6125 15.35C26.3101 16.6034 27.0086 17.848 27.7082 19.0839C27.7215 19.1075 27.7634 19.1406 27.7907 19.1487C28.5685 19.3796 29.1919 19.5621 30.594 19.9709L30.6013 19.973C31.031 20.0983 31.2216 20.1538 31.4608 20.2237C31.8732 20.3441 32.1062 20.6274 32.1109 21.0342C32.1229 21.2761 32.0191 21.4655 31.816 21.672Z" fill="#F2F4FF"/>
</g>
</g>
<defs>
<clipPath id="clip0_23339_1041">
<rect width="52" height="52" fill="white" transform="translate(0 0.602539)"/>
</clipPath>
</defs>
</svg>
