<svg width="64" height="64" viewBox="0 0 64 64" fill="none" xmlns="http://www.w3.org/2000/svg">
<path fill-rule="evenodd" clip-rule="evenodd" d="M35.5503 43.7878C34.8661 43.5848 34.0528 43.3627 33.253 43.1004C32.6119 42.8902 31.985 42.6371 31.3562 42.3923C30.7527 42.1573 30.1571 42.144 29.5463 42.3733C28.7933 42.6557 28.0399 42.9425 27.2713 43.1792C26.6699 43.3644 26.051 43.5592 25.4292 43.6038C23.9595 43.7092 22.7974 43.0926 22.0753 41.8485C21.5224 40.8955 21.0779 39.8781 20.6392 38.8669C20.3027 38.0914 19.7628 37.5703 18.9859 37.2315C18.0524 36.8243 17.1174 36.4128 16.2182 35.9391C15.02 35.308 14.2722 34.3168 14.2442 32.9606C14.2308 32.3147 14.3954 31.6459 14.5895 31.02C14.8485 30.1852 15.2018 29.3771 15.5385 28.5669C15.8146 27.9023 15.8067 27.2522 15.5523 26.5874C15.2288 25.7421 14.8982 24.8987 14.6087 24.0423C13.8342 21.7511 14.5971 20.0213 16.8314 18.9921C17.6393 18.6199 18.4587 18.2697 19.2836 17.9349C19.9741 17.655 20.4547 17.1964 20.7553 16.526C21.1318 15.6865 21.5061 14.8431 21.946 14.0351C22.2135 13.5434 22.545 13.0573 22.949 12.6701C24.0264 11.6375 25.3446 11.4952 26.728 11.9224C27.6606 12.2103 28.5732 12.567 29.4768 12.9357C30.2972 13.2703 31.0875 13.2714 31.9083 12.9472C32.7093 12.6308 33.5212 12.3369 34.3409 12.0704C36.5989 11.3364 38.3456 12.0529 39.3952 14.1512C39.8005 14.9613 40.1592 15.7946 40.5204 16.6251C40.8229 17.3207 41.3003 17.8229 42.018 18.1266C42.851 18.4792 43.6737 18.8569 44.4889 19.2476C45.6075 19.7836 46.4735 20.5513 46.7937 21.7881C47.0265 22.6881 46.8633 23.5546 46.5456 24.4019C46.2131 25.2886 45.8643 26.1695 45.5169 27.0508C45.3102 27.5752 45.3095 28.098 45.5041 28.6229C45.8237 29.4847 46.1543 30.3428 46.4653 31.2076C46.8751 32.3478 47.0118 33.4888 46.4042 34.6137C45.9208 35.5084 45.1211 36.0476 44.2136 36.4558C43.3628 36.8385 42.5054 37.2072 41.6482 37.5763C41.0944 37.8146 40.6991 38.2008 40.4489 38.7392C40.1025 39.4838 39.7501 40.2258 39.3966 40.9672C38.8527 42.1081 38.1697 43.1239 36.8541 43.521C36.4863 43.632 36.098 43.6782 35.5503 43.7878Z" fill="#294CFF"/>
<path fill-rule="evenodd" clip-rule="evenodd" d="M46.0103 24.3436C45.6192 24.2276 45.1543 24.1006 44.6971 23.9507C44.3307 23.8305 43.9724 23.6858 43.6129 23.5459C43.268 23.4116 42.9275 23.404 42.5784 23.535C42.1479 23.6965 41.7173 23.8604 41.278 23.9957C40.9342 24.1016 40.5804 24.213 40.225 24.2385C39.3849 24.2987 38.7206 23.9462 38.3078 23.2351C37.9918 22.6903 37.7378 22.1088 37.487 21.5308C37.2946 21.0875 36.986 20.7896 36.5419 20.5959C36.0083 20.3632 35.4739 20.128 34.9599 19.8572C34.275 19.4964 33.8475 18.9299 33.8315 18.1547C33.8239 17.7855 33.918 17.4031 34.0289 17.0454C34.1769 16.5682 34.3789 16.1063 34.5713 15.6432C34.7292 15.2633 34.7246 14.8917 34.5792 14.5117C34.3943 14.0285 34.2054 13.5464 34.0399 13.0568C33.5972 11.7471 34.0332 10.7584 35.3104 10.1701C35.7722 9.95732 36.2406 9.75714 36.7121 9.56579C37.1068 9.40577 37.3815 9.14362 37.5533 8.76044C37.7686 8.28056 37.9825 7.79846 38.2339 7.33662C38.3869 7.05556 38.5763 6.7777 38.8073 6.55639C39.4231 5.96614 40.1766 5.88478 40.9674 6.12898C41.5005 6.29356 42.0222 6.49742 42.5386 6.70817C43.0076 6.89942 43.4593 6.9001 43.9285 6.71476C44.3864 6.53389 44.8505 6.36591 45.319 6.21355C46.6097 5.794 47.6081 6.20356 48.2081 7.40296C48.4398 7.86606 48.6448 8.34234 48.8513 8.81708C49.0242 9.21471 49.2971 9.50178 49.7073 9.67538C50.1835 9.87692 50.6537 10.0928 51.1197 10.3162C51.7591 10.6225 52.2541 11.0614 52.4372 11.7683C52.5703 12.2828 52.477 12.7781 52.2953 13.2624C52.1053 13.7693 51.9059 14.2728 51.7073 14.7765C51.5892 15.0763 51.5888 15.3751 51.7 15.6752C51.8827 16.1678 52.0717 16.6583 52.2495 17.1526C52.4837 17.8044 52.5619 18.4566 52.2145 19.0996C51.9382 19.611 51.4811 19.9192 50.9624 20.1525C50.4761 20.3713 49.9859 20.5821 49.496 20.793C49.1794 20.9293 48.9534 21.15 48.8104 21.4577C48.6124 21.8834 48.411 22.3075 48.2089 22.7313C47.898 23.3834 47.5076 23.9641 46.7556 24.1911C46.5453 24.2546 46.3234 24.2809 46.0103 24.3436Z" fill="#37CC3A" style="mix-blend-mode:multiply"/>
<path fill-rule="evenodd" clip-rule="evenodd" d="M36.6018 46.2653C37.1926 46.0874 37.7876 45.9606 38.3412 45.7314C39.9131 45.0804 40.9643 43.8692 41.7081 42.3656C42.0683 41.6372 42.4017 40.8943 42.7183 40.1453C42.8711 39.7835 43.105 39.552 43.459 39.4059C44.0056 39.1805 44.5382 38.9197 45.0889 38.7059C45.2096 38.659 45.434 38.6921 45.5217 38.7795C47.0523 40.3045 48.5788 41.8342 50.085 43.3841C50.8588 44.1803 50.4901 45.3674 49.4094 45.6063C48.059 45.9047 46.7056 46.1914 45.3491 46.4608C45.0891 46.5123 44.9998 46.6177 44.9499 46.8716C44.6857 48.2138 44.3948 49.5504 44.1224 50.891C44.0157 51.4155 43.7608 51.8244 43.2445 51.9848C42.7051 52.1523 42.2352 52.0001 41.8285 51.5856C40.1522 49.8777 38.4649 48.1807 36.7829 46.4786C36.7144 46.4095 36.6564 46.3301 36.6018 46.2653Z" fill="#294CFF"/>
<path fill-rule="evenodd" clip-rule="evenodd" d="M25.2686 47.365C23.574 49.0764 21.8746 50.7827 20.1879 52.5019C19.7722 52.9255 19.3006 53.1095 18.7387 52.9339C18.2021 52.7663 17.9602 52.3404 17.8538 51.7981C17.5931 50.4704 17.3032 49.1485 17.0424 47.8208C16.9932 47.5706 16.9069 47.4597 16.6441 47.4075C15.3006 47.1411 13.9633 46.8426 12.6221 46.5645C12.0967 46.4555 11.717 46.1752 11.5607 45.6533C11.4049 45.133 11.556 44.6778 11.9347 44.2957C13.4664 42.7499 15.0005 41.2064 16.5249 39.6532C16.695 39.48 16.8392 39.4158 17.0431 39.5621C17.0546 39.5703 17.0702 39.5724 17.0833 39.5784C18.8489 40.3753 18.8517 40.3742 19.6128 42.1949C20.0354 43.2058 20.5156 44.182 21.2473 45.0074C22.2851 46.1783 23.571 46.8459 25.1487 47.0438C25.3034 47.0632 25.3783 47.2542 25.2686 47.365Z" fill="#294CFF"/>
<path fill-rule="evenodd" clip-rule="evenodd" d="M37.816 27.0694C37.6499 27.2382 37.5178 27.3726 37.2196 27.676L37.2091 27.6866C36.2346 28.678 35.7963 29.1228 35.2498 29.6733C35.2143 29.7091 35.2098 29.723 35.2163 29.7745C35.335 30.7111 35.4294 31.464 35.6396 33.1446C35.6712 33.3973 35.6712 33.3973 35.7028 33.6501C35.7122 33.7256 35.7194 33.786 35.7352 33.9209C35.7471 34.0218 35.7471 34.0218 35.7591 34.1221C35.797 34.4344 35.6799 34.7045 35.4308 34.8849C35.1661 35.0766 34.8618 35.0957 34.5785 34.9313C34.2599 34.7466 33.9892 34.5889 33.4421 34.2697L33.3948 34.2421C33.1977 34.1272 33.1977 34.1272 33.0006 34.0122C32.7551 33.8692 32.7551 33.8692 32.5094 33.7262L32.4965 33.7186C31.6899 33.2491 31.3233 33.0348 30.8724 32.7682C30.8399 32.749 30.8489 32.749 30.8156 32.7686C30.1528 33.1593 29.6164 33.4739 28.43 34.1685L28.3867 34.1938C27.8241 34.5232 27.5482 34.6848 27.2227 34.8757C26.9117 35.0581 26.6335 35.0978 26.3456 34.9421C26.0566 34.7858 25.8878 34.4646 25.9282 34.1381C25.9514 33.951 25.9514 33.951 25.9746 33.7638C25.9927 33.6178 25.9927 33.6178 26.0108 33.4718C26.22 31.7845 26.3374 30.8438 26.469 29.8067C26.4784 29.7325 26.4688 29.7036 26.4169 29.6513C25.775 29.0054 25.2626 28.4851 24.1165 27.3179L24.1115 27.3128C23.9865 27.1855 23.9865 27.1855 23.8615 27.0582C23.5463 26.7372 23.4834 26.3657 23.6925 26.0019C23.8069 25.8028 23.9799 25.6928 24.2273 25.6208C24.4848 25.5459 24.6906 25.486 25.154 25.351L25.175 25.3449C26.5251 24.9516 27.142 24.7724 27.9013 24.5538C27.9517 24.5393 27.9701 24.5246 27.9958 24.4784C28.265 23.9939 28.482 23.6049 28.9668 22.7372L28.9753 22.722C29.5215 21.7443 29.7694 21.2997 30.0739 20.7507C30.2536 20.4269 30.5064 20.2424 30.8419 20.2417C31.1778 20.2411 31.4328 20.4246 31.6125 20.7474C32.3101 22.0009 33.0086 23.2455 33.7082 24.4813C33.7215 24.5049 33.7634 24.5381 33.7907 24.5462C34.5685 24.777 35.1919 24.9596 36.594 25.3683L36.6013 25.3705C37.031 25.4957 37.2216 25.5513 37.4608 25.6212C37.8732 25.7415 38.1062 26.0249 38.1109 26.4317C38.1229 26.6735 38.0191 26.8629 37.816 27.0694Z" fill="#F2F4FF"/>
</svg>
