<svg width="44" height="44" viewBox="0 0 44 44" fill="none" xmlns="http://www.w3.org/2000/svg">
<circle cx="22" cy="22" r="22" fill="#0F35F5"/>
<path fill-rule="evenodd" clip-rule="evenodd" d="M24.0108 17.8514C24.0108 16.7431 24.9728 16.8496 25.7396 17.4188C26.7272 18.152 29.5995 20.2691 30.2533 20.8278C31.263 21.6907 31.2636 22.0833 30.2533 22.948L25.7396 26.6212C25.0178 27.1674 24.0108 27.1898 24.0108 26.2428C24.0108 22.9616 24.0108 18.8311 24.0108 17.8514Z" fill="white"/>
<path fill-rule="evenodd" clip-rule="evenodd" d="M20.0108 17.8514C20.0108 16.7431 19.0488 16.8496 18.282 17.4188C17.2945 18.152 14.4221 20.2691 13.7683 20.8278C12.7586 21.6907 12.758 22.0833 13.7683 22.948L18.282 26.6212C19.0038 27.1674 20.0108 27.1898 20.0108 26.2428C20.0108 22.9616 20.0108 18.8311 20.0108 17.8514Z" fill="white"/>
</svg>
