<svg width="37" height="36" viewBox="0 0 37 36" fill="none" xmlns="http://www.w3.org/2000/svg">
<ellipse cx="18.0278" cy="18" rx="18.0278" ry="18" fill="#294CFF"/>
<path fill-rule="evenodd" clip-rule="evenodd" d="M20.0108 13.8514C20.0108 12.7431 20.9728 12.8496 21.7396 13.4188C22.7272 14.152 25.5995 16.2691 26.2533 16.8278C27.263 17.6907 27.2636 18.0833 26.2533 18.948L21.7396 22.6212C21.0178 23.1674 20.0108 23.1898 20.0108 22.2428C20.0108 18.9616 20.0108 14.8311 20.0108 13.8514Z" fill="white"/>
<path fill-rule="evenodd" clip-rule="evenodd" d="M16.0108 13.8514C16.0108 12.7431 15.0488 12.8496 14.282 13.4188C13.2945 14.152 10.4221 16.2691 9.76831 16.8278C8.75861 17.6907 8.75799 18.0833 9.76831 18.948L14.282 22.6212C15.0038 23.1674 16.0108 23.1898 16.0108 22.2428C16.0108 18.9616 16.0108 14.8311 16.0108 13.8514Z" fill="white"/>
</svg>
