<svg width="48" height="48" viewBox="0 0 48 48" fill="none" xmlns="http://www.w3.org/2000/svg">
<rect width="48" height="48" rx="24" fill="#EBEDFA"/>
<path d="M22.0969 30.1849C22.2655 29.5265 22.4219 28.943 22.5577 28.3548C22.5775 28.2692 22.5219 28.1419 22.4611 28.0664C22.2344 27.7853 22.1303 27.4616 22.1701 27.0455C22.8017 27.0455 23.4354 27.0455 24.0995 27.0455C24.1032 27.4327 24.0425 27.7794 23.7808 28.0778C23.7193 28.1477 23.6683 28.2763 23.6879 28.3602C23.8259 28.9477 23.9837 29.5306 24.1521 30.1801C25.2815 28.8933 26.4636 27.7201 27.2916 26.2181C28.2682 26.3374 29.2805 26.4357 30.2839 26.5914C31.1452 26.725 31.8496 27.1733 32.4613 27.8563C30.4797 27.7384 28.9222 28.4429 27.9104 30.1112C26.8992 31.7786 27.0176 33.4791 28.0394 35.1864C27.3866 35.2449 26.7687 35.3172 26.1487 35.3529C23.6882 35.4949 21.2284 35.497 18.7746 35.2367C17.0842 35.0574 15.4039 34.818 13.8277 34.1294C13.5375 34.0026 13.2554 33.8445 12.9953 33.6638C12.176 33.0948 11.8324 32.2277 12.0776 31.2622C12.3426 30.2195 12.7594 29.237 13.3793 28.3476C14.1714 27.2108 15.2675 26.6003 16.6334 26.4603C17.4198 26.3797 18.2079 26.3167 18.9774 26.2474C19.7761 27.7191 20.9693 28.8768 22.0969 30.1849Z" fill="#525C75"/>
<path d="M23.1668 12C23.9497 12.0344 24.7141 12.1306 25.4472 12.3968C27.3544 13.089 28.3555 14.5024 28.6225 16.4698C28.6873 16.9466 28.6686 17.4346 28.6901 17.9174C28.6937 17.9978 28.6759 18.1043 28.7193 18.1541C29.2696 18.7855 29.0966 19.5096 28.962 20.2093C28.8612 20.7341 28.6804 21.241 28.2005 21.5771C28.1054 21.6437 28.068 21.8006 28.017 21.9214C27.4604 23.2382 26.7135 24.4226 25.5929 25.3353C23.9285 26.6908 22.1001 26.6778 20.4503 25.302C19.3496 24.3841 18.613 23.2064 18.0549 21.902C17.992 21.755 17.8559 21.6387 17.7507 21.5106C17.6342 21.3683 17.4838 21.2447 17.4008 21.0855C17.0203 20.3542 16.8529 19.575 17.0157 18.758C17.0582 18.5448 17.2332 18.3594 17.3388 18.1568C17.3825 18.0727 17.4184 17.9794 17.4333 17.8863C17.5535 17.1357 17.6044 16.3677 17.796 15.6361C18.3098 13.6735 19.7035 12.6294 21.6093 12.1974C22.1173 12.0823 22.647 12.0632 23.1668 12ZM27.3203 21.2432C27.4629 21.1567 27.6563 21.1035 27.7393 20.9777C28.0993 20.431 28.2145 19.8233 28.0679 19.1791C28.0139 18.9419 27.8871 18.7817 27.5961 18.8949C27.5625 18.7833 27.5441 18.6807 27.5018 18.5891C27.2661 18.0781 27.0335 17.565 26.7783 17.0637C26.7187 16.9466 26.5758 16.8718 26.4712 16.7777C26.4522 16.7954 26.4333 16.8131 26.4143 16.8309C26.4669 16.9911 26.5196 17.1514 26.5931 17.3755C26.3217 17.241 26.1061 17.132 25.8886 17.0271C25.393 16.788 24.862 16.6597 24.3316 16.8083C23.3071 17.0954 22.2963 17.0558 21.283 16.7956C20.0969 16.491 19.1924 16.9304 18.7252 18.0679C18.6168 18.3318 18.5498 18.6126 18.4617 18.8922C18.2306 18.7974 18.0829 18.9031 18.048 19.116C17.9469 19.7349 17.9324 20.3556 18.2971 20.9042C18.399 21.0576 18.5983 21.1463 18.7529 21.2647C18.7723 21.2422 18.7917 21.2196 18.8111 21.1971C18.9289 21.4813 19.0361 21.7705 19.1665 22.0487C19.6902 23.1667 20.3747 24.1597 21.4458 24.8242C22.4968 25.4762 23.5841 25.5005 24.6169 24.8238C25.1162 24.4966 25.5609 24.0601 25.9581 23.6093C26.5758 22.908 26.9632 22.0612 27.3203 21.2432Z" fill="#525C75"/>
<path d="M36 32.5269C35.9953 34.8035 34.1632 36.6237 31.8859 36.6145C29.6261 36.6054 27.8117 34.7794 27.8137 32.5161C27.8157 30.2422 29.648 28.4221 31.9276 28.4292C34.1866 28.4365 36.0047 30.266 36 32.5269ZM33.8116 31.8716C32.5201 31.8716 31.2621 31.8716 30.0094 31.8716C30.0094 32.2619 30.0094 32.6274 30.0094 32.9896C31.2885 32.9896 32.547 32.9896 33.8116 32.9896C33.8116 32.6084 33.8116 32.2503 33.8116 31.8716Z" fill="#525C75"/>
<path fill-rule="evenodd" clip-rule="evenodd" d="M31.3514 34.3317H32.4693V32.9896H33.8112V31.8716H32.4693V30.5295L31.3514 30.5295V31.8716H30.009V32.9896H31.3514V34.3317Z" fill="white"/>
</svg>
