<svg width="13" height="10" viewBox="0 0 13 10" fill="none" xmlns="http://www.w3.org/2000/svg">
<path fill-rule="evenodd" clip-rule="evenodd" d="M11.0953 0.333596C11.3102 0.117345 11.5722 0.00268555 11.864 0.00268555C12.1558 0.00268555 12.4178 0.117345 12.6318 0.332734C12.8327 0.534941 12.9352 0.793041 12.9352 1.08604C12.9352 1.37905 12.8327 1.63715 12.6326 1.83854L5.97284 8.58407L5.898 8.65867C5.69641 8.88412 5.43136 9.00269 5.12805 9.00269C4.82474 9.00269 4.55969 8.88412 4.36283 8.66387L1.23872 5.30237C1.03782 5.10016 0.935242 4.84206 0.935242 4.54906C0.935242 4.25605 1.03782 3.99795 1.23872 3.79575C1.45272 3.58036 1.71473 3.4657 2.00651 3.4657C2.29828 3.4657 2.5603 3.58036 2.78528 3.8073L5.12786 6.38052L11.0953 0.333596Z" fill="#1C1E26"/>
</svg>
