<svg xmlns="http://www.w3.org/2000/svg" width="40" height="40" viewBox="0 0 40 40" fill="none">
<path fill-rule="evenodd" clip-rule="evenodd" d="M31.9577 18.1347C31.653 18.4388 31.4107 18.6809 30.8638 19.2275L30.8447 19.2467C29.0575 21.0328 28.2537 21.8342 27.2515 22.826C27.1864 22.8905 27.1781 22.9156 27.19 23.0083C27.4077 24.6957 27.5809 26.0523 27.9663 29.0801C28.0242 29.5355 28.0242 29.5355 28.0822 29.9908C28.0994 30.1268 28.1127 30.2357 28.1417 30.4788C28.1634 30.6605 28.1634 30.6605 28.1855 30.8412C28.255 31.4039 28.0402 31.8905 27.5834 32.2155C27.0979 32.5609 26.54 32.5953 26.0203 32.2992C25.4362 31.9664 24.9397 31.6823 23.9364 31.1072L23.8496 31.0575C23.4882 30.8503 23.4882 30.8503 23.1267 30.6433C22.6764 30.3855 22.6764 30.3855 22.2259 30.1279L22.2022 30.1143C20.723 29.2684 20.0507 28.8823 19.2239 28.402C19.1643 28.3674 19.1807 28.3674 19.1196 28.4027C17.9041 29.1066 16.9204 29.6733 14.7447 30.9248L14.6652 30.9705C13.6337 31.5638 13.1277 31.855 12.5306 32.199C11.9602 32.5276 11.4502 32.5992 10.9221 32.3186C10.3922 32.037 10.0826 31.4583 10.1568 30.8701C10.1993 30.5329 10.1993 30.5329 10.2419 30.1957C10.2751 29.9326 10.2751 29.9326 10.3082 29.6695C10.6918 26.6296 10.9071 24.9348 11.1484 23.0663C11.1657 22.9326 11.1481 22.8805 11.0529 22.7863C9.87578 21.6227 8.93604 20.6852 6.83424 18.5823L6.82507 18.5731C6.59584 18.3438 6.59584 18.3438 6.3666 18.1144C5.78848 17.536 5.6733 16.8668 6.05664 16.2114C6.26654 15.8526 6.58372 15.6545 7.03742 15.5247C7.50972 15.3897 7.88714 15.2818 8.73689 15.0386L8.77547 15.0276C11.2513 14.3191 12.3827 13.9963 13.7752 13.6023C13.8676 13.5762 13.9014 13.5497 13.9485 13.4665C14.4421 12.5937 14.8402 11.8927 15.7291 10.3295L15.7447 10.302C16.7464 8.54057 17.2011 7.73946 17.7595 6.75041C18.0889 6.167 18.5526 5.83465 19.1679 5.83338C19.7839 5.83224 20.2515 6.16298 20.581 6.74455C21.8604 9.00281 23.1415 11.2452 24.4243 13.4718C24.4488 13.5143 24.5256 13.5741 24.5756 13.5886C26.0021 14.0046 27.1453 14.3334 29.7166 15.0699L29.73 15.0737C30.5181 15.2994 30.8675 15.3995 31.3062 15.5254C32.0625 15.7422 32.4898 16.2527 32.4984 16.9856C32.5205 17.4214 32.3302 17.7626 31.9577 18.1347ZM24.8259 27.5988C24.7924 27.3273 24.7924 27.3273 24.7587 27.0569L24.7246 26.7831C24.4686 24.7322 24.3539 23.8172 24.209 22.6766C24.1367 22.108 24.322 21.6247 24.745 21.2061C25.363 20.5944 25.8573 20.1004 26.9605 18.9945L26.9681 18.9868C27.5912 18.3622 27.9294 18.0235 28.2667 17.6869C28.0067 17.6126 27.7253 17.5321 27.2465 17.3951L27.2371 17.3924C25.2615 16.8271 24.3826 16.5775 23.2831 16.2723C22.7558 16.126 22.3758 15.824 22.1047 15.3434C21.4504 14.1836 20.9208 13.254 19.7342 11.1781L19.7174 11.1486C19.464 10.7054 19.3109 10.4374 19.1721 10.1945C19.0275 10.4479 18.8687 10.7258 18.6034 11.19L18.5794 11.2319C17.4157 13.2681 16.8844 14.2008 16.2366 15.3487C15.9661 15.8279 15.5837 16.1281 15.0544 16.274C14.0869 16.5408 13.3137 16.7603 11.5756 17.2583C10.9981 17.4237 10.7454 17.4961 10.4283 17.5866L10.4186 17.5893C10.3566 17.607 10.2279 17.6445 10.0815 17.6874C10.4156 18.0201 10.7508 18.3545 11.3691 18.9717L11.3758 18.9784C12.4899 20.0906 12.9884 20.5873 13.6108 21.2041C14.0253 21.615 14.2094 22.0911 14.1373 22.6499C14.0334 23.456 13.9523 24.1034 13.7722 25.5529C13.7558 25.6849 13.7558 25.6849 13.7393 25.817C13.6956 26.1692 13.6956 26.1692 13.6517 26.5214C13.6314 26.6841 13.6314 26.6841 13.6112 26.8468C13.5779 27.1144 13.4964 27.7718 13.4307 28.3012C13.6785 28.1593 13.9588 27.9989 14.4054 27.7434L14.4306 27.7289C16.3349 26.6394 17.1967 26.1445 18.2583 25.5277C18.8709 25.1718 19.4734 25.1724 20.0863 25.5286C21.1535 26.1485 22.0132 26.6423 23.9375 27.7433L23.9457 27.748C24.3878 28.001 24.6663 28.1604 24.912 28.3011C24.8772 28.0167 24.8422 27.731 24.8259 27.5988Z" fill="#B1C2C9"/>
<path d="M24.8259 27.5988C24.7924 27.3274 24.7924 27.3274 24.7587 27.057L24.7246 26.7831C24.4686 24.7323 24.3539 23.8172 24.209 22.6766C24.1367 22.1081 24.322 21.6247 24.745 21.2061C25.363 20.5945 25.8573 20.1005 26.9605 18.9945L26.9681 18.9869C27.5912 18.3622 27.9294 18.0235 28.2667 17.6869C28.0067 17.6127 27.7253 17.5322 27.2465 17.3952L27.2371 17.3925C25.2615 16.8271 24.3826 16.5775 23.2831 16.2724C22.7558 16.1261 22.3758 15.824 22.1047 15.3434C21.4504 14.1837 20.9208 13.254 19.7342 11.1781L19.7174 11.1487C19.464 10.7055 19.3109 10.4374 19.1721 10.1946C19.0275 10.4479 18.8687 10.7258 18.6034 11.19L18.5794 11.2319C17.4157 13.2681 16.8844 14.2008 16.2366 15.3488C15.9661 15.828 15.5837 16.1282 15.0544 16.274C14.0869 16.5409 13.3137 16.7603 11.5756 17.2583C10.9981 17.4238 10.7454 17.4961 10.4283 17.5866L10.4186 17.5894C10.3566 17.6071 10.2279 17.6446 10.0815 17.6874C10.4156 18.0201 10.7508 18.3545 11.3691 18.9718L11.3758 18.9784C12.4899 20.0906 12.9884 20.5873 13.6108 21.2042C14.0253 21.6151 14.2094 22.0911 14.1373 22.65C14.0334 23.456 13.9523 24.1034 13.7722 25.5529C13.7558 25.685 13.7558 25.685 13.7393 25.817C13.6956 26.1693 13.6956 26.1693 13.6517 26.5215C13.6314 26.6841 13.6314 26.6841 13.6112 26.8468C13.5779 27.1144 13.4964 27.7718 13.4307 28.3012C13.6785 28.1593 13.9588 27.9989 14.4054 27.7434L14.4306 27.729C16.3349 26.6395 17.1967 26.1445 18.2583 25.5277C18.8709 25.1718 19.4734 25.1725 20.0863 25.5286C21.1535 26.1486 22.0132 26.6424 23.9375 27.7434L23.9457 27.7481C24.3878 28.001 24.6663 28.1604 24.912 28.3011C24.8772 28.0168 24.8422 27.7311 24.8259 27.5988Z" fill="transparent"/>
</svg>