<svg width="24" height="24" viewBox="0 0 24 24" fill="none" xmlns="http://www.w3.org/2000/svg">
<path fill-rule="evenodd" clip-rule="evenodd" d="M19.1745 10.8808C18.9917 11.0633 18.8463 11.2085 18.5182 11.5365L18.5067 11.548C17.4344 12.6196 16.9521 13.1005 16.3508 13.6956C16.3117 13.7343 16.3068 13.7493 16.3139 13.8049C16.4445 14.8174 16.5485 15.6313 16.7797 17.448C16.8144 17.7213 16.8144 17.7213 16.8492 17.9945C16.8596 18.0761 16.8675 18.1414 16.8849 18.2873C16.898 18.3963 16.898 18.3963 16.9112 18.5047C16.9529 18.8423 16.824 19.1343 16.55 19.3293C16.2587 19.5365 15.9239 19.5572 15.6121 19.3795C15.2616 19.1798 14.9637 19.0094 14.3617 18.6643L14.3097 18.6345C14.0928 18.5102 14.0928 18.5102 13.8759 18.3859C13.6058 18.2313 13.6058 18.2313 13.3355 18.0767L13.3212 18.0686C12.4337 17.561 12.0303 17.3294 11.5342 17.0412C11.4985 17.0204 11.5083 17.0204 11.4717 17.0416C10.7424 17.4639 10.1522 17.804 8.84672 18.5548L8.79904 18.5823C8.18009 18.9383 7.87649 19.113 7.51828 19.3194C7.17605 19.5165 6.87 19.5595 6.55317 19.3911C6.23522 19.2222 6.04944 18.8749 6.09398 18.522C6.1195 18.3197 6.1195 18.3197 6.14502 18.1174C6.16494 17.9595 6.16494 17.9595 6.18485 17.8017C6.41498 15.9777 6.54415 14.9608 6.68895 13.8398C6.69931 13.7595 6.68876 13.7283 6.63162 13.6718C5.92537 12.9736 5.36153 12.4111 4.10044 11.1493L4.09494 11.1438C3.95741 11.0062 3.95741 11.0062 3.81986 10.8686C3.47299 10.5216 3.40388 10.1201 3.63389 9.72679C3.75983 9.51151 3.95013 9.39266 4.22235 9.3148C4.50574 9.23382 4.73219 9.16904 5.24204 9.02314L5.26519 9.01651C6.75067 8.59143 7.42954 8.39773 8.26504 8.16139C8.32049 8.14572 8.34075 8.12982 8.36901 8.07985C8.66516 7.55617 8.90401 7.13558 9.43735 6.19766L9.44673 6.18118C10.0477 5.12432 10.3206 4.64365 10.6556 4.05022C10.8533 3.70017 11.1315 3.50076 11.5006 3.5C11.8702 3.49932 12.1508 3.69776 12.3485 4.04671C13.1162 5.40166 13.8848 6.74707 14.6545 8.08305C14.6692 8.10854 14.7153 8.14442 14.7453 8.15315C15.6012 8.40271 16.2871 8.60004 17.8299 9.04189L17.8379 9.04418C18.3108 9.17962 18.5204 9.23969 18.7837 9.3152C19.2374 9.44532 19.4938 9.75162 19.499 10.1914C19.5122 10.4528 19.398 10.6576 19.1745 10.8808ZM14.8954 16.5592C14.8754 16.3964 14.8754 16.3964 14.8552 16.2341L14.8346 16.0698C14.6811 14.8393 14.6123 14.2903 14.5253 13.6059C14.4819 13.2648 14.5931 12.9748 14.8469 12.7236C15.2177 12.3566 15.5143 12.0602 16.1762 11.3967L16.1808 11.3921C16.5546 11.0173 16.7575 10.8141 16.9599 10.6121C16.8039 10.5675 16.6351 10.5193 16.3478 10.4371L16.3421 10.4354C15.1568 10.0962 14.6295 9.94646 13.9698 9.76338C13.6534 9.67559 13.4254 9.49437 13.2627 9.20601C12.8702 8.51016 12.5524 7.95238 11.8404 6.70682L11.8303 6.68916C11.6783 6.42324 11.5864 6.26242 11.5032 6.1167C11.4164 6.26871 11.3211 6.43543 11.1619 6.71396L11.1476 6.73911C10.4493 7.96084 10.1306 8.52043 9.74186 9.20921C9.57955 9.49674 9.35014 9.67684 9.03256 9.76437C8.45204 9.92448 7.9881 10.0562 6.94528 10.3549C6.59877 10.4542 6.44717 10.4976 6.25687 10.5519L6.25105 10.5536C6.21387 10.5642 6.13663 10.5867 6.04883 10.6124C6.24928 10.812 6.4504 11.0127 6.82138 11.383L6.82538 11.387C7.49384 12.0543 7.79292 12.3524 8.16638 12.7225C8.41508 12.969 8.52554 13.2546 8.48231 13.5899C8.41997 14.0736 8.37126 14.462 8.2632 15.3317C8.25336 15.4109 8.25336 15.4109 8.24351 15.4902C8.21724 15.7015 8.21724 15.7015 8.1909 15.9128C8.17874 16.0104 8.17874 16.0104 8.16659 16.108C8.14663 16.2686 8.09771 16.6631 8.05833 16.9807C8.20702 16.8955 8.3752 16.7993 8.64316 16.646L8.65828 16.6373C9.80086 15.9836 10.3179 15.6866 10.9549 15.3166C11.3225 15.1031 11.6839 15.1034 12.0517 15.3171C12.692 15.6891 13.2078 15.9854 14.3624 16.646L14.3673 16.6488C14.6326 16.8006 14.7997 16.8962 14.9471 16.9806C14.9262 16.81 14.9052 16.6386 14.8954 16.5592Z" fill="#252833"/>
<path d="M14.8954 16.5592C14.8754 16.3964 14.8754 16.3964 14.8552 16.2341L14.8346 16.0698C14.6811 14.8393 14.6123 14.2903 14.5253 13.6059C14.4819 13.2648 14.5931 12.9748 14.8469 12.7236C15.2177 12.3566 15.5143 12.0602 16.1762 11.3967L16.1808 11.3921C16.5546 11.0173 16.7575 10.8141 16.9599 10.6121C16.8039 10.5675 16.6351 10.5193 16.3478 10.4371L16.3421 10.4354C15.1568 10.0962 14.6295 9.94646 13.9698 9.76338C13.6534 9.67559 13.4254 9.49437 13.2627 9.20601C12.8702 8.51016 12.5524 7.95238 11.8404 6.70682L11.8303 6.68916C11.6783 6.42324 11.5864 6.26242 11.5032 6.1167C11.4164 6.26871 11.3211 6.43543 11.1619 6.71396L11.1476 6.73911C10.4493 7.96084 10.1306 8.52043 9.74186 9.20921C9.57955 9.49674 9.35014 9.67684 9.03256 9.76437C8.45204 9.92448 7.9881 10.0562 6.94528 10.3549C6.59877 10.4542 6.44717 10.4976 6.25687 10.5519L6.25105 10.5536C6.21387 10.5642 6.13663 10.5867 6.04883 10.6124C6.24928 10.812 6.4504 11.0127 6.82138 11.383L6.82538 11.387C7.49384 12.0543 7.79292 12.3524 8.16638 12.7225C8.41508 12.969 8.52554 13.2546 8.48231 13.5899C8.41997 14.0736 8.37126 14.462 8.2632 15.3317C8.25336 15.4109 8.25336 15.4109 8.24351 15.4902C8.21724 15.7015 8.21724 15.7015 8.1909 15.9128C8.17874 16.0104 8.17874 16.0104 8.16659 16.108C8.14663 16.2686 8.09771 16.6631 8.05833 16.9807C8.20702 16.8955 8.3752 16.7993 8.64316 16.646L8.65828 16.6373C9.80086 15.9836 10.3179 15.6866 10.9549 15.3166C11.3225 15.1031 11.6839 15.1034 12.0517 15.3171C12.692 15.6891 13.2078 15.9854 14.3624 16.646L14.3673 16.6488C14.6326 16.8006 14.7997 16.8962 14.9471 16.9806C14.9262 16.81 14.9052 16.6386 14.8954 16.5592Z" fill="#F0F3F5"/>
</svg>
