<svg width="48" height="49" viewBox="0 0 48 49" fill="none" xmlns="http://www.w3.org/2000/svg">
<rect y="0.5" width="48" height="48" rx="24" fill="#EBEDFA"/>
<path fill-rule="evenodd" clip-rule="evenodd" d="M25.68 15.0006C25.1284 15.0006 24.5767 15.0006 24.0251 15.0006L15.7456 15.0007C15.724 15.0007 15.7024 15.0005 15.6808 15.0004C15.6168 15 15.5529 14.9996 15.4891 15.0027C14.5941 15.0469 14.073 15.5137 14.034 16.4041C13.9944 17.3047 13.9785 18.2099 14.0473 19.1105C14.1063 19.882 14.6699 20.3778 15.4477 20.383C15.7418 20.3849 16.0358 20.3845 16.3299 20.3841C16.4867 20.3838 16.6436 20.3836 16.8004 20.3837C17.1277 20.3841 17.128 20.3844 17.128 20.721L17.1281 34.1942C17.1281 34.2183 17.128 34.2423 17.1279 34.2664C17.1276 34.328 17.1273 34.3896 17.129 34.4511C17.1378 34.7735 17.2789 34.9417 17.6034 34.9746C17.9592 35.0106 18.3176 34.9974 18.6747 34.9797C18.855 34.9707 18.9985 34.8841 19.1232 34.7576C19.2832 34.5953 19.4446 34.4345 19.6061 34.2737C19.6706 34.2094 19.7351 34.1451 19.7995 34.0807C20.0292 33.8513 20.0293 33.8513 20.2666 34.0887C20.3381 34.1602 20.4093 34.2319 20.4804 34.3036C20.6394 34.4638 20.7983 34.624 20.9602 34.7812C21.221 35.0343 21.4747 35.0334 21.7362 34.7782C22.009 34.512 22.2807 34.2444 22.5438 33.9687C22.6438 33.864 22.7077 33.8666 22.8061 33.9695C23.0694 34.245 23.3401 34.5135 23.6128 34.7798C23.873 35.0339 24.1286 35.034 24.389 34.7801C24.662 34.5141 24.9328 34.2456 25.1964 33.9704C25.2938 33.8687 25.3577 33.8617 25.4586 33.9678C25.684 34.205 25.917 34.435 26.1499 34.665C26.1827 34.6974 26.2155 34.7297 26.2483 34.7621C26.5297 35.0404 26.7749 35.0424 27.0568 34.7664C27.0722 34.7513 27.0876 34.7362 27.103 34.7211C27.3433 34.4859 27.5838 34.2505 27.8142 34.0058C27.936 33.8766 28.0212 33.8879 28.1374 34.0107C28.3255 34.2093 28.5202 34.4016 28.7149 34.5938C28.7693 34.6476 28.8238 34.7013 28.878 34.7551C28.9723 34.8487 29.0715 34.9419 29.2102 34.9589C29.6358 35.011 30.0634 35.0165 30.4879 34.9585C30.714 34.9277 30.8523 34.7537 30.8709 34.5223C30.8765 34.4532 30.8757 34.3836 30.875 34.314C30.8747 34.2901 30.8745 34.2662 30.8745 34.2422C30.8745 33.0847 30.8745 31.9271 30.8745 30.7696C30.8744 27.4594 30.8743 24.1492 30.8753 20.8391C30.8754 20.5856 30.8597 20.4726 30.9085 20.4226C30.9567 20.3734 31.0674 20.3853 31.3178 20.3842C31.4881 20.3834 31.6583 20.3839 31.8286 20.3845C32.086 20.3853 32.3433 20.386 32.6006 20.3823C33.3319 20.3719 33.8993 19.8603 33.9543 19.1349C34.0231 18.2261 34.0021 17.314 33.9699 16.405C33.944 15.6756 33.5661 15.2203 32.9524 15.0623C32.7411 15.0079 32.5229 14.9999 32.3046 15C30.0965 15.0007 27.8882 15.0006 25.68 15.0006ZM18.0778 27.8787C18.0778 27.2913 18.0778 26.7038 18.0778 26.1164V26.1163C18.0777 23.5871 18.0776 21.0579 18.0778 18.5287C18.0778 18.181 18.0787 18.1802 18.4283 18.1802C22.1439 18.18 25.8594 18.18 29.5749 18.1802C29.9241 18.1802 29.925 18.181 29.925 18.5291L29.925 19.2928C29.9252 24.0968 29.9254 28.9007 29.9224 33.7048C29.9224 33.7293 29.9255 33.7563 29.9287 33.7839C29.9402 33.8833 29.9528 33.9912 29.823 34.0268C29.675 34.0672 29.5207 34.0579 29.3931 33.9253C29.0923 33.6128 28.7838 33.3077 28.4753 33.0027L28.4384 32.9662C28.0899 32.6215 27.8706 32.6218 27.5289 32.9623C27.4686 33.0223 27.4082 33.0821 27.3477 33.1419C27.1648 33.3227 26.9819 33.5036 26.8056 33.6908C26.6915 33.8119 26.6111 33.8027 26.5012 33.6872C26.2971 33.4728 26.0864 33.2647 25.8758 33.0566C25.8374 33.0187 25.799 32.9808 25.7607 32.9429C25.4459 32.6312 25.2123 32.629 24.9018 32.9359L24.8614 32.9759C24.6204 33.2141 24.3794 33.4523 24.1453 33.6972C24.04 33.8072 23.9631 33.8061 23.858 33.6966C23.6051 33.4329 23.3451 33.1755 23.0839 32.9199C22.7916 32.6338 22.5526 32.6363 22.2583 32.9263L22.2124 32.9716C21.9729 33.2077 21.7333 33.4438 21.5016 33.6874C21.3911 33.8035 21.3115 33.8108 21.1976 33.6901C20.9994 33.4802 20.7938 33.2774 20.5882 33.0747C20.5445 33.0317 20.5009 32.9886 20.4573 32.9456C20.135 32.6268 19.9083 32.6269 19.5807 32.9499C19.3958 33.1323 19.2125 33.3163 19.0292 33.5005C18.9052 33.625 18.7812 33.7496 18.6566 33.8737C18.6486 33.8817 18.6405 33.8899 18.6325 33.8981C18.591 33.9403 18.5487 33.9834 18.4984 34.0098C18.2577 34.1359 18.0783 34.024 18.0782 33.7509C18.0777 31.7935 18.0777 29.8361 18.0778 27.8787ZM15.6557 15.9511L24.0033 15.951H32.3974C32.9094 15.9511 33.0348 16.0747 33.0349 16.5791C33.035 16.7172 33.0351 16.8554 33.0352 16.9936C33.0356 17.6258 33.036 18.2581 33.0344 18.8902C33.0334 19.2856 32.8938 19.4266 32.5041 19.4284C32.3235 19.4292 32.1429 19.4288 31.9623 19.4283C31.6765 19.4276 31.3908 19.4269 31.1051 19.4313C30.937 19.4339 30.8652 19.3793 30.872 19.2032C30.8826 18.9312 30.8799 18.6584 30.8732 18.3862C30.8694 18.2347 30.9324 18.1768 31.0803 18.1782C31.188 18.1792 31.2991 18.1712 31.4031 18.1449C31.6277 18.0881 31.7729 17.8784 31.7558 17.658C31.7385 17.4343 31.5657 17.2586 31.3313 17.233C31.272 17.2265 31.2119 17.2271 31.1518 17.2278C31.134 17.228 31.1162 17.2281 31.0984 17.2281C26.365 17.228 21.6316 17.2279 16.8982 17.2281C16.4702 17.2281 16.2493 17.3842 16.2456 17.6874C16.242 17.9932 16.4618 18.1737 16.8801 18.1758C17.0758 18.1768 17.1405 18.2468 17.1312 18.4371C17.1188 18.6933 17.1222 18.9508 17.1302 19.2073C17.1351 19.3646 17.0821 19.4331 16.9171 19.431C16.6677 19.4277 16.4183 19.4281 16.1689 19.4284C15.9131 19.4288 15.6573 19.4292 15.4016 19.4257C15.1392 19.422 14.9751 19.2676 14.9727 19.0032C14.9649 18.1317 14.9651 17.2601 14.9723 16.3886C14.9745 16.1303 15.1429 15.9735 15.3994 15.954C15.462 15.9492 15.5251 15.9499 15.5881 15.9506C15.6107 15.9508 15.6332 15.9511 15.6557 15.9511ZM24.1077 23.5997C24.1999 23.6005 24.292 23.6013 24.3842 23.6013V23.5953C24.4769 23.5953 24.5696 23.5965 24.6623 23.5976C24.8693 23.6002 25.0762 23.6027 25.2826 23.5925C25.7327 23.5703 26.0343 23.2832 26.0328 22.9023C26.0314 22.5201 25.723 22.2533 25.2656 22.2384C24.7948 22.2231 24.7948 22.2231 24.7802 21.7723C24.7645 21.2896 24.5028 20.9825 24.1041 20.9792C23.7067 20.9759 23.4088 21.2869 23.4288 21.7629C23.4433 22.1072 23.331 22.2367 22.9936 22.3133C22.0488 22.528 21.4767 23.3807 21.5513 24.3872C21.6142 25.2363 22.3604 25.9735 23.2508 26.0869C23.5345 26.123 23.8185 26.1215 24.1023 26.12C24.3171 26.1188 24.5318 26.1176 24.7461 26.1328C25.1561 26.1618 25.3902 26.4929 25.2709 26.8791C25.1749 27.19 24.9245 27.2949 24.6235 27.2972C24.3789 27.299 24.1343 27.2987 23.8898 27.2983C23.5463 27.2979 23.2029 27.2974 22.8596 27.3029C22.4679 27.3092 22.1902 27.5713 22.1683 27.9289C22.1475 28.2666 22.393 28.5435 22.7611 28.6193C22.8313 28.6338 22.9065 28.6331 22.9811 28.6325C23.1135 28.6313 23.2439 28.6302 23.3415 28.7136C23.4483 28.8049 23.4385 28.9372 23.4285 29.0714C23.423 29.1446 23.4175 29.2184 23.4309 29.2864C23.5023 29.6507 23.7409 29.873 24.0851 29.879C24.4458 29.8853 24.7062 29.6619 24.7648 29.2814C24.785 29.1507 24.7841 29.0154 24.7801 28.8826C24.7749 28.7078 24.8429 28.6377 25.0241 28.6028C26.0978 28.3959 26.7476 27.5321 26.6464 26.471C26.553 25.4913 25.7075 24.7741 24.6385 24.7685C24.5115 24.7679 24.3844 24.7687 24.2574 24.7696C23.996 24.7713 23.7347 24.773 23.4739 24.7617C23.1202 24.7464 22.8954 24.49 22.9064 24.1531C22.9173 23.8166 23.1198 23.6165 23.4857 23.6035C23.6928 23.5961 23.9003 23.5979 24.1077 23.5997Z" fill="#525C75"/>
<path d="M24.0251 15.0006V14.6506H24.0251L24.0251 15.0006ZM25.68 15.0006L25.68 15.3506L25.68 15.0006ZM15.7456 15.0007V15.3507H15.7456L15.7456 15.0007ZM15.6808 15.0004L15.683 14.6504H15.683L15.6808 15.0004ZM15.4891 15.0027L15.4719 14.6531L15.4718 14.6531L15.4891 15.0027ZM14.034 16.4041L14.3836 16.4195L14.3836 16.4195L14.034 16.4041ZM14.0473 19.1105L13.6983 19.1371L13.6983 19.1372L14.0473 19.1105ZM15.4477 20.383L15.45 20.033H15.45L15.4477 20.383ZM16.3299 20.3841L16.3304 20.7341H16.3304L16.3299 20.3841ZM16.8004 20.3837L16.8008 20.0337H16.8007L16.8004 20.3837ZM17.128 20.721H16.778V20.721L17.128 20.721ZM17.1281 34.1942H17.4781V34.1942L17.1281 34.1942ZM17.1279 34.2664L17.4779 34.2681V34.2681L17.1279 34.2664ZM17.129 34.4511L16.7791 34.4606L16.7791 34.4607L17.129 34.4511ZM17.6034 34.9746L17.6387 34.6263H17.6387L17.6034 34.9746ZM18.6747 34.9797L18.6921 35.3293L18.6921 35.3293L18.6747 34.9797ZM19.1232 34.7576L18.874 34.5118L18.8739 34.5119L19.1232 34.7576ZM19.6061 34.2737L19.359 34.0257H19.359L19.6061 34.2737ZM19.7995 34.0807L19.5522 33.8331L19.5521 33.8331L19.7995 34.0807ZM20.2666 34.0887L20.5142 33.8412L20.5141 33.8412L20.2666 34.0887ZM20.4804 34.3036L20.7289 34.0571L20.7289 34.0571L20.4804 34.3036ZM20.9602 34.7812L20.7164 35.0323L20.7164 35.0323L20.9602 34.7812ZM21.7362 34.7782L21.9807 35.0287L21.9807 35.0287L21.7362 34.7782ZM22.5438 33.9687L22.2907 33.727L22.2906 33.7271L22.5438 33.9687ZM22.8061 33.9695L23.0591 33.7277L23.059 33.7276L22.8061 33.9695ZM23.6128 34.7798L23.3683 35.0302L23.3683 35.0302L23.6128 34.7798ZM24.389 34.7801L24.1448 34.5294L24.1448 34.5294L24.389 34.7801ZM25.1964 33.9704L25.4492 34.2126L25.4492 34.2125L25.1964 33.9704ZM25.4586 33.9678L25.7123 33.7267L25.7123 33.7267L25.4586 33.9678ZM26.1499 34.665L26.3958 34.4159L26.3958 34.4159L26.1499 34.665ZM26.2483 34.7621L26.4943 34.5132L26.4943 34.5132L26.2483 34.7621ZM27.0568 34.7664L27.3017 35.0164L27.0568 34.7664ZM27.103 34.7211L26.8582 34.471L26.8582 34.471L27.103 34.7211ZM27.8142 34.0058L27.5595 33.7658L27.5595 33.7658L27.8142 34.0058ZM28.1374 34.0107L27.8832 34.2513L27.8833 34.2513L28.1374 34.0107ZM28.7149 34.5938L28.469 34.8429L28.469 34.8429L28.7149 34.5938ZM28.878 34.7551L28.6315 35.0036L28.6315 35.0036L28.878 34.7551ZM29.2102 34.9589L29.1676 35.3063L29.1676 35.3063L29.2102 34.9589ZM30.4879 34.9585L30.4407 34.6117L30.4406 34.6117L30.4879 34.9585ZM30.8709 34.5223L31.2198 34.5504L31.2198 34.5503L30.8709 34.5223ZM30.875 34.314L31.225 34.3103V34.3103L30.875 34.314ZM30.8745 34.2422L30.5245 34.2422V34.2422H30.8745ZM30.8745 30.7696L31.2245 30.7696L30.8745 30.7696ZM30.8753 20.8391L30.5253 20.839V20.839L30.8753 20.8391ZM30.9085 20.4226L30.6581 20.1781L30.6581 20.1781L30.9085 20.4226ZM31.3178 20.3842L31.3194 20.7342L31.3194 20.7342L31.3178 20.3842ZM31.8286 20.3845L31.8297 20.0345L31.8286 20.3845ZM32.6006 20.3823L32.5955 20.0324L32.5955 20.0324L32.6006 20.3823ZM33.9543 19.1349L33.6053 19.1084L33.6053 19.1084L33.9543 19.1349ZM33.9699 16.405L34.3197 16.3927V16.3926L33.9699 16.405ZM32.9524 15.0623L33.0397 14.7234L33.0396 14.7233L32.9524 15.0623ZM32.3046 15L32.3047 15.35L32.3048 15.35L32.3046 15ZM18.0778 27.8787L18.4278 27.8787L18.0778 27.8787ZM18.0778 26.1163H18.4278V26.1163L18.0778 26.1163ZM18.0778 18.5287L18.4278 18.5287V18.5287H18.0778ZM18.4283 18.1802V18.5302H18.4283L18.4283 18.1802ZM29.5749 18.1802L29.5749 18.5302H29.5749V18.1802ZM29.925 18.5291H29.575V18.5291L29.925 18.5291ZM29.925 19.2928L29.575 19.2928V19.2928L29.925 19.2928ZM29.9224 33.7048L30.2724 33.7051V33.705L29.9224 33.7048ZM29.9287 33.7839L30.2764 33.7435V33.7435L29.9287 33.7839ZM29.823 34.0268L29.9153 34.3644L29.9155 34.3643L29.823 34.0268ZM29.3931 33.9253L29.6453 33.6826L29.6453 33.6826L29.3931 33.9253ZM28.4753 33.0027L28.7214 32.7538L28.7214 32.7538L28.4753 33.0027ZM28.4384 32.9662L28.1923 33.215L28.1923 33.2151L28.4384 32.9662ZM27.5289 32.9623L27.2818 32.7143L27.2818 32.7144L27.5289 32.9623ZM27.3477 33.1419L27.5938 33.3907L27.3477 33.1419ZM26.8056 33.6908L26.5508 33.4508L26.5508 33.4508L26.8056 33.6908ZM26.5012 33.6872L26.7547 33.4459L26.7547 33.4459L26.5012 33.6872ZM25.8758 33.0566L25.6298 33.3056L25.6298 33.3056L25.8758 33.0566ZM25.7607 32.9429L25.5145 33.1916L25.5145 33.1916L25.7607 32.9429ZM24.9018 32.9359L24.6557 32.687L24.6557 32.687L24.9018 32.9359ZM24.8614 32.9759L25.1075 33.2248L25.1075 33.2248L24.8614 32.9759ZM24.1453 33.6972L24.3982 33.9391L24.3982 33.9391L24.1453 33.6972ZM23.858 33.6966L23.6054 33.9389L23.6055 33.939L23.858 33.6966ZM23.0839 32.9199L22.8391 33.17L22.8391 33.17L23.0839 32.9199ZM22.2583 32.9263L22.504 33.1756L22.504 33.1756L22.2583 32.9263ZM22.2124 32.9716L22.4581 33.2209L22.4581 33.2209L22.2124 32.9716ZM21.5016 33.6874L21.7552 33.9287L21.7552 33.9286L21.5016 33.6874ZM21.1976 33.6901L20.943 33.9303L20.943 33.9304L21.1976 33.6901ZM20.5882 33.0747L20.8339 32.8255H20.8339L20.5882 33.0747ZM20.4573 32.9456L20.7035 32.6967L20.7035 32.6967L20.4573 32.9456ZM19.5807 32.9499L19.335 32.7006L19.335 32.7006L19.5807 32.9499ZM19.0292 33.5005L18.7812 33.2535H18.7812L19.0292 33.5005ZM18.6566 33.8737L18.9036 34.1217L18.9036 34.1216L18.6566 33.8737ZM18.6325 33.8981L18.8822 34.1433L18.8822 34.1433L18.6325 33.8981ZM18.4984 34.0098L18.6608 34.3198L18.6608 34.3198L18.4984 34.0098ZM18.0782 33.7509L17.7282 33.751V33.751L18.0782 33.7509ZM24.0033 15.951V15.601L24.0033 15.601L24.0033 15.951ZM15.6557 15.9511V16.3011H15.6557L15.6557 15.9511ZM32.3974 15.951L32.3975 15.601H32.3974V15.951ZM33.0349 16.5791L32.6849 16.5792V16.5792L33.0349 16.5791ZM33.0352 16.9936L32.6852 16.9938V16.9938L33.0352 16.9936ZM33.0344 18.8902L33.3844 18.8911V18.8911L33.0344 18.8902ZM32.5041 19.4284L32.5025 19.0784L32.5025 19.0784L32.5041 19.4284ZM31.9623 19.4283L31.9632 19.0783L31.9623 19.4283ZM31.1051 19.4313L31.0998 19.0813L31.0997 19.0813L31.1051 19.4313ZM30.872 19.2032L30.5223 19.1896L30.5223 19.1896L30.872 19.2032ZM30.8732 18.3862L30.5233 18.3948V18.3948L30.8732 18.3862ZM31.0803 18.1782L31.0836 17.8282H31.0836L31.0803 18.1782ZM31.4031 18.1449L31.4887 18.4843L31.4889 18.4843L31.4031 18.1449ZM31.7558 17.658L32.1048 17.631L32.1048 17.6309L31.7558 17.658ZM31.3313 17.233L31.2933 17.5809L31.2934 17.5809L31.3313 17.233ZM31.1518 17.2278L31.1482 16.8778H31.1481L31.1518 17.2278ZM31.0984 17.2281L31.0984 17.5781H31.0984V17.2281ZM16.8982 17.2281V17.5781H16.8982L16.8982 17.2281ZM16.2456 17.6874L15.8957 17.6832L15.8957 17.6833L16.2456 17.6874ZM16.8801 18.1758L16.8819 17.8258L16.8818 17.8258L16.8801 18.1758ZM17.1312 18.4371L16.7816 18.4202L16.7816 18.4202L17.1312 18.4371ZM17.1302 19.2073L16.7804 19.2182L16.7804 19.2183L17.1302 19.2073ZM16.9171 19.431L16.9217 19.081L16.9216 19.081L16.9171 19.431ZM16.1689 19.4284L16.1694 19.7784H16.1694L16.1689 19.4284ZM15.4016 19.4257L15.3967 19.7756L15.3968 19.7756L15.4016 19.4257ZM14.9727 19.0032L14.6227 19.0063L14.6227 19.0064L14.9727 19.0032ZM14.9723 16.3886L15.3223 16.3915L15.3223 16.3915L14.9723 16.3886ZM15.3994 15.954L15.4259 16.303L15.4262 16.3029L15.3994 15.954ZM15.5881 15.9506L15.592 15.6006H15.592L15.5881 15.9506ZM24.3842 23.6013V23.9513H24.7342V23.6013H24.3842ZM24.1077 23.5997L24.1107 23.2497H24.1107L24.1077 23.5997ZM24.3842 23.5953V23.2453H24.0342V23.5953H24.3842ZM24.6623 23.5976L24.6579 23.9476H24.6579L24.6623 23.5976ZM25.2826 23.5925L25.2653 23.243L25.2653 23.243L25.2826 23.5925ZM26.0328 22.9023L25.6828 22.9037V22.9037L26.0328 22.9023ZM25.2656 22.2384L25.277 21.8886L25.277 21.8886L25.2656 22.2384ZM24.7802 21.7723L25.13 21.761L25.13 21.7609L24.7802 21.7723ZM24.1041 20.9792L24.1012 21.3292L24.1012 21.3292L24.1041 20.9792ZM23.4288 21.7629L23.0791 21.7775L23.0791 21.7776L23.4288 21.7629ZM22.9936 22.3133L22.916 21.972L22.916 21.972L22.9936 22.3133ZM21.5513 24.3872L21.9004 24.3614L21.9004 24.3614L21.5513 24.3872ZM23.2508 26.0869L23.2066 26.4341L23.2066 26.4341L23.2508 26.0869ZM24.1023 26.12L24.1004 25.77H24.1004L24.1023 26.12ZM24.7461 26.1328L24.7709 25.7837L24.7708 25.7837L24.7461 26.1328ZM25.2709 26.8791L24.9365 26.7758L24.9365 26.7758L25.2709 26.8791ZM24.6235 27.2972L24.6261 27.6472H24.6261L24.6235 27.2972ZM23.8898 27.2983L23.8902 26.9483L23.8898 27.2983ZM22.8596 27.3029L22.8652 27.6529L22.8653 27.6529L22.8596 27.3029ZM22.1683 27.9289L22.5176 27.9503L22.5176 27.9503L22.1683 27.9289ZM22.7611 28.6193L22.6904 28.9621L22.6905 28.9621L22.7611 28.6193ZM22.9811 28.6325L22.9842 28.9825H22.9842L22.9811 28.6325ZM23.3415 28.7136L23.569 28.4475L23.5689 28.4475L23.3415 28.7136ZM23.4285 29.0714L23.0794 29.0455V29.0455L23.4285 29.0714ZM23.4309 29.2864L23.7744 29.2191L23.7743 29.2191L23.4309 29.2864ZM24.0851 29.879L24.079 30.229H24.079L24.0851 29.879ZM24.7648 29.2814L24.4189 29.2278L24.4188 29.2281L24.7648 29.2814ZM24.7801 28.8826L24.4302 28.893L24.4302 28.8931L24.7801 28.8826ZM25.0241 28.6028L24.9579 28.2591L24.9579 28.2591L25.0241 28.6028ZM26.6464 26.471L26.9949 26.4378L26.9949 26.4378L26.6464 26.471ZM24.6385 24.7685L24.6404 24.4185H24.6403L24.6385 24.7685ZM24.2574 24.7696L24.2597 25.1196L24.2597 25.1196L24.2574 24.7696ZM23.4739 24.7617L23.4587 25.1114H23.4587L23.4739 24.7617ZM22.9064 24.1531L22.5565 24.1418V24.1418L22.9064 24.1531ZM23.4857 23.6035L23.4733 23.2537H23.4733L23.4857 23.6035ZM24.0251 15.3506C24.5767 15.3506 25.1284 15.3506 25.68 15.3506L25.68 14.6506C25.1284 14.6506 24.5767 14.6506 24.0251 14.6506V15.3506ZM15.7456 15.3507L24.0251 15.3506L24.0251 14.6506L15.7456 14.6507L15.7456 15.3507ZM15.6785 15.3504C15.7 15.3505 15.7227 15.3507 15.7456 15.3507V14.6507C15.7253 14.6507 15.7048 14.6505 15.683 14.6504L15.6785 15.3504ZM15.5063 15.3523C15.5588 15.3497 15.613 15.35 15.6785 15.3504L15.683 14.6504C15.6207 14.65 15.547 14.6494 15.4719 14.6531L15.5063 15.3523ZM14.3836 16.4195C14.4002 16.0408 14.5158 15.7966 14.681 15.6404C14.8493 15.4813 15.1135 15.3717 15.5064 15.3523L15.4718 14.6531C14.9697 14.6779 14.5258 14.8238 14.2001 15.1318C13.8712 15.4427 13.7068 15.8771 13.6843 16.3888L14.3836 16.4195ZM14.3963 19.0839C14.3291 18.2039 14.3443 17.3151 14.3836 16.4195L13.6843 16.3887C13.6445 17.2944 13.628 18.2158 13.6983 19.1371L14.3963 19.0839ZM15.45 20.033C15.1358 20.0309 14.8862 19.9308 14.7121 19.774C14.5391 19.6183 14.4195 19.3879 14.3963 19.0838L13.6983 19.1372C13.734 19.6047 13.9257 20.0079 14.2437 20.2943C14.5606 20.5796 14.9817 20.7299 15.4454 20.733L15.45 20.033ZM16.3294 20.0341C16.0351 20.0345 15.7424 20.0349 15.45 20.033L15.4454 20.733C15.7411 20.7349 16.0366 20.7345 16.3304 20.7341L16.3294 20.0341ZM16.8007 20.0337C16.6434 20.0336 16.4862 20.0338 16.3294 20.0341L16.3304 20.7341C16.4873 20.7338 16.6437 20.7336 16.8001 20.7337L16.8007 20.0337ZM17.478 20.721C17.478 20.6451 17.4785 20.5593 17.4708 20.4885C17.4635 20.4211 17.4427 20.2902 17.338 20.1824C17.2313 20.0726 17.0992 20.0496 17.03 20.0416C16.9592 20.0334 16.8739 20.0338 16.8008 20.0337L16.8 20.7337C16.8206 20.7338 16.8389 20.7338 16.856 20.7339C16.8729 20.734 16.8876 20.7341 16.9006 20.7344C16.9136 20.7347 16.924 20.7351 16.9325 20.7356C16.941 20.7361 16.9463 20.7366 16.9494 20.7369C16.9524 20.7373 16.9516 20.7373 16.9481 20.7366C16.9445 20.7358 16.9366 20.7339 16.9259 20.7299C16.9149 20.7258 16.9005 20.7194 16.8844 20.7093C16.868 20.6991 16.8514 20.6861 16.8359 20.6702C16.8205 20.6543 16.8083 20.6377 16.7989 20.6217C16.7897 20.6061 16.7839 20.5923 16.7804 20.5823C16.7769 20.5725 16.7754 20.5655 16.7749 20.5629C16.7743 20.5603 16.7745 20.5603 16.7749 20.5642C16.7753 20.568 16.7759 20.574 16.7763 20.5832C16.7768 20.5923 16.7772 20.6033 16.7775 20.6169C16.7777 20.6305 16.7779 20.6458 16.778 20.6633C16.778 20.6809 16.778 20.6998 16.778 20.721H17.478ZM17.4781 34.1942L17.478 20.721L16.778 20.721L16.7781 34.1942L17.4781 34.1942ZM17.4779 34.2681C17.478 34.2442 17.4781 34.2193 17.4781 34.1942H16.7781C16.7781 34.2173 16.778 34.2405 16.7779 34.2647L17.4779 34.2681ZM17.4788 34.4416C17.4773 34.3866 17.4776 34.3306 17.4779 34.2681L16.7779 34.2647C16.7776 34.3253 16.7773 34.3925 16.7791 34.4606L17.4788 34.4416ZM17.6387 34.6263C17.5839 34.6208 17.5507 34.6108 17.5322 34.6028C17.5154 34.5956 17.5105 34.59 17.5093 34.5887C17.5081 34.5874 17.4821 34.5584 17.4788 34.4415L16.7791 34.4607C16.7848 34.6661 16.8337 34.8824 16.9864 35.054C17.1415 35.2283 17.3539 35.3011 17.5681 35.3228L17.6387 34.6263ZM18.6573 34.6301C18.3001 34.6479 17.9655 34.6595 17.6387 34.6263L17.5681 35.3228C17.953 35.3618 18.335 35.347 18.6921 35.3293L18.6573 34.6301ZM18.8739 34.5119C18.7882 34.5988 18.7225 34.6269 18.6573 34.6301L18.6921 35.3293C18.9874 35.3146 19.2087 35.1694 19.3725 35.0033L18.8739 34.5119ZM19.359 34.0257C19.1978 34.1864 19.0352 34.3483 18.874 34.5118L19.3724 35.0033C19.5311 34.8424 19.6915 34.6826 19.8531 34.5216L19.359 34.0257ZM19.5521 33.8331C19.4879 33.8973 19.4236 33.9614 19.359 34.0257L19.8531 34.5216C19.9176 34.4574 19.9823 34.3929 20.0469 34.3283L19.5521 33.8331ZM20.5141 33.8412C20.4606 33.7877 20.4006 33.7269 20.3454 33.6825C20.2931 33.6403 20.1862 33.5623 20.0361 33.5597C19.8828 33.5571 19.773 33.6344 19.7186 33.6775C19.6631 33.7216 19.6034 33.782 19.5522 33.8331L20.0468 34.3284C20.0613 34.3139 20.0742 34.3011 20.0862 34.2892C20.0981 34.2774 20.1085 34.2672 20.1178 34.2583C20.1271 34.2494 20.1347 34.2424 20.1409 34.2368C20.1471 34.2312 20.1512 34.2279 20.1534 34.2261C20.1557 34.2243 20.1551 34.2249 20.1519 34.227C20.1487 34.2291 20.1417 34.2334 20.1311 34.2382C20.1203 34.2432 20.1053 34.2489 20.0866 34.2531C20.0676 34.2575 20.0466 34.26 20.0243 34.2596C20.002 34.2592 19.9815 34.2561 19.9636 34.2514C19.946 34.2468 19.9323 34.2411 19.9228 34.2365C19.9134 34.232 19.9074 34.2281 19.9052 34.2267C19.903 34.2252 19.9032 34.2252 19.9062 34.2276C19.9092 34.23 19.9139 34.2339 19.9207 34.2401C19.9274 34.2462 19.9355 34.2537 19.9453 34.2631C19.9655 34.2825 19.9888 34.3058 20.0192 34.3362L20.5141 33.8412ZM20.7289 34.0571C20.6578 33.9855 20.5862 33.9133 20.5142 33.8412L20.0191 34.3361C20.09 34.4071 20.1607 34.4783 20.232 34.5501L20.7289 34.0571ZM21.204 34.5301C21.0449 34.3756 20.8882 34.2177 20.7289 34.0571L20.232 34.5501C20.3905 34.71 20.5518 34.8725 20.7164 35.0323L21.204 34.5301ZM21.4918 34.5277C21.3981 34.6191 21.3517 34.6203 21.3466 34.6203C21.342 34.6204 21.2966 34.62 21.204 34.5301L20.7164 35.0323C20.8846 35.1956 21.0965 35.3213 21.3493 35.3203C21.6016 35.3194 21.8129 35.1925 21.9807 35.0287L21.4918 34.5277ZM22.2906 33.7271C22.0321 33.9979 21.7642 34.2619 21.4918 34.5277L21.9807 35.0287C22.2539 34.7621 22.5293 34.4908 22.797 34.2104L22.2906 33.7271ZM23.059 33.7276C23.0015 33.6675 22.873 33.5432 22.6791 33.5413C22.4824 33.5393 22.3512 33.6637 22.2907 33.727L22.7969 34.2105C22.8108 34.1959 22.8088 34.2011 22.7925 34.2108C22.7729 34.2225 22.7306 34.2418 22.672 34.2412C22.614 34.2407 22.573 34.2208 22.5551 34.2098C22.5402 34.2008 22.5388 34.1964 22.5531 34.2114L23.059 33.7276ZM23.8573 34.5294C23.5857 34.2641 23.3183 33.9988 23.0591 33.7277L22.5531 34.2113C22.8204 34.4911 23.0945 34.7628 23.3683 35.0302L23.8573 34.5294ZM24.1448 34.5294C24.0525 34.6194 24.0064 34.6204 24.001 34.6204C23.9955 34.6204 23.9495 34.6194 23.8573 34.5294L23.3683 35.0302C23.5364 35.1943 23.7482 35.3203 24.0007 35.3204C24.2532 35.3205 24.4651 35.1947 24.6333 35.0307L24.1448 34.5294ZM24.9437 33.7283C24.684 33.9993 24.4165 34.2646 24.1448 34.5294L24.6333 35.0307C24.9076 34.7635 25.1815 34.4919 25.4492 34.2126L24.9437 33.7283ZM25.7123 33.7267C25.6493 33.6604 25.5156 33.5354 25.3159 33.5413C25.1248 33.547 24.9985 33.671 24.9436 33.7284L25.4492 34.2125C25.464 34.1971 25.4634 34.2005 25.4499 34.2089C25.4339 34.219 25.3942 34.2393 25.3365 34.241C25.2775 34.2428 25.2338 34.224 25.2122 34.2114C25.1944 34.201 25.1915 34.1948 25.2049 34.2089L25.7123 33.7267ZM26.3958 34.4159C26.1622 34.1853 25.9332 33.9592 25.7123 33.7267L25.2049 34.2089C25.4348 34.4508 25.6717 34.6848 25.904 34.9141L26.3958 34.4159ZM26.4943 34.5132C26.4615 34.4807 26.4286 34.4483 26.3958 34.4159L25.904 34.9141C25.9368 34.9464 25.9695 34.9788 26.0022 35.0111L26.4943 34.5132ZM26.8119 34.5163C26.7586 34.5685 26.7186 34.5959 26.6917 34.6097C26.667 34.6223 26.6562 34.6221 26.6544 34.6221C26.654 34.6221 26.6053 34.623 26.4943 34.5132L26.0022 35.0111C26.1727 35.1796 26.3874 35.3206 26.6503 35.3221C26.914 35.3236 27.13 35.1845 27.3017 35.0164L26.8119 34.5163ZM26.8582 34.471C26.8427 34.4861 26.8273 34.5012 26.8119 34.5163L27.3017 35.0164C27.317 35.0014 27.3324 34.9863 27.3478 34.9712L26.8582 34.471ZM27.5595 33.7658C27.3347 34.0044 27.0993 34.2349 26.8582 34.471L27.3478 34.9712C27.5873 34.7368 27.8328 34.4965 28.069 34.2458L27.5595 33.7658ZM28.3916 33.7701C28.3227 33.6973 28.1889 33.5718 27.9917 33.564C27.784 33.5559 27.6395 33.6809 27.5595 33.7658L28.069 34.2459C28.0857 34.2282 28.0864 34.2314 28.0718 34.2396C28.0534 34.25 28.0153 34.2655 27.9641 34.2635C27.9146 34.2615 27.8816 34.2442 27.8703 34.2372C27.8613 34.2316 27.8651 34.2321 27.8832 34.2513L28.3916 33.7701ZM28.9608 34.3448C28.7654 34.1518 28.5749 33.9637 28.3916 33.7701L27.8833 34.2513C28.0761 34.455 28.275 34.6514 28.469 34.8429L28.9608 34.3448ZM29.1246 34.5067C29.0699 34.4525 29.0152 34.3985 28.9608 34.3448L28.469 34.8429C28.5235 34.8967 28.5776 34.9501 28.6315 35.0036L29.1246 34.5067ZM29.2528 34.6115C29.252 34.6114 29.2506 34.6112 29.2474 34.6098C29.2437 34.6083 29.2368 34.6049 29.2259 34.5974C29.2008 34.5802 29.1724 34.5542 29.1245 34.5067L28.6315 35.0036C28.7166 35.088 28.8945 35.2728 29.1676 35.3063L29.2528 34.6115ZM30.4406 34.6117C30.0503 34.665 29.6533 34.6605 29.2527 34.6115L29.1676 35.3063C29.6183 35.3615 30.0764 35.368 30.5353 35.3053L30.4406 34.6117ZM30.5221 34.4942C30.5177 34.5486 30.501 34.5767 30.4911 34.5883C30.4836 34.5971 30.4714 34.6075 30.4407 34.6117L30.5352 35.3053C30.9534 35.2483 31.1905 34.9144 31.2198 34.5504L30.5221 34.4942ZM30.525 34.3178C30.5258 34.3901 30.5261 34.4437 30.5221 34.4942L31.2198 34.5503C31.2268 34.4627 31.2257 34.3771 31.225 34.3103L30.525 34.3178ZM30.5245 34.2422C30.5245 34.2684 30.5248 34.2942 30.525 34.3178L31.225 34.3103C31.2247 34.286 31.2245 34.264 31.2245 34.2422H30.5245ZM30.5245 30.7696C30.5245 31.9271 30.5245 33.0847 30.5245 34.2422L31.2245 34.2423C31.2245 33.0847 31.2245 31.9271 31.2245 30.7696L30.5245 30.7696ZM30.5253 20.839C30.5243 24.1492 30.5244 27.4594 30.5245 30.7696L31.2245 30.7696C31.2244 27.4594 31.2243 24.1493 31.2253 20.8392L30.5253 20.839ZM30.6581 20.1781C30.5288 20.3106 30.5258 20.4845 30.5238 20.543C30.5215 20.6135 30.5254 20.7373 30.5253 20.839L31.2253 20.8392C31.2253 20.7726 31.2243 20.7149 31.2236 20.6689C31.2229 20.6205 31.2227 20.5894 31.2235 20.5661C31.2243 20.5411 31.2259 20.5436 31.2223 20.558C31.2177 20.5765 31.2026 20.6225 31.1589 20.6672L30.6581 20.1781ZM31.3163 20.0342C31.2107 20.0347 31.0946 20.032 31.0195 20.0358C30.9586 20.0389 30.7869 20.0462 30.6581 20.1781L31.1589 20.6672C31.1158 20.7114 31.0705 20.7279 31.0509 20.7333C31.0353 20.7376 31.0317 20.7361 31.0551 20.7349C31.0768 20.7338 31.1068 20.7336 31.1536 20.7337C31.1975 20.7339 31.2548 20.7345 31.3194 20.7342L31.3163 20.0342ZM31.8297 20.0345C31.6596 20.0339 31.488 20.0334 31.3162 20.0342L31.3194 20.7342C31.4881 20.7334 31.657 20.7339 31.8275 20.7345L31.8297 20.0345ZM32.5955 20.0324C32.3418 20.036 32.0875 20.0353 31.8297 20.0345L31.8275 20.7345C32.0844 20.7352 32.3448 20.7361 32.6056 20.7323L32.5955 20.0324ZM33.6053 19.1084C33.5647 19.6449 33.1543 20.0244 32.5955 20.0324L32.6056 20.7323C33.5095 20.7194 34.234 20.0757 34.3033 19.1613L33.6053 19.1084ZM33.6201 16.4174C33.6522 17.3255 33.6726 18.2207 33.6053 19.1084L34.3033 19.1613C34.3737 18.2315 34.3519 17.3025 34.3197 16.3927L33.6201 16.4174ZM32.8651 15.4012C33.1082 15.4639 33.2849 15.5792 33.4051 15.734C33.526 15.8898 33.6092 16.111 33.6201 16.4174L34.3197 16.3926C34.3047 15.9696 34.186 15.5985 33.9581 15.3048C33.7294 15.0101 33.4103 14.8188 33.0397 14.7234L32.8651 15.4012ZM32.3048 15.35C32.5183 15.3499 32.6991 15.3586 32.8652 15.4013L33.0396 14.7233C32.783 14.6573 32.5276 14.6499 32.3045 14.65L32.3048 15.35ZM25.68 15.3506C27.8882 15.3506 30.0965 15.3507 32.3047 15.35L32.3045 14.65C30.0964 14.6507 27.8882 14.6506 25.68 14.6506L25.68 15.3506ZM17.7278 26.1164C17.7278 26.7038 17.7278 27.2913 17.7278 27.8787L18.4278 27.8787C18.4278 27.2913 18.4278 26.7039 18.4278 26.1164H17.7278ZM17.7278 26.1163V26.1164H18.4278V26.1163H17.7278ZM17.7278 18.5286C17.7276 21.0579 17.7277 23.5871 17.7278 26.1164L18.4278 26.1163C18.4277 23.5871 18.4276 21.0579 18.4278 18.5287L17.7278 18.5286ZM18.4283 17.8302C18.3492 17.8302 18.2604 17.8297 18.1871 17.8379C18.1164 17.8458 17.9836 17.8681 17.8752 17.9758C17.7664 18.0839 17.7437 18.217 17.7356 18.2881C17.7273 18.3614 17.7278 18.4501 17.7278 18.5287H18.4278C18.4278 18.5068 18.4278 18.4873 18.4279 18.4691C18.428 18.4511 18.4282 18.4353 18.4284 18.4213C18.4287 18.4073 18.4292 18.3959 18.4297 18.3865C18.4302 18.3771 18.4307 18.3708 18.4312 18.3669C18.4316 18.363 18.4318 18.3629 18.4312 18.3656C18.4307 18.3683 18.429 18.3754 18.4254 18.3854C18.4217 18.3955 18.4157 18.4093 18.4062 18.4248C18.3966 18.4407 18.3842 18.4569 18.3687 18.4723C18.3533 18.4876 18.337 18.4999 18.3213 18.5094C18.3058 18.5187 18.2922 18.5245 18.2823 18.5281C18.2725 18.5316 18.2656 18.5332 18.2631 18.5337C18.2606 18.5342 18.2609 18.534 18.265 18.5335C18.2691 18.5331 18.2755 18.5325 18.285 18.532C18.2946 18.5315 18.3061 18.5311 18.3202 18.5308C18.3344 18.5305 18.3502 18.5303 18.3684 18.5302C18.3867 18.5302 18.4063 18.5302 18.4283 18.5302V17.8302ZM29.575 17.8302C25.8594 17.83 22.1439 17.83 18.4283 17.8302L18.4283 18.5302C22.1439 18.53 25.8594 18.53 29.5749 18.5302L29.575 17.8302ZM30.275 18.5291C30.275 18.4504 30.2755 18.3617 30.2672 18.2884C30.2592 18.2174 30.2365 18.0844 30.128 17.9762C30.0196 17.8682 29.8867 17.8459 29.8159 17.8379C29.7427 17.8297 29.6539 17.8302 29.5749 17.8302V18.5302C29.5969 18.5302 29.6165 18.5302 29.6347 18.5302C29.6529 18.5303 29.6688 18.5305 29.6829 18.5308C29.697 18.5311 29.7085 18.5315 29.718 18.532C29.7275 18.5325 29.7339 18.5331 29.7379 18.5335C29.742 18.534 29.7422 18.5342 29.7397 18.5337C29.7371 18.5331 29.7302 18.5316 29.7204 18.528C29.7104 18.5244 29.6967 18.5185 29.6812 18.5092C29.6655 18.4997 29.6492 18.4874 29.6338 18.472C29.6184 18.4566 29.606 18.4404 29.5964 18.4246C29.5869 18.409 29.581 18.3953 29.5773 18.3852C29.5737 18.3753 29.5721 18.3682 29.5715 18.3656C29.571 18.3629 29.5712 18.3631 29.5716 18.367C29.5721 18.371 29.5726 18.3773 29.5731 18.3867C29.5736 18.3961 29.5741 18.4075 29.5744 18.4216C29.5746 18.4356 29.5748 18.4514 29.5749 18.4695C29.575 18.4877 29.575 18.5072 29.575 18.5291H30.275ZM30.275 19.2928L30.275 18.5291L29.575 18.5291L29.575 19.2928L30.275 19.2928ZM30.2724 33.705C30.2754 28.9008 30.2752 24.0968 30.275 19.2928L29.575 19.2928C29.5752 24.0968 29.5754 28.9007 29.5724 33.7046L30.2724 33.705ZM30.2764 33.7435C30.2747 33.7288 30.2736 33.7199 30.2729 33.7122C30.2723 33.7047 30.2724 33.7031 30.2724 33.7051L29.5724 33.7045C29.5723 33.7533 29.5784 33.8017 29.581 33.8242L30.2764 33.7435ZM29.9155 34.3643C29.9933 34.343 30.0738 34.3039 30.1417 34.2369C30.2106 34.169 30.2482 34.0904 30.2671 34.0191C30.2992 33.8984 30.28 33.775 30.2764 33.7435L29.581 33.8242C29.5842 33.8519 29.5852 33.8624 29.5855 33.8697C29.5857 33.8766 29.5843 33.863 29.5906 33.8395C29.5979 33.812 29.615 33.7733 29.65 33.7387C29.6842 33.705 29.7176 33.6927 29.7306 33.6892L29.9155 34.3643ZM29.1409 34.168C29.3859 34.4226 29.6893 34.4261 29.9153 34.3644L29.7308 33.6891C29.6913 33.6999 29.6715 33.6982 29.6656 33.6971C29.6632 33.6966 29.6619 33.6961 29.6606 33.6954C29.6591 33.6946 29.6539 33.6915 29.6453 33.6826L29.1409 34.168ZM28.2292 33.2516C28.5382 33.5571 28.8436 33.8592 29.141 34.168L29.6453 33.6826C29.341 33.3665 29.0294 33.0584 28.7214 32.7538L28.2292 33.2516ZM28.1923 33.2151L28.2292 33.2516L28.7214 32.7538L28.6845 32.7173L28.1923 33.2151ZM27.7759 33.2102C27.935 33.0517 27.9874 33.0573 27.98 33.0573C27.9741 33.0573 28.0291 33.0536 28.1923 33.215L28.6845 32.7174C28.4993 32.5341 28.2704 32.3582 27.9822 32.3573C27.6926 32.3564 27.4644 32.5324 27.2818 32.7143L27.7759 33.2102ZM27.5938 33.3907C27.6542 33.331 27.7151 33.2708 27.7759 33.2102L27.2818 32.7144C27.2221 32.7738 27.1622 32.8331 27.1016 32.893L27.5938 33.3907ZM27.0604 33.9307C27.2317 33.7489 27.4102 33.5723 27.5938 33.3907L27.1016 32.893C26.9194 33.0731 26.7321 33.2584 26.5508 33.4508L27.0604 33.9307ZM26.2477 33.9285C26.3142 33.9984 26.4458 34.1211 26.6402 34.1275C26.8439 34.1343 26.9844 34.0114 27.0604 33.9307L26.5508 33.4508C26.5359 33.4666 26.5367 33.4622 26.5526 33.4532C26.5721 33.4421 26.6112 33.4262 26.6635 33.4279C26.7143 33.4296 26.7489 33.4471 26.7622 33.4552C26.773 33.4619 26.771 33.463 26.7547 33.4459L26.2477 33.9285ZM25.6298 33.3056C25.8411 33.5143 26.0479 33.7187 26.2477 33.9286L26.7547 33.4459C26.5463 33.227 26.3317 33.0151 26.1217 32.8076L25.6298 33.3056ZM25.5145 33.1916C25.5529 33.2297 25.5914 33.2677 25.6298 33.3056L26.1217 32.8076C26.0833 32.7697 26.0451 32.7319 26.0069 32.6941L25.5145 33.1916ZM25.1479 33.1848C25.2114 33.1221 25.2577 33.0886 25.2891 33.0716C25.304 33.0636 25.3138 33.0602 25.3191 33.0587C25.324 33.0574 25.3262 33.0574 25.3267 33.0574C25.3273 33.0574 25.3298 33.0575 25.3355 33.0591C25.3416 33.0608 25.3523 33.0648 25.3681 33.0735C25.4014 33.0919 25.4494 33.1272 25.5145 33.1916L26.0069 32.6941C25.8295 32.5185 25.6083 32.3598 25.3326 32.3575C25.0548 32.3551 24.8327 32.5121 24.6557 32.687L25.1479 33.1848ZM25.1075 33.2248L25.1479 33.1848L24.6557 32.687L24.6153 32.727L25.1075 33.2248ZM24.3982 33.9391C24.6284 33.6984 24.8659 33.4636 25.1075 33.2248L24.6154 32.727C24.375 32.9646 24.1304 33.2063 23.8923 33.4553L24.3982 33.9391ZM23.6055 33.939C23.6745 34.0109 23.8067 34.1283 23.9999 34.1292C24.1946 34.1301 24.328 34.0125 24.3982 33.9391L23.8923 33.4553C23.8791 33.4691 23.8805 33.4646 23.8958 33.4558C23.914 33.4453 23.9517 33.429 24.0032 33.4292C24.0545 33.4295 24.0914 33.446 24.1087 33.456C24.1232 33.4645 24.1241 33.4684 24.1105 33.4543L23.6055 33.939ZM22.8391 33.17C23.0997 33.425 23.3564 33.6792 23.6054 33.9389L24.1106 33.4544C23.8538 33.1865 23.5906 32.9261 23.3287 32.6697L22.8391 33.17ZM22.504 33.1756C22.5622 33.1182 22.6056 33.0873 22.6354 33.0714C22.6629 33.0567 22.6743 33.057 22.6748 33.057C22.6752 33.057 22.6855 33.0564 22.7113 33.0698C22.7397 33.0846 22.7819 33.114 22.8391 33.17L23.3287 32.6697C23.1555 32.5002 22.9377 32.3548 22.6689 32.3571C22.4017 32.3593 22.1853 32.5069 22.0126 32.677L22.504 33.1756ZM22.4581 33.2209L22.504 33.1756L22.0126 32.677L21.9667 32.7223L22.4581 33.2209ZM21.7552 33.9286C21.9824 33.6898 22.2179 33.4576 22.4581 33.2209L21.9667 32.7223C21.7279 32.9577 21.4842 33.1978 21.248 33.4462L21.7552 33.9286ZM20.943 33.9304C21.0175 34.0093 21.1571 34.1327 21.36 34.1274C21.5557 34.1223 21.6882 33.9991 21.7552 33.9287L21.248 33.4462C21.2317 33.4633 21.2299 33.4619 21.2412 33.455C21.255 33.4466 21.2903 33.429 21.3418 33.4277C21.3943 33.4263 21.4331 33.4426 21.4518 33.4534C21.467 33.4621 21.4673 33.466 21.4521 33.4499L20.943 33.9304ZM20.3424 33.3239C20.5488 33.5274 20.7499 33.7258 20.943 33.9303L21.4521 33.4499C21.2489 33.2346 21.0388 33.0275 20.8339 32.8255L20.3424 33.3239ZM20.2112 33.1944C20.255 33.2377 20.2988 33.2809 20.3424 33.3239L20.8339 32.8255C20.7902 32.7824 20.7468 32.7396 20.7035 32.6967L20.2112 33.1944ZM19.8265 33.1991C19.8958 33.1307 19.9463 33.0932 19.9813 33.0736C19.998 33.0643 20.0089 33.0603 20.0149 33.0585C20.0178 33.0577 20.0197 33.0573 20.0207 33.0572C20.0217 33.057 20.0222 33.057 20.0224 33.057C20.0226 33.057 20.023 33.057 20.0238 33.0571C20.0246 33.0573 20.0263 33.0576 20.029 33.0583C20.0344 33.0599 20.0447 33.0635 20.0607 33.0724C20.0944 33.0911 20.1434 33.1273 20.2112 33.1944L20.7035 32.6967C20.525 32.5202 20.3013 32.3559 20.0196 32.357C19.7392 32.3581 19.5153 32.5229 19.335 32.7006L19.8265 33.1991ZM19.2772 33.7474C19.4607 33.5631 19.6429 33.3801 19.8265 33.1991L19.335 32.7006C19.1487 32.8844 18.9643 33.0696 18.7812 33.2535L19.2772 33.7474ZM18.9036 34.1216C19.0288 33.997 19.1533 33.8719 19.2772 33.7474L18.7812 33.2535C18.6571 33.3782 18.5336 33.5022 18.4096 33.6257L18.9036 34.1216ZM18.8822 34.1433C18.8905 34.1348 18.8971 34.1281 18.9036 34.1217L18.4097 33.6256C18.4 33.6353 18.3906 33.6449 18.3827 33.6529L18.8822 34.1433ZM18.6608 34.3198C18.7687 34.2633 18.8493 34.1768 18.8822 34.1433L18.3827 33.6529C18.3604 33.6756 18.3485 33.6875 18.3379 33.6968C18.3282 33.7053 18.3281 33.7038 18.336 33.6997L18.6608 34.3198ZM17.7282 33.751C17.7282 33.9538 17.7965 34.1933 18.014 34.3278C18.2337 34.4635 18.4794 34.4148 18.6608 34.3198L18.336 33.6997C18.3091 33.7138 18.301 33.7121 18.3106 33.7115C18.3227 33.7108 18.3509 33.7131 18.3821 33.7323C18.413 33.7514 18.4266 33.7748 18.4305 33.7837C18.4335 33.7906 18.4282 33.7823 18.4282 33.7508L17.7282 33.751ZM17.7278 27.8787C17.7277 29.8361 17.7277 31.7936 17.7282 33.751L18.4282 33.7508C18.4277 31.7935 18.4277 29.8361 18.4278 27.8787L17.7278 27.8787ZM24.0033 15.601L15.6557 15.6011L15.6557 16.3011L24.0033 16.301L24.0033 15.601ZM32.3974 15.601H24.0033V16.301H32.3974V15.601ZM33.3849 16.5789C33.3849 16.33 33.3625 16.0324 33.1538 15.8266C32.9468 15.6227 32.649 15.601 32.3975 15.601L32.3974 16.301C32.5153 16.301 32.5882 16.3086 32.6337 16.3191C32.6754 16.3288 32.6739 16.3365 32.6624 16.3252C32.6507 16.3136 32.6575 16.3108 32.6669 16.3498C32.6772 16.393 32.6849 16.4635 32.6849 16.5792L33.3849 16.5789ZM33.3852 16.9933C33.3851 16.8552 33.385 16.717 33.3849 16.5789L32.6849 16.5792C32.685 16.7174 32.6851 16.8556 32.6852 16.9938L33.3852 16.9933ZM33.3844 18.8911C33.386 18.2583 33.3856 17.6255 33.3852 16.9933L32.6852 16.9938C32.6856 17.6261 32.686 18.2578 32.6844 18.8893L33.3844 18.8911ZM32.5057 19.7784C32.7264 19.7774 32.9795 19.7399 33.1642 19.5527C33.3477 19.3666 33.3838 19.1132 33.3844 18.8911L32.6844 18.8893C32.6839 19.0626 32.6498 19.0774 32.6658 19.0611C32.683 19.0437 32.6714 19.0776 32.5025 19.0784L32.5057 19.7784ZM31.9615 19.7783C32.1419 19.7787 32.3237 19.7792 32.5057 19.7784L32.5025 19.0784C32.3233 19.0792 32.144 19.0788 31.9632 19.0783L31.9615 19.7783ZM31.1104 19.7812C31.3925 19.7769 31.6752 19.7776 31.9615 19.7783L31.9632 19.0783C31.6779 19.0776 31.3891 19.0769 31.0998 19.0813L31.1104 19.7812ZM30.5223 19.1896C30.5176 19.3116 30.5334 19.5003 30.685 19.6409C30.8275 19.7731 31.0076 19.7828 31.1105 19.7812L31.0997 19.0813C31.0744 19.0817 31.0713 19.0794 31.081 19.0818C31.0931 19.0848 31.1265 19.0956 31.161 19.1276C31.1968 19.1609 31.2129 19.1974 31.2189 19.2187C31.2237 19.2359 31.2209 19.239 31.2218 19.2167L30.5223 19.1896ZM30.5233 18.3948C30.5299 18.6641 30.5324 18.9284 30.5223 19.1896L31.2218 19.2167C31.2327 18.9339 31.2299 18.6527 31.2231 18.3776L30.5233 18.3948ZM31.0836 17.8282C30.977 17.8272 30.8077 17.8442 30.6743 17.9755C30.5385 18.1092 30.5205 18.2815 30.5233 18.3948L31.2231 18.3776C31.2221 18.3395 31.2337 18.407 31.1654 18.4743C31.0996 18.5391 31.0356 18.5278 31.077 18.5282L31.0836 17.8282ZM31.3175 17.8056C31.2524 17.822 31.1736 17.8291 31.0836 17.8282L31.0769 18.5282C31.2023 18.5294 31.3457 18.5204 31.4887 18.4843L31.3175 17.8056ZM31.4069 17.685C31.4109 17.7369 31.3753 17.791 31.3173 17.8056L31.4889 18.4843C31.88 18.3853 32.1349 18.0198 32.1048 17.631L31.4069 17.685ZM31.2934 17.5809C31.3682 17.5891 31.4032 17.6369 31.4069 17.6851L32.1048 17.6309C32.0738 17.2317 31.7632 16.9281 31.3693 16.8851L31.2934 17.5809ZM31.1555 17.5778C31.2191 17.5771 31.2583 17.5771 31.2933 17.5809L31.3693 16.8851C31.2857 16.8759 31.2046 16.8772 31.1482 16.8778L31.1555 17.5778ZM31.0984 17.5781C31.1183 17.5781 31.1379 17.5779 31.1555 17.5778L31.1481 16.8778C31.13 16.878 31.114 16.8781 31.0984 16.8781V17.5781ZM16.8982 17.5781C21.6316 17.5779 26.365 17.578 31.0984 17.5781L31.0984 16.8781C26.365 16.878 21.6316 16.8779 16.8981 16.8781L16.8982 17.5781ZM16.5956 17.6916C16.596 17.6581 16.6021 17.644 16.6036 17.6411C16.6044 17.6395 16.6056 17.6363 16.6144 17.6301C16.6391 17.6128 16.7172 17.5781 16.8982 17.5781V16.8781C16.6512 16.8781 16.4049 16.9214 16.2112 17.0579C15.9973 17.2087 15.8986 17.4361 15.8957 17.6832L16.5956 17.6916ZM16.8818 17.8258C16.7156 17.825 16.6434 17.788 16.6204 17.7699C16.6109 17.7624 16.607 17.7565 16.6043 17.7504C16.6011 17.7431 16.5952 17.7256 16.5956 17.6916L15.8957 17.6833C15.8927 17.9295 15.9846 18.1611 16.1889 18.3211C16.3794 18.4703 16.6263 18.5245 16.8783 18.5258L16.8818 17.8258ZM17.4808 18.4541C17.4865 18.3364 17.479 18.1441 17.3359 17.994C17.1934 17.8445 17.0019 17.8264 16.8819 17.8258L16.8782 18.5258C16.9092 18.5259 16.9147 18.529 16.9059 18.5265C16.8938 18.523 16.8612 18.5105 16.8292 18.4769C16.797 18.4432 16.7858 18.4095 16.7826 18.396C16.7803 18.386 16.7831 18.3905 16.7816 18.4202L17.4808 18.4541ZM17.48 19.1963C17.4721 18.9434 17.4691 18.6966 17.4808 18.4541L16.7816 18.4202C16.7686 18.6901 16.7722 18.9582 16.7804 19.2182L17.48 19.1963ZM16.9125 19.7809C17.0301 19.7825 17.2115 19.7624 17.3462 19.6145C17.4747 19.4734 17.4832 19.2981 17.48 19.1963L16.7804 19.2183C16.781 19.2396 16.7789 19.2396 16.7819 19.2271C16.7855 19.2121 16.7969 19.1781 16.8286 19.1433C16.8967 19.0685 16.9691 19.0816 16.9217 19.081L16.9125 19.7809ZM16.1694 19.7784C16.4192 19.7781 16.6661 19.7778 16.9126 19.7809L16.9216 19.081C16.6693 19.0777 16.4174 19.0781 16.1684 19.0784L16.1694 19.7784ZM15.3968 19.7756C15.6556 19.7792 15.914 19.7788 16.1694 19.7784L16.1684 19.0784C15.9122 19.0788 15.659 19.0791 15.4064 19.0757L15.3968 19.7756ZM14.6227 19.0064C14.6246 19.2118 14.6914 19.413 14.8456 19.5631C14.9983 19.7116 15.1985 19.7729 15.3967 19.7756L15.4064 19.0757C15.3423 19.0748 15.3293 19.057 15.3337 19.0613C15.3348 19.0624 15.3332 19.0617 15.3307 19.055C15.3278 19.0475 15.323 19.0304 15.3227 19L14.6227 19.0064ZM14.6223 16.3857C14.6151 17.2591 14.6149 18.1327 14.6227 19.0063L15.3227 19C15.3149 18.1307 15.3151 17.2611 15.3223 16.3915L14.6223 16.3857ZM15.3728 15.605C15.1805 15.6196 14.9895 15.6887 14.8438 15.8334C14.6952 15.9811 14.6241 16.1775 14.6223 16.3857L15.3223 16.3915C15.3225 16.3648 15.3269 16.3494 15.3298 16.3421C15.3325 16.3352 15.3351 16.3321 15.3371 16.3301C15.3403 16.3269 15.3617 16.3079 15.4259 16.303L15.3728 15.605ZM15.592 15.6006C15.5316 15.5999 15.4531 15.5988 15.3725 15.605L15.4262 16.3029C15.4709 16.2995 15.5185 16.2998 15.5842 16.3005L15.592 15.6006ZM15.6557 15.6011C15.6355 15.6011 15.6149 15.6008 15.592 15.6006L15.5842 16.3005C15.6064 16.3008 15.6309 16.3011 15.6557 16.3011V15.6011ZM24.3842 23.2513C24.2938 23.2513 24.2032 23.2505 24.1107 23.2497L24.1046 23.9497C24.1965 23.9505 24.2903 23.9513 24.3842 23.9513V23.2513ZM24.0342 23.5953V23.6013H24.7342V23.5953H24.0342ZM24.6666 23.2476C24.5743 23.2465 24.4794 23.2453 24.3842 23.2453V23.9453C24.4743 23.9453 24.5649 23.9464 24.6579 23.9476L24.6666 23.2476ZM25.2653 23.243C25.0715 23.2525 24.8754 23.2502 24.6666 23.2476L24.6579 23.9476C24.8631 23.9501 25.0809 23.9529 25.2999 23.9421L25.2653 23.243ZM25.6828 22.9037C25.6834 23.0579 25.5707 23.2278 25.2653 23.243L25.2999 23.9421C25.8947 23.9127 26.3852 23.5085 26.3828 22.901L25.6828 22.9037ZM25.2542 22.5882C25.4193 22.5936 25.5288 22.6434 25.5912 22.6973C25.649 22.7474 25.6825 22.8135 25.6828 22.9037L26.3828 22.901C26.3817 22.6089 26.2602 22.3506 26.0492 22.168C25.8426 21.9892 25.5693 21.8981 25.277 21.8886L25.2542 22.5882ZM24.4304 21.7837C24.4338 21.8876 24.4367 21.9961 24.4498 22.0844C24.463 22.1734 24.4947 22.3109 24.6094 22.4211C24.7215 22.5287 24.858 22.5571 24.9452 22.5692C25.0342 22.5815 25.1445 22.5846 25.2542 22.5882L25.277 21.8886C25.2171 21.8866 25.1693 21.8851 25.1284 21.8829C25.0871 21.8808 25.0599 21.8784 25.0412 21.8758C24.9955 21.8695 25.0429 21.8669 25.0943 21.9162C25.1484 21.9681 25.1479 22.0201 25.1423 21.9819C25.1399 21.9659 25.1375 21.9413 25.1354 21.9023C25.1334 21.8636 25.1319 21.8184 25.13 21.761L24.4304 21.7837ZM24.1012 21.3292C24.204 21.3301 24.2712 21.3664 24.3194 21.423C24.3729 21.4858 24.4244 21.6003 24.4304 21.7837L25.13 21.7609C25.1203 21.4616 25.0331 21.1812 24.8522 20.9689C24.666 20.7505 24.403 20.6317 24.1071 20.6292L24.1012 21.3292ZM23.7784 21.7482C23.7717 21.5869 23.8189 21.483 23.8715 21.4239C23.9228 21.3661 23.9985 21.3283 24.1012 21.3292L24.1071 20.6292C23.8123 20.6267 23.5403 20.7428 23.3483 20.9587C23.1576 21.1733 23.0659 21.4629 23.0791 21.7775L23.7784 21.7482ZM23.0711 22.6546C23.2601 22.6117 23.4708 22.538 23.6158 22.358C23.7642 22.1736 23.7869 21.9496 23.7784 21.7481L23.0791 21.7776C23.0851 21.9205 23.0589 21.9334 23.0705 21.919C23.0786 21.909 23.0645 21.9383 22.916 21.972L23.0711 22.6546ZM21.9004 24.3614C21.837 23.5063 22.3152 22.8264 23.0711 22.6546L22.916 21.972C21.7824 22.2296 21.1165 23.2551 21.2023 24.4131L21.9004 24.3614ZM23.2951 25.7397C22.5525 25.6451 21.9497 25.0279 21.9004 24.3614L21.2023 24.4131C21.2786 25.4448 22.1683 26.3018 23.2066 26.4341L23.2951 25.7397ZM24.1004 25.77C23.8128 25.7715 23.5519 25.7724 23.2951 25.7397L23.2066 26.4341C23.517 26.4736 23.8242 26.4715 24.1042 26.47L24.1004 25.77ZM24.7708 25.7837C24.541 25.7674 24.313 25.7688 24.1004 25.77L24.1042 26.47C24.3212 26.4688 24.5226 26.4678 24.7214 26.4819L24.7708 25.7837ZM25.6053 26.9824C25.6934 26.6973 25.6572 26.4033 25.4931 26.1705C25.3299 25.9387 25.0664 25.8046 24.7709 25.7837L24.7214 26.4819C24.8358 26.49 24.8944 26.5359 24.9209 26.5736C24.9466 26.6101 24.9677 26.6746 24.9365 26.7758L25.6053 26.9824ZM24.6261 27.6472C24.8124 27.6458 25.0171 27.613 25.2003 27.5063C25.3928 27.3941 25.533 27.2166 25.6053 26.9824L24.9365 26.7758C24.9128 26.8525 24.8798 26.8829 24.8479 26.9015C24.8066 26.9255 24.7357 26.9463 24.6208 26.9472L24.6261 27.6472ZM23.8893 27.6483C24.1336 27.6487 24.3797 27.649 24.6261 27.6472L24.6209 26.9472C24.3781 26.949 24.1351 26.9487 23.8902 26.9483L23.8893 27.6483ZM22.8653 27.6529C23.205 27.6474 23.5453 27.6479 23.8893 27.6483L23.8902 26.9483C23.5473 26.9479 23.2008 26.9474 22.854 26.953L22.8653 27.6529ZM22.5176 27.9503C22.5275 27.7883 22.6428 27.6564 22.8652 27.6529L22.854 26.953C22.2929 26.9619 21.8529 27.3543 21.8189 27.9074L22.5176 27.9503ZM22.8317 28.2765C22.5961 28.228 22.5097 28.0779 22.5176 27.9503L21.8189 27.9074C21.7852 28.4552 22.19 28.859 22.6904 28.9621L22.8317 28.2765ZM22.9781 28.2825C22.8959 28.2832 22.859 28.2821 22.8316 28.2765L22.6905 28.9621C22.8037 28.9854 22.9172 28.983 22.9842 28.9825L22.9781 28.2825ZM23.5689 28.4475C23.3542 28.2641 23.0785 28.2816 22.9781 28.2825L22.9842 28.9825C23.0186 28.9822 23.0443 28.982 23.0684 28.9828C23.0918 28.9835 23.1074 28.985 23.1181 28.9868C23.1377 28.99 23.1283 28.9917 23.1142 28.9797L23.5689 28.4475ZM23.7775 29.0974C23.7844 29.0045 23.8322 28.6726 23.569 28.4475L23.1141 28.9796C23.1057 28.9724 23.0965 28.9613 23.0897 28.9481C23.0836 28.9359 23.0827 28.9284 23.083 28.9308C23.0835 28.934 23.0846 28.9438 23.0842 28.9647C23.0838 28.9863 23.0821 29.0102 23.0794 29.0455L23.7775 29.0974ZM23.7743 29.2191C23.7717 29.2058 23.7713 29.181 23.7775 29.0974L23.0794 29.0455C23.0748 29.1083 23.0633 29.2311 23.0874 29.3538L23.7743 29.2191ZM24.0912 29.5291C23.9968 29.5275 23.935 29.4982 23.8916 29.4586C23.8458 29.4167 23.7986 29.3427 23.7744 29.2191L23.0874 29.3538C23.1346 29.5944 23.2424 29.8137 23.4197 29.9756C23.5996 30.1398 23.8292 30.2246 24.079 30.229L24.0912 29.5291ZM24.4188 29.2281C24.3999 29.3507 24.3535 29.4219 24.308 29.4617C24.2634 29.5006 24.1954 29.5309 24.0912 29.5291L24.079 30.229C24.3355 30.2335 24.578 30.1552 24.7685 29.9888C24.958 29.8233 25.071 29.5925 25.1107 29.3346L24.4188 29.2281ZM24.4302 28.8931C24.4342 29.0239 24.4338 29.1314 24.4189 29.2278L25.1106 29.335C25.1362 29.17 25.134 29.0069 25.1299 28.8721L24.4302 28.8931ZM24.9579 28.2591C24.8448 28.2809 24.688 28.3261 24.571 28.4573C24.4463 28.5971 24.4264 28.7651 24.4302 28.893L25.1299 28.8722C25.1293 28.8501 25.1317 28.8492 25.1286 28.8605C25.1247 28.8751 25.1146 28.8995 25.0934 28.9232C25.0732 28.9459 25.0547 28.9549 25.0517 28.9562C25.0506 28.9567 25.0606 28.9522 25.0904 28.9465L24.9579 28.2591ZM26.298 26.5042C26.3817 27.3818 25.8583 28.0856 24.9579 28.2591L25.0904 28.9465C26.3373 28.7062 27.1136 27.6824 26.9949 26.4378L26.298 26.5042ZM24.6367 25.1185C25.5498 25.1233 26.2238 25.7262 26.298 26.5043L26.9949 26.4378C26.8821 25.2563 25.8652 24.425 24.6404 24.4185L24.6367 25.1185ZM24.2597 25.1196C24.3871 25.1187 24.5121 25.1179 24.6367 25.1185L24.6403 24.4185C24.5109 24.4179 24.3818 24.4187 24.2551 24.4196L24.2597 25.1196ZM23.4587 25.1114C23.7298 25.1231 23.9998 25.1213 24.2597 25.1196L24.2551 24.4196C23.9923 24.4213 23.7397 24.4229 23.489 24.4121L23.4587 25.1114ZM22.5565 24.1418C22.5484 24.3923 22.6285 24.6323 22.7953 24.8144C22.9629 24.9974 23.198 25.1001 23.4587 25.1114L23.4891 24.4121C23.3961 24.408 23.342 24.3749 23.3115 24.3416C23.2802 24.3075 23.2534 24.2508 23.2562 24.1645L22.5565 24.1418ZM23.4733 23.2537C23.2304 23.2623 22.997 23.3353 22.8207 23.5044C22.6423 23.6754 22.5642 23.9046 22.5565 24.1418L23.2562 24.1645C23.2594 24.0651 23.2881 24.026 23.3052 24.0096C23.3243 23.9913 23.3751 23.9576 23.4982 23.9532L23.4733 23.2537ZM24.1107 23.2497C23.9046 23.2479 23.6894 23.246 23.4733 23.2537L23.4982 23.9532C23.6962 23.9462 23.8959 23.9479 24.1046 23.9497L24.1107 23.2497Z" fill="#525C75"/>
</svg>
