<svg width="48" height="49" viewBox="0 0 48 49" fill="none" xmlns="http://www.w3.org/2000/svg">
<rect y="0.5" width="48" height="48" rx="24" fill="#EBEDFA"/>
<path d="M33.6507 23.9517C33.445 24.0527 33.2571 24.1159 33.1082 24.2301C33.0337 24.2871 32.9998 24.437 32.9994 24.5451C32.993 26.2741 32.9877 28.0032 32.9972 29.7321C33.0041 30.9862 32.4567 31.9072 31.4071 32.5749C29.9684 33.4901 28.3705 33.9248 26.71 34.1555C24.2178 34.5017 21.7436 34.4 19.3045 33.743C18.2953 33.4711 17.3432 33.0665 16.4717 32.4836C15.5313 31.8546 15.0293 30.9737 15.0202 29.8417C15.0062 28.082 15.0116 26.3219 15.0225 24.5621C15.0239 24.331 14.9477 24.2199 14.745 24.1209C13.4059 23.4666 12.0762 22.7934 10.7377 22.1385C10.2687 21.9091 9.97653 21.5744 10.0015 21.0356C10.0264 20.4975 10.3475 20.1952 10.8351 20.0059C15.0302 18.3781 19.2229 16.7441 23.4132 15.1042C23.8042 14.9511 24.1612 14.9742 24.546 15.1247C28.7079 16.752 32.8731 18.3707 37.0375 19.9917C37.1901 20.0511 37.3563 20.0875 37.494 20.1712C38.1915 20.5958 38.1636 21.6259 37.4371 22.037C37.0082 22.2796 36.5632 22.4957 36.1157 22.7026C35.9172 22.7944 35.8593 22.9148 35.8599 23.1273C35.8675 25.5355 35.8654 27.9439 35.8653 30.352C35.8653 30.919 35.581 31.3389 35.0968 31.4921C34.6521 31.6328 34.1403 31.4921 33.8954 31.094C33.7631 30.879 33.6771 30.5981 33.675 30.3461C33.658 28.3291 33.6661 26.3119 33.6657 24.2948C33.6657 24.1961 33.6572 24.0973 33.6507 23.9517ZM34.1188 21.2213C34.0009 21.1661 33.9397 21.133 33.8753 21.1079C30.6401 19.8483 27.4053 18.5877 24.1664 17.3373C24.0411 17.289 23.8622 17.3022 23.7335 17.3519C20.5233 18.5908 17.3163 19.8382 14.109 21.0847C14.021 21.1189 13.9362 21.1607 13.8147 21.2144C13.9084 21.2675 13.9516 21.295 13.9972 21.3177C17.2525 22.9415 20.5072 24.5667 23.7674 26.1807C23.8794 26.2361 24.0694 26.2253 24.1853 26.1684C25.7348 25.4083 27.2776 24.6344 28.8221 23.864C30.5685 22.9927 32.3148 22.1213 34.1188 21.2213ZM17.1817 25.3737C17.1817 25.5355 17.1817 25.6451 17.1817 25.7546C17.1817 27.0919 17.191 28.4292 17.1753 29.7665C17.1712 30.1105 17.2743 30.3886 17.5504 30.5611C18.0009 30.8425 18.4573 31.1302 18.9452 31.3336C20.1234 31.8245 21.3735 32.0254 22.6402 32.1055C24.6233 32.2307 26.5938 32.1469 28.4933 31.5053C29.1086 31.2975 29.6866 30.9663 30.2592 30.6509C30.6118 30.4567 30.7598 30.1302 30.7514 29.6958C30.7262 28.3796 30.7427 27.0625 30.7417 25.7458C30.7415 25.6379 30.7324 25.5302 30.7254 25.379C30.5708 25.454 30.4531 25.5098 30.3366 25.5679C28.4426 26.5122 26.545 27.4494 24.6574 28.4065C24.1852 28.6459 23.7614 28.6568 23.2838 28.4138C21.3889 27.4498 19.4822 26.5089 17.5797 25.5601C17.4645 25.5027 17.3463 25.4507 17.1817 25.3737Z" fill="#525C75"/>
</svg>
