<svg width="48" height="48" viewBox="0 0 48 48" fill="none" xmlns="http://www.w3.org/2000/svg">
<rect width="48" height="48" rx="24" fill="#EBEDFA"/>
<path d="M33.6507 22.9517C33.445 23.0527 33.2571 23.1159 33.1082 23.2301C33.0337 23.2871 32.9998 23.437 32.9994 23.5451C32.993 25.2741 32.9877 27.0032 32.9972 28.7321C33.0041 29.9862 32.4567 30.9072 31.4071 31.5749C29.9684 32.4901 28.3705 32.9248 26.71 33.1555C24.2178 33.5017 21.7436 33.4 19.3045 32.743C18.2953 32.4711 17.3432 32.0665 16.4717 31.4836C15.5313 30.8546 15.0293 29.9737 15.0202 28.8417C15.0062 27.082 15.0116 25.3219 15.0225 23.5621C15.0239 23.331 14.9477 23.2199 14.745 23.1209C13.4059 22.4666 12.0762 21.7934 10.7377 21.1385C10.2687 20.9091 9.97653 20.5744 10.0015 20.0356C10.0264 19.4975 10.3475 19.1952 10.8351 19.0059C15.0302 17.3781 19.2229 15.7441 23.4132 14.1042C23.8042 13.9511 24.1612 13.9742 24.546 14.1247C28.7079 15.752 32.8731 17.3707 37.0375 18.9917C37.1901 19.0511 37.3563 19.0875 37.494 19.1712C38.1915 19.5958 38.1636 20.6259 37.4371 21.037C37.0082 21.2796 36.5632 21.4957 36.1157 21.7026C35.9172 21.7944 35.8593 21.9148 35.8599 22.1273C35.8675 24.5355 35.8654 26.9439 35.8653 29.352C35.8653 29.919 35.581 30.3389 35.0968 30.4921C34.6521 30.6328 34.1403 30.4921 33.8954 30.094C33.7631 29.879 33.6771 29.5981 33.675 29.3461C33.658 27.3291 33.6661 25.3119 33.6657 23.2948C33.6657 23.1961 33.6572 23.0973 33.6507 22.9517ZM34.1188 20.2213C34.0009 20.1661 33.9397 20.133 33.8753 20.1079C30.6401 18.8483 27.4053 17.5877 24.1664 16.3373C24.0411 16.289 23.8622 16.3022 23.7335 16.3519C20.5233 17.5908 17.3163 18.8382 14.109 20.0847C14.021 20.1189 13.9362 20.1607 13.8147 20.2144C13.9084 20.2675 13.9516 20.295 13.9972 20.3177C17.2525 21.9415 20.5072 23.5667 23.7674 25.1807C23.8794 25.2361 24.0694 25.2253 24.1853 25.1684C25.7348 24.4083 27.2776 23.6344 28.8221 22.864C30.5685 21.9927 32.3148 21.1213 34.1188 20.2213ZM17.1817 24.3737C17.1817 24.5355 17.1817 24.6451 17.1817 24.7546C17.1817 26.0919 17.191 27.4292 17.1753 28.7665C17.1712 29.1105 17.2743 29.3886 17.5504 29.5611C18.0009 29.8425 18.4573 30.1302 18.9452 30.3336C20.1234 30.8245 21.3735 31.0254 22.6402 31.1055C24.6233 31.2307 26.5938 31.1469 28.4933 30.5053C29.1086 30.2975 29.6866 29.9663 30.2592 29.6509C30.6118 29.4567 30.7598 29.1302 30.7514 28.6958C30.7262 27.3796 30.7427 26.0625 30.7417 24.7458C30.7415 24.6379 30.7324 24.5302 30.7254 24.379C30.5708 24.454 30.4531 24.5098 30.3366 24.5679C28.4426 25.5122 26.545 26.4494 24.6574 27.4065C24.1852 27.6459 23.7614 27.6568 23.2838 27.4138C21.3889 26.4498 19.4822 25.5089 17.5797 24.5601C17.4645 24.5027 17.3463 24.4507 17.1817 24.3737Z" fill="#525C75"/>
</svg>
