<svg width="24" height="16" viewBox="0 0 24 16" fill="none" xmlns="http://www.w3.org/2000/svg">
<path fill-rule="evenodd" clip-rule="evenodd" d="M1 0C0.447715 0 0 0.447715 0 1C0 1.55228 0.447716 2 1 2H23C23.5523 2 24 1.55228 24 1C24 0.447715 23.5523 0 23 0H1ZM0 8C0 7.44772 0.447715 7 1 7H23C23.5523 7 24 7.44772 24 8C24 8.55229 23.5523 9 23 9H1C0.447716 9 0 8.55229 0 8ZM0 15C0 14.4477 0.447715 14 1 14H23C23.5523 14 24 14.4477 24 15C24 15.5523 23.5523 16 23 16H1C0.447716 16 0 15.5523 0 15Z" fill="white"/>
</svg>
