<svg width="48" height="48" viewBox="0 0 48 48" fill="none" xmlns="http://www.w3.org/2000/svg">
<rect width="48" height="48" rx="24" fill="#EBEDFA"/>
<path fill-rule="evenodd" clip-rule="evenodd" d="M19.309 30.8494C18.4723 30.4504 17.5909 30.272 16.4731 30.2594C16.404 30.2672 16.3205 30.2755 16.2266 30.2849C15.9728 30.3103 15.643 30.3433 15.3158 30.3934C14.8222 30.4693 14.5423 30.8667 14.625 31.3312C14.7139 31.8316 15.0972 32.1158 15.5918 32.0159C16.7328 31.7853 17.8119 31.9538 18.8622 32.4476C19.9094 32.9399 21.0222 33.1708 22.1632 32.9421C22.9685 32.7806 23.7576 32.5118 24.5335 32.2327C25.7913 31.7803 27.0277 31.7659 28.2447 32.3281C30.1355 33.2016 32.0221 33.2274 33.9266 32.3818C34.8898 31.9541 35.8908 31.7765 36.9397 31.9911C37.4533 32.096 37.8947 31.83 37.9853 31.3685C38.0743 30.9163 37.7552 30.4811 37.2545 30.3779C35.8962 30.0981 34.5821 30.2387 33.3233 30.8265C31.8698 31.5053 30.4235 31.5052 28.965 30.8409C27.1687 30.0229 25.3689 30.0323 23.5773 30.8632C22.1512 31.5245 20.7277 31.5258 19.309 30.8494ZM19.3355 34.0279C18.4885 33.6281 17.6025 33.4303 16.6681 33.4186C16.5745 33.4264 16.4807 33.4341 16.387 33.4417C16.149 33.461 15.911 33.4803 15.6734 33.5035C15.5331 33.5172 15.393 33.5403 15.2549 33.5696C14.8123 33.6638 14.5466 34.0585 14.6248 34.4983C14.7118 34.9876 15.0934 35.2781 15.5613 35.1857C16.7215 34.9569 17.8192 35.1194 18.8905 35.6253C19.8865 36.0954 20.9527 36.3329 22.0428 36.123C22.8784 35.9621 23.7013 35.6987 24.5044 35.409C25.7835 34.9477 27.0331 34.936 28.2723 35.5055C30.1532 36.3702 32.0323 36.3886 33.9258 35.5463C34.899 35.1134 35.9114 34.9481 36.9702 35.1614C37.4653 35.2612 37.8979 34.9848 37.9856 34.5337C38.0715 34.0928 37.7665 33.657 37.2821 33.5524C35.8928 33.2526 34.557 33.419 33.2662 34.0164C31.8445 34.6745 30.4175 34.6675 28.9916 34.0175C27.1853 33.1941 25.3792 33.193 23.5761 34.0296C22.1619 34.6859 20.7457 34.6937 19.3355 34.0279Z" fill="#525C75"/>
<path fill-rule="evenodd" clip-rule="evenodd" d="M21.6558 21.2524C21.7262 20.6016 21.4134 20.1657 20.8872 19.8033C21.3833 19.2711 21.5854 18.6788 21.3656 17.991C21.1448 17.2999 20.6253 16.9401 19.9181 16.792C19.9523 16.7486 19.9826 16.7096 20.0107 16.6734C20.0625 16.6067 20.1066 16.55 20.1526 16.4949C21.2071 15.2329 22.4915 14.2898 24.0046 13.6617C24.063 13.6374 24.1133 13.5932 24.1635 13.5489C24.1868 13.5284 24.2101 13.5079 24.2343 13.4894C24.2145 13.4661 24.196 13.4407 24.1775 13.4153L24.1775 13.4153C24.1378 13.3608 24.0981 13.3062 24.0454 13.2723C23.4292 12.8749 22.7522 12.8239 22.0625 12.9849C20.4544 13.36 19.2992 14.3533 18.4474 15.7442C18.4101 15.805 18.3746 15.8669 18.3331 15.939L18.3331 15.9391L18.3325 15.9401C18.3117 15.9763 18.2894 16.0151 18.2646 16.0577C18.2594 16.0296 18.2546 16.0082 18.2508 15.991L18.2508 15.991L18.2508 15.9909C18.2444 15.9624 18.2407 15.9456 18.2417 15.929C18.2462 15.858 18.2536 15.7869 18.2641 15.7165C18.5008 14.1292 19.0703 12.6762 19.9835 11.3602C20.0195 11.3083 20.0384 11.2443 20.0572 11.1803L20.0572 11.1803C20.0659 11.1506 20.0746 11.1209 20.0851 11.0924C20.0575 11.0832 20.0301 11.0728 20.0026 11.0623L20.0026 11.0623C19.9393 11.0383 19.876 11.0143 19.8107 11.0051C19.7227 10.9926 19.629 11.0054 19.5397 11.0191C18.7794 11.1354 18.1862 11.5492 17.7194 12.1356C16.6612 13.4653 16.2442 14.9882 16.4747 16.6791C16.5105 16.9413 16.5772 17.1992 16.6454 17.463L16.6454 17.463L16.6454 17.463L16.6455 17.4631C16.6774 17.5863 16.7096 17.7109 16.7392 17.8379C16.7055 17.8262 16.6739 17.8147 16.6434 17.8036L16.6434 17.8036C16.5823 17.7814 16.526 17.761 16.4687 17.7443C14.3437 17.1279 12.4552 17.571 10.8296 19.0746C10.319 19.5469 10.0024 20.1533 10 20.8813C9.99975 20.9514 10.0244 21.0217 10.0491 21.092C10.0605 21.1244 10.0719 21.1569 10.0808 21.1894C10.1117 21.1768 10.1438 21.1658 10.1759 21.1548L10.1759 21.1548L10.1759 21.1548C10.2449 21.1313 10.3139 21.1077 10.3711 21.0672C11.7105 20.1193 13.1937 19.5448 14.813 19.3314C15.0779 19.2965 15.3453 19.2814 15.6127 19.2663H15.6127H15.6127C15.7356 19.2594 15.8585 19.2525 15.9811 19.2436C14.2312 20.2301 13.1651 21.6752 12.8246 23.6376C12.6762 24.4935 12.7706 25.3294 13.3578 26.0317C13.4112 26.0955 13.4873 26.14 13.5634 26.1845C13.5985 26.205 13.6336 26.2256 13.6665 26.248C13.6817 26.2145 13.6991 26.1815 13.7165 26.1485C13.754 26.0773 13.7914 26.0062 13.8071 25.9304C14.1345 24.3566 14.8045 22.9482 15.8018 21.6967C15.8812 21.597 15.9657 21.5015 16.0538 21.402L16.0538 21.4019C16.0963 21.3539 16.1396 21.3049 16.1836 21.2541C16.5095 21.6859 16.9 21.9513 17.4115 22.0105C17.9294 22.0705 18.3792 21.9028 18.7892 21.5561C18.9992 22.0903 19.3386 22.4372 19.8681 22.5796C19.9335 22.5971 20.0027 22.6767 20.0313 22.7443C20.1103 22.9311 20.1942 23.1165 20.2781 23.3021C20.4877 23.7652 20.6974 24.2288 20.8312 24.7135C21.1884 26.0078 20.9682 27.2995 20.6355 28.5721C20.5585 28.8667 20.4762 29.1599 20.3916 29.4615L20.3915 29.4618L20.3912 29.463C20.3527 29.6002 20.3137 29.7391 20.2745 29.8807C20.3417 29.8975 20.4055 29.914 20.4672 29.9299L20.4673 29.9299C20.5929 29.9624 20.7095 29.9925 20.8272 30.0178C21.8029 30.2275 22.6809 29.9094 23.5364 29.4917C23.5967 29.4622 23.6433 29.3515 23.6515 29.2738C23.7675 28.1772 23.8045 27.0803 23.6717 25.9809C23.4721 24.3275 22.7956 22.882 21.812 21.5658L21.7988 21.5483C21.7306 21.4574 21.6458 21.3446 21.6558 21.2524ZM18.8888 18.7535C18.9967 19.1345 19.3522 19.4264 19.7559 19.4253C20.2493 19.4238 20.6639 19.003 20.6603 18.5072C20.6572 18.0726 20.3427 17.7056 19.9349 17.6217C19.8735 17.609 19.81 17.6028 19.7451 17.6037C19.263 17.6105 18.8613 18.0166 18.8554 18.5032C18.8543 18.5893 18.8661 18.6734 18.8888 18.7535ZM16.7176 20.3101C16.7223 19.7999 17.1203 19.4107 17.6285 19.4192C18.0371 19.4262 18.3683 19.6949 18.4724 20.0676C18.4767 20.0832 18.4807 20.0989 18.4842 20.1149C18.5006 20.1884 18.5083 20.2656 18.5062 20.3452C18.493 20.8529 18.0875 21.2356 17.5788 21.2207C17.2502 21.211 16.9733 21.0297 16.8277 20.761C16.7559 20.6286 16.7161 20.4749 16.7176 20.3101ZM19.4364 21.1103C19.4479 20.6794 19.7928 20.3463 20.2217 20.3515C20.5023 20.3549 20.7422 20.5036 20.8753 20.7274C20.8838 20.7416 20.8918 20.7561 20.8994 20.7709C20.9587 20.8869 20.9906 21.0204 20.9868 21.1627C20.9755 21.5891 20.6191 21.9363 20.2009 21.9284C19.9471 21.9237 19.7249 21.7969 19.5864 21.6039C19.4877 21.4663 19.4315 21.2951 19.4364 21.1103Z" fill="#525C75"/>
<path fill-rule="evenodd" clip-rule="evenodd" d="M33.0026 29.5878C34.0276 29.0909 35.1357 28.9304 36.3124 28.9776C36.298 28.9458 36.2871 28.9208 36.2781 28.9001C36.263 28.8654 36.2533 28.843 36.2412 28.822C35.7976 28.0464 35.3541 27.2709 34.9106 26.4953C33.1316 23.3843 31.3526 20.2734 29.5691 17.1652C29.2148 16.5478 28.4941 16.5658 28.1348 17.1917C26.9672 19.2254 25.8033 21.2614 24.6462 23.3012C24.5908 23.3988 24.5702 23.5563 24.6058 23.6609C25.1259 25.1872 25.2697 26.757 25.1701 28.3582C25.1608 28.5083 25.1633 28.6592 25.1658 28.8113C25.167 28.8818 25.1682 28.9527 25.1682 29.0238C25.1951 29.0238 25.2215 29.0246 25.2476 29.0255C25.3027 29.0272 25.3563 29.029 25.4089 29.0226C26.7516 28.8598 28.0595 29.0188 29.2805 29.5987C30.541 30.1974 31.75 30.1952 33.0026 29.5878ZM31.877 25.4404L31.8772 25.4406C31.6637 25.3642 31.4567 25.2908 31.2544 25.219C30.7413 25.037 30.2588 24.8658 29.7798 24.6849C29.5878 24.6123 29.45 24.6215 29.286 24.7564C28.8795 25.0909 28.4594 25.4092 28.035 25.7206C27.9636 25.773 27.8195 25.8037 27.7495 25.7667C27.351 25.5558 26.9584 25.3336 26.5535 25.1046C26.4245 25.0317 26.2943 24.958 26.1623 24.8838L26.1625 24.8836C26.1624 24.8835 26.1623 24.8835 26.1623 24.8835L28.8607 20.1688L31.8771 25.4404C31.8771 25.4404 31.8771 25.4404 31.877 25.4404Z" fill="#525C75"/>
</svg>
