<svg width="269" height="77" viewBox="0 0 269 77" fill="none" xmlns="http://www.w3.org/2000/svg">
<path fill-rule="evenodd" clip-rule="evenodd" d="M112.761 31.7263C112.616 30.9853 112.469 30.2933 112.355 29.5943C112.338 29.4933 112.455 29.2963 112.553 29.2603C114.492 28.5583 116.43 27.8133 118.561 28.2513C118.899 28.3213 119.239 28.3943 119.564 28.5093C121.362 29.1423 122.078 30.5293 121.664 32.5763C121.183 34.9503 120.692 37.3223 120.206 39.6953C120.176 39.8443 120.156 39.9963 120.123 40.1993H122.239C122.044 41.1473 121.867 42.0403 121.666 42.9293C121.645 43.0213 121.479 43.1453 121.381 43.1463C119.722 43.1603 118.064 43.1563 116.35 43.1563C116.405 42.8313 116.451 42.5663 116.507 42.2353C116.308 42.3233 116.158 42.3863 116.011 42.4543C114.854 42.9913 113.665 43.3763 112.365 43.3483C109.671 43.2903 108.101 41.1953 108.643 38.5523C109.156 36.0533 111.711 33.9333 114.613 33.7633C115.807 33.6933 116.958 33.8553 118.171 34.2993C118.307 33.5343 118.477 32.8013 118.554 32.0573C118.605 31.5693 118.263 31.2643 117.821 31.1003C116.98 30.7883 116.121 30.7903 115.265 31.0123C114.446 31.2253 113.636 31.4753 112.761 31.7263ZM115.065 36.5503C113.372 36.5473 112.325 37.2003 111.874 38.4823C111.479 39.6033 112.068 40.4753 113.252 40.5213C114.238 40.5593 115.098 40.1713 115.969 39.7713C116.92 39.3333 117.483 38.6673 117.454 37.5913C117.45 37.4423 117.361 37.2273 117.244 37.1603C116.546 36.7563 115.793 36.5153 115.065 36.5503ZM91.196 43.1484C92.384 37.3954 93.569 31.6564 94.766 25.8614H92.432C92.638 24.8044 92.831 23.8164 93.035 22.7664H93.606C96.101 22.7664 98.596 22.7594 101.091 22.7734C101.66 22.7764 102.233 22.8274 102.798 22.9034C105.571 23.2784 107.068 25.6414 106.484 28.3384C106.135 29.9504 105.362 31.2644 103.985 32.2804C104.972 32.9834 105.635 33.8884 105.696 35.0864C105.84 37.9144 104.812 40.1974 102.388 41.7564C101.079 42.5984 99.616 43.0504 98.072 43.1064C95.874 43.1854 93.672 43.1694 91.472 43.1924C91.405 43.1934 91.338 43.1714 91.196 43.1484ZM96.936 31.1434C98.201 31.0654 99.421 31.0944 100.6 30.8884C101.843 30.6714 102.772 29.9174 103.144 28.6354C103.553 27.2214 102.978 26.1584 101.524 25.9684C100.39 25.8194 99.22 25.9384 98.021 25.9384C97.675 27.5994 97.319 29.3054 96.936 31.1434ZM96.334 33.9934C95.904 36.1154 95.494 38.1364 95.094 40.1084C96.366 40.1084 97.584 40.2014 98.782 40.0874C100.707 39.9034 101.86 38.8844 102.283 37.2064C102.714 35.5004 102.076 34.4234 100.336 34.1934C99.04 34.0224 97.717 34.0554 96.334 33.9934ZM165.314 24.9288C164.631 24.1938 163.964 23.4758 163.3 22.7608C165.784 19.4188 169.579 19.8518 171.544 21.8328C172.478 22.7748 173.793 22.7098 174.751 21.7728C175.073 21.4588 175.373 21.1218 175.817 20.6548C176.164 21.0658 176.457 21.4468 176.786 21.7928C177.119 22.1428 177.488 22.4588 177.83 22.7798C175.611 26.1188 171.735 26.4748 169.072 23.7298C168.466 23.1048 167.214 23.1178 166.59 23.7298C166.185 24.1278 165.763 24.5088 165.314 24.9288ZM146.125 48.9268C146.244 48.6948 146.323 48.5288 146.412 48.3698C147.541 46.3628 148.679 44.3608 149.789 42.3438C149.916 42.1148 149.964 41.7838 149.915 41.5248C149.301 38.3298 148.655 35.1398 148.038 31.9448C147.966 31.5688 147.846 31.4128 147.444 31.4358C146.824 31.4708 146.201 31.4448 145.518 31.4448C145.712 30.4988 145.884 29.6028 146.092 28.7158C146.116 28.6108 146.332 28.4828 146.46 28.4808C147.742 28.4628 149.025 28.4818 150.307 28.4628C150.667 28.4568 150.674 28.6748 150.722 28.9188C151.276 31.7738 151.835 34.6278 152.395 37.4808C152.403 37.5258 152.429 37.5658 152.484 37.6958C153.71 35.6038 154.901 33.5708 156.143 31.4508H154.501C154.714 30.4218 154.912 29.4648 155.113 28.4938H162.195C162.048 29.1998 161.905 29.8818 161.765 30.5648C161.584 31.4448 161.577 31.5188 160.709 31.4258C159.7 31.3168 159.131 31.6588 158.657 32.5788C157.777 34.2838 156.735 35.9058 155.768 37.5668C153.663 41.1868 151.557 44.8058 149.47 48.4358C149.249 48.8188 149.008 48.9588 148.571 48.9378C147.782 48.8998 146.99 48.9268 146.125 48.9268ZM172.838 40.1958H174.953C174.757 41.1448 174.58 42.0368 174.379 42.9248C174.358 43.0178 174.196 43.1448 174.099 43.1458C172.439 43.1598 170.779 43.1558 169.06 43.1558C169.116 42.8378 169.162 42.5748 169.223 42.2218C169.004 42.3238 168.843 42.4008 168.681 42.4748C167.554 42.9918 166.396 43.3678 165.133 43.3488C162.382 43.3088 160.791 41.1918 161.366 38.5048C161.894 36.0408 164.434 33.9358 167.322 33.7628C168.533 33.6898 169.699 33.8688 170.873 34.2878C171.011 33.5918 171.162 32.9348 171.266 32.2708C171.355 31.7008 171.111 31.3248 170.538 31.1048C169.701 30.7828 168.839 30.7898 167.983 31.0108C167.165 31.2228 166.357 31.4728 165.479 31.7248C165.324 30.9458 165.17 30.1728 165.008 29.3538C167.195 28.5418 169.342 27.7368 171.725 28.3388C173.892 28.8868 174.829 30.3178 174.388 32.5188C173.911 34.8938 173.417 37.2658 172.931 39.6388C172.897 39.8048 172.875 39.9738 172.838 40.1958ZM167.74 36.4052C167.724 36.4532 167.708 36.5022 167.692 36.5502C166.11 36.5462 165.088 37.1682 164.609 38.4262C164.167 39.5872 164.768 40.4892 166.007 40.5222C167.01 40.5492 167.879 40.1352 168.765 39.7282C169.698 39.2982 170.176 38.6152 170.166 37.6022C170.164 37.4422 170.044 37.1902 169.918 37.1412C169.202 36.8692 168.468 36.6452 167.74 36.4052ZM145.584 22.7788C145.377 23.8198 145.183 24.7998 144.979 25.8268C144.31 25.8268 143.672 25.8348 143.033 25.8228C142.777 25.8188 142.634 25.8668 142.573 26.1648C141.628 30.7948 140.668 35.4228 139.713 40.0508C139.706 40.0818 139.724 40.1178 139.738 40.1998H142.004C141.809 41.1488 141.633 42.0438 141.432 42.9328C141.411 43.0248 141.243 43.1458 141.143 43.1468C139.43 43.1598 137.718 43.1558 135.937 43.1558C136 42.7778 136.054 42.4488 136.1 42.1728C135.213 42.5008 134.334 42.8858 133.419 43.1488C132.338 43.4598 131.221 43.4298 130.125 43.1768C127.635 42.6008 126.039 40.5728 125.914 37.8558C125.735 33.9668 128.422 29.8888 132.09 28.6038C134.404 27.7928 136.652 27.8548 138.724 29.5458C139.192 27.2618 139.649 25.0348 140.111 22.7788H145.584ZM129.059 36.8577C129.046 38.7927 130.211 40.2517 131.909 40.4157C133.134 40.5347 134.252 40.2367 135.221 39.4747C136.864 38.1837 137.595 36.4157 137.574 34.3907C137.55 32.0127 135.565 30.5857 133.255 31.1557C130.93 31.7277 129.077 34.2467 129.059 36.8577ZM162.906 60.1008C163.122 60.1498 163.294 60.1878 163.495 60.2328C163.175 60.5238 162.345 60.5358 161.934 60.2458C162.15 60.1938 162.319 60.1528 162.551 60.0968C162.551 59.0808 162.551 58.0478 162.551 57.0148C162.551 56.8248 162.529 56.6308 162.558 56.4448C162.58 56.2998 162.664 56.1638 162.721 56.0238C162.783 56.1578 162.895 56.2898 162.898 56.4248C162.914 57.2548 162.906 58.0848 162.906 58.9148C162.906 59.3098 162.906 59.7038 162.906 60.1008ZM166.877 60.3798H165.917C165.912 60.3278 165.907 60.2758 165.902 60.2238C166.085 60.1908 166.268 60.1568 166.486 60.1168V56.3608H165.293C165.258 56.6928 165.221 57.0438 165.184 57.3948C165.13 57.3928 165.075 57.3908 165.021 57.3888V56.0448H168.469C168.453 56.3328 168.439 56.6028 168.424 56.8728C168.363 56.8728 168.302 56.8718 168.241 56.8718C168.2 56.7028 168.16 56.5328 168.114 56.3438H166.877V60.3798ZM173.397 56.3948C173.193 56.3218 173.029 56.2628 172.864 56.2038C172.874 56.1588 172.883 56.1138 172.893 56.0688H174.357C172.864 57.1588 172.186 58.5608 172.492 60.3808H171.481C171.476 60.3308 171.47 60.2818 171.464 60.2318C171.645 60.1938 171.827 60.1568 172.035 60.1138C172.331 58.3548 171.537 57.1018 170.167 56.0688C170.605 55.9718 170.973 55.9238 171.241 56.4268C171.539 56.9888 171.915 57.5108 172.301 58.1208C172.686 57.5148 173.039 56.9588 173.397 56.3948ZM160.084 56.5568C160.127 56.5258 160.214 56.4638 160.377 56.3468V57.5128C159.186 56.0198 157.951 55.5368 156.854 57.4128C156.313 58.3378 156.814 59.5678 157.695 60.0048C158.694 60.5008 159.574 60.1288 160.461 58.8908C160.461 59.0338 160.508 59.1988 160.454 59.3188C160.054 60.2008 159.242 60.5988 158.129 60.4808C157.264 60.3898 156.551 59.7178 156.364 58.8168C155.983 56.9838 157.425 55.5208 159.116 56.0448C159.451 56.1478 159.748 56.3748 160.084 56.5568ZM138.856 56.0458V60.0948C139.06 60.1418 139.231 60.1808 139.421 60.2238C139.157 60.5178 138.337 60.5458 137.884 60.2558C138.722 60.2188 138.487 59.6388 138.493 59.1938C138.504 58.2608 138.489 57.3288 138.505 56.3968C138.507 56.2588 138.62 56.1218 138.682 55.9848C138.74 56.0058 138.798 56.0258 138.856 56.0458ZM132.977 56.0328H136.453V56.8548C136.407 56.8638 136.361 56.8728 136.315 56.8818C136.261 56.7078 136.207 56.5348 136.146 56.3388H134.959V60.3698H133.976C133.974 60.3218 133.972 60.2728 133.969 60.2248C134.154 60.1868 134.338 60.1498 134.55 60.1068V56.3508H133.324C133.298 56.6958 133.271 57.0398 133.245 57.3838C133.176 57.3848 133.107 57.3848 133.038 57.3858C133.018 56.9558 132.999 56.5268 132.977 56.0328ZM140.785 56.0828C141.655 55.9398 141.655 55.9398 141.925 56.6428C142.333 57.7068 142.741 58.7698 143.193 59.9468C143.653 58.7018 144.075 57.5608 144.506 56.3928C144.314 56.3308 144.145 56.2758 143.976 56.2208C143.983 56.1738 143.991 56.1258 143.999 56.0788H145.447C145.402 56.1708 145.368 56.2778 145.348 56.2748C144.794 56.2068 144.73 56.6378 144.598 57.0008C144.218 58.0388 143.842 59.0788 143.45 60.1128C143.397 60.2518 143.257 60.3588 143.158 60.4798C143.058 60.3558 142.921 60.2458 142.866 60.1038C142.446 59.0248 142.039 57.9418 141.635 56.8568C141.518 56.5448 141.431 56.2208 140.981 56.2958C140.942 56.3018 140.885 56.1938 140.785 56.0828ZM148.261 58.2748V60.1838H150.902C150.599 60.4808 149.07 60.5568 147.887 60.4008V56.4068C147.647 56.3278 147.464 56.2688 147.282 56.2088C147.292 56.1608 147.302 56.1138 147.312 56.0668H150.801V57.0528C150.741 57.0638 150.68 57.0748 150.62 57.0848C150.58 56.8558 150.541 56.6258 150.494 56.3538H148.27V58.0528H150.078C150.078 58.1268 150.079 58.2008 150.079 58.2748H148.261ZM115.254 56.5758V57.4788C114.847 57.0978 114.548 56.6458 114.132 56.4748C113.707 56.2998 113.151 56.3118 112.685 56.4048C112.151 56.5118 111.827 56.9678 111.647 57.4828C111.294 58.4928 111.716 59.6218 112.584 60.0258C113.579 60.4878 114.445 60.1108 115.161 58.9038C115.212 58.9018 115.262 58.8998 115.312 58.8978C115.312 59.0398 115.358 59.2028 115.305 59.3208C114.917 60.1848 114.135 60.5758 113.028 60.4838C112.205 60.4148 111.498 59.8488 111.278 59.0068C111.041 58.1068 111.114 57.2398 111.82 56.5478C112.429 55.9518 113.173 55.8058 113.982 56.0438C114.194 56.1068 114.381 56.2468 114.586 56.3348C114.772 56.4148 114.967 56.4738 115.254 56.5758ZM130.648 56.2288C130.484 56.2748 130.32 56.3198 130.105 56.3798C130.528 57.5818 130.935 58.7868 131.391 59.9728C131.449 60.1218 131.769 60.1698 131.966 60.2638C131.691 60.5308 130.854 60.5408 130.487 60.2398C130.674 60.1908 130.827 60.1508 131.027 60.0988C130.9 59.7248 130.849 59.2988 130.63 58.9928C130.254 58.4678 129.647 58.8498 129.148 58.7738C129.012 58.7528 128.763 58.9148 128.703 59.0528C128.517 59.4758 128.398 59.9288 128.226 60.4508C127.979 60.4388 127.691 60.4258 127.403 60.4118C127.382 60.3458 127.361 60.2808 127.34 60.2148C128.06 60.2698 128.093 59.7388 128.242 59.3068C128.563 58.3768 128.907 57.4528 129.193 56.5118C129.318 56.1018 129.516 55.9518 129.929 56.0078C130.155 56.0388 130.389 56.0138 130.62 56.0138C130.629 56.0858 130.639 56.1578 130.648 56.2288ZM130.459 58.4384C130.204 57.6904 129.965 56.9904 129.683 56.1614C129.396 57.0034 129.159 57.6994 128.907 58.4384H130.459ZM122.715 56.3728C122.45 56.3158 122.283 56.2798 122.117 56.2438C122.122 56.1918 122.126 56.1398 122.131 56.0868H125.621V57.0578C125.565 57.0678 125.508 57.0778 125.452 57.0878C125.409 56.8518 125.366 56.6158 125.317 56.3468H123.092V58.0778H124.909C124.905 58.1458 124.902 58.2138 124.898 58.2828H123.1V60.1708H125.715C125.454 60.4768 123.983 60.5598 122.715 60.4058V56.3728ZM117.395 56.3678C117.124 56.3168 116.926 56.2798 116.728 56.2428C116.729 56.1898 116.731 56.1368 116.732 56.0838C116.85 56.0608 116.968 56.0188 117.086 56.0168C117.657 56.0098 118.227 56.0098 118.798 56.0148C119.537 56.0218 119.986 56.3188 120.107 56.8718C120.231 57.4378 119.955 57.8638 119.268 58.1708C119.237 58.1848 119.211 58.2088 119.138 58.2578C119.396 58.8238 119.629 59.4138 119.935 59.9628C120.023 60.1218 120.322 60.1638 120.52 60.2568C120.332 60.5618 119.81 60.5618 119.636 60.2138C119.42 59.7818 119.233 59.3348 119.034 58.8938C118.697 58.1498 118.697 58.1498 117.76 58.2858C117.76 58.8908 117.767 59.5068 117.753 60.1228C117.75 60.2328 117.659 60.3408 117.608 60.4498C117.537 60.3408 117.406 60.2318 117.405 60.1208C117.39 58.8778 117.395 57.6338 117.395 56.3678ZM117.79 57.9471C118.263 57.9261 118.711 57.9441 119.145 57.8751C119.549 57.8101 119.755 57.5171 119.748 57.0941C119.741 56.6911 119.521 56.4111 119.15 56.3621C118.703 56.3021 118.242 56.3481 117.79 56.3481V57.9471ZM92.5208 56.3478V60.3848H91.5648C91.5588 60.3288 91.5518 60.2738 91.5458 60.2188C91.7278 60.1878 91.9098 60.1578 92.1298 60.1208V56.3438H90.9428C90.9078 56.6908 90.8708 57.0448 90.8348 57.3988C90.7798 57.3968 90.7258 57.3938 90.6708 57.3908V56.0478H94.1168C94.1038 56.3268 94.0908 56.5998 94.0778 56.8718C94.0158 56.8738 93.9538 56.8758 93.8918 56.8788C93.8508 56.7118 93.8098 56.5458 93.7608 56.3478H92.5208ZM105.339 56.3448H103.116V58.0778H104.926C104.923 58.1468 104.919 58.2158 104.915 58.2848H103.123V60.1698H105.734C105.489 60.4808 103.71 60.5708 102.718 60.3788V56.3898C102.485 56.3218 102.311 56.2718 102.137 56.2218C102.147 56.1728 102.156 56.1238 102.165 56.0748H105.658V57.0508C105.6 57.0638 105.542 57.0768 105.484 57.0888C105.437 56.8508 105.391 56.6128 105.339 56.3448ZM96.8268 58.3268V60.3698H95.9178C95.9158 60.3228 95.9138 60.2758 95.9108 60.2288C96.0638 60.1938 96.2158 60.1598 96.4068 60.1158V56.3748C96.2318 56.3208 96.0628 56.2688 95.8948 56.2178C95.9028 56.1608 95.9108 56.1048 95.9198 56.0488C96.1938 56.0358 96.4678 56.0228 96.8168 56.0068V57.9588H99.1938V56.3708C99.0168 56.3268 98.8348 56.2798 98.6518 56.2338C98.6568 56.1858 98.6608 56.1388 98.6658 56.0908H100.104C100.119 56.1208 100.134 56.1508 100.148 56.1808C99.9888 56.2458 99.8298 56.3108 99.6068 56.4028V60.3688H98.6818C98.6778 60.3228 98.6728 60.2768 98.6688 60.2308C98.8388 60.1918 99.0078 60.1538 99.2068 60.1088V58.3268H96.8268ZM84.268 16.499C84.257 16.723 84.235 16.947 84.235 17.17C84.234 27.849 84.234 38.528 84.234 49.207C84.234 49.429 84.234 49.65 84.234 49.987H82.5V16.499H84.268ZM186.5 16.499V49.912H184.856C184.844 49.757 184.823 49.608 184.823 49.458C184.822 38.576 184.822 27.693 184.823 16.81C184.823 16.707 184.831 16.603 184.836 16.499H186.5Z" fill="#B1C2C9"/>
</svg>
