<svg width="269" height="77" viewBox="0 0 269 77" fill="none" xmlns="http://www.w3.org/2000/svg">
<g clip-path="url(#clip0_20449_176537)">
<path d="M111.052 20.0396C113.303 20.0396 115.497 20.0396 117.787 20.0396C117.787 21.0915 117.787 22.0502 117.787 23.0977C118.78 23.0977 119.679 23.0977 120.693 23.0977C120.693 22.1021 120.693 21.1475 120.693 20.092C121.931 20.092 123.056 20.092 124.251 20.092C124.251 24.6744 124.251 29.2668 124.251 33.9713C123.199 33.9713 122.14 33.9713 120.945 33.9713C120.945 30.8647 120.945 27.7503 120.945 24.5236C119.874 24.5236 118.931 24.5236 117.837 24.5236C117.837 27.621 117.837 30.7846 117.837 34.0222C115.498 34.0222 113.307 34.0222 111.052 34.0222C111.052 29.3367 111.052 24.7438 111.052 20.0396Z" fill="#B1C2C9"/>
<path d="M155.589 32.9272C156.669 32.9272 157.55 32.9272 158.473 32.9272C158.473 33.364 158.473 33.7202 158.473 34.1187C155.174 34.1187 151.904 34.1187 148.574 34.1187C148.574 29.3963 148.574 24.7431 148.574 20.044C150.93 20.044 153.202 20.044 155.589 20.044C155.589 24.3169 155.589 28.539 155.589 32.9272Z" fill="#B1C2C9"/>
<path d="M142.977 19.8436C142.977 24.241 142.977 28.5031 142.977 32.8678C143.974 32.8678 144.847 32.8678 145.818 32.8678C145.847 33.2968 145.87 33.6291 145.898 34.0423C142.6 34.0423 139.388 34.0423 136.081 34.0423C136.056 33.663 136.015 33.3133 136.014 32.9636C136.009 29.0034 136.034 25.0431 135.991 21.0832C135.982 20.1723 136.173 19.7782 137.186 19.8208C139.071 19.9001 140.962 19.8436 142.977 19.8436Z" fill="#B1C2C9"/>
<path d="M133.247 20.0738C133.247 24.712 133.247 29.3085 133.247 34.0103C131.157 34.0103 129.081 34.0103 126.897 34.0103C126.897 29.4293 126.897 24.8093 126.897 20.0738C128.964 20.0738 131.082 20.0738 133.247 20.0738Z" fill="#B1C2C9"/>
<path d="M63.6834 52.5089C65.809 52.5089 67.8121 52.5089 69.9464 52.5089C69.9464 50.7459 69.9464 48.9929 69.9464 47.1947C70.9915 47.1947 71.9056 47.1947 72.8614 47.1947C72.8614 51.6562 72.8614 56.0426 72.8614 60.5179C71.9177 60.5179 71.0213 60.5179 70.002 60.5179C70.002 58.3634 70.002 56.2444 70.002 54.0669C67.8776 54.0669 65.8743 54.0669 63.7446 54.0669C63.7446 56.1758 63.7446 58.2933 63.7446 60.5043C62.7259 60.5043 61.8305 60.5043 60.8552 60.5043C60.8552 56.1127 60.8552 51.7342 60.8552 47.2648C61.7669 47.2648 62.6629 47.2648 63.6837 47.2648C63.6834 49.0079 63.6834 50.7229 63.6834 52.5089Z" fill="#B1C2C9"/>
<path d="M110.964 38.1637C110.964 37.6452 110.964 37.1565 110.964 36.6321C126.822 36.6321 142.601 36.6321 158.449 36.6321C158.449 37.1506 158.449 37.6158 158.449 38.1637C142.642 38.1637 126.833 38.1637 110.964 38.1637Z" fill="#B1C2C9"/>
<path d="M110.979 17.4799C110.979 16.9582 110.979 16.4971 110.979 16.0096C126.83 16.0096 142.61 16.0096 158.456 16.0096C158.456 16.4942 158.456 16.9252 158.456 17.4799C142.676 17.4799 126.874 17.4799 110.979 17.4799Z" fill="#B1C2C9"/>
<path d="M142.512 60.6661C141.563 60.6661 140.781 60.6661 139.862 60.6661C139.862 57.5493 139.862 54.3755 139.862 51.15C140.593 51.15 141.386 51.15 142.234 51.15C142.278 51.5526 142.319 51.9305 142.374 52.4282C142.855 52.0884 143.254 51.7743 143.684 51.5099C145.453 50.4205 148.408 50.638 148.784 53.9457C148.843 54.4645 148.817 54.9935 148.818 55.5178C148.821 57.2449 148.819 58.972 148.819 60.7066C147.823 60.6629 146.938 60.6241 145.908 60.579C145.908 58.6058 145.984 56.5944 145.862 54.5952C145.824 53.9768 145.37 53.2256 144.87 52.8509C144.551 52.6118 143.54 52.7556 143.295 53.076C142.854 53.6552 142.587 54.4854 142.545 55.2275C142.444 57.0329 142.512 58.8481 142.512 60.6661Z" fill="#B1C2C9"/>
<path d="M104.422 60.6639C104.422 57.5216 104.422 54.3532 104.422 51.1449C105.199 51.1449 105.957 51.1449 106.806 51.1449C106.852 51.5213 106.898 51.9002 106.965 52.4451C107.286 52.1982 107.541 51.9829 107.815 51.7942C109.028 50.9569 110.312 50.6079 111.731 51.2596C113.12 51.8982 113.348 53.182 113.391 54.4766C113.458 56.5297 113.409 58.5866 113.409 60.6544C112.451 60.6544 111.543 60.6544 110.527 60.6544C110.527 59.1287 110.53 57.689 110.526 56.2493C110.524 55.6444 110.568 55.0306 110.481 54.4371C110.355 53.5749 110.048 52.6755 109.021 52.6608C108.077 52.6472 107.372 53.1786 107.318 54.2605C107.248 55.6563 107.162 57.0514 107.109 58.4476C107.08 59.2012 107.104 59.9569 107.104 60.6644C106.145 60.6639 105.329 60.6639 104.422 60.6639Z" fill="#B1C2C9"/>
<path d="M192.982 60.6685C192.014 60.6685 191.239 60.6685 190.29 60.6685C190.29 59.1093 190.326 57.5131 190.275 55.9199C190.251 55.1749 190.212 54.3599 189.895 53.718C189.653 53.229 188.979 52.7158 188.462 52.6763C188.053 52.645 187.357 53.2346 187.198 53.6913C186.876 54.6132 186.751 55.6274 186.694 56.6121C186.615 57.9662 186.674 59.3285 186.674 60.6666C185.759 60.6666 184.979 60.6666 184.089 60.6666C184.089 57.573 184.089 54.4189 184.089 51.1844C184.881 51.1844 185.706 51.1844 186.605 51.1844C186.632 51.5611 186.66 51.9499 186.707 52.5873C187.076 52.2327 187.317 51.9528 187.604 51.7343C188.742 50.8689 190.008 50.5757 191.317 51.2278C192.443 51.7888 193.015 52.7517 192.992 54.0713C192.955 56.2653 192.982 58.4607 192.982 60.6685Z" fill="#B1C2C9"/>
<path d="M177.303 60.8211C173.722 60.9462 172.616 58.6215 172.634 56.0572C172.658 52.7231 174.434 50.9339 177.641 50.8839C180.383 50.8412 182.402 52.9777 182.34 55.7089C182.261 59.2334 180.618 60.9001 177.303 60.8211ZM179.284 55.5373C179.284 54.5637 179.329 53.6515 178.994 52.8271C178.816 52.3872 178.13 51.8958 177.672 51.8951C177.15 51.8941 176.343 52.2904 176.153 52.7282C175.263 54.7802 175.279 56.9364 176.089 59.0096C176.271 59.4764 177.008 59.971 177.511 59.9935C177.944 60.0132 178.652 59.4638 178.807 59.0168C179.192 57.9043 179.284 56.5109 179.284 55.5373Z" fill="#B1C2C9"/>
<path d="M203.428 60.4107C201.767 61.1684 201.097 61.0352 199.968 59.5553C199.24 60.515 198.285 60.9423 197.076 60.8342C195.818 60.7216 194.853 60.0306 194.671 59.0234C194.397 57.5046 194.832 56.5197 196.16 55.9798C197.004 55.6369 197.928 55.4974 198.792 55.1974C199.432 54.9753 200.277 54.6583 199.937 53.8181C199.692 53.2152 198.996 52.4194 198.463 52.3906C197.477 52.337 196.464 52.7815 195.237 53.0718C195.517 52.6326 195.703 52.02 196.115 51.7481C197.602 50.7653 199.278 50.7522 200.924 51.2417C202.284 51.6465 202.859 52.5873 202.872 54.0801C202.885 55.5338 202.827 56.99 202.901 58.4401C202.933 59.0605 203.22 59.6676 203.428 60.4107ZM199.994 55.348C199.091 55.9376 198.35 56.2483 197.857 56.7863C197.222 57.4792 197.289 58.4188 197.77 59.1857C197.932 59.444 198.57 59.597 198.917 59.5085C199.855 59.2693 199.998 58.4568 199.995 57.614C199.992 57.0162 199.994 56.4186 199.994 55.348Z" fill="#B1C2C9"/>
<path d="M151.421 53.49C150.867 52.4658 151.258 51.9664 152.063 51.5664C153.618 50.794 155.199 50.7661 156.796 51.3392C157.976 51.7626 158.577 52.6025 158.531 53.9115C158.482 55.2813 158.52 56.6541 158.521 58.0254C158.521 58.9007 158.303 59.864 159.65 60.1706C157.704 61.2152 157.01 61.0917 155.717 59.6028C154.635 60.9011 153.302 61.1325 151.745 60.571C150.712 60.1982 150.375 59.4061 150.317 58.437C150.261 57.5015 150.53 56.6211 151.432 56.2209C152.409 55.7873 153.457 55.5052 154.488 55.2032C155.193 54.9968 155.885 54.6546 155.748 53.8795C155.612 53.1109 155.147 52.3995 154.173 52.2979C153.062 52.182 152.095 52.3765 151.421 53.49ZM155.857 55.658C153.622 56.2071 153.054 56.7106 153.229 58.1726C153.289 58.6725 153.739 59.3678 154.175 59.5276C154.971 59.8199 155.442 59.1168 155.584 58.4253C155.763 57.558 155.767 56.6548 155.857 55.658Z" fill="#B1C2C9"/>
<path d="M130.265 55.9635C128.381 55.9635 126.575 55.9635 124.787 55.9635C124.52 57.533 125.087 59.1383 126.187 59.3062C127.362 59.4856 128.604 59.2336 129.843 59.1684C129.802 60.2224 128.764 60.528 127.864 60.7611C125.454 61.3852 122.987 60.3813 122.233 58.4148C121.34 56.088 121.551 53.2639 123.673 51.6549C124.824 50.7813 127.034 50.6428 128.351 51.3872C129.859 52.2389 130.482 53.6602 130.265 55.9635ZM127.738 54.9359C127.517 54.0187 127.429 53.2527 127.129 52.5816C126.977 52.2414 126.429 51.8611 126.085 51.8836C125.733 51.9069 125.252 52.3401 125.114 52.7027C124.851 53.3946 124.792 54.1639 124.642 54.9359C125.656 54.9359 126.607 54.9359 127.738 54.9359Z" fill="#B1C2C9"/>
<path d="M87.0863 45.6534C88.0351 45.6534 88.8949 45.6534 89.8054 45.6534C89.8054 50.6615 89.8054 55.6805 89.8054 60.6654C88.875 60.6654 88.0228 60.6654 87.0863 60.6654C87.0863 55.7014 87.0863 50.6814 87.0863 45.6534Z" fill="#B1C2C9"/>
<path d="M205.545 60.6714C205.545 55.5886 205.545 50.614 205.545 45.6411C206.438 45.6411 207.242 45.6411 208.145 45.6411C208.145 50.6101 208.145 55.6294 208.145 60.6714C207.297 60.6714 206.455 60.6714 205.545 60.6714Z" fill="#B1C2C9"/>
<path d="M84.2125 60.6724C83.3474 60.6724 82.567 60.6724 81.6494 60.6724C81.6494 55.7186 81.6494 50.6865 81.6494 45.6461C82.4944 45.6461 83.3067 45.6461 84.2125 45.6461C84.2125 50.6167 84.2125 55.6323 84.2125 60.6724Z" fill="#B1C2C9"/>
<path d="M164.346 51.0593C164.938 51.0855 165.414 51.1068 165.938 51.1301C165.918 51.5257 165.9 51.89 165.88 52.3047C165.398 52.3047 164.958 52.3047 164.348 52.3047C164.348 54.5537 164.287 56.7576 164.41 58.9516C164.43 59.3084 165.264 59.6195 165.722 59.9518C165.821 59.8689 165.919 59.7857 166.018 59.7027C165.984 59.9593 166.047 60.3222 165.9 60.4563C164.654 61.5969 161.935 60.7696 161.699 59.0894C161.455 57.3487 161.504 55.5663 161.434 53.8019C161.416 53.3605 161.431 52.9178 161.431 52.3978C161.009 52.3462 160.63 52.2998 160.181 52.245C160.181 51.9043 160.181 51.5655 160.181 51.1439C160.571 51.1131 160.958 51.0826 161.341 51.0525C161.635 48.4799 161.682 48.4266 164.346 47.6706C164.346 48.8076 164.346 49.916 164.346 51.0593Z" fill="#B1C2C9"/>
<path d="M120.64 60.0353C120.644 60.0066 120.698 60.3241 120.569 60.4422C119.269 61.6319 116.536 60.7631 116.318 59.0122C116.105 57.3106 116.162 55.5748 116.108 53.854C116.093 53.3755 116.106 52.896 116.106 52.377C115.668 52.3401 115.314 52.3103 114.87 52.2729C114.87 51.9186 114.87 51.5543 114.87 51.1478C115.244 51.1175 115.599 51.0889 116.121 51.0464C115.501 48.6834 117.176 48.1884 118.963 47.6488C118.963 48.7814 118.963 49.8534 118.963 51.0122C119.541 51.0629 120.043 51.1073 120.557 51.1524C120.557 51.4985 120.557 51.8337 120.557 52.2463C120.112 52.2814 119.646 52.3183 118.993 52.37C118.993 54.585 118.939 56.8219 119.056 59.0496C119.072 59.3552 119.937 59.6164 120.64 60.0353Z" fill="#B1C2C9"/>
<path d="M101.468 47.2154C101.468 51.7413 101.468 56.2032 101.468 60.6671C100.517 60.6671 99.6256 60.6671 98.6736 60.6671C98.6736 56.2304 98.6736 51.7697 98.6736 47.2154C99.5889 47.2154 100.501 47.2154 101.468 47.2154Z" fill="#B1C2C9"/>
<path d="M132.432 51.1497C133.252 51.1497 134.044 51.1497 134.937 51.1497C134.969 51.7536 135 52.3398 135.041 53.1298C135.773 51.8235 136.593 50.8555 138.156 51.0542C138.156 51.9018 138.156 52.7536 138.156 53.617C135.748 53.3088 135.033 53.9311 134.999 56.3021C134.978 57.7505 134.995 59.1994 134.995 60.708C134.138 60.708 133.342 60.708 132.432 60.708C132.432 57.5866 132.432 54.4346 132.432 51.1497Z" fill="#B1C2C9"/>
<path d="M167.835 51.1505C168.792 51.1505 169.63 51.1505 170.545 51.1505C170.545 54.3524 170.545 57.5061 170.545 60.7078C169.67 60.668 168.79 60.6278 167.835 60.5843C167.835 57.4891 167.835 54.3689 167.835 51.1505Z" fill="#B1C2C9"/>
<path d="M78.6803 51.175C78.6803 54.3978 78.6803 57.525 78.6803 60.6625C77.8198 60.6625 77.0095 60.6625 76.0644 60.6625C76.0644 57.5566 76.0644 54.4036 76.0644 51.175C76.8594 51.175 77.7172 51.175 78.6803 51.175Z" fill="#B1C2C9"/>
<path d="M77.2709 45.8657C78.1644 45.8771 79.0048 46.7014 78.9144 47.4191C78.8042 48.2903 78.2969 48.9041 77.3917 49.0077C76.6057 49.0977 75.7767 48.2018 75.8342 47.3582C75.9001 46.3907 76.5836 46.0272 77.2709 45.8657Z" fill="#B1C2C9"/>
<path d="M170.649 47.4235C170.666 48.389 170.161 48.9165 169.225 48.9517C168.281 48.9871 167.776 48.4732 167.741 47.5178C167.706 46.5715 168.119 45.9894 169.096 45.9251C170.126 45.8574 170.626 46.359 170.649 47.4235Z" fill="#B1C2C9"/>
</g>
<defs>
<clipPath id="clip0_20449_176537">
<rect width="147.29" height="44.9807" fill="white" transform="translate(60.855 16.0096)"/>
</clipPath>
</defs>
</svg>
