<svg width="269" height="77" viewBox="0 0 269 77" fill="none" xmlns="http://www.w3.org/2000/svg">
<path fill-rule="evenodd" clip-rule="evenodd" d="M93.838 34.1767C93.8255 34.4303 93.8024 34.6837 93.8023 34.9373C93.8 38.525 93.7859 42.1129 93.8151 45.7005C93.8203 46.3286 93.6246 46.5358 93.0089 46.4759C92.5403 46.4303 92.0626 46.4482 91.5908 46.4715C91.1729 46.4921 91.0436 46.3154 91.0443 45.9194C91.0536 40.9723 91.0567 36.0252 91.0459 31.0781C91.045 30.6198 91.2346 30.5103 91.6538 30.5209C92.5093 30.5426 93.3672 30.5564 94.2213 30.5143C94.7011 30.4906 94.9503 30.6877 95.1853 31.0677C97.3235 34.5266 99.4767 37.9764 101.629 41.4272C101.812 41.7204 102.016 42.0005 102.365 42.2481C102.38 42.0201 102.407 41.7919 102.407 41.5637C102.41 38.132 102.419 34.7002 102.398 31.2686C102.395 30.7296 102.537 30.4816 103.115 30.5314C103.54 30.568 103.972 30.5636 104.398 30.5322C104.968 30.4903 105.188 30.6781 105.183 31.2835C105.157 34.6258 105.171 37.9685 105.173 41.3111C105.173 42.8265 105.164 44.3419 105.186 45.8569C105.194 46.3199 105.038 46.4926 104.563 46.4743C103.799 46.4447 103.03 46.4363 102.267 46.4772C101.765 46.5041 101.501 46.2993 101.254 45.8914C98.9923 42.1677 96.7117 38.4554 94.4339 34.7415C94.3032 34.5283 94.1481 34.3299 94.0043 34.1246C93.9488 34.142 93.8934 34.1593 93.838 34.1767ZM138.97 39.5142C140.348 41.8137 141.686 44.0471 143.078 46.3705C141.938 46.3705 140.897 46.3939 139.86 46.3461C139.698 46.3387 139.516 46.0261 139.402 45.8224C138.432 44.087 137.434 42.365 136.536 40.5936C136.157 39.8466 135.706 39.563 134.868 39.6276C133.837 39.7073 133.831 39.649 133.83 40.6558C133.829 42.3719 133.815 44.0882 133.839 45.8041C133.846 46.3032 133.671 46.4896 133.174 46.4601C132.702 46.4321 132.226 46.4284 131.755 46.461C131.219 46.4982 131.063 46.2893 131.067 45.765C131.087 42.4666 131.076 39.1679 131.075 35.8693C131.074 34.3316 131.102 32.7929 131.06 31.2562C131.043 30.6488 131.256 30.5056 131.835 30.5145C133.84 30.5457 135.845 30.5211 137.851 30.5271C140.213 30.5342 142.047 31.9695 142.539 34.1839C142.989 36.2121 141.898 38.178 139.776 39.1573C139.554 39.2599 139.329 39.3557 138.97 39.5142ZM133.832 35.0977C133.83 35.0977 133.829 35.0977 133.827 35.0977C133.827 35.6994 133.798 36.3032 133.844 36.9015C133.858 37.087 134.071 37.4119 134.194 37.4118C135.451 37.4106 136.727 37.475 137.959 37.2823C139.176 37.0921 139.857 35.9781 139.736 34.806C139.627 33.7465 138.738 32.899 137.594 32.8524C136.514 32.8086 135.431 32.8471 134.35 32.837C133.976 32.8336 133.822 32.9951 133.829 33.3594C133.84 33.9387 133.832 34.5183 133.832 35.0977ZM112.829 38.4981C112.829 36.0686 112.842 33.6389 112.819 31.2097C112.814 30.6886 112.961 30.5125 113.506 30.5165C116.593 30.539 119.68 30.5376 122.767 30.515C123.299 30.5111 123.471 30.6734 123.477 31.1975C123.496 32.9809 123.513 32.9805 121.724 32.9804C119.944 32.9801 118.163 32.9975 116.384 32.97C115.813 32.9611 115.56 33.1175 115.587 33.7214C115.625 34.589 115.623 35.4609 115.582 36.3283C115.553 36.9291 115.796 37.0888 116.372 37.0807C118.355 37.0532 120.338 37.0877 122.321 37.0596C122.878 37.0518 123.061 37.2202 123.059 37.7775C123.054 39.3919 123.076 39.3906 121.413 39.3892C119.7 39.388 117.988 39.4022 116.275 39.3825C115.786 39.3768 115.582 39.5345 115.591 40.0326C115.611 41.1244 115.612 42.2173 115.584 43.3089C115.571 43.8355 115.777 44.0093 116.298 44.0051C118.552 43.9871 120.805 44.0174 123.058 43.9851C123.679 43.9761 123.87 44.1655 123.862 44.7781C123.841 46.4646 123.866 46.4646 122.159 46.4649C119.297 46.4654 116.435 46.4503 113.574 46.4797C112.973 46.4859 112.807 46.3028 112.814 45.7197C112.844 43.3128 112.827 40.9053 112.827 38.4981C112.828 38.4981 112.829 38.4981 112.829 38.4981ZM172.333 46.4551C173.116 44.6321 173.796 43.0379 174.484 41.4471C175.952 38.0497 177.437 34.6589 178.884 31.2525C179.106 30.7301 179.356 30.4973 179.963 30.512C181.646 30.5528 181.648 30.5231 182.313 32.0591C184.272 36.5804 186.231 41.1021 188.188 45.6243C188.275 45.8247 188.344 46.0331 188.5 46.4498C187.5 46.4498 186.615 46.481 185.737 46.4224C185.569 46.4111 185.376 46.066 185.28 45.8394C183.782 42.3088 182.3 38.7722 180.811 35.2381C180.719 35.0201 180.604 34.8116 180.43 34.4553C180.217 34.9103 180.058 35.2204 179.924 35.5406C178.482 38.9732 177.035 42.404 175.614 45.8449C175.423 46.3056 175.185 46.5013 174.668 46.4669C173.957 46.4197 173.241 46.4551 172.333 46.4551ZM151.896 39.7037C151.896 37.6995 151.879 35.6951 151.907 33.6913C151.914 33.1285 151.711 32.9559 151.164 32.969C149.971 32.9976 148.777 32.9611 147.585 32.9846C147.112 32.994 146.945 32.8182 146.954 32.3627C146.993 30.1743 146.671 30.558 148.743 30.544C152.097 30.5212 155.452 30.5531 158.806 30.525C159.448 30.5196 159.664 30.6896 159.648 31.3464C159.607 32.9766 159.638 32.9776 157.959 32.9772C157.171 32.9771 156.383 32.9738 155.595 32.9744C154.655 32.9751 154.651 32.9762 154.651 33.884C154.65 37.7587 154.651 41.6336 154.651 45.5083C154.651 46.4627 154.651 46.4628 153.715 46.4649C153.31 46.4657 152.903 46.4411 152.5 46.4731C152.013 46.5115 151.885 46.3031 151.888 45.8499C151.906 43.8012 151.896 41.7525 151.896 39.7037ZM80.5146 38.499C80.5155 36.0955 80.5312 33.6916 80.5039 31.2884C80.4975 30.7275 80.6183 30.4523 81.2437 30.5204C81.8821 30.5898 82.73 30.3751 83.1073 30.7067C83.4328 30.9926 83.2485 31.8716 83.2497 32.4885C83.2586 36.8282 83.2576 41.168 83.259 45.5078C83.2594 46.4663 83.2584 46.4663 82.2583 46.4666C81.9432 46.4667 81.6236 46.4324 81.3143 46.4738C80.6358 46.5648 80.4917 46.264 80.5004 45.6429C80.5332 43.2619 80.5136 40.8804 80.5146 38.499ZM167.515 38.4898C167.515 40.9149 167.501 43.3402 167.527 45.7651C167.533 46.3246 167.349 46.5233 166.792 46.4731C166.345 46.433 165.891 46.4393 165.443 46.4715C164.954 46.5068 164.832 46.2909 164.833 45.8445C164.845 40.9498 164.849 36.0549 164.836 31.1601C164.834 30.6579 165.003 30.4814 165.501 30.5187C165.948 30.5523 166.403 30.5587 166.849 30.5178C167.405 30.4668 167.535 30.7116 167.531 31.2144C167.513 33.6394 167.523 36.0646 167.523 38.4898H167.515Z" fill="#B1C2C9"/>
</svg>
