<svg width="269" height="77" viewBox="0 0 269 77" fill="none" xmlns="http://www.w3.org/2000/svg">
<g clip-path="url(#clip0_20449_176549)">
<path d="M63.1846 28.9121C63.7285 28.8926 64.2554 29.0228 64.7719 29.1521C65.9472 29.446 67.0882 29.2416 68.2378 29.0178C68.686 28.9305 69.1328 28.7956 69.6002 28.8547C69.572 29.1503 69.5781 29.4387 69.7749 29.6871C69.737 29.827 69.5391 29.7327 69.4879 29.9004C69.9497 30.0116 70.397 30.1268 70.874 30.1501C71.5302 30.1822 71.5398 30.2186 71.5399 30.8553C71.5405 34.0993 71.5404 37.3432 71.5407 40.5872C71.5407 40.7102 71.5422 40.8332 71.543 40.9561C71.5442 41.1502 71.6313 41.2375 71.8325 41.2032C72.7398 41.0484 73.6475 40.8964 74.555 40.7434C74.5617 41.0922 74.5683 41.441 74.575 41.7898C73.7071 41.7702 72.8719 42.0005 72.0214 42.1139C71.6497 42.1634 71.5342 42.2987 71.5351 42.6663C71.548 47.3872 71.5478 52.1082 71.5509 56.8291C71.2481 56.8816 70.9583 56.8657 70.7034 56.6674C70.6989 56.226 70.4538 56.1471 70.0791 56.2438C69.8586 56.3008 69.6333 56.3394 69.3828 56.392C69.479 56.4735 69.5349 56.5209 69.5907 56.5682C69.5369 56.6353 69.4656 56.6311 69.3883 56.6274C68.9992 56.6083 68.9086 56.7926 69.0497 57.1323C69.0839 57.2147 69.111 57.3 69.1414 57.3839C68.3079 57.376 67.5032 57.1577 66.6941 57.0048C66.0901 56.8906 65.5355 57.022 64.9678 57.1199C64.1072 57.2681 63.2518 57.4449 62.377 57.4917C62.4431 57.1894 62.2735 56.9388 62.1958 56.6679C62.3735 56.4501 62.7032 56.6327 62.8857 56.4039C62.6747 56.2756 62.4331 56.3373 62.2122 56.2801C61.6736 56.1407 61.6349 56.1811 61.6557 56.742C61.3527 56.8915 61.0305 56.8598 60.7097 56.843C60.7178 56.6434 60.7331 56.4439 60.7332 56.2443C60.7356 51.9379 60.736 47.6314 60.7373 43.325C60.7377 42.2561 60.7424 42.2342 59.7071 42.0433C59.0465 41.9214 58.3879 41.7332 57.7019 41.8081C57.7009 41.4216 57.6998 41.0353 57.6988 40.6488C57.8462 40.7665 58.0098 40.8257 58.2015 40.8514C58.8414 40.9373 59.4787 41.0416 60.1163 41.1435C60.7071 41.2379 60.7402 41.2133 60.7404 40.598C60.7411 37.581 60.7399 34.564 60.7407 31.5468C60.7409 30.2429 60.7429 30.2461 62.047 30.0421C62.2595 30.0088 62.5282 30.0573 62.6128 29.7573C62.7166 29.7461 62.8221 29.7433 62.9236 29.7214C63.0679 29.6902 63.2607 29.8673 63.3426 29.7053C63.4352 29.5221 63.4297 29.2909 63.3164 29.0919C63.2799 29.0278 63.229 28.9718 63.1846 28.9121ZM70.6343 43.1742C70.6343 39.3093 70.629 35.4443 70.6421 31.5794C70.6435 31.1658 70.5485 30.985 70.0984 30.9361C69.2301 30.8417 68.3734 30.6438 67.5062 30.5346C66.9004 30.4585 66.3004 30.284 65.6759 30.39C64.5564 30.5801 63.4352 30.7591 62.3137 30.9368C61.6709 31.0387 61.6692 31.0334 61.6692 31.6697C61.6697 38.9222 61.6704 46.1747 61.6711 53.4273C61.6712 53.8892 61.683 54.3516 61.6683 54.813C61.6586 55.1172 61.7222 55.2749 62.0809 55.3192C62.9497 55.4266 63.81 55.6005 64.6756 55.7361C65.2062 55.8192 65.7523 55.9894 66.2701 55.9309C67.567 55.7846 68.8477 55.4978 70.1436 55.337C70.6001 55.2804 70.6392 55.0913 70.6384 54.7227C70.6295 50.8734 70.6329 47.0238 70.6343 43.1742Z" fill="#B1C2C9"/>
<path d="M55.8872 58.5631C55.8327 58.5695 55.7783 58.5759 55.7239 58.5823C55.5901 58.4781 55.4915 58.5054 55.4279 58.662C54.4967 58.8086 53.5632 58.9432 52.6355 59.1095C52.377 59.1559 52.1196 59.1502 51.8634 59.1843C51.7446 59.1236 51.6478 59.1566 51.5659 59.2536C51.4821 59.2645 51.3983 59.2753 51.3145 59.2861C51.1842 59.2234 51.0699 59.2346 50.9802 59.3588C50.5864 59.4235 50.1899 59.4751 49.8 59.5579C49.5787 59.6048 49.5212 59.5126 49.5173 59.3257C49.5157 59.2488 49.5157 59.1719 49.5157 59.0951C49.5156 55.3292 49.5152 51.5632 49.516 47.7972C49.5161 47.2739 49.5513 47.2454 50.0704 47.3465C50.3519 47.4013 50.6318 47.4643 50.9123 47.5235C50.939 47.6102 50.9744 47.628 51.0237 47.5379C51.1362 47.5407 51.2488 47.5435 51.3613 47.5463C51.475 47.7649 51.6475 47.7481 51.8365 47.6649C52.2213 47.7257 52.1637 47.4527 52.1638 47.2277C52.1649 44.9348 52.1637 42.642 52.1673 40.3491C52.1677 40.1368 52.0831 39.8379 52.4894 39.9216C52.5742 40.0114 52.6767 40.029 52.7916 39.9952C53.8588 40.164 54.926 40.3328 55.9933 40.5017C56.1051 40.7957 56.2235 41.0884 56.1877 41.4139C56.0383 41.4057 55.889 41.3977 55.7396 41.3896C55.6785 41.2278 55.5844 41.1901 55.4482 41.3125C55.3028 41.2975 55.1574 41.2824 55.012 41.2674C54.9382 41.1264 54.8378 41.1019 54.7097 41.1981C54.5862 41.1804 54.4626 41.1626 54.3391 41.145C54.249 41.0516 54.1449 41.0356 54.0283 41.0884C53.9064 41.0743 53.7844 41.0618 53.663 41.0457C53.1023 40.9716 53.1015 40.9712 53.1013 41.5362C53.1009 43.1455 53.0956 44.7548 53.1044 46.3641C53.1071 46.8679 53.0513 47.3743 53.1437 47.876C53.1406 48.1852 53.1375 48.4945 53.1343 48.8037C53.1239 51.8131 53.1134 54.8223 53.103 57.8317C53.1029 57.847 53.1034 57.8625 53.1044 57.8777C53.113 58.0021 53.1543 58.0759 53.304 58.05C53.8145 57.9618 54.3263 57.8814 54.8376 57.7981C55.1333 57.7548 55.4509 57.8754 55.7261 57.6794C55.8829 57.692 56.0407 57.7162 56.1911 57.644C56.185 57.982 56.2365 58.3388 55.8872 58.5631ZM51.5284 48.4934C51.2063 48.4487 50.8841 48.4039 50.5621 48.3592C50.236 48.4136 50.3764 48.6744 50.3759 48.8387C50.3668 51.9196 50.3691 55.0005 50.3705 58.0813C50.3706 58.2039 50.3603 58.3345 50.3974 58.4473C50.4512 58.6112 50.5591 58.6129 50.6651 58.4772C51.0453 58.4245 51.425 58.3668 51.806 58.3207C52.0576 58.2903 52.1711 58.1866 52.1704 57.907C52.1615 54.9102 52.1636 51.9133 52.1691 48.9164C52.1695 48.6954 52.1111 48.5597 51.8739 48.5474C51.7759 48.4189 51.6589 48.413 51.5284 48.4934Z" fill="#B1C2C9"/>
<path d="M63.1848 28.9121C63.2291 28.9719 63.2801 29.0279 63.3167 29.0921C63.43 29.2911 63.4354 29.5223 63.3428 29.7055C63.2609 29.8675 63.0682 29.6905 62.9239 29.7216C62.8224 29.7435 62.7168 29.7463 62.613 29.7576C62.3819 29.5904 62.1007 29.6988 61.8535 29.6196C61.8173 29.4918 61.7498 29.4598 61.642 29.5501C61.4675 29.5326 61.2929 29.5151 61.1183 29.4976C61.062 29.395 60.9816 29.3723 60.8784 29.4252C60.7629 29.4139 60.6476 29.4027 60.5321 29.3914C60.4438 29.305 60.3433 29.2845 60.2295 29.3353C59.5993 29.2457 58.9691 29.1561 58.339 29.0665C57.9482 28.8541 57.8401 28.867 57.6977 29.1431C57.6982 32.9784 57.6987 36.8137 57.699 40.649C57.7 41.0355 57.7011 41.4218 57.7022 41.8083C57.7011 46.9369 57.7002 52.0654 57.6992 57.194C57.6901 57.4251 57.8198 57.3609 57.9438 57.309C58.0293 57.3012 58.1148 57.2935 58.2003 57.2858C58.2821 57.3171 58.3533 57.3088 58.406 57.2311C59.1739 57.1018 59.9419 56.9725 60.7099 56.8433C61.0306 56.8601 61.3529 56.8918 61.6559 56.7423C61.8472 56.8 62.0119 56.6641 62.196 56.6682C62.2736 56.939 62.4431 57.1896 62.3771 57.492C62.265 57.5066 62.1528 57.5211 62.0407 57.5357C61.8786 57.4578 61.7361 57.485 61.6128 57.6154C61.5596 57.6263 61.5065 57.6372 61.4533 57.6481C61.269 57.5465 61.1074 57.566 60.9742 57.7378C60.8884 57.7482 60.8026 57.7585 60.7167 57.7688C60.6117 57.6846 60.5514 57.7267 60.5161 57.8397C59.332 58.0231 58.1479 58.2065 56.9637 58.3899C56.5529 58.1744 56.7867 57.7935 56.732 57.4867C56.7433 57.3496 56.7646 57.2124 56.7646 57.0753C56.7662 52.0439 56.7664 47.0125 56.7641 41.981C56.764 41.8292 56.7357 41.6774 56.7206 41.5257C56.7271 41.2101 56.7337 40.8944 56.7403 40.5787C56.7489 40.3949 56.7649 40.211 56.765 40.0271C56.7664 36.1472 56.7743 32.2675 56.7548 28.3878C56.7526 27.9423 56.8985 27.8538 57.2828 27.9351C57.5526 27.9921 57.8273 28.0261 58.0998 28.0703C58.1513 28.1728 58.2242 28.1802 58.313 28.1187C58.3676 28.1264 58.4222 28.1342 58.4768 28.142C58.6274 28.2867 58.8047 28.2923 58.993 28.2416C59.044 28.2563 59.0948 28.2711 59.1457 28.2858C59.284 28.4736 59.4583 28.402 59.6295 28.3529C60.8145 28.5391 61.9996 28.7256 63.1848 28.9121Z" fill="#B1C2C9"/>
<path d="M80.3967 59.1705C79.4314 59.1391 78.504 58.8546 77.5505 58.7438C77.3384 58.7192 77.127 58.6889 76.9152 58.6613C76.8508 58.5042 76.7512 58.4784 76.6173 58.5818C76.5632 58.5758 76.5092 58.5697 76.4552 58.5637C76.1351 58.326 76.0946 57.9727 76.0632 57.6157C76.2472 57.6241 76.4311 57.6325 76.6151 57.6408C76.8829 57.9211 77.2549 57.7277 77.5578 57.8484C77.9989 57.9032 78.4459 57.9306 78.8791 58.0225C79.1743 58.085 79.2127 57.9883 79.2119 57.7335C79.2017 54.7613 79.1994 51.7891 79.1951 48.8169C79.1919 48.4996 79.1888 48.1823 79.1856 47.8651C79.1931 45.6571 79.1965 43.4492 79.2131 41.2413C79.2152 40.9625 79.1006 40.9552 78.8802 40.9906C77.9742 41.1362 77.0659 41.2682 76.1584 41.4052C76.162 41.1071 76.1656 40.8091 76.1691 40.511C77.3186 40.3242 78.4711 40.1536 79.6159 39.9415C80.0124 39.868 80.1469 39.9148 80.1432 40.3636C80.1231 42.7743 80.137 45.1852 80.1391 47.5962C80.1413 47.9433 80.1436 48.2904 80.1458 48.6375C80.1416 51.7595 80.1373 54.8816 80.1338 58.0036C80.1337 58.0942 80.1236 58.1903 80.2074 58.2578C80.331 58.4881 80.5027 58.4417 80.6839 58.3405C80.7697 58.3477 80.8557 58.3549 80.9416 58.3621C81.0717 58.5639 81.2419 58.5352 81.4227 58.4456C81.5552 58.4433 81.6876 58.4411 81.8202 58.4388C81.9889 58.3369 81.9376 58.1665 81.9377 58.022C81.9411 54.9445 81.9416 51.867 81.936 48.7895C81.9357 48.6384 82.0067 48.4371 81.7769 48.3611C81.4448 48.4008 81.1126 48.4407 80.7804 48.4804C80.7252 48.141 80.7247 47.8129 80.9752 47.5366C81.0323 47.532 81.0895 47.5273 81.1466 47.5227C81.2251 47.579 81.2974 47.5819 81.3597 47.4982C81.6921 47.4389 82.0259 47.3871 82.3564 47.3184C82.6692 47.2534 82.7873 47.3404 82.7844 47.6857C82.7689 49.515 82.7772 51.3445 82.7772 53.1739C82.7772 55.1109 82.7774 57.048 82.7771 58.985C82.777 59.5771 82.7765 59.5779 82.1883 59.5079C82.0971 59.4971 82.0073 59.475 81.9169 59.4581C81.8614 59.3648 81.7914 59.3411 81.7013 59.4129C81.6182 59.4012 81.535 59.3897 81.4519 59.378C81.3094 59.2091 81.13 59.2217 80.9424 59.2743C80.8869 59.2672 80.8315 59.26 80.776 59.2529C80.669 59.1363 80.5417 59.1127 80.3967 59.1705Z" fill="#B1C2C9"/>
<path d="M74.5753 41.7898C74.5687 41.4411 74.562 41.0922 74.5554 40.7435C74.5621 40.6979 74.5748 40.6523 74.5749 40.6067C74.5777 36.8409 74.5762 33.075 74.5873 29.3092C74.5883 28.9548 74.431 28.9267 74.161 29.0034C74.0536 28.9445 73.9666 28.9538 73.9135 29.0771C73.7976 29.0899 73.6817 29.1026 73.5658 29.1155C73.4452 29.0327 73.3442 29.0422 73.2698 29.1779C72.6114 29.2725 71.9531 29.367 71.2948 29.4616C71.1914 29.3947 71.1086 29.4198 71.0421 29.5181C70.6198 29.5744 70.1976 29.6307 69.7752 29.6871C69.5784 29.4387 69.5723 29.1503 69.6005 28.8547C71.4461 28.5431 73.2916 28.2309 75.1375 27.9218C75.2273 27.9067 75.3216 27.919 75.4138 27.9185C75.4233 28.1179 75.4407 28.3173 75.4408 28.5167C75.4426 33.0797 75.4425 37.6427 75.4425 42.2057C75.4425 47.023 75.4419 51.8403 75.4429 56.6576C75.443 56.9948 75.4494 57.3278 75.5176 57.6655C75.5663 57.9071 75.6733 58.2357 75.2929 58.3701C73.6343 58.1 71.9758 57.8291 70.317 57.5606C69.926 57.4974 69.5336 57.4429 69.1418 57.3842C69.1115 57.3003 69.0843 57.215 69.0501 57.1326C68.9091 56.7929 68.9997 56.6086 69.3887 56.6277C69.466 56.6314 69.5374 56.6356 69.5912 56.5685C69.9661 56.5562 70.323 56.7453 70.7037 56.6676C70.9587 56.866 71.2485 56.8818 71.5513 56.8294C72.4544 56.9859 73.3566 57.1483 74.2612 57.296C74.594 57.3503 74.5823 57.1036 74.5822 56.8795C74.5795 51.8494 74.5775 46.8196 74.5753 41.7898Z" fill="#B1C2C9"/>
<path d="M64.1541 19.9797C64.6835 19.2812 65.3771 18.7402 65.9665 18.0986C66.1752 17.8714 66.32 18.0894 66.4573 18.2267C67.5891 19.3582 68.7208 20.4899 69.8501 21.6239C71.5437 23.3245 73.2359 25.0266 74.9262 26.7304C75.0076 26.8125 75.1354 26.8728 75.1189 27.0533C73.9356 27.1887 72.7567 27.3972 71.5832 27.5998C70.1952 27.8395 68.79 28.007 67.4172 28.3302C66.381 28.5742 65.3713 28.4255 64.3561 28.2396C64.3031 28.2298 64.2582 28.1752 64.2096 28.1415C64.6122 27.7448 64.599 27.6031 64.1235 27.2191C64.4244 27.1629 64.6938 27.2671 64.9697 27.3682C65.3813 27.5187 65.6718 27.4148 65.6726 27.1196C65.6792 24.81 65.6771 22.5003 65.6748 20.1906C65.6747 20.1189 65.6681 20.0152 65.6233 19.9821C65.5229 19.908 65.4655 20.0224 65.4004 20.0792C65.1482 20.2991 64.9698 20.6032 64.645 20.7403C64.4589 20.5014 64.6181 20.0394 64.1541 19.9797ZM66.8089 19.8662C66.7532 19.9038 66.6974 19.9414 66.6416 19.9791C66.6416 22.3627 66.6428 24.7464 66.6401 27.13C66.6398 27.4247 66.8226 27.397 67.0163 27.3667C68.9279 27.0676 70.8397 26.7691 72.751 26.4675C72.8681 26.449 73.0296 26.4725 73.0782 26.3412C73.1411 26.1709 72.9537 26.1161 72.8644 26.0264C71.5112 24.668 70.148 23.3194 68.7996 21.9563C68.123 21.2724 67.4716 20.5637 66.8089 19.8662Z" fill="#B1C2C9"/>
<path d="M64.154 19.9797C64.6181 20.0393 64.4588 20.5014 64.6451 20.7404C64.2634 21.139 63.8879 21.5438 63.499 21.9352C62.117 23.3254 60.7327 24.7131 59.3435 26.096C59.1411 26.2974 59.1166 26.4075 59.4386 26.4587C60.7849 26.6727 62.1306 26.8905 63.4766 27.107C63.5468 27.2554 63.6381 27.303 63.7677 27.168C63.8863 27.1851 64.0049 27.2022 64.1235 27.2193C64.599 27.6033 64.6122 27.7451 64.2096 28.1417C64.0932 28.1297 63.9768 28.1176 63.8603 28.1055C63.7958 28.0412 63.7253 28.0095 63.639 28.0654C61.474 27.7313 59.3089 27.3973 57.1786 27.0686C59.5003 24.7089 61.8272 22.3443 64.154 19.9797Z" fill="#B1C2C9"/>
<path d="M75.2925 58.3698C75.673 58.2354 75.5659 57.9068 75.5172 57.6653C75.449 57.3276 75.4425 56.9946 75.4425 56.6573C75.4415 51.84 75.4421 47.0228 75.4421 42.2054C75.4421 37.6424 75.4421 33.0795 75.4404 28.5164C75.4403 28.317 75.4229 28.1177 75.4134 27.9183C75.6959 28.0169 75.564 28.2574 75.5644 28.4275C75.5729 32.2658 75.5707 36.1042 75.5711 39.9425C75.5712 40.5828 75.5725 40.5828 76.1687 40.511C76.1652 40.8091 76.1616 41.1071 76.1581 41.4052C75.6071 41.4803 75.5599 41.8367 75.5615 42.3166C75.5782 47.136 75.5764 51.9555 75.5626 56.7749C75.5614 57.1903 75.5965 57.5123 76.063 57.6155C76.0943 57.9725 76.1348 58.3258 76.4549 58.5635C76.0502 58.6021 75.671 58.4886 75.2925 58.3698Z" fill="#B1C2C9"/>
<path d="M80.9754 47.5367C80.7249 47.813 80.7253 48.141 80.7806 48.4805C80.6074 48.688 80.3516 48.5619 80.1458 48.6376C80.1436 48.2905 80.1414 47.9434 80.1392 47.5963C80.4245 47.6695 80.6911 47.4794 80.9754 47.5367Z" fill="#B1C2C9"/>
<path d="M56.7319 57.4863C56.7866 57.7931 56.5529 58.1741 56.9637 58.3894C56.6116 58.489 56.263 58.6103 55.8871 58.563C56.2366 58.3388 56.1851 57.982 56.1911 57.6441C56.3472 57.5086 56.5306 57.4669 56.7319 57.4863Z" fill="#B1C2C9"/>
<path d="M56.7401 40.5784C56.7335 40.8941 56.727 41.2098 56.7204 41.5254C56.5279 41.5597 56.3405 41.57 56.1877 41.4141C56.2235 41.0887 56.1051 40.796 55.9933 40.502C56.2422 40.5274 56.4911 40.5529 56.7401 40.5784Z" fill="#B1C2C9"/>
<path d="M60.9743 57.7375C61.1074 57.5656 61.2691 57.5461 61.4534 57.6478C61.3155 57.7943 61.1473 57.7783 60.9743 57.7375Z" fill="#B1C2C9"/>
<path d="M51.8362 47.665C51.6472 47.7482 51.4747 47.765 51.361 47.5464C51.5354 47.5216 51.6993 47.5391 51.8362 47.665Z" fill="#B1C2C9"/>
<path d="M80.9422 59.2744C81.1297 59.2218 81.3092 59.2091 81.4517 59.3781C81.2653 59.4248 81.0897 59.4188 80.9422 59.2744Z" fill="#B1C2C9"/>
<path d="M58.993 28.2412C58.8047 28.2919 58.6273 28.2864 58.4767 28.1416C58.6631 28.1011 58.8434 28.0915 58.993 28.2412Z" fill="#B1C2C9"/>
<path d="M59.6293 28.3526C59.4582 28.4016 59.2838 28.4733 59.1455 28.2855C59.324 28.1839 59.4815 28.2332 59.6293 28.3526Z" fill="#B1C2C9"/>
<path d="M80.3968 59.1706C80.5418 59.1127 80.6691 59.1363 80.7761 59.253C80.6304 59.3145 80.4992 59.3086 80.3968 59.1706Z" fill="#B1C2C9"/>
<path d="M61.6129 57.6151C61.7362 57.4847 61.8786 57.4575 62.0407 57.5354C61.9197 57.6779 61.7705 57.669 61.6129 57.6151Z" fill="#B1C2C9"/>
<path d="M52.7916 39.9953C52.6767 40.0292 52.5743 40.0115 52.4894 39.9217C52.6127 39.8537 52.7127 39.8813 52.7916 39.9953Z" fill="#B1C2C9"/>
<path d="M50.9803 59.3588C51.0701 59.2347 51.1843 59.2235 51.3147 59.2862C51.2231 59.4024 51.1102 59.4197 50.9803 59.3588Z" fill="#B1C2C9"/>
<path d="M51.5659 59.2538C51.6478 59.1567 51.7448 59.1238 51.8635 59.1845C51.7895 59.3154 51.6833 59.3086 51.5659 59.2538Z" fill="#B1C2C9"/>
<path d="M76.6171 58.5818C76.751 58.4784 76.8506 58.5041 76.915 58.6613C76.7987 58.6982 76.6997 58.6705 76.6171 58.5818Z" fill="#B1C2C9"/>
<path d="M55.4279 58.662C55.4916 58.5054 55.5901 58.4781 55.724 58.5823C55.6404 58.6651 55.5428 58.6956 55.4279 58.662Z" fill="#B1C2C9"/>
<path d="M81.7011 59.4128C81.7911 59.341 81.8612 59.3647 81.9166 59.458C81.8331 59.4988 81.7638 59.4719 81.7011 59.4128Z" fill="#B1C2C9"/>
<path d="M60.5161 57.8394C60.5515 57.7264 60.6118 57.6843 60.7167 57.7685C60.6656 57.8367 60.6025 57.8707 60.5161 57.8394Z" fill="#B1C2C9"/>
<path d="M58.313 28.1183C58.2243 28.1799 58.1513 28.1725 58.0998 28.07C58.1822 28.0362 58.2517 28.059 58.313 28.1183Z" fill="#B1C2C9"/>
<path d="M81.3597 47.4982C81.2974 47.582 81.225 47.579 81.1466 47.5227C81.2133 47.4773 81.2839 47.4644 81.3597 47.4982Z" fill="#B1C2C9"/>
<path d="M63.639 28.0654C63.7253 28.0096 63.7958 28.0413 63.8603 28.1055C63.7731 28.1661 63.6984 28.1586 63.639 28.0654Z" fill="#B1C2C9"/>
<path d="M51.0237 47.5381C50.9743 47.6282 50.9388 47.6103 50.9123 47.5237C50.9494 47.5285 50.9865 47.5334 51.0237 47.5381Z" fill="#B1C2C9"/>
<path d="M54.8376 57.7983C54.8332 55.097 54.8287 52.3955 54.8241 49.6942C54.823 49.0375 54.8187 49.0217 54.1704 48.9696C53.8191 48.9415 53.4927 48.7751 53.1343 48.8041C53.1374 48.4949 53.1406 48.1856 53.1437 47.8764C53.8685 47.8865 54.5673 48.0768 55.2787 48.1809C55.6423 48.234 55.7268 48.429 55.7251 48.7797C55.7109 51.5312 55.7172 54.2828 55.718 57.0344C55.7181 57.2495 55.7232 57.4647 55.7261 57.6798C55.4508 57.8757 55.1333 57.7551 54.8376 57.7983Z" fill="#B1C2C9"/>
<path d="M50.5623 48.3592C50.5477 48.5421 50.5208 48.7249 50.5207 48.9077C50.5183 51.899 50.518 54.8901 50.5227 57.8814C50.523 58.0861 50.4505 58.3192 50.6651 58.4773C50.5591 58.613 50.4512 58.6113 50.3974 58.4475C50.3604 58.3346 50.3706 58.2041 50.3705 58.0814C50.3692 55.0005 50.3668 51.9197 50.376 48.8389C50.3766 48.6744 50.2361 48.4137 50.5623 48.3592Z" fill="#B1C2C9"/>
<path d="M51.8738 48.5475C51.7447 48.6186 51.6273 48.6153 51.5285 48.4934C51.659 48.413 51.776 48.4189 51.8738 48.5475Z" fill="#B1C2C9"/>
<path d="M55.7397 41.3898C55.6256 41.4285 55.5249 41.416 55.4483 41.3127C55.5846 41.1903 55.6785 41.2279 55.7397 41.3898Z" fill="#B1C2C9"/>
<path d="M55.0122 41.2676C54.8952 41.315 54.7923 41.3016 54.7099 41.1983C54.838 41.1021 54.9384 41.1266 55.0122 41.2676Z" fill="#B1C2C9"/>
<path d="M54.3392 41.1452C54.2187 41.2192 54.1128 41.2125 54.0284 41.0886C54.1449 41.0358 54.2491 41.0518 54.3392 41.1452Z" fill="#B1C2C9"/>
<path d="M58.3388 29.0664C58.1319 29.1496 57.8901 28.9397 57.6976 29.143C57.8399 28.8669 57.9481 28.854 58.3388 29.0664Z" fill="#B1C2C9"/>
<path d="M60.532 29.3913C60.4154 29.4572 60.3107 29.4589 60.2293 29.3352C60.3431 29.2844 60.4437 29.3049 60.532 29.3913Z" fill="#B1C2C9"/>
<path d="M57.6992 57.1938C57.7807 57.2322 57.8622 57.2705 57.9438 57.3088C57.8198 57.3608 57.69 57.425 57.6992 57.1938Z" fill="#B1C2C9"/>
<path d="M61.8532 29.6195C61.7655 29.6488 61.6968 29.6205 61.6418 29.55C61.7495 29.4597 61.8171 29.4917 61.8532 29.6195Z" fill="#B1C2C9"/>
<path d="M61.1183 29.4976C61.0143 29.5529 60.9376 29.5178 60.8784 29.4252C60.9816 29.3723 61.062 29.395 61.1183 29.4976Z" fill="#B1C2C9"/>
<path d="M58.2 57.2857C58.251 57.2015 58.3132 57.1593 58.4057 57.231C58.3529 57.3087 58.2818 57.317 58.2 57.2857Z" fill="#B1C2C9"/>
<path d="M79.1949 48.8168C78.6794 48.722 78.2188 49.0167 77.7153 49.0249C77.4513 49.0292 77.4711 49.2533 77.4708 49.4373C77.4689 50.3426 77.4695 51.2479 77.4694 52.1531C77.4693 53.841 77.4702 55.5288 77.4685 57.2167C77.4684 57.4324 77.4697 57.646 77.5577 57.8483C77.2547 57.7275 76.8827 57.921 76.615 57.6407C76.6123 54.654 76.6116 51.6673 76.6037 48.6807C76.603 48.4173 76.6471 48.2629 76.9588 48.2142C77.701 48.0984 78.4267 47.8784 79.1855 47.8651C79.1886 48.1823 79.1917 48.4996 79.1949 48.8168Z" fill="#B1C2C9"/>
<path d="M81.8202 58.4389C81.8142 55.3401 81.8087 52.2412 81.8011 49.1424C81.8005 48.882 81.7853 48.6216 81.777 48.3612C82.0067 48.4372 81.9358 48.6386 81.9361 48.7896C81.9417 51.8671 81.9412 54.9446 81.9378 58.0221C81.9375 58.1667 81.9889 58.337 81.8202 58.4389Z" fill="#B1C2C9"/>
<path d="M80.2072 58.2579C80.3789 58.2116 80.5372 58.2421 80.6837 58.3406C80.5025 58.4418 80.3308 58.4882 80.2072 58.2579Z" fill="#B1C2C9"/>
<path d="M80.9415 58.3621C81.1136 58.323 81.2767 58.3348 81.4227 58.4457C81.2419 58.5351 81.0717 58.5639 80.9415 58.3621Z" fill="#B1C2C9"/>
<path d="M73.5657 29.1154C73.481 29.2027 73.3802 29.2131 73.2697 29.1778C73.3441 29.0421 73.4452 29.0326 73.5657 29.1154Z" fill="#B1C2C9"/>
<path d="M71.2947 29.4615C71.2293 29.5643 71.1432 29.5749 71.0421 29.518C71.1085 29.4197 71.1914 29.3947 71.2947 29.4615Z" fill="#B1C2C9"/>
<path d="M74.1608 29.0033C74.1013 29.1049 74.0143 29.1144 73.9134 29.077C73.9664 28.9538 74.0535 28.9444 74.1608 29.0033Z" fill="#B1C2C9"/>
<path d="M63.4767 27.1069C63.5846 27.0752 63.6877 27.0666 63.7677 27.1679C63.6381 27.3029 63.5468 27.2553 63.4767 27.1069Z" fill="#B1C2C9"/>
<path d="M208.554 51.2199C209.323 51.0174 209.561 50.5149 209.537 49.7371C209.489 48.1774 209.513 46.6151 209.533 45.0542C209.539 44.6014 209.368 43.9476 210.134 43.957C210.779 43.9648 210.698 44.5345 210.699 44.9688C210.706 47.065 210.685 49.1618 210.71 51.2577C210.718 51.937 210.424 52.2501 209.78 52.2864C209.246 52.3165 208.699 52.4209 208.18 52.3428C206.127 52.0331 204.099 51.6088 202.026 52.3331C201.488 52.5211 200.779 52.4303 200.303 51.8959C200.378 51.4866 200.453 51.0773 200.528 50.6679C201.478 51.2752 202.495 50.893 203.482 50.9317C203.601 50.4354 203.221 50.2514 203.019 49.9922C202.037 48.7296 202.204 48.0843 203.733 47.6175C204.275 47.452 204.878 47.3819 205.443 47.4217C206.957 47.5283 207.524 48.409 206.691 49.646C205.775 51.0053 206.352 51.1377 207.539 51.0955C207.666 51.0909 207.795 51.1535 207.923 51.1849C207.74 52.1196 207.782 52.1384 209.104 51.7124C208.921 51.5483 208.737 51.384 208.554 51.2199ZM204.741 48.3418C204.361 48.4895 203.591 48.377 203.707 49.0087C203.805 49.5448 204.302 50.221 204.959 50.1877C205.449 50.1627 205.931 49.6527 205.893 49.0525C205.853 48.4181 205.289 48.384 204.741 48.3418Z" fill="#B1C2C9"/>
<path d="M166.733 48.1122C166.733 49.0962 166.7 50.0816 166.744 51.0638C166.778 51.8293 166.562 52.2244 165.712 52.2286C164.192 52.2364 162.673 52.3229 161.153 52.378C160.628 52.397 160.13 52.3731 160.142 51.6539C160.153 51.0211 160.604 50.9124 161.073 50.9991C162.576 51.2765 162.819 50.4748 162.703 49.2424C162.636 48.533 162.684 47.8119 162.697 47.0967C162.704 46.7022 162.649 46.2056 163.223 46.1857C163.872 46.1631 163.856 46.693 163.863 47.1418C163.877 48.081 163.887 49.0205 163.87 49.9594C163.858 50.6591 164.094 51.0491 164.87 51.0488C165.667 51.0485 165.688 50.546 165.687 49.9742C165.684 48.3192 165.679 46.6643 165.696 45.0093C165.7 44.639 165.556 44.1007 166.15 44.0615C166.859 44.0148 166.717 44.6121 166.726 45.026C166.746 46.0543 166.732 47.0833 166.733 48.1122Z" fill="#B1C2C9"/>
<path d="M189.55 49.0732C189.987 49.2403 189.926 49.6292 189.944 49.9754C189.969 50.4457 190.031 50.8711 190.623 50.9517C191.188 51.0285 191.431 50.6613 191.615 50.2397C192.114 49.1009 192.856 48.1896 193.99 47.6372C195.79 46.76 197.556 47.7508 197.763 49.7595C197.799 50.1124 197.741 50.4758 197.784 50.8273C197.913 51.8672 197.492 52.2193 196.435 52.2357C193.951 52.2741 191.468 52.5108 189.007 51.9658C189.48 51.5874 189.852 51.2396 189.535 50.5018C189.363 50.1016 189.534 49.554 189.55 49.0732ZM194.491 51.0704C194.826 51.0704 195.095 51.0956 195.357 51.065C195.846 51.0075 196.526 51.3102 196.724 50.6055C196.926 49.8835 196.714 49.1981 196.11 48.693C195.35 48.0567 194.607 48.2793 193.948 48.835C193.366 49.3263 192.366 49.7425 192.661 50.6356C192.929 51.448 193.92 50.8679 194.491 51.0704Z" fill="#B1C2C9"/>
<path d="M122.077 51.1754C122.666 50.885 123.294 51.0419 123.905 51.0277C125.078 51.0005 125.341 50.6648 124.879 49.5953C124.676 49.1259 124.297 48.7327 123.998 48.3048C124.099 48.1182 124.201 47.9315 124.303 47.7449C125.564 47.5037 125.613 48.4765 125.792 49.2706C126.016 50.2574 126.165 51.1705 127.592 51.0352C128.468 50.9522 128.774 50.6635 128.76 49.8277C128.735 48.2197 128.745 46.6109 128.77 45.003C128.776 44.6458 128.603 44.074 129.207 44.0643C129.774 44.0552 129.711 44.5966 129.713 44.9809C129.725 47.0361 129.715 49.0912 129.719 51.1464C129.721 52.4825 128.639 52.4828 127.827 52.4817C126.618 52.4804 125.409 52.2107 124.201 52.0552C123.8 51.0212 122.617 51.8726 122.077 51.1754Z" fill="#B1C2C9"/>
<path d="M114.936 35.3799C115.174 34.395 115.452 33.4174 115.632 32.4221C115.714 31.966 115.857 31.6411 116.316 31.5847C116.821 31.5229 116.994 31.8884 117.108 32.3111C117.425 33.4872 117.642 34.7028 118.339 35.7731C118.965 35.5034 118.848 34.9496 118.962 34.5084C119.175 33.6879 119.369 32.862 119.601 32.0471C119.749 31.5275 120.189 31.5567 120.59 31.6467C120.971 31.7324 120.862 32.0302 120.79 32.2902C120.303 34.0499 119.811 35.8085 119.333 37.5707C119.194 38.0834 118.994 38.4607 118.364 38.4814C117.682 38.5037 117.614 38.0853 117.483 37.568C117.201 36.4588 116.829 35.3724 116.475 34.2146C115.894 34.807 116.254 35.794 115.463 36.1821C115.289 35.9133 115.394 35.4615 114.936 35.3799Z" fill="#B1C2C9"/>
<path d="M143.024 51.178C144.303 51.1565 144.692 50.4598 144.496 49.2811C144.446 48.9781 144.492 48.6577 144.505 48.3459C144.521 47.9728 144.727 47.7701 145.098 47.7693C145.416 47.7685 145.61 47.9669 145.613 48.2667C145.622 49.4253 145.639 50.5855 145.583 51.7418C145.558 52.2765 145.036 52.2504 144.649 52.2931C143.35 52.4363 142.053 52.4481 140.852 51.8433C140.506 51.6692 140.162 51.712 139.821 51.6378C139.827 51.3445 139.834 51.0515 139.84 50.7582C140.97 50.1421 140.255 49.0998 140.416 48.2599C140.416 48.0515 140.416 47.8431 140.416 47.6347C140.363 47.1698 140.494 46.8429 141.032 46.8416C141.647 46.8402 141.572 47.3041 141.58 47.6914C141.596 48.4423 141.609 49.194 141.597 49.945C141.588 50.5434 141.81 50.9688 142.388 51.1788C142.237 52.1084 142.498 52.2002 143.913 51.6974C143.606 51.518 143.315 51.348 143.024 51.178Z" fill="#B1C2C9"/>
<path d="M210.234 31.6135C211.258 31.6057 212.282 31.5899 213.306 31.5945C213.662 31.5961 214.074 31.6001 214.074 32.112C214.075 32.5154 213.744 32.6578 213.426 32.6285C211.942 32.4915 211.899 33.409 211.956 34.4986C212.01 35.5227 211.963 36.5518 211.962 37.5789C211.962 38.0628 211.892 38.4985 211.265 38.4915C210.613 38.4842 210.616 37.9957 210.611 37.5426C210.599 36.5158 210.555 35.4859 210.613 34.4623C210.677 33.3534 210.471 32.5963 209.111 32.7869C208.826 32.8267 208.448 32.8347 208.439 32.358C209.105 32.2731 210.085 32.9433 210.234 31.6135Z" fill="#B1C2C9"/>
<path d="M101.487 33.4619C102.103 33.829 102.267 34.5085 102.6 35.0712C102.734 35.2979 102.868 35.5804 103.181 35.5162C103.516 35.4477 103.489 35.1193 103.494 34.8641C103.509 34.1083 103.481 33.3512 103.514 32.5968C103.531 32.1974 103.356 31.6055 104.079 31.6329C104.665 31.6552 104.601 32.1537 104.605 32.5356C104.62 34.1809 104.618 35.8264 104.611 37.4717C104.61 37.8625 104.667 38.3164 104.116 38.4198C103.659 38.5057 103.202 38.4818 102.92 38.0492C102.253 37.0237 101.443 36.0695 101.21 34.8134C101.902 34.4854 101.269 33.8865 101.487 33.4619Z" fill="#B1C2C9"/>
<path d="M181.499 49.3116C181.448 49.068 181.595 48.9269 181.766 48.7991C181.86 48.6592 181.954 48.5192 182.048 48.3796C183.52 47.0837 185.312 47.503 185.625 49.3766C185.849 50.7114 186.279 51.2724 187.63 51.0014C187.806 50.966 188.023 51.1363 188.222 51.2112C188.026 51.7782 187.207 51.216 186.953 51.9205C187.636 51.9825 188.227 52.036 188.818 52.0897C188.614 52.4112 188.247 52.4531 187.98 52.3618C186.176 51.743 184.331 52.1149 182.504 52.0596C182.169 52.0494 181.841 51.8278 181.509 51.7038C181.607 51.3503 181.704 50.9969 181.802 50.6434C182.35 50.9571 182.948 51.1226 183.572 51.1051C184.171 51.0884 184.767 50.9598 184.775 50.1804C184.783 49.4313 184.43 48.9127 183.652 48.7717C183.067 48.6656 182.675 49.097 182.209 49.3201C181.973 49.3169 181.736 49.3142 181.499 49.3116Z" fill="#B1C2C9"/>
<path d="M139.503 35.9143C139.443 36.7077 139.384 37.5008 139.324 38.2941C138.979 38.2941 138.634 38.2941 138.289 38.2941C138.007 36.2951 138.236 34.2859 138.167 32.2826C138.145 31.6512 138.511 31.5515 139.023 31.5797C139.826 31.624 140.63 31.6493 141.434 31.6826C141.361 31.9643 141.289 32.2458 141.217 32.5275C140.912 32.5426 140.606 32.5802 140.303 32.5681C139.516 32.5369 139.385 32.9876 139.391 33.6531C139.397 34.3627 139.477 34.9034 140.393 34.6898C140.246 35.238 140.988 35.0261 141.052 35.397C140.534 35.6497 139.862 35.3001 139.503 35.9143Z" fill="#B1C2C9"/>
<path d="M169.668 31.6285C171.976 31.3656 173.174 32.108 173.552 34.0363C173.995 36.29 173.074 38.0164 171.111 38.5589C170.617 38.6953 170.074 38.9166 169.643 38.383C170.218 38.1101 169.838 37.7843 169.694 37.4714C170.746 37.3715 171.839 37.4338 172.194 36.0249C172.721 33.9375 171.91 32.7918 169.655 32.5997C169.659 32.2761 169.664 31.9524 169.668 31.6285Z" fill="#B1C2C9"/>
<path d="M190.872 37.0249C191.459 37.2199 192.027 37.4879 192.681 37.3678C193.224 37.2679 193.599 36.9975 193.645 36.4313C193.692 35.8614 193.243 35.8284 192.836 35.783C192.442 35.7389 192.137 35.5993 192.174 35.129C192.212 34.648 192.568 34.5575 192.942 34.5994C193.625 34.6759 194.622 34.2647 194.918 34.9402C195.338 35.8952 195.116 37.0367 195 38.0986C194.992 38.172 194.876 38.3036 194.846 38.2939C193.438 37.8532 191.981 39.485 190.597 38.1972C190.956 37.869 190.873 37.4374 190.872 37.0249Z" fill="#B1C2C9"/>
<path d="M101.487 33.4619C101.269 33.8865 101.902 34.4854 101.21 34.8134C100.957 34.4263 100.702 34.0396 100.449 33.6526C100.378 33.5784 100.307 33.5043 100.237 33.4302C100.194 33.5255 100.152 33.6211 100.11 33.7165C100.107 35.0129 100.098 36.3096 100.104 37.606C100.106 38.0344 100.111 38.4034 99.511 38.419C98.8627 38.4359 98.8068 38.0709 98.8117 37.5636C98.8275 35.9094 98.8036 34.255 98.8278 32.6011C98.8329 32.2493 98.593 31.6925 99.1896 31.6173C99.6867 31.5547 100.298 31.3667 100.659 31.9436C100.965 32.4311 101.213 32.9545 101.487 33.4619Z" fill="#B1C2C9"/>
<path d="M180.498 52.1068C179.626 52.7165 178.801 52.1801 178.027 51.9062C177.55 51.7375 177.103 51.7158 176.634 51.6768C176.557 51.2014 175.89 51.2428 175.828 50.7545C176.362 50.4932 177.222 51.0191 177.465 50.0356C177.781 48.7574 177.341 48.4512 175.725 48.8616C175.681 48.6126 175.638 48.3637 175.594 48.1147C176.178 47.5641 177.059 47.61 177.659 46.9996C178.049 46.6023 178.604 46.7595 178.659 47.4779C178.696 47.9635 178.682 48.4531 178.683 48.9411C178.688 50.8816 178.687 50.8816 180.502 51.068C180.313 51.5278 179.617 51.1912 179.463 51.7381C179.688 52.1903 180.183 51.9091 180.498 52.1068Z" fill="#B1C2C9"/>
<path d="M148.73 31.6133C149.666 31.6029 150.603 31.583 151.54 31.5862C151.89 31.5873 152.305 31.5577 152.299 32.097C152.295 32.5039 152.001 32.6602 151.668 32.6264C150.296 32.4862 150.316 33.3617 150.347 34.323C150.383 35.4403 150.342 36.56 150.355 37.6786C150.361 38.2291 150.151 38.5197 149.57 38.498C149.003 38.4768 148.953 38.0978 148.953 37.6646C148.953 36.4566 148.954 35.2482 148.947 34.0402C148.944 33.553 149.02 33.0491 148.705 32.6135C148.713 32.2802 148.721 31.9469 148.73 31.6133Z" fill="#B1C2C9"/>
<path d="M151.815 48.0332C151.816 46.96 151.806 45.8865 151.822 44.8136C151.828 44.4276 151.764 43.931 152.354 43.9103C152.883 43.8918 153.009 44.2743 153.008 44.726C153.007 46.9619 153.006 49.1978 153.01 51.4337C153.011 51.8903 152.871 52.2714 152.365 52.2735C151.778 52.2762 151.822 51.7801 151.818 51.3869C151.805 50.2691 151.814 49.151 151.815 48.0332Z" fill="#B1C2C9"/>
<path d="M213.571 48.1298C213.572 49.0692 213.599 50.0101 213.561 50.9482C213.541 51.4359 213.802 52.2086 213.024 52.2468C212.187 52.2876 212.446 51.4961 212.44 51.0191C212.413 49.0507 212.416 47.0818 212.439 45.1131C212.444 44.6697 212.219 43.9636 212.956 43.9491C213.796 43.9327 213.539 44.6995 213.559 45.177C213.6 46.1598 213.571 47.1454 213.571 48.1298Z" fill="#B1C2C9"/>
<path d="M169.759 48.2352C169.76 49.3036 169.765 50.372 169.757 51.4404C169.753 51.8699 169.649 52.2977 169.113 52.2609C168.625 52.2276 168.662 51.7778 168.66 51.4324C168.652 49.2064 168.652 46.9805 168.662 44.7548C168.664 44.4137 168.623 43.9601 169.119 43.934C169.655 43.9061 169.753 44.3347 169.757 44.7628C169.764 45.9204 169.759 47.078 169.759 48.2352Z" fill="#B1C2C9"/>
<path d="M133.919 36.6142C132.997 36.4928 132.408 36.8111 132.23 37.7949C132.135 38.3269 131.694 38.556 131.216 38.3742C130.575 38.1298 131.085 37.7272 131.191 37.4051C131.718 35.8071 132.3 34.2257 132.78 32.614C133.084 31.5934 133.597 31.33 134.515 31.8631C134.12 32.1497 133.963 32.5477 133.971 33.0231C133.317 33.3953 133.464 34.1527 133.171 34.7019C132.738 35.5141 133.114 35.798 133.929 35.7174C133.926 36.0163 133.923 36.3153 133.919 36.6142Z" fill="#B1C2C9"/>
<path d="M183.374 38.3255C183.001 36.2636 183.182 34.1792 183.267 32.1176C183.31 31.0901 184.193 31.6189 184.767 31.8308C184.67 32.2036 184.572 32.5761 184.475 32.9489C184.431 33.6953 184.269 34.5268 185.493 34.3527C185.419 34.6844 185.345 35.0159 185.27 35.3475C184.383 35.2911 184.48 35.9075 184.455 36.4882C184.43 37.0938 184.524 37.5426 185.27 37.4988C185.449 37.7701 185.628 38.0413 185.807 38.3126C185.293 38.3419 184.78 38.3712 184.266 38.4004C183.969 38.3752 183.671 38.3505 183.374 38.3255Z" fill="#B1C2C9"/>
<path d="M131.541 47.99C131.541 46.8716 131.541 45.753 131.541 44.6347C131.542 44.2426 131.624 43.902 132.116 43.9144C132.547 43.9251 132.784 44.1835 132.785 44.5971C132.791 46.9229 132.788 49.2491 132.771 51.5749C132.768 51.9891 132.518 52.2402 132.086 52.2335C131.585 52.2257 131.544 51.8537 131.543 51.4796C131.537 50.3161 131.541 49.1529 131.541 47.99Z" fill="#B1C2C9"/>
<path d="M144.423 35.0656C144.423 34.1718 144.418 33.2777 144.425 32.3839C144.428 31.9813 144.391 31.5473 145.001 31.5397C145.521 31.5333 145.868 31.6842 145.866 32.2842C145.859 34.1165 145.863 35.9487 145.861 37.7812C145.861 38.2901 145.555 38.4905 145.095 38.5171C144.546 38.5488 144.419 38.2096 144.422 37.7473C144.428 36.8535 144.424 35.9597 144.423 35.0656Z" fill="#B1C2C9"/>
<path d="M154.364 31.7009C155.432 31.2534 156.005 31.6372 156.33 32.7255C156.814 34.3412 157.405 35.9245 157.944 37.5238C158.05 37.8392 158.334 38.2318 157.769 38.3862C157.368 38.4961 156.953 38.487 156.781 37.978C156.548 37.2883 156.312 36.6056 155.398 36.5997C155.405 36.3099 155.412 36.0198 155.419 35.73C156.03 34.6173 155.536 33.7804 154.742 33.018C154.617 32.5788 154.491 32.1397 154.364 31.7009Z" fill="#B1C2C9"/>
<path d="M114.936 35.3801C115.394 35.462 115.289 35.9138 115.463 36.1821C115.367 36.7407 115.234 37.2961 115.185 37.8588C115.139 38.3812 114.805 38.3951 114.435 38.3825C114.055 38.3696 113.662 38.4832 113.52 37.8824C113.082 36.0298 112.566 34.1954 112.1 32.3492C112.013 32.0081 111.931 31.5792 112.508 31.5849C112.873 31.5884 113.278 31.4471 113.35 32.1201C113.474 33.2785 113.597 34.4532 114.077 35.5453C114.193 35.8087 114.123 36.282 114.504 36.2516C114.971 36.214 114.853 35.708 114.936 35.3801Z" fill="#B1C2C9"/>
<path d="M198.441 34.2699C198.842 34.3663 199.139 34.2473 199.315 33.8595C199.444 33.5751 199.555 33.2781 199.72 33.0157C200.125 32.3722 200.284 31.394 201.395 31.6301C201.774 31.7104 201.738 31.7483 200.899 33.3949C200.205 34.7593 199.114 35.999 199.473 37.7276C199.572 38.2016 199.294 38.4844 198.791 38.5005C198.262 38.5174 198.105 38.2199 198.102 37.7402C198.096 36.9433 198.188 36.1346 197.884 35.3641C198.443 35.1892 198.311 34.6628 198.441 34.2699Z" fill="#B1C2C9"/>
<path d="M126.411 38.3548C124.935 38.0124 124.11 36.9228 124.061 35.2488C124.005 33.3223 124.858 32.1502 126.698 31.6262C126.682 31.9354 126.667 32.2445 126.652 32.5536C124.937 33.6591 124.921 36.0311 126.617 37.5048C127.216 37.9501 127.131 38.2294 126.411 38.3548Z" fill="#B1C2C9"/>
<path d="M169.694 37.4716C169.839 37.7845 170.219 38.1103 169.643 38.3832C168.279 38.1796 167.36 37.1536 167.131 35.5771C166.921 34.1335 167.665 32.4973 168.803 31.9395C169.076 31.8055 169.379 31.7308 169.668 31.6288C169.664 31.9527 169.659 32.2763 169.655 32.6002C167.978 33.8617 167.998 36.3629 169.694 37.4716Z" fill="#B1C2C9"/>
<path d="M120.848 52.2208C119.838 51.8099 118.826 51.6756 117.812 52.2077C117.373 50.8516 116.289 51.6007 115.468 51.4897C115.872 50.5127 116.703 51.1524 117.325 51.0138C117.785 50.9115 118.398 51.1419 118.626 50.5704C118.827 50.0676 118.47 49.6247 118.173 49.2321C117.931 48.9119 117.662 48.6077 117.374 48.3281C117.053 48.0165 117.021 47.756 117.36 47.4291C117.732 47.0711 118.004 47.2621 118.266 47.5403C118.912 48.2276 119.599 48.9278 119.749 49.8888C119.887 50.7716 120.387 51.0882 121.171 51.1707C121.064 51.5206 120.956 51.8708 120.848 52.2208Z" fill="#B1C2C9"/>
<path d="M154.917 51.1696C155.414 50.868 155.959 51.0557 156.482 51.0243C157.62 50.9561 157.898 50.4509 157.258 49.4878C156.967 49.0492 156.573 48.6751 156.202 48.2942C155.97 48.0552 155.734 47.8425 156.064 47.5266C156.292 47.3077 156.512 47.1426 156.881 47.3475C157.739 47.8245 158.735 49.8211 158.579 50.796C158.421 51.7844 157.655 52.0954 156.861 52.2055C156.054 52.3175 155.159 52.7923 154.415 51.9847C154.949 51.9769 155.507 52.0871 156.072 51.7202C155.611 51.5002 155.264 51.335 154.917 51.1696Z" fill="#B1C2C9"/>
<path d="M133.919 36.6142C133.922 36.3153 133.926 36.0164 133.929 35.7172C134.48 35.6242 134.836 35.4244 134.568 34.7597C134.34 34.1925 134.168 33.6027 133.971 33.0228C133.963 32.5474 134.12 32.1494 134.515 31.8628C135.676 33.6813 136.226 35.7515 136.937 37.7551C137.034 38.0269 137.026 38.3121 136.676 38.3906C136.198 38.4977 135.703 38.4198 135.606 37.8773C135.43 36.8838 134.804 36.604 133.919 36.6142Z" fill="#B1C2C9"/>
<path d="M204.589 31.6212C205.863 31.4264 207.028 31.5653 207.622 32.9001C208.156 34.1006 207.531 35.3659 206.224 35.714C205.503 35.906 204.736 35.9218 203.99 36.0172C204.541 35.5628 204.591 35.0906 204.039 34.5975C204.84 34.38 206.107 35.1972 206.379 33.8761C206.661 32.5013 205.268 32.8861 204.566 32.5596C204.573 32.2467 204.581 31.9338 204.589 31.6212Z" fill="#B1C2C9"/>
<path d="M154.365 31.7007C154.491 32.1396 154.617 32.5787 154.743 33.0175C154.667 33.9221 153.93 34.6295 153.986 35.645C154.458 35.6729 154.938 35.7011 155.419 35.7296C155.412 36.0194 155.405 36.3095 155.399 36.5993C154.453 36.5966 153.488 36.4959 153.32 37.8584C153.255 38.384 152.742 38.547 152.266 38.3651C151.73 38.161 152.061 37.7756 152.192 37.4788C153.028 35.5943 153.38 33.5284 154.365 31.7007Z" fill="#B1C2C9"/>
<path d="M161.368 38.34C161.204 38.3478 161.04 38.3556 160.876 38.3631C160.399 38.1974 159.922 38.2632 159.444 38.3577C159.042 36.2878 159.368 34.1975 159.272 32.119C159.248 31.5977 159.612 31.5996 159.992 31.5821C160.494 31.559 160.574 31.8359 160.573 32.2498C160.57 33.9007 160.584 35.5517 160.591 37.2026C160.605 37.7494 161.368 37.7838 161.368 38.34Z" fill="#B1C2C9"/>
<path d="M204.039 34.5979C204.59 35.091 204.541 35.5632 203.989 36.0176C203.969 36.5948 203.939 37.1719 203.931 37.7496C203.925 38.1777 203.761 38.406 203.301 38.4033C202.844 38.4004 202.67 38.1734 202.671 37.7434C202.675 35.9195 202.579 34.0895 202.703 32.2742C202.797 30.8918 203.964 31.8794 204.589 31.6218C204.581 31.9347 204.574 32.2476 204.566 32.5605C203.454 32.9972 204.06 33.8786 204.039 34.5979Z" fill="#B1C2C9"/>
<path d="M147.438 54.447C148.355 53.3977 149.051 52.3782 148.945 50.9757C148.881 50.1337 148.938 49.2823 148.947 48.4352C148.95 48.0971 149.035 47.7966 149.453 47.7987C149.764 47.8003 149.975 47.9924 149.97 48.2948C149.945 49.8015 150.235 51.3299 149.774 52.8082C149.44 53.8817 148.742 54.552 147.438 54.447Z" fill="#B1C2C9"/>
<path d="M106.586 38.3022C106.555 36.3174 106.544 34.3318 106.482 32.3478C106.461 31.653 106.794 31.5308 107.372 31.5789C107.9 31.6229 108.432 31.6224 108.962 31.6415C109.047 32.5745 107.623 32.0599 107.686 32.9712C107.696 33.3875 107.706 33.8041 107.717 34.2204C107.709 34.7016 107.702 35.1827 107.694 35.6639C107.695 36.1742 107.695 36.6843 107.696 37.1943C108.151 38.3895 107.31 38.2871 106.586 38.3022Z" fill="#B1C2C9"/>
<path d="M111.332 51.2051C112.148 51.0217 112.535 50.5547 112.424 49.6812C112.368 49.2421 112.418 48.7882 112.432 48.3413C112.443 47.9881 112.588 47.7325 112.984 47.7225C113.364 47.7129 113.591 47.9344 113.599 48.2884C113.622 49.4052 113.618 50.523 113.604 51.64C113.6 51.9349 113.405 52.1779 113.114 52.1943C112.17 52.2475 111.201 52.7148 110.288 52.0662C110.977 51.9856 111.666 51.9053 112.557 51.8011C112.045 51.4729 111.548 51.6123 111.332 51.2051Z" fill="#B1C2C9"/>
<path d="M110.09 51.9804C109.434 51.9517 108.778 51.9226 108.122 51.8939C107.88 50.9585 106.836 51.91 106.497 51.2037C108.326 50.7143 108.452 50.1245 107.071 48.668C106.751 48.3313 105.97 48.0296 106.661 47.4208C107.295 46.8613 107.574 47.6015 107.935 47.9295C108.474 48.4202 108.97 49.0081 109.005 49.7319C109.054 50.7175 109.625 51.0267 110.431 51.1862C110.317 51.4508 110.204 51.7156 110.09 51.9804Z" fill="#B1C2C9"/>
<path d="M139.503 35.9142C139.862 35.3 140.534 35.6497 141.053 35.3972C140.989 35.0263 140.246 35.2382 140.393 34.6901C140.893 34.494 141.597 34.819 141.893 34.1011C142.203 33.3461 141.567 32.9983 141.217 32.5278C141.289 32.246 141.361 31.9646 141.434 31.6828C142.726 31.7731 143.364 32.5963 143.357 33.7613C143.351 34.8902 142.598 35.586 141.471 35.8296C140.817 35.9704 140.164 36.0147 139.503 35.9142Z" fill="#B1C2C9"/>
<path d="M200.528 50.6678C200.453 51.0771 200.378 51.4864 200.302 51.8958C199.536 51.6527 199.516 51.0162 199.517 50.3812C199.521 48.336 199.534 46.2908 199.543 44.2456C199.86 44.2542 200.177 44.2628 200.493 44.2714C200.505 46.4034 200.516 48.5356 200.528 50.6678Z" fill="#B1C2C9"/>
<path d="M190.871 37.0249C190.873 37.4375 190.956 37.869 190.596 38.197C188.451 36.6833 188.332 33.7674 190.347 32.103C190.81 32.2008 190.904 32.5491 190.92 32.9498C189.763 34.5132 189.749 35.6743 190.871 37.0249Z" fill="#B1C2C9"/>
<path d="M139.839 50.7583C139.833 51.0516 139.827 51.3447 139.821 51.6379C139.036 51.7174 138.194 52.0129 137.532 51.3696C136.635 50.4976 136.943 48.979 138.16 48.321C138.852 47.9472 139.6 47.6544 140.415 47.6348C140.415 47.8432 140.416 48.0517 140.416 48.2601C140.024 48.1169 139.767 48.4564 139.439 48.5466C138.644 48.7655 137.823 49.1343 138.055 50.1307C138.275 51.0696 139.183 50.7028 139.839 50.7583Z" fill="#B1C2C9"/>
<path d="M175.338 31.6032C175.867 31.61 176.396 31.6164 176.924 31.6231C177.143 32.3096 176.053 32.3472 176.234 33.0151C176.406 33.5757 175.765 34.462 176.887 34.6411C176.896 34.9537 176.904 35.2661 176.913 35.5787C176.282 35.55 176.239 35.9561 176.223 36.4451C176.203 37.0551 176.353 37.6806 176.095 38.2741C175.463 38.2964 175.25 37.9774 175.264 37.3674C175.307 35.4466 175.316 33.5246 175.338 31.6032Z" fill="#B1C2C9"/>
<path d="M100.869 51.0695C102.967 50.9341 103.26 50.3113 102.064 48.5019C101.918 48.2798 101.675 48.0432 101.875 47.8055C102.117 47.5186 102.44 47.6666 102.725 47.8326C103.545 48.3096 104.001 49.7819 103.6 50.8374C103.178 51.9453 102.391 52.4153 101.203 52.0514C101.092 51.724 100.981 51.3969 100.869 51.0695Z" fill="#B1C2C9"/>
<path d="M190.92 32.9496C190.904 32.5492 190.81 32.2006 190.347 32.1028C191.734 31.1569 193.797 31.3465 194.627 32.5148C194.818 32.7834 195.199 33.0982 194.88 33.4419C194.578 33.7672 194.052 33.7463 193.803 33.4221C192.965 32.3306 191.96 32.6134 190.92 32.9496Z" fill="#B1C2C9"/>
<path d="M106.586 38.3021C107.31 38.2871 108.15 38.3897 107.696 37.1945C108.674 37.2571 109.653 37.3159 110.631 37.3839C110.946 37.4059 111.277 37.4338 111.31 37.8606C111.329 38.1098 111.201 38.3717 110.981 38.3698C109.516 38.3577 108.037 39.0692 106.586 38.3021Z" fill="#B1C2C9"/>
<path d="M126.411 38.3548C127.131 38.2293 127.216 37.95 126.617 37.5047C127.448 37.3933 128.277 37.3076 128.873 36.5832C129.124 36.2787 129.551 36.2685 129.844 36.4879C130.261 36.8002 129.882 37.1368 129.718 37.4037C129.071 38.4541 127.553 38.8755 126.411 38.3548Z" fill="#B1C2C9"/>
<path d="M175.828 50.7545C175.89 51.2427 176.557 51.2014 176.634 51.6767C175.832 51.6886 174.961 52.0463 174.366 51.1313C173.628 49.9963 174.033 48.9738 175.594 48.1149C175.638 48.3639 175.681 48.6128 175.725 48.8618C175.147 49.526 174.315 50.2042 175.828 50.7545Z" fill="#B1C2C9"/>
<path d="M126.651 32.5536C126.667 32.2445 126.682 31.9354 126.698 31.6262C127.813 31.3955 128.839 31.5215 129.609 32.4572C129.844 32.7438 130.254 33.1082 129.885 33.4931C129.583 33.8092 129.1 33.744 128.816 33.3929C128.243 32.685 127.441 32.6543 126.651 32.5536Z" fill="#B1C2C9"/>
<path d="M198.441 34.27C198.311 34.6632 198.442 35.1894 197.884 35.3642C197.593 34.9251 197.275 34.501 197.016 34.0439C196.587 33.2854 196.195 32.5058 195.709 31.5859C197.68 31.5604 197.744 33.2392 198.441 34.27Z" fill="#B1C2C9"/>
<path d="M107.694 35.6637C107.702 35.1825 107.709 34.7014 107.717 34.2202C108.553 34.2438 109.388 34.2653 110.223 34.2924C110.633 34.3056 111.057 34.3265 111.046 34.8967C111.034 35.4784 110.578 35.4341 110.189 35.4658C109.357 35.534 108.526 35.5982 107.694 35.6637Z" fill="#B1C2C9"/>
<path d="M100.869 51.0693C100.98 51.3967 101.091 51.7241 101.203 52.0515C100.198 52.0743 99.5533 51.603 99.4491 50.6001C99.3524 49.6695 99.2871 48.6833 100.211 48.0586C100.416 47.9197 100.757 47.6063 101.018 47.9804C101.232 48.2858 100.871 48.4013 100.712 48.5786C99.835 49.5497 99.8855 50.316 100.869 51.0693Z" fill="#B1C2C9"/>
<path d="M175.338 31.6032C175.316 33.5246 175.307 35.4466 175.264 37.3677C175.25 37.9776 175.463 38.2967 176.094 38.2744C175.57 38.6958 174.963 38.7412 174.931 37.9833C174.847 35.9517 174.923 33.9133 174.95 31.8777C174.952 31.6768 175.15 31.6129 175.338 31.6032Z" fill="#B1C2C9"/>
<path d="M106.497 51.2033C106.836 51.9097 107.88 50.9581 108.122 51.8936C107.396 52.1323 106.645 52.1928 105.889 52.1879C105.488 52.1855 104.924 52.3996 104.952 51.6435C104.975 50.9992 105.463 51.1706 105.834 51.1593C106.054 51.1528 106.276 51.1875 106.497 51.2033Z" fill="#B1C2C9"/>
<path d="M176.234 33.0155C176.053 32.3476 177.142 32.3097 176.924 31.6235C177.542 31.6087 178.159 31.5811 178.776 31.5843C179.173 31.5865 179.636 31.5674 179.604 32.1674C179.573 32.7416 179.106 32.6852 178.717 32.7263C177.889 32.8136 177.026 32.6108 176.234 33.0155Z" fill="#B1C2C9"/>
<path d="M161.367 38.34C161.368 37.7838 160.604 37.7494 160.59 37.2029C161.426 37.259 162.263 37.3068 163.098 37.375C163.478 37.4062 163.98 37.346 163.953 37.9396C163.926 38.5071 163.429 38.4649 163.05 38.4689C162.488 38.4749 161.905 38.6674 161.367 38.34Z" fill="#B1C2C9"/>
<path d="M184.474 32.9488C184.571 32.576 184.669 32.2035 184.767 31.8307C185.567 31.4515 186.414 31.5444 187.256 31.5882C187.588 31.6056 187.892 31.673 187.885 32.103C187.878 32.5099 187.592 32.5959 187.26 32.6539C186.337 32.815 185.379 32.6302 184.474 32.9488Z" fill="#B1C2C9"/>
<path d="M176.625 44.8226C177.01 45.1438 177.435 44.8663 177.861 44.8392C178.293 44.8113 178.554 45.0686 178.492 45.487C178.427 45.9175 178.019 46.1294 177.704 45.8936C177.247 45.5523 176.992 45.4757 176.602 45.9777C176.39 46.25 176.027 46.0577 175.803 45.8004C175.646 45.6205 175.601 45.4126 175.705 45.187C175.886 44.7938 176.207 44.7288 176.625 44.8226Z" fill="#B1C2C9"/>
<path d="M107.686 32.9711C107.623 32.0595 109.047 32.5744 108.962 31.6414C109.495 31.6231 110.027 31.5936 110.56 31.5906C110.89 31.5887 111.201 31.6623 111.211 32.0875C111.22 32.492 110.943 32.5989 110.605 32.6561C109.638 32.8199 108.633 32.6238 107.686 32.9711Z" fill="#B1C2C9"/>
<path d="M188.818 52.0893C188.227 52.0356 187.637 51.9822 186.954 51.9201C187.207 51.2157 188.027 51.7775 188.222 51.2108C188.829 51.0873 188.679 50.5982 188.732 50.1913C188.783 49.7911 188.528 49.3176 188.991 49.0066C189.176 49.0276 189.362 49.0488 189.547 49.0697L189.55 49.073C189.534 49.554 189.363 50.1013 189.535 50.5012C189.852 51.239 189.48 51.5871 189.008 51.9653C188.962 52.0335 188.899 52.0748 188.818 52.0893Z" fill="#B1C2C9"/>
<path d="M141.47 45.1718C141.499 45.7436 141.096 46.1035 140.973 45.9348C140.335 45.0552 139.101 46.8896 138.714 45.399C138.629 45.0748 139.106 44.6494 139.214 44.8095C139.834 45.7293 140.991 44.1971 141.47 45.1718Z" fill="#B1C2C9"/>
<path d="M163.951 53.1322C163.856 53.6476 162.854 54.0894 163.938 54.5293C164.103 54.5962 164.117 54.8669 163.97 54.9921C163.632 55.2808 163.208 55.1556 162.815 55.154C162.572 55.1529 162.38 55.0345 162.324 54.7861C162.165 54.0824 162.999 53.1655 163.951 53.1322Z" fill="#B1C2C9"/>
<path d="M185.806 38.3124C185.627 38.0412 185.448 37.7699 185.269 37.4986C186 37.1538 186.761 37.4054 187.508 37.3915C187.779 37.3864 188.065 37.4683 188.075 37.819C188.085 38.1926 187.853 38.407 187.501 38.43C186.934 38.4668 186.349 38.6557 185.806 38.3124Z" fill="#B1C2C9"/>
<path d="M185.27 35.3472C185.344 35.0155 185.418 34.684 185.493 34.3524C186.105 34.3378 186.718 34.315 187.331 34.3126C187.631 34.3113 187.821 34.4657 187.85 34.7848C187.883 35.1567 187.715 35.4001 187.349 35.4183C186.656 35.4535 185.953 35.641 185.27 35.3472Z" fill="#B1C2C9"/>
<path d="M120.848 52.2207C120.956 51.8708 121.064 51.5206 121.171 51.1706C121.473 51.1722 121.775 51.1736 122.077 51.1752C122.617 51.8724 123.8 51.021 124.201 52.055C123.083 52.1101 121.966 52.1654 120.848 52.2207Z" fill="#B1C2C9"/>
<path d="M102.243 46.2036C101.771 45.2679 101.342 46.0492 100.847 46.2966C100.598 46.4204 100.292 46.3318 100.179 46.049C100.105 45.8639 100.094 45.6061 100.164 45.4221C100.274 45.132 100.599 45.0654 100.833 45.1817C101.324 45.4259 101.728 45.8738 102.326 45.309C102.501 45.1433 102.837 45.4527 102.848 45.7264C102.861 46.0092 102.663 46.2141 102.243 46.2036Z" fill="#B1C2C9"/>
<path d="M180.498 52.1069C180.182 51.9095 179.688 52.1904 179.464 51.7384C179.617 51.1916 180.313 51.5284 180.502 51.0683C180.8 50.8457 181.041 50.5838 181.095 50.1957C181.4 50.0622 181.532 49.8468 181.414 49.5143C181.433 49.4426 181.461 49.375 181.499 49.3113C181.736 49.314 181.973 49.3167 182.21 49.3194C182.074 49.7604 181.938 50.2016 181.803 50.6426C181.705 50.9961 181.608 51.3495 181.51 51.703C181.172 51.8378 180.835 51.9724 180.498 52.1069Z" fill="#B1C2C9"/>
<path d="M176.913 35.579C176.904 35.2664 176.895 34.954 176.886 34.6414C177.445 34.4437 178.017 34.5603 178.583 34.5788C178.928 34.5901 179.323 34.5979 179.341 35.0988C179.36 35.619 178.961 35.6228 178.614 35.626C178.048 35.6308 177.48 35.5967 176.913 35.579Z" fill="#B1C2C9"/>
<path d="M113.388 54.3969C112.991 53.9959 112.571 54.2369 112.121 54.4318C111.88 54.5361 111.557 54.4958 111.45 54.1963C111.383 54.0107 111.394 53.7459 111.48 53.5692C111.616 53.2864 111.981 53.2474 112.169 53.3973C112.603 53.7451 112.946 53.7765 113.43 53.4626C113.728 53.2692 114.03 53.4983 114.047 53.8966C114.065 54.3056 113.809 54.4273 113.388 54.3969Z" fill="#B1C2C9"/>
<path d="M110.09 51.9805C110.204 51.7157 110.317 51.4509 110.43 51.186C110.731 51.1925 111.031 51.1987 111.332 51.2051C111.548 51.6123 112.045 51.4729 112.557 51.8013C111.666 51.9053 110.977 51.9859 110.288 52.0664C110.22 52.0425 110.154 52.0138 110.09 51.9805Z" fill="#B1C2C9"/>
<path d="M148.729 31.6136C148.721 31.9469 148.712 32.2804 148.704 32.6137C148.098 32.4217 146.916 33.1895 146.975 32.0126C147.021 31.0944 148.127 31.7884 148.729 31.6136Z" fill="#B1C2C9"/>
<path d="M115.469 51.4896C116.289 51.6008 117.373 50.8518 117.812 52.2076C117.013 52.0263 115.85 53.0334 115.469 51.4896Z" fill="#B1C2C9"/>
<path d="M143.025 51.1779C143.315 51.3479 143.606 51.5179 143.913 51.6975C142.497 52.2003 142.237 52.1085 142.388 51.1789C142.6 51.1787 142.812 51.1784 143.025 51.1779Z" fill="#B1C2C9"/>
<path d="M124.018 54.4736C123.544 54.4556 123.327 54.2805 123.344 53.891C123.36 53.5115 123.58 53.3195 123.952 53.3413C124.306 53.3619 124.558 53.5564 124.55 53.926C124.542 54.3033 124.258 54.4392 124.018 54.4736Z" fill="#B1C2C9"/>
<path d="M210.234 31.6133C210.085 32.9433 209.106 32.2729 208.44 32.3578C208.514 30.8468 209.654 31.9039 210.234 31.6133Z" fill="#B1C2C9"/>
<path d="M208.554 51.2197C208.737 51.3838 208.921 51.5479 209.104 51.7123C207.782 52.138 207.74 52.1195 207.922 51.1848C208.133 51.1964 208.343 51.2082 208.554 51.2197Z" fill="#B1C2C9"/>
<path d="M124.303 47.7446C124.201 47.9313 124.099 48.1179 123.998 48.3046C123.753 48.2984 123.508 48.2922 123.264 48.2863C123.015 48.1757 122.821 48.2323 122.693 48.4792C122.395 47.823 122.392 47.7878 122.87 47.7451C123.344 47.7024 123.825 47.7414 124.303 47.7446Z" fill="#B1C2C9"/>
<path d="M154.917 51.1695C155.264 51.335 155.611 51.5004 156.072 51.7201C155.507 52.087 154.949 51.9769 154.416 51.9847C154.364 51.5783 154.302 51.1661 154.917 51.1695Z" fill="#B1C2C9"/>
<path d="M159.443 38.358C159.921 38.2635 160.399 38.1977 160.875 38.3634C160.397 38.7491 159.919 38.7912 159.443 38.358Z" fill="#B1C2C9"/>
<path d="M138.289 38.2941C138.634 38.2941 138.979 38.2941 139.324 38.2941C138.979 38.7821 138.633 38.7745 138.289 38.2941Z" fill="#B1C2C9"/>
<path d="M200.493 44.2714C200.176 44.2628 199.859 44.2542 199.542 44.2456C199.878 43.5852 200.191 43.7007 200.493 44.2714Z" fill="#B1C2C9"/>
<path d="M183.374 38.3255C183.671 38.3504 183.968 38.3752 184.266 38.4001C183.942 38.6932 183.637 38.7611 183.374 38.3255Z" fill="#B1C2C9"/>
<path d="M181.414 49.5144C181.532 49.8469 181.4 50.062 181.095 50.1957C181.014 49.881 181.122 49.6546 181.414 49.5144Z" fill="#B1C2C9"/>
<path d="M189.547 49.0703C189.361 49.0493 189.176 49.0281 188.99 49.0071C189.213 48.6977 189.404 48.6725 189.547 49.0703Z" fill="#B1C2C9"/>
<path d="M122.693 48.4791C122.822 48.232 123.015 48.1756 123.264 48.2863C123.146 48.565 122.962 48.6475 122.693 48.4791Z" fill="#B1C2C9"/>
<path d="M182.049 48.3794C181.955 48.5193 181.861 48.6592 181.767 48.7989C181.861 48.6592 181.955 48.5193 182.049 48.3794Z" fill="#B1C2C9"/>
<path d="M100.11 33.7167C100.152 33.6214 100.195 33.5258 100.237 33.4305C100.308 33.5046 100.378 33.5787 100.449 33.6528C100.336 33.674 100.223 33.6953 100.11 33.7167Z" fill="#B1C2C9"/>
</g>
<defs>
<clipPath id="clip0_20449_176549">
<rect width="170" height="49" fill="white" transform="translate(49.5 14)"/>
</clipPath>
</defs>
</svg>
