<svg width="269" height="77" viewBox="0 0 269 77" fill="none" xmlns="http://www.w3.org/2000/svg">
<path fill-rule="evenodd" clip-rule="evenodd" d="M79.2691 28.6589C79.8281 30.2689 79.2577 32.003 77.6183 33.0765C76.6535 33.7081 75.5872 34.1826 74.6012 34.7845C73.5028 35.4549 72.4106 36.1451 71.3817 36.915C70.8648 37.3017 70.4247 37.8388 70.0702 38.3859C68.6697 40.547 69.4514 42.7835 71.9274 43.4419C74.7023 44.1798 77.4988 44.2619 80.1402 42.8753C82.6661 41.5494 82.9846 40.1059 81.3336 37.7718C81.0863 37.4222 80.798 37.1015 80.4133 36.6246C81.8228 37.0268 82.575 37.9418 83.112 39.0308C85.0789 43.0206 83.0983 47.0872 78.7602 48.0068C76.6945 48.4448 74.6254 48.4714 72.5623 47.9736C69.8086 47.309 68.1964 45.5573 67.8228 42.7704C67.5614 40.8212 67.6889 38.8658 68.3946 36.9989C69.1041 35.1223 70.3953 33.7445 72.1773 32.8407C73.7692 32.0334 75.4126 31.3213 76.9682 30.4504C77.8018 29.9838 78.4977 29.271 79.2691 28.6589Z" fill="#DFE7EB"/>
<path fill-rule="evenodd" clip-rule="evenodd" d="M90.1221 45.7331H85.8736V31.2393C86.9614 31.2393 88.0403 31.2033 89.1136 31.265C89.3794 31.2803 89.6686 31.5745 89.8764 31.8041C91.7184 33.8402 93.5453 35.8897 95.3741 37.9377C95.5689 38.1558 95.7462 38.3894 96.1609 38.5319V31.3041H100.438V45.7605C99.3003 45.7605 98.187 45.7975 97.0797 45.7333C96.8197 45.7182 96.5462 45.3914 96.335 45.1572C94.4962 43.1175 92.6687 41.0676 90.8425 39.0164C90.6694 38.822 90.5296 38.5977 90.3746 38.3874C90.2903 38.4232 90.2062 38.4592 90.1221 38.4951V45.7331Z" fill="#B1C2C9"/>
<path fill-rule="evenodd" clip-rule="evenodd" d="M102.438 45.7158V31.2842H115.695V34.5675H106.87C106.754 34.7333 106.69 34.7834 106.683 34.8407C106.446 36.7791 106.447 36.7791 108.364 36.7791C109.579 36.7791 110.795 36.7791 112.064 36.7791V40.0024C110.586 40.0024 109.113 39.9857 107.641 40.0155C107.318 40.0219 106.736 40.165 106.721 40.294C106.652 40.9334 106.7 41.594 106.798 42.2331C106.812 42.3239 107.327 42.3794 107.61 42.3806C110.027 42.3895 112.443 42.382 114.859 42.3796C115.287 42.3792 115.714 42.3796 116.218 42.3796V45.7158H102.438Z" fill="#B1C2C9"/>
<path fill-rule="evenodd" clip-rule="evenodd" d="M127.034 45.6517C126.905 45.6795 126.873 45.6925 126.841 45.6926C125.65 45.694 124.18 46.1193 123.35 45.5728C122.55 45.0468 122.373 43.5292 121.99 42.4239C120.789 38.9563 119.62 35.478 118.441 32.003C118.368 31.7897 118.321 31.5681 118.218 31.1862C119.676 31.1862 121.049 31.1585 122.417 31.2184C122.606 31.2265 122.857 31.642 122.942 31.9122C123.578 33.9299 124.177 35.9592 124.792 37.9836C124.903 38.3482 125.035 38.7066 125.374 39.068C125.792 37.8033 126.213 36.5393 126.628 35.2736C126.999 34.1428 127.385 33.0161 127.723 31.8758C127.881 31.3446 128.164 31.1689 128.719 31.1589C131.119 31.1158 131.116 31.0983 131.852 33.4007C132.375 35.038 132.905 36.6733 133.44 38.3072C133.528 38.578 133.653 38.8368 133.872 39.3731C134.491 37.3508 135.041 35.6022 135.562 33.8451C136.349 31.185 136.34 31.1822 139.129 31.1742C139.621 31.1728 140.114 31.174 140.738 31.174C140.638 31.5788 140.586 31.8853 140.487 32.1756C139.034 36.4286 137.564 40.6759 136.13 44.9354C135.931 45.5284 135.671 45.7815 135.018 45.7316C134.032 45.6565 132.789 46.0395 132.117 45.5688C131.454 45.104 131.35 43.8254 131.028 42.8942C130.535 41.4694 130.066 40.0367 129.361 38.5973C128.589 40.9359 127.818 43.2747 127.034 45.6517Z" fill="#B1C2C9"/>
<path fill-rule="evenodd" clip-rule="evenodd" d="M154.862 40.2105H150.571V37.1531H159.023C159.023 39.314 159.03 41.4548 159.009 43.5956C159.008 43.7507 158.843 43.9584 158.697 44.0499C155.423 46.1018 150.577 47.168 146.706 44.9868C143.912 43.4131 142.424 40.6179 142.793 37.655C143.167 34.6496 145.546 32.0448 148.74 31.1445C151.907 30.2519 156.293 31.1894 158.929 33.3628C158.072 34.1821 157.223 34.9946 156.519 35.6685C155.08 35.1784 153.807 34.5997 152.473 34.322C149.733 33.7521 147.41 35.4876 147.142 38.15C146.884 40.7238 148.873 42.7973 151.655 42.8152C152.246 42.8189 152.846 42.7406 153.428 42.6289C155.049 42.3174 155.206 42.0498 154.862 40.2105Z" fill="#B1C2C9"/>
<path fill-rule="evenodd" clip-rule="evenodd" d="M161.024 45.7166H165.124V31.2834H161.024V45.7166Z" fill="#B1C2C9"/>
<path fill-rule="evenodd" clip-rule="evenodd" d="M175.065 34.6506H167.63V31.2798H181.24C181.479 32.6052 181.289 33.6626 180.274 34.6934C178.095 36.9063 176.074 39.2762 173.992 41.585C173.821 41.775 173.674 41.9878 173.403 42.3348H181.274V45.7201H167.215C167.057 44.5373 166.995 43.5054 167.991 42.4895C170.212 40.2242 172.282 37.8115 174.411 35.4559C174.601 35.246 174.769 35.0164 175.065 34.6506Z" fill="#B1C2C9"/>
<path fill-rule="evenodd" clip-rule="evenodd" d="M194.373 40.6889C193.675 39.1295 193.021 37.6666 192.367 36.2038C192.278 36.2177 192.189 36.2319 192.099 36.246C191.46 37.6944 190.821 39.143 190.139 40.6889H194.373ZM201.303 45.7993C199.827 45.7993 198.476 45.8553 197.136 45.7573C196.825 45.7347 196.408 45.2341 196.29 44.8719C195.961 43.8642 195.378 43.5261 194.319 43.5984C192.837 43.6998 191.342 43.6716 189.857 43.6036C189.07 43.5676 188.566 43.7861 188.399 44.5628C188.167 45.6396 187.514 45.9253 186.467 45.8164C185.492 45.7146 184.497 45.7945 183.333 45.7945C183.993 44.4705 184.592 43.272 185.188 42.0725C186.865 38.7005 188.552 35.3331 190.208 31.9504C190.46 31.4335 190.785 31.3067 191.34 31.2266C193.361 30.9348 194.504 31.6154 195.361 33.6068C197.004 37.425 199.01 41.0872 200.862 44.8158C201.004 45.1017 201.124 45.3989 201.303 45.7993Z" fill="#B1C2C9"/>
</svg>
