<svg width="269" height="77" viewBox="0 0 269 77" fill="none" xmlns="http://www.w3.org/2000/svg">
<path fill-rule="evenodd" clip-rule="evenodd" d="M58.7673 38.5L79.4427 17.7649V38.5H58.7673Z" fill="#6C7C83"/>
<path fill-rule="evenodd" clip-rule="evenodd" d="M58.7673 38.5H79.4427V59.2538H79.424L58.7486 38.5188L58.7673 38.5Z" fill="#393F45"/>
<path fill-rule="evenodd" clip-rule="evenodd" d="M100.137 38.4812V38.5H79.4427V17.7649L79.4614 17.7462L100.137 38.4812Z" fill="#556068"/>
<path fill-rule="evenodd" clip-rule="evenodd" d="M100.137 38.5563L79.4989 59.2538H79.4427V38.5H100.137V38.5563Z" fill="#393F45"/>
<path fill-rule="evenodd" clip-rule="evenodd" d="M72.1561 31.4105L79.4562 37.4465L86.7293 31.4105L80.6086 38.5671L86.7293 45.7302L79.4427 39.7294L72.1561 46.144L78.1896 38.5671L72.1561 31.4105ZM73.6505 30.1321L79.5144 34.3594L85.198 30.1321L79.4522 35.3565L73.6505 30.1321ZM74.9621 28.6705L79.5136 31.9518L83.9252 28.6705L79.4654 32.7257L74.9621 28.6705ZM76.2737 27.3551L79.5129 29.6903L82.6525 27.3551L79.4785 30.2411L76.2737 27.3551ZM77.5853 26.1859L79.5121 27.575L81.3797 26.1859L79.4917 27.9026L77.5853 26.1859ZM73.6505 47.1603L79.4522 41.9359L85.198 47.1603L79.5144 42.9329L73.6505 47.1603ZM74.9621 48.6218L79.4654 44.5666L83.9252 48.6218L79.5136 45.3405L74.9621 48.6218ZM76.2737 49.9372L79.4785 47.0513L82.6525 49.9372L79.5129 47.602L76.2737 49.9372ZM77.5853 51.1064L79.4917 49.3897L81.3797 51.1064L79.5121 49.7173L77.5853 51.1064ZM87.6427 44.4384L82.4183 38.6367L87.6427 32.8909L83.4153 38.5745L87.6427 44.4384ZM89.1042 43.1268L85.049 38.6235L89.1042 34.1637L85.8229 38.5753L89.1042 43.1268ZM90.4196 41.8152L87.5336 38.6104L90.4196 35.4364L88.0844 38.576L90.4196 41.8152ZM91.5888 40.5036L89.8721 38.5972L91.5888 36.7092L90.1997 38.5768L91.5888 40.5036ZM71.0971 44.4384L75.3244 38.5745L71.0971 32.8909L76.3215 38.6367L71.0971 44.4384ZM69.6355 43.1268L72.9168 38.5753L69.6355 34.1637L73.6907 38.6235L69.6355 43.1268ZM68.3201 41.8152L70.6553 38.576L68.3201 35.4364L71.2061 38.6104L68.3201 41.8152ZM67.1509 40.5036L68.54 38.5768L67.1509 36.7092L68.8676 38.5972L67.1509 40.5036Z" fill="white"/>
<path fill-rule="evenodd" clip-rule="evenodd" d="M144.886 26.0053C144.959 25.9828 144.981 25.9735 145.004 25.9694C146.365 25.7307 147.371 26.1185 148.167 27.3602C148.976 28.6215 150.024 29.7289 151.033 30.9858C151.713 30.1431 152.361 29.3404 153.009 28.5382C153.345 28.1221 153.753 27.7454 154.006 27.2836C154.711 25.9955 155.785 25.7091 157.168 26.0357V39.21H154.789V30.176L154.635 30.1267C153.674 31.3357 152.711 32.5429 151.753 33.7543C151.147 34.5201 150.92 34.5206 150.321 33.7607C149.359 32.5415 148.391 31.3269 147.282 29.9291V39.2138H144.886V26.0053ZM172.287 25.9904H174.696V39.2022H172.315V33.7853H165.864V39.1933H163.455V25.9906H165.782V31.4187H172.287V25.9904ZM133.961 39.1781C133.848 39.225 133.826 39.2415 133.803 39.2426C131.567 39.3495 131.453 39.3918 130.682 37.2977C130.149 35.8497 129.384 35.2756 127.87 35.5133C127.064 35.6399 126.221 35.5615 125.397 35.5229C124.955 35.5023 124.749 35.6691 124.593 36.066C124.229 36.9927 123.837 37.9098 123.415 38.8111C123.325 39.0015 123.066 39.218 122.871 39.2332C122.199 39.2852 121.52 39.2532 120.742 39.2532C121.11 38.3789 121.444 37.5798 121.783 36.7829C123.24 33.3625 124.708 29.9466 126.146 26.5183C126.343 26.0492 126.569 25.8141 127.101 25.862C127.619 25.9086 128.093 25.7849 128.392 26.4773C130.147 30.5384 131.961 34.5732 133.753 38.618C133.83 38.7912 133.886 38.9741 133.961 39.1781ZM128.796 33.2378C128.27 32.0502 127.79 30.9681 127.251 29.7516C126.748 30.9777 126.297 32.0784 125.821 33.2378H128.796ZM115.515 33.8298V39.1961H113.137V26.0434C114.905 26.0434 116.658 25.8974 118.376 26.08C120.574 26.3135 121.734 27.895 121.659 30.1502C121.597 32.0229 120.173 33.4723 118.14 33.6846C117.301 33.7723 116.453 33.7805 115.515 33.8298ZM115.547 31.5672C116.461 31.4961 117.335 31.5099 118.172 31.3383C118.903 31.1883 119.23 30.5236 119.18 29.6892C119.137 28.9769 118.777 28.4414 118.088 28.3217C117.268 28.1795 116.422 28.1894 115.547 28.1308V31.5672ZM209.708 29.6189C209.084 29.1783 208.584 28.7587 208.024 28.4459C207.283 28.0324 206.471 27.8822 205.638 28.166C204.738 28.4722 204.466 29.3699 205.107 30.0717C205.458 30.4573 205.939 30.7274 206.374 31.0324C207.285 31.6714 208.286 32.2089 209.101 32.9525C210.293 34.0408 210.563 35.8052 209.892 37.2598C209.207 38.7449 207.978 39.3897 206.384 39.4082C205.135 39.4225 203.984 39.096 202.96 38.3778C202.784 38.2544 202.571 38.0302 202.563 37.8445C202.523 36.9041 202.545 35.9611 202.545 34.8736C202.994 35.3593 203.323 35.7656 203.704 36.1163C204.608 36.9501 205.646 37.4177 206.895 37.058C207.931 36.7597 208.268 35.7841 207.577 34.9551C207.182 34.4809 206.64 34.1199 206.132 33.7524C205.346 33.1843 204.489 32.7086 203.742 32.0958C202.58 31.142 202.224 29.8647 202.615 28.4186C202.996 27.007 203.995 26.2457 205.384 25.9354C206.751 25.6302 208.046 25.8178 209.233 26.5485C209.464 26.6906 209.663 27.0538 209.687 27.3316C209.75 28.0557 209.708 28.7889 209.708 29.6189ZM195.639 37.02H201.325V39.2031H193.279V26.0115H195.639V37.02ZM183.452 39.2289V25.9982H185.778V36.9932H191.481V39.2289H183.452ZM137.393 37.0364H143.118V39.2267H135.099V25.9995H137.393V37.0364ZM177.747 39.1943V25.9844H180.083V39.1943H177.747Z" fill="#B1C2C9"/>
<path fill-rule="evenodd" clip-rule="evenodd" d="M175.057 46.9032C174.714 47.3312 174.369 47.758 174.028 48.188C173.445 48.9236 173.427 48.925 172.821 48.1705C172.489 47.757 172.161 47.3402 171.677 46.9543V50.9155C170.71 51.2327 170.589 51.1555 170.585 50.2815C170.579 48.7957 170.581 47.3099 170.587 45.8242C170.588 45.5639 170.622 45.3038 170.639 45.0748C171.275 44.84 171.656 45.0559 171.995 45.53C172.429 46.1354 172.926 46.6953 173.439 47.3295C173.963 46.6835 174.424 46.1224 174.876 45.5539C175.349 44.959 175.345 44.9558 176.22 45.0287C176.22 47.0022 176.22 48.982 176.221 50.9621C175.35 51.2176 175.253 51.1526 175.248 50.2672C175.242 49.1615 175.247 48.0559 175.247 46.9502C175.184 46.9346 175.12 46.9188 175.057 46.9032ZM152.712 48.0788C152.698 46.242 154.074 44.9016 155.968 44.9077C157.858 44.9137 159.217 46.2015 159.227 47.9977C159.238 49.8294 157.896 51.1489 155.975 51.1951C154.184 51.2382 152.725 49.8445 152.712 48.0788ZM158.139 48.0262C158.135 46.7718 157.241 45.8897 155.972 45.8868C154.712 45.884 153.781 46.7855 153.776 48.0141C153.77 49.2738 154.741 50.2303 155.998 50.2026C157.265 50.1747 158.144 49.2817 158.139 48.0262ZM189.323 46.7751C189.323 47.8489 189.323 48.7125 189.323 49.5762C189.323 49.8197 189.301 50.0655 189.327 50.3061C189.408 51.0399 189.06 51.2151 188.358 51.0183V45.0501C188.902 44.8599 189.248 45.0482 189.585 45.4514C190.489 46.5334 191.437 47.5779 192.359 48.6447C192.514 48.8239 192.627 49.0393 192.76 49.2381C192.85 49.1943 192.939 49.1504 193.029 49.1067C193.029 48.7307 193.028 48.3546 193.029 47.9787C193.032 47.1266 193.01 46.2731 193.061 45.4239C193.07 45.267 193.357 45.0429 193.543 45.0106C193.662 44.99 193.956 45.2648 193.959 45.4109C193.99 47.1388 193.987 48.8675 193.972 50.5959C193.971 50.754 193.794 51.0538 193.741 51.0446C193.432 50.9905 193.041 50.9521 192.851 50.747C191.861 49.6772 190.925 48.5581 189.967 47.4582C189.814 47.2826 189.648 47.1184 189.323 46.7751ZM113.17 47.9785C113.17 47.1764 113.182 46.3742 113.166 45.5724C113.157 45.1528 113.283 44.9415 113.747 44.974C114.686 45.0403 115.65 44.9581 116.561 45.1452C118.082 45.4575 118.897 46.7606 118.749 48.3661C118.616 49.7965 117.48 50.9488 116.044 51.0502C115.272 51.1048 114.494 51.0678 113.719 51.0947C113.305 51.109 113.158 50.9243 113.163 50.5307C113.174 49.68 113.166 48.8293 113.166 47.9785H113.17ZM114.232 50.0826C115.457 50.107 116.663 50.3515 117.419 49.1106C117.88 48.3552 117.832 47.3694 117.269 46.7193C116.442 45.7633 115.345 45.9162 114.232 45.9825V50.0826ZM141.597 47.5432C141.577 47.9088 141.564 48.1432 141.546 48.4602C140.906 48.4602 140.305 48.4735 139.705 48.4568C138.957 48.4362 139.182 48.9899 139.152 49.3815C139.12 49.7936 139.133 50.1595 139.736 50.117C140.361 50.0729 140.991 50.1072 141.68 50.1072V51.0768C140.611 51.0768 139.529 51.088 138.448 51.0592C138.34 51.0565 138.148 50.8111 138.147 50.6766C138.127 48.8113 138.134 46.9456 138.134 45.03H141.588V45.9294H139.324C139.244 46.0444 139.198 46.0814 139.193 46.1235C139.01 47.5377 139.016 47.5442 140.438 47.5432C140.796 47.5431 141.153 47.5432 141.597 47.5432ZM180.359 45.0178H183.818V45.9205H181.493C181.448 46.0929 181.399 46.2031 181.393 46.3158C181.323 47.5419 181.325 47.5422 182.57 47.5429C182.974 47.5432 183.379 47.5431 183.813 47.5431V48.4595C183.241 48.4595 182.688 48.4954 182.142 48.4501C181.521 48.3985 181.308 48.6553 181.378 49.2461C181.407 49.4836 181.383 49.7272 181.383 50.0736H183.956V51.0727C182.861 51.0727 181.757 51.0819 180.654 51.0572C180.554 51.055 180.373 50.8377 180.372 50.7189C180.354 48.8308 180.359 46.9427 180.359 45.0178ZM123.856 45.938V47.5229H126.233V48.4594C125.683 48.4594 125.152 48.4971 124.629 48.4498C123.99 48.3921 123.725 48.6215 123.813 49.2687C123.844 49.5037 123.818 49.7466 123.818 50.0852H126.399V51.0778C125.317 51.0778 124.236 51.0892 123.156 51.0608C123.045 51.0579 122.848 50.8185 122.847 50.6871C122.826 48.8203 122.833 46.9533 122.833 45.0331H126.263V45.938H123.856ZM163.052 45.0016C163.864 45.0016 164.638 44.9461 165.4 45.0161C166.309 45.0994 166.928 45.8544 166.941 46.7513C166.954 47.586 166.408 48.2572 165.529 48.4375C165.082 48.5293 164.622 48.5616 164.075 48.6331V50.9411C163.101 51.2068 163.011 51.1465 163.008 50.2693C163.003 48.7402 163.003 47.211 163.006 45.6819C163.007 45.4702 163.034 45.2585 163.052 45.0016ZM163.972 45.9867C164.064 46.5422 164.006 47.1524 164.281 47.4845C164.433 47.6674 165.182 47.4627 165.586 47.2708C165.749 47.193 165.851 46.6078 165.734 46.3851C165.375 45.7046 164.711 45.9707 163.972 45.9867ZM210.008 46.4359C209.446 46.2117 209.035 45.9523 208.602 45.9086C208.308 45.8788 207.983 46.1514 207.673 46.2889C207.812 46.5705 207.889 46.9188 208.104 47.1183C208.419 47.41 208.843 47.5783 209.2 47.8285C210.188 48.5209 210.447 49.7286 209.798 50.5468C209.188 51.3167 207.639 51.4629 206.901 50.7076C206.633 50.4332 206.673 49.8558 206.537 49.2633C207.071 49.6244 207.4 49.9128 207.781 50.0871C208.248 50.3011 208.784 50.3167 209.066 49.8034C209.335 49.3131 208.94 48.9876 208.579 48.7247C208.168 48.4245 207.715 48.1801 207.32 47.8618C206.51 47.2092 206.398 46.1978 207.024 45.4959C207.616 44.8319 209.22 44.6634 209.754 45.2871C209.965 45.5337 209.921 45.9989 210.008 46.4359ZM132.018 51.118C131.16 49.1178 130.303 47.1174 129.442 45.1096C130.388 44.8559 130.41 44.8673 130.763 45.6887C131.2 46.7064 131.639 47.7232 132.165 48.9456C132.687 47.7311 133.168 46.7362 133.539 45.7017C133.78 45.0317 134.156 44.8451 134.893 45.0607C134.037 47.0965 133.184 49.1224 132.331 51.1483C132.227 51.1382 132.122 51.1281 132.018 51.118ZM203.202 45.0277V45.9321H201.213V51.0159H200.111V45.9607H198.117V45.0277H203.202ZM146.747 50.0974H149.402V51.0327H145.778V45.0215H146.747V50.0974Z" fill="#8FA3AD"/>
</svg>
