<svg width="269" height="77" viewBox="0 0 269 77" fill="none" xmlns="http://www.w3.org/2000/svg">
<g clip-path="url(#clip0_20449_176539)">
<path d="M132.213 34.4105C131.11 37.1397 130.109 39.6147 129.109 42.09C128.624 43.2892 128.108 44.4773 127.67 45.6932C127.448 46.3077 127.053 46.4648 126.585 46.1592C126.103 45.845 125.545 45.4411 125.339 44.9444C123.422 40.3352 121.573 35.6976 119.708 31.0666C119.689 31.0194 119.719 30.9526 119.741 30.7561C120.551 30.7561 121.382 30.7089 122.202 30.7878C122.419 30.8088 122.675 31.1866 122.785 31.4532C124.003 34.3997 125.196 37.3566 126.397 40.3104C126.45 40.4418 126.516 40.5682 126.648 40.8513C127.322 39.1956 127.94 37.6826 128.555 36.1684C129.2 34.5792 129.87 32.9995 130.469 31.3929C130.667 30.8616 130.956 30.7422 131.47 30.7396C133.686 30.7291 133.686 30.7156 134.518 32.782C135.474 35.1547 136.429 37.5275 137.387 39.8994C137.494 40.1663 137.616 40.4275 137.795 40.8368C138.058 40.2421 138.272 39.7905 138.459 39.3277C139.506 36.7334 140.563 34.1432 141.575 31.5353C141.806 30.9405 142.096 30.6718 142.757 30.7415C143.38 30.8071 144.016 30.7556 144.805 30.7556C144.559 31.4204 144.362 32.0004 144.133 32.5679C142.389 36.8925 140.639 41.2145 138.891 45.5376C138.548 46.3852 138.147 46.5636 137.417 45.9865C136.95 45.6179 136.555 45.0613 136.323 44.5073C134.955 41.238 133.644 37.945 132.213 34.4105Z" fill="#B1C2C9"/>
<path d="M178.65 39.7134C174.476 39.7134 170.352 39.7134 166.226 39.7134C166.298 41.3439 167.995 43.1088 169.865 43.48C171.63 43.8303 173.194 43.4273 174.537 42.1669C174.825 41.896 175.298 41.7337 175.703 41.6928C176.444 41.6182 177.198 41.6716 177.96 41.6716C177.426 44.5424 173.194 46.8215 169.626 46.2312C165.443 45.5392 162.602 41.4324 163.329 37.1265C164.026 32.9889 168.086 30.1767 172.375 30.8589C176.423 31.5028 179.249 35.4279 178.65 39.7134ZM175.716 36.9665C175.092 34.7466 172.88 33.3012 170.538 33.503C168.502 33.6784 166.536 35.2955 166.339 36.9665C169.442 36.9665 172.544 36.9665 175.716 36.9665Z" fill="#B1C2C9"/>
<path d="M160.058 41.6712C159.359 44.6885 154.965 46.9592 151.499 46.1843C147.217 45.2268 144.545 41.1446 145.438 36.9247C146.312 32.7954 150.423 30.0723 154.559 30.8841C158.65 31.6868 161.429 35.616 160.717 39.6915C156.585 39.6915 152.437 39.6915 148.282 39.6915C148.476 41.7377 150.625 43.5473 152.86 43.605C154.176 43.6391 155.412 43.3079 156.341 42.3667C156.916 41.7843 157.501 41.6083 158.26 41.6627C158.849 41.7053 159.444 41.6712 160.058 41.6712ZM157.805 36.9694C157.164 34.7388 154.956 33.2976 152.619 33.5059C150.564 33.6892 148.592 35.3094 148.426 36.9694C151.53 36.9694 154.634 36.9694 157.805 36.9694Z" fill="#B1C2C9"/>
<path d="M99.5891 46.2707C98.0634 46.4102 97.5524 46.0973 96.8813 44.5998C94.839 46.1071 92.5908 46.684 90.0863 46.1065C88.2737 45.6887 86.817 44.7223 85.7071 43.2643C83.3958 40.2275 83.6316 36.06 86.2245 33.2191C88.4458 30.7853 92.7899 29.5435 96.7435 32.3664C97.0797 31.9027 97.3236 31.2936 97.7721 31.0229C98.2415 30.7395 98.9071 30.7807 99.5895 30.6624C99.5891 35.9446 99.5891 41.0789 99.5891 46.2707ZM91.9059 33.4985C89.0834 33.5119 86.7873 35.8228 86.82 38.6169C86.8522 41.3576 89.1965 43.6309 91.9576 43.5991C94.7371 43.567 97.0433 41.2364 96.9847 38.519C96.9241 35.6958 94.6879 33.4854 91.9059 33.4985Z" fill="#B1C2C9"/>
<path d="M111.207 33.4891C111.207 37.0785 111.21 40.5082 111.206 43.9378C111.205 45.712 110.38 46.4505 108.493 46.2636C108.493 42.0529 108.493 37.8279 108.493 33.5064C106.313 33.5064 104.25 33.5064 102.122 33.5064C102.122 32.5558 102.122 31.7035 102.122 30.8003C107.278 30.8003 112.382 30.8003 117.477 30.8003C117.777 32.5196 117.109 33.4212 115.452 33.4793C114.074 33.5274 112.693 33.4891 111.207 33.4891Z" fill="#B1C2C9"/>
<path d="M68.5 33.5211C68.5 33.1063 68.5 32.8673 68.5 32.6282C68.5 32.0573 68.5 31.4863 68.5 30.8327C73.7008 30.8327 78.8577 30.8327 84.0118 30.8327C84.2777 32.5661 83.5761 33.444 81.8545 33.4867C80.5309 33.5195 79.2057 33.4932 77.7289 33.4932C77.7289 33.859 77.7289 34.1728 77.7289 34.4864C77.7287 37.6509 77.7401 40.8155 77.7236 43.9798C77.7146 45.7191 76.7629 46.515 74.98 46.2301C74.98 42.0435 74.98 37.8395 74.98 33.5211C72.7925 33.5211 70.7005 33.5211 68.5 33.5211Z" fill="#B1C2C9"/>
<path d="M181.194 46.2441C181.194 41.1208 181.194 35.9878 181.194 30.803C182.075 30.803 182.903 30.803 183.801 30.803C183.801 31.3591 183.801 31.8633 183.801 32.6232C185.852 31.003 188.043 30.5534 190.447 30.8195C190.447 31.6966 190.447 32.5319 190.447 33.4918C190.013 33.4918 189.602 33.4898 189.191 33.4921C185.989 33.5099 183.826 35.6804 183.815 38.9001C183.808 40.6479 183.824 42.3957 183.82 44.1432C183.815 45.7777 182.918 46.5106 181.194 46.2441Z" fill="#B1C2C9"/>
<path d="M188.69 39.4468C188.512 39.2081 188.392 39.0438 188.269 38.8811C188.149 38.722 188.028 38.5644 187.771 38.2282C187.771 39.0203 187.771 39.6023 187.771 40.1844C187.685 40.2405 187.599 40.2966 187.513 40.3527C187.34 40.1647 187.028 39.9841 187.018 39.7872C186.965 38.8308 186.994 37.8699 186.994 36.91C188.168 36.5229 188.096 37.7372 188.695 38.0955C189.31 37.7819 189.237 36.4911 190.415 36.8814C190.415 37.9511 190.415 39.0505 190.415 40.1511C189.722 40.2709 189.718 40.2709 189.707 39.5539C189.7 39.1473 189.705 38.7405 189.705 38.0673C189.289 38.6323 189.031 38.9824 188.69 39.4468Z" fill="#B1C2C9"/>
<path d="M189.003 43.3481C189.814 43.3718 190.43 44.0017 190.416 44.7933C190.403 45.6214 189.741 46.2383 188.882 46.2243C188.011 46.2104 187.419 45.5915 187.451 44.7283C187.483 43.8656 188.095 43.3215 189.003 43.3481Z" fill="#B1C2C9"/>
<path d="M199.875 39.1661C199.99 39.3393 200.107 39.511 200.219 39.6862C200.313 39.8341 200.401 39.9859 200.5 40.15C199.337 40.8042 199.44 38.941 198.509 39.205C198.467 39.2566 198.419 39.2966 198.395 39.348C198.253 39.6531 198.116 39.9609 197.978 40.2678C197.874 39.9408 197.7 39.618 197.681 39.2861C197.636 38.5101 197.667 37.7298 197.667 36.9667C198.947 36.6266 200.191 36.7774 200.333 37.3907C200.455 37.9155 200.235 38.5197 200.166 39.0887C200.069 39.1146 199.972 39.1404 199.875 39.1661ZM198.413 38.5221C198.867 38.4249 199.253 38.3637 199.618 38.2381C199.665 38.2217 199.651 37.7316 199.577 37.705C199.22 37.576 198.833 37.5306 198.413 37.4468C198.413 37.8744 198.413 38.1258 198.413 38.5221Z" fill="#B1C2C9"/>
<path d="M196.262 37.5161C195.742 37.5161 195.223 37.5161 194.703 37.5161C194.676 37.621 194.649 37.726 194.622 37.831C194.909 37.9723 195.182 38.1634 195.486 38.2445C196.108 38.4113 196.562 38.7041 196.441 39.4204C196.322 40.1314 195.751 40.304 195.148 40.2595C194.716 40.2277 194.295 40.0444 193.783 39.9052C194.248 38.728 195.228 40.2119 195.697 39.2568C195.484 39.1328 195.25 38.9263 194.98 38.8541C194.312 38.6753 193.748 38.4386 193.923 37.5928C194.054 36.9627 194.831 36.6446 195.634 36.8829C195.855 36.9486 196.055 37.0838 196.265 37.1869C196.264 37.2964 196.263 37.4062 196.262 37.5161Z" fill="#B1C2C9"/>
<path d="M192.603 40.1871C191.906 40.2219 191.9 40.2217 191.903 39.3113C191.915 36.5164 191.768 36.764 192.603 36.9079C192.603 37.9971 192.603 39.0932 192.603 40.1871Z" fill="#B1C2C9"/>
</g>
<defs>
<clipPath id="clip0_20449_176539">
<rect width="132" height="15.6749" fill="white" transform="translate(68.5 30.6626)"/>
</clipPath>
</defs>
</svg>
