<svg width="269" height="77" viewBox="0 0 269 77" fill="none" xmlns="http://www.w3.org/2000/svg">
<path fill-rule="evenodd" clip-rule="evenodd" d="M139.021 28.9336L139.021 28.9336C139.216 29.067 139.368 29.1712 139.535 29.2038C141.962 29.6818 143.561 31.1499 144.528 33.3611C144.641 33.6205 144.684 33.9106 144.727 34.2008L144.727 34.2009L144.727 34.2009L144.727 34.201L144.727 34.201L144.727 34.2011L144.727 34.2011L144.727 34.2012L144.727 34.2012L144.727 34.2013L144.727 34.2013L144.727 34.2013C144.747 34.3354 144.767 34.4695 144.793 34.6005L145.125 34.6588C145.219 34.4635 145.317 34.2698 145.415 34.0761C145.626 33.6574 145.838 33.2387 146.009 32.8041C147.221 29.7352 148.422 26.6619 149.601 23.5804C149.891 22.8236 150.167 22.0616 150.443 21.2996L150.443 21.2994L150.443 21.2992C150.815 20.2716 151.188 19.2441 151.593 18.2297C151.716 17.9216 152.171 17.5651 152.476 17.5627C152.766 17.5605 153.193 17.9332 153.329 18.2427C154.394 20.6661 155.416 23.1085 156.424 25.5562C156.843 26.5719 157.25 27.5924 157.656 28.6129L157.657 28.6131L157.657 28.6134L157.657 28.6137L157.657 28.614L157.657 28.6144L157.657 28.6147L157.657 28.615L157.657 28.6154L157.658 28.6158L157.658 28.6163L157.658 28.6169L157.658 28.6173C158.174 29.912 158.691 31.2068 159.23 32.4916C160.301 35.0395 161.375 37.5888 162.553 40.0875C163.086 41.2177 164.092 41.8894 165.398 42.032C165.584 42.0523 165.762 42.1486 165.941 42.2448C166.023 42.2891 166.105 42.3335 166.188 42.3704L166.076 42.6576H154.495L154.395 42.3582C154.488 42.3223 154.58 42.2805 154.672 42.2387L154.672 42.2387C154.872 42.1475 155.073 42.0563 155.282 42.0267C156.427 41.8646 157.329 41.3723 157.484 40.1519C157.567 39.4971 157.482 38.7603 157.256 38.1389C156.619 36.3819 155.884 34.659 155.145 32.9416C155.059 32.7436 154.698 32.5521 154.462 32.549C153.111 32.5308 151.76 32.5302 150.408 32.5296C149.481 32.5292 148.553 32.5288 147.626 32.5227C146.921 32.5181 146.772 33.0088 146.633 33.4634L146.633 33.4634C146.592 33.5955 146.553 33.7245 146.501 33.8374C145.982 34.9697 145.523 36.1447 145.196 37.345C145.138 37.556 145.065 37.7667 144.991 37.9784C144.717 38.7684 144.437 39.5725 144.953 40.4606C145.396 41.2231 145.907 41.8021 146.788 42.0152C146.966 42.0582 147.133 42.1452 147.301 42.2321L147.301 42.2322C147.377 42.272 147.454 42.3118 147.532 42.3474L147.523 42.3857L147.488 42.5417L147.475 42.5987H110.193L110.121 42.373C110.214 42.3368 110.307 42.2944 110.4 42.252C110.6 42.1604 110.801 42.0687 111.01 42.0396C112.606 41.8179 113.497 40.9102 113.642 39.2767C113.686 38.7729 113.722 38.2681 113.758 37.7633V37.7633V37.7633V37.7633V37.7632V37.7632V37.7632V37.7632V37.7631V37.7631V37.7631V37.7631C113.807 37.0649 113.856 36.3667 113.929 35.671C114.226 32.8723 113.336 30.457 111.75 28.1868C110.643 26.6023 109.581 24.9868 108.519 23.3712L108.519 23.3712C107.755 22.2089 106.991 21.0466 106.21 19.8957C105.454 18.7815 104.309 18.2155 103.008 17.9469C102.88 17.9205 102.763 17.8432 102.665 17.6185H114.42L114.464 17.7894C114.329 17.8339 114.195 17.8814 114.061 17.9289L114.061 17.9289C113.768 18.0328 113.474 18.1368 113.174 18.2098C111.782 18.5481 111.193 19.8026 111.959 21.0576C112.999 22.7621 114.076 24.4439 115.153 26.1258L115.153 26.1258L115.153 26.1259L115.153 26.1262L115.154 26.1266L115.154 26.1269L115.154 26.1273L115.154 26.1277L115.154 26.128C115.568 26.7731 115.981 27.4182 116.392 28.0646C116.605 28.3995 116.821 28.7319 117.061 29.0997L117.062 29.1007L117.062 29.1014C117.181 29.283 117.305 29.4733 117.437 29.6768C117.512 29.5904 117.588 29.5095 117.662 29.431L117.662 29.431L117.662 29.431L117.662 29.431L117.662 29.4308L117.662 29.4307L117.662 29.4307C117.814 29.2679 117.958 29.1149 118.071 28.9422C118.465 28.3406 118.867 27.7432 119.268 27.1457L119.268 27.1457L119.268 27.1456L119.268 27.1456C120.308 25.599 121.349 24.052 122.259 22.432C123.232 20.6989 123.367 18.5521 120.602 17.9464C120.463 17.9159 120.33 17.855 120.186 17.6017C120.27 17.592 120.355 17.5797 120.439 17.5673C120.62 17.5407 120.802 17.514 120.984 17.514C122.372 17.5139 123.759 17.5105 125.147 17.507C129.016 17.4974 132.885 17.4879 136.752 17.5496C138.975 17.585 140.935 18.4358 142.012 20.5306C143.648 23.712 142.237 27.3478 138.66 28.6988C138.799 28.7811 138.916 28.8616 139.021 28.9336ZM125.949 30.1527H125.953C125.953 29.4849 125.954 28.817 125.955 28.1491V28.1491V28.1491V28.1491V28.149V28.149V28.149V28.149V28.149V28.1489V28.1489V28.1489C125.958 26.2649 125.96 24.3809 125.941 22.4971C125.936 21.9656 125.815 21.4272 125.684 20.9081C125.635 20.7135 125.522 20.5349 125.41 20.3563C125.359 20.2757 125.308 20.195 125.263 20.1129C125.189 20.178 125.11 20.2394 125.032 20.3008L125.032 20.3008C124.862 20.4332 124.692 20.5657 124.576 20.7352C123.879 21.7591 123.189 22.7879 122.498 23.8167C121.501 25.3035 120.504 26.7902 119.484 28.2619C118.383 29.8521 117.826 31.5308 117.984 33.4999C118.06 34.4415 118.049 35.3896 118.038 36.3382V36.3382V36.3383V36.3383V36.3383V36.3383V36.3383V36.3384V36.3384V36.3384V36.3384V36.3384V36.3385C118.03 37.0627 118.021 37.7873 118.051 38.5094C118.078 39.1545 118.243 39.8388 118.523 40.4192C119.121 41.6571 120.806 42.4433 122.184 42.1928C122.336 42.1652 122.492 42.141 122.648 42.1166L122.648 42.1166C123.595 41.969 124.58 41.8155 125.071 40.8687C125.513 40.0172 125.87 39.0249 125.91 38.0802C125.99 36.1879 125.975 34.2916 125.96 32.3953C125.955 31.6477 125.949 30.9001 125.949 30.1527ZM130.016 34.4595H130.029C130.029 34.8697 130.027 35.2799 130.025 35.6901C130.02 36.6153 130.014 37.5405 130.035 38.4651C130.074 40.1574 130.802 41.1858 132.38 41.7468C133.676 42.2074 134.963 42.0458 136.282 41.6968C138.529 41.1022 140.064 39.49 140.231 37.2259C140.307 36.1939 140.273 35.1431 140.176 34.1113C140.017 32.4086 138.484 30.7754 136.916 30.2291C135.217 29.6371 133.486 29.635 131.749 29.6329H131.749H131.749H131.749H131.749H131.749H131.748H131.748H131.748H131.748H131.748H131.748C131.437 29.6325 131.126 29.6321 130.815 29.6283C130.239 29.6214 130 29.8721 130.009 30.4538C130.024 31.4005 130.021 32.3473 130.018 33.2942C130.017 33.6826 130.016 34.0711 130.016 34.4595ZM130.015 28.8151C130.448 28.8151 130.87 28.8202 131.282 28.8251C132.272 28.837 133.212 28.8482 134.147 28.7878C134.715 28.7511 135.299 28.4811 135.814 28.2035C137.853 27.1061 138.887 24.1996 137.873 21.5909C137.322 20.1729 136.548 18.8358 135.034 18.5131C133.896 18.2703 132.702 18.2795 131.512 18.2887C131.122 18.2917 130.732 18.2947 130.345 18.2888C130.239 18.2871 130.038 18.6949 130.032 18.9164C130.008 19.7801 130.011 20.6446 130.014 21.5091V21.5095C130.014 21.7988 130.015 22.0881 130.015 22.3773C130.015 23.7251 130.015 25.0728 130.015 26.4407V26.4563V26.4721V26.488V26.5042V26.5205V26.537V26.5538V26.5707V26.5878V26.6052V26.6228L130.015 28.8151ZM147.352 31.7396C148.026 31.7396 148.679 31.7402 149.315 31.7407H149.315H149.315H149.315H149.315H149.315H149.315H149.316H149.316H149.316H149.316H149.316C150.903 31.7421 152.393 31.7434 153.883 31.7356C154.543 31.7321 154.53 31.2867 154.357 30.8476C153.767 29.3583 153.156 27.8775 152.543 26.3975C152.2 25.5693 151.85 24.7441 151.5 23.9188L151.5 23.9169L151.499 23.9154L151.498 23.9141C151.346 23.5537 151.193 23.1933 151.041 22.8326L151.04 22.8326L151.04 22.8326L151.04 22.8326C150.941 22.8264 150.842 22.8202 150.743 22.8138L150.686 22.9637L150.617 23.1447C149.549 25.9571 148.478 28.7751 147.352 31.7396ZM134.377 59.4799C121.526 59.4799 108.676 59.4799 95.8263 59.4797C95.7562 59.4797 95.6847 59.4837 95.6131 59.4878H95.6131H95.6131H95.6131C95.4367 59.4977 95.2598 59.5077 95.1026 59.4572C94.9157 59.3973 94.6515 59.2038 94.6431 59.0568C94.6325 58.8721 94.8054 58.5857 94.976 58.5042C95.1674 58.4127 95.4105 58.4165 95.6435 58.4202C95.6886 58.4209 95.7334 58.4216 95.7774 58.4216C121.535 58.4188 147.293 58.419 173.051 58.4192H173.152C173.206 58.4192 173.264 58.4136 173.323 58.4081C173.46 58.395 173.597 58.3819 173.689 58.4396C173.865 58.5489 174.013 58.7004 174.162 58.852C174.224 58.9149 174.285 58.9778 174.349 59.0377C174.279 59.0824 174.21 59.1323 174.141 59.1823C173.984 59.2964 173.827 59.4106 173.651 59.4618C173.475 59.5133 173.28 59.5016 173.085 59.4899C173.002 59.4849 172.918 59.4799 172.836 59.4799H134.377ZM139.943 45.2349L134.545 45.235H96.089C96.0075 45.235 95.9244 45.2299 95.8412 45.2248H95.8412H95.8412H95.8412H95.8412H95.8411H95.8411H95.8411H95.8411H95.8411H95.841C95.6453 45.2129 95.4494 45.2009 95.2741 45.2551C95.1086 45.3063 94.9642 45.4256 94.8197 45.5449L94.8197 45.5449L94.8197 45.5449L94.8197 45.5449C94.7563 45.5972 94.6929 45.6496 94.6277 45.6962C94.6865 45.7553 94.7428 45.8189 94.799 45.8824C94.9305 46.0311 95.062 46.1797 95.2254 46.2707C95.3399 46.3344 95.4983 46.3202 95.6561 46.3061H95.6561H95.6562H95.6562H95.6562L95.6563 46.3061L95.6564 46.3061C95.7234 46.3 95.7903 46.2941 95.8536 46.2941C121.582 46.2944 147.31 46.2946 173.039 46.2924C173.11 46.2924 173.187 46.2953 173.265 46.2983L173.265 46.2983C173.732 46.3159 174.271 46.3363 174.293 45.7614C174.318 45.1295 173.821 45.1804 173.389 45.2245C173.283 45.2353 173.181 45.2457 173.092 45.2456C162.042 45.2343 150.993 45.2346 139.943 45.2349ZM124.117 48.2458C124.096 48.5054 124.07 48.7636 124.044 49.0207C123.976 49.7025 123.909 50.3765 123.931 51.0476C123.939 51.2954 124.444 51.7028 124.751 51.7327C125.683 51.8237 126.631 51.7998 127.568 51.7412C127.789 51.7274 128.153 51.417 128.172 51.2168C128.244 50.4652 128.233 49.7 128.177 48.9456C128.166 48.7994 128.041 48.6616 127.9 48.5068L127.9 48.5067L127.9 48.5067C127.83 48.4303 127.757 48.3498 127.692 48.2621H130.038C129.999 48.4272 129.952 48.5906 129.904 48.753C129.801 49.105 129.7 49.4522 129.689 49.8021C129.644 51.2874 129.644 52.7762 129.69 54.2615C129.706 54.7561 129.789 55.2487 129.875 55.7661C129.916 56.008 129.957 56.2553 129.993 56.5108H128.171C128.171 56.2178 128.172 55.9272 128.173 55.6386V55.637V55.6354V55.6338V55.6322V55.6306V55.629V55.6274V55.6258V55.6243C128.176 54.6052 128.179 53.6105 128.144 52.617C128.14 52.4859 127.769 52.27 127.561 52.2603C127.128 52.2406 126.694 52.2442 126.26 52.2479C125.814 52.2517 125.367 52.2554 124.922 52.2337C124.144 52.1958 123.869 52.6292 123.893 53.2802C123.92 54.029 123.984 54.7765 124.05 55.544L124.05 55.5443L124.05 55.5449L124.05 55.5458L124.05 55.5462L124.05 55.5465C124.078 55.8736 124.106 56.2043 124.132 56.5403H122.336C122.336 56.0131 122.336 55.4874 122.337 54.9629V54.9606V54.9582V54.9558V54.9535V54.9512V54.9489V54.9465V54.9442V54.9439C122.339 52.9346 122.34 50.9427 122.315 48.9511C122.313 48.8104 122.181 48.6715 122.03 48.5112C121.952 48.4294 121.869 48.342 121.796 48.246C122.632 48.2458 123.462 48.2458 124.098 48.2458H124.117ZM104.903 56.5361H106.661L106.263 53.4978C107.189 52.8624 107.657 53.2403 108.108 53.8889C108.6 54.598 109.143 55.2769 109.711 55.9278C110.409 56.7288 111.297 56.7409 112.094 56.5177C111.845 56.2431 111.597 55.967 111.348 55.6904L111.347 55.6897L111.347 55.6889L111.346 55.6881C110.762 55.0388 110.176 54.3871 109.577 53.7478C108.955 53.0845 108.674 52.6009 109.519 51.7492C110.541 50.7197 110.472 48.7328 108.76 48.306C107.786 48.063 106.735 48.1254 105.734 48.1848C105.304 48.2104 104.883 48.2354 104.481 48.2354C104.535 48.3648 104.595 48.4839 104.653 48.5965C104.768 48.8223 104.87 49.0217 104.877 49.2246C104.91 50.1563 104.907 51.0892 104.904 52.0221V52.0222C104.903 52.3349 104.902 52.6476 104.902 52.9603C104.903 53.7736 104.903 54.587 104.903 55.4239V55.4254L104.903 56.5361ZM106.352 50.7916C106.351 50.7065 106.351 50.6215 106.351 50.5365C106.351 50.4703 106.352 50.404 106.353 50.3378C106.355 50.1917 106.357 50.0456 106.349 49.9001C106.319 49.3651 106.317 48.8138 106.975 48.6737C107.575 48.5461 108.466 49.243 108.525 49.8657C108.574 50.3758 108.576 50.896 108.539 51.4075C108.483 52.1781 107.986 52.5777 107.222 52.5447C106.428 52.5105 106.324 51.9861 106.349 51.355C106.356 51.1675 106.354 50.9795 106.352 50.7916ZM119.679 55.0178C120.104 56.122 119.861 56.5161 118.766 56.6421C117.104 56.8333 115.501 56.7934 114.016 55.8699C112.682 55.0399 111.865 53.0715 112.204 51.378C112.527 49.7608 114.01 48.2874 115.6 48.149C116.685 48.0545 117.788 48.0753 118.877 48.1395C120.119 48.2126 120.391 48.8349 119.667 49.9621C119.086 48.764 118.044 48.5195 116.869 48.5303C115.953 48.5386 115.176 48.8338 114.616 49.5785C113.363 51.2458 113.638 54.475 115.942 55.7526C116.919 56.294 119.011 55.8389 119.679 55.0178ZM154.588 49.685C156.425 47.7819 158.252 48.233 159.948 49.9926C160.374 49.032 160.24 48.32 159.619 48.1831C157.865 47.7969 156.117 47.6514 154.442 48.5215C153.075 49.2317 152.387 50.4128 152.261 51.8982C152.124 53.5221 152.66 54.9142 154.06 55.8354C155.477 56.7677 157.051 56.9299 158.711 56.659C159.786 56.4834 160.125 56.1339 160.121 54.9321C159.964 55.0266 159.811 55.134 159.658 55.2413L159.658 55.2414C159.31 55.4844 158.963 55.7274 158.579 55.8222C157.951 55.9776 157.228 55.9718 156.596 55.823C156.024 55.6884 155.416 55.3697 155.004 54.9538C153.571 53.5062 153.679 50.6256 154.588 49.685ZM102.664 56.5932H102.663H102.663H102.663C102.283 56.597 101.838 56.6014 101.395 56.5757C101.269 56.5684 101.108 56.3888 101.047 56.2513C100.96 56.0587 100.913 55.8475 100.866 55.6378C100.855 55.5906 100.845 55.5436 100.834 55.4968C100.439 53.8149 99.6499 53.3095 98.0046 53.6939L97.9778 53.7001C97.8656 53.7257 97.7152 53.7602 97.6874 53.8304C97.4265 54.492 97.1797 55.1592 96.933 55.8264L96.933 55.8264C96.8662 56.0073 96.7993 56.1882 96.7321 56.3689L96.981 56.5248H95.4386L99.0524 47.8999L99.3038 47.8644C100.183 49.9313 101.062 51.9982 101.961 54.1103L101.963 54.1153L101.969 54.1296L101.971 54.1355L101.985 54.1681L101.992 54.1849L103.016 56.5908C102.907 56.5908 102.789 56.592 102.664 56.5932H102.664H102.664ZM99.0166 50.7519L98.7404 50.8212L97.869 52.904H99.8663C99.5523 52.1083 99.2845 51.43 99.0166 50.7519ZM147.873 49.5538C147.875 49.3183 147.877 49.0745 147.877 48.8192C148.792 48.8954 149.584 48.9612 150.455 49.0334L150.725 48.2416H145.691C146.596 49.0037 146.702 54.6972 145.969 56.4629C145.993 56.4752 146.018 56.4909 146.042 56.5066C146.094 56.5404 146.147 56.5744 146.2 56.5753C146.414 56.5788 146.628 56.5826 146.842 56.5863L146.843 56.5864C147.902 56.605 148.962 56.6236 150.021 56.6167C150.826 56.6114 151.069 56.2447 150.923 55.2666C150.282 56.001 149.471 55.9199 148.68 55.8408L148.68 55.8408L148.68 55.8408L148.68 55.8408C148.61 55.8339 148.541 55.8269 148.472 55.8206C148.261 55.8012 147.92 55.5073 147.908 55.3219C147.865 54.6663 147.871 54.0075 147.877 53.2907V53.2907V53.2906V53.2906V53.2905V53.2903V53.2901V53.2899C147.879 53.0259 147.881 52.754 147.881 52.4716C148.779 52.538 149.561 52.5958 150.385 52.6565V51.7827C150.181 51.7827 149.984 51.7856 149.792 51.7884C149.308 51.7955 148.857 51.802 148.409 51.7612C148.22 51.7439 147.913 51.4802 147.901 51.3123C147.862 50.7482 147.867 50.1809 147.873 49.5538ZM169.863 54.9136L169.864 54.9138C169.947 55.0632 170.03 55.2128 170.156 55.2999C170.257 55.3697 170.359 55.447 170.464 55.5252L170.464 55.5254C170.84 55.8082 171.234 56.1039 171.622 56.1094C172.075 56.1158 172.802 55.6676 172.924 55.2707C173.063 54.8214 172.801 54.0926 172.468 53.686C172.143 53.2883 171.759 52.9364 171.375 52.585C170.925 52.1723 170.476 51.7604 170.123 51.2764C169.345 50.2076 169.711 48.9139 170.867 48.3131C171.689 47.886 172.582 47.6175 173.54 48.0859C174.26 48.4376 174.354 48.9192 173.809 49.4499C173.672 49.3547 173.54 49.2469 173.409 49.1401C173.11 48.8955 172.817 48.6564 172.487 48.5853C172.12 48.506 171.369 48.7817 171.301 49.0362C171.174 49.513 171.256 50.2125 171.546 50.595C171.832 50.9722 172.216 51.2719 172.602 51.573L172.602 51.5731C172.854 51.7694 173.106 51.9663 173.333 52.1857C174.815 53.6211 174.703 55.4844 173.056 56.3908C172.054 56.9418 170.913 56.8661 169.92 56.465C169.673 56.3654 169.564 55.9266 169.455 55.4879C169.405 55.2878 169.355 55.0877 169.292 54.9199C169.409 54.867 169.526 54.8145 169.643 54.7619L169.746 54.7157C169.788 54.7776 169.826 54.8454 169.863 54.9133L169.863 54.9136ZM163.575 56.5287H165.775C165.729 56.3858 165.676 56.2536 165.627 56.1283C165.527 55.8771 165.439 55.6539 165.434 55.429C165.394 53.4558 165.387 51.4814 165.407 49.5078C165.409 49.3073 165.662 48.9388 165.801 48.9377C165.968 48.9363 166.139 48.9212 166.312 48.9061C166.985 48.8468 167.679 48.7857 168.273 49.5315V48.1232C167.645 48.1232 167.019 48.1208 166.394 48.1185C164.712 48.1123 163.036 48.1061 161.36 48.145C160.782 48.1585 160.633 48.6674 160.724 49.1284C160.967 49.1021 161.204 49.077 161.438 49.0522L161.439 49.052L161.439 49.052C161.963 48.9965 162.469 48.943 162.973 48.883C163.668 48.8004 163.94 49.0556 163.92 49.7934C163.894 50.7512 163.896 51.7097 163.899 52.6683C163.901 53.5017 163.902 54.3351 163.886 55.1681C163.88 55.4635 163.794 55.7574 163.702 56.0686C163.658 56.2173 163.613 56.37 163.575 56.5287ZM141.703 56.5234H139.635C139.659 56.3285 139.687 56.142 139.714 55.9612C139.771 55.5824 139.824 55.2285 139.829 54.8738C139.843 53.9977 139.843 53.1214 139.843 52.2451C139.843 51.3936 139.844 50.5422 139.856 49.691C139.864 49.1108 139.655 48.8337 139.063 48.8877L137.39 49.0401L136.992 49.0764V48.178H144.234V49.2908C144.142 49.2434 144.063 49.1993 143.992 49.1593C143.858 49.0842 143.749 49.0235 143.634 48.9832C142.028 48.424 141.355 48.8977 141.356 50.5807C141.357 50.9757 141.355 51.3708 141.354 51.7659C141.351 52.8864 141.347 54.007 141.377 55.1267C141.385 55.4222 141.472 55.7156 141.567 56.0354L141.567 56.0354L141.567 56.0356C141.613 56.1908 141.661 56.3524 141.703 56.5234ZM135.102 48.2147H132.909C132.96 48.3589 133.016 48.4899 133.069 48.6124C133.173 48.854 133.263 49.0624 133.267 49.2725C133.292 50.5133 133.289 51.7546 133.286 52.996C133.285 53.4251 133.284 53.8542 133.284 54.2833C133.284 54.7702 133.284 55.2572 133.284 55.7512C133.284 56.0009 133.284 56.2523 133.284 56.5065H135.025C134.72 53.6972 134.572 50.9914 135.102 48.2147Z" fill="#B1C2C9"/>
</svg>
